<?xml version="1.0" encoding="utf-8"?>
<!-- Generator: Adobe Illustrator 27.5.0, SVG Export Plug-In . SVG Version: 6.00 Build 0)  -->
<svg version="1.1" xmlns="http://www.w3.org/2000/svg" xmlns:xlink="http://www.w3.org/1999/xlink" x="0px" y="0px"
	 viewBox="0 0 500 500" style="enable-background:new 0 0 500 500;" xml:space="preserve">
<g id="background">
	<rect style="fill:#FFCA57;" width="500" height="500"/>
</g>
<g id="objects">
	<g>
		
			<ellipse transform="matrix(0.7071 -0.7071 0.7071 0.7071 -68.1555 235.3375)" style="fill:none;stroke:#FFAD57;stroke-width:1.5;stroke-miterlimit:10;" cx="250" cy="199.94" rx="161.994" ry="161.994"/>
		
			<ellipse transform="matrix(0.7071 -0.7071 0.7071 0.7071 -68.1555 235.3371)" style="fill:none;stroke:#FFAD57;stroke-width:4;stroke-miterlimit:10;" cx="249.999" cy="199.939" rx="172.884" ry="172.884"/>
		<g>
			<path style="fill:none;stroke:#FFAD57;stroke-width:1.5;stroke-miterlimit:10;" d="M249.498,44.494
				c-11.333,0-83.115,104.75,0,146.217C332.613,149.244,260.83,44.494,249.498,44.494z"/>
			<path style="fill:none;stroke:#FFAD57;stroke-width:1.5;stroke-miterlimit:10;" d="M158.225,74.477
				c-9.168,6.662-5.672,133.598,85.943,118.291C287.037,110.367,167.393,67.814,158.225,74.477z"/>
			<path style="fill:none;stroke:#FFAD57;stroke-width:1.5;stroke-miterlimit:10;" d="M102.007,152.381
				c-3.501,10.779,73.939,111.416,139.06,45.184C227.315,105.701,105.508,141.602,102.007,152.381z"/>
			<path style="fill:none;stroke:#FFAD57;stroke-width:1.5;stroke-miterlimit:10;" d="M102.317,248.451
				c3.504,10.777,125.307,46.678,139.061-45.184C176.255,137.033,98.813,237.672,102.317,248.451z"/>
			<path style="fill:none;stroke:#FFAD57;stroke-width:1.5;stroke-miterlimit:10;" d="M159.036,325.992
				c9.17,6.658,128.812-35.891,85.945-118.293C153.364,192.391,149.866,319.33,159.036,325.992z"/>
			<path style="fill:none;stroke:#FFAD57;stroke-width:1.5;stroke-miterlimit:10;" d="M250.5,355.385
				c11.332-0.004,83.115-104.75,0-146.219C167.382,250.633,239.165,355.385,250.5,355.385z"/>
			<path style="fill:none;stroke:#FFAD57;stroke-width:1.5;stroke-miterlimit:10;" d="M341.773,325.402
				c9.164-6.664,5.672-133.598-85.945-118.293C212.957,289.512,332.603,332.065,341.773,325.402z"/>
			<path style="fill:none;stroke:#FFAD57;stroke-width:1.5;stroke-miterlimit:10;" d="M397.992,247.498
				c3.496-10.779-73.939-111.416-139.063-45.184C272.682,294.178,394.488,258.277,397.992,247.498z"/>
			<path style="fill:none;stroke:#FFAD57;stroke-width:1.5;stroke-miterlimit:10;" d="M397.682,151.426
				c-3.506-10.775-125.307-46.676-139.063,45.186C323.74,262.848,401.184,162.207,397.682,151.426z"/>
			<path style="fill:none;stroke:#FFAD57;stroke-width:1.5;stroke-miterlimit:10;" d="M340.961,73.885
				c-9.17-6.656-128.81,35.891-85.945,118.295C346.633,207.488,350.131,80.549,340.961,73.885z"/>
		</g>
	</g>
	<g>
		<path style="fill:#FBEBDA;" d="M212.868,151.273c-4.167,3.833-6.167,8.332-9.167,17.666c-3,9.334-9.167,14.334-9.334,21.834
			c25.167-2,108.335,3.167,108.335,2.667c-0.5-6.667-3.334-11.835-6.5-16.501c-3.168-4.666-2.168-11.832-4.334-17.499
			c-2.166-5.667-4.834-13.834-4.834-13.834S218.369,143.773,212.868,151.273z"/>
		<path style="fill:#BD7C51;" d="M189.534,307.772c0.833-4,0.5-9.499,0.167-14.666c-0.334-5.167-0.834-11.334-0.834-11.334
			c-3.5,12.5-6.333,23.167-14.833,31.667s-18.167,7.333-27.667-5c-9.5-12.333-1.666-28.167,2.5-41
			c4.167-12.833,6.501-40.167,12.834-54.5c6.333-14.333,12.499-19.5,31.333-24.5s20.668-5.5,23.334-8
			c7,9.167,47.834,33.833,47.834,33.833s-20.502,57.666-41.168,79.833C208.868,304.772,189.534,307.772,189.534,307.772z"/>
		<path style="fill:#BD7C51;" d="M218.034,140.939c-3.333-0.833-7.832,0.333-7.166,6.333s3.167,12.5,7,11
			C217.868,158.273,219.867,155.106,218.034,140.939z"/>
		<path style="fill:#BD7C51;" d="M282.98,141.149c2.887-1.21,7.387,0.123,5.721,7.123c-1.668,7-2.584,10.168-5.334,9.835
			C281.617,151.69,281.428,143.859,282.98,141.149z"/>
		<path style="fill:#C25C17;" d="M141.534,451.69c-1.75,3-1.875,6.625,0.125,7.75s8.75,1.5,9.75-1.625s-0.125-5.875-1.125-6.625
			S142.784,450.565,141.534,451.69z"/>
		<path style="fill:#C25C17;" d="M135.034,441.94c-0.125,3.25-1.75,7.875,2.375,9.375s17.375,1.25,19-2s0.75-7.125-1.375-8
			S137.159,438.565,135.034,441.94z"/>
		<path style="fill:#C25C17;" d="M377.869,451.69c1.75,3,1.875,6.625-0.125,7.75s-8.75,1.5-9.75-1.625s0.125-5.875,1.125-6.625
			S376.619,450.565,377.869,451.69z"/>
		<path style="fill:#C25C17;" d="M384.369,441.94c0.125,3.25,1.75,7.875-2.375,9.375s-17.375,1.25-19-2s-0.75-7.125,1.375-8
			S382.244,438.565,384.369,441.94z"/>
		<path style="fill:#FF912B;" d="M141.534,400.19c-3.5,5.625-13.875,23-17.625,28.125s-3.875,7.625-3.75,9.375s0.625,5.375,0.75,6
			s24.25-0.25,41.25-0.25s32.625,0.5,38,0.25s120-1.625,125-1.5s41.375,1.75,49.625,1.625s16.5-0.25,17.25-0.375s1-3,1.375-5.875
			s1-1.75-1.5-5s-20-24-20-24L141.534,400.19z"/>
		<path style="fill:#FF7B00;" d="M145.784,403.69c-9.25-2-25.75-6-30-24s4.25-32.5,15.75-36.5s29.25-6.5,37.75-8
			s101.75-13.75,101.75-13.75l14-3c0,0-2.75,10.5,12.5,14.75s22.5,5,27.5,5.75s21.5,6,36,14s27,20.75,26,32.25s-6.5,20.5-19.25,27
			s-16.5,1.25-31.5,8.25s-27.25,3.75-40.5,3.75s-16.75,3-26.75,4.25s-50.083,3.75-55.083,4.25s-12.417,1-17.417-7s-7-21-13.75-21.75
			c-8-0.25-18.25-3-23-5.5S146.534,396.19,145.784,403.69z"/>
		<path style="fill:#B07045;" d="M196.784,447.94c-0.375,0.75,2.25,4.75,9.375,10.625s20.5,10.125,46.124,10.125
			c25.625,0,41.875-8.75,47.125-16.5c2.875-4.25,4.875-4.625,1.25-6.75S197.659,446.565,196.784,447.94z"/>
		<path style="fill:#BD7C51;" d="M206.409,431.815c-1.625,0.625-2.25,3.75-3.625,6.25c-2.694,4.898-5.75,8.625-6,9.875
			c0,1,9.125,0.5,16.125,0.375s26.5-0.5,32.375-0.5c5.874,0,31.375,0.375,39.5-0.375s18-0.5,17-1.625s-6.75-10.5-7.25-11.625
			s-2.25-2.625-4.375-2.375s-9.625,0-9.625,0S209.159,430.815,206.409,431.815z"/>
		<path style="fill:#FBC48A;" d="M211.159,427.94c0.25,2.5,1.75,11.625,2,12.75s1.875,1.125,5.125,0.875s30.25-0.5,37.75-0.375
			c7.5,0.125,27,0.375,28.875,0.25s1.75-1.125,2-1.875s0.5-11-0.125-11.625S214.659,426.815,211.159,427.94z"/>
		<path style="fill:#FBDDBC;" d="M222.659,413.815c-1.625,1.875-10.625,12.125-11.375,13.375s0.125,1.5,3.625,1.5
			s68.937-0.063,70.562-0.063s1.813-0.063,0.563-3.063s-4.375-9.875-4.75-10.875s-2-1.75-5.25-1.75s-46.25,0.25-48.375,0.5
			S223.659,412.94,222.659,413.815z"/>
		<path style="fill:#BD7C51;" d="M303.867,261.106c2.834,7.666,9.834,15.834,14.334,23c4.5,7.166,8,8.999,10.166,20.166
			c2.168,11.167,9.334,22.667,16.668,29.167c7.332,6.5,13.666,10.333,14,15.333c0.332,5-3.332,11.501-2.334,20.834
			c1,9.333,0.832,13.166,2.5,15.333c1.666,2.167,3.666,0.833,5-0.667c-3.666,8.667-5.166,11-2.834,12.667c2.334,1.667,5-0.5,5-0.5
			c3.168,2.833,5.668,1.001,7-0.833c2.834,1.833,6.166-3.5,8.5-8.167c7.168-0.833,8.334-14.833,7-21.5
			c-1.332-6.667-4.832-13.834-8.5-23.667c-3.666-9.833-9.834-24.5-13.166-31.5c-3.334-7-9.334-21.666-17.166-30.833
			c-7.834-9.167-11.334-22.833-15-34c-3.668-11.167-9-31.333-13.834-33c-5.334,3-7.166,12.667-9.5,21.5
			c-2.334,8.833-6.666,14.667-6.666,14.667L303.867,261.106z"/>
		<path style="fill:#BD7C51;" d="M264.908,365.94c1.375-4.25,6.5-14.125,16.5-14.25s13.875,2.75,21.25-2.875s15.75-12.125,21.5-12.5
			s11.125,4,12.125,9.875s-4.625,14.375-16.5,17.625s-28.75,13-28.75,13c-6.25-6-10.375-5.875-15.125-6.375
			S268.283,367.065,264.908,365.94z"/>
		<path style="fill:#BD7C51;" d="M183.284,403.815c-5.75,1-14.75-1.875-19.5-4s-11.5-4.25-15.625-1s-1.5,10.625,4.25,18.375
			s16.25,16.75,44.125,8.5c-3.25-4.125-4.826-9.919-6.75-14.375C187.409,405.815,186.409,404.19,183.284,403.815z"/>
		<path style="fill:#FF912B;" d="M329.467,207.803c0.041-0.066,0.068-0.131,0.068-0.196c-2-4.334-10.168-10.334-16-11.667
			c-5.834-1.333-8.668-3.166-16.5-7.833c-7.834-4.667-12.168-5.667-12.168-5.667s-19.334,32.667-23,37.167
			c-3.666,4.5-7.834,11.166-17.999,25.166c-10.166,14-11.333,22.167-21.333,35.167s-14.999,18.166-21.833,21.333
			c-6.834,3.167-10.667,4.667-12.667,7.167s-2.001,2.999-4.834,8.666c-2.833,5.667-3.999,9-9.666,12
			c-5.667,3-10.666,4.168-11.833,7.334c6-0.5,6-0.5,6-0.5s10.499,1.499,16.833,6.166c6.333,4.667,17.501,10.335,27.667,9.501
			c10.166-0.834,19-6.167,29.333-13.834c10.332-7.667,13.5-7.833,21.167-7.333c7.666,0.5,15.166-0.666,19.834-6
			c4.666-5.334,9.666-13,16.166-12.167c6.5,0.833,8.334,2.333,8.334,2.333s1.5-9.501-0.834-22.167
			c-2.334-12.666-2.336-14.832-1.834-23.499c0.5-8.667,0.668-19.833,0.668-19.833c5.666-8.5,7.832-27.75,15.832-35.75
			c0.043-0.071,0.098-0.136,0.145-0.205c3.57,1.968,5.465,7.968,7.022,12.789c1.084,3.25,1.832,4.166,1.75,4.416
			c0.75-2.583,1.25-9.416,1.666-12.416C331.783,215.535,331.365,210.669,329.467,207.803z"/>
		<g>
			
				<line style="fill:none;stroke:#000000;stroke-width:3;stroke-linecap:round;stroke-linejoin:round;" x1="229.534" y1="216.189" x2="229.534" y2="216.189"/>
			<path style="fill:none;stroke:#000000;stroke-width:3;stroke-linecap:round;stroke-linejoin:round;stroke-dasharray:0,4.07;" d="
				M229.727,220.253c0.866,11.788,4.386,25.714,9.307,34.437c1.25,2.25,3,4.75,5.75,5.5c2.75,1,5.5-0.5,7.249-2.25
				c4.5-4.5,6.25-10.75,7.25-16.75c0.648-4.105,1.297-8.398,1.299-12.716"/>
			
				<line style="fill:none;stroke:#000000;stroke-width:3;stroke-linecap:round;stroke-linejoin:round;" x1="260.533" y1="226.439" x2="260.533" y2="226.439"/>
		</g>
		<g>
			
				<line style="fill:none;stroke:#000000;stroke-width:3;stroke-linecap:round;stroke-linejoin:round;" x1="223.034" y1="198.607" x2="223.034" y2="198.607"/>
			
				<path style="fill:none;stroke:#000000;stroke-width:3;stroke-linecap:round;stroke-linejoin:round;stroke-dasharray:0,4.0371;" d="
				M222.852,202.64c-0.269,10.969,0.913,26.794,2.682,36.3c1.75,9.5,6.5,17.5,10.75,26c3.5,6.5,10,20,19.499,14.5
				c4.25-2.75,6.75-7.5,8.5-12c2-5.25,3-10.75,3.5-16.25c1.168-9.341,1.465-18.101,0.887-27.568"/>
			
				<line style="fill:none;stroke:#000000;stroke-width:3;stroke-linecap:round;stroke-linejoin:round;" x1="268.535" y1="221.606" x2="268.535" y2="221.606"/>
		</g>
		<g>
			
				<line style="fill:none;stroke:#000000;stroke-width:3;stroke-linecap:round;stroke-linejoin:round;" x1="221.617" y1="207.107" x2="221.617" y2="207.107"/>
			
				<path style="fill:none;stroke:#000000;stroke-width:3;stroke-linecap:round;stroke-linejoin:round;stroke-dasharray:0,3.9944;" d="
				M220.77,211.012c-1.178,6.986-0.313,12.742,0.101,20.429c0.284,5.284,0.65,10.431,1.125,15.661
				c0.265,2.903-0.159,5.82-0.129,8.714c0.06,5.64,0.41,12.592,2.486,17.88c0.898,2.288,1.972,4.232,2.729,6.644
				c0.912,2.904,2.185,5.702,3.803,8.282c3.517,5.605,8.574,8.043,14.648,10.068c6.249,2,12.5-0.25,17-4.5c11-10.25,11-28,11.25-42
				c0.236-11.074,0.693-22.148-0.301-33.013"/>
			
				<line style="fill:none;stroke:#000000;stroke-width:3;stroke-linecap:round;stroke-linejoin:round;" x1="273.283" y1="217.189" x2="273.283" y2="217.189"/>
		</g>
		<path style="fill:#FBEBDA;" d="M214.625,141.148c-2.401-6.884-3.361-16.489,2.401-27.215c5.763-10.726,9.767-15.368,14.568-16.488
			c-5.443-3.842-3.203-8.165,4.802-11.206c-6.724-4.803-2.88-11.848,3.843-13.288c6.723-1.441,6.562-0.318,10.404-1.439
			c3.842-1.121,8.165-2.081,10.727,1.761c3.041,4.642,3.361,6.563,0,8.964c5.441,0.48,7.363,4.643,8.164,6.884
			c0.801,2.241-0.32,5.442-4.162,7.844c6.883,1.281,8.805,3.521,12.647,9.125s12.646,17.131,7.684,34.74
			c-1.441,0.16-2.723,0.32-2.723,0.32c-0.32,3.045-1.76,13.131,0.48,20.334c2.242,7.203,4.805,19.689,0.961,29.455
			c-3.842,9.766-6.973,10.085-8.471,17.502c-1.537,7.605-7.482,17.216-21.945,19.478c-8.138,1.272-15.237-4.85-23.722-11.895
			c-8.485-7.045-5.094-10.677-10.856-18.041c-5.763-7.364-6.724-16.97-4.482-27.215c2.241-10.245,4.643-20.49,2.562-29.936
			C216.706,140.352,214.625,141.148,214.625,141.148z"/>
		<path style="fill:#BD7C51;" d="M247.034,164.106c2-0.916,3.416-2.583,4.583-5.583c2.5,3.167,4.416,4,5.25,5.75
			c-3.084,0.25-4.668-0.249-6.25-0.083C249.034,164.356,248.367,164.439,247.034,164.106z"/>
		<path style="fill:#BD7C51;" d="M221.785,138.106c0.375,3.75,0.249,10.833,2.499,16.333s5.25,8.375,11,9.875
			c2.5-5.5,4.125-8.75,8.5-7.875s5.125,4.25,14-0.125c4.125,0.375,7.5,3.25,9.625,7c7.375-3.75,9.75-8.375,9.875-14.25
			s0.625-9.75,0.75-10.625s-2.375-3.5-3.375-11.125s-0.75-12.125-5.25-13.75s-7.5,0.625-12.75-0.125
			c-5.25-0.75-6.75-0.5-10.75-0.125s-11.125-0.375-13.375,0.125s-5.375,2-5.75,5.25S225.785,131.106,221.785,138.106z"/>
		<path style="fill:#FBEBDA;" d="M228.367,134.856c0.834-1.333,2.252-2.582,7.251-2.166c4.999,0.416,6.582,1.166,7.999,1.833
			c1.5,0.667,0.25-0.333-1.583-2c-1.833-1.667-8.333-4.583-11.25-2.75C227.867,131.606,227.45,133.606,228.367,134.856z"/>
		<path style="fill:#FBEBDA;" d="M255.867,133.44c1.584-1.25,8.084-5.75,11.084-4.75s4.166,3,4.416,4.083
			c0.25,1.083-0.416,0.251-2.584-0.416c-2.166-0.667-6.498-1.417-10.332,0.916C255.283,135.023,255.117,133.774,255.867,133.44z"/>
		<g>
			<path d="M217.333,140.458c-4.561-1.142-7.332,2.306-6.892,6.643c0.156,1.539,0.756,3.089,1.252,4.544
				c0.498,1.458,0.686,3.183,1.408,4.548c0.893,1.688,2.027,3.178,4.099,2.915c0.631-0.081,0.639-1.081,0-1
				c-3.555,0.453-4.382-6.101-5.11-8.479c-0.565-1.846-0.973-3.647-0.503-5.563c0.609-2.487,3.32-3.183,5.481-2.642
				C217.693,141.578,217.959,140.614,217.333,140.458L217.333,140.458z"/>
		</g>
		<g>
			<path d="M283.041,141.406c4.957-1.244,6.011,3.582,5.028,7.351c-0.385,1.478-0.928,2.915-1.352,4.383
				c-0.4,1.389-0.968,5.002-3.218,4.651c-0.631-0.099-0.901,0.865-0.266,0.964c1.762,0.275,2.547-0.517,3.319-2.06
				c1.394-2.785,2.293-6.413,2.888-9.462c0.844-4.329-2.301-7.887-6.666-6.791C282.15,140.599,282.415,141.563,283.041,141.406
				L283.041,141.406z"/>
		</g>
		<g>
			<path d="M302.289,191.982c0.645,0,0.645-1,0-1C301.645,190.982,301.645,191.982,302.289,191.982L302.289,191.982z"/>
		</g>
		<g>
			<path d="M288.113,149.697c0.373,1.587,1.141,3.01,1.603,4.571c0.627,2.122,1.234,4.249,1.793,6.391
				c1.099,4.208,1.472,8.596,2.91,12.717c1.117,3.202,3.241,5.917,4.514,9.038c1.206,2.959,2.503,5.927,3.011,9.103
				c0.102,0.636,1.065,0.365,0.965-0.266c-1.072-6.706-5.098-11.982-7.525-18.14c-1.475-3.742-1.746-7.917-2.68-11.804
				c-0.517-2.148-1.137-4.271-1.755-6.391c-0.539-1.848-1.433-3.621-1.87-5.484C288.931,148.804,287.966,149.07,288.113,149.697
				L288.113,149.697z"/>
		</g>
		<g>
			<path d="M255.77,227.354c-3.097,5.677-7.089,10.754-11.021,15.864c-4.197,5.456-7.915,11.112-11.289,17.111
				c-6.467,11.5-13.163,23.278-22.262,32.956c-4.526,4.814-9.672,7.768-15.779,10.114c-2.509,0.965-4.979,2.029-7.14,3.652
				c-2.044,1.535-3.29,3.917-4.32,6.191c-1.173,2.591-2.123,5.215-3.635,7.643c-1.826,2.934-4.301,5.454-6.921,7.681
				c-2.223,1.889-4.653,3.156-7.483,3.8c-2.101,0.478-3.454,1.659-4.4,3.571c-0.285,0.575,0.577,1.082,0.863,0.504
				c1.433-2.892,3.601-2.794,6.229-3.75c2.27-0.826,4.274-2.377,6.096-3.925c4.457-3.786,7.384-8.415,9.585-13.769
				c1.303-3.171,2.819-6.032,5.758-7.974c2.847-1.881,6.254-2.849,9.391-4.128c5.317-2.169,9.712-5.875,13.551-10.075
				c8.427-9.22,14.852-20.348,20.89-31.195c3.35-6.019,7.014-11.724,11.193-17.201c4.091-5.361,8.318-10.626,11.559-16.566
				C256.941,227.292,256.078,226.788,255.77,227.354L255.77,227.354z"/>
		</g>
		<g>
			<path d="M286.949,183.538c5.6,2.408,10.518,6.059,15.912,8.859c5.135,2.666,10.907,3.458,16.05,6.145
				c4.893,2.557,9.221,6.48,11.204,11.724c2.375,6.276-0.325,13.377-0.414,19.84c-0.009,0.645,0.991,0.645,1,0
				c0.09-6.484,2.447-13.103,0.584-19.492c-1.449-4.969-5.35-8.808-9.557-11.578c-5.043-3.321-10.779-4.157-16.22-6.482
				c-6.327-2.704-11.727-7.159-18.056-9.879C286.868,182.423,286.357,183.284,286.949,183.538L286.949,183.538z"/>
		</g>
		<g>
			<path d="M277.367,245.773c-0.056,6.464-0.454,12.977-0.923,19.423c-0.515,7.079-2.047,14.038-2.526,21.138
				c-0.477,7.055-2.168,14.039-4.283,20.768c-1.674,5.326-3.904,11.125-8.455,14.651c-0.509,0.395,0.204,1.097,0.707,0.707
				c4.168-3.23,6.35-8.293,8.063-13.136c2.199-6.218,3.727-12.746,4.596-19.278c0.496-3.727,0.556-7.492,1.014-11.225
				c0.447-3.649,1.101-7.27,1.591-10.914c0.972-7.239,1.155-14.833,1.218-22.134C278.373,245.128,277.373,245.129,277.367,245.773
				L277.367,245.773z"/>
		</g>
		<g>
			<path d="M179.401,329.923c1.869,0.488,3.783,0.72,5.546,1.552c2.136,1.006,4.155,2.376,6.117,3.682
				c3.754,2.498,7.37,4.983,11.647,6.504c5.904,2.1,14.929,2.943,20.409-0.788c0.529-0.36,0.03-1.228-0.505-0.863
				c-6.203,4.224-16.271,2.36-22.592-0.504c-3.848-1.743-7.211-4.462-10.762-6.715c-3.184-2.02-6.005-2.893-9.594-3.832
				C179.042,328.795,178.777,329.76,179.401,329.923L179.401,329.923z"/>
		</g>
		<g>
			<path d="M181.401,326.589c5.232,1.855,10.431,3.81,15.867,4.995c4.486,0.978,9.354,1.778,13.732,0.005
				c0.59-0.239,0.332-1.207-0.266-0.965c-4.778,1.936-10.16,0.732-14.999-0.412c-4.801-1.135-9.43-2.942-14.07-4.588
				C181.057,325.408,180.797,326.375,181.401,326.589L181.401,326.589z"/>
		</g>
		<g>
			<path d="M185.346,231.794c0.914,0.92,1.922,1.918,2.393,3.153c0.227,0.597,1.194,0.338,0.964-0.266
				c-0.538-1.412-1.602-2.539-2.65-3.595C185.599,230.629,184.892,231.336,185.346,231.794L185.346,231.794z"/>
		</g>
		<g>
			<path d="M188.534,280.69c0.04,4.963,0.486,9.906,0.504,14.871c0.013,3.603,0.167,7.281,0.412,10.879c0.044,0.64,1.044,0.643,1,0
				c-0.225-3.296-0.338-6.65-0.403-9.951c-0.104-5.267-0.471-10.533-0.513-15.799C189.528,280.045,188.528,280.044,188.534,280.69
				L188.534,280.69z"/>
		</g>
		<g>
			<path d="M213.957,249.944c-1.459-1.031-3.637-1.575-5.337-0.875c-1.609,0.664-2.275,2.815-1.053,4.123
				c1.074,1.148,3.319,1.326,4.772,1.094c2.061-0.331,3.51-2.697,1.718-4.264c-0.483-0.422-1.193,0.282-0.707,0.707
				c1.764,1.543-0.844,2.636-2.157,2.624c-1.011-0.01-2.447-0.201-3.1-1.076c-1.026-1.376,1.018-2.481,2.109-2.514
				c1.129-0.035,2.335,0.399,3.248,1.044C213.98,251.181,214.479,250.314,213.957,249.944z"/>
		</g>
		<g>
			<path d="M321.15,213.421c1.274,0.306,2.322,3.107,2.933,4.15c0.964,1.649,1.667,3.344,2.269,5.154
				c1.319,3.975,2.587,7.966,3.899,11.943c1.172,3.552,2.145,7.131,3.552,10.607c1.496,3.696,3.168,7.284,4.532,11.039
				c2.438,6.711,4.935,13.425,8.517,19.627c1.589,2.752,3.784,5.056,5.469,7.75c2.078,3.325,4.077,6.615,5.805,10.139
				c3.443,7.021,7.227,13.865,10.727,20.861c1.793,3.587,3.174,7.285,4.378,11.104c1.059,3.36,2.328,6.134,3.916,9.263
				c1.79,3.529,2.522,7.647,3.765,11.386c1.197,3.604,2.85,7.058,4.441,10.497c3.42,7.395,3.742,14.921,1.641,22.732
				c-0.772,2.874-1.913,6.804-5.092,7.783c-0.614,0.19-0.353,1.155,0.266,0.965c4.827-1.488,5.989-8.551,6.767-12.756
				c1.17-6.323,0.155-12.492-2.33-18.367c-1.573-3.719-3.383-7.304-4.728-11.12c-1.267-3.591-1.984-7.4-3.538-10.889
				c-0.641-1.438-1.452-2.774-2.201-4.157c-0.937-1.727-1.364-3.735-1.941-5.603c-1.111-3.594-2.4-7.118-4.048-10.502
				c-3.427-7.044-7.339-13.834-10.756-20.879c-1.589-3.276-3.34-6.376-5.268-9.462c-1.863-2.981-4.189-5.613-6.042-8.58
				c-4.023-6.44-6.517-13.831-9.095-20.926c-1.171-3.222-2.524-6.322-3.911-9.451c-1.753-3.956-2.807-8.142-4.158-12.237
				c-1.478-4.479-2.57-9.329-4.519-13.626c-0.838-1.849-1.949-3.541-2.847-5.358c-0.489-0.988-1.023-1.786-2.134-2.052
				C320.789,212.307,320.523,213.271,321.15,213.421L321.15,213.421z"/>
		</g>
		<g>
			<path d="M304.801,263.822c0.442,1.522,1.243,2.735,2.199,3.99c1.379,1.81,2.508,3.76,3.63,5.737
				c2.364,4.165,5.172,7.796,7.889,11.707c2.472,3.56,5.044,7.146,6.629,11.202c1.757,4.496,3.062,8.902,4.31,13.556
				c0.99,3.694,1.961,7.08,3.839,10.439c2.013,3.601,4.649,6.864,7.387,9.934c2.905,3.259,6.174,5.945,9.584,8.65
				c3.089,2.449,8.018,5.611,8.267,9.902c0.037,0.641,1.037,0.645,1,0c-0.181-3.113-2.063-5.077-4.339-7.018
				c-3.363-2.868-6.948-5.516-10.205-8.502c-6.587-6.04-11.95-13.572-14.189-22.254c-1.158-4.487-2.242-8.89-3.977-13.2
				c-1.65-4.104-3.6-7.474-6.142-11.095c-2.653-3.777-5.512-7.485-7.852-11.479c-1.211-2.066-2.347-4.172-3.614-6.204
				c-1.192-1.913-2.804-3.409-3.449-5.631C305.586,262.939,304.62,263.202,304.801,263.822L304.801,263.822z"/>
		</g>
		<g>
			<path d="M358.301,348.572c0.507,3.131-0.445,6.155-1.103,9.189c-0.532,2.453-0.94,4.927-1.164,7.428
				c-0.212,2.36,0.351,4.77,0.852,7.058c0.584,2.67,0.881,5.244,0.939,7.976c0.048,2.258,0.031,6.275,3.034,6.505
				c2.211,0.168,4.114-2.511,4.409-4.405c0.098-0.631-0.865-0.901-0.965-0.266c-0.213,1.37-0.966,2.408-2.09,3.196
				c-2.465,1.727-3.136-1.701-3.31-3.405c-0.346-3.373-0.317-6.523-1.055-9.866c-1.005-4.552-0.777-8.486,0.122-13.039
				c0.702-3.55,1.885-6.991,1.295-10.637C359.162,347.671,358.199,347.941,358.301,348.572L358.301,348.572z"/>
		</g>
		<g>
			<path d="M168.534,335.69c-5.817,0.266-11.523,1.354-17.254,2.313c-5.55,0.929-11.121,1.601-16.504,3.312
				c-4.488,1.426-8.624,3.763-12.223,6.786c-3.97,3.336-5.817,8.253-7.179,13.123c-2.493,8.917-1.517,20.201,3.939,27.855
				c5.834,8.188,16.263,11.884,25.338,15.093c0.609,0.215,0.869-0.751,0.266-0.965c-8.667-3.064-17.563-6.432-23.821-13.481
				c-6.449-7.264-7.047-19.244-4.757-28.236c1.304-5.121,3.44-9.757,7.527-13.19c3.894-3.271,8.631-5.351,13.488-6.711
				c4.636-1.297,9.452-1.847,14.191-2.62c5.649-0.923,11.257-2.017,16.988-2.278C169.176,336.66,169.179,335.66,168.534,335.69
				L168.534,335.69z"/>
		</g>
		<g>
			<path d="M284.684,321.31c0.542,6.303,5.717,9.766,11.157,11.912c7.088,2.797,14.954,4.62,22.515,5.496
				c0.64,0.074,0.633-0.927,0-1c-6.401-0.741-12.729-2.369-18.867-4.3c-5.997-1.886-13.188-4.941-13.805-12.108
				C285.629,320.672,284.628,320.667,284.684,321.31L284.684,321.31z"/>
		</g>
		<g>
			<path d="M265.266,366.322c2.139-6.618,6.517-11.805,13.433-13.648c6.357-1.694,12.864,1.341,19.191-0.674
				c5.15-1.641,9.104-6.141,13.424-9.176c4.145-2.91,8.976-5.604,14.145-5.797c6.582-0.246,11.372,6.411,10.171,12.611
				c-1.123,5.796-6.779,10.451-11.979,12.568c-5.808,2.365-12,3.473-17.732,6.093c-5.188,2.372-10.204,5.175-15.099,8.098
				c-0.554,0.33-0.051,1.194,0.504,0.863c5.298-3.163,10.735-6.156,16.373-8.673c6.232-2.781,13.307-3.522,19.271-6.893
				c4.462-2.522,8.351-6.757,9.625-11.791c1.208-4.77-1.389-9.731-5.342-12.357c-8.334-5.537-19.68,3.566-25.829,8.58
				c-2.805,2.286-5.714,4.424-9.272,5.33c-3.946,1.006-8.13-0.185-12.117-0.267c-6.103-0.127-11.416,2.17-15.525,6.701
				c-2.076,2.29-3.27,5.267-4.207,8.166C264.103,366.672,265.068,366.934,265.266,366.322L265.266,366.322z"/>
		</g>
		<g>
			<path d="M307.535,368.746c5.9-2.952,13.1-3.16,19.559-3.58c3.169-0.205,6.323-0.543,9.447-1.119
				c2.69-0.496,5.386-1.967,7.744-3.301c0.561-0.317,0.058-1.182-0.504-0.863c-2.632,1.488-5.431,2.816-8.411,3.366
				c-3.654,0.674-7.396,0.878-11.1,1.089c-5.734,0.327-12.049,0.947-17.239,3.545C306.454,368.171,306.961,369.034,307.535,368.746
				L307.535,368.746z"/>
		</g>
		<g>
			<path d="M272.762,368.086c-1.245-1.395-0.65-3.879,0.625-5.043c0.478-0.436-0.232-1.141-0.707-0.707
				c-1.702,1.554-2.228,4.662-0.625,6.457C272.485,369.275,273.189,368.565,272.762,368.086L272.762,368.086z"/>
		</g>
		<g>
			<path d="M332.844,340.268c-0.015,2.365-1.115,3.416-3.169,4.492c-2.068,1.084-4.61,1.164-6.892,1.18
				c-0.645,0.004-0.646,1.004,0,1c2.769-0.019,5.468-0.306,7.953-1.608c2.232-1.169,3.093-2.628,3.107-5.063
				C333.848,339.622,332.848,339.623,332.844,340.268L332.844,340.268z"/>
		</g>
		<g>
			<path d="M335.738,345.497c0.09,1.37-1.786,2.571-2.793,3.149c-1.504,0.865-3.256,1.075-4.957,1.101c-0.645,0.01-0.645,1.01,0,1
				c2.113-0.031,4.049-0.425,5.894-1.485c1.257-0.723,2.96-2.177,2.856-3.765C336.696,344.857,335.696,344.853,335.738,345.497
				L335.738,345.497z"/>
		</g>
		<g>
			<path d="M334.992,351.81c-1.489,2.109-5.171,2.709-7.568,2.752c-0.645,0.012-0.646,1.012,0,1c2.815-0.05,6.699-0.793,8.432-3.248
				C336.228,351.786,335.36,351.287,334.992,351.81L334.992,351.81z"/>
		</g>
		<g>
			<path d="M182.284,404.44c6.398,0.24,7.646,9.191,9.659,13.872c2.729,6.348,6.048,12.118,12.708,14.86
				c0.596,0.245,0.854-0.723,0.266-0.965c-7.441-3.063-10.995-10.773-13.508-17.949c-1.588-4.535-3.39-10.603-9.125-10.818
				C181.639,403.415,181.641,404.415,182.284,404.44L182.284,404.44z"/>
		</g>
		<g>
			<path d="M182.916,403.707c-5.695-0.966-11.456-1.555-17-3.25c-3.837-1.173-7.406-3.36-11.475-3.721
				c-3.378-0.3-6.442,0.77-8.008,3.947c-1.563,3.173-0.165,7.069,1.216,10.022c3.46,7.398,9.673,14.139,17.436,16.911
				c4.663,1.665,9.925,1.551,14.803,1.502c5.787-0.057,11.521-0.881,17.11-2.363c0.623-0.165,0.358-1.13-0.266-0.965
				c-9.145,2.427-19.948,3.579-29.282,1.471c-7.938-1.793-13.582-7.978-17.648-14.674c-1.943-3.198-3.759-7.201-2.662-10.986
				c1.432-4.938,7.308-4.145,11.031-2.993c3.426,1.06,6.618,2.648,10.101,3.557c4.706,1.229,9.59,1.695,14.377,2.508
				C183.281,404.778,183.551,403.815,182.916,403.707L182.916,403.707z"/>
		</g>
		<g>
			<path d="M163.166,345.672c2.581-0.406,4.493,0.689,6.802,1.558c2.378,0.893,4.628,2.104,6.813,3.392
				c0.557,0.328,1.059-0.536,0.505-0.863c-2.272-1.34-4.604-2.512-7.052-3.493c-2.518-1.01-4.566-1.992-7.333-1.558
				C162.265,344.808,162.536,345.771,163.166,345.672L163.166,345.672z"/>
		</g>
		<g>
			<path d="M169.784,344.69c2.945,0.162,6.704,1.67,8.905,3.662c1.362,1.233,1.964,2.426,3.837,2.945
				c0.622,0.172,0.886-0.793,0.266-0.965c-1.41-0.391-2.105-1.197-2.996-2.257c-0.811-0.963-1.814-1.47-2.919-2.035
				c-2.254-1.155-4.53-2.209-7.094-2.35C169.139,343.654,169.143,344.654,169.784,344.69L169.784,344.69z"/>
		</g>
		<g>
			<path d="M259.285,351.371c2.346-1.357,4.51-2.982,6.75-4.5c2.429-1.646,5.086-2.8,7.75-4c5.959-2.685,12.219-4.124,18.748-4.432
				c0.642-0.03,0.645-1.03,0-1c-6.038,0.284-11.946,1.484-17.541,3.799c-2.702,1.118-5.42,2.35-7.959,3.802
				c-2.864,1.638-5.393,3.813-8.252,5.468C258.223,350.83,258.727,351.695,259.285,351.371L259.285,351.371z"/>
		</g>
		<g>
			<path d="M265.137,342.293c2.919-2.328,7.079-3.215,10.654-4.059c4.18-0.987,8.707-1.482,12.992-1.545c0.645-0.01,0.645-1.01,0-1
				c-4.414,0.065-8.939,0.681-13.258,1.58c-3.771,0.786-8.038,1.877-11.096,4.316C263.926,341.988,264.638,342.69,265.137,342.293
				L265.137,342.293z"/>
		</g>
		<g>
			<path d="M285.918,425.506c10.664-1.773,21.378,1.254,32.069-0.081c5.37-0.67,10.63-2.083,15.779-3.714
				c2.685-0.85,5.33-1.81,8.056-2.528c2.964-0.781,6.096-0.93,9.127-1.366c9.842-1.419,20.076-5.105,27.457-11.976
				c6.972-6.489,8.566-15.747,9.461-24.817c0.064-0.642-0.938-0.636-1,0c-0.435,4.405-1.032,8.78-2.311,13.028
				c-1.477,4.902-4.262,8.821-8.074,12.187c-8.234,7.267-19.628,9.871-30.198,11.201c-5.316,0.669-10.196,2.546-15.303,4.087
				c-5.395,1.628-10.925,2.82-16.548,3.261c-9.608,0.754-19.162-1.845-28.78-0.246C285.018,424.647,285.287,425.61,285.918,425.506
				L285.918,425.506z"/>
		</g>
		<g>
			<path d="M335.004,342.287c3.921,1.522,7.986,2.421,11.896,3.992c2.189,0.879,4.529,1.752,6.582,2.929
				c1.653,0.948,3.772,1.594,5.031,3.086c0.416,0.494,1.12-0.218,0.707-0.707c-1.057-1.254-2.71-1.936-4.139-2.667
				c-2.021-1.036-4.063-1.979-6.152-2.874c-4.473-1.916-9.145-2.97-13.66-4.724C334.668,341.089,334.409,342.056,335.004,342.287
				L335.004,342.287z"/>
		</g>
		<g>
			<path d="M222.93,413.086c-2.867,2.87-5.494,5.947-8.312,8.862c-0.825,0.854-5.156,4.841-3.438,6.345
				c1.83,1.602,5.318,0.466,7.497,0.397c4.649-0.147,9.315,0.065,13.971-0.046c9.526-0.229,19.057-0.177,28.583,0.038
				c4.434,0.101,8.889,0.141,13.313,0.429c4.247,0.275,8.403,0.698,12.657,0.245c0.627-0.066,0.658-1,0-1c-0.083,0-0.167,0-0.25,0
				c-0.645,0-0.645,1,0,1c0.083,0,0.167,0,0.25,0c0-0.333,0-0.667,0-1c-7.24,0.771-14.758-0.36-22.023-0.571
				c-8.211-0.239-16.426-0.331-24.641-0.266c-3.947,0.031-7.893,0.113-11.839,0.23c-3.919,0.116-7.838-0.205-11.754,0.017
				c-1.451,0.082-2.924,0.429-4.381,0.228c-1.918-0.266,2.857-5.437,3.324-5.92c2.63-2.722,5.073-5.601,7.75-8.281
				C224.093,413.336,223.386,412.629,222.93,413.086L222.93,413.086z"/>
		</g>
		<g>
			<path d="M223.534,414.44c12.765-0.612,25.554-1,38.332-1c6.026,0,11.92-0.501,17.874,0.822c2.045,0.454,3.353,5.594,4.157,7.424
				c0.6,1.364,1.135,2.752,1.685,4.137c0.395,0.994,1.523,2.286,1.451,3.367c-0.043,0.645,0.957,0.64,1,0
				c0.05-0.751-0.09-1.124-0.568-1.752c-0.984-1.293-1.395-3.137-2.007-4.631c-1.1-2.688-2.051-5.736-3.533-8.22
				c-0.757-1.269-2.431-1.427-3.739-1.577c-3.68-0.424-7.095-0.876-10.819-0.716c-7.167,0.308-14.355,0.177-21.529,0.362
				c-7.437,0.192-14.872,0.427-22.303,0.783C222.892,413.471,222.889,414.471,223.534,414.44L223.534,414.44z"/>
		</g>
		<g>
			<path d="M210.837,428.377c0.527,4.406,1.613,8.573,1.657,13.063c0.003,0.289,0.226,0.478,0.5,0.5
				c3.895,0.313,7.523,0.132,11.401-0.338c4.564-0.554,9.255,0.113,13.845-0.057c2.082-0.077,4.115-0.457,6.204-0.364
				c1.977,0.087,4.018,0.533,5.996,0.241c3.249-0.48,6.603,0.012,9.88,0.022c5.266,0.016,10.531,0.035,15.796,0.006
				c3.655-0.021,7.689,0.346,11.301-0.361c0.227-0.045,0.353-0.271,0.367-0.482c0.133-2.041-0.091-4.07-0.193-6.108
				c-0.096-1.914,0.442-3.829,0.275-5.725c-0.057-0.637-1.057-0.643-1,0c0.146,1.646-0.269,3.34-0.293,4.996
				c-0.03,2.047,0.284,4.084,0.257,6.134c-0.005,0.363,0.248,0.252-0.369,0.306c-0.358,0.031-0.72,0.049-1.079,0.067
				c-1.177,0.061-2.355,0.083-3.534,0.107c-6.167,0.126-12.34,0.089-18.509,0.07c-2.313-0.007-4.635,0.036-6.945-0.072
				c-2.355-0.11-4.559-0.03-6.903,0.104c-2.511,0.145-5.009-0.442-7.53-0.297c-5.306,0.306-10.54,0.143-15.851,0.271
				c-2.229,0.053-4.438,0.552-6.66,0.707c-2.167,0.152-4.305-0.056-6.456-0.228c0.166,0.167,0.333,0.333,0.5,0.5
				c-0.045-4.499-1.128-8.647-1.657-13.063C211.762,427.745,210.761,427.737,210.837,428.377L210.837,428.377z"/>
		</g>
		<g>
			<path d="M301.033,448.69c0.167,0,0.333,0,0.5,0c0.645,0,0.645-1,0-1c-8.628,0-17.22,0.517-25.844,0.563
				c-4.208,0.022-8.364-0.456-12.588-0.354c-4.364,0.107-8.477-0.751-12.794-1.02c-8.87-0.553-17.933,0.378-26.801,0.702
				c-8.971,0.327-17.996,0.345-26.974,0.358c0.161,0.211,0.321,0.422,0.482,0.633c0.654-2.056,2.463-3.811,3.691-5.565
				c1.446-2.069,2.508-4.313,3.634-6.565c0.355-0.711,1.647-4.206,2.403-4.258c1.18-0.081,2.36-0.163,3.54-0.244
				c0.64-0.044,0.644-1.044,0-1c-1.208,0.083-2.417,0.167-3.625,0.25c-1.102,0.076-2.091,2.501-2.493,3.279
				c-1.271,2.46-2.31,5.027-3.845,7.344c-1.382,2.084-3.499,4.072-4.269,6.494c-0.099,0.312,0.167,0.633,0.482,0.633
				c8.981-0.014,17.998-0.067,26.974-0.358c8.918-0.29,17.874-1.025,26.801-0.702c2.121,0.076,4.264,0.607,6.376,0.853
				c2.134,0.248,4.273,0.214,6.418,0.167c4.225-0.092,8.376,0.325,12.588,0.354c8.619,0.058,17.22-0.563,25.844-0.563
				c0.645,0,0.645-1,0-1c-0.167,0-0.333,0-0.5,0C300.389,447.69,300.389,448.69,301.033,448.69L301.033,448.69z"/>
		</g>
		<g>
			<path d="M288.533,432.44c1.906,0,4.135-0.602,5.194,1.276c1.15,2.039,2.227,4.09,3.624,5.976c1.155,1.56,2.165,3.2,3.107,4.893
				c0.481,0.864,0.881,1.743,1.431,2.569c0.283,0.426,0.151,0.458-0.503,0.742c0.229,0.06,0.456,0.12,0.685,0.18
				c-0.036-0.046-0.071-0.092-0.107-0.138c-0.387-0.504-1.256-0.007-0.863,0.504c0.035,0.047,0.07,0.093,0.105,0.139
				c0.183,0.236,0.409,0.299,0.685,0.179c0.491-0.213,0.867-0.594,1.245-0.966c0.205-0.202,0.176-0.502,0-0.707
				c-1.277-1.488-1.979-3.418-2.996-5.084c-1.194-1.958-2.658-3.733-3.834-5.707c-0.696-1.17-1.6-4.102-2.771-4.787
				c-1.026-0.602-3.802-0.068-5.002-0.068C287.889,431.44,287.889,432.44,288.533,432.44L288.533,432.44z"/>
		</g>
		<g>
			<path d="M196.102,449.191c5.444,7.874,12.829,13.048,21.826,16.157c10.554,3.648,21.738,3.003,32.717,3.054
				c5.512,0.025,11.039-0.011,16.514-0.713c4.903-0.629,9.508-2.322,14.143-3.955c4.37-1.54,8.554-2.502,12.317-5.349
				c3.555-2.687,6.26-6.365,8.847-9.944c0.379-0.523-0.489-1.022-0.863-0.504c-2.648,3.662-5.414,7.262-9.046,10.007
				c-3.615,2.733-8.055,3.604-12.244,5.08c-4.591,1.618-9.109,3.146-13.961,3.769c-4.9,0.628-9.882,0.619-14.813,0.612
				c-10.341-0.015-20.677,0.471-30.768-2.233c-9.757-2.615-18.05-8.163-23.804-16.484
				C196.602,448.16,195.734,448.66,196.102,449.191L196.102,449.191z"/>
		</g>
		<g>
			<path d="M140.102,402.104c-4.225,7.818-9.327,15.124-14.034,22.652c-2.012,3.217-3.974,6.485-5.575,9.93
				c-1.295,2.786-0.28,6.626,0.392,9.469c0.05,0.212,0.266,0.372,0.482,0.367c12.854-0.263,25.71-0.363,38.565-0.514
				c13.062-0.153,26.151,0.982,39.199,0.478c0.642-0.024,0.645-1.025,0-1c-11.256,0.436-22.505-0.668-33.764-0.547
				c-10.894,0.117-21.788,0.225-32.68,0.384c-2.8,0.04-5.601,0.089-8.4,0.142c-1.137,0.021-2.444,0.467-2.729-0.878
				c-0.287-1.354-0.454-2.73-0.563-4.106c-0.321-4.039,2.753-7.991,4.761-11.31c4.985-8.238,10.628-16.08,15.21-24.563
				C141.272,402.041,140.409,401.537,140.102,402.104L140.102,402.104z"/>
		</g>
		<g>
			<path d="M122.651,434.957c-0.078,0.014-0.156,0.026-0.234,0.039c-0.535,0.09-0.415,0.813,0,0.965
				c2.093,0.768,4.742,0.701,6.943,0.877c3.323,0.265,6.636,0.389,9.97,0.311c6.937-0.162,13.712,1.062,20.668,1.026
				c7.279-0.037,14.559-0.152,21.838-0.208c3.505-0.026,7.007-0.052,10.511,0.055c3.68,0.112,7.275-0.466,10.938-0.582
				c-0.161-0.211-0.321-0.422-0.482-0.633c0.033-0.033,0.066-0.066,0.099-0.1c-0.636,0.091-0.365,1.055,0.266,0.965
				c0.073-0.011,0.146-0.022,0.219-0.031c0.151-0.021,0.328-0.198,0.349-0.35c0.011-0.073,0.021-0.145,0.031-0.219
				c0.044-0.307-0.125-0.645-0.482-0.633c-3.366,0.107-6.683,0.635-10.063,0.602c-3.466-0.032-6.926-0.102-10.394-0.082
				c-7.279,0.044-14.559,0.159-21.838,0.209c-3.706,0.025-7.382,0.116-11.061-0.394c-3.007-0.416-5.788-0.728-8.838-0.671
				c-3.303,0.064-6.57,0.079-9.869-0.131c-2.619-0.167-6.053-0.065-8.54-0.978c0,0.321,0,0.643,0,0.965
				c0.078-0.014,0.156-0.026,0.234-0.039C123.552,435.815,123.281,434.853,122.651,434.957L122.651,434.957z"/>
		</g>
		<g>
			<path d="M294.701,434.357c2.806-0.259,5.581,0.373,8.37,0.568c4.271,0.3,8.657-0.22,12.962,0.014
				c9.082,0.493,18.02,0.632,27.11,0.21c4.222-0.196,8.442-0.387,12.668-0.448c4.294-0.062,8.493,0.61,12.768,0.852
				c4.195,0.236,8.41,0.122,12.61,0.23c2.083,0.054,4.146-0.214,6.219-0.188c2.011,0.025,3.86-0.334,5.875-0.406
				c0.643-0.024,0.645-1.024,0-1c-3.757,0.136-7.47,0.618-11.246,0.608c-4.175-0.012-8.372-0.062-12.544-0.204
				c-4.25-0.147-8.439-0.914-12.697-0.901c-4.554,0.014-9.104,0.244-13.652,0.457c-8.742,0.407-17.409,0.459-26.146-0.141
				c-4.485-0.308-8.976-0.327-13.464-0.069c-2.946,0.169-5.853-0.857-8.832-0.582C294.064,433.416,294.059,434.417,294.701,434.357
				L294.701,434.357z"/>
		</g>
		<g>
			<path d="M373.93,411.793c4.564,4.604,8.726,9.469,12.61,14.648c1.649,2.2,3.324,4.396,5.085,6.508
				c1.477,1.772,0.949,3.008,0.886,5.031c-0.049,1.577,0.16,3.102-0.21,4.659c-0.148,0.627,0.815,0.893,0.965,0.266
				c0.328-1.383,0.262-2.711,0.221-4.126c-0.037-1.242,0.609-2.548,0.395-3.785c-0.199-1.148-0.792-1.893-1.549-2.752
				c-1.164-1.322-2.197-2.766-3.278-4.156c-2.296-2.954-4.397-5.989-6.858-8.809c-2.444-2.801-4.941-5.552-7.559-8.191
				C374.183,410.627,373.476,411.335,373.93,411.793L373.93,411.793z"/>
		</g>
		<g>
			<path d="M299.701,442.44c3.731-0.06,7.451-0.393,11.184-0.387c4.193,0.007,8.39,0.652,12.588,0.779
				c8.018,0.241,16.034,0.043,24.053,0.357c14.964,0.585,30.061,1.893,45.008,0.333c0.635-0.066,0.642-1.067,0-1
				c-14.941,1.56-30.048,0.272-45.008-0.333c-8.019-0.324-16.033-0.164-24.053-0.357c-3.9-0.094-7.762-0.591-11.653-0.76
				c-4.035-0.175-8.084,0.303-12.118,0.367C299.057,441.451,299.056,442.451,299.701,442.44L299.701,442.44z"/>
		</g>
		<g>
			<path d="M134.302,443.822c0.518,2.374-1.371,6.07,1.717,7.34c3.867,1.59,9.152,1.185,13.255,0.96
				c2.247-0.123,6.756-0.57,7.59-3.249c0.449-1.444,0.986-5.379-1.114-5.833c-0.628-0.136-0.896,0.828-0.266,0.965
				c0.914,0.197,0.725,2.015,0.713,2.704c-0.025,1.514-0.393,2.393-1.73,3.216c-2.289,1.409-5.55,1.266-8.142,1.265
				c-3.154-0.002-6.311-0.082-9.408-0.733c-2.944-0.618-1.216-4.91-1.651-6.9C135.128,442.927,134.164,443.193,134.302,443.822
				L134.302,443.822z"/>
		</g>
		<g>
			<path d="M141.102,451.438c-1.364,2.126-1.266,4.227-0.902,6.682c0.336,2.261,2.784,2.443,4.623,2.623
				c2.317,0.226,4.579,0.123,6.225-1.704c1.802-2.002,1.605-5.397,0.418-7.601c-0.306-0.568-1.169-0.064-0.863,0.504
				c1.154,2.144,1.037,4.946-0.637,6.806c-1.235,1.372-3.501,1.136-5.143,0.995c-2.176-0.186-3.59-0.479-3.771-2.933
				c-0.136-1.853-0.12-3.257,0.913-4.868C142.314,451.397,141.449,450.897,141.102,451.438L141.102,451.438z"/>
		</g>
		<g>
			<path d="M361.801,443.822c0.52,2.374-1.37,6.07,1.717,7.34c3.895,1.601,9.008,1.072,13.141,1.021
				c2.52-0.032,6.51-0.156,7.83-2.784c0.862-1.716,0.725-4.913-0.869-6.142c-0.51-0.394-1.007,0.476-0.504,0.863
				c1.821,1.405,0.754,5.147-0.893,6.106c-2.158,1.258-5.282,0.967-7.689,0.962c-3.393-0.008-6.782-0.032-10.117-0.733
				c-2.943-0.618-1.216-4.91-1.65-6.9C362.628,442.927,361.664,443.193,361.801,443.822L361.801,443.822z"/>
		</g>
		<g>
			<path d="M368.602,451.438c-1.32,2.014-1.991,6.1-0.107,8.063c1.662,1.73,5.162,1.442,7.301,1.077
				c4.907-0.836,3.786-4.985,2.888-8.688c-0.152-0.627-1.116-0.36-0.965,0.266c0.57,2.347,2.086,6.126-1.039,7.205
				c-1.827,0.631-4.288,0.525-6.157,0.172c-3.115-0.588-2.245-5.778-1.058-7.591C369.819,451.4,368.953,450.9,368.602,451.438
				L368.602,451.438z"/>
		</g>
		<g>
			<path d="M222.031,453.121c4.399,2.09,8.358,4.34,13.167,5.4c5.411,1.192,11.135,1.405,16.652,1.221
				c5.832-0.195,11.629-1.13,17.364-2.148c4.571-0.813,8.167-2.178,11.673-5.301c0.482-0.43-0.228-1.135-0.707-0.707
				c-3.674,3.272-7.454,4.372-12.184,5.213c-5.345,0.949-10.72,1.694-16.146,1.943c-5.169,0.237-10.442-0.107-15.535-1.017
				c-5.047-0.9-9.22-3.302-13.779-5.468C221.957,451.982,221.449,452.845,222.031,453.121L222.031,453.121z"/>
		</g>
		<g>
			
				<line style="fill:none;stroke:#000000;stroke-width:3;stroke-linecap:round;stroke-linejoin:round;" x1="166.304" y1="264.498" x2="166.304" y2="264.498"/>
			
				<path style="fill:none;stroke:#000000;stroke-width:3;stroke-linecap:round;stroke-linejoin:round;stroke-dasharray:0,3.9744;" d="
				M167.726,268.183c1.894,2.922,5.261,4.572,8.885,5.012c2.843,0.345,11.209,0.335,14.472-3.379"/>
			
				<line style="fill:none;stroke:#000000;stroke-width:3;stroke-linecap:round;stroke-linejoin:round;" x1="192.093" y1="268.117" x2="192.093" y2="268.117"/>
		</g>
		<g>
			
				<line style="fill:none;stroke:#000000;stroke-width:3;stroke-linecap:round;stroke-linejoin:round;" x1="163.009" y1="265.65" x2="163.009" y2="265.65"/>
			
				<path style="fill:none;stroke:#000000;stroke-width:3;stroke-linecap:round;stroke-linejoin:round;stroke-dasharray:0,3.8286;" d="
				M162.991,269.457c0.215,1.52,0.635,3.024,1.152,3.931c1.75,3.5,5.766,6.427,9.766,7.677c3.5,1,8,1.25,11.5,0
				c1.188-0.34,2.606-0.909,3.551-1.865"/>
			
				<line style="fill:none;stroke:#000000;stroke-width:3;stroke-linecap:round;stroke-linejoin:round;" x1="189.909" y1="277.565" x2="189.909" y2="277.565"/>
		</g>
		<g>
			
				<line style="fill:none;stroke:#000000;stroke-width:3;stroke-linecap:round;stroke-linejoin:round;" x1="150.034" y1="262.19" x2="150.034" y2="262.19"/>
			
				<path style="fill:none;stroke:#000000;stroke-width:3;stroke-linecap:round;stroke-linejoin:round;stroke-dasharray:0,4.0222;" d="
				M153.532,260.229c3.098-1.14,6.595-1.19,9.933-1.109"/>
			
				<line style="fill:none;stroke:#000000;stroke-width:3;stroke-linecap:round;stroke-linejoin:round;" x1="165.475" y1="259.178" x2="165.475" y2="259.178"/>
		</g>
		<g>
			
				<line style="fill:none;stroke:#000000;stroke-width:3;stroke-linecap:round;stroke-linejoin:round;" x1="150.659" y1="256.315" x2="150.659" y2="256.315"/>
			
				<path style="fill:none;stroke:#000000;stroke-width:3;stroke-linecap:round;stroke-linejoin:round;stroke-dasharray:0,4.0121;" d="
				M154.475,255.072c3.326-0.9,6.268-1.179,9.927-1.242"/>
			
				<line style="fill:none;stroke:#000000;stroke-width:3;stroke-linecap:round;stroke-linejoin:round;" x1="166.409" y1="253.814" x2="166.409" y2="253.814"/>
		</g>
		<g>
			
				<line style="fill:none;stroke:#000000;stroke-width:3;stroke-linecap:round;stroke-linejoin:round;" x1="312.533" y1="274.19" x2="312.533" y2="274.19"/>
			
				<path style="fill:none;stroke:#000000;stroke-width:3;stroke-linecap:round;stroke-linejoin:round;stroke-dasharray:0,3.7793;" d="
				M314.453,270.957c0.711-0.826,1.521-1.573,2.33-2.267c2.5-2.5,5.5-5,8.75-6.25c3.25-1.5,6.25-2.5,9.75-3
				c0.779-0.156,2.625-0.021,4.027-0.138"/>
			
				<line style="fill:none;stroke:#000000;stroke-width:3;stroke-linecap:round;stroke-linejoin:round;" x1="341.033" y1="258.69" x2="341.033" y2="258.69"/>
		</g>
		<g>
			
				<line style="fill:none;stroke:#000000;stroke-width:3;stroke-linecap:round;stroke-linejoin:round;" x1="308.783" y1="266.44" x2="308.783" y2="266.44"/>
			
				<path style="fill:none;stroke:#000000;stroke-width:3;stroke-linecap:round;stroke-linejoin:round;stroke-dasharray:0,4.0968;" d="
				M310.088,262.638c0.346-0.431,0.748-0.825,1.195-1.198c3-2.5,6.25-4.75,9.5-6.5c3.25-1.75,7-3.75,10.75-4.25
				c0.478,0,1.127-0.114,1.783-0.151"/>
			
				<line style="fill:none;stroke:#000000;stroke-width:3;stroke-linecap:round;stroke-linejoin:round;" x1="335.283" y1="250.939" x2="335.283" y2="250.939"/>
		</g>
		<g>
			
				<line style="fill:none;stroke:#000000;stroke-width:3;stroke-linecap:round;stroke-linejoin:round;" x1="357.283" y1="345.94" x2="357.283" y2="345.94"/>
			
				<path style="fill:none;stroke:#000000;stroke-width:3;stroke-linecap:round;stroke-linejoin:round;stroke-dasharray:0,3.7463;" d="
				M359.727,343.199c0.9-0.531,1.904-0.921,2.807-1.26c2.5-1,5.5-1.5,8.25-1.5c2.461,0.205,6.27,0.747,8.662,2.453"/>
			
				<line style="fill:none;stroke:#000000;stroke-width:3;stroke-linecap:round;stroke-linejoin:round;" x1="380.783" y1="344.19" x2="380.783" y2="344.19"/>
		</g>
		<g>
			<path d="M326.4,208.624c-6.929,2.645-10.217,8.928-12.508,15.658c-2.868,8.426-4.549,17.329-9.457,24.905
				c-0.351,0.543,0.515,1.044,0.863,0.505c4.144-6.396,6.03-13.758,8.251-20.962c2.347-7.611,5.036-16.058,13.116-19.143
				C327.263,209.361,327.004,208.394,326.4,208.624L326.4,208.624z"/>
		</g>
		<g>
			<path d="M302.367,205.773c-0.252,4.404,1.051,8.831,1.514,13.19c0.496,4.687,1.535,9.261,1.538,13.996
				c0.002,4.651-0.619,9.289-1.054,13.912c-0.43,4.578-0.438,9.07-0.34,13.66c0.097,4.511-0.354,9.016-0.316,13.527
				c0.04,4.705,0.736,9.392,1.338,14.049c0.597,4.619,1.16,9.274,1.545,13.916c0.341,4.114,0.88,8.876,0.127,12.95
				c0.245-0.1,0.49-0.199,0.734-0.299c-5.162-3.295-10.47-3.821-15.838-0.666c-5.231,3.074-7.882,9.332-12.666,13
				c-5.651,4.333-13.634,3.101-20.256,3.272c-6.69,0.174-11.853,2.668-17.22,6.507c-5.384,3.851-10.863,7.727-16.742,10.797
				c-6.388,3.335-13.47,4.238-20.544,3.042c-6.72-1.137-12.34-4.807-17.962-8.427c-2.677-1.724-5.444-3.228-8.482-4.204
				c-3.618-1.161-7.391-1.804-11.077-2.704c-0.626-0.152-0.892,0.812-0.266,0.965c3.382,0.825,6.799,1.493,10.154,2.428
				c3.598,1.003,6.753,2.825,9.869,4.832c5.295,3.409,10.494,6.574,16.717,7.924c5.501,1.193,11.329,0.929,16.702-0.717
				c6.312-1.933,11.853-6.067,17.308-9.642c5.705-3.738,10.607-8.312,17.576-9.468c6.432-1.067,12.997,0.368,19.38-1.264
				c5.733-1.465,9.18-6.007,12.742-10.362c2.359-2.884,4.915-5.351,8.479-6.651c4.053-1.479,8.174,0.003,11.621,2.202
				c0.256,0.164,0.676,0.015,0.734-0.299c0.69-3.741,0.06-7.608,0.004-11.383c-0.066-4.604-0.856-9.303-1.404-13.872
				c-0.561-4.675-1.259-9.325-1.513-14.031c-0.261-4.836,0.233-9.677,0.263-14.513c0.028-4.586-0.126-9.07,0.251-13.654
				c0.381-4.631,0.98-9.233,1.12-13.882c0.142-4.741-0.782-9.335-1.411-14.012c-0.615-4.585-1.89-9.507-1.626-14.119
				C303.404,205.129,302.404,205.132,302.367,205.773L302.367,205.773z"/>
		</g>
		<g>
			<path d="M291.051,212.641c-0.575,4.026-0.496,8.063-0.445,12.12c0.054,4.263-0.363,8.483-0.553,12.737
				c-0.183,4.101-0.559,8.155-0.988,12.236c-0.42,3.978-0.387,7.907-0.622,11.889c-0.527,8.933-2.248,17.762-3.666,26.579
				c-0.659,4.102-1.28,8.215-1.823,12.334c-0.573,4.355-1.471,8.846-1.586,13.238c-0.017,0.646,0.983,0.644,1,0
				c0.1-3.781,0.943-7.613,1.359-11.381c0.516-4.657,1.281-9.299,2.015-13.926c1.326-8.377,2.689-16.676,3.535-25.117
				c0.397-3.966,0.178-7.942,0.606-11.908c0.438-4.055,0.899-8.099,1.092-12.173c0.2-4.217,0.611-8.436,0.641-12.656
				c0.032-4.583-0.251-9.149,0.4-13.706C292.105,212.276,291.142,212.004,291.051,212.641L291.051,212.641z"/>
		</g>
		<g>
			<path d="M147.965,284.691c2.056-4.295,5.478-7.567,8.754-10.941c3.254-3.352,7.078-6.309,10.061-9.893
				c2.455-2.949,3.102-6.45,1.84-10.047c-0.655-1.868-1.885-3.491-2.943-5.142c-1.516-2.367-2.637-4.848-3.498-7.521
				c-1.641-5.092-0.395-11.093,0.028-16.3c0.12-1.47,0.148-2.908,0.473-4.357c0.463-2.07,2.71-4.2,4.211-1.615
				c1.351,2.326,0.513,6.059,0.429,8.611c-0.121,3.654,1.69,7.145,1.775,10.83c0.015,0.644,1.015,0.645,1,0
				c-0.091-3.979-1.925-7.697-1.742-11.662c0.127-2.73,0.561-5.711-0.599-8.284c-0.839-1.863-3.27-2.18-4.711-0.897
				c-2.191,1.951-1.778,6.649-1.986,9.229c-0.444,5.521-1.294,11.067,0.743,16.372c0.931,2.424,2.055,4.605,3.46,6.799
				c1.865,2.912,3.564,5.722,2.857,9.33c-0.528,2.701-2.73,4.882-4.661,6.679c-2.075,1.931-4.147,3.817-6.144,5.835
				c-3.77,3.809-7.87,7.575-10.213,12.473C146.825,284.766,147.687,285.273,147.965,284.691L147.965,284.691z"/>
		</g>
		<g>
			<path d="M166.828,217.51c0.354-2.478,1.558-8.203,4.914-5.127c2.148,1.969,2.107,5.075,1.928,7.75
				c-0.155,2.306-0.458,4.56-0.104,6.868c0.433,2.827,1.247,5.574,1.652,8.406c0.091,0.636,1.054,0.365,0.964-0.266
				c-0.604-4.221-2.005-8.181-1.727-12.501c0.206-3.197,0.805-6.509-0.821-9.448c-0.791-1.43-2.659-3.339-4.484-2.837
				c-2.404,0.661-3.002,4.912-3.285,6.89C165.774,217.874,166.737,218.146,166.828,217.51L166.828,217.51z"/>
		</g>
		<g>
			<path d="M172.766,212.322c0.704-2.095,2.544-6.547,4.976-2.688c1.503,2.383,1.004,5.708,0.752,8.355
				c-0.233,2.459-0.58,4.995-0.146,7.453c0.45,2.553,1.347,4.942,2.204,7.379c0.212,0.604,1.179,0.344,0.964-0.266
				c-1.514-4.305-2.584-8.115-2.201-12.737c0.265-3.195,1.14-7.081-0.405-10.095c-0.65-1.269-2.208-3.601-3.998-2.669
				c-1.811,0.943-2.501,3.188-3.11,5.001C171.596,212.669,172.561,212.93,172.766,212.322L172.766,212.322z"/>
		</g>
		<g>
			<path d="M179.715,217.692c0.608-0.878,1.121-1.794,1.829-2.602c1.656-1.888,4.479,1.128,5.487,2.157
				c1.836,1.871,3.376,4.009,5.172,5.916c1.142,1.212,2.261,3.707-0.49,3.756c-1.124,0.02-2.347-0.552-3.318-1.048
				c-2.426-1.24-5.031-2.628-6.759-4.783c-0.403-0.503-1.106,0.209-0.707,0.707c2.163,2.697,5.939,4.851,9.239,5.867
				c2.531,0.78,5.23-0.598,4.032-3.528c-0.674-1.647-2.589-3.058-3.689-4.421c-1.44-1.784-2.973-3.572-4.79-4.982
				c-3.376-2.619-4.938-0.335-6.87,2.458C178.484,217.719,179.351,218.218,179.715,217.692L179.715,217.692z"/>
		</g>
		<g>
			<path d="M184.052,224.572c0.712,2.243,0.965,4.521,0.982,6.867c0.005,0.645,1.005,0.645,1,0
				c-0.018-2.435-0.279-4.806-1.018-7.133C184.821,223.694,183.856,223.956,184.052,224.572L184.052,224.572z"/>
		</g>
		<g>
			<path d="M168.637,239.793c2.39-1.853,5.134-3.037,7.885-4.243c3.059-1.341,5.984-3.089,9.269-3.816
				c0.629-0.139,0.363-1.103-0.266-0.964c-3.107,0.688-5.873,2.274-8.749,3.58c-3.079,1.398-6.154,2.648-8.847,4.736
				C167.421,239.48,168.134,240.183,168.637,239.793L168.637,239.793z"/>
		</g>
		<g>
			<path d="M182.637,246.043c1.779-2.011,4.013-3.917,5.014-6.484c1.277-3.279,0.833-7.634,3.486-10.266
				c2.017-2,2.939,2.329,3.11,3.124c0.224,1.04,0.213,2.141,0.216,3.201c0.006,1.705-0.197,3.416-0.326,5.114
				c-0.323,4.244-0.129,8.448-0.785,12.677c-0.58,3.742-1.845,7.363-2.543,11.092c-0.705,3.765-1.145,7.578-1.628,11.375
				c-0.503,3.957-0.97,7.954-2.04,11.806c-1.036,3.729-2.676,7.281-4.09,10.876c-2.675,6.802-6.426,13.327-12.646,17.477
				c-3.152,2.103-6.718,2.531-10.381,1.846c-3.645-0.682-6.349-2.796-9.076-5.134c-4.833-4.143-7.68-10.652-8.106-16.93
				c-0.515-7.569,2.649-15.217,4.982-22.267c4.055-12.252,5.842-25.113,8.434-37.72c2.258-10.989,4.186-23.354,10.933-32.627
				c10.593-14.559,31.751-13.8,46.93-20.33c0.591-0.254,0.081-1.115-0.505-0.863c-10.072,4.333-21.135,5.506-31.367,9.369
				c-4.552,1.718-8.815,4.103-12.418,7.393c-4.275,3.903-6.882,9.106-8.874,14.457c-2.561,6.88-3.947,14.214-5.463,21.376
				c-1.691,7.986-3.059,16.036-4.75,24.021c-1.635,7.722-4.148,15.058-6.468,22.583c-1.929,6.257-3.241,12.68-1.771,19.169
				c2.167,9.57,12.13,20.742,22.927,18.69c12.725-2.419,18.061-18.023,21.853-28.572c2.621-7.291,2.864-15.318,4.017-22.922
				c0.575-3.787,1.48-7.454,2.451-11.154c0.964-3.679,1.182-7.546,1.266-11.33c0.076-3.441,0.454-6.881,0.442-10.32
				c-0.008-2.459-0.444-5.416-2.612-6.886c-1.506-1.021-3.132,1.401-3.7,2.406c-1.677,2.963-1.27,6.618-2.796,9.648
				c-1.048,2.08-2.897,3.675-4.422,5.399C181.504,245.817,182.209,246.527,182.637,246.043L182.637,246.043z"/>
		</g>
		<g>
			<path d="M364.027,373.023c0.569,3.633,0.728,6.931-0.152,10.528c-0.669,2.737-1.833,5.156-2.898,7.74
				c-0.865,2.098-1.392,7.888,2.581,7.237c4.27-0.698,6.73-6.05,8.182-9.578c2.229-5.421,3.454-11.18,3.818-17.017
				c0.04-0.645-0.96-0.641-1,0c-0.301,4.819-1.289,9.323-2.761,13.905c-1.305,4.066-3.168,8.536-6.762,11.1
				c-1.764,1.258-3.732-0.386-3.812-2.317c-0.041-1.01,0.394-2.13,0.717-3.065c0.712-2.06,1.804-3.886,2.43-5.995
				c1.296-4.371,1.324-8.32,0.621-12.805C364.893,372.122,363.929,372.393,364.027,373.023L364.027,373.023z"/>
		</g>
		<g>
			<path d="M366.355,396.543c0,2.002,1.871,2.509,3.695,2.084c2.538-0.593,4.626-4.399,5.935-6.398
				c2.189-3.345,3.708-7.179,4.572-11.067c0.863-3.887,1.489-8.11,1.565-12.095c0.013-0.646-0.987-0.644-1,0
				c-0.05,2.606-0.71,5.078-0.938,7.645c-0.304,3.422-1.038,6.725-2.393,9.888c-0.975,2.274-2.16,4.431-3.572,6.462
				c-0.809,1.164-1.73,2.294-2.686,3.343c-0.892,0.978-4.179,2.423-4.179,0.138C367.355,395.898,366.355,395.898,366.355,396.543
				L366.355,396.543z"/>
		</g>
		<g>
			<path d="M373.285,396.787c2.225,0.796,3.59-0.696,5-2.339c1.839-2.143,3.404-5.087,4.497-7.681
				c2.654-6.303,4.98-13.101,3.544-19.982c-0.132-0.631-1.096-0.363-0.965,0.266c1.166,5.582-0.325,10.893-2.266,16.109
				c-0.924,2.485-1.925,4.852-3.294,7.129c-1.222,2.032-3.353,6.57-6.251,5.533C372.942,395.604,372.683,396.571,373.285,396.787
				L373.285,396.787z"/>
		</g>
		<g>
			<path d="M167.034,352.94c3.064-0.329,6.076-0.959,9.116-1.449c4.177-0.673,8.119-0.395,12.162,0.866
				c7.021,2.191,13.293,6.558,20.47,8.256c7.005,1.657,14.285-0.725,21.383,0.822c3.285,0.716,6.181,2.274,9.272,3.507
				c3.223,1.285,6.546,1.746,10,1.75c3.348,0.003,6.619-0.827,9.966-0.711c3.377,0.117,6.597,1.44,9.685,2.692
				c2.889,1.172,5.659,2.248,8.772,2.62c4.533,0.54,8.539,2.406,11.968,5.422c6.261,5.508,3.466,13.3-1.348,18.632
				c-4.811,5.33-11.977,8.346-18.819,10.003c-3.809,0.922-7.673,1.176-11.563,1.479c-4.811,0.376-9.091,0.41-13.803-0.826
				c-3.451-0.906-6.794-1.756-10.39-1.501c-4.041,0.287-7.845,1.843-11.925,1.938c-8.414,0.195-16.257-4.596-24.325-6.246
				c-4.923-1.006-11.862-0.517-15.473,3.393c-0.437,0.473,0.269,1.182,0.707,0.707c4.543-4.917,13.17-3.774,18.821-1.992
				c6.857,2.162,13.834,5.288,21.16,5.118c3.199-0.074,6.332-1.142,9.46-1.708c4.309-0.781,8.404,0.391,12.541,1.477
				c6.758,1.775,14.163,0.897,21.007-0.096c11.218-1.627,25.111-7.754,28.347-19.734c1.467-5.432-1.566-9.893-5.76-13.023
				c-2.521-1.882-5.614-3.231-8.701-3.799c-1.761-0.324-3.535-0.391-5.271-0.876c-1.753-0.49-3.455-1.267-5.139-1.95
				c-3.237-1.315-6.441-2.463-9.95-2.729c-4.445-0.337-8.842,0.947-13.34,0.57c-4.79-0.4-8.826-2.964-13.303-4.44
				c-4.155-1.37-8.469-1.54-12.803-1.303c-4.982,0.273-9.602,0.559-14.374-1.227c-4.393-1.644-8.563-3.847-12.887-5.659
				c-4.1-1.719-8.251-2.924-12.725-2.821c-4.352,0.099-8.621,1.376-12.936,1.84C166.399,352.008,166.393,353.009,167.034,352.94
				L167.034,352.94z"/>
		</g>
		<g>
			<path d="M147.167,405.422c1.894-0.555,3.537-0.753,5.488-0.358c1.415,0.286,3.532,0.986,4.197,2.378
				c0.278,0.582,1.14,0.074,0.863-0.504c-0.699-1.464-2.49-2.113-3.928-2.601c-2.38-0.807-4.517-0.573-6.886,0.12
				C146.283,404.638,146.546,405.603,147.167,405.422L147.167,405.422z"/>
		</g>
		<g>
			<path d="M149.036,412.621c2.497-1.701,6.623-2.953,9.495-1.25c0.556,0.33,1.059-0.535,0.505-0.863
				c-3.195-1.895-7.672-0.681-10.505,1.25C148.002,412.118,148.501,412.985,149.036,412.621L149.036,412.621z"/>
		</g>
		<g>
			<path d="M152.536,417.871c2.489-1.614,5.374-1.68,8.248-1.682c0.645,0,0.645-1,0-1c-3.047,0.002-6.118,0.109-8.752,1.818
				C151.493,417.357,151.993,418.224,152.536,417.871L152.536,417.871z"/>
		</g>
		<g>
			<path d="M158.465,423.108c1.422-2.701,5.491-2.26,8.068-2.252c0.645,0.002,0.645-0.998,0-1c-2.965-0.009-7.301-0.351-8.932,2.748
				C157.302,423.174,158.165,423.68,158.465,423.108L158.465,423.108z"/>
		</g>
		<g>
			<path d="M162.123,399.555c3.259-0.549,6.581,0.327,9.871,0.167c2.835-0.139,5.649-0.798,8.439-1.272
				c5.544-0.94,10.83-2.246,16.045-4.358c6.942-2.81,14.165-7.479,13.554-15.902c-0.046-0.64-1.047-0.644-1,0
				c0.647,8.929-7.9,13.105-15.033,15.804c-4.793,1.813-9.706,2.793-14.745,3.647c-3.044,0.517-6.044,1.101-9.142,1.138
				c-2.794,0.034-5.461-0.658-8.255-0.188C161.223,398.697,161.493,399.66,162.123,399.555L162.123,399.555z"/>
		</g>
		<g>
			<path d="M198.166,401.172c5.7-1.32,11.585-2.397,16.565-5.65c1.979-1.293,3.372-3.102,4.895-4.867
				c1.604-1.859,3.004-3.863,3.389-6.332c0.099-0.631-0.865-0.901-0.964-0.266c-0.698,4.476-5.33,9.142-9.087,11.391
				c-4.536,2.715-9.992,3.585-15.064,4.76C197.272,400.353,197.539,401.317,198.166,401.172L198.166,401.172z"/>
		</g>
		<g>
			<path d="M235.141,363.539c6.681,1.606,11.905,5.774,18.136,8.454c4.231,1.819,8.365,3.731,11.877,6.781
				c4.362,3.786,5.5,8.955,1.801,13.701c-3.397,4.359-9.649,5.397-14.789,5.972c-0.634,0.071-0.641,1.071,0,1
				c5.234-0.586,10.662-1.619,14.641-5.332c3.706-3.457,4.542-8.656,1.838-12.911c-2.774-4.364-8.04-7.088-12.609-9.129
				c-3.473-1.552-6.864-3.048-10.128-5.021c-3.408-2.062-6.605-3.542-10.5-4.48C234.78,362.424,234.514,363.388,235.141,363.539
				L235.141,363.539z"/>
		</g>
		<g>
			<path d="M260.031,370.371c5.935,3.009,11.795,6.897,14.031,13.469c2.456,7.22-4.272,12.771-9.781,15.918
				c-0.561,0.319-0.057,1.184,0.504,0.863c5.438-3.105,12.021-8.436,10.593-15.556c-1.531-7.637-8.326-12.254-14.843-15.558
				C259.962,369.217,259.455,370.079,260.031,370.371L260.031,370.371z"/>
		</g>
		<g>
			<path d="M231.034,140.939c0.542,0.027,1.868,1.011,2.411,1.228c0.863,0.344,1.697,0.555,2.614,0.673
				c2.081,0.27,3.55-0.755,5.227-1.802c-0.202-0.262-0.404-0.523-0.606-0.785c-1.13,0.926-2.171,1.92-3.587,2.388
				c-2.1,0.694-4.136-0.879-5.539-2.222c-0.202,0.262-0.404,0.523-0.606,0.785c3.003,2.241,6.763,3.33,9.689,0.401
				c0.456-0.457-0.251-1.164-0.707-0.707c-2.628,2.63-5.883,1.377-8.477-0.558c-0.462-0.345-1.008,0.4-0.606,0.785
				c1.489,1.426,3.086,2.501,5.186,2.646c2.142,0.148,3.841-1.573,5.354-2.813c0.444-0.364-0.131-1.082-0.606-0.785
				c-1.967,1.229-3.434,1.954-5.796,1.479c-1.48-0.297-2.485-1.641-3.952-1.714C230.389,139.907,230.392,140.908,231.034,140.939
				L231.034,140.939z"/>
		</g>
		<g>
			<path d="M229.341,134.859c1.348-2.259,5.286-1.675,7.52-1.494c1.657,0.135,3.383,0.393,4.985,0.835
				c1.017,0.28,1.793,0.988,2.855,1.072c0.456,0.036,0.634-0.56,0.354-0.854c-1.903-1.993-4.165-3.28-6.73-4.243
				c-2.185-0.82-4.953-1.79-7.28-1.124c-2.196,0.628-5.604,5.856-2.311,7.037c0.608,0.218,0.868-0.748,0.266-0.964
				c-1.388-0.498-0.145-2.539,0.299-3.266c1.405-2.299,3.469-2.138,5.775-1.599c3.493,0.816,6.768,2.241,9.274,4.866
				c0.118-0.285,0.236-0.569,0.354-0.854c-1.437-0.114-3.061-1.191-4.534-1.482c-1.75-0.345-3.635-0.504-5.416-0.522
				c-2.283-0.023-4.956-0.122-6.272,2.086C228.147,134.909,229.012,135.412,229.341,134.859L229.341,134.859z"/>
		</g>
		<g>
			<path d="M247.367,136.773c0.304,3.235,1.413,8.144-0.095,11.124c-1.107,2.187-3.872,3.191-4.672,5.622
				c-0.406,1.231-0.271,2.652,1.144,3.165c1.591,0.577,3.235,0.916,4.788,1.605c1.185,0.525,1.98,0.768,3.309,0.616
				c1.115-0.127,2.23-0.755,3.23-1.223c1.077-0.503,2.269-0.681,3.367-1.135c1.059-0.439,2.074-1.487,1.746-2.74
				c-0.634-2.416-2.995-3.559-4.219-5.62c-1.83-3.08-1.312-7.661-1.264-11.081c0.009-0.645-0.991-0.645-1,0
				c-0.056,3.98-0.403,8.55,1.715,12.115c0.773,1.302,5.523,4.404,3.062,6.185c-0.732,0.53-1.816,0.694-2.674,0.928
				c-1.149,0.314-2.211,0.961-3.322,1.382c-2.054,0.778-5.688-1.102-7.815-1.759c-3.668-1.134,1.606-5.356,2.589-6.39
				c1.156-1.214,1.544-2.634,1.664-4.266c0.202-2.747-0.295-5.79-0.553-8.53C248.307,136.136,247.307,136.13,247.367,136.773
				L247.367,136.773z"/>
		</g>
		<g>
			<path d="M245.401,155.088c0.881,0.347,1.811,0.626,2.446,1.372c0.418,0.492,1.122-0.219,0.707-0.707
				c-0.748-0.878-1.851-1.221-2.888-1.628C245.066,153.888,244.808,154.855,245.401,155.088L245.401,155.088z"/>
		</g>
		<g>
			<path d="M253.555,156.793c0.676-0.796,1.644-1.209,2.611-1.539c0.607-0.206,0.347-1.172-0.266-0.964
				c-1.122,0.381-2.269,0.871-3.053,1.795C252.434,156.575,253.137,157.286,253.555,156.793L253.555,156.793z"/>
		</g>
		<g>
			<path d="M258.701,140.606c2.044,0.188,3.628,1.579,5.759,1.626c1.902,0.042,3.651-1.153,4.927-2.439
				c-0.235-0.236-0.472-0.471-0.707-0.707c-2.268,2.597-6.715,4.835-9.215,1.268c-0.188,0.245-0.376,0.49-0.564,0.734
				c2.093,0.351,3.57,1.878,5.801,2.018c1.927,0.121,3.563-1.477,5.084-2.402c0.55-0.335,0.048-1.2-0.504-0.863
				c-1.491,0.908-2.749,2.085-4.58,2.266c-2.065,0.204-3.6-1.658-5.535-1.982c-0.386-0.065-0.844,0.336-0.564,0.734
				c2.867,4.091,8.008,2.114,10.785-1.066c0.42-0.481-0.248-1.17-0.707-0.707c-1.658,1.673-3.664,2.541-6.014,1.872
				c-1.407-0.401-2.477-1.215-3.965-1.351C258.059,139.547,258.064,140.548,258.701,140.606L258.701,140.606z"/>
		</g>
		<g>
			<path d="M255.785,134.538c2.114-1.52,4.318-2.866,6.625-4.074c2.114-1.108,4.176-1.866,6.227-0.113
				c1.153,0.985,2.117,2.018,2.414,3.554c0.245-0.188,0.49-0.377,0.734-0.564c-2.6-1.42-4.314-2.253-7.369-1.997
				c-2.573,0.216-5.988,0.621-8.135,2.164c-0.519,0.373-0.021,1.241,0.504,0.863c1.723-1.238,4.705-1.69,6.748-1.932
				c1.435-0.169,2.759-0.253,4.201-0.018c1.282,0.21,2.433,1.175,3.547,1.783c0.403,0.221,0.816-0.138,0.734-0.564
				c-0.45-2.324-3.006-5.295-5.56-5.364c-3.964-0.108-8.12,3.203-11.175,5.399C254.763,134.047,255.261,134.915,255.785,134.538
				L255.785,134.538z"/>
		</g>
		<g>
			<path d="M247.201,165.106c2.114-0.042,4.135-0.213,6.251-0.158c1.04,0.027,2.507,0.268,3.458-0.265
				c0.563-0.315,0.059-1.179-0.504-0.863c-0.83,0.464-2.441,0.134-3.373,0.119c-0.756-0.012-1.548-0.255-2.299-0.149
				c-1.18,0.167-2.342,0.292-3.533,0.316C246.557,164.12,246.556,165.12,247.201,165.106L247.201,165.106z"/>
		</g>
		<g>
			<path d="M251.102,158.354c-0.748,1.549-1.4,3.012-2.608,4.276c-0.873,0.913-2.184,1.051-3.076,1.912
				c-2.001,1.931-2.823,4.604-4.302,6.911c-1.538,2.399-4.534,3.248-6.435,5.3c-1.677,1.811-2.185,4.209-3.578,6.101
				c0.305,0.04,0.609,0.08,0.913,0.12c-0.429-2.567-1.432-5.106-1.506-7.72c-0.079-2.805,1.73-5.256,3.167-7.499
				c2.681-4.186,4.953-11.747,11.287-10.645c0.63,0.11,0.9-0.854,0.266-0.964c-6.165-1.072-8.331,4.314-10.89,8.667
				c-1.678,2.855-3.836,5.441-4.641,8.712c-0.786,3.192,0.833,6.602,1.354,9.715c0.079,0.476,0.689,0.425,0.914,0.12
				c0.644-0.874,0.862-1.861,1.333-2.834c0.625-1.291,1.658-2.6,2.618-3.636c1.822-1.967,4.4-2.707,6.063-4.932
				c1.821-2.438,2.296-6.039,5.321-7.39c2.482-1.109,3.541-3.378,4.665-5.708C252.244,158.281,251.382,157.773,251.102,158.354
				L251.102,158.354z"/>
		</g>
		<g>
			<path d="M251.551,158.572c0.67,1.785,2.253,2.991,3.554,4.33c2.16,2.223,2.923,5.163,4.85,7.519
				c1.727,2.112,3.966,3.648,5.727,5.755c1.047,1.254,2.04,2.467,2.921,3.849c0.614,0.964,1.005,1.872,1.912,2.601
				c0.165,0.132,0.411,0.217,0.605,0.078c0.322-0.23,0.379-0.371,0.414-0.765c0.059-0.643-0.942-0.637-1,0
				c0.132-1.452-2.057-4.105-3.147-5.354c-1.777-2.036-3.674-3.727-5.608-5.585c-2.059-1.977-2.836-4.66-4.402-6.953
				c-1.354-1.981-4.008-3.469-4.86-5.742C252.291,157.708,251.324,157.967,251.551,158.572L251.551,158.572z"/>
		</g>
		<g>
			<path d="M257.867,157.273c5.97,0.204,8.683,4.475,10.768,9.467c0.983,2.354,1.335,4.996,1.581,7.514
				c0.283,2.89,0.781,5.878,0.002,8.721c0.205-0.117,0.41-0.233,0.615-0.349c-0.067-0.09-0.134-0.18-0.201-0.27
				c-0.288-0.577-1.15-0.07-0.863,0.505c0.245,0.491,0.307,0.533,0.799,0.729c0.253,0.102,0.549-0.108,0.615-0.349
				c0.884-3.229,0.265-6.626-0.057-9.906c-0.293-2.99-1.034-5.809-2.255-8.547c-2.153-4.833-5.415-8.323-11.005-8.514
				C257.222,156.251,257.225,157.251,257.867,157.273L257.867,157.273z"/>
		</g>
		<g>
			<path d="M221.385,138.905c0.833,3.218,0.366,6.479,0.557,9.754c0.148,2.525,1.105,5.001,2.167,7.269
				c1.133,2.418,2.834,4.527,4.904,6.198c0.817,0.66,1.622,1.274,2.534,1.807c1.059,0.619,2.242,0.671,3.354,1.113
				c0.6,0.239,0.857-0.729,0.266-0.964c-1.052-0.419-2.063-0.503-3.115-1.013c-1.09-0.528-2.003-1.386-2.936-2.138
				c-2.015-1.627-3.398-3.916-4.482-6.229c-1.299-2.773-1.778-5.7-1.754-8.741c0.019-2.496,0.1-4.887-0.531-7.322
				C222.188,138.016,221.223,138.281,221.385,138.905L221.385,138.905z"/>
		</g>
		<g>
			<path d="M216.867,139.939c0.038,3.787,0.434,7.554,0.607,11.335c0.191,4.172-0.583,8.294-1.428,12.357
				c-0.681,3.275-1.567,6.486-2.012,9.808c-0.506,3.775-0.501,7.712-0.285,11.507c0.161,2.841,0.845,5.563,2.123,8.105
				c1.564,3.111,4.105,5.667,5.876,8.659c1.651,2.79,2.218,6.121,3.477,9.089c1.208,2.851,3.423,4.919,5.841,6.753
				c2.551,1.934,5.257,3.684,7.854,5.56c2.745,1.983,5.587,3.735,8.814,4.808c6,1.996,12.774-0.865,17.819-4.02
				c2.487-1.555,4.877-3.459,6.791-5.684c2.03-2.361,2.939-5.424,3.74-8.367c0.953-3.498,2.222-6.597,4.121-9.691
				c1.732-2.822,3.946-5.556,5.159-8.661c1.536-3.935,2.114-8.51,2.27-12.722c0.075-2.021-0.162-3.946-0.585-5.917
				c-0.558-2.602-0.436-5.262-1.057-7.877c-1.166-4.917-3.214-9.322-3.431-14.456c-0.202-4.796,1.396-9.336,1.472-14.086
				c0.011-0.645-0.989-0.644-1,0c-0.053,3.284-0.965,6.454-1.314,9.711c-0.378,3.534-0.138,7.07,0.699,10.519
				c0.847,3.491,2.276,6.797,2.994,10.328c0.356,1.75,0.26,3.525,0.507,5.285c0.309,2.199,0.74,4.251,0.714,6.494
				c-0.041,3.572-0.704,7.345-1.639,10.791c-0.992,3.661-3.661,6.92-5.653,10.087c-1.649,2.622-2.966,5.336-3.792,8.324
				c-1.086,3.93-2.059,7.619-4.939,10.67c-4.957,5.251-13.674,9.912-21.04,8.703c-3.49-0.573-6.634-2.639-9.478-4.624
				c-2.851-1.99-5.711-3.992-8.522-6.037c-3.356-2.442-5.276-5.418-6.568-9.334c-1.06-3.212-2.15-6.016-4.121-8.794
				c-2.046-2.882-4.236-5.51-5.339-8.93c-1.195-3.703-0.983-7.917-0.827-11.755c0.268-6.588,2.226-12.825,3.295-19.294
				c1.026-6.209-0.081-12.412-0.144-18.643C217.86,139.295,216.86,139.294,216.867,139.939L216.867,139.939z"/>
		</g>
		<g>
			<path d="M222.165,138.572c1.422-3.774,2.842-7.164,3.384-11.183c0.216-1.602,0.817-3.148,1.17-4.722
				c0.526-2.348-0.27-4.534,1.501-6.582c2.679-3.097,7.95-2.433,11.49-2.171c1.987,0.147,3.986-0.252,5.971-0.308
				c1.735-0.049,3.419-0.199,5.126-0.518c0.642-0.12,0.358-1.056-0.266-0.964c-0.047,0.007-0.094,0.014-0.141,0.021
				c-0.15,0.022-0.328,0.198-0.349,0.349c-0.007,0.048-0.014,0.097-0.02,0.146c-0.087,0.63,0.876,0.902,0.964,0.266
				c-0.063,0.061-0.125,0.122-0.188,0.183c-0.088-0.321-0.177-0.643-0.266-0.964c-4.284,0.8-9.023,0.979-13.355,0.568
				c-2.951-0.28-6.77,0.225-9.127,2.223c-2.899,2.456-1.966,6.503-2.916,9.848c-0.617,2.173-0.697,4.419-1.282,6.593
				c-0.642,2.387-1.792,4.642-2.662,6.95C220.973,138.911,221.94,139.17,222.165,138.572L222.165,138.572z"/>
		</g>
		<g>
			<path d="M247.701,97.106c-5.572-0.474-11.746-1.767-17.128,0.323c-4.676,1.815-7.565,6.422-10.342,10.316
				c-3.594,5.039-6.357,10.133-7.364,16.29c-0.941,5.751-1.155,11.518,0.685,17.1c0.108,0.328,0.433,0.437,0.734,0.299
				c0.167-0.076,0.334-0.152,0.5-0.229c0.585-0.27,0.077-1.131-0.505-0.863c-0.167,0.077-0.333,0.153-0.5,0.229
				c0.245,0.1,0.49,0.199,0.734,0.299c-1.804-5.473-1.485-10.937-0.684-16.568c0.817-5.748,3.492-10.584,6.737-15.301
				c2.913-4.236,5.919-8.916,10.91-10.854c4.914-1.908,11.141-0.471,16.223-0.039C248.344,98.161,248.338,97.161,247.701,97.106
				L247.701,97.106z"/>
		</g>
		<g>
			<path d="M277.533,138.773c-0.52,9.23-0.986,19.399-10.018,24.468c-0.563,0.315-0.059,1.179,0.504,0.863
				c9.359-5.252,9.973-15.725,10.514-25.331C278.569,138.128,277.569,138.131,277.533,138.773L277.533,138.773z"/>
		</g>
		<g>
			<path d="M278.699,138.307c-0.768-2.037-1.653-4.026-2.385-6.077c-0.771-2.167-0.806-4.464-1.343-6.686
				c-0.517-2.137-0.949-4.028-1.006-6.25c-0.039-1.521-0.601-2.784-1.578-3.915c-1.949-2.254-6.075-2.831-8.84-2.748
				c-4.738,0.143-9.482,0.372-14.19-0.507c-0.088,0.321-0.177,0.643-0.266,0.964c-0.063-0.061-0.126-0.122-0.188-0.183
				c0.088,0.637,1.051,0.365,0.964-0.266c-0.006-0.048-0.013-0.097-0.02-0.146c-0.021-0.151-0.199-0.327-0.349-0.349
				c-0.047-0.007-0.094-0.014-0.141-0.021c-0.624-0.092-0.907,0.844-0.266,0.964c3.343,0.624,6.885,0.755,10.281,0.851
				c1.661,0.047,3.331-0.283,4.992-0.333c2.186-0.066,4.363,0.696,6.266,1.701c2.547,1.345,2.276,4.057,2.416,6.465
				c0.094,1.622,0.766,3.231,1.145,4.8c0.48,1.987,0.535,3.955,1.159,5.923c0.656,2.07,1.619,4.046,2.384,6.077
				C277.96,139.17,278.927,138.911,278.699,138.307L278.699,138.307z"/>
		</g>
		<g>
			<path d="M247.596,98.127c4.306,0.09,8.628-0.482,12.927-0.683c2.439-0.114,4.861-0.146,7.239,0.486
				c2.834,0.753,5.112,2.762,7.004,4.907c4.444,5.037,8.825,11.51,10.608,18.018c1.728,6.309,2.095,13.633,0.035,19.873
				c-0.202,0.614,0.764,0.875,0.965,0.266c2.086-6.324,1.546-13.116,0.171-19.554c-1.444-6.76-5.943-12.864-10.159-18.188
				c-3.354-4.236-7.36-6.767-12.848-6.872c-5.324-0.103-10.621,0.858-15.943,0.747C246.951,97.113,246.952,98.113,247.596,98.127
				L247.596,98.127z"/>
		</g>
		<g>
			<path d="M211.83,151.524c-1.703,1.628-3.883,3.529-4.778,5.782c-1.307,3.289-2.53,6.61-3.764,9.927
				c-2.59,6.96-5.322,13.874-9.103,20.288c-0.328,0.557,0.536,1.06,0.863,0.505c3.217-5.456,5.677-11.273,7.942-17.176
				c1.171-3.051,2.284-6.124,3.437-9.182c0.679-1.802,1.282-3.684,2.338-5.305c1.009-1.549,2.442-2.862,3.771-4.132
				C213.003,151.785,212.295,151.079,211.83,151.524L211.83,151.524z"/>
		</g>
		<g>
			<path d="M232.784,96.69c-2.152-0.249-3.643-1.849-3.205-4.139c0.294-1.537,1.888-2.74,3.044-3.626
				c1.605-1.23,3.524-2.049,5.409-2.729c4.232-1.526,8.677-1.751,13.126-1.873c1.866-0.051,3.761-0.112,5.606-0.418
				c2.956-0.49,5.467-1.464,8.28,0.188c1.926,1.13,3.533,3.458,4.249,5.523c0.947,2.736-1.839,5.8-4.205,6.654
				c-0.602,0.217-0.343,1.184,0.266,0.964c2.277-0.822,3.583-2.356,4.691-4.507c1.236-2.401-0.35-5-1.755-6.878
				c-1.339-1.789-3.429-3.588-5.771-3.731c-1.486-0.091-2.831,0.127-4.272,0.462c-2.338,0.544-4.698,0.665-7.09,0.743
				c-6.665,0.215-13.391,0.829-19.04,4.74c-1.977,1.368-3.649,3.194-3.649,5.702c0.001,2.301,2.336,3.696,4.315,3.926
				C233.424,97.765,233.416,96.764,232.784,96.69L232.784,96.69z"/>
		</g>
		<g>
			<path d="M236.554,85.753c-3.362-3.129-3.841-8.093,0.251-10.927c2.76-1.911,6.803-1.704,9.991-2.037
				c3.614-0.377,7.272-2.281,10.913-1.286c1.823,0.498,3.198,2.03,4.226,3.522c1.918,2.785,0.898,5.213-1.24,7.294
				c-0.463,0.45,0.245,1.157,0.707,0.707c1.611-1.568,2.64-2.895,2.613-5.242c-0.023-2.079-1.662-4.114-3.066-5.485
				c-4.03-3.936-9.471-1.063-14.153-0.511c-4.32,0.509-9.428,0.231-12.436,3.957c-2.839,3.517-1.525,7.911,1.486,10.714
				C236.318,86.898,237.027,86.193,236.554,85.753L236.554,85.753z"/>
		</g>
		<g>
			<path d="M260.115,72.175c-6.625,3.612-12.917,7.567-19.042,11.959c-0.519,0.372-0.021,1.24,0.505,0.863
				c6.119-4.387,12.426-8.352,19.041-11.959C261.185,72.729,260.682,71.866,260.115,72.175L260.115,72.175z"/>
		</g>
		<g>
			<path d="M256.615,70.675c-2.977,2.079-6.157,3.678-8.969,6.023c-3.037,2.534-4.568,6.075-8.198,7.977
				c-0.571,0.299-0.066,1.162,0.505,0.863c3.312-1.735,4.746-4.397,7.221-7.056c2.816-3.025,6.628-4.626,9.945-6.944
				C257.644,71.172,257.145,70.304,256.615,70.675L256.615,70.675z"/>
		</g>
		<g>
			<path d="M240.367,97.315c2.38-0.135,4.594-0.973,6.753-1.944c3.028-1.362,6.189-2.632,9.297-3.806
				c3.683-1.391,8.61-1.612,11.048-5.206c0.363-0.536-0.504-1.035-0.863-0.505c-2.476,3.651-8.452,3.897-12.201,5.438
				c-2.027,0.833-4.078,1.628-6.098,2.481c-2.574,1.086-5.097,2.382-7.936,2.543C239.726,96.352,239.722,97.352,240.367,97.315
				L240.367,97.315z"/>
		</g>
		<g>
			<path d="M249.12,97.871c1.832-0.935,3.799-1.388,5.718-2.088c1.66-0.606,3.166-1.587,4.615-2.578
				c1.764-1.205,3.797-1.86,5.666-2.834c1.549-0.806,2.594-1.694,4-2.666c0.527-0.364,0.027-1.231-0.504-0.863
				c-1.616,1.116-2.819,2.221-4.729,2.93c-1.732,0.643-3.33,1.676-4.938,2.57c-2.017,1.121-3.67,2.322-5.938,2.998
				c-1.518,0.452-2.985,0.948-4.396,1.668C248.04,97.301,248.547,98.164,249.12,97.871L249.12,97.871z"/>
		</g>
		<g>
			<path d="M252.783,112.814c0.166-1.484,2.115-2.98,3.15-3.928c1.707-1.564,3.788-2.63,5.873-3.589
				c3.414-1.571,7.352-2.267,10.479-4.426c0.527-0.364,0.028-1.231-0.504-0.863c-3.808,2.629-8.753,3.432-12.848,5.594
				c-2.466,1.302-6.808,4.153-7.15,7.213C251.712,113.455,252.712,113.448,252.783,112.814L252.783,112.814z"/>
		</g>
		<g>
			<path d="M258.266,113.322c1.435-3.437,6.561-4.876,9.598-6.438c2.578-1.326,5.128-2.499,7.398-4.342
				c0.501-0.407-0.211-1.11-0.707-0.707c-3.086,2.506-6.823,3.994-10.377,5.691c-2.597,1.24-5.71,2.733-6.877,5.529
				C257.053,113.651,258.021,113.908,258.266,113.322L258.266,113.322z"/>
		</g>
		<g>
			<path d="M226.927,100.072c1.204,3.836,4.636,6.745,7.855,8.924c3.311,2.242,7.285,4.219,11.315,4.568
				c0.643,0.056,0.637-0.945,0-1c-3.391-0.295-6.524-1.931-9.469-3.551c-3.482-1.916-7.507-5.293-8.736-9.207
				C227.698,99.193,226.733,99.456,226.927,100.072L226.927,100.072z"/>
		</g>
		<g>
			<path d="M226.227,106.629c3.364,4.358,7.412,7.088,13.057,7.248c0.645,0.018,0.644-0.982,0-1
				c-5.198-0.147-9.093-2.735-12.193-6.753C226.703,105.622,225.833,106.119,226.227,106.629L226.227,106.629z"/>
		</g>
		<g>
			<path d="M233.781,104.121c3.501,1.801,5.916,4.86,8.94,7.292c1.812,1.457,3.758,2.423,6.132,2.008
				c0.635-0.11,0.365-1.074-0.266-0.964c-3.361,0.586-6.04-2.34-8.19-4.483c-1.859-1.853-3.773-3.513-6.112-4.716
				C233.714,102.963,233.207,103.826,233.781,104.121L233.781,104.121z"/>
		</g>
		<g>
			<path d="M226.602,116.687c-3.26,4.494-7.166,7.584-12.326,9.646c-0.591,0.236-0.333,1.204,0.266,0.964
				c5.444-2.174,9.49-5.372,12.924-10.104C227.845,116.669,226.977,116.17,226.602,116.687L226.602,116.687z"/>
		</g>
		<g>
			<path d="M225.352,123.562c-2.439,4.377-6.986,6.304-11.321,8.321c-0.584,0.271-0.076,1.134,0.505,0.863
				c4.511-2.099,9.151-4.141,11.679-8.679C226.529,123.503,225.665,122.999,225.352,123.562L225.352,123.562z"/>
		</g>
		<g>
			<path d="M272.555,117.668c1.541,1.366,2.733,2.918,4.477,4.078c1.837,1.223,3.663,2.187,5.877,2.443c0.64,0.074,0.633-0.927,0-1
				c-2.016-0.234-3.72-1.194-5.373-2.307c-1.682-1.132-2.79-2.607-4.273-3.922C272.781,116.535,272.071,117.239,272.555,117.668
				L272.555,117.668z"/>
		</g>
		<g>
			<path d="M273.555,123.543c3.35,2.67,7.342,3.826,11.604,3.646c0.643-0.027,0.645-1.027,0-1
				c-3.979,0.168-7.757-0.851-10.897-3.354C273.763,122.438,273.051,123.141,273.555,123.543L273.555,123.543z"/>
		</g>
		<g>
			<path d="M257.031,82.883c-2.415,1.364-4.86,2.561-7.486,3.464c-2.301,0.792-4.176,2.462-6.264,3.661
				c-0.559,0.321-0.056,1.185,0.505,0.863c2.269-1.302,4.232-2.942,6.736-3.805c2.457-0.845,4.756-2.045,7.013-3.32
				C258.097,83.429,257.593,82.565,257.031,82.883L257.031,82.883z"/>
		</g>
		<g>
			<path d="M247.37,84.371c3.152-1.619,6.405-3.022,9.624-4.5c0.586-0.269,0.077-1.13-0.504-0.863
				c-3.22,1.478-6.473,2.881-9.625,4.5C246.291,83.802,246.797,84.665,247.37,84.371L247.37,84.371z"/>
		</g>
		<g>
			<path d="M239.969,100.329c4.694,3.001,5.669,8.7,9.232,12.589c0.436,0.477,1.142-0.232,0.707-0.707
				c-1.972-2.153-2.901-4.992-4.534-7.386c-1.409-2.065-2.761-3.992-4.9-5.359C239.928,99.117,239.427,99.983,239.969,100.329
				L239.969,100.329z"/>
		</g>
		<g>
			<path d="M261.533,113.772c2.111-0.083,4.234-0.429,6.334-0.666c1.907-0.215,3.146-1.955,4.967-2.352
				c0.63-0.137,0.363-1.101-0.266-0.964c-1.556,0.338-2.724,1.544-4.186,2.151c-1.158,0.481-2.775,0.357-4.016,0.498
				c-0.949,0.107-1.875,0.295-2.834,0.333C260.891,112.798,260.888,113.798,261.533,113.772L261.533,113.772z"/>
		</g>
		<g>
			<path d="M247.909,168.877c2.697,0.3,5.415,0.233,8.125,0.188c0.645-0.011,0.645-1.011,0-1c-2.697,0.046-5.439,0.111-8.125-0.188
				C247.268,167.806,247.275,168.807,247.909,168.877L247.909,168.877z"/>
		</g>
		<g>
			<path style="fill:#FF7BAC;" d="M210.116,442.658c-1.875-2-2.625-4.875-2.375-7.5c0.125-1.375,1.375-2.25,2.625-1.25
				c0.875,0.75,1.375,1.75,2.125,2.5c0.625-0.75,0.875-1.5,1.75-2c0.75-0.375,1.625-0.625,2.5-0.625c0.625,0,1.5,0,1.75,0.75
				c0.375,0.625-0.125,1.375-0.125,2c1.25-0.75,5.75-3.375,6.625-0.75c0.25,1-0.5,2.25-1,3.125s-1,1.625-1.375,2.625
				c-1,2.125-2.125,3.75-4.5,4.375c-1.5,0.375-3.875,0.75-5.375,0c-1.875-0.875-2.25-3.125-3.375-4.625"/>
			<g>
				<path d="M209.825,441.023c-1.343-1.497-2.005-2.896-2.031-4.918c-0.021-1.706,1.791-3.926,3.402-0.997
					c0.303,0.551,0.475,1.044,0.863,1.552c0.24,0.314,0.624,0.322,0.863,0c0.573-0.861,1.319-1.562,2.238-2.099
					c1.52-0.635,3.035,0.066,2.723,1.839c-0.073,0.412,0.328,0.806,0.734,0.564c1.222-0.726,2.471-1.362,3.851-1.727
					c1.111-0.385,1.758,0.18,1.939,1.692c-0.233,0.601-0.517,1.176-0.85,1.726c-0.607,1.07-1.139,2.142-1.68,3.246
					c-1.343,2.74-3.542,3.689-6.451,3.928c-3.458,0.283-4.1-2.506-5.631-4.799c-0.356-0.534-1.223-0.034-0.863,0.504
					c1.933,2.896,2.52,5.331,6.494,5.295c3.68-0.033,6.055-1.854,7.619-5.045c0.711-1.451,4.05-5.709,1.711-7.186
					c-2.048-1.294-4.855,0.438-6.645,1.502c0.245,0.188,0.49,0.376,0.734,0.564c0.276-1.564,0.457-3.045-1.472-3.353
					c-2.505-0.399-3.984,1.046-5.316,2.844c0.288,0,0.576,0,0.863,0c-0.753-0.986-1.025-2.684-2.386-3.098
					c-1.027-0.311-2.257-0.349-3.084,0.478c-2.163,2.163,0.107,6.458,1.665,8.194C209.549,442.211,210.254,441.502,209.825,441.023
					L209.825,441.023z"/>
			</g>
			<g>
				<path d="M208.89,439.822c1.003-1.162,2.035-1.346,3.095-0.55c1.032,0.498,1.56,1.365,1.988,2.365
					c0.152,0.355,0.694,0.297,0.863,0c0.903-1.576,3.16-2.552,4.827-1.994c0.613,0.205,0.874-0.761,0.266-0.965
					c-2.189-0.731-4.79,0.419-5.956,2.455c0.288,0,0.576,0,0.863,0c-0.968-2.264-6.013-5.618-6.91-1.577
					C207.786,440.185,208.75,440.452,208.89,439.822L208.89,439.822z"/>
			</g>
		</g>
		<g>
			<path style="fill:#FF7BAC;" d="M277.783,407.627c-0.688-0.313-1.438-0.5-2.188-0.375c-0.75,0.188-1.5,0.625-2.063,1.125
				c-0.5,0.5-0.813,1.063-1.125,1.625c-0.313,0.75-0.688,1.438-1.063,2.125c-0.375,0.75-0.688,1.563-0.75,2.375
				c0,0.813,0.313,1.625,0.688,2.375c0.938,1.875,2.5,3.313,4.625,3.75c1.75,0.375,3.75,0.25,5.375-0.5
				c1.938-0.938,3.25-2.563,3.875-4.563c0.313-0.875,0.5-1.813,0.75-2.688c0.25-0.75,0.5-1.625,0.5-2.438
				c-0.063-1.75-1.438-3.563-3.188-3.938c-0.938-0.188-1.813,0.063-2.688,0.313c-0.875,0.313-1.688,0.563-2.625,0.625
				c-1.625,0.125-4-0.375-4.813,1.5c-0.125,0.375-0.25,0.75-0.313,1.188"/>
			<g>
				<path d="M281.234,419.791c-3.542,1.479-6.721,0.544-8.936-2.602c-1.207-1.715-1.49-4.16-0.14-5.882
					c2.26-2.881,4.439,1.262,4.892,2.933c0.17,0.628,1.089,0.36,0.965-0.266c-0.216-1.083,0.689-5.798,2.917-4.004
					c0.556,0.446,0.9,1.361,1.253,1.973c0.211,0.368,0.812,0.306,0.914-0.119c0.065-0.304,0.147-0.604,0.244-0.899
					c0.225-1.288,1.104-1.544,2.637-0.766c0.497,1.413-0.28,2.83-0.846,4.079c-1.13,2.496-1.004,5.326-4.316,5.804
					c-0.637,0.092-0.365,1.056,0.266,0.965c2.121-0.306,3.134-1.213,3.933-3.163c0.612-1.496,1.118-3.115,1.662-4.638
					c0.325-0.914,0.58-1.777,0.381-2.751c-0.217-1.058-0.987-2.957-2.489-2.408c-1.522,0.556-2.078,2.03-2.435,3.512
					c0.305-0.04,0.609-0.08,0.914-0.119c-0.864-1.502-1.656-3.22-3.648-2.648c-2.101,0.604-2.704,3.661-2.35,5.448
					c0.321-0.089,0.644-0.177,0.965-0.266c-0.591-2.185-1.484-3.934-3.849-4.396c-2.218-0.434-3.571,1.871-3.872,3.686
					c-0.431,2.608,1.32,5.109,3.209,6.676c2.442,2.024,5.203,1.98,7.996,0.815C282.086,420.511,281.829,419.543,281.234,419.791
					L281.234,419.791z"/>
			</g>
			<g>
				<path d="M273.299,409.772c-0.853-1.621,2.048-2.281,2.887-2.341c0.831-0.06,1.367,0.76,2.182,0.76
					c0.477,0,0.68-0.178,0.989-0.49c1.45-1.464,3.144-1.749,4.823-0.156c0.468,0.443,1.176-0.263,0.707-0.707
					c-1.353-1.283-2.704-1.612-4.506-1.205c-0.448,0.102-1.086,0.434-1.361,0.807c-0.745,1.007-1.592,0.06-2.467,0.013
					c-2.005-0.111-5.413,1.36-4.117,3.824C272.735,410.847,273.599,410.341,273.299,409.772L273.299,409.772z"/>
			</g>
		</g>
		<g>
			<path d="M334.15,374.457c-11.971,5.044-22.06,13.157-30.056,23.364c-3.734,4.767-7.293,11.568-7.033,17.792
				c0.243,5.84,5.719,7.033,10.472,6.576c0.636-0.062,0.642-1.062,0-1c-2.839,0.273-5.371,0.364-7.693-1.556
				c-2.847-2.353-1.73-6.903-0.81-9.839c1.836-5.86,4.947-10.597,9.037-15.132c7.462-8.274,16.036-14.896,26.35-19.241
				C335.001,375.175,334.744,374.207,334.15,374.457L334.15,374.457z"/>
		</g>
		<g>
			<path d="M351.68,381.336c-5.93,6.315-11.162,12.961-15.339,20.563c-1.939,3.527-7.009,11.105-1.81,14.223
				c0.554,0.333,1.057-0.532,0.504-0.863c-5.113-3.066,2.167-12.916,3.973-16.085c3.586-6.294,8.438-11.867,13.379-17.13
				C352.827,381.573,352.122,380.865,351.68,381.336L351.68,381.336z"/>
		</g>
		<g>
			<path d="M231.568,454.589c5.718,2.333,11.095,3.244,17.246,2.866c5.232-0.322,11.212-1.087,15.805-3.75
				c0.558-0.323,0.055-1.188-0.504-0.863c-4.695,2.722-10.885,3.342-16.199,3.668c-5.691,0.351-10.831-0.743-16.083-2.886
				C231.236,453.381,230.979,454.349,231.568,454.589L231.568,454.589z"/>
		</g>
	</g>
</g>
</svg>
