<?xml version="1.0" standalone="no"?>
<!DOCTYPE svg PUBLIC "-//W3C//DTD SVG 20010904//EN"
 "http://www.w3.org/TR/2001/REC-SVG-20010904/DTD/svg10.dtd">
<svg version="1.0" xmlns="http://www.w3.org/2000/svg"
 width="1193.000000pt" height="1300.000000pt" viewBox="0 0 1193.000000 1300.000000"
 preserveAspectRatio="xMidYMid meet">

<g transform="translate(0.000000,1300.000000) scale(0.100000,-0.100000)"
fill="#000000" stroke="none">
<path d="M6125 12993 c-634 -42 -1208 -252 -1640 -600 -135 -108 -332 -314
-443 -461 -288 -383 -474 -840 -553 -1357 -26 -172 -36 -497 -20 -686 26 -308
126 -757 206 -928 19 -40 35 -76 35 -79 0 -3 -17 10 -37 30 -125 119 -330 172
-450 116 -122 -57 -173 -172 -173 -389 0 -232 51 -406 240 -819 118 -256 140
-323 225 -659 31 -124 67 -249 80 -278 46 -102 164 -192 263 -199 l47 -3 -43
9 c-99 21 -188 93 -232 188 -12 25 -44 151 -71 280 -77 368 -109 471 -229 727
-151 322 -220 567 -220 779 0 179 39 270 137 320 82 41 220 24 334 -42 90 -52
216 -180 263 -267 20 -38 34 -59 30 -45 -11 41 -43 101 -91 168 -50 70 -92
157 -118 247 -26 84 -26 490 -2 685 93 735 388 1366 772 1652 81 61 138 94
235 134 68 29 53 31 -24 4 -454 -156 -817 -674 -971 -1383 -42 -194 -58 -361
-59 -597 0 -166 -2 -200 -9 -150 -14 107 -13 543 1 655 47 355 169 837 283
1111 73 178 189 372 296 497 25 29 8 14 -37 -32 -156 -163 -268 -349 -375
-626 -154 -397 -259 -951 -241 -1270 4 -66 3 -78 -3 -45 -18 92 -24 393 -12
555 46 613 249 1166 599 1635 111 148 364 403 505 507 401 298 891 483 1447
547 315 37 810 41 1120 10 36 -4 63 -4 60 -1 -9 9 -322 46 -485 57 -146 9
-519 11 -640 3z"/>
<path d="M7268 12923 c6 -2 18 -2 25 0 6 3 1 5 -13 5 -14 0 -19 -2 -12 -5z"/>
<path d="M7590 12841 c188 -68 243 -92 422 -183 526 -268 890 -643 1173 -1209
177 -353 274 -596 370 -929 107 -372 155 -668 164 -1025 6 -221 7 -234 16
-160 17 134 11 581 -9 725 -50 364 -144 719 -278 1055 -66 163 -228 495 -304
621 -124 207 -339 454 -537 615 -232 190 -430 301 -761 425 -109 42 -355 115
-380 113 -6 0 50 -22 124 -48z"/>
<path d="M8120 11421 c326 -121 642 -342 867 -604 329 -386 569 -915 623
-1377 18 -151 30 -180 24 -60 -17 344 -92 636 -244 945 -259 527 -683 919
-1175 1084 -137 46 -212 56 -95 12z"/>
<path d="M5210 11329 c-92 -11 -243 -47 -325 -76 -335 -120 -656 -410 -863
-778 -233 -415 -352 -926 -313 -1345 19 -198 27 -208 23 -27 -7 287 35 557
133 853 122 371 317 700 555 934 235 232 470 357 796 424 119 24 117 31 -6 15z"/>
<path d="M5545 10853 c-375 -48 -810 -234 -1210 -517 -296 -210 -426 -424
-497 -816 -17 -96 -21 -163 -23 -405 -1 -159 -1 -261 1 -225 23 430 71 708
157 917 77 189 205 338 419 488 439 309 809 475 1233 553 l50 10 -50 -1 c-27
0 -63 -2 -80 -4z"/>
<path d="M8344 10837 c81 -50 221 -148 280 -196 96 -79 287 -278 363 -378 244
-319 426 -693 503 -1028 23 -99 25 -72 5 55 -58 357 -220 717 -458 1015 -101
126 -273 286 -418 388 -68 47 -268 157 -285 156 -5 0 0 -6 10 -12z"/>
<path d="M8142 10320 c108 -40 250 -109 363 -175 361 -212 713 -594 861 -934
41 -94 44 -79 5 32 -84 239 -210 435 -397 619 -120 117 -183 168 -296 241
-156 101 -319 175 -488 221 -124 34 -145 32 -48 -4z"/>
<path d="M5395 10273 c-505 -61 -945 -315 -1244 -716 -81 -109 -149 -225 -191
-328 -38 -90 -86 -272 -94 -354 l-6 -60 24 85 c105 380 299 670 626 936 271
221 615 375 955 428 l90 14 -65 -1 c-36 0 -78 -2 -95 -4z"/>
<path d="M7890 9997 c3 -2 76 -35 162 -71 327 -138 633 -295 818 -420 125 -84
334 -287 399 -388 24 -38 45 -68 47 -68 2 0 -11 30 -30 68 -79 155 -217 316
-371 432 -196 147 -535 307 -851 400 -175 52 -180 54 -174 47z"/>
<path d="M5425 9833 c-279 -35 -591 -147 -835 -298 -443 -275 -715 -614 -685
-854 12 -94 20 -93 20 2 0 83 3 99 33 161 91 192 276 374 602 591 299 199 620
336 911 389 63 12 67 14 29 13 -25 0 -58 -2 -75 -4z"/>
<path d="M7700 9650 c19 -5 73 -13 120 -20 216 -29 466 -113 735 -247 245
-123 393 -224 555 -378 75 -72 87 -81 62 -45 -93 129 -265 288 -422 390 -36
23 -128 73 -205 110 -223 108 -378 157 -588 185 -125 16 -323 20 -257 5z"/>
<path d="M5460 9524 c-516 -70 -1085 -335 -1364 -635 -98 -106 -129 -169 -132
-269 l-2 -75 7 61 c11 86 43 146 123 225 139 137 291 236 583 379 329 161 614
257 913 309 107 19 107 19 42 19 -36 0 -112 -6 -170 -14z"/>
<path d="M6140 9400 c-319 -35 -634 -119 -938 -249 -189 -81 -257 -116 -572
-291 -146 -81 -332 -182 -415 -223 -82 -42 -146 -76 -142 -77 18 0 325 129
517 218 517 240 655 295 920 371 305 88 549 124 840 125 590 3 1117 -92 2170
-389 300 -85 367 -110 490 -186 34 -21 34 -21 10 0 -99 83 -193 130 -432 218
-749 274 -1274 413 -1768 468 -173 19 -560 28 -680 15z"/>
<path d="M7970 9264 c0 -5 43 -15 95 -23 272 -36 636 -162 820 -284 79 -51
192 -148 226 -190 21 -27 21 -29 5 -86 -25 -88 -19 -95 10 -11 39 115 79 177
178 275 104 104 195 156 308 176 84 15 132 3 189 -48 59 -53 73 -114 65 -268
-12 -207 -54 -485 -113 -750 -84 -378 -117 -466 -250 -665 -39 -58 -84 -132
-101 -165 -70 -140 -132 -371 -132 -491 0 -76 -29 -135 -85 -174 -49 -34 -118
-52 -167 -45 -31 5 -32 5 -8 -6 36 -16 115 -4 178 27 46 23 58 34 78 78 15 33
27 88 34 154 6 57 20 132 31 167 23 74 111 250 194 385 32 52 88 154 126 225
106 203 148 323 179 520 10 66 28 174 39 240 37 218 52 358 52 516 0 178 -8
208 -69 273 -20 21 -55 47 -77 57 -84 39 -223 14 -349 -61 -81 -49 -203 -181
-250 -270 l-38 -72 -27 41 c-45 67 -135 164 -182 196 -24 16 -59 42 -77 57
-81 69 -352 172 -532 202 -116 20 -350 33 -350 20z"/>
<path d="M6416 9208 c18 -68 18 -111 -1 -178 -29 -106 -66 -272 -62 -283 2 -6
25 50 53 124 45 122 49 142 49 219 0 69 -5 93 -23 128 -12 23 -24 42 -26 42
-2 0 3 -23 10 -52z"/>
<path d="M6670 9180 c0 -41 -7 -113 -15 -159 -8 -47 -13 -86 -11 -89 7 -7 33
50 51 110 17 61 14 126 -11 183 -12 28 -13 26 -14 -45z"/>
<path d="M7190 8915 c-8 -2 -48 -9 -89 -15 -94 -16 -196 -50 -267 -90 -52 -30
-169 -129 -161 -136 2 -2 28 9 58 26 130 72 330 108 536 96 322 -18 718 -111
953 -224 41 -20 80 -38 85 -40 26 -9 -96 94 -164 139 -234 153 -504 237 -791
244 -80 2 -152 2 -160 0z"/>
<path d="M9554 8882 c-142 -49 -282 -233 -319 -419 -20 -98 -17 -171 3 -83 18
79 93 226 146 288 90 105 177 162 250 165 94 4 136 -66 146 -238 5 -98 7 -106
15 -70 6 22 10 85 10 140 0 88 -3 105 -25 145 -18 32 -38 52 -70 68 -53 26
-88 27 -156 4z"/>
<path d="M5365 8860 c-217 -20 -429 -94 -609 -214 -92 -62 -185 -142 -218
-189 l-23 -32 35 23 c136 91 452 212 671 257 329 67 567 54 764 -41 l50 -25
-54 51 c-63 60 -178 120 -275 145 -58 14 -238 38 -256 33 -3 0 -41 -4 -85 -8z"/>
<path d="M3318 8755 c-20 -13 -46 -44 -58 -69 -19 -39 -21 -55 -15 -113 8 -72
54 -247 74 -279 11 -18 12 -18 7 1 -14 61 -28 212 -25 278 5 86 26 126 74 138
86 24 218 -115 311 -329 58 -131 36 -11 -25 142 -52 128 -109 198 -196 237
-56 26 -103 24 -147 -6z"/>
<path d="M9970 8744 c1 -13 80 -159 120 -222 l34 -53 8 -199 c4 -110 10 -212
14 -227 13 -60 16 -454 4 -551 -28 -232 -111 -476 -220 -654 -16 -26 -28 -48
-26 -48 9 0 116 150 149 210 75 136 134 325 158 505 15 113 6 485 -15 640 -9
61 -16 137 -16 170 -1 88 -23 171 -59 218 -18 23 -59 82 -91 131 -33 48 -60
84 -60 80z"/>
<path d="M8900 8692 c0 -24 21 -56 71 -107 27 -27 55 -68 63 -90 14 -37 15
-38 15 -12 1 43 -25 91 -70 127 -23 18 -49 46 -60 64 -10 17 -19 25 -19 18z"/>
<path d="M7331 8594 c-104 -28 -199 -88 -281 -178 -51 -56 -49 -64 6 -22 58
45 191 109 254 124 101 24 172 25 287 3 120 -23 290 -76 392 -122 35 -16 67
-29 70 -29 12 0 -56 51 -124 93 -208 127 -435 177 -604 131z"/>
<path d="M8915 8573 c17 -73 39 -141 60 -183 30 -60 49 -153 41 -209 -4 -35
-3 -42 5 -28 6 10 11 51 11 91 0 75 0 75 -76 251 -14 33 -26 68 -26 77 0 9 -5
20 -10 23 -7 4 -9 -3 -5 -22z"/>
<path d="M5230 8500 c-112 -31 -264 -109 -369 -190 -51 -40 -91 -73 -89 -75 2
-2 57 23 123 56 66 32 179 78 250 101 127 42 133 43 265 43 116 0 144 -4 200
-23 59 -22 147 -67 210 -109 14 -9 3 7 -25 36 -111 116 -231 171 -390 177 -79
3 -116 0 -175 -16z"/>
<path d="M6892 8489 c-48 -24 -87 -69 -97 -114 -7 -27 1 -22 74 50 44 44 81
81 81 82 0 7 -18 1 -58 -18z"/>
<path d="M3962 8488 c-25 -33 -23 -58 14 -133 20 -41 39 -75 41 -75 9 0 -9 63
-34 117 -21 45 -23 59 -14 79 12 26 9 31 -7 12z"/>
<path d="M7385 8490 c-106 -21 -214 -82 -318 -180 -78 -72 -88 -96 -20 -44 86
66 264 144 328 144 14 0 30 -13 46 -37 30 -47 80 -67 133 -52 31 9 69 42 78
70 2 6 16 6 38 -2 106 -34 109 -39 49 -94 -58 -52 -96 -65 -187 -65 -103 0
-159 20 -223 80 l-51 48 6 -30 c28 -141 239 -225 384 -152 62 31 97 70 114
127 6 23 13 44 14 45 1 2 53 -16 116 -41 108 -43 219 -80 224 -74 4 4 -297
174 -357 202 -122 55 -266 76 -374 55z m190 -80 c17 -6 15 -9 -16 -15 -32 -6
-119 9 -119 20 0 8 114 4 135 -5z"/>
<path d="M5926 8374 c89 -87 118 -145 118 -234 0 -78 -18 -116 -103 -223 -59
-75 -167 -174 -241 -223 -59 -39 -49 -41 18 -4 153 86 304 240 351 357 20 50
10 158 -19 217 -26 50 -102 127 -161 160 -25 15 -16 2 37 -50z"/>
<path d="M8876 8403 c-9 -41 8 -96 44 -143 15 -19 37 -51 49 -70 11 -19 21
-28 21 -20 -1 21 -36 96 -49 104 -19 12 -43 67 -50 115 l-7 46 -8 -32z"/>
<path d="M10190 8420 c1 -34 51 -134 119 -234 138 -205 168 -300 158 -506 -6
-139 -29 -215 -130 -445 -93 -213 -107 -257 -114 -345 -6 -88 12 -168 54 -231
35 -54 38 -49 7 12 -32 60 -42 159 -25 240 6 30 59 151 116 269 133 275 155
349 155 519 -1 69 -7 153 -14 186 -17 83 -65 177 -131 260 -119 150 -149 192
-171 240 -13 28 -24 43 -24 35z"/>
<path d="M5297 8399 c-102 -15 -214 -69 -395 -188 -95 -63 -171 -115 -169
-117 6 -6 106 35 265 110 87 40 167 76 178 80 16 5 30 -2 57 -29 30 -30 42
-35 80 -35 53 0 93 27 113 76 16 37 16 37 139 8 60 -14 189 -73 255 -115 l35
-23 -25 28 c-37 41 -137 114 -200 146 -107 54 -227 75 -333 59z m80 -83 c-24
-18 -107 -30 -120 -17 -6 6 3 12 29 16 22 3 46 8 54 10 8 1 24 3 35 4 19 0 19
0 2 -13z"/>
<path d="M10361 8367 c205 -91 285 -169 331 -322 17 -60 20 -86 15 -180 -6
-118 -16 -160 -111 -453 -96 -296 -110 -360 -111 -502 0 -111 3 -130 23 -172
25 -50 91 -130 92 -112 0 6 -7 17 -16 25 -29 24 -64 108 -70 167 -10 95 12
190 121 517 114 340 132 423 127 588 -3 117 -24 180 -85 262 -49 67 -148 136
-251 175 -109 43 -155 48 -65 7z"/>
<path d="M6616 8297 c-11 -75 12 -171 55 -239 42 -65 158 -171 240 -219 93
-54 113 -60 54 -14 -160 121 -272 244 -306 334 -11 31 -24 88 -28 126 l-7 70
-8 -58z"/>
<path d="M3972 8235 c-1 -33 7 -105 18 -160 l18 -100 0 75 c1 41 -7 113 -17
160 l-19 85 0 -60z"/>
<path d="M5519 8218 c-65 -66 -123 -88 -231 -88 -81 0 -121 15 -177 65 -42 39
-49 36 -30 -12 14 -38 56 -80 104 -106 31 -17 57 -22 120 -22 95 0 152 22 208
80 34 35 73 114 66 132 -2 4 -29 -17 -60 -49z"/>
<path d="M7017 8184 c-35 -19 -30 -29 6 -13 41 18 85 4 196 -66 152 -94 194
-109 321 -109 83 -1 121 4 180 23 99 30 214 91 270 142 50 45 48 45 -66 -5
-112 -50 -222 -76 -339 -83 -119 -7 -163 4 -331 78 -121 53 -183 62 -237 33z"/>
<path d="M9641 8082 c-55 -145 -185 -403 -232 -460 -24 -30 -83 -83 -132 -119
-78 -58 -136 -117 -162 -163 -5 -8 8 -1 28 17 20 18 76 55 124 84 203 119 266
202 352 457 29 87 67 260 58 268 -2 2 -18 -35 -36 -84z"/>
<path d="M8916 8079 c-21 -70 -21 -75 18 -219 28 -100 35 -117 35 -84 1 22 -7
74 -18 115 -29 114 -33 154 -22 195 16 59 4 53 -13 -7z"/>
<path d="M5755 8111 c-16 -5 -72 -29 -122 -54 -51 -26 -128 -59 -170 -73 -73
-25 -87 -26 -208 -21 -138 5 -249 30 -364 83 -30 13 -56 22 -58 20 -3 -2 28
-27 67 -55 130 -91 290 -138 444 -129 104 7 173 33 288 112 132 90 160 106
193 107 26 0 27 2 10 9 -24 10 -40 10 -80 1z"/>
<path d="M3793 8089 c-34 -22 -90 -98 -100 -137 -3 -12 -4 -51 -1 -85 3 -50
10 -72 33 -105 43 -59 56 -61 39 -5 -30 98 -11 211 50 302 37 54 31 63 -21 30z"/>
<path d="M6526 7937 c-3 -67 -9 -228 -12 -357 -6 -223 -5 -243 20 -391 39
-232 34 -282 -37 -359 l-32 -34 35 25 c19 14 46 47 59 74 30 58 31 137 7 320
-12 90 -16 205 -16 476 0 358 -11 475 -24 246z"/>
<path d="M9120 8024 c0 -3 17 -32 39 -63 51 -75 67 -108 75 -154 13 -73 -6
-103 -133 -206 -23 -18 -41 -35 -39 -37 2 -2 33 8 68 22 121 49 170 103 170
189 0 64 -27 123 -81 175 -48 47 -99 85 -99 74z"/>
<path d="M8045 7949 c-82 -84 -275 -151 -442 -153 -58 -1 -88 -5 -82 -10 5 -6
62 -10 126 -10 99 1 131 5 195 26 93 31 164 74 204 125 58 73 58 83 -1 22z"/>
<path d="M9052 7970 c0 -14 2 -19 5 -12 2 6 2 18 0 25 -3 6 -5 1 -5 -13z"/>
<path d="M10088 7973 c-37 -44 -103 -151 -137 -226 -65 -140 -91 -229 -195
-677 -36 -151 -78 -307 -94 -346 -43 -104 -105 -195 -178 -263 -117 -110 -218
-143 -444 -144 -176 -1 -120 -17 70 -20 218 -3 325 35 450 162 132 134 195
286 275 671 115 555 140 638 250 818 27 44 29 54 3 25z"/>
<path d="M4011 7877 c-20 -63 -22 -83 -14 -109 l11 -33 1 31 c1 17 8 51 17 76
8 26 14 61 12 79 -3 28 -6 22 -27 -44z"/>
<path d="M3583 7883 c-46 -121 -6 -265 91 -330 75 -51 150 -42 181 22 16 35
19 97 6 130 -6 15 -9 7 -14 -31 -10 -68 -29 -94 -73 -94 -26 0 -45 9 -78 40
-63 58 -90 125 -90 227 -1 46 -2 83 -3 83 -1 0 -10 -21 -20 -47z"/>
<path d="M3973 7850 c0 -41 2 -58 4 -37 2 20 2 54 0 75 -2 20 -4 3 -4 -38z"/>
<path d="M9042 7890 c0 -19 2 -27 5 -17 2 9 2 25 0 35 -3 9 -5 1 -5 -18z"/>
<path d="M9032 7820 c0 -19 2 -27 5 -17 2 9 2 25 0 35 -3 9 -5 1 -5 -18z"/>
<path d="M4938 7804 c40 -28 126 -62 174 -69 60 -9 362 25 349 38 -7 7 -68 6
-173 -2 -176 -13 -233 -7 -315 29 -55 24 -65 25 -35 4z"/>
<path d="M8881 7769 c-1 -34 8 -63 35 -115 33 -63 35 -66 29 -29 -4 21 -15 56
-26 77 -11 21 -23 55 -28 75 l-9 38 -1 -46z"/>
<path d="M8991 7569 c-61 -390 -71 -462 -96 -696 -28 -259 -28 -265 -16 -243
5 8 14 71 20 140 19 204 49 438 92 723 22 147 39 273 37 279 -2 5 -19 -86 -37
-203z"/>
<path d="M3986 7330 c5 -454 18 -802 40 -1029 8 -89 13 -165 11 -167 -2 -3
-17 0 -33 7 -16 6 -60 11 -97 11 -123 -1 -216 -59 -412 -258 -140 -141 -184
-168 -293 -178 -66 -6 -142 -27 -142 -40 0 -2 15 0 33 5 17 5 70 7 117 3 84
-6 86 -5 160 32 62 31 101 63 223 183 81 80 171 161 200 179 62 38 145 58 207
48 l46 -7 13 -97 c19 -150 96 -520 141 -687 86 -312 206 -651 282 -797 232
-445 812 -887 1323 -1008 304 -73 686 -47 970 65 161 63 361 177 500 284 170
130 534 469 706 656 223 242 443 547 554 765 112 221 225 551 270 785 37 194
47 257 55 340 5 50 12 102 16 118 3 15 2 27 -3 27 -5 0 -15 -44 -22 -97 -43
-333 -135 -692 -243 -953 -190 -460 -547 -913 -1113 -1413 -205 -180 -225
-195 -193 -141 16 27 22 58 26 132 2 55 11 109 19 125 24 48 7 42 -22 -7 -23
-39 -27 -60 -30 -139 -5 -124 -21 -162 -92 -212 -148 -104 -355 -212 -496
-259 -78 -26 -213 -58 -296 -70 l-44 -7 32 36 c26 30 31 44 30 83 0 26 -9 72
-19 102 l-18 55 1 -112 c2 -110 2 -113 -26 -140 l-28 -28 -187 1 c-210 1 -301
16 -491 80 -269 90 -585 290 -825 523 -225 220 -325 374 -434 666 -188 505
-304 989 -357 1492 -21 203 -31 417 -55 1173 -8 228 -8 214 -4 -130z"/>
<path d="M4048 7639 c-10 -5 -20 -26 -23 -47 -3 -20 -8 -48 -11 -61 -5 -21 -3
-23 10 -12 9 7 18 29 21 50 4 20 10 46 15 59 11 25 11 25 -12 11z"/>
<path d="M8889 7573 c-11 -35 -9 -108 9 -243 l7 -55 7 47 c4 26 3 73 -3 105
-6 32 -9 86 -6 121 2 34 3 62 2 62 -2 0 -9 -16 -16 -37z"/>
<path d="M10826 7555 c12 -55 52 -129 125 -230 91 -127 111 -172 117 -261 9
-147 -36 -268 -187 -492 -44 -67 -94 -147 -110 -179 -61 -121 -94 -324 -72
-452 16 -100 54 -166 145 -256 126 -124 250 -188 492 -255 263 -72 366 -125
425 -218 58 -92 88 -243 90 -454 2 -106 3 -122 9 -78 5 30 8 127 8 215 1 185
-13 258 -68 349 -45 75 -95 116 -206 167 -187 88 -353 305 -418 544 -19 72
-21 106 -21 345 0 146 2 348 5 450 4 156 2 198 -14 265 -43 189 -57 217 -162
335 -50 56 -78 95 -143 200 l-22 35 7 -30z m299 -783 c-43 -366 -47 -428 -41
-567 7 -184 32 -288 100 -423 61 -121 112 -180 271 -308 l20 -16 -20 7 c-11 3
-76 22 -145 41 -334 94 -540 256 -578 454 -19 98 -25 183 -13 176 6 -4 11 -16
11 -26 0 -19 36 -110 43 -110 3 0 -1 17 -9 38 -20 56 -18 192 4 249 19 51 71
131 182 283 108 147 172 288 182 396 1 10 3 2 5 -19 3 -21 -3 -100 -12 -175z"/>
<path d="M4059 7434 c-16 -39 -23 -179 -11 -229 9 -35 10 -27 11 60 1 55 6
120 11 145 10 54 5 64 -11 24z"/>
<path d="M4091 7252 c-11 -81 -17 -98 -44 -129 -37 -42 -8 -32 33 12 20 21 25
39 28 93 6 111 -3 123 -17 24z"/>
<path d="M10792 7239 c-1 -58 3 -164 8 -234 14 -173 1 -291 -50 -442 -92 -271
-232 -425 -439 -487 -81 -24 -85 -22 -62 22 68 135 116 360 156 737 8 79 -8
20 -60 -215 -55 -247 -84 -347 -135 -455 -87 -190 -246 -366 -415 -459 -150
-83 -273 -111 -465 -104 l-135 4 90 -18 c120 -25 299 -19 400 12 204 64 397
215 508 397 29 47 36 52 67 53 19 0 63 7 98 15 199 47 359 210 448 455 63 176
69 307 24 576 -16 98 -31 195 -33 214 -2 19 -5 -13 -5 -71z"/>
<path d="M8821 7249 c0 -24 11 -84 24 -134 23 -87 23 -89 24 -42 1 42 -33 204
-45 216 -2 2 -4 -16 -3 -40z"/>
<path d="M6778 7110 c-33 -10 -101 -51 -95 -56 2 -2 21 3 43 12 68 28 193 7
241 -42 8 -7 21 -30 30 -51 12 -28 18 -33 21 -20 20 91 -133 191 -240 157z"/>
<path d="M4070 7068 c-13 -21 -20 -51 -20 -81 0 -27 -5 -57 -11 -69 -16 -31
-4 -32 16 -1 10 15 21 55 24 89 4 34 13 69 20 78 9 11 10 16 2 16 -6 0 -20
-15 -31 -32z"/>
<path d="M8796 7058 c-5 -30 -3 -87 5 -150 l14 -103 3 75 c1 41 -1 109 -6 150
l-8 75 -8 -47z"/>
<path d="M4132 6988 c-1 -9 -18 -48 -38 -86 -47 -90 -40 -110 9 -27 29 48 37
72 34 97 -2 18 -5 25 -5 16z"/>
<path d="M8751 6909 c-1 -37 9 -90 30 -157 30 -98 30 -102 16 -158 -12 -47
-12 -55 -1 -40 7 10 19 43 25 72 11 50 10 59 -20 148 -18 53 -36 117 -41 143
l-8 48 -1 -56z"/>
<path d="M7030 6800 c-36 -174 -84 -255 -185 -309 -24 -13 -30 -19 -15 -15
114 30 188 124 233 299 l21 82 52 -42 c29 -24 81 -58 116 -76 85 -45 184 -146
231 -235 35 -69 67 -179 87 -301 8 -51 9 -45 5 41 -3 54 -12 128 -21 165 -38
151 -144 296 -263 360 -72 38 -181 117 -181 131 0 5 -13 10 -28 10 -28 0 -29
-1 -52 -110z"/>
<path d="M4116 6821 c-23 -51 -26 -71 -26 -164 0 -58 -5 -118 -10 -133 -17
-43 -2 -41 16 2 12 27 18 73 20 149 1 67 8 127 18 155 22 64 13 60 -18 -9z"/>
<path d="M8721 6860 c-6 -36 2 -130 15 -185 7 -33 14 -82 15 -110 0 -37 3 -45
9 -30 14 33 11 100 -9 193 -11 48 -21 101 -24 117 -2 17 -5 23 -6 15z"/>
<path d="M5351 6843 c-97 -42 -188 -128 -236 -223 -45 -89 -62 -151 -86 -315
-23 -159 -50 -261 -85 -322 -31 -53 -23 -56 11 -5 42 64 75 160 106 312 16 80
37 168 46 195 43 135 127 247 223 299 l50 27 -6 -44 c-7 -49 12 -150 27 -142
4 3 8 38 8 78 -1 40 4 85 11 102 9 25 9 31 -6 42 -21 15 -20 15 -63 -4z"/>
<path d="M2306 6775 c-87 -31 -157 -136 -225 -340 -39 -116 -51 -143 -51 -113
0 24 -65 76 -111 88 -163 44 -311 -130 -419 -495 -23 -77 -43 -146 -46 -154
-4 -11 -8 -11 -22 2 -52 47 -180 64 -253 33 -124 -52 -188 -227 -354 -966 -83
-368 -107 -470 -155 -641 -73 -259 -134 -588 -165 -889 -20 -195 -31 -604 -19
-775 l8 -130 7 235 c15 507 88 1011 215 1475 68 248 106 411 179 770 108 524
170 760 217 831 63 93 223 119 307 48 l29 -24 -39 -153 c-64 -257 -73 -335
-89 -772 -9 -237 -18 -364 -35 -470 -11 -66 14 15 30 97 27 141 43 274 60 488
23 299 40 412 89 609 19 75 51 202 71 284 62 252 123 407 198 499 62 76 156
99 236 59 69 -36 70 -53 21 -284 -93 -435 -114 -579 -131 -877 -10 -196 3
-716 20 -785 4 -16 10 125 14 315 8 472 36 754 112 1100 18 85 41 193 50 240
46 234 116 463 170 555 38 65 89 105 133 105 45 0 109 -29 139 -61 53 -58 93
-211 93 -357 0 -73 -6 -107 -31 -183 -55 -167 -68 -249 -79 -484 -13 -284 -28
-466 -47 -585 -12 -71 -17 -171 -17 -398 -1 -338 8 -347 24 -22 7 147 18 259
35 355 37 204 52 343 64 585 16 312 37 432 107 613 87 227 186 276 305 150 64
-66 78 -110 81 -235 1 -93 15 -73 17 24 2 124 -40 219 -127 285 -34 26 -53 33
-89 33 -82 0 -137 -43 -207 -160 l-26 -45 6 66 c7 72 -8 208 -32 289 -35 119
-168 201 -268 165z"/>
<path d="M4161 6699 c0 -25 9 -81 20 -125 32 -120 32 -125 5 -178 l-24 -48 28
27 c44 42 47 86 11 212 -16 59 -32 119 -34 133 -2 14 -5 5 -6 -21z"/>
<path d="M8680 6640 c-8 -95 3 -200 32 -325 26 -112 29 -144 26 -233 -3 -56
-3 -100 -1 -98 2 2 11 28 19 57 22 85 17 180 -15 314 -26 106 -43 202 -55 300
-2 23 -4 20 -6 -15z"/>
<path d="M8635 6517 c-4 -81 -5 -150 -2 -153 10 -11 27 99 26 174 -2 145 -16
132 -24 -21z"/>
<path d="M10071 6643 c-2 -43 -43 -135 -94 -211 -132 -198 -395 -410 -611
-493 -227 -88 -389 -75 -518 40 -65 57 -61 37 5 -29 112 -112 240 -142 429
-100 116 25 212 68 333 148 175 116 334 289 409 445 38 78 60 162 53 199 -4
23 -4 23 -6 1z"/>
<path d="M5656 6585 c-15 -14 -26 -33 -24 -41 5 -25 97 -72 157 -80 40 -5 52
-4 47 5 -4 6 -23 11 -42 11 -55 0 -134 49 -134 83 0 2 22 4 49 6 80 3 110 -16
211 -138 102 -122 170 -175 245 -191 129 -28 216 25 338 206 69 102 146 150
226 141 l46 -5 -44 14 c-73 23 -165 -10 -222 -81 -59 -72 -124 -139 -168 -175
-37 -29 -54 -35 -106 -38 -97 -6 -132 16 -273 175 -80 90 -130 125 -174 123
-18 -1 -35 -1 -38 0 -35 13 -69 8 -94 -15z"/>
<path d="M5410 6591 c0 -15 38 -56 45 -49 8 8 -23 58 -36 58 -5 0 -9 -4 -9 -9z"/>
<path d="M5482 6504 c15 -15 30 -26 33 -23 2 3 -10 16 -28 29 l-32 23 27 -29z"/>
<path d="M8556 6437 c-11 -77 -2 -146 30 -243 29 -86 35 -196 15 -248 -17 -44
-5 -43 17 1 39 78 36 158 -14 318 -13 44 -28 114 -32 155 l-8 75 -8 -58z"/>
<path d="M10070 6303 c-28 -65 -61 -137 -72 -160 -65 -140 -176 -255 -305
-315 -206 -97 -383 -102 -630 -20 -133 45 -234 74 -239 69 -3 -2 28 -18 68
-35 40 -17 114 -48 163 -70 150 -65 203 -77 350 -77 117 0 138 3 210 29 184
65 285 147 379 308 25 43 140 377 132 385 -1 2 -27 -50 -56 -114z"/>
<path d="M4081 6367 c-9 -27 -8 -47 4 -93 8 -32 13 -71 9 -86 -9 -43 4 -33 16
12 8 31 7 53 -4 97 -9 32 -13 68 -10 81 10 35 -3 26 -15 -11z"/>
<path d="M9578 6322 c-169 -145 -413 -229 -678 -233 l-65 -1 50 -14 c81 -24
238 -29 324 -10 137 29 273 110 358 213 65 79 69 95 11 45z"/>
<path d="M4231 6292 c-1 -29 8 -78 19 -109 22 -64 25 -95 10 -124 -8 -13 -7
-19 0 -19 6 0 16 11 22 25 12 28 5 79 -31 210 l-20 70 0 -53z"/>
<path d="M8380 6234 c-52 -83 -53 -202 -2 -409 40 -158 55 -268 47 -324 -7
-52 -37 -125 -63 -156 -11 -13 -8 -12 11 4 15 14 40 50 55 80 24 50 27 67 26
156 0 81 -7 128 -36 245 -67 266 -70 316 -23 405 32 58 23 58 -15 -1z"/>
<path d="M4175 6106 c3 -77 6 -171 6 -210 1 -54 3 -64 9 -41 13 50 10 235 -5
315 l-14 75 4 -139z"/>
<path d="M8504 6205 c-9 -41 -10 -110 -3 -303 4 -109 5 -112 18 -80 17 39 19
172 4 323 -9 93 -10 97 -19 60z"/>
<path d="M6445 6204 c-156 -36 -222 -38 -393 -14 l-161 22 -105 -21 c-305 -61
-645 -222 -865 -409 -71 -61 -141 -156 -140 -191 0 -22 3 -21 15 14 19 53 85
133 158 189 32 26 59 46 61 46 1 0 -4 -24 -12 -52 -18 -68 -12 -147 27 -330
17 -78 30 -170 30 -204 0 -57 -3 -67 -32 -101 -28 -32 -29 -36 -8 -22 13 9 33
28 45 43 32 43 28 187 -10 346 -22 93 -29 150 -30 223 0 93 1 99 25 118 41 33
298 156 403 194 96 34 98 35 90 13 -9 -27 -8 -105 4 -233 7 -84 9 -88 20 -60
24 58 25 85 8 153 -9 38 -15 90 -13 118 l3 49 130 34 c145 37 228 43 348 24
128 -21 261 -17 379 12 57 14 118 25 135 25 47 0 51 -31 23 -147 -13 -51 -20
-96 -17 -99 3 -3 19 24 37 60 32 65 36 109 15 174 -7 20 -4 22 31 21 80 -3 98
-11 107 -52 8 -33 5 -47 -27 -111 -23 -46 -39 -94 -42 -127 l-5 -54 20 48 c10
26 33 70 51 96 39 62 47 106 26 154 l-15 38 52 -7 c92 -12 237 -51 257 -69 10
-9 24 -41 31 -70 11 -49 9 -60 -20 -155 -31 -103 -38 -163 -22 -188 5 -9 10 4
14 37 3 27 20 84 36 126 38 93 39 136 6 201 -29 58 -29 55 -10 48 8 -4 15 -4
15 -1 0 11 -189 68 -288 87 -121 24 -296 25 -387 4z"/>
<path d="M6446 6028 c-6 -106 -5 -131 9 -157 8 -17 17 -31 18 -31 1 0 2 30 3
67 0 38 3 91 7 118 6 39 4 59 -11 90 l-19 40 -7 -127z"/>
<path d="M6831 6083 c-7 -32 -28 -90 -47 -129 -39 -81 -39 -83 -20 -109 13
-19 14 -18 9 6 -3 17 7 47 31 91 27 49 38 82 43 132 3 36 4 66 1 66 -3 0 -11
-26 -17 -57z"/>
<path d="M6922 6109 c15 -45 5 -97 -32 -156 -35 -56 -52 -144 -31 -157 7 -5
11 3 11 21 0 16 20 62 45 103 51 86 58 134 25 188 -25 40 -32 41 -18 1z"/>
<path d="M5883 6076 c9 -39 7 -56 -16 -123 -38 -111 -35 -180 10 -197 15 -6
15 -4 -2 14 -23 26 -22 75 4 145 30 80 34 128 17 169 -20 49 -25 45 -13 -8z"/>
<path d="M5956 6091 c-9 -16 -16 -47 -16 -68 0 -21 -4 -54 -10 -72 -5 -19 -8
-37 -6 -39 10 -9 36 60 36 95 0 21 4 54 10 72 13 45 6 51 -14 12z"/>
<path d="M6275 6096 c-21 -32 -27 -69 -16 -98 8 -21 9 -20 15 17 4 22 11 55
15 73 11 38 7 40 -14 8z"/>
<path d="M5789 6085 c-1 -16 -3 -87 -3 -158 -1 -105 1 -124 12 -110 35 48 38
123 8 243 -12 46 -14 50 -17 25z"/>
<path d="M6023 6045 c-7 -27 -14 -95 -16 -150 l-5 -100 18 40 c26 54 32 106
22 190 l-8 70 -11 -50z"/>
<path d="M6190 6060 c-28 -28 -26 -87 5 -160 29 -69 31 -99 9 -141 -15 -30
-15 -30 5 -19 51 27 54 94 9 203 -31 76 -32 80 -16 108 20 34 16 37 -12 9z"/>
<path d="M7245 6068 c11 -6 49 -39 85 -73 36 -35 117 -95 180 -135 142 -88
153 -99 192 -177 27 -55 32 -78 36 -162 2 -54 -1 -128 -7 -166 -7 -37 -10 -69
-8 -72 10 -9 40 138 44 218 6 100 -12 177 -59 251 -31 49 -81 86 -230 167 -43
24 -99 62 -125 85 -27 24 -62 50 -80 60 -35 18 -60 22 -28 4z"/>
<path d="M6111 5990 c-1 -61 -7 -97 -21 -129 -22 -47 -26 -86 -10 -96 6 -3 7
1 4 9 -3 9 6 38 20 66 21 40 26 63 25 117 -2 107 -17 134 -18 33z"/>
<path d="M6328 6028 c-20 -38 -22 -56 -20 -156 2 -96 -1 -118 -18 -152 -11
-22 -26 -40 -33 -40 -6 0 -66 9 -132 20 -209 35 -270 27 -464 -57 -22 -10 -7
48 36 139 30 65 35 85 31 126 -3 27 -12 59 -21 72 -15 22 -16 20 -10 -34 5
-48 2 -65 -23 -118 -22 -47 -29 -80 -31 -131 l-1 -68 -94 -63 c-51 -34 -112
-73 -135 -86 -24 -13 -41 -25 -39 -27 4 -4 104 44 266 128 161 84 261 97 470
58 159 -29 246 -23 413 30 82 26 148 41 181 41 68 0 156 -24 220 -59 28 -15
82 -45 120 -66 72 -40 158 -65 216 -64 20 1 26 3 15 6 -119 26 -145 38 -251
109 -139 92 -182 112 -281 126 -73 10 -85 9 -178 -16 -280 -75 -297 -77 -263
-39 43 49 49 78 42 201 -5 83 -3 125 5 140 6 12 9 22 7 22 -3 0 -16 -19 -28
-42z"/>
<path d="M8135 6039 c-41 -21 -59 -59 -55 -119 2 -30 3 -82 3 -115 l0 -60 14
45 c9 31 12 66 7 113 -6 70 5 103 45 134 19 15 13 15 -14 2z"/>
<path d="M8227 6037 c-16 -42 -7 -105 24 -163 16 -33 37 -66 45 -74 14 -13 15
-12 8 15 -3 17 -17 58 -31 92 -13 34 -27 81 -31 105 -6 32 -10 38 -15 25z"/>
<path d="M4326 6017 c-10 -33 -1 -156 19 -274 16 -94 8 -169 -27 -238 -30 -59
2 -27 36 36 41 75 44 140 13 306 -15 76 -28 152 -30 168 l-3 30 -8 -28z"/>
<path d="M7010 6005 c0 -26 -11 -58 -30 -90 -29 -50 -38 -106 -21 -133 5 -9
10 3 13 35 3 29 14 62 27 80 26 35 38 103 22 129 -9 16 -10 13 -11 -21z"/>
<path d="M10465 5953 c-47 -73 -232 -257 -305 -305 -211 -138 -426 -204 -701
-215 -225 -9 -482 31 -674 106 -41 16 -75 27 -75 24 0 -8 184 -90 261 -116
278 -94 613 -100 873 -17 283 91 517 284 640 528 14 28 25 52 23 52 -2 0 -21
-26 -42 -57z"/>
<path d="M5431 5927 c-1 -46 6 -86 20 -125 43 -117 42 -170 -4 -219 -11 -13
-16 -23 -10 -23 6 0 23 14 37 31 22 25 26 41 26 89 0 36 -8 80 -20 110 -11 27
-26 85 -34 128 l-14 77 -1 -68z"/>
<path d="M4426 5928 c4 -29 11 -63 15 -76 15 -39 10 -62 -17 -87 -33 -30 -17
-33 20 -4 18 14 26 30 26 51 0 30 -38 168 -46 168 -3 0 -2 -24 2 -52z"/>
<path d="M7290 5979 c0 -2 7 -36 15 -74 16 -76 12 -119 -15 -177 -10 -21 -15
-38 -11 -38 10 0 46 40 60 67 18 36 13 124 -10 168 -20 38 -39 64 -39 54z"/>
<path d="M5351 5965 c-1 -5 -6 -75 -11 -155 -5 -80 -12 -158 -15 -175 l-6 -30
20 35 c29 53 44 144 36 216 -6 60 -22 131 -24 109z"/>
<path d="M3804 5871 c-150 -75 -238 -141 -317 -236 -115 -140 -157 -257 -203
-565 -28 -194 -56 -281 -114 -358 -29 -38 -34 -48 -17 -38 28 19 88 98 114
151 31 61 49 126 84 295 62 305 116 417 279 580 76 76 131 121 200 162 169
102 165 103 -26 9z"/>
<path d="M6611 5900 c-9 -31 -28 -60 -62 -93 l-49 -47 37 15 c20 8 42 20 49
26 20 16 46 93 42 120 -3 19 -7 15 -17 -21z"/>
<path d="M3012 5919 c-1 -9 -13 -166 -27 -350 -33 -439 -42 -547 -65 -774 -32
-303 -26 -526 21 -905 38 -304 41 -530 9 -614 -13 -36 -173 -199 -254 -259
-39 -29 -99 -70 -134 -91 -134 -81 -321 -298 -411 -480 -63 -127 -91 -231 -96
-366 l-5 -105 24 120 c33 169 87 293 184 430 111 157 227 269 464 451 76 58
162 132 193 165 l55 60 35 -21 c85 -53 204 -216 220 -303 12 -64 29 -57 21 9
-14 121 -93 233 -206 293 -33 18 -60 35 -60 38 0 3 16 31 35 62 64 106 115
231 149 361 l22 85 26 -55 c34 -75 67 -111 130 -143 29 -15 44 -22 34 -15
-101 67 -148 151 -154 273 -17 314 221 674 445 675 83 0 131 -55 148 -170 8
-57 -23 -180 -68 -272 -21 -43 -27 -62 -16 -52 27 25 98 173 115 243 31 125
-10 247 -97 292 -158 80 -402 -83 -511 -342 -47 -114 -61 -183 -60 -309 1
-102 -3 -125 -28 -202 -33 -97 -90 -215 -145 -298 -36 -54 -36 -54 -30 -20 24
142 27 191 22 370 -3 107 -11 251 -17 320 -19 196 -18 577 2 775 23 224 40
657 36 925 -2 118 -4 208 -6 199z"/>
<path d="M10556 5855 c9 -115 44 -217 102 -293 66 -87 246 -197 437 -266 155
-57 193 -76 249 -131 64 -61 107 -133 170 -285 63 -149 114 -236 177 -302 32
-33 41 -40 25 -18 -54 73 -101 167 -143 289 -60 173 -79 216 -128 291 -70 105
-131 146 -310 210 -378 135 -508 248 -566 493 l-19 82 6 -70z"/>
<path d="M5189 5858 c-17 -41 -23 -71 -23 -128 1 -68 5 -83 42 -157 45 -88 51
-123 27 -143 -9 -7 -13 -15 -10 -18 3 -3 14 3 25 13 30 27 26 87 -11 165 -25
52 -32 82 -36 150 -3 48 -1 102 6 124 15 57 7 55 -20 -6z"/>
<path d="M7181 5869 c-11 -24 -24 -84 -30 -134 -5 -49 -13 -99 -16 -110 -6
-18 -4 -17 14 3 11 13 25 40 30 60 11 40 30 214 25 221 -2 2 -12 -16 -23 -40z"/>
<path d="M8013 5873 c-30 -46 -23 -172 20 -338 61 -238 61 -330 1 -432 l-34
-58 39 42 c87 95 93 241 22 493 -51 181 -58 233 -38 283 19 44 15 48 -10 10z"/>
<path d="M5103 5855 c-36 -36 -36 -36 -30 -103 3 -37 11 -78 17 -92 8 -20 9
-9 5 52 -5 83 4 119 37 156 35 36 9 25 -29 -13z"/>
<path d="M7822 5845 c-28 -35 -35 -76 -22 -123 6 -22 11 -61 12 -86 2 -33 5
-41 11 -30 5 9 6 58 2 110 -6 80 -4 99 10 120 22 35 12 42 -13 9z"/>
<path d="M4520 5834 c-18 -47 -11 -104 26 -192 20 -48 38 -89 41 -92 11 -10
-7 79 -33 156 -15 47 -24 94 -22 117 4 44 1 46 -12 11z"/>
<path d="M7422 5827 c12 -38 14 -33 -59 -142 -39 -57 -40 -80 -12 -163 17 -51
19 -68 10 -95 -10 -30 -10 -31 5 -12 12 15 14 33 9 70 -19 158 -21 145 25 210
36 53 41 65 37 103 -3 24 -10 49 -15 54 -8 8 -8 0 0 -25z"/>
<path d="M7542 5762 c35 -42 42 -84 29 -170 -25 -158 -11 -216 72 -316 25 -30
47 -72 59 -110 l18 -61 -4 58 c-3 33 -13 72 -24 90 -11 18 -36 59 -56 92 l-37
60 3 145 c3 130 1 148 -17 179 -11 18 -31 41 -45 50 l-25 16 27 -33z"/>
<path d="M2175 5764 c-69 -25 -67 -36 5 -27 92 11 202 8 228 -6 12 -6 22 -7
22 -2 0 5 -19 19 -43 30 -52 25 -151 27 -212 5z"/>
<path d="M4229 5733 c-7 -21 -13 -69 -13 -108 0 -57 6 -82 32 -138 18 -37 35
-89 39 -114 5 -35 8 -42 14 -28 9 27 1 68 -28 138 -35 86 -46 156 -34 224 13
67 8 79 -10 26z"/>
<path d="M4640 5768 c0 -2 10 -28 22 -58 18 -45 22 -79 25 -189 2 -123 4 -137
24 -155 l21 -21 -17 27 c-15 24 -16 36 -5 96 14 83 2 169 -34 248 -14 30 -27
54 -30 54 -4 0 -6 -1 -6 -2z"/>
<path d="M7894 5685 c3 -49 15 -126 26 -170 22 -81 30 -196 18 -250 -6 -26 -4
-24 11 9 42 87 37 152 -29 391 l-31 110 5 -90z"/>
<path d="M8536 5719 c-24 -28 -26 -38 -26 -120 0 -58 4 -88 10 -84 6 3 10 41
10 83 0 58 5 87 20 115 24 45 20 47 -14 6z"/>
<path d="M7465 5698 c-21 -52 -21 -150 -1 -219 9 -29 16 -75 16 -103 0 -60 14
-91 23 -54 12 42 7 139 -9 202 -11 41 -15 87 -12 139 3 42 4 77 2 77 -1 0 -9
-19 -19 -42z"/>
<path d="M2645 5710 l-40 -19 100 1 c55 0 123 -2 150 -6 l50 -6 -50 25 c-62
31 -150 33 -210 5z"/>
<path d="M3977 5670 c-43 -40 -77 -84 -102 -131 -21 -39 -33 -70 -28 -68 11 4
154 174 192 228 35 49 7 36 -62 -29z"/>
<path d="M8188 5515 c14 -400 13 -412 -81 -571 -53 -89 -87 -163 -87 -187 0
-6 9 8 20 32 11 24 42 73 68 110 125 171 139 223 122 441 -6 85 -20 202 -30
260 l-18 105 6 -190z"/>
<path d="M4888 5675 c-18 -55 -18 -88 -2 -147 9 -35 24 -94 34 -133 l17 -70 7
52 c6 40 3 69 -15 130 -12 43 -25 103 -28 133 -5 37 -9 48 -13 35z"/>
<path d="M4455 5665 c3 -10 8 -53 11 -95 5 -75 0 -104 -41 -225 -57 -166 -58
-276 -4 -345 l19 -25 -15 37 c-8 21 -15 57 -15 80 0 62 27 193 50 245 35 79
43 158 26 241 -8 39 -20 80 -26 89 -11 16 -11 16 -5 -2z"/>
<path d="M8277 5603 c-29 -65 -35 -170 -12 -228 24 -63 35 -64 18 -2 -16 59
-11 156 11 230 18 60 11 60 -17 0z"/>
<path d="M1659 5625 c-56 -18 -84 -44 -41 -38 15 2 72 8 127 12 86 6 96 9 74
18 -46 20 -112 23 -160 8z"/>
<path d="M4812 5583 c-39 -56 -46 -103 -33 -226 13 -114 6 -167 -20 -167 -7 0
-10 -3 -7 -6 4 -3 15 -1 26 5 34 18 46 74 37 175 -10 122 -7 183 11 217 18 37
11 37 -14 2z"/>
<path d="M6745 5530 c-61 -13 -91 -26 -166 -75 -122 -79 -148 -89 -219 -89
-50 0 -89 9 -170 38 -159 57 -197 66 -291 66 -66 0 -117 -8 -210 -32 -96 -25
-145 -33 -216 -33 -104 0 -91 -13 22 -22 47 -3 108 2 189 16 165 29 255 28
348 -5 243 -88 264 -94 324 -94 81 0 131 19 235 90 153 103 199 113 414 82
100 -14 155 -17 192 -12 88 14 94 28 11 22 -58 -3 -99 1 -184 21 -126 30 -222
40 -279 27z"/>
<path d="M8734 5474 c135 -134 194 -308 183 -544 -9 -191 -68 -413 -242 -910
-38 -110 -203 -438 -365 -730 -765 -1372 -1210 -2368 -1335 -2986 -33 -162
-31 -185 5 -47 141 552 469 1246 1399 2961 131 242 278 530 298 587 6 17 26
68 43 115 96 257 200 645 231 859 14 103 7 294 -16 376 -20 74 -76 193 -111
234 -14 17 -24 31 -21 31 3 0 54 -34 114 -76 185 -130 366 -230 553 -305 105
-42 118 -54 206 -186 137 -205 221 -481 260 -843 13 -123 15 -217 11 -450 -8
-412 -30 -571 -112 -818 -56 -168 -138 -336 -306 -627 -217 -378 -266 -498
-274 -670 l-4 -90 11 65 c32 201 79 304 295 652 262 420 350 615 408 903 37
188 48 367 42 681 -6 293 -17 409 -61 603 -62 275 -172 510 -317 681 -21 24
-37 45 -36 47 2 1 32 -7 68 -18 35 -10 164 -44 286 -74 393 -97 493 -142 693
-314 225 -193 289 -233 510 -321 235 -93 415 -228 522 -392 17 -27 33 -48 35
-48 2 0 -8 21 -21 48 -58 114 -197 266 -317 347 -37 25 -132 76 -211 114 -191
93 -243 128 -400 271 -134 123 -239 204 -313 242 -100 52 -291 107 -580 168
-369 78 -682 207 -1045 429 l-135 83 49 -48z"/>
<path d="M7860 5437 c-36 -81 -43 -143 -37 -325 9 -276 -5 -326 -133 -497 -73
-99 -114 -166 -124 -205 -4 -14 4 -5 18 20 13 25 59 86 101 135 101 118 133
165 157 233 19 53 20 70 12 237 -12 261 -9 321 14 388 24 67 19 76 -8 14z"/>
<path d="M5125 5438 c-12 -37 -8 -111 10 -172 10 -36 15 -75 12 -99 -4 -26 -2
-36 3 -27 19 31 21 90 5 152 -9 35 -16 87 -16 116 0 56 -4 65 -14 30z"/>
<path d="M4526 5350 c-38 -120 -44 -250 -17 -364 28 -116 44 -266 38 -341 -8
-88 9 -36 22 71 12 91 4 215 -19 294 -20 67 -23 229 -7 325 9 49 14 91 12 93
-2 2 -15 -33 -29 -78z"/>
<path d="M7135 5416 c-84 -26 -185 -92 -284 -182 -211 -194 -333 -247 -518
-225 -152 19 -262 63 -476 195 -188 115 -287 157 -371 155 -37 0 -34 -2 32
-19 87 -23 146 -55 291 -159 197 -143 303 -196 443 -225 114 -24 229 -21 309
8 95 33 155 77 328 240 159 151 211 188 296 211 39 11 43 14 20 14 -16 0 -48
-6 -70 -13z"/>
<path d="M3752 5298 c-50 -114 -75 -178 -114 -288 -53 -150 -126 -275 -218
-374 l-45 -49 35 19 c19 10 71 55 115 99 97 96 138 170 188 335 36 118 89 341
83 347 -2 2 -22 -38 -44 -89z"/>
<path d="M9948 5288 c47 -69 96 -113 155 -141 115 -54 213 -59 457 -22 178 27
283 31 343 14 77 -21 60 -1 -21 25 -71 22 -101 26 -200 26 -64 0 -164 -7 -222
-15 -240 -33 -344 -8 -490 114 l-54 46 32 -47z"/>
<path d="M5370 5288 c58 -26 386 -236 433 -278 5 -4 -1 -26 -12 -48 -37 -72
-44 -129 -26 -213 19 -93 19 -150 0 -196 -20 -46 -19 -50 5 -28 33 30 43 80
35 174 -12 121 -10 241 3 272 l10 26 124 -61 c128 -64 244 -102 346 -112 56
-6 61 -9 76 -41 21 -44 20 -108 -4 -217 -35 -158 -21 -238 58 -318 41 -43 69
-52 30 -10 -73 78 -86 140 -58 280 26 135 26 187 -3 244 l-23 45 61 6 c139 13
233 67 400 227 66 63 146 132 178 153 51 34 165 82 174 74 2 -2 -4 -24 -12
-48 -9 -24 -20 -93 -25 -154 -6 -60 -14 -126 -20 -145 -12 -43 -12 -43 -1 -35
27 16 54 125 62 249 4 71 11 132 16 136 4 4 37 11 73 14 52 6 63 5 53 -5 -18
-18 -16 -57 7 -129 11 -34 20 -76 20 -93 0 -23 3 -28 11 -20 16 16 14 81 -5
148 -10 32 -15 72 -12 87 5 26 3 28 -27 28 -59 -1 -167 -20 -225 -40 -78 -28
-177 -97 -297 -209 -209 -197 -316 -232 -558 -187 -176 33 -310 96 -581 272
-162 106 -276 167 -331 179 -16 4 4 -9 45 -27z"/>
<path d="M785 5262 c-163 -67 -297 -165 -395 -288 -79 -99 -120 -175 -197
-362 -69 -169 -101 -231 -141 -274 -37 -40 -14 -34 30 8 60 56 81 89 173 264
134 256 196 344 325 468 48 47 176 138 280 201 50 30 28 25 -75 -17z"/>
<path d="M4081 5248 c-50 -68 -73 -116 -102 -208 -29 -94 -31 -228 -5 -443 14
-110 17 -189 13 -315 -5 -161 -7 -176 -66 -427 -74 -314 -96 -422 -112 -557
-19 -167 3 -348 52 -438 11 -19 17 -26 13 -15 -31 93 -38 139 -37 255 0 151
13 224 99 557 109 429 117 469 118 633 1 117 -6 190 -34 377 -32 221 -33 237
-21 320 13 96 56 209 102 273 16 22 27 40 24 40 -2 0 -22 -24 -44 -52z"/>
<path d="M5300 5255 c15 -29 16 -42 8 -68 -16 -48 -21 -133 -9 -154 10 -17 10
-16 11 4 0 13 11 53 25 90 28 73 27 107 -6 142 -33 35 -50 27 -29 -14z"/>
<path d="M4952 5255 c-35 -44 -35 -73 -3 -160 32 -86 41 -76 16 18 -19 74 -19
107 1 135 23 33 11 38 -14 7z"/>
<path d="M4655 5165 c2 -80 12 -144 34 -235 21 -83 36 -182 46 -295 8 -93 20
-192 26 -220 12 -54 53 -132 95 -180 l26 -30 -27 45 c-61 103 -68 136 -84 400
-9 138 -15 173 -56 315 -25 88 -50 194 -55 235 -8 72 -9 70 -5 -35z"/>
<path d="M5222 5235 c-16 -54 -15 -104 4 -181 13 -51 14 -75 6 -117 -6 -28 -9
-54 -7 -55 2 -2 11 11 20 28 23 45 30 129 14 176 -7 21 -15 73 -19 114 l-6 75
-12 -40z"/>
<path d="M7573 5223 c-27 -42 -22 -122 16 -238 33 -100 35 -133 16 -215 -6
-24 -6 -24 9 -5 45 55 44 139 -4 280 -31 92 -37 152 -20 186 16 29 3 23 -17
-8z"/>
<path d="M5403 5208 c-13 -27 -17 -62 -17 -185 l-1 -152 20 37 c17 32 20 56
20 184 0 82 -1 148 -2 148 -1 0 -10 -15 -20 -32z"/>
<path d="M8324 5228 c-4 -7 -8 -42 -8 -79 -1 -54 1 -65 12 -57 8 7 12 33 10
79 -2 38 -4 69 -5 69 -1 0 -5 -5 -9 -12z"/>
<path d="M7044 5145 c-27 -41 -28 -103 -4 -200 18 -70 20 -93 11 -114 -11 -24
-10 -25 4 -7 19 25 19 95 0 169 -19 72 -19 99 -1 142 18 41 13 45 -10 10z"/>
<path d="M7493 5138 c-34 -58 -44 -100 -54 -238 -12 -152 -27 -206 -99 -349
-26 -54 -53 -124 -59 -156 -16 -86 -13 -89 14 -10 13 39 49 113 79 165 79 132
96 194 96 341 0 121 12 203 36 252 20 38 10 34 -13 -5z"/>
<path d="M6920 5109 c-26 -34 -47 -75 -61 -122 -34 -120 -60 -190 -86 -237
l-25 -45 25 25 c44 43 94 137 112 213 20 80 57 172 82 199 9 11 11 18 5 18 -6
0 -30 -23 -52 -51z"/>
<path d="M7929 5128 c-33 -45 -30 -99 8 -163 16 -27 37 -68 46 -90 l18 -40 -6
40 c-4 22 -20 68 -37 103 -34 69 -38 111 -13 149 25 38 11 39 -16 1z"/>
<path d="M1074 5126 c-40 -18 -58 -42 -23 -31 13 5 70 8 127 8 56 1 102 4 102
7 0 12 -77 30 -126 30 -27 -1 -63 -7 -80 -14z"/>
<path d="M4877 5111 c-27 -46 -21 -107 24 -237 l40 -119 -4 70 c-3 39 -15 99
-27 134 -17 47 -21 78 -18 122 2 32 4 59 3 59 0 0 -8 -13 -18 -29z"/>
<path d="M5575 5096 c-42 -55 -47 -87 -33 -229 16 -166 31 -139 32 58 1 110 5
147 18 173 21 41 16 41 -17 -2z"/>
<path d="M9136 5085 c53 -153 67 -319 40 -471 -38 -220 -131 -466 -321 -849
-73 -148 -150 -312 -170 -363 -69 -179 -96 -348 -79 -488 l8 -69 7 120 c4 78
14 148 29 200 26 94 105 280 159 380 253 462 365 745 407 1027 26 179 3 367
-61 485 -14 26 -23 39 -19 28z"/>
<path d="M2626 5076 c-64 -24 -59 -31 22 -28 42 2 109 -1 147 -6 39 -5 72 -8
74 -6 2 2 -17 13 -44 25 -61 27 -148 34 -199 15z"/>
<path d="M9250 4999 c57 -108 90 -200 117 -321 15 -67 18 -127 18 -318 0 -212
-3 -251 -28 -395 -35 -199 -125 -554 -173 -683 -72 -193 -175 -405 -336 -689
-153 -272 -259 -526 -293 -704 -26 -141 -15 -149 20 -14 50 197 115 344 263
595 295 501 387 694 466 976 109 390 157 785 127 1043 -22 189 -81 372 -161
504 -60 99 -71 102 -20 6z"/>
<path d="M5670 5058 c0 -14 -9 -55 -20 -90 -21 -66 -27 -168 -10 -168 6 0 10
8 10 19 0 10 12 50 26 87 19 50 25 81 21 112 -6 51 -27 82 -27 40z"/>
<path d="M2115 5030 c-23 -4 -56 -15 -75 -22 -32 -13 -20 -15 143 -14 l179 1
-41 18 c-48 21 -149 30 -206 17z"/>
<path d="M7729 5014 c-12 -34 0 -214 13 -190 5 9 8 38 7 64 -1 26 -2 71 -3
100 0 28 -2 52 -4 52 -1 0 -7 -12 -13 -26z"/>
<path d="M7268 5020 c-45 -27 -80 -122 -108 -293 -20 -123 -39 -198 -60 -237
-23 -42 -1 -31 24 13 39 65 62 141 80 263 22 140 42 213 69 242 22 24 21 27
-5 12z"/>
<path d="M5091 4938 c25 -88 6 -172 -82 -357 -33 -69 -66 -147 -74 -175 -17
-57 -19 -155 -5 -208 11 -38 69 -130 116 -183 l26 -30 -27 38 c-14 21 -41 68
-58 105 -27 59 -31 78 -31 157 -1 89 0 91 57 213 77 165 107 257 107 329 0 61
-15 128 -30 138 -5 3 -5 -8 1 -27z"/>
<path d="M1539 4936 c-41 -14 -112 -56 -106 -62 2 -2 24 3 48 12 27 10 93 19
169 23 l125 6 -49 18 c-58 20 -136 21 -187 3z"/>
<path d="M6732 4918 c-31 -51 -42 -105 -42 -210 0 -53 -4 -108 -10 -122 -13
-34 -4 -33 13 2 9 16 17 74 20 142 3 80 11 131 25 168 11 28 19 52 17 52 -2 0
-12 -15 -23 -32z"/>
<path d="M5454 4913 c-31 -46 -26 -180 10 -263 35 -82 43 -160 23 -220 l-16
-45 24 29 c47 58 45 146 -7 275 -34 82 -42 177 -18 220 17 33 6 36 -16 4z"/>
<path d="M6931 4858 c-72 -117 -95 -195 -89 -311 5 -84 9 -102 56 -208 101
-228 101 -295 -2 -419 -11 -14 -4 -9 17 10 21 19 50 54 64 78 23 39 25 51 21
120 -4 64 -14 101 -61 220 -88 218 -87 299 3 490 27 56 47 102 45 102 -2 0
-26 -37 -54 -82z"/>
<path d="M5920 4888 c0 -18 -1 -72 -3 -120 -2 -85 -2 -87 16 -65 27 35 31 64
17 138 -13 74 -30 101 -30 47z"/>
<path d="M4989 4873 c-6 -20 -13 -64 -14 -97 -2 -34 -3 -69 -4 -79 -1 -10 -14
-32 -30 -48 -19 -19 -24 -29 -15 -29 23 0 63 49 68 84 6 35 14 206 10 206 -1
0 -8 -17 -15 -37z"/>
<path d="M7307 4872 c-25 -27 -21 -68 12 -115 15 -23 31 -49 34 -57 3 -9 6 -5
6 10 1 14 -10 43 -24 65 -29 47 -31 72 -8 97 9 10 12 18 6 18 -5 0 -17 -8 -26
-18z"/>
<path d="M10718 4854 c25 -47 122 -121 223 -171 96 -48 157 -72 459 -178 176
-62 247 -101 327 -180 59 -59 74 -80 88 -128 19 -65 10 -161 -24 -259 -23 -67
-20 -75 8 -20 82 162 79 320 -10 427 -91 110 -235 184 -529 274 -312 95 -425
143 -507 215 -28 25 -42 32 -35 20z"/>
<path d="M5291 4795 c-1 -65 9 -117 59 -300 41 -154 41 -216 1 -366 -17 -64
-30 -136 -30 -160 l1 -44 8 47 c5 26 25 91 46 145 36 92 39 105 38 203 0 99
-3 114 -49 250 -27 80 -54 177 -61 215 l-12 70 -1 -60z"/>
<path d="M4644 4749 c4 -52 9 -119 12 -150 4 -39 1 -68 -10 -95 l-16 -39 25
28 c45 50 51 94 26 199 -11 51 -21 103 -21 115 0 12 -5 25 -11 29 -8 5 -10
-19 -5 -87z"/>
<path d="M6026 4776 c-46 -48 -57 -95 -49 -211 8 -119 20 -101 33 49 6 74 15
111 34 147 14 27 22 49 19 49 -3 0 -20 -15 -37 -34z"/>
<path d="M6140 4795 c0 -9 -13 -41 -29 -73 -29 -59 -51 -136 -33 -117 5 6 26
34 46 64 28 41 36 63 36 97 0 24 -4 44 -10 44 -5 0 -10 -7 -10 -15z"/>
<path d="M6571 4775 c-53 -61 -64 -97 -71 -250 -4 -77 -6 -142 -4 -143 10 -13
26 53 34 140 14 138 26 188 61 242 34 55 24 60 -20 11z"/>
<path d="M7886 4759 c-14 -17 -27 -40 -27 -52 -3 -47 -4 -217 -1 -217 14 0 32
83 32 150 0 48 6 95 14 115 18 43 15 44 -18 4z"/>
<path d="M6215 4743 c-15 -80 -40 -173 -56 -211 -27 -63 -37 -143 -27 -209 14
-90 23 -88 24 5 1 72 7 103 33 177 24 65 34 114 38 178 6 84 -1 116 -12 60z"/>
<path d="M6293 4731 c11 -39 7 -50 -64 -180 -19 -36 -29 -69 -29 -95 l1 -41
18 45 c9 25 34 70 54 100 48 70 62 120 47 165 -16 49 -40 55 -27 6z"/>
<path d="M10350 4752 c0 -7 12 -39 27 -70 42 -88 213 -252 428 -412 305 -226
320 -238 427 -348 139 -143 273 -324 345 -465 13 -27 27 -47 29 -44 8 8 -100
231 -153 317 -60 96 -121 176 -196 257 -101 108 -183 171 -541 418 -119 82
-263 202 -298 247 -14 18 -35 51 -47 73 -11 22 -21 34 -21 27z"/>
<path d="M10182 4703 c-41 -138 -40 -342 3 -538 84 -388 148 -552 345 -890
120 -204 184 -336 227 -463 81 -241 52 -494 -102 -877 -78 -195 -127 -294
-238 -486 -126 -219 -190 -347 -221 -443 -26 -78 -53 -252 -43 -278 2 -7 8 14
12 47 21 173 60 273 192 492 52 87 122 202 154 255 75 125 134 243 199 399
199 476 208 732 36 1094 -23 50 -97 180 -163 290 -211 351 -278 511 -373 896
-40 159 -50 345 -26 458 17 81 16 104 -2 44z"/>
<path d="M1040 4721 c-36 -11 -93 -42 -87 -47 2 -3 26 0 52 6 64 14 203 15
238 1 45 -17 22 8 -27 30 -42 19 -129 24 -176 10z"/>
<path d="M7008 4713 c-37 -42 -58 -98 -58 -156 0 -90 16 -118 128 -220 59 -55
52 -33 -14 38 -30 33 -61 71 -69 85 -35 66 -30 165 11 226 27 39 28 56 2 27z"/>
<path d="M5871 4683 c-6 -21 -11 -63 -11 -94 0 -42 -7 -69 -27 -105 -50 -93
-93 -179 -93 -188 0 -10 19 14 94 118 l57 79 -2 113 c0 63 -3 114 -5 114 -1 0
-8 -17 -13 -37z"/>
<path d="M4226 4422 c-146 -567 -161 -658 -161 -952 1 -331 15 -387 224 -920
138 -348 175 -453 215 -596 79 -282 75 -558 -10 -725 -14 -28 -23 -53 -20 -56
2 -3 18 21 34 53 100 198 114 447 42 741 -43 178 -88 312 -226 670 -68 177
-135 365 -148 417 -72 276 -74 607 -7 966 11 58 45 228 76 379 31 151 54 278
53 282 -2 5 -34 -112 -72 -259z"/>
<path d="M7526 4607 c-36 -61 -51 -110 -65 -207 -7 -47 -19 -110 -26 -140 -8
-30 -12 -56 -10 -59 3 -2 16 20 30 50 24 53 29 73 60 238 9 47 22 102 29 123
8 21 12 38 10 38 -2 0 -14 -19 -28 -43z"/>
<path d="M7232 4598 c-17 -18 -39 -51 -48 -73 -22 -52 -22 -170 1 -250 9 -33
19 -101 22 -151 5 -74 2 -96 -12 -125 -15 -29 -16 -32 -2 -21 9 8 24 34 33 58
20 53 15 197 -11 278 -32 104 -12 230 47 294 12 12 17 22 12 22 -6 0 -24 -15
-42 -32z"/>
<path d="M5202 4559 c-19 -101 -15 -193 13 -298 30 -115 31 -155 5 -201 l-21
-35 30 33 c46 53 49 125 10 266 -7 23 -14 100 -18 171 l-6 130 -13 -66z"/>
<path d="M5114 4573 c-9 -21 -19 -64 -22 -96 -4 -49 1 -74 33 -164 31 -88 35
-109 26 -130 -15 -33 -13 -42 4 -19 21 28 19 72 -11 162 -33 103 -40 176 -21
237 18 56 14 61 -9 10z"/>
<path d="M5621 4522 c-10 -20 -29 -71 -42 -112 -42 -137 -33 -214 74 -695 3
-11 5 -2 6 20 1 52 -23 232 -50 370 -27 139 -22 263 14 378 14 42 23 77 21 77
-2 0 -12 -17 -23 -38z"/>
<path d="M6742 4508 c-48 -53 -53 -177 -12 -367 11 -52 20 -122 20 -156 0 -66
-28 -192 -55 -247 l-16 -33 20 25 c30 37 69 140 81 214 11 71 5 128 -30 286
-28 129 -29 218 -2 265 25 41 23 44 -6 13z"/>
<path d="M7694 4494 c-10 -14 -21 -48 -25 -76 -5 -30 -17 -61 -30 -74 -13 -13
-18 -24 -12 -24 22 0 63 61 63 93 1 18 7 49 14 70 16 43 13 47 -10 11z"/>
<path d="M6591 4461 c-25 -46 -30 -104 -15 -180 8 -42 13 -96 10 -121 l-5 -45
17 35 c12 25 16 54 13 105 -1 39 -3 105 -4 148 -1 42 -3 77 -4 77 -1 0 -7 -8
-12 -19z"/>
<path d="M6009 4403 c-31 -49 -37 -138 -14 -183 9 -18 37 -58 63 -89 75 -93
91 -142 67 -216 -4 -14 -2 -13 9 5 20 32 20 91 1 136 -8 20 -37 64 -65 98 -27
35 -54 75 -60 90 -16 42 -12 107 10 154 23 52 19 54 -11 5z"/>
<path d="M7500 4317 c-11 -24 -22 -70 -26 -103 -8 -70 -25 -108 -60 -130 -35
-24 -22 -29 21 -8 51 24 75 66 76 134 0 30 4 76 8 103 4 26 6 47 4 47 -2 0
-13 -19 -23 -43z"/>
<path d="M5842 4325 c-47 -59 -34 -163 47 -393 67 -191 78 -246 57 -298 l-16
-39 19 25 c46 58 37 127 -50 396 -66 205 -73 263 -38 308 11 14 16 26 10 26
-5 0 -19 -11 -29 -25z"/>
<path d="M6270 4327 c0 -33 29 -94 76 -158 37 -50 52 -84 64 -144 l8 -40 1 50
c1 58 -23 116 -69 168 -18 21 -43 63 -56 95 -19 46 -24 52 -24 29z"/>
<path d="M1515 4333 c-16 -2 -102 -20 -189 -39 -107 -23 -190 -35 -250 -36
-79 -2 -86 -3 -51 -11 54 -12 171 -2 345 30 176 32 363 36 478 10 92 -21 214
-22 328 -1 104 18 317 20 452 4 52 -7 96 -10 98 -7 3 2 -46 13 -108 23 -123
21 -308 24 -548 10 -110 -7 -150 -6 -214 8 -73 15 -261 20 -341 9z"/>
<path d="M3705 4240 c-52 -103 -57 -152 -49 -519 7 -376 -2 -554 -42 -821 -51
-335 -143 -674 -254 -935 -96 -226 -235 -475 -338 -605 -30 -37 -31 -41 -8
-20 36 32 140 166 198 255 242 373 389 785 473 1325 28 177 31 626 7 895 -20
222 -19 275 8 375 7 25 18 57 26 73 8 15 12 27 9 27 -2 0 -16 -22 -30 -50z"/>
<path d="M7083 4140 c-6 -41 -28 -135 -48 -209 -19 -74 -34 -136 -32 -138 7
-7 64 131 81 197 11 43 16 92 14 145 l-3 80 -12 -75z"/>
<path d="M6259 4159 c-19 -19 -21 -30 -16 -93 2 -42 18 -112 38 -171 43 -131
47 -235 10 -287 l-24 -33 31 29 c67 63 68 163 3 350 -44 129 -50 179 -24 208
23 25 8 23 -18 -3z"/>
<path d="M4617 4101 c-137 -206 -201 -410 -202 -646 0 -154 8 -185 100 -390
35 -77 68 -158 74 -180 15 -57 14 -140 -4 -182 -13 -32 -13 -34 0 -23 8 7 22
38 31 68 23 76 14 155 -31 278 -106 286 -100 261 -100 449 0 130 4 189 19 250
30 130 65 233 116 343 27 56 47 102 46 102 -2 0 -24 -31 -49 -69z"/>
<path d="M10884 4125 c-26 -40 -44 -114 -44 -185 0 -142 64 -295 247 -590 168
-272 230 -402 287 -614 102 -369 87 -721 -40 -980 -19 -38 -33 -71 -31 -72 6
-7 78 128 107 200 66 168 75 221 75 451 -1 180 -4 225 -24 315 -63 292 -144
466 -390 833 -157 234 -218 386 -209 517 3 39 14 82 27 108 23 46 21 56 -5 17z"/>
<path d="M5700 4101 c-24 -46 -10 -87 67 -201 36 -52 44 -71 41 -98 -4 -31 -3
-32 9 -16 24 33 -4 106 -68 181 -30 34 -44 87 -37 128 6 30 2 32 -12 6z"/>
<path d="M6567 4043 c-14 -27 -33 -88 -42 -138 -10 -49 -25 -111 -35 -137 -10
-27 -15 -48 -12 -48 14 0 61 87 72 130 15 62 48 234 45 238 -1 1 -13 -19 -28
-45z"/>
<path d="M5459 4028 c-36 -69 -33 -145 12 -238 20 -41 46 -86 57 -100 17 -20
14 -5 -18 88 -42 118 -51 201 -30 258 17 44 3 39 -21 -8z"/>
<path d="M5141 4047 c-2 -27 36 -89 79 -127 31 -28 57 -62 65 -85 l14 -40 1
44 c0 41 -4 48 -67 110 -38 36 -73 75 -80 86 -6 11 -12 16 -12 12z"/>
<path d="M6051 4032 c-23 -44 -35 -151 -23 -216 14 -76 15 -179 3 -224 -13
-42 -4 -41 14 2 33 80 37 126 19 244 -12 85 -14 124 -7 162 11 54 9 61 -6 32z"/>
<path d="M1954 3976 c-60 -27 -81 -93 -50 -155 29 -56 115 -69 158 -23 44 47
42 131 -4 169 -24 20 -70 24 -104 9z"/>
<path d="M6918 3893 c-24 -28 -37 -58 -49 -112 -6 -28 -21 -66 -35 -86 -18
-28 -20 -33 -6 -26 39 21 61 58 78 131 9 41 21 83 26 93 5 9 7 17 5 17 -2 0
-11 -8 -19 -17z"/>
<path d="M4917 3787 c-71 -302 -91 -504 -84 -850 10 -484 54 -765 243 -1521
65 -263 122 -516 134 -595 32 -220 26 -524 -15 -681 -22 -83 -10 -72 18 17 50
158 62 260 61 503 0 267 -12 347 -125 836 -153 668 -218 1052 -250 1480 -18
245 1 629 42 858 18 98 4 72 -24 -47z"/>
<path d="M6602 3823 c-6 -10 -17 -43 -26 -75 -17 -58 -30 -74 -75 -96 -25 -12
-25 -12 9 -7 52 8 77 40 93 120 16 73 15 89 -1 58z"/>
<path d="M5696 3778 c8 -42 34 -85 75 -123 17 -16 40 -43 50 -60 14 -22 19
-25 19 -12 0 29 -30 78 -81 135 -27 30 -49 60 -49 67 0 8 -4 17 -10 20 -6 4
-7 -6 -4 -27z"/>
<path d="M1770 3789 c0 -6 24 -34 53 -64 61 -61 99 -75 198 -75 81 0 162 37
196 89 33 49 30 72 -4 39 -44 -41 -93 -61 -163 -66 -89 -6 -170 12 -230 53
-28 19 -50 29 -50 24z"/>
<path d="M6171 3798 c-1 -4 4 -40 9 -81 11 -75 9 -86 -25 -172 -7 -18 -5 -17
18 4 52 47 58 121 18 212 -11 24 -20 41 -20 37z"/>
<path d="M1555 3728 c-40 -14 -92 -54 -106 -81 -9 -16 0 -11 29 15 75 68 177
73 255 14 95 -72 99 -149 11 -234 -69 -67 -68 -92 4 -92 100 0 149 -70 140
-198 -9 -124 -81 -216 -177 -229 -72 -10 -132 30 -267 173 -138 148 -180 174
-277 174 -52 0 -71 -5 -108 -28 -56 -36 -73 -57 -98 -112 -43 -98 -32 -220 27
-304 69 -100 219 -116 310 -32 27 24 52 68 51 88 0 7 -6 1 -12 -14 -41 -91
-158 -133 -245 -89 -73 37 -111 110 -112 212 0 121 71 215 173 226 59 7 107
-19 182 -98 206 -219 265 -262 359 -262 142 1 244 114 254 284 8 130 -47 235
-133 255 l-36 9 26 35 c76 103 43 218 -80 276 -54 25 -118 30 -170 12z"/>
<path d="M1960 3583 c-52 -27 -82 -85 -77 -151 2 -29 9 -58 15 -64 9 -9 9 -4
3 20 -6 20 -6 45 1 69 25 91 119 124 180 63 37 -37 35 -68 -12 -167 -89 -191
-36 -358 113 -357 87 0 176 61 197 135 17 60 10 66 -16 12 -21 -43 -34 -56
-76 -77 -118 -59 -198 -15 -198 108 0 42 10 80 40 155 44 109 48 137 25 185
-34 72 -126 104 -195 69z"/>
<path d="M1605 2604 c49 -100 65 -173 72 -319 5 -128 -13 -317 -37 -380 -5
-14 -6 -25 -1 -25 5 0 23 44 42 98 29 87 33 111 37 238 2 87 0 162 -8 198 -14
68 -79 202 -114 235 -24 22 -23 20 9 -45z"/>
<path d="M511 2135 c-2 -223 40 -419 124 -591 142 -288 432 -481 693 -461 95
7 164 42 222 112 44 54 85 132 95 180 4 19 -5 8 -25 -32 -41 -84 -133 -175
-195 -197 -112 -37 -267 -6 -423 85 -31 19 -104 81 -162 139 -87 87 -113 121
-152 195 -83 159 -131 329 -163 579 l-13 101 -1 -110z"/>
<path d="M1779 1466 c-37 -166 113 -321 376 -392 53 -14 106 -19 215 -19 160
0 225 13 337 65 l62 29 -80 -91 c-95 -108 -161 -207 -233 -348 -100 -197 -154
-371 -175 -568 -14 -132 -13 -164 4 -82 67 338 270 758 517 1073 38 49 68 91
65 93 -2 2 -37 -11 -78 -31 -210 -100 -457 -112 -699 -34 -197 64 -314 188
-296 315 8 61 0 55 -15 -10z"/>
<path d="M767 1240 c-24 -86 -53 -140 -180 -335 -131 -201 -184 -302 -231
-445 -34 -104 -69 -270 -57 -270 3 0 19 37 35 83 53 152 123 294 246 502 132
224 182 332 200 437 16 90 8 106 -13 28z"/>
</g>
</svg>
