<?xml version="1.0" standalone="no"?>
<!DOCTYPE svg PUBLIC "-//W3C//DTD SVG 20010904//EN"
 "http://www.w3.org/TR/2001/REC-SVG-20010904/DTD/svg10.dtd">
<svg version="1.0" xmlns="http://www.w3.org/2000/svg"
 width="1259.000000pt" height="1600.000000pt" viewBox="0 0 1259.000000 1600.000000"
 preserveAspectRatio="xMidYMid meet">

<g transform="translate(0.000000,1600.000000) scale(0.100000,-0.100000)"
fill="#000000" stroke="none">
<path d="M7886 13411 c-3 -5 8 -11 24 -15 23 -4 30 -11 30 -28 0 -33 14 -50
41 -52 22 -1 24 -5 24 -51 0 -46 -2 -50 -25 -50 -18 0 -25 5 -25 20 0 28 -13
45 -34 45 -10 0 -26 10 -35 23 -16 21 -16 21 -10 -18 4 -22 10 -41 14 -43 4
-1 16 -9 26 -17 18 -15 18 -15 1 -29 -23 -18 -47 -10 -47 14 0 12 -9 20 -22
22 -18 2 -24 12 -29 38 -8 52 -21 15 -17 -51 l3 -54 42 -6 c24 -3 46 -9 50
-13 16 -16 -16 -41 -58 -47 -108 -13 -199 -114 -171 -189 l9 -24 168 2 c108 1
173 -2 181 -9 7 -6 18 -8 24 -4 15 9 12 -11 -4 -24 -10 -8 -16 -8 -25 2 -8 11
-46 14 -157 15 -122 0 -152 -3 -187 -18 -23 -11 -43 -15 -45 -10 -6 16 -38 11
-64 -9 -13 -11 -30 -38 -37 -60 -10 -34 -20 -45 -59 -65 -26 -13 -69 -47 -97
-75 -27 -28 -55 -51 -63 -51 -10 0 -9 -8 7 -33 11 -18 23 -57 27 -87 4 -39 17
-70 42 -108 43 -64 55 -149 28 -203 -9 -18 -16 -45 -16 -61 0 -28 -13 -37 -26
-17 -3 6 -6 58 -5 115 2 101 1 105 -29 149 -26 37 -32 59 -37 118 -4 56 -12
83 -36 122 -57 95 -89 118 -179 130 -25 3 -51 11 -56 18 -5 7 -12 51 -14 98
-3 58 -10 95 -21 112 -9 14 -21 54 -27 89 -22 133 -28 149 -94 238 -65 88 -84
102 -128 95 -30 -5 -39 -3 -44 9 -10 25 -55 45 -80 35 -27 -9 -40 -29 -21 -29
8 0 20 -6 27 -14 6 -8 23 -16 37 -18 35 -4 52 -32 36 -57 -10 -16 -9 -22 3
-32 13 -11 13 -14 0 -27 -20 -20 -45 -1 -39 31 3 17 -2 26 -20 36 -26 14 -72
12 -72 -4 0 -19 -16 -35 -35 -35 -30 0 -33 18 -8 42 13 13 25 35 26 51 5 73
-103 1 -323 -218 -65 -65 -75 -82 -142 -228 -42 -92 -69 -165 -66 -174 4 -10
2 -14 -4 -10 -13 8 -26 -16 -31 -59 -2 -13 -135 -125 -172 -144 l-24 -13 18
28 c13 20 15 30 8 33 -7 2 -12 14 -12 26 0 13 -9 49 -20 81 -28 80 -28 252 -1
348 18 62 18 68 3 83 -13 14 -30 15 -104 9 -103 -8 -143 -18 -170 -42 -20 -18
-20 -18 8 -23 17 -3 33 -14 39 -28 5 -12 15 -22 22 -22 20 0 15 -25 -7 -45
-21 -19 -22 -18 -58 23 -34 38 -38 40 -49 24 -6 -10 -30 -24 -54 -31 -83 -23
-120 -43 -114 -61 3 -10 -2 -23 -10 -30 -39 -32 -74 -137 -49 -147 8 -3 20 -1
27 4 23 18 108 45 122 39 26 -9 16 -33 -17 -46 -18 -6 -58 -22 -88 -35 -30
-13 -64 -27 -75 -30 -38 -10 -94 -99 -121 -192 -2 -7 -18 -19 -36 -26 -18 -8
-58 -38 -88 -67 -32 -30 -87 -68 -130 -89 -90 -43 -104 -66 -118 -192 -7 -68
-15 -97 -38 -134 -89 -144 -88 -135 -39 -249 19 -45 41 -102 49 -128 22 -76
63 -135 121 -178 66 -48 81 -71 90 -130 10 -63 35 -153 47 -165 7 -7 8 -3 5
10 -10 35 -27 138 -27 162 0 16 7 24 28 29 48 12 100 43 107 64 5 15 12 19 26
15 14 -5 22 0 30 22 8 23 6 34 -12 68 -38 68 -69 103 -101 114 -39 14 -128 14
-162 1 l-26 -10 0 102 c0 186 30 287 103 342 48 36 150 66 230 66 61 0 72 -3
118 -35 28 -19 56 -35 61 -35 5 0 41 -25 80 -55 40 -32 80 -55 94 -55 17 0 24
-6 24 -20 0 -11 6 -20 13 -20 22 0 -15 -20 -61 -32 -54 -14 -178 -93 -216
-138 -22 -27 -27 -41 -23 -66 3 -17 1 -36 -4 -41 -5 -5 -12 -29 -15 -55 -6
-42 -5 -46 17 -51 13 -3 65 -4 115 -2 115 5 191 32 255 92 28 26 53 42 60 38
14 -9 5 -91 -14 -113 -15 -18 -13 -155 2 -225 6 -26 14 -64 17 -85 3 -20 14
-53 24 -72 42 -80 54 -186 25 -224 -8 -11 -15 -26 -15 -35 0 -27 -60 -107
-104 -139 -41 -30 -67 -72 -44 -72 6 0 45 17 87 37 61 29 88 37 138 37 36 1
67 -4 74 -11 9 -9 20 -6 46 14 50 38 88 35 130 -10 42 -46 43 -80 3 -138 -16
-24 -39 -73 -51 -109 -21 -63 -96 -200 -109 -200 -3 0 -6 -30 -6 -67 1 -38 -3
-77 -8 -88 -5 -11 -10 -27 -10 -35 -1 -9 -10 -15 -23 -14 -20 0 -23 -4 -23
-37 0 -29 -7 -45 -27 -64 -35 -31 -41 -31 -53 0 -11 30 -10 30 -53 5 l-34 -20
-34 23 c-34 23 -42 50 -24 90 5 13 2 17 -11 17 -21 1 -64 61 -64 90 0 17 -3
18 -32 7 -29 -10 -30 -12 -10 -15 48 -7 31 -19 -108 -77 -117 -49 -118 -68 -2
-64 l87 4 -3 -28 c-4 -30 41 -117 60 -117 10 0 10 -8 -8 -152 -8 -56 12 -94
52 -104 l25 -7 -29 -31 c-36 -38 -45 -63 -29 -76 45 -38 91 -70 101 -70 6 0
24 14 40 30 28 30 29 31 43 10 11 -16 25 -20 69 -20 48 0 60 4 85 29 33 33 35
47 15 96 -8 18 -12 36 -8 39 14 15 30 3 36 -26 4 -18 9 -46 13 -63 3 -16 12
-38 20 -47 9 -10 13 -24 9 -33 -3 -9 -1 -26 6 -38 7 -12 11 -32 9 -44 -1 -11
3 -24 9 -28 6 -4 8 -20 4 -41 -4 -22 -2 -40 7 -50 8 -9 12 -28 11 -41 -2 -13
2 -30 8 -38 6 -8 9 -24 5 -35 -4 -14 -1 -28 10 -40 11 -12 14 -26 10 -40 -4
-13 0 -30 9 -45 9 -13 13 -31 10 -39 -3 -8 4 -24 15 -35 12 -12 21 -30 21 -40
0 -20 25 -51 41 -51 5 0 9 -11 9 -25 0 -17 8 -29 25 -37 14 -6 25 -19 25 -28
0 -24 21 -40 52 -40 17 0 28 -5 28 -13 0 -18 45 -41 60 -32 7 4 18 -2 27 -15
13 -18 22 -21 48 -17 46 8 49 -1 15 -40 -36 -41 -39 -79 -8 -119 13 -16 21
-38 19 -52 -3 -28 24 -62 50 -62 29 0 52 30 45 60 -4 21 1 33 20 50 34 33 33
92 -2 127 -29 29 -20 42 26 35 18 -2 27 -9 24 -17 -7 -18 101 -98 190 -140 41
-20 78 -40 82 -46 4 -6 19 5 38 27 26 32 32 49 37 109 3 38 10 80 14 93 6 18
4 22 -13 22 -11 0 -23 -7 -26 -16 -8 -20 -74 -12 -150 18 -53 20 -90 46 -49
34 29 -9 63 9 63 34 0 11 12 25 27 32 15 7 29 22 32 33 2 11 12 26 22 33 11 8
19 25 19 41 0 16 7 31 15 35 10 4 15 19 15 49 0 27 6 49 14 56 8 7 15 20 15
29 0 85 10 273 15 281 4 6 16 11 27 11 29 0 23 25 -15 68 -27 29 -32 41 -25
55 13 22 25 22 56 -3 14 -11 29 -17 34 -15 4 3 22 -3 40 -14 17 -11 38 -17 45
-15 50 15 48 13 27 37 -27 29 -32 48 -22 75 7 18 16 22 48 22 22 0 51 4 64 9
37 14 72 -7 72 -44 0 -26 -6 -31 -49 -46 -53 -20 -63 -26 -53 -36 13 -12 115
-15 150 -4 31 11 35 16 43 64 8 46 12 52 34 52 23 0 25 5 33 69 4 37 23 116
42 175 42 129 49 227 15 218 -13 -3 -32 4 -51 20 -16 14 -31 24 -32 22 -2 -2
-10 -21 -20 -42 -13 -28 -22 -37 -33 -33 -9 4 -28 -4 -46 -19 -42 -35 -100
-35 -133 1 -14 15 -25 35 -25 45 0 15 -7 19 -32 19 -17 0 -28 3 -25 7 4 3 -3
13 -14 21 -20 14 -21 21 -16 80 4 36 11 68 16 71 5 4 1 24 -10 46 -11 22 -23
63 -26 90 -3 28 -13 62 -21 77 -15 26 -15 30 6 67 17 30 22 55 22 109 0 76 7
99 71 216 46 87 64 87 54 1 -4 -31 -3 -45 3 -37 7 10 11 10 22 -3 15 -18 46
-20 56 -3 4 7 9 28 11 48 6 57 18 58 77 1 71 -66 144 -101 214 -101 45 0 112
21 112 35 0 4 -55 -11 -70 -20 -19 -12 -81 14 -129 54 -27 23 -53 41 -58 41
-15 0 -67 62 -92 110 -13 25 -30 52 -37 61 -21 24 -17 42 19 95 82 121 94 152
115 304 22 149 19 223 -9 240 -10 7 -10 11 0 24 8 9 19 16 25 16 11 0 50 53
76 105 15 30 16 30 104 33 103 3 163 -13 219 -59 35 -29 49 -59 26 -59 -14 0
-39 -25 -39 -39 0 -13 -13 -14 -25 -2 -26 24 -239 69 -269 58 -21 -8 -20 -28
2 -34 10 -2 29 -22 43 -44 34 -57 101 -99 156 -99 40 0 44 2 38 20 -9 29 14
25 25 -5 8 -21 14 -24 39 -19 23 5 32 2 40 -15 7 -12 20 -21 31 -21 34 0 50
38 50 123 0 121 -40 180 -160 236 -47 22 -67 25 -143 23 -82 -1 -88 0 -75 15
78 98 315 233 410 233 42 0 55 -6 125 -59 59 -44 99 -65 167 -87 136 -44 131
-35 97 -184 -16 -69 -32 -132 -36 -141 -4 -11 -21 -15 -68 -16 -68 -1 -143
-31 -184 -75 -30 -32 -63 -113 -63 -154 0 -37 2 -39 31 -24 15 9 28 5 62 -15
l44 -25 44 29 c43 29 114 123 141 187 7 17 38 52 68 76 31 25 73 67 95 94 38
46 40 52 54 168 23 190 21 271 -11 331 -28 52 -104 132 -174 182 -23 16 -62
47 -87 69 -43 38 -46 44 -40 77 3 20 2 71 -2 114 -7 77 -7 78 -56 124 l-50 46
12 52 c15 72 5 115 -40 164 -40 44 -71 124 -90 230 -13 73 -15 75 -65 98 -45
20 -72 24 -80 10z m-1272 -188 c4 -9 1 -23 -7 -30 -12 -12 -16 -12 -26 1 -10
12 -10 18 1 30 17 20 24 20 32 -1z m-966 -155 c20 -20 14 -47 -12 -54 -14 -3
-30 -3 -35 1 -17 10 -13 43 7 54 22 13 26 13 40 -1z m58 -49 c9 -16 -21 -43
-41 -36 -13 5 -14 11 -5 27 12 22 35 26 46 9z m-56 -79 c0 -5 -7 -10 -16 -10
-8 0 -12 5 -9 10 3 6 10 10 16 10 5 0 9 -4 9 -10z m2117 -236 c29 -20 54 -44
54 -53 1 -9 2 -25 3 -36 1 -12 7 -19 16 -16 8 2 38 10 65 17 94 26 186 8 201
-38 9 -28 -1 -32 -37 -14 -45 23 -133 21 -184 -4 -32 -16 -47 -32 -66 -71 -31
-67 -97 -125 -155 -137 -131 -28 -244 66 -244 202 0 62 15 82 25 34 13 -60 68
-98 142 -98 42 0 103 32 103 54 0 7 7 19 15 26 22 18 21 127 -2 152 -28 31 7
22 64 -18z m-824 -505 c20 -16 41 -46 48 -67 6 -20 31 -78 55 -128 34 -72 54
-101 94 -134 57 -48 75 -76 90 -146 15 -67 13 -265 -4 -419 -15 -131 -31 -192
-65 -249 -10 -17 -21 -48 -24 -70 -4 -24 -22 -60 -50 -95 -24 -31 -58 -78 -77
-106 -52 -79 -109 -133 -197 -186 -84 -51 -150 -79 -186 -79 -21 0 -21 0 1 16
12 8 22 19 22 24 0 12 -213 0 -221 -13 -15 -22 -261 144 -322 218 -52 61 -94
144 -107 210 -7 33 -27 89 -46 125 -49 97 -55 133 -61 386 l-5 231 32 67 c26
55 40 73 80 97 52 32 98 88 146 178 26 50 43 65 133 123 54 35 111 43 217 29
98 -13 126 -11 304 17 67 11 104 3 143 -29z m-1280 -408 c22 -9 45 -56 34 -68
-3 -2 -22 -6 -43 -7 -22 -2 -39 -5 -39 -6 0 -1 -31 -2 -70 -4 -71 -2 -179 -40
-206 -72 -18 -22 -31 -16 -18 8 28 52 112 128 158 142 53 17 149 20 184 7z
m-46 -107 c-3 -3 -12 -4 -19 -1 -8 3 -5 6 6 6 11 1 17 -2 13 -5z m2055 -44
c-2 -19 -6 -37 -9 -40 -6 -6 -63 60 -63 73 0 4 17 7 38 5 36 -3 37 -4 34 -38z
m46 -28 c2 -7 -3 -12 -12 -12 -9 0 -16 7 -16 16 0 17 22 14 28 -4z m-2120 0
c9 -6 7 -13 -10 -29 -42 -37 -48 -37 -48 1 0 31 3 36 23 36 12 0 28 -4 35 -8z
m1812 -13 c0 -5 -7 -9 -16 -9 -9 0 -31 -15 -50 -34 -26 -26 -34 -30 -34 -17 0
10 19 31 43 48 40 30 57 33 57 12z m-1899 -32 c-13 -13 -26 -3 -16 12 3 6 11
8 17 5 6 -4 6 -10 -1 -17z m-82 -14 c10 -21 9 -28 -1 -34 -17 -11 -30 -11 -47
0 -12 8 -12 13 3 35 21 33 30 33 45 -1z m2898 11 c3 -8 -4 -25 -16 -38 -22
-23 -24 -23 -63 -8 -35 14 -38 17 -19 24 13 4 19 13 15 23 -5 12 2 15 35 15
28 0 44 -5 48 -16z m-2559 -34 c11 -18 10 -20 -12 -20 -25 0 -51 22 -39 33 13
13 38 7 51 -13z m-740 -24 l25 -25 -26 -7 c-15 -3 -41 -4 -59 -2 -24 4 -36 -1
-59 -24 -27 -29 -28 -29 -53 -13 -27 18 -41 48 -31 65 11 17 99 40 139 36 24
-3 48 -14 64 -30z m2355 -53 c-6 -109 -23 -183 -49 -222 -13 -20 -36 -53 -50
-74 -14 -22 -28 -36 -31 -34 -14 15 11 109 38 143 31 39 37 81 17 114 -21 33
27 139 63 140 14 0 16 -10 12 -67z m749 -9 c-4 -23 -6 -24 -20 -10 -13 12 -13
18 -3 30 18 22 29 12 23 -20z m38 -19 c0 -8 -4 -15 -10 -15 -5 0 -10 7 -10 15
0 8 5 15 10 15 6 0 10 -7 10 -15z m-2394 -6 c4 -6 10 -62 15 -123 4 -61 11
-129 14 -151 l5 -40 -24 50 c-36 76 -58 194 -44 239 12 37 22 44 34 25z m-734
-31 c-15 -15 -24 -6 -16 16 5 12 10 14 17 7 8 -8 8 -14 -1 -23z m-69 -9 c21
-38 18 -43 -17 -30 -24 10 -35 39 -19 54 11 12 18 8 36 -24z m907 -305 c0 -2
-10 -8 -21 -15 -17 -9 -23 -8 -30 2 -14 22 -11 26 21 21 17 -2 30 -6 30 -8z
m1116 -581 c0 -117 5 -184 16 -220 l15 -51 -33 -39 c-18 -21 -33 -43 -34 -48
0 -15 -76 -95 -89 -95 -6 0 -16 -9 -23 -20 -7 -11 -18 -20 -24 -20 -15 0 -72
-29 -79 -41 -4 -5 -19 -9 -36 -9 -16 0 -29 -4 -29 -10 0 -5 -13 -10 -29 -10
-17 0 -32 -4 -35 -8 -6 -10 -85 -7 -110 3 -11 5 -27 3 -38 -4 -13 -8 -24 -9
-31 -3 -7 6 -35 13 -64 17 -29 4 -57 13 -64 21 -6 8 -22 14 -34 14 -12 0 -28
7 -35 15 -7 8 -20 15 -30 15 -10 0 -20 7 -24 15 -3 8 -15 15 -26 15 -11 0 -20
7 -20 15 0 9 -11 21 -25 27 -14 6 -25 17 -25 24 0 8 -11 21 -25 30 -14 9 -25
23 -25 30 0 8 -7 17 -15 20 -8 4 -15 16 -15 29 0 12 -7 28 -15 35 -19 16 -19
64 -1 79 8 7 29 48 46 91 18 44 37 80 42 80 16 0 51 -22 99 -62 25 -21 49 -38
55 -38 5 0 22 -7 37 -15 15 -8 51 -19 80 -24 43 -8 54 -7 61 6 6 11 17 13 42
8 63 -11 207 46 278 111 20 18 64 46 98 63 35 16 83 50 108 75 25 24 47 45 50
45 3 1 5 -74 6 -166z m-1086 -403 c0 -5 -4 -10 -9 -10 -6 0 -13 5 -16 10 -3 6
1 10 9 10 9 0 16 -4 16 -10z m30 -50 c0 -11 11 -27 24 -35 13 -9 26 -25 29
-36 3 -11 14 -23 25 -26 11 -3 22 -13 25 -24 3 -10 13 -22 24 -25 10 -4 25
-15 33 -26 8 -10 26 -20 40 -23 13 -3 28 -11 32 -20 5 -8 22 -15 37 -15 16 0
34 -7 41 -15 7 -8 23 -15 36 -15 12 0 25 -4 28 -9 9 -15 106 -23 122 -10 11 9
17 9 29 -1 8 -7 24 -10 35 -7 11 3 34 0 50 -6 25 -9 33 -8 46 5 13 13 20 14
35 5 15 -9 24 -9 39 1 11 6 30 12 44 12 13 0 29 6 36 14 6 8 18 12 26 9 8 -3
25 2 39 11 13 9 31 16 39 16 9 0 20 9 26 20 6 11 18 20 26 20 9 0 27 9 41 20
33 26 51 14 22 -16 -13 -14 -19 -29 -15 -40 4 -9 0 -24 -7 -33 -7 -9 -19 -36
-26 -61 -7 -25 -17 -53 -22 -62 -5 -10 -9 -26 -9 -36 0 -10 -5 -23 -12 -30
-10 -10 -16 -36 -22 -107 -1 -16 -6 -38 -10 -47 -5 -10 -6 -25 -3 -33 4 -8 2
-17 -3 -20 -6 -4 -10 -21 -10 -40 0 -19 -5 -37 -11 -41 -6 -3 -9 -16 -7 -29 3
-12 -1 -30 -8 -39 -6 -9 -10 -25 -7 -35 2 -9 -3 -23 -11 -30 -9 -8 -16 -21
-16 -31 0 -10 -7 -23 -15 -30 -8 -7 -15 -21 -15 -31 0 -11 -7 -19 -15 -19 -8
0 -17 -11 -21 -24 -3 -13 -15 -26 -26 -29 -11 -3 -22 -15 -25 -26 -4 -16 -11
-19 -27 -15 -14 3 -28 -1 -35 -10 -8 -9 -23 -16 -35 -16 -12 0 -27 -5 -34 -12
-14 -14 -90 -14 -104 0 -7 7 -22 12 -34 12 -12 0 -27 7 -35 16 -7 9 -21 13
-35 10 -16 -4 -23 -1 -27 15 -3 11 -15 23 -26 26 -12 3 -21 12 -21 19 0 8 -9
22 -20 31 -11 10 -20 23 -20 29 0 6 -7 17 -15 24 -8 7 -15 21 -15 31 0 9 -7
25 -16 33 -8 9 -13 20 -9 26 3 5 0 20 -6 32 -7 13 -12 35 -10 51 1 15 -2 27
-8 27 -6 0 -10 13 -9 28 1 15 -2 34 -7 42 -5 8 -8 25 -6 37 1 13 -1 28 -5 35
-4 6 -9 36 -10 66 -2 33 -10 62 -20 73 -9 10 -13 23 -9 28 6 11 -8 68 -26 103
-5 10 -9 26 -9 37 0 10 -6 24 -14 30 -7 6 -11 21 -9 34 3 13 -2 29 -10 35 -8
7 -13 21 -10 31 2 9 -3 23 -11 30 -9 8 -16 27 -16 43 0 16 -6 31 -15 34 -9 4
-15 19 -15 36 0 17 4 27 10 23 6 -3 10 -15 10 -25z m110 -10 c0 -5 -4 -10 -9
-10 -6 0 -13 5 -16 10 -3 6 1 10 9 10 9 0 16 -4 16 -10z m940 -4 c0 -3 -4 -8
-10 -11 -5 -3 -10 -1 -10 4 0 6 5 11 10 11 6 0 10 -2 10 -4z m-872 -58 c7 -10
21 -18 30 -18 10 0 26 -9 36 -21 10 -13 25 -19 36 -16 11 3 24 -1 31 -9 6 -8
19 -14 29 -14 10 0 23 -7 31 -16 8 -10 22 -14 39 -10 15 3 32 0 38 -6 12 -12
52 -1 52 14 0 6 9 3 20 -7 12 -11 28 -15 41 -12 12 3 31 1 41 -4 14 -8 26 -6
44 5 19 13 27 14 43 4 16 -10 23 -9 39 5 11 10 26 15 34 12 9 -4 23 1 32 10 9
9 23 15 30 12 8 -3 22 1 33 8 10 8 26 15 35 15 10 0 22 9 28 20 6 11 20 20 31
20 11 0 22 6 25 14 8 20 34 29 34 11 0 -8 -4 -15 -10 -15 -5 0 -19 -8 -30 -17
-11 -10 -29 -26 -40 -35 -11 -10 -26 -18 -34 -18 -7 0 -19 -7 -26 -15 -7 -8
-21 -15 -31 -15 -10 0 -21 -4 -24 -10 -3 -5 -17 -10 -30 -10 -13 0 -27 -4 -30
-10 -3 -5 -19 -10 -35 -10 -17 0 -33 -7 -39 -17 -8 -14 -12 -15 -25 -4 -9 8
-26 11 -41 7 -14 -3 -33 -1 -44 6 -15 9 -24 8 -44 -5 -19 -12 -27 -13 -30 -4
-2 6 -17 12 -33 13 -41 2 -93 15 -100 25 -3 5 -18 9 -33 9 -16 0 -34 7 -41 15
-7 8 -21 15 -32 15 -10 0 -21 7 -24 15 -4 8 -15 15 -25 15 -11 0 -24 11 -31
25 -6 14 -19 25 -30 25 -10 0 -18 7 -18 15 0 19 30 8 48 -17z m942 -138 c-18
-53 -32 -70 -44 -52 -3 6 1 15 9 22 8 7 15 24 15 38 0 19 28 57 37 49 1 -1 -7
-27 -17 -57z m-1100 -114 c0 -14 5 -28 10 -31 6 -3 10 -15 10 -26 0 -11 5 -30
12 -42 6 -12 13 -31 15 -42 1 -11 4 -33 7 -50 2 -16 8 -39 12 -50 7 -20 7 -20
-14 -1 -15 13 -20 26 -16 41 3 13 -1 28 -9 37 -9 8 -13 25 -10 39 3 15 -1 30
-11 38 -8 7 -12 19 -9 27 3 8 -2 23 -12 34 -10 11 -15 26 -12 35 10 24 27 18
27 -9z m1030 -68 c0 -19 -2 -20 -10 -8 -13 19 -13 30 0 30 6 0 10 -10 10 -22z
m-1227 -9 c31 -17 37 -28 37 -76 0 -51 -25 -72 -56 -48 -11 8 -30 15 -43 15
-32 0 -71 37 -71 67 0 41 85 67 133 42z m1185 -93 c-14 -13 -17 -15 -9 -4 7
10 10 25 7 34 -3 9 -3 21 1 27 4 6 10 1 15 -13 7 -19 4 -28 -14 -44z m-902
-153 c-7 -7 -26 7 -26 19 0 6 6 6 15 -2 9 -7 13 -15 11 -17z m11 -79 c-9 -10
-38 16 -31 28 4 6 13 4 22 -6 9 -8 13 -19 9 -22z m853 17 c0 -12 -20 -25 -27
-18 -7 7 6 27 18 27 5 0 9 -4 9 -9z m-834 -90 c-10 -16 -23 -14 -30 5 -9 25 4
38 21 21 9 -8 12 -20 9 -26z m815 6 c-13 -13 -26 -3 -16 12 3 6 11 8 17 5 6
-4 6 -10 -1 -17z m-801 -81 c0 -13 7 -29 15 -36 8 -7 15 -23 15 -36 0 -12 8
-29 19 -36 10 -7 21 -23 25 -35 4 -12 15 -24 24 -27 9 -3 22 -16 27 -28 7 -15
19 -23 35 -23 15 0 30 -9 38 -22 11 -21 24 -27 45 -24 4 0 16 -8 28 -20 14
-14 28 -19 44 -15 14 4 27 0 35 -9 16 -19 44 -19 64 0 8 8 28 15 44 15 17 0
32 6 36 15 3 8 17 15 30 15 16 0 30 9 38 23 8 13 23 22 38 22 16 0 28 8 35 23
5 12 18 25 27 28 9 3 20 15 24 27 4 12 15 28 25 35 10 7 19 24 21 39 4 33 24
41 33 13 4 -14 1 -28 -10 -40 -10 -11 -14 -26 -11 -38 4 -11 0 -24 -9 -32 -8
-7 -15 -23 -15 -37 0 -13 -7 -26 -15 -29 -8 -3 -17 -16 -21 -27 -7 -22 -22
-41 -76 -94 -16 -15 -28 -33 -28 -40 0 -17 -55 -6 -97 19 -18 11 -38 16 -44
12 -7 -4 -9 -3 -6 3 4 7 -5 10 -26 8 -28 -2 -32 -6 -31 -31 0 -16 -4 -32 -10
-36 -6 -4 0 -8 14 -8 23 -1 22 -2 -9 -16 -30 -13 -36 -13 -51 1 -9 8 -25 15
-35 15 -10 0 -27 8 -37 17 -11 10 -32 16 -49 15 -20 -2 -29 2 -29 13 0 9 -11
21 -25 27 -14 6 -25 17 -25 24 0 7 -11 21 -25 32 -14 11 -25 26 -25 34 0 8 -9
23 -20 33 -11 10 -17 22 -14 27 3 5 -1 20 -10 33 -9 13 -16 36 -16 50 0 14 -6
28 -14 31 -10 4 -13 15 -9 38 3 22 0 36 -11 45 -12 10 -14 17 -5 27 15 18 29
8 29 -20z m790 10 c0 -8 -7 -16 -15 -20 -10 -4 -15 1 -15 14 0 11 7 20 15 20
8 0 15 -6 15 -14z"/>
<path d="M6488 12075 c-12 -61 -9 -348 3 -383 20 -59 90 -64 121 -9 15 26 24
442 9 417 -4 -8 -11 -99 -14 -203 -3 -127 -9 -192 -17 -202 -17 -21 -66 -19
-76 3 -5 9 -11 107 -14 217 -3 130 -8 186 -12 160z"/>
<path d="M6842 11774 c-46 -13 -97 -31 -113 -39 -36 -19 -63 -59 -56 -84 3
-11 -2 -29 -10 -40 -7 -12 -19 -34 -24 -51 -10 -26 -8 -33 13 -55 29 -31 49
-31 85 -1 37 31 71 48 76 39 3 -5 8 -23 12 -42 l7 -34 -48 7 c-45 6 -47 5 -30
-8 43 -34 208 -33 275 2 90 47 101 54 101 62 0 5 -17 14 -39 20 -44 11 -76 40
-46 40 15 0 14 3 -6 19 -24 19 -146 51 -193 51 -37 0 -33 26 7 47 24 13 57 17
128 18 93 0 98 -1 142 -32 73 -53 90 -39 36 28 -66 83 -162 99 -317 53z m171
-248 c24 -19 22 -23 -19 -36 -42 -14 -47 -11 -38 24 7 29 29 33 57 12z m-125
-33 c6 -19 -25 -16 -32 3 -4 11 -1 14 11 12 9 -2 18 -9 21 -15z"/>
<path d="M6040 11759 c-58 -26 -100 -66 -100 -96 0 -28 2 -28 48 0 61 39 109
50 186 44 39 -3 94 -13 121 -22 102 -35 88 -48 -59 -55 -83 -5 -118 -10 -136
-23 -14 -10 -23 -21 -21 -25 3 -7 -83 -54 -124 -67 -20 -6 -20 -7 -1 -21 11
-8 26 -14 34 -14 8 0 26 -8 40 -19 31 -22 94 -41 135 -41 33 0 48 27 24 45
-20 15 -22 35 -4 35 8 0 22 9 32 20 25 27 69 25 109 -5 18 -14 38 -25 44 -25
7 0 12 -4 12 -10 0 -5 8 -10 18 -10 47 0 72 -82 53 -175 -7 -40 -6 -53 5 -66
8 -8 14 -22 14 -29 0 -11 2 -12 13 -1 9 9 11 61 9 204 -2 173 -5 195 -22 219
-11 15 -20 35 -20 45 0 27 -11 38 -55 61 -110 55 -270 70 -355 31z m95 -272
c15 -44 5 -48 -51 -21 -41 20 -42 29 -6 48 36 20 42 17 57 -27z"/>
<path d="M6250 11485 c-6 -8 -10 -22 -8 -32 3 -14 12 -18 46 -16 23 1 50 7 59
13 14 8 6 9 -35 4 l-53 -6 7 26 c7 29 2 33 -16 11z"/>
<path d="M6393 11134 c-15 -24 -15 -29 -2 -53 12 -22 23 -27 64 -29 28 -2 54
-7 60 -13 14 -14 68 -11 90 5 11 8 41 18 65 23 29 6 46 14 48 25 3 15 -5 17
-65 13 -37 -3 -81 -5 -96 -6 -17 -1 -37 7 -52 21 -22 21 -30 20 -26 -2 0 -4
-8 -12 -20 -18 -28 -16 -51 4 -43 36 8 31 -1 30 -23 -2z"/>
<path d="M6772 10994 c-8 -14 -20 -15 -83 -8 -41 5 -81 7 -89 6 -8 -2 -44 -2
-80 -2 -46 0 -76 -5 -105 -20 -50 -25 -63 -25 -92 2 -17 16 -26 19 -34 11 -19
-19 -2 -42 46 -63 25 -11 45 -24 45 -29 0 -6 13 -26 30 -44 39 -44 96 -60 173
-47 84 13 109 29 137 84 14 27 34 52 45 56 29 11 48 37 41 55 -7 20 -23 19
-34 -1z m-262 -114 c0 -5 -4 -10 -10 -10 -5 0 -10 5 -10 10 0 6 5 10 10 10 6
0 10 -4 10 -10z"/>
<path d="M6538 10763 c12 -2 30 -2 40 0 9 3 -1 5 -23 4 -22 0 -30 -2 -17 -4z"/>
<path d="M794 11948 c4 -46 12 -105 17 -133 30 -147 61 -281 69 -289 5 -5 25
-4 47 2 25 6 30 10 16 11 -25 1 -31 16 -10 24 6 3 2 6 -10 6 -20 1 -22 6 -21
46 0 25 -4 51 -9 57 -6 7 -18 49 -27 93 -41 202 -58 265 -72 265 -4 0 -3 -37
0 -82z"/>
<path d="M8193 11961 c-11 -10 -24 -32 -30 -47 -52 -139 -64 -158 -144 -227
-16 -14 -18 -22 -10 -30 18 -18 83 21 100 59 8 18 27 37 45 45 22 10 32 22 34
42 2 15 -1 27 -7 27 -18 0 -13 22 19 82 31 59 28 81 -7 49z m-39 -182 c-3 -5
-10 -7 -15 -3 -5 3 -7 10 -3 15 3 5 10 7 15 3 5 -3 7 -10 3 -15z"/>
<path d="M5164 11842 c-51 -37 -116 -62 -158 -62 -51 0 -66 -9 -66 -40 0 -22
6 -30 30 -38 83 -30 270 56 270 123 0 42 -32 49 -76 17z m46 -27 c0 -30 -133
-95 -195 -95 -32 0 -54 14 -41 27 3 4 31 10 62 14 35 5 74 19 103 37 52 34 71
39 71 17z"/>
<path d="M615 11540 c2 -54 11 -103 24 -135 24 -60 26 -53 6 25 -8 31 -19 88
-24 126 l-10 69 4 -85z"/>
<path d="M1311 11474 c-1 -11 -14 -41 -31 -67 -35 -55 -38 -67 -10 -42 23 21
54 98 47 117 -3 7 -6 4 -6 -8z"/>
<path d="M875 11470 c7 -12 76 -42 82 -36 6 5 -62 46 -76 46 -7 0 -9 -5 -6
-10z"/>
<path d="M1123 11438 c2 -7 12 -13 22 -13 10 0 20 6 23 13 2 7 -6 12 -23 12
-17 0 -25 -5 -22 -12z"/>
<path d="M7774 11290 c-24 -10 -39 -28 -30 -37 3 -4 14 1 24 10 10 9 32 17 49
19 17 1 29 6 27 10 -7 10 -43 9 -70 -2z"/>
<path d="M859 11224 c36 -16 82 -16 81 1 0 6 -26 11 -57 12 l-58 2 34 -15z"/>
<path d="M7768 11233 c-31 -8 -21 -43 17 -58 47 -20 62 -49 37 -75 -28 -30
-83 -10 -145 52 -37 37 -52 46 -58 36 -12 -18 -11 -31 5 -53 18 -27 18 -135 0
-135 -25 0 -14 -46 24 -101 21 -29 45 -55 55 -57 9 -2 28 8 42 22 24 24 102
55 90 35 -23 -36 113 34 153 78 28 33 28 35 -3 21 -22 -10 -28 -8 -44 9 -18
19 -18 20 15 53 19 18 34 41 34 51 0 26 -11 50 -20 44 -10 -6 -87 28 -120 54
-29 22 -57 30 -82 24z m132 -283 c0 -5 -5 -10 -11 -10 -5 0 -7 5 -4 10 3 6 8
10 11 10 2 0 4 -4 4 -10z"/>
<path d="M1197 11214 c-13 -13 -7 -37 15 -61 20 -21 21 -27 9 -58 -7 -19 -14
-48 -17 -63 -6 -34 -34 -58 -47 -39 -15 21 1 -64 22 -118 17 -42 20 -46 21
-22 0 38 18 70 36 63 18 -7 18 10 -3 84 -15 56 -15 61 0 78 21 23 22 50 3 71
-7 9 -17 29 -22 44 -5 16 -13 25 -17 21z"/>
<path d="M5114 11173 c-9 -42 -8 -55 3 -66 12 -12 11 -16 -11 -31 -31 -20 -32
-33 -7 -63 22 -27 34 -29 51 -8 15 19 60 20 60 2 0 -8 -16 -22 -35 -33 -41
-22 -41 -35 0 -46 15 -4 31 -11 34 -15 16 -22 66 -53 86 -53 16 0 25 -8 29
-25 8 -31 36 -33 100 -5 37 15 46 24 46 44 0 13 -6 26 -12 28 -10 4 -10 10 0
32 6 15 12 43 12 63 0 20 7 44 16 54 24 26 11 50 -26 47 -16 -1 -30 -6 -30
-10 0 -4 -5 -8 -11 -8 -6 0 -34 -16 -63 -35 -61 -40 -82 -44 -91 -14 -8 24 28
69 54 69 14 0 14 -1 1 -10 -11 -7 -6 -10 21 -10 19 0 43 6 53 13 16 12 16 14
2 26 -9 8 -16 22 -16 32 0 10 -4 21 -10 24 -5 3 -10 2 -10 -3 0 -5 -19 -12
-42 -15 -31 -4 -50 -15 -75 -42 -26 -28 -39 -36 -56 -31 -12 3 -28 6 -34 6 -8
0 -13 15 -14 38 -1 20 -4 51 -8 67 -6 28 -7 27 -17 -22z"/>
<path d="M1020 11150 c0 -5 6 -10 14 -10 12 0 13 -11 9 -54 -5 -48 -3 -55 18
-70 28 -19 79 -21 79 -3 0 7 -12 29 -26 48 -19 26 -24 42 -20 67 5 32 4 32
-35 32 -21 0 -39 -4 -39 -10z"/>
<path d="M3198 11014 c-21 -26 -38 -51 -38 -56 0 -14 47 24 61 50 7 12 23 25
36 28 29 8 30 24 1 24 -15 0 -36 -16 -60 -46z"/>
<path d="M9927 10934 c-10 -10 -9 -52 2 -58 5 -3 11 1 15 9 7 18 -7 59 -17 49z"/>
<path d="M3098 10883 c-42 -45 -55 -74 -73 -158 -9 -44 -21 -99 -26 -122 -5
-23 -9 -50 -9 -60 1 -36 17 11 40 112 28 126 47 181 77 223 29 39 25 41 -9 5z"/>
<path d="M3461 10860 c14 -31 19 -36 19 -24 0 6 -7 19 -16 30 -14 18 -14 18
-3 -6z"/>
<path d="M9921 10848 c-1 -9 -10 -20 -21 -23 -16 -5 -20 -15 -20 -48 0 -30 3
-38 11 -30 6 6 17 9 24 7 17 -7 28 56 16 87 -7 16 -10 19 -10 7z"/>
<path d="M3355 10608 c-15 -24 -58 -72 -95 -108 -65 -63 -68 -68 -90 -153 -30
-119 -20 -144 35 -87 20 21 26 33 18 38 -7 5 -8 24 -2 62 9 60 20 73 132 157
50 37 57 47 57 77 0 18 -6 39 -14 45 -10 9 -19 2 -41 -31z"/>
<path d="M9865 10590 c-4 -7 -3 -16 3 -22 14 -14 57 -6 57 12 0 18 -50 26 -60
10z"/>
<path d="M9875 10520 c-3 -5 1 -10 10 -10 9 0 13 5 10 10 -3 6 -8 10 -10 10
-2 0 -7 -4 -10 -10z"/>
<path d="M8075 10493 c-27 -10 -61 -13 -105 -10 -79 6 -130 -9 -177 -54 -28
-28 -40 -33 -70 -30 -20 1 -53 11 -72 22 -71 38 -174 13 -185 -46 -3 -17 -2
-44 3 -62 5 -18 12 -63 16 -100 4 -37 14 -81 22 -97 l15 -30 14 33 c14 32 11
56 -6 46 -4 -3 -11 2 -14 11 -10 26 -7 34 10 27 9 -3 21 3 31 16 8 12 20 20
26 18 14 -4 19 -213 7 -312 -6 -44 -12 -219 -15 -390 -4 -344 -10 -444 -31
-588 -16 -112 -33 -179 -45 -171 -4 2 -12 -4 -18 -13 -9 -17 -11 -16 -33 4
-30 28 -76 40 -83 22 -2 -8 -7 -68 -10 -134 -3 -66 -7 -133 -10 -150 -2 -16
-7 -46 -10 -65 l-5 -35 14 31 c12 25 23 32 53 37 21 3 45 8 53 11 13 5 14 -6
7 -86 -4 -51 -12 -111 -18 -133 -28 -113 -60 -323 -64 -425 -6 -133 -23 -246
-39 -259 -12 -10 -49 15 -58 39 -3 8 -6 -25 -7 -73 0 -49 -3 -91 -5 -95 -2 -4
-9 -50 -15 -102 -7 -52 -17 -112 -23 -133 -10 -32 -9 -40 5 -54 13 -13 19 -14
31 -3 9 7 16 10 16 6 0 -3 22 8 49 24 34 22 60 30 84 28 19 -1 42 4 51 11 8 7
25 11 36 9 22 -3 36 -32 83 -173 10 -33 28 -83 40 -111 25 -65 18 -96 -30
-129 -48 -32 -71 -32 -79 1 -6 24 -9 25 -48 19 -22 -4 -64 -13 -93 -21 -30 -9
-81 -14 -125 -12 l-73 3 -3 33 c-4 37 -3 36 -37 20 -29 -13 -31 -25 -9 -49 21
-23 10 -123 -17 -150 -24 -24 -86 -25 -111 -2 -17 15 -18 14 -12 -28 4 -32 2
-48 -7 -56 -13 -10 -91 -20 -191 -25 -21 -1 -38 -6 -38 -11 0 -4 -4 -5 -10 -2
-5 3 -10 0 -10 -7 0 -7 -18 -23 -41 -35 -35 -19 -39 -20 -35 -5 2 9 7 32 11
50 7 36 12 38 35 17 16 -14 17 -14 13 7 -3 16 7 38 32 70 53 67 39 85 -19 24
l-46 -49 0 77 c0 45 6 91 15 113 16 39 19 63 8 63 -9 0 -53 -127 -53 -153 0
-9 -3 -17 -8 -17 -14 0 -31 38 -25 58 5 22 10 21 -163 37 -61 6 -62 5 -93 -30
-17 -20 -38 -47 -47 -60 -15 -23 -14 -25 18 -55 18 -17 65 -46 104 -65 74 -36
121 -74 77 -63 -12 3 -43 2 -70 -3 -98 -18 -127 -112 -48 -157 20 -11 20 -11
-2 -12 -12 0 -25 -5 -28 -10 -21 -34 -158 -52 -232 -31 -30 9 -33 7 -77 -49
-57 -74 -81 -88 -97 -59 -9 18 -7 25 14 45 14 12 33 45 43 71 9 26 27 59 39
73 24 26 65 113 65 136 0 19 -76 18 -112 0 -27 -14 -27 -14 -22 13 3 15 1 44
-4 64 -14 48 -6 76 19 70 11 -3 19 0 19 6 0 8 7 7 22 -3 52 -37 147 -11 198
54 28 35 29 40 12 40 -11 0 -31 9 -45 20 -18 15 -40 20 -82 20 -50 0 -60 -3
-85 -30 -25 -26 -48 -37 -87 -39 -7 -1 -23 -12 -36 -26 -21 -23 -26 -24 -55
-14 -41 14 -48 8 -27 -24 24 -38 10 -70 -58 -129 -34 -29 -66 -58 -72 -65 -20
-25 -40 4 -41 59 -2 93 -26 155 -38 96 -22 -114 -30 -140 -43 -145 -29 -11
-33 11 -23 112 7 70 7 109 -1 132 -7 21 -7 38 -1 49 12 22 0 67 -28 96 -19 20
-19 23 -4 29 12 3 14 8 7 12 -7 4 -15 2 -18 -3 -8 -13 -113 -3 -133 13 -7 5
-15 7 -19 4 -9 -9 -3 -289 8 -376 11 -92 34 -127 111 -177 46 -29 58 -42 58
-63 0 -14 10 -36 23 -47 12 -12 28 -38 36 -59 11 -32 11 -39 -2 -52 -19 -20
-37 -9 -37 23 0 41 -17 62 -76 96 -97 54 -151 124 -175 225 -6 26 -10 109 -10
183 1 74 -4 160 -10 190 -6 30 -13 66 -16 80 -4 22 -6 23 -14 7 -6 -11 -6 -23
0 -36 8 -14 7 -22 -4 -31 -8 -6 -19 -28 -26 -47 -11 -33 -13 -35 -48 -30 -23
3 -41 0 -49 -9 -7 -8 -23 -14 -36 -14 -20 0 -25 -6 -30 -44 -4 -25 -21 -72
-37 -105 l-31 -61 -71 0 c-77 0 -78 -7 -5 -34 26 -9 59 -27 74 -39 15 -11 52
-34 83 -49 31 -16 81 -44 111 -62 30 -19 69 -43 85 -53 17 -10 37 -34 47 -54
9 -19 66 -82 127 -140 61 -59 111 -112 111 -120 0 -20 53 -128 64 -128 5 -1
24 11 43 25 24 18 48 26 86 28 65 3 152 37 196 76 34 31 51 37 51 21 0 -5 12
-11 26 -13 38 -4 52 -30 34 -63 -13 -24 -12 -30 11 -71 13 -25 32 -50 42 -55
11 -6 17 -22 17 -45 0 -47 -13 -69 -50 -84 -17 -7 -38 -26 -46 -42 -8 -16 -30
-46 -49 -67 -35 -38 -59 -87 -50 -101 2 -4 23 -10 45 -14 22 -3 40 -10 40 -15
0 -5 -12 -30 -27 -57 -33 -59 -44 -139 -32 -245 8 -78 30 -127 97 -216 16 -22
23 -41 20 -58 -3 -14 -1 -25 3 -25 13 0 10 -33 -4 -51 -7 -8 -20 -18 -29 -22
-10 -3 -44 -23 -75 -44 -121 -78 -160 -98 -283 -143 -47 -18 -123 -54 -170
-81 -47 -27 -90 -49 -95 -49 -6 0 -28 -12 -49 -25 l-40 -24 62 3 c34 2 72 10
85 19 20 13 24 13 24 0 0 -21 -67 -52 -118 -54 -24 -1 -50 -7 -57 -12 -7 -6
-12 -6 -11 -1 1 5 1 18 0 29 -2 19 -2 19 -12 2 -6 -9 -14 -15 -20 -12 -5 4 -9
1 -9 -5 0 -6 -4 -9 -9 -5 -5 3 -12 1 -15 -4 -3 -5 -22 -12 -42 -15 -27 -6 -34
-11 -30 -23 5 -13 4 -14 -9 -3 -15 12 -63 9 -115 -10 -14 -4 -38 -11 -55 -15
-29 -7 -29 -7 -7 -16 12 -4 22 -11 22 -15 0 -3 -7 -4 -15 0 -8 3 -15 1 -15 -3
0 -23 115 -15 130 8 3 5 11 3 18 -5 16 -18 -16 -36 -69 -38 -22 0 -39 -4 -39
-7 0 -4 -39 -12 -87 -18 -49 -7 -113 -16 -143 -20 -30 -5 -59 -5 -64 -1 -5 5
-19 5 -31 0 -14 -5 -38 -5 -62 2 -21 7 -44 11 -50 9 -7 -1 -13 5 -13 14 0 8
-3 14 -7 13 -12 -3 -83 12 -102 22 -9 5 -38 18 -66 30 -27 12 -52 26 -55 30
-3 3 -25 19 -50 33 -88 51 -119 100 -85 134 16 16 16 17 -1 30 -11 8 -19 19
-19 26 0 7 -11 12 -25 12 -36 0 -70 22 -70 45 0 10 -6 23 -12 27 -7 4 -31 31
-53 58 -21 28 -45 53 -52 58 -6 4 -18 13 -25 21 -7 7 -18 11 -25 9 -15 -5 -95
67 -90 81 2 6 -12 25 -31 42 -24 21 -33 36 -29 48 9 22 50 20 72 -4 10 -11 26
-20 35 -20 16 0 122 -84 129 -103 2 -5 12 1 22 14 l17 23 13 -26 c14 -31 38
-43 53 -27 8 8 8 13 -1 16 -24 9 -13 33 17 40 30 6 42 23 16 23 -9 0 -13 11
-12 33 1 30 -1 32 -36 35 -21 2 -38 8 -38 14 0 6 -9 8 -20 5 -11 -3 -20 -1
-20 4 0 5 5 9 12 9 9 0 9 3 0 12 -9 9 -16 8 -29 -5 -12 -11 -13 -17 -5 -17 7
0 10 -5 7 -10 -4 -6 -10 -8 -14 -5 -5 2 -6 -7 -3 -22 4 -21 2 -25 -10 -20 -9
3 -22 0 -29 -6 -7 -7 -5 -2 5 11 19 22 19 22 -1 22 -23 0 -33 25 -23 55 11 32
1 43 -43 50 -88 13 -134 30 -194 72 -34 23 -70 43 -80 43 -11 0 -34 16 -53 35
-19 19 -37 35 -40 35 -14 0 29 -102 57 -138 16 -20 36 -48 43 -61 7 -14 26
-37 44 -53 17 -15 28 -28 26 -29 -3 0 -14 -2 -25 -4 -11 -2 -30 3 -42 11 -12
7 -27 14 -32 14 -25 0 -104 66 -143 120 -109 149 -151 228 -142 264 3 12 0 42
-6 66 -7 25 -18 81 -26 124 -7 44 -16 84 -19 90 -2 6 -3 -54 -2 -134 2 -92 8
-153 16 -168 15 -28 23 -102 11 -102 -4 0 -27 21 -50 48 l-41 47 6 -40 c4 -22
13 -60 21 -84 8 -24 11 -47 7 -50 -4 -3 -8 -23 -9 -44 0 -23 3 -33 8 -25 5 8
8 2 8 -18 0 -19 6 -34 15 -38 8 -3 15 -12 15 -19 0 -14 80 -87 95 -87 7 0 157
-130 221 -191 22 -22 71 -52 108 -68 84 -35 79 -41 -90 -90 -39 -11 -79 -30
-90 -42 -10 -11 -31 -27 -46 -35 -16 -8 -28 -21 -28 -29 0 -8 -11 -22 -25 -31
-14 -9 -31 -26 -37 -37 -10 -19 -8 -20 52 -14 45 4 69 11 83 26 21 20 21 21 3
34 -24 18 -14 33 32 53 20 8 46 23 57 33 17 17 105 61 119 61 3 0 22 -17 43
-37 265 -259 453 -425 516 -454 14 -6 28 -22 31 -35 3 -12 18 -31 34 -42 27
-19 136 -52 173 -52 23 0 25 -15 4 -24 -59 -22 -295 -12 -330 15 -6 4 -17 4
-24 0 -10 -6 -9 -10 4 -15 30 -11 -1 -34 -63 -46 -56 -12 -198 -74 -217 -96
-5 -7 -21 -15 -35 -18 -23 -5 -23 -4 3 6 26 11 38 38 16 38 -5 0 -7 -4 -4 -10
3 -6 -1 -7 -10 -4 -27 11 -11 28 54 59 68 33 91 56 91 91 0 35 -21 40 -45 12
-28 -32 -100 -65 -162 -73 l-48 -7 67 64 c52 48 68 70 68 91 0 15 -4 27 -8 27
-4 0 -28 -19 -53 -43 -50 -47 -102 -67 -173 -67 -60 0 -84 20 -56 45 13 12 27
15 45 11 33 -8 131 37 140 64 4 11 15 20 25 20 21 0 45 34 35 50 -13 22 -43
10 -50 -19 -6 -30 -1 -29 -137 -50 -37 -6 -78 -22 -115 -45 -32 -20 -59 -32
-61 -26 -2 5 -8 10 -13 10 -4 0 -6 -6 -3 -13 2 -7 -4 -21 -15 -31 -16 -15 -29
-17 -70 -11 -28 4 -51 9 -51 12 0 19 45 74 63 77 12 3 33 7 47 9 52 10 127 45
175 81 66 51 129 74 123 45 -4 -15 35 -29 51 -19 10 6 9 13 -4 34 -10 14 -21
26 -25 26 -4 0 -17 9 -30 20 -22 19 -58 19 -85 0 -32 -23 -170 -71 -190 -66
-15 4 -29 -2 -46 -20 -27 -29 -70 -54 -93 -54 -9 0 -18 11 -22 25 -8 31 -26
28 -34 -6 -5 -21 -7 -22 -13 -6 -4 10 -4 29 -1 41 3 14 -1 27 -9 35 -22 17
-47 -22 -47 -73 0 -34 6 -45 45 -82 37 -34 45 -48 45 -77 0 -33 20 -67 40 -67
4 0 13 -14 20 -30 7 -17 26 -42 43 -56 29 -24 37 -26 92 -20 47 5 66 3 84 -10
27 -20 94 -22 115 -5 18 15 36 6 36 -16 0 -13 15 -15 108 -11 107 4 107 4 208
58 101 53 103 53 220 61 65 5 172 15 239 23 66 9 176 20 245 26 163 14 774 32
797 23 10 -3 38 -23 63 -43 86 -71 94 -73 320 -81 113 -4 241 -10 285 -14 44
-4 152 -2 240 4 88 6 282 16 430 21 149 5 304 14 345 20 97 13 551 35 700 34
71 -1 157 -10 225 -23 175 -33 356 -60 549 -81 286 -31 286 -31 311 -118 42
-142 124 -242 249 -302 128 -61 211 -81 371 -87 279 -11 450 47 547 186 30 43
85 171 74 171 -2 0 -21 -28 -44 -62 -80 -124 -223 -241 -254 -210 -8 8 15 37
83 104 144 142 199 260 199 428 0 94 -22 200 -68 325 -33 93 -58 215 -48 241
8 20 22 9 28 -21 2 -11 15 41 30 115 26 136 27 160 3 140 -31 -26 -46 39 -63
280 -11 145 -32 188 -117 236 -35 19 -80 38 -99 41 -37 6 -64 27 -48 37 5 3
41 -3 81 -14 39 -11 78 -20 86 -20 29 0 6 18 -44 35 -26 8 -59 27 -71 40 -20
21 -22 28 -12 50 21 45 14 137 -14 217 -26 72 -80 164 -111 190 -14 11 -14 8
2 -22 10 -19 26 -47 36 -61 26 -37 42 -115 29 -139 -6 -11 -13 -50 -17 -88 -3
-46 -12 -78 -28 -102 -30 -46 -81 -100 -94 -100 -14 0 -14 41 0 77 31 81 39
134 25 167 -20 46 -56 75 -117 90 -115 30 -173 58 -221 106 -42 41 -98 78 -98
64 0 -2 9 -23 21 -46 12 -23 25 -67 29 -99 5 -34 18 -70 31 -88 20 -28 23 -42
22 -124 -2 -99 11 -137 46 -137 10 0 26 11 35 25 19 29 46 24 46 -9 0 -30 -35
-66 -65 -66 -13 0 -39 -7 -57 -16 -38 -18 -85 -6 -94 23 -7 22 -18 43 -57 104
-16 26 -42 97 -59 160 -25 95 -29 125 -24 180 9 83 31 158 52 174 12 8 15 20
10 38 -7 31 -24 34 -68 11 -31 -16 -32 -16 -50 6 -13 16 -18 37 -17 65 2 26
-4 51 -14 65 -18 26 -23 60 -9 60 5 0 26 15 47 34 29 26 50 36 91 41 30 3 56
11 60 16 3 5 15 7 25 4 11 -4 27 -1 36 6 13 11 19 9 38 -15 27 -34 68 -33 73
1 7 47 -62 107 -83 73 -4 -7 -14 -5 -27 4 -15 11 -26 12 -40 5 -10 -6 -42 -12
-70 -15 -28 -2 -57 -9 -65 -16 -8 -6 -26 -12 -40 -13 -15 0 -28 -6 -31 -13 -2
-7 -16 -19 -32 -27 -25 -13 -29 -13 -41 2 -11 13 -11 17 -1 21 7 2 19 10 26
18 8 8 22 14 30 14 8 0 32 9 52 20 38 22 191 43 200 28 9 -14 40 -9 56 10 11
11 13 24 8 38 -7 17 -20 23 -67 28 -65 7 -170 -2 -179 -15 -3 -5 -14 -9 -26
-9 -11 0 -39 -9 -62 -21 -93 -48 -96 -49 -96 -36 0 7 -12 19 -28 28 -15 8 -55
58 -90 110 -43 64 -106 136 -196 224 -131 128 -238 252 -279 324 -12 20 -41
57 -67 82 -98 99 -95 93 -95 177 0 66 -5 87 -32 145 -18 37 -27 67 -22 67 6 0
36 -7 66 -16 30 -9 57 -14 59 -11 3 3 6 19 6 36 1 19 6 30 12 28 6 -3 17 1 23
8 18 20 -6 35 -84 51 -56 12 -72 21 -104 55 -56 61 -76 42 -55 -50 6 -23 5
-31 -3 -27 -6 4 -21 -2 -33 -13 -12 -12 -25 -21 -30 -21 -4 0 1 -20 12 -45 20
-47 11 -71 -13 -33 -14 23 -41 145 -50 225 -6 49 8 66 23 29 5 -14 14 -26 20
-26 5 0 10 -8 11 -17 0 -13 3 -11 11 7 6 15 7 54 3 100 -4 41 -8 127 -10 190
-2 93 -7 127 -27 181 l-25 66 21 14 c12 8 33 19 49 26 15 7 27 16 27 20 0 10
12 10 245 17 194 5 261 12 270 27 10 15 78 40 85 32 32 -38 219 -359 246 -424
19 -46 39 -88 44 -94 5 -6 12 -26 15 -45 3 -19 13 -42 21 -51 20 -22 60 -32
82 -20 13 7 28 3 60 -15 23 -14 46 -23 50 -20 5 3 15 -4 22 -15 14 -18 60 -27
60 -11 0 11 -59 42 -81 42 -10 0 -19 6 -19 13 0 7 -10 21 -22 32 l-23 20 63 6
c178 17 358 201 532 544 84 165 187 435 230 603 6 23 17 42 24 42 19 0 84 74
92 105 3 14 4 37 2 50 -3 14 1 30 8 36 8 6 14 20 14 30 0 10 4 20 9 23 5 3 9
38 9 78 -1 65 29 210 82 408 5 19 17 88 26 152 15 101 16 128 5 202 -7 47 -17
88 -21 91 -4 2 -11 -19 -14 -48 -10 -71 -9 -84 5 -144 14 -55 4 -135 -27 -231
-8 -23 -14 -58 -14 -77 0 -42 -28 -115 -44 -115 -35 0 -116 -181 -116 -259 0
-29 -5 -41 -17 -44 -25 -7 -90 -3 -99 6 -4 4 -17 7 -29 7 -13 0 -28 7 -35 15
-7 8 -18 15 -25 15 -7 0 -23 6 -36 13 -50 26 -50 26 -33 58 12 24 18 28 29 19
9 -8 15 -8 20 0 5 8 11 8 20 0 22 -18 43 0 61 52 21 63 13 110 -23 146 -59 58
-103 73 -103 37 0 -8 -4 -16 -9 -20 -6 -3 -19 26 -31 65 -17 56 -25 70 -40 70
-33 0 -24 -51 25 -147 44 -85 45 -89 34 -131 -8 -30 -15 -40 -22 -33 -16 16
-53 13 -67 -4 -7 -9 -10 -27 -7 -43 7 -33 -2 -49 -33 -65 -12 -7 -28 -28 -34
-47 -10 -30 -9 -42 5 -75 19 -44 44 -66 64 -59 7 3 16 -4 20 -15 3 -11 16 -23
28 -27 12 -4 28 -15 35 -25 7 -11 22 -19 33 -19 11 0 22 -7 25 -15 4 -8 18
-15 33 -15 14 0 34 -7 45 -15 13 -10 24 -11 36 -5 13 7 22 5 33 -8 14 -15 13
-25 -13 -103 -49 -148 -130 -293 -261 -465 -44 -57 -84 -104 -88 -104 -13 0
-51 -36 -51 -49 0 -6 -4 -11 -9 -11 -5 0 -18 -15 -30 -32 -11 -18 -21 -29 -21
-25 0 4 -11 -2 -24 -15 -53 -52 -146 -108 -178 -108 -10 0 -18 -4 -18 -10 0
-5 -12 -10 -26 -10 -14 0 -34 -5 -46 -11 -11 -6 -35 -8 -53 -5 -25 5 -36 14
-44 37 -6 18 -6 27 -1 24 14 -9 12 -1 -7 40 -15 32 -28 40 -60 36 -14 -2 -40
36 -44 64 -1 11 1 32 5 47 11 38 0 62 -34 75 -20 8 -30 18 -30 32 0 12 -4 21
-8 21 -5 0 -17 16 -28 35 -20 38 -29 43 -37 21 -3 -8 1 -17 9 -20 8 -3 14 -16
14 -28 -1 -22 -2 -22 -25 7 -24 29 -24 30 -5 50 25 27 25 40 -2 104 -21 52
-22 52 -57 46 -33 -5 -40 -1 -81 40 l-45 46 -9 -28 c-5 -15 -15 -32 -22 -36
-18 -10 -18 -26 0 -46 23 -28 28 -67 8 -83 -35 -29 -166 -54 -194 -37 -6 4
-20 3 -30 -2 -10 -5 -44 -10 -75 -11 -32 0 -62 -3 -68 -7 -5 -3 -37 -6 -70 -6
-33 0 -67 -5 -75 -10 -8 -5 -28 -10 -45 -11 -16 -1 -43 -5 -59 -9 -21 -6 -27
-5 -22 4 4 6 11 9 16 6 4 -3 6 4 3 15 -3 11 -10 20 -15 20 -6 0 -6 6 1 14 10
11 9 16 -4 23 -13 8 -14 23 -6 113 5 61 5 106 0 108 -17 7 -9 22 10 22 16 0
19 5 15 28 -3 15 -11 32 -18 37 -18 14 -24 84 -31 345 -7 263 -21 514 -34 591
-14 83 -23 267 -13 273 5 3 36 -1 68 -10 32 -8 69 -12 82 -9 39 10 104 -37
162 -115 29 -39 55 -69 57 -66 13 12 -55 127 -105 179 -46 47 -81 70 -179 118
-105 51 -123 63 -123 83 0 33 28 54 120 91 63 25 96 47 149 96 81 76 111 122
95 146 -14 23 -23 24 -69 6z m1575 -1305 c0 -4 13 -8 29 -8 16 0 31 -6 35 -15
3 -8 16 -15 30 -15 14 0 28 -4 31 -10 3 -5 19 -10 35 -10 16 0 32 -5 36 -11 3
-6 19 -9 35 -5 37 7 44 -6 29 -59 -10 -37 -16 -44 -44 -48 -17 -3 -35 -1 -40
4 -6 5 -20 9 -32 9 -13 0 -26 5 -29 10 -3 6 -13 10 -21 10 -17 0 -75 38 -87
58 -4 6 -19 12 -32 12 -14 0 -25 5 -25 12 0 6 -7 20 -17 30 -13 14 -14 23 -5
42 10 23 14 24 41 13 17 -6 31 -15 31 -19z m90 -738 c0 -5 -7 -7 -15 -4 -8 4
-12 10 -9 15 6 11 24 2 24 -11z m-1710 -130 c0 -5 -4 -10 -9 -10 -6 0 -13 5
-16 10 -3 6 1 10 9 10 9 0 16 -4 16 -10z m-116 -387 c2 -16 1 -45 -3 -64 l-8
-34 -6 40 c-9 53 -6 108 5 97 5 -5 10 -22 12 -39z m-679 -1183 c-4 -6 -20 -10
-36 -10 -39 0 -30 14 10 17 18 1 29 -2 26 -7z m341 -38 c1 -9 4 -25 9 -34 5
-13 3 -18 -8 -18 -9 0 -19 5 -22 10 -3 6 -15 10 -26 10 -13 0 -19 7 -19 23 0
18 6 22 33 24 24 1 33 -3 33 -15z m-325 -159 c16 -16 29 -37 29 -49 0 -19 8
-22 68 -28 78 -8 152 -25 169 -39 10 -7 8 -15 -7 -34 -11 -14 -20 -37 -20 -50
0 -29 41 -73 68 -73 27 0 148 58 199 95 89 64 99 70 133 78 56 13 224 35 232
30 4 -2 17 1 29 7 16 9 24 8 38 -4 10 -10 25 -14 35 -10 9 4 43 -5 76 -20 38
-17 83 -28 127 -31 37 -3 69 -8 71 -12 30 -75 101 -143 150 -143 36 0 125 -48
170 -92 21 -20 48 -38 61 -39 26 -4 37 -19 46 -62 4 -19 17 -32 42 -45 27 -12
40 -26 47 -50 5 -18 22 -42 37 -53 l28 -20 -1 -232 c-1 -185 3 -246 16 -302
20 -82 16 -106 -25 -149 -23 -24 -26 -33 -16 -40 10 -6 11 -22 6 -65 -5 -34
-4 -57 1 -59 16 -6 11 -42 -5 -42 -9 0 -20 -11 -25 -25 -9 -23 -21 -30 -43
-26 -5 1 -11 -7 -14 -18 -6 -25 -59 -33 -95 -16 -32 15 -43 6 -25 -19 8 -11
33 -19 69 -23 50 -5 62 -2 103 21 27 16 57 26 73 24 27 -3 27 -4 26 -76 -2
-68 -4 -74 -37 -110 -96 -102 -278 -274 -295 -280 -20 -6 -13 -20 16 -30 27
-9 26 -9 -33 -37 -45 -22 -79 -30 -139 -33 -72 -4 -156 11 -156 27 0 3 -26 4
-57 2 -42 -2 -60 1 -68 12 -7 10 -16 12 -24 7 -8 -4 -28 -4 -45 1 -17 5 -47
12 -66 15 -19 3 -58 19 -87 35 -28 16 -60 29 -71 29 -10 0 -43 12 -73 26 -234
114 -305 147 -312 145 -4 0 -10 6 -13 14 -4 8 -12 15 -20 15 -7 0 -61 25 -119
56 -58 31 -108 55 -110 53 -6 -7 38 -52 95 -99 94 -78 99 -82 94 -95 -6 -14
187 -157 310 -230 79 -47 240 -119 291 -130 79 -18 118 -51 89 -76 -24 -20
-194 -7 -235 19 -19 11 -83 43 -144 70 -60 28 -141 71 -178 96 -38 25 -78 46
-90 46 -42 0 -221 121 -285 192 -20 23 -50 56 -67 73 -70 76 -93 108 -88 121
3 8 -1 14 -8 14 -7 0 -10 3 -7 6 4 3 -14 26 -38 52 -25 26 -59 76 -77 112 -31
62 -32 71 -33 189 l-1 124 -33 13 c-45 19 -67 17 -80 -6 -10 -19 -11 -19 -43
-1 -25 14 -33 25 -35 53 -6 68 55 107 170 108 35 0 53 6 72 23 14 13 44 28 68
35 58 15 181 49 246 68 40 12 55 22 63 41 8 23 14 25 58 21 38 -2 52 1 60 14
9 15 5 17 -32 20 -23 2 -56 -1 -74 -6 -19 -5 -51 -5 -82 1 -46 9 -54 8 -83
-13 -18 -14 -46 -24 -65 -24 -26 0 -34 5 -39 25 -3 14 -3 32 0 41 5 12 1 14
-17 8 -40 -12 -145 -67 -169 -88 -23 -21 -63 -32 -52 -15 8 14 -13 11 -28 -4
-41 -40 -79 -58 -108 -52 -16 4 -32 11 -35 16 -11 17 -39 9 -67 -18 l-28 -26
-40 18 c-50 23 -63 43 -44 70 22 30 18 72 -11 91 -23 15 -26 15 -56 -10 -34
-29 -75 -33 -105 -12 -19 14 -19 15 0 50 11 20 22 36 25 36 3 0 12 4 20 9 11
7 9 13 -8 30 -25 25 -27 44 -6 61 8 7 15 20 15 30 0 9 27 47 60 83 58 63 59
66 46 92 -27 51 10 102 66 91 18 -4 51 -10 73 -13 72 -10 99 -70 45 -101 -35
-20 -34 -28 2 -50 24 -14 34 -15 75 -4 84 23 115 76 77 130 -8 12 -11 22 -5
22 5 0 12 -4 16 -10 3 -5 12 -7 20 -3 14 5 21 -20 17 -68 -1 -9 11 -28 27 -43
l28 -27 26 21 c18 15 27 31 27 51 0 16 9 38 20 49 18 18 28 19 88 14 67 -6 68
-6 95 26 15 17 27 35 27 38 0 4 -18 15 -40 25 l-40 19 20 28 c26 36 25 80 -1
114 -25 32 -74 35 -138 6 -24 -11 -45 -20 -47 -20 -2 0 -4 15 -4 33 0 19 -10
47 -25 67 -13 18 -22 37 -19 41 2 4 26 7 52 7 50 -1 109 23 119 48 7 19 10 18
44 -13z m-1313 -55 c7 -7 12 -23 12 -37 l0 -26 -20 25 c-30 38 -23 69 8 38z
m608 -269 c-14 -61 -22 -79 -37 -79 -12 0 -12 42 2 77 9 24 40 64 46 59 1 -1
-4 -27 -11 -57z m89 -1 c6 -25 5 -28 -19 -28 -30 0 -29 -2 -15 39 12 35 24 31
34 -11z m-756 -70 c34 -35 40 -71 17 -104 -19 -27 -96 -26 -126 1 -38 34 -21
97 33 120 43 19 40 19 76 -17z m365 -457 c27 -26 34 -29 46 -17 39 36 153 22
122 -15 -7 -8 -21 -26 -32 -40 -19 -25 -26 -27 -140 -34 -101 -6 -124 -5 -144
9 -31 20 -40 49 -25 78 33 65 116 74 173 19z m3375 -457 c12 -15 26 -45 31
-68 15 -60 40 -113 61 -132 34 -30 21 -51 -55 -94 -48 -26 -75 -21 -98 20 -10
17 -25 30 -36 30 -31 0 -106 98 -95 126 2 7 0 22 -7 33 -9 17 -8 21 5 21 8 0
15 -4 15 -8 0 -5 9 -13 19 -18 11 -5 39 -38 63 -74 37 -56 47 -65 73 -65 24 0
31 5 33 23 5 37 -26 116 -59 150 -24 25 -30 37 -25 57 9 34 48 34 75 -1z m261
-39 c17 -9 30 -20 30 -25 0 -5 -11 -34 -25 -65 -41 -93 -60 -172 -45 -190 7
-8 10 -23 7 -32 -3 -10 -10 -33 -15 -50 -9 -29 -8 -33 7 -33 10 0 24 12 31 28
11 24 57 179 80 271 10 40 27 61 34 40 11 -34 29 -211 29 -282 1 -121 16 -115
-322 -123 -234 -6 -281 -10 -286 -22 -3 -8 -3 -18 1 -21 8 -9 402 -7 507 2 85
7 88 7 113 -18 21 -21 23 -29 14 -40 -27 -32 -92 -39 -360 -40 -231 0 -272 2
-317 18 -71 25 -103 52 -103 87 0 33 10 43 30 30 9 -6 23 -2 41 10 14 11 57
24 95 29 108 16 259 31 303 31 40 0 41 1 41 33 0 19 11 67 25 107 28 83 33
130 22 213 -8 54 -7 57 13 57 11 0 34 -7 50 -15z m-2873 -129 c28 -107 67
-196 108 -251 17 -22 40 -56 50 -75 11 -19 36 -57 55 -85 20 -27 36 -57 35
-65 -1 -21 18 -41 27 -27 14 23 238 -149 238 -183 0 -6 6 -10 14 -10 8 0 23
-11 33 -24 11 -13 46 -38 79 -55 128 -68 162 -91 131 -91 -9 0 -17 -4 -17 -9
0 -22 -96 -9 -179 25 -110 45 -191 86 -191 96 0 4 -33 32 -74 63 -84 63 -142
128 -179 200 -14 28 -49 77 -77 110 -105 122 -167 280 -156 396 8 81 12 87 48
80 30 -6 32 -11 55 -95z m2389 -242 c-1 -1 -13 -4 -28 -8 -26 -6 -28 -4 -28
23 0 58 11 66 35 24 12 -21 21 -38 21 -39z m189 16 c3 -5 1 -10 -4 -10 -6 0
-11 5 -11 10 0 6 2 10 4 10 3 0 8 -4 11 -10z m-2941 -105 c-1 -33 -1 -100 -1
-150 -1 -49 -1 -103 -2 -120 -1 -52 21 -154 35 -166 8 -6 14 -17 14 -23 0 -6
13 -31 30 -55 19 -30 26 -49 20 -56 -6 -7 -6 -15 -2 -20 4 -4 -3 -5 -16 -2
-12 3 -20 1 -16 -4 3 -5 2 -9 -1 -9 -9 0 -57 58 -77 92 -9 16 -18 24 -20 18
-2 -7 -12 -6 -31 2 -43 20 -50 60 -45 247 4 151 7 172 32 230 27 67 40 83 66
78 12 -2 15 -16 14 -62z m-177 -17 c4 -7 8 -67 9 -132 1 -89 -2 -125 -12 -142
-24 -35 -29 -141 -10 -203 9 -30 16 -68 16 -83 0 -26 -3 -29 -26 -26 -21 2
-31 13 -47 53 -18 44 -20 70 -19 210 1 179 16 279 45 313 23 25 33 27 44 10z
m318 -70 c4 -18 9 -49 11 -68 2 -19 6 -46 9 -60 l5 -25 -24 28 c-14 15 -29 27
-34 27 -16 0 -34 47 -27 71 10 35 35 70 44 65 5 -3 12 -20 16 -38z m-502 -65
c3 -24 -6 -81 -24 -152 -34 -132 -34 -135 -13 -218 9 -35 13 -76 9 -90 -6 -23
-7 -24 -24 -9 -10 9 -22 16 -28 16 -6 0 -20 21 -30 48 -36 93 -16 311 36 392
37 59 67 64 74 13z m3552 -95 c14 -6 25 -15 25 -20 0 -4 7 -8 15 -8 21 0 19
-23 -3 -43 -54 -49 -203 -62 -313 -27 -91 28 -99 35 -74 60 16 15 39 21 100
26 44 4 87 10 95 15 22 12 125 11 155 -3z m-2996 -43 c0 -5 -4 -3 -9 5 -5 8
-9 22 -9 30 0 16 17 -16 18 -35z m-731 -92 c3 -132 -5 -163 -43 -156 -14 3
-31 15 -37 27 -16 27 -15 175 1 205 12 22 47 42 66 37 6 -1 11 -50 13 -113z
m792 52 c0 -3 -5 -3 -12 1 -7 5 -8 3 -4 -5 5 -7 14 -10 21 -7 9 3 11 -2 8 -15
-4 -14 -1 -18 10 -13 19 7 56 -31 52 -54 -1 -12 -12 -17 -35 -17 -29 0 -36 6
-61 52 -22 41 -25 52 -14 57 9 3 12 12 8 23 -6 17 -6 17 10 1 9 -9 17 -19 17
-23z m-1622 -44 c-23 -30 -43 -35 -43 -12 0 11 39 38 58 40 5 1 -2 -12 -15
-28z m662 -42 c0 -31 -34 -74 -50 -64 -16 10 -12 67 6 86 22 24 44 13 44 -22z
m-830 5 c0 -8 -4 -12 -10 -9 -5 3 -10 10 -10 16 0 5 5 9 10 9 6 0 10 -7 10
-16z m94 2 c-3 -8 -15 -16 -27 -20 -21 -5 -21 -4 -4 9 18 13 18 13 0 18 -12 3
-9 5 9 6 20 1 26 -3 22 -13z m4393 -166 c12 0 25 -4 28 -10 8 -13 61 -13 87 1
16 9 26 7 49 -10 25 -18 35 -20 64 -12 30 8 40 6 79 -20 72 -48 74 -53 31
-100 -20 -23 -43 -56 -51 -75 -32 -76 -162 -169 -255 -181 -31 -5 -47 0 -82
22 -89 58 -127 108 -151 201 -8 32 -22 64 -30 70 -12 9 -5 20 44 65 70 64 115
83 145 63 11 -8 29 -14 42 -14z m-3670 -22 c-3 -8 -6 -5 -6 6 -1 11 2 17 5 13
3 -3 4 -12 1 -19z m-450 -99 c26 -10 27 -12 8 -19 -27 -11 -87 -12 -104 -1
-11 7 -10 11 5 20 25 14 56 14 91 0z m1811 -16 c-2 -23 -7 -28 -28 -25 -14 1
-30 9 -36 17 -6 8 -14 12 -17 8 -4 -3 -7 0 -7 9 0 11 12 15 46 16 44 2 45 1
42 -25z m1640 -14 c22 -7 32 -17 32 -31 0 -15 -4 -18 -17 -13 -44 18 -113 29
-175 28 -38 -1 -68 2 -68 6 0 29 156 35 228 10z m-445 -37 c32 -4 60 -5 62 -2
9 15 115 2 154 -18 37 -20 91 -31 214 -47 l47 -6 0 -40 c0 -38 -1 -39 -27 -33
-16 4 -52 18 -81 31 -52 24 -55 25 -111 11 -34 -9 -66 -12 -79 -7 -27 10 -173
37 -267 49 -110 15 -135 20 -135 30 0 6 7 10 15 10 8 0 29 9 47 20 24 15 43
19 68 15 19 -3 61 -9 93 -13z m-4958 -43 c0 -28 -4 -35 -23 -37 -26 -4 -52 13
-52 34 0 15 49 45 65 40 6 -1 10 -18 10 -37z m105 -67 c0 -11 -51 -35 -58 -28
-3 3 1 12 8 21 13 16 50 21 50 7z"/>
<path d="M7649 5940 c-13 -10 -19 -19 -13 -20 7 0 22 9 35 20 13 10 19 19 13
20 -7 0 -22 -9 -35 -20z"/>
<path d="M7061 5903 c-19 -9 -29 -19 -23 -21 6 -2 22 4 36 13 14 9 31 13 37 9
8 -4 9 -3 5 4 -9 15 -14 15 -55 -5z"/>
<path d="M7890 5783 c-46 -15 -83 -37 -72 -41 8 -2 19 1 25 7 6 6 18 11 27 11
8 0 24 7 34 15 20 15 14 18 -14 8z"/>
<path d="M7715 5730 c-55 -20 -51 -26 7 -10 21 6 40 15 43 20 4 6 5 10 3 9 -2
0 -25 -9 -53 -19z"/>
<path d="M8770 5085 c-25 -13 -51 -24 -57 -24 -7 -1 -13 -6 -13 -12 0 -13 39
-2 61 17 8 8 20 14 26 14 6 0 16 7 23 15 15 18 16 18 -40 -10z"/>
<path d="M8703 5089 c1 -6 -9 -13 -23 -15 -14 -2 -33 -13 -42 -25 -9 -11 -27
-21 -40 -21 -23 -2 -72 -32 -66 -41 2 -3 -6 -14 -16 -26 -11 -12 -17 -23 -14
-26 8 -8 39 19 41 37 4 27 29 49 48 43 16 -5 51 9 107 45 22 15 30 40 12 40
-5 0 -9 -5 -7 -11z"/>
<path d="M8530 4924 c0 -17 17 -36 24 -26 3 5 -1 15 -9 22 -8 7 -15 9 -15 4z"/>
<path d="M8499 4915 c-1 -5 0 -14 1 -20 1 -5 -2 -7 -5 -3 -11 10 -47 -11 -39
-23 3 -5 0 -16 -6 -24 -10 -12 -9 -15 4 -15 9 0 16 5 16 10 0 6 8 10 18 10 18
-1 21 2 -43 -46 -11 -8 -14 -12 -7 -9 11 6 18 -21 13 -49 -1 -5 5 -4 13 3 8 7
20 10 26 6 20 -12 48 5 43 26 -3 11 2 28 11 38 15 16 15 19 1 24 -8 4 -15 15
-15 25 0 20 -28 63 -31 47z"/>
<path d="M8576 4814 c-10 -26 -7 -34 12 -34 10 0 23 -5 29 -11 9 -9 21 -5 50
12 l38 24 -35 3 c-19 2 -39 8 -44 13 -15 14 -43 11 -50 -7z"/>
<path d="M8752 4768 c-13 -13 -16 -28 -4 -28 4 0 18 9 32 20 23 18 24 20 5 20
-12 0 -26 -5 -33 -12z"/>
<path d="M7235 4750 c3 -5 8 -10 11 -10 2 0 4 5 4 10 0 6 -5 10 -11 10 -5 0
-7 -4 -4 -10z"/>
<path d="M8606 4705 c4 -8 15 -20 26 -26 13 -7 17 -16 13 -30 -4 -10 -4 -19
-1 -19 15 0 86 43 86 52 0 6 -6 5 -15 -2 -8 -7 -15 -9 -15 -6 0 4 -9 2 -20 -4
-12 -7 -20 -7 -20 -1 0 5 -13 19 -30 31 -23 16 -28 18 -24 5z"/>
<path d="M8510 4676 c0 -2 7 -7 16 -10 8 -3 12 -2 9 4 -6 10 -25 14 -25 6z"/>
<path d="M8120 4622 c-8 -3 -20 -11 -27 -17 -17 -17 85 -63 179 -80 40 -7 87
-17 103 -22 17 -5 53 -7 80 -6 94 4 116 13 108 42 -5 20 -49 48 -60 38 -3 -4
-12 -2 -19 4 -10 8 -15 7 -20 -4 -6 -17 -19 -17 -52 2 -13 7 -47 14 -76 16
-29 1 -61 5 -72 8 -10 3 -41 8 -67 11 -27 3 -52 7 -55 10 -4 2 -14 1 -22 -2z"/>
<path d="M7307 4509 c10 -17 25 -36 33 -42 10 -8 9 -4 -3 13 -10 14 -20 33
-24 43 -3 9 -10 17 -15 17 -5 0 -1 -14 9 -31z"/>
<path d="M7430 4408 c0 -4 18 -16 40 -27 22 -10 40 -15 40 -10 0 5 -7 12 -16
16 -8 3 -13 11 -11 17 3 6 -7 11 -24 11 -16 0 -29 -3 -29 -7z"/>
<path d="M9976 10462 c-2 -4 6 -9 20 -10 13 -1 24 3 24 8 0 12 -37 14 -44 2z"/>
<path d="M2988 10454 c-5 -4 -8 -64 -8 -133 l0 -126 24 36 c29 43 40 134 16
134 -11 0 -16 14 -20 48 -3 27 -8 45 -12 41z"/>
<path d="M9900 10430 c-14 -11 -20 -20 -14 -20 21 0 74 22 74 31 0 16 -34 9
-60 -11z"/>
<path d="M3509 10389 c-8 -4 -14 -12 -14 -18 0 -12 -43 -51 -143 -130 -83 -66
-100 -87 -82 -105 6 -6 23 1 52 22 87 66 164 112 186 112 28 0 62 -17 62 -30
0 -6 -39 -30 -88 -54 -73 -37 -91 -51 -112 -87 -34 -60 -41 -77 -30 -84 13 -8
39 5 45 23 8 25 72 65 92 58 9 -4 41 1 70 10 l54 17 23 -24 c15 -15 26 -42 30
-73 6 -48 6 -49 -13 -32 -11 10 -21 32 -23 50 -3 28 -6 31 -37 29 -22 -1 -56
-16 -93 -42 -32 -22 -65 -38 -73 -35 -7 3 -22 1 -31 -4 -30 -17 -44 -89 -44
-237 0 -77 -5 -201 -10 -275 -14 -191 -13 -214 4 -321 16 -107 13 -139 -15
-139 -10 0 -25 -9 -33 -21 -8 -12 -19 -18 -25 -15 -6 4 -21 -3 -34 -16 -13
-13 -32 -22 -44 -20 -11 2 -27 -4 -36 -12 -9 -9 -24 -16 -34 -16 -11 0 -24 -5
-31 -12 -9 -9 -15 -8 -27 8 -29 37 -77 208 -87 309 -9 95 -5 480 8 715 4 73 3
102 -5 95 -12 -12 -32 -454 -32 -700 1 -88 6 -213 12 -279 11 -107 11 -119 -4
-128 -10 -5 -17 -21 -17 -38 0 -24 5 -31 28 -36 60 -15 82 -62 37 -82 -46 -21
-22 -72 34 -72 26 0 27 12 1 35 -15 13 -17 22 -10 29 17 16 129 -110 130 -145
0 -51 86 -232 178 -374 110 -170 280 -362 386 -435 25 -17 46 -35 46 -40 0
-17 -184 -90 -385 -155 -76 -24 -202 -38 -211 -24 -7 12 -61 11 -69 -1 -3 -5
-18 -10 -32 -10 -15 0 -41 -5 -59 -12 -33 -12 -34 -11 -115 68 -45 43 -119
129 -164 190 -45 60 -113 137 -150 170 -37 32 -97 87 -134 121 -37 34 -96 84
-132 111 -93 71 -147 143 -199 263 -26 60 -46 96 -48 86 -3 -15 -11 -11 -44
22 -22 23 -41 41 -43 41 -2 0 -1 -16 2 -35 6 -40 1 -43 -34 -15 -27 21 -53 13
-53 -17 0 -11 4 -11 21 -2 24 12 45 -7 308 -286 159 -169 139 -150 268 -261
104 -88 124 -114 89 -114 -27 0 -165 71 -183 94 -14 17 -26 23 -45 19 -22 -4
-27 1 -48 51 -22 54 -68 106 -94 106 -14 0 -45 33 -72 77 -49 78 -120 165
-149 183 -18 11 -45 40 -60 65 -34 52 -45 56 -45 16 0 -39 22 -97 58 -157 30
-49 31 -51 17 -92 -12 -34 -13 -64 -6 -156 10 -120 24 -164 66 -220 22 -29 24
-37 15 -62 -14 -36 -5 -72 25 -104 13 -14 25 -33 27 -44 1 -10 14 -23 27 -27
l23 -9 -20 33 c-16 28 -62 139 -62 151 0 2 7 7 15 10 20 7 133 -96 193 -176
24 -32 48 -58 53 -58 13 0 37 -41 43 -72 3 -19 0 -28 -9 -28 -7 0 -20 -3 -29
-6 -10 -4 -36 13 -73 48 -32 29 -69 62 -83 73 l-25 20 20 -24 c11 -13 59 -64
107 -112 49 -49 88 -94 88 -101 1 -21 66 -58 79 -45 17 17 51 -21 52 -57 1
-72 32 -133 92 -186 94 -81 123 -92 272 -102 72 -4 157 -14 190 -21 56 -11 60
-14 63 -42 2 -16 8 -35 13 -41 27 -33 115 -18 164 27 28 26 38 28 140 34 287
16 484 68 572 152 l36 33 46 -43 c63 -59 127 -101 219 -145 63 -30 88 -37 137
-37 167 1 345 164 445 404 31 75 69 213 90 321 11 56 19 72 60 115 26 28 56
65 65 84 16 32 16 37 -1 88 -17 50 -17 54 -1 70 11 11 20 14 26 8 5 -6 39
-149 75 -318 36 -170 69 -313 72 -318 3 -6 0 -16 -6 -24 -10 -12 -7 -21 17
-47 73 -81 111 -115 143 -128 42 -16 70 -38 70 -56 0 -18 60 -58 70 -48 11 11
-6 204 -20 218 -13 13 -13 63 0 68 6 2 6 25 -1 68 -5 35 -8 74 -5 86 3 12 -1
39 -10 60 -16 38 -16 39 9 60 22 18 25 28 20 62 -6 48 12 63 74 59 29 -1 37 1
34 13 -14 60 -13 92 4 110 25 28 52 25 86 -9 33 -33 35 -47 14 -87 -20 -39 -7
-47 54 -31 48 12 55 17 66 51 7 20 11 46 8 56 -3 12 0 20 6 20 7 0 9 5 6 10
-3 6 4 24 16 42 18 25 24 49 27 115 4 81 3 85 -23 113 -17 17 -23 30 -16 34 6
4 11 16 11 28 0 17 -4 19 -27 13 -42 -12 -112 -24 -167 -30 -88 -9 -122 40
-75 106 19 27 19 29 2 29 -10 0 -37 -14 -61 -30 -24 -16 -50 -26 -58 -23 -10
3 -12 0 -8 -10 3 -8 -2 -29 -10 -46 -22 -42 -20 -53 17 -96 32 -37 32 -39 23
-95 -7 -46 -6 -63 7 -89 16 -32 16 -34 -10 -68 -19 -25 -28 -48 -28 -77 0 -22
-4 -47 -9 -55 -5 -8 -8 -36 -7 -63 1 -33 -5 -63 -22 -97 l-23 -49 -27 31 c-16
18 -26 40 -23 49 2 10 0 20 -4 23 -5 3 -12 27 -15 53 -8 56 -50 201 -75 257
-51 115 -60 141 -64 174 -17 147 -17 157 -3 184 10 19 17 24 20 15 3 -7 6 1 6
17 1 40 30 59 59 39 16 -11 35 -13 72 -8 32 4 55 2 64 -5 11 -9 18 4 40 69
l26 80 -26 39 c-22 34 -24 42 -13 63 12 21 13 87 2 98 -7 8 -53 -49 -53 -66 0
-25 -57 -17 -89 14 -25 24 -29 37 -35 105 -8 98 -28 149 -71 181 -41 31 -39
31 -64 5 l-20 -22 -5 24 c-11 60 -26 188 -26 230 0 25 -3 48 -6 52 -3 3 -7 64
-8 136 -1 121 -3 132 -23 153 -20 20 -26 21 -56 10 -43 -15 -67 -15 -90 2 -23
17 -49 11 -78 -20 -17 -18 -26 -21 -41 -13 -22 12 -47 5 -82 -22 -17 -14 -28
-36 -36 -77 -17 -84 -31 -120 -50 -125 -13 -3 -18 -20 -22 -63 -9 -99 -68
-218 -94 -192 -4 4 6 47 21 95 15 48 27 100 27 116 0 15 3 27 8 27 4 0 6 9 3
20 -7 27 -20 17 -20 -16 0 -14 -5 -35 -11 -47 -74 -149 -124 -367 -149 -647
l-8 -85 -30 3 c-16 1 -42 3 -57 3 -15 0 -30 4 -33 9 -4 6 -14 10 -25 10 -16 0
-17 6 -13 43 l6 42 -22 -19 c-11 -11 -21 -25 -21 -33 0 -7 -6 -13 -14 -13 -22
0 -46 -29 -46 -56 0 -13 -4 -24 -10 -24 -18 0 -11 -43 10 -65 25 -27 18 -60
-10 -45 -20 11 -30 -4 -30 -44 0 -28 -47 -101 -93 -145 -35 -33 -38 -34 -75
-23 -48 15 -82 15 -82 2 0 -25 -51 -8 -145 49 -83 49 -129 72 -141 67 -19 -7
-95 64 -160 152 -32 42 -67 86 -77 97 -11 11 -38 45 -61 75 -22 30 -47 61 -53
68 -20 20 -16 28 20 43 17 7 53 30 78 51 26 21 52 38 58 38 6 0 18 11 27 25 9
14 23 25 30 25 8 0 19 11 24 25 6 17 20 27 40 32 24 4 29 10 24 22 -3 9 -11
34 -16 56 -5 22 -13 44 -19 50 -14 14 -11 25 6 25 30 0 5 45 -30 54 -22 6 -25
12 -23 39 3 44 -7 57 -43 57 -25 0 -29 4 -29 28 0 37 37 437 50 535 5 42 7 97
4 121 -6 39 -4 45 21 62 14 11 38 29 52 42 34 29 43 28 82 -12 36 -37 61 -48
81 -36 9 6 10 19 1 59 -6 29 -8 70 -5 92 9 54 -18 119 -67 164 -40 36 -44 58
-18 91 17 21 -46 59 -72 43z m1429 -904 c4 -60 -24 -188 -46 -214 -9 -10 -28
-22 -41 -26 -23 -7 -23 -6 -16 46 18 143 59 256 88 246 7 -2 13 -25 15 -52z
m139 -51 c-5 -70 -12 -98 -37 -146 -27 -51 -33 -76 -41 -176 -6 -64 -7 -150
-4 -189 l7 -73 -30 0 -29 0 -7 133 c-5 105 -3 141 8 168 8 19 17 61 21 94 9
68 29 132 49 155 8 8 22 39 31 68 26 80 39 66 32 -34z m-277 -7 c0 -56 -17
-151 -37 -204 -10 -29 -22 -43 -39 -47 -30 -8 -30 -20 -3 -40 21 -14 21 -18
10 -73 -6 -33 -19 -63 -29 -70 -48 -34 -55 -52 -21 -60 20 -6 21 -10 15 -89
-7 -78 -6 -83 14 -89 25 -8 64 21 56 42 -11 28 35 362 54 393 11 18 57 -5 63
-33 4 -13 2 -50 -3 -83 -7 -46 -16 -64 -37 -82 l-28 -23 28 -24 c30 -27 37
-80 14 -125 -11 -21 -9 -27 10 -48 22 -24 23 -24 65 -7 24 9 49 21 55 27 9 7
16 2 25 -18 7 -16 15 -31 19 -34 11 -10 18 -40 8 -40 -5 0 -13 8 -16 18 -10
27 -43 44 -43 21 0 -5 4 -7 10 -4 13 8 24 -39 17 -73 -8 -40 7 -62 22 -33 7
12 16 19 22 16 13 -9 11 -49 -3 -63 -17 -17 -38 -15 -38 3 0 8 -6 15 -13 15
-9 0 -13 -11 -12 -30 1 -23 -11 -46 -47 -93 -50 -65 -95 -175 -83 -205 5 -13
12 -7 30 30 38 79 62 113 105 147 l42 33 14 -21 c19 -27 34 -18 34 19 0 20 7
33 21 41 18 9 21 18 16 54 -3 30 2 57 14 85 11 23 26 70 35 103 27 104 62 156
77 115 4 -13 -2 -49 -18 -101 -14 -45 -29 -101 -32 -126 -3 -26 -18 -73 -33
-106 -16 -33 -33 -84 -39 -112 -20 -94 -30 -147 -36 -189 -7 -49 -74 -143
-127 -179 -32 -22 -72 -94 -73 -130 0 -5 -12 -9 -27 -7 -14 2 -29 -1 -32 -7
-5 -7 -15 -6 -32 1 -19 9 -30 9 -45 0 -10 -7 -19 -8 -19 -3 0 5 -10 13 -22 16
-41 12 -87 35 -95 49 -4 7 -16 16 -27 19 -11 5 -16 13 -12 23 3 9 -7 68 -23
132 -66 265 -75 330 -67 517 6 154 30 323 49 342 12 12 47 -30 47 -56 0 -33
-26 -119 -41 -138 -9 -10 -9 -20 0 -39 6 -14 11 -47 11 -74 0 -45 2 -50 22
-50 12 0 30 7 40 17 22 20 25 55 3 47 -20 -8 -20 13 0 146 17 114 32 180 89
395 44 164 60 205 81 205 11 0 15 -11 15 -43z m-1322 -457 c27 -35 29 -51 4
-20 -23 28 -32 23 -73 -40 -18 -28 -39 -50 -46 -50 -7 0 -16 -7 -19 -15 -4 -8
-12 -15 -20 -15 -8 0 -14 -3 -14 -7 0 -11 -78 -41 -125 -48 -37 -6 -41 -4 -52
21 -11 25 -10 31 8 51 12 12 26 20 30 17 5 -3 19 6 32 18 13 13 29 22 35 20 7
-2 24 6 38 17 15 12 37 21 49 21 13 0 25 6 28 13 6 15 64 46 88 47 8 0 25 -13
37 -30z m832 -524 c0 -2 -7 -6 -15 -10 -8 -3 -15 -1 -15 4 0 6 7 10 15 10 8 0
15 -2 15 -4z m-25 -76 c3 -5 16 -10 28 -10 12 0 45 -8 72 -18 l50 -18 0 -84
c1 -47 6 -95 13 -107 20 -35 15 -69 -13 -87 -14 -9 -25 -23 -25 -32 0 -8 -4
-13 -8 -10 -13 8 -88 -34 -174 -96 -118 -85 -128 -94 -169 -150 -43 -58 -50
-93 -19 -103 16 -5 32 6 73 51 28 31 55 62 60 69 8 15 78 60 181 117 l69 38
21 -24 c22 -24 32 -38 67 -93 12 -19 29 -33 40 -33 11 0 27 -4 37 -9 9 -5 24
-12 32 -15 8 -3 23 -11 32 -18 14 -10 22 -10 38 -1 12 8 21 9 25 3 3 -6 19
-10 34 -10 15 0 33 -6 39 -12 10 -10 17 -10 33 1 15 9 24 10 32 2 15 -15 54
-14 60 2 6 14 0 -88 -6 -118 -25 -110 -86 -233 -155 -312 -114 -132 -147 -164
-195 -188 -57 -28 -107 -33 -107 -10 0 8 -16 19 -40 25 -33 9 -44 8 -65 -6
-39 -26 -122 -2 -203 58 -13 9 -30 14 -37 11 -20 -7 -103 35 -120 61 -21 33
-53 137 -66 215 -9 55 -9 88 1 148 14 87 58 218 88 260 25 35 101 186 140 278
30 71 43 108 62 182 10 39 20 48 57 52 6 0 15 -3 18 -9z m-2240 -143 c12 -24
16 -43 11 -63 l-8 -29 -19 24 c-19 23 -27 101 -11 101 5 0 17 -15 27 -33z
m178 -173 c33 -22 37 -29 32 -53 -5 -23 -1 -31 22 -47 54 -36 78 -45 211 -80
74 -19 138 -37 142 -39 5 -3 16 -27 26 -53 22 -60 45 -94 110 -162 29 -30 71
-79 94 -108 58 -72 72 -79 113 -49 50 38 75 40 113 9 19 -15 34 -35 34 -44 0
-9 4 -19 9 -22 5 -4 12 -25 16 -49 4 -23 10 -46 14 -52 14 -23 28 -121 19
-137 -5 -11 -5 -25 1 -37 7 -13 6 -23 -3 -36 -13 -17 -18 -17 -130 5 -64 12
-116 27 -116 31 0 5 -17 9 -37 9 -139 0 -336 221 -362 405 -7 47 -7 73 0 82 8
9 5 20 -13 42 -17 21 -57 42 -154 80 -149 58 -181 79 -236 153 -22 29 -45 56
-51 60 -7 4 5 14 28 24 31 13 48 14 78 7 45 -12 49 1 12 45 -42 50 -30 56 28
16z m-143 -154 c0 -13 -4 -12 -33 1 -37 17 -51 47 -36 75 12 23 12 23 40 -22
16 -24 29 -49 29 -54z m2470 35 c7 -8 18 -15 24 -15 6 0 19 -9 29 -20 9 -11
26 -20 36 -20 11 0 23 -5 27 -11 4 -7 21 -9 40 -6 19 3 36 1 40 -4 3 -6 18 -9
32 -8 15 2 37 -3 50 -10 13 -7 30 -10 38 -7 8 3 13 2 9 -3 -3 -5 1 -12 7 -14
7 -3 3 -6 -9 -6 -13 -1 -23 -5 -23 -11 0 -10 -63 -6 -93 5 -10 4 -24 1 -34 -6
-13 -11 -17 -11 -20 -1 -3 6 -15 12 -28 12 -12 0 -28 7 -35 15 -7 9 -20 13
-28 10 -17 -6 -62 31 -62 51 0 7 -6 17 -13 21 -8 4 -16 16 -20 26 -8 21 15 23
33 2z m-650 -158 c0 -7 -7 -23 -16 -35 -9 -13 -13 -29 -10 -37 3 -8 -1 -45 -9
-83 -8 -38 -15 -102 -16 -143 -1 -41 -6 -87 -12 -104 -12 -34 -65 -95 -83 -95
-7 0 -28 -18 -47 -40 -35 -42 -110 -100 -127 -100 -5 0 -10 -4 -10 -9 0 -9
-26 -16 -120 -30 -71 -11 -90 -20 -98 -42 -4 -10 -7 24 -6 74 0 60 -4 100 -13
114 -7 13 -11 34 -7 47 3 13 1 27 -5 30 -6 4 -11 18 -11 30 0 13 -7 29 -15 36
-9 7 -13 20 -10 29 3 10 -2 26 -10 37 -8 10 -15 27 -15 36 0 9 -8 21 -17 27
-19 10 -12 23 14 27 10 2 26 7 38 12 11 5 40 16 65 23 25 7 50 15 55 18 6 3
15 6 20 7 10 1 63 16 176 50 25 7 53 16 62 20 10 3 17 1 17 -6 0 -6 -4 -8 -10
-5 -5 3 -10 1 -10 -6 0 -7 10 -9 28 -5 15 3 42 9 60 12 18 4 31 12 29 18 -5
12 -20 13 -54 2 -58 -18 45 74 107 97 28 10 60 7 60 -6z m-1454 -164 c3 -16 7
-34 10 -40 2 -7 -1 -13 -6 -13 -8 0 -11 8 -26 63 -3 9 -1 17 5 17 6 0 13 -12
17 -27z m781 -245 c-3 -8 -6 -5 -6 6 -1 11 2 17 5 13 3 -3 4 -12 1 -19z m23
-54 c0 -8 -4 -14 -10 -14 -5 0 -10 9 -10 21 0 11 5 17 10 14 6 -3 10 -13 10
-21z m20 -55 c0 -5 -4 -9 -10 -9 -5 0 -10 7 -10 16 0 8 5 12 10 9 6 -3 10 -10
10 -16z m0 -63 c0 -17 -14 -29 -23 -20 -8 8 3 34 14 34 5 0 9 -6 9 -14z"/>
<path d="M3638 7643 c7 -3 16 -2 19 1 4 3 -2 6 -13 5 -11 0 -14 -3 -6 -6z"/>
<path d="M9746 10384 c-3 -9 -6 -31 -6 -50 0 -41 -31 -138 -60 -187 -12 -20
-17 -38 -11 -41 5 -3 9 -38 10 -77 l1 -72 54 -57 c55 -57 73 -98 92 -203 9
-51 35 -46 52 11 11 34 18 42 38 42 13 0 26 -1 27 -2 2 -2 12 3 21 11 29 25
55 86 61 147 4 33 11 61 16 62 5 2 9 13 9 25 0 23 -73 77 -104 77 -22 0 -116
48 -116 59 0 20 30 28 103 28 42 0 79 2 82 5 3 2 8 19 11 36 8 40 -2 41 -111
7 -79 -25 -104 -22 -92 8 3 8 52 33 109 55 57 23 115 47 130 55 l27 13 -29 17
c-39 24 -74 18 -158 -25 -102 -53 -144 -50 -122 6 7 19 6 32 -3 46 -14 24 -23
25 -31 4z"/>
<path d="M9516 10061 c-10 -73 3 -181 21 -181 13 0 14 17 8 108 -8 120 -19
148 -29 73z"/>
<path d="M3500 9651 c0 -11 5 -23 10 -26 6 -3 10 3 10 14 0 11 -4 23 -10 26
-5 3 -10 -3 -10 -14z"/>
<path d="M7432 9510 c0 -14 2 -19 5 -12 2 6 2 18 0 25 -3 6 -5 1 -5 -13z"/>
<path d="M1756 9420 c3 -19 10 -39 15 -44 13 -14 10 2 -7 44 l-14 35 6 -35z"/>
<path d="M9417 8975 c-10 -9 -17 -30 -17 -46 0 -30 -65 -101 -240 -266 -121
-113 -210 -215 -210 -239 0 -23 20 -16 30 10 6 16 18 26 37 28 23 2 29 10 39
43 10 36 14 40 42 40 25 0 49 17 125 87 59 54 107 108 126 143 17 30 49 74 71
96 45 47 45 45 27 89 -13 29 -15 31 -30 15z"/>
<path d="M5930 8969 c0 -7 -7 -20 -16 -30 -13 -14 -13 -21 -4 -40 7 -13 10
-39 7 -64 -4 -27 -2 -46 6 -54 7 -7 12 -24 13 -39 0 -15 4 -34 8 -43 5 -11 0
-24 -15 -38 -21 -19 -22 -24 -11 -54 7 -19 12 -59 12 -90 0 -31 5 -59 10 -62
6 -3 10 -16 10 -28 l1 -22 19 24 20 23 0 -25 c0 -13 7 -30 15 -37 9 -7 12 -22
9 -39 -4 -18 0 -33 11 -44 10 -10 14 -25 10 -36 -4 -13 1 -27 14 -40 12 -12
21 -29 21 -38 0 -23 11 -38 32 -46 9 -3 18 -16 20 -29 2 -13 13 -27 26 -33 12
-5 22 -17 22 -26 0 -26 27 -42 60 -35 25 4 30 2 30 -13 0 -24 25 -45 48 -39
12 3 24 -2 31 -15 10 -15 20 -18 47 -14 45 8 56 -15 21 -43 -13 -11 -28 -31
-31 -45 -7 -28 17 -95 34 -95 7 0 9 -12 5 -34 -6 -29 -3 -37 19 -51 24 -16 28
-16 52 0 20 13 25 23 21 43 -4 18 2 35 19 55 32 38 32 86 -1 121 -32 35 -24
56 19 49 22 -3 36 0 45 11 7 9 24 16 37 16 25 0 54 24 54 45 0 8 11 12 31 11
30 -1 46 14 74 69 8 16 85 257 85 267 0 4 -6 8 -14 8 -16 0 -31 -34 -22 -49 3
-5 -1 -14 -9 -21 -8 -7 -15 -25 -15 -41 0 -16 -5 -29 -10 -29 -6 0 -16 -12
-23 -27 -6 -16 -20 -34 -29 -41 -10 -7 -18 -19 -18 -26 0 -7 -13 -22 -30 -34
-16 -13 -30 -29 -30 -37 0 -11 -8 -13 -29 -9 -23 5 -32 2 -42 -15 -9 -14 -20
-19 -34 -15 -13 3 -28 -2 -39 -15 -14 -16 -23 -18 -37 -10 -10 5 -30 7 -43 3
-17 -4 -31 0 -42 10 -9 9 -24 14 -33 11 -11 -3 -25 3 -36 15 -20 23 -45 26
-63 8 -9 -9 -12 -6 -12 15 0 19 -7 31 -24 38 -13 6 -29 22 -35 35 -6 14 -18
27 -26 30 -8 4 -15 14 -15 24 0 9 -9 25 -20 35 -12 10 -19 24 -16 31 3 7 -2
20 -9 31 -8 10 -15 30 -15 44 0 15 -6 32 -13 38 -8 6 -12 23 -9 41 2 17 -1 36
-7 44 -9 11 2 24 54 65 59 47 115 115 115 141 0 13 -64 13 -112 -1 -24 -6 -38
-16 -38 -26 0 -13 -3 -13 -15 -3 -14 12 -19 7 -16 -13 1 -5 -3 -5 -10 -2 -6 4
-8 17 -5 29 3 13 -1 31 -9 42 -7 10 -12 28 -9 40 3 13 -2 28 -13 39 -10 11
-16 29 -15 45 2 15 -3 32 -11 39 -8 6 -13 21 -10 31 3 11 -1 28 -8 37 -8 9
-14 25 -14 36 0 11 -6 22 -12 24 -7 3 -13 -1 -13 -8z"/>
<path d="M6999 8945 c-1 -16 -1 -46 0 -67 2 -23 -3 -39 -12 -45 -11 -6 -13
-22 -9 -65 2 -33 9 -55 14 -52 5 4 7 16 4 29 -4 14 0 28 9 35 11 9 15 32 14
84 0 76 -16 138 -20 81z"/>
<path d="M3620 8822 c0 -8 27 -33 50 -47 8 -4 2 6 -14 23 -31 34 -36 37 -36
24z"/>
<path d="M8364 8715 c0 -55 1 -76 3 -47 2 29 2 74 0 100 -2 26 -3 2 -3 -53z"/>
<path d="M8480 8712 c0 -12 19 -26 26 -19 2 2 -2 10 -11 17 -9 8 -15 8 -15 2z"/>
<path d="M6218 8693 c7 -3 16 -2 19 1 4 3 -2 6 -13 5 -11 0 -14 -3 -6 -6z"/>
<path d="M3770 8675 c0 -5 86 -65 94 -65 17 0 2 20 -32 44 -35 24 -62 33 -62
21z"/>
<path d="M4021 8470 c12 -33 19 -36 37 -18 17 17 15 23 -13 36 -35 16 -35 16
-24 -18z"/>
<path d="M6925 8419 c-4 -6 -5 -13 -2 -16 7 -7 27 6 27 18 0 12 -17 12 -25 -2z"/>
<path d="M7191 8364 c11 -13 8 -19 -21 -42 -52 -40 -92 -52 -129 -36 -19 8
-33 23 -37 38 -7 30 -20 32 -54 9 -14 -10 -32 -16 -41 -15 -12 2 -20 -10 -29
-43 -13 -47 -8 -67 12 -47 9 9 16 8 29 -4 16 -15 17 -19 4 -43 -7 -15 -20 -33
-29 -40 -8 -7 -20 -43 -27 -81 -11 -66 -11 -69 15 -115 29 -54 22 -81 -20 -71
-18 5 -23 1 -26 -16 -10 -64 44 -108 132 -108 50 0 67 13 32 25 -19 5 -42 44
-42 69 0 18 40 52 69 59 25 6 90 -21 124 -51 11 -10 21 -12 25 -7 4 6 21 18
37 27 38 21 57 81 62 195 3 61 0 91 -11 114 -12 23 -12 30 -2 26 29 -11 59 33
66 99 l6 54 -21 -20 c-28 -27 -39 -25 -75 10 -33 32 -74 44 -49 14z"/>
<path d="M5735 8350 c3 -5 10 -10 16 -10 5 0 9 5 9 10 0 6 -7 10 -16 10 -8 0
-12 -4 -9 -10z"/>
<path d="M8556 8173 c28 -93 53 -250 59 -375 7 -155 16 -182 67 -214 35 -22
98 -104 98 -127 0 -5 29 -48 64 -96 35 -47 87 -129 117 -181 29 -52 73 -126
97 -164 26 -41 42 -76 39 -87 -4 -13 0 -19 13 -19 9 0 46 -13 81 -29 87 -40
232 -87 304 -100 127 -24 282 -50 325 -56 58 -8 110 -32 110 -50 0 -18 37 -38
55 -31 7 2 19 -2 25 -10 20 -23 51 -16 84 19 31 33 32 33 79 21 38 -10 47 -10
47 1 0 8 8 15 18 18 14 3 12 6 -10 15 -37 15 -44 31 -19 48 28 20 13 50 -30
59 -19 4 -35 16 -42 32 -8 19 -17 23 -35 20 -17 -3 -20 -1 -13 6 6 6 11 21 11
33 0 12 7 27 15 34 8 7 15 25 15 40 0 16 7 30 15 34 8 3 15 10 15 15 0 11 46
61 71 76 72 44 75 45 108 29 24 -12 29 -19 21 -29 -15 -18 6 -24 66 -19 27 2
90 5 141 7 50 1 94 5 98 9 12 12 -62 20 -144 17 l-79 -4 -6 34 c-5 36 -31 71
-51 71 -7 0 -18 7 -25 15 -9 10 -31 13 -88 11 -90 -3 -118 -9 -143 -32 -11
-10 -19 -13 -19 -9 0 4 -9 0 -20 -10 -11 -10 -20 -24 -20 -32 0 -7 -5 -13 -10
-13 -13 0 -69 -61 -70 -76 0 -6 -11 -16 -25 -22 -17 -8 -25 -20 -25 -36 0 -13
-7 -26 -15 -30 -8 -3 -15 -12 -15 -21 0 -9 -9 -28 -21 -44 -22 -31 -22 -31
-149 -12 -36 6 -92 13 -125 16 -88 9 -223 34 -277 51 -43 14 -52 23 -95 92
-26 42 -59 91 -73 107 -14 17 -46 64 -70 104 -25 41 -78 106 -117 146 -40 39
-73 79 -73 87 0 8 -9 23 -20 33 -11 10 -22 33 -26 51 -5 28 -11 34 -33 34 -18
0 -43 17 -83 59 -54 54 -60 64 -79 141 -12 51 -19 108 -18 149 2 52 -2 75 -20
111 -32 63 -75 130 -83 130 -3 0 0 -21 8 -47z m1619 -1033 c3 -5 -1 -10 -9
-10 -9 0 -16 5 -16 10 0 6 4 10 9 10 6 0 13 -4 16 -10z m-55 -39 c0 -6 -4 -13
-10 -16 -5 -3 -10 1 -10 9 0 9 5 16 10 16 6 0 10 -4 10 -9z m-54 -90 c-9 -10
-16 -25 -16 -33 0 -9 -7 -21 -15 -28 -8 -7 -15 -18 -15 -24 -1 -10 -45 -66
-53 -66 -9 0 6 60 18 70 7 6 11 19 8 29 -3 11 2 21 11 24 9 4 16 15 16 25 0
10 11 24 25 30 14 6 26 17 26 24 1 7 4 3 6 -10 3 -13 -2 -31 -11 -41z"/>
<path d="M5905 7870 c-3 -5 -1 -10 4 -10 6 0 11 5 11 10 0 6 -2 10 -4 10 -3 0
-8 -4 -11 -10z"/>
<path d="M7980 7622 c-21 -17 -21 -19 -4 -32 16 -14 17 -13 11 3 -4 11 -3 16
3 12 6 -3 13 1 16 10 10 24 -1 27 -26 7z"/>
<path d="M9253 7620 c9 -6 17 -19 17 -28 0 -13 24 -26 93 -49 50 -17 115 -37
142 -43 28 -7 75 -21 105 -32 30 -11 51 -15 45 -10 -19 17 -352 162 -386 168
-28 4 -31 3 -16 -6z"/>
<path d="M7243 7480 c0 -30 2 -43 4 -27 2 15 2 39 0 55 -2 15 -4 2 -4 -28z"/>
<path d="M11328 7460 c-7 -11 -20 -20 -29 -20 -27 0 -41 -24 -26 -44 17 -23
56 -18 71 9 6 11 19 26 29 33 14 11 15 17 6 28 -16 20 -37 17 -51 -6z"/>
<path d="M5946 7403 c3 -16 -2 -72 -10 -125 -14 -88 -13 -158 3 -158 27 1 33
24 38 136 5 116 -4 174 -27 174 -5 0 -7 -12 -4 -27z"/>
<path d="M6750 7339 c0 -5 5 -7 10 -4 6 3 10 8 10 11 0 2 -4 4 -10 4 -5 0 -10
-5 -10 -11z"/>
<path d="M11093 7339 c-23 -4 -52 -13 -65 -20 -37 -19 -107 -79 -125 -106 -16
-24 -16 -26 0 -38 24 -17 22 -54 -4 -63 -18 -7 -10 -13 52 -41 41 -18 81 -38
89 -45 8 -7 40 -23 71 -35 31 -12 66 -31 78 -42 49 -46 7 -75 -74 -52 -27 8
-86 24 -130 35 -43 11 -96 28 -117 39 -48 25 -148 27 -148 3 0 -9 -10 -25 -22
-35 -29 -26 -123 -69 -148 -69 -38 0 -126 48 -170 94 -43 45 -81 59 -95 36 -7
-11 55 -98 100 -140 36 -33 32 -64 -11 -97 -20 -15 -45 -36 -56 -46 -10 -10
-29 -22 -41 -26 l-21 -8 21 -13 c21 -13 20 -14 -13 -45 -24 -23 -34 -41 -34
-63 0 -66 43 -110 56 -57 3 13 15 27 26 31 28 9 174 -5 236 -22 102 -28 339
-154 357 -189 6 -11 25 -40 43 -64 26 -36 32 -40 32 -23 0 31 15 27 30 -8 13
-32 62 -73 96 -82 16 -4 25 1 33 19 14 30 14 88 1 114 -8 15 -7 21 3 25 26 10
-3 74 -70 154 -82 97 -107 180 -54 180 12 0 25 -13 35 -37 33 -75 117 -183
142 -183 28 0 15 51 -25 96 -22 25 -54 74 -73 110 l-33 65 30 25 c17 13 36 24
42 24 20 0 42 -42 53 -98 11 -62 73 -187 95 -196 30 -11 35 -7 35 29 0 42 -12
71 -68 159 l-44 69 13 61 c7 34 20 76 29 94 l18 32 16 -25 c9 -13 16 -29 16
-35 0 -6 8 -22 17 -37 27 -41 41 -151 28 -223 -4 -22 -2 -41 7 -53 13 -17 15
-17 55 3 61 29 77 65 78 175 1 89 26 185 47 185 5 0 18 -21 30 -47 18 -40 22
-44 31 -28 15 27 2 171 -18 202 -16 24 -19 25 -30 10 -19 -26 -32 -21 -59 21
-30 48 -113 117 -173 145 -70 31 -246 36 -323 8 -30 -11 -56 -18 -58 -16 -11
11 15 49 46 69 98 63 255 60 425 -9 36 -15 15 15 -28 41 -86 50 -205 77 -282
63z m159 -253 c4 -5 4 -14 2 -18 -3 -4 -1 -8 5 -8 5 0 11 6 14 13 3 9 10 9 30
-2 34 -18 34 -29 -5 -82 -31 -43 -31 -43 -46 -21 -8 12 -21 22 -28 22 -8 0
-14 6 -14 13 0 7 -10 17 -22 22 -26 11 -37 63 -17 76 16 10 72 0 81 -15z m155
-102 c3 -9 1 -32 -6 -51 -11 -28 -10 -37 1 -51 31 -38 42 -70 29 -86 -11 -13
-9 -20 8 -42 15 -19 21 -41 21 -75 0 -60 -12 -68 -41 -28 -21 30 -79 188 -79
216 0 7 -11 13 -26 13 -22 0 -25 2 -14 15 7 8 23 15 36 15 21 0 24 5 24 38 0
21 3 42 7 45 12 12 34 7 40 -9z m-230 -201 c-16 -16 -18 -16 -34 0 -16 16 -15
17 17 17 32 0 33 -1 17 -17z m-241 -77 c-7 -36 -32 -76 -47 -76 -7 0 -9 10 -5
25 6 22 2 27 -24 36 -28 10 -38 28 -24 41 3 3 28 5 55 4 50 -1 50 -1 45 -30z"/>
<path d="M6525 7240 c-3 -5 -3 -10 0 -10 4 0 -3 -13 -14 -29 -12 -16 -21 -34
-21 -39 0 -6 -8 -18 -17 -28 -13 -13 -14 -16 -3 -12 18 5 66 73 75 106 6 22
-8 31 -20 12z"/>
<path d="M6605 7175 c-15 -31 -25 -59 -22 -62 4 -3 26 -8 50 -10 55 -6 88 -49
80 -102 -4 -24 -2 -32 6 -27 6 4 11 23 11 42 0 19 6 50 14 69 15 35 12 99 -6
121 -4 6 -27 10 -51 9 -23 -1 -45 2 -48 7 -3 5 -18 -16 -34 -47z"/>
<path d="M6077 7183 c3 -8 8 -11 11 -8 3 3 14 -2 24 -12 17 -15 18 -15 18 1 0
9 -5 14 -10 11 -6 -3 -13 0 -16 8 -2 7 -11 14 -18 14 -8 0 -12 -7 -9 -14z"/>
<path d="M6150 7151 c0 -6 4 -13 10 -16 6 -3 7 1 4 9 -7 18 -14 21 -14 7z"/>
<path d="M6228 7123 c7 -3 16 -2 19 1 4 3 -2 6 -13 5 -11 0 -14 -3 -6 -6z"/>
<path d="M6180 7100 c0 -5 5 -10 11 -10 5 0 7 5 4 10 -3 6 -8 10 -11 10 -2 0
-4 -4 -4 -10z"/>
<path d="M6125 7090 c4 -6 11 -8 16 -5 14 9 11 15 -7 15 -8 0 -12 -5 -9 -10z"/>
<path d="M4385 6570 c-27 -5 -101 -13 -163 -19 -110 -11 -214 -39 -278 -75
l-29 -17 30 5 c17 3 66 11 110 19 44 8 121 21 170 27 50 7 114 22 144 33 36
13 68 18 97 14 24 -2 44 -1 44 4 0 5 -8 9 -17 9 -10 0 -27 2 -38 4 -11 2 -42
0 -70 -4z"/>
<path d="M10284 6447 c-9 -28 0 -30 24 -4 21 22 21 23 2 23 -11 0 -23 -9 -26
-19z"/>
<path d="M10535 6436 c-11 -9 -31 -24 -45 -35 l-25 -19 37 -35 c49 -46 157
-97 206 -97 33 0 45 6 67 31 64 76 -8 154 -153 166 -52 4 -72 1 -87 -11z"/>
<path d="M10433 6332 c14 -22 23 -42 20 -45 -2 -3 13 -17 35 -31 44 -28 162
-79 168 -73 6 5 -48 43 -74 51 -13 4 -42 27 -65 50 -23 22 -57 52 -76 65 l-33
24 25 -41z"/>
<path d="M10376 6348 c3 -5 10 -6 15 -3 13 9 11 12 -6 12 -8 0 -12 -4 -9 -9z"/>
<path d="M5161 6144 c20 -23 30 -62 18 -66 -5 -2 -2 -16 6 -32 19 -37 19 -36
-11 -36 -14 0 -35 -5 -46 -11 -16 -9 -26 -7 -49 10 -25 19 -62 30 -46 15 3 -4
0 -13 -8 -20 -10 -11 -20 -12 -40 -4 -14 5 -37 10 -51 10 -13 0 -41 15 -61 33
-78 67 -121 90 -124 67 -1 -5 -2 -14 -3 -20 0 -5 -10 -16 -21 -25 -11 -9 -14
-13 -6 -9 9 5 12 3 7 -4 -4 -7 -14 -12 -22 -12 -8 0 -12 5 -9 10 3 6 0 10 -8
10 -8 0 -34 9 -58 20 -47 21 -74 26 -65 11 6 -9 -54 1 -73 13 -6 4 -11 3 -11
-1 0 -11 68 -75 100 -94 29 -18 202 -79 222 -79 8 0 48 -18 90 -39 42 -21 91
-42 110 -46 46 -10 90 -34 83 -45 -3 -5 12 -21 34 -34 22 -14 42 -30 45 -35 4
-6 39 -20 79 -32 124 -37 211 -74 283 -118 38 -24 104 -62 147 -86 l77 -43 0
34 c0 29 -6 38 -32 52 -17 9 -38 25 -47 35 -9 10 -33 36 -54 58 -64 66 -65
111 -4 132 23 8 13 27 -14 27 -28 0 -77 27 -113 62 -17 16 -44 36 -59 44 -17
9 -30 26 -34 45 -3 18 -21 41 -44 60 -22 17 -39 36 -39 42 0 26 -91 98 -140
112 -24 7 -24 7 -9 -11z"/>
<path d="M10900 6120 c-8 -5 -23 -7 -32 -4 -10 3 -18 1 -18 -5 0 -10 56 -26
77 -23 6 2 14 -2 18 -8 3 -5 13 -10 22 -10 12 0 13 3 3 15 -6 8 -8 20 -4 26 5
9 1 10 -14 7 -12 -4 -22 -2 -22 3 0 12 -11 11 -30 -1z"/>
<path d="M3091 5872 c-21 -50 -10 -258 18 -336 33 -95 44 -94 36 4 -4 47 -11
105 -17 130 -5 25 -13 88 -16 140 -7 93 -7 94 -21 62z"/>
<path d="M5365 5172 c-60 -21 -114 -40 -120 -43 -5 -4 -26 -10 -45 -14 -19 -4
-107 -24 -195 -45 -88 -21 -180 -41 -205 -45 -25 -4 -71 -16 -103 -26 -31 -10
-97 -23 -145 -30 -107 -13 -127 -20 -87 -28 65 -14 399 41 640 104 178 46 370
123 390 156 10 15 -13 10 -130 -29z"/>
<path d="M10154 5163 c9 -17 35 -210 37 -268 l1 -50 9 50 c16 83 -4 220 -37
260 -8 11 -13 15 -10 8z"/>
<path d="M4268 4963 c7 -3 16 -2 19 1 4 3 -2 6 -13 5 -11 0 -14 -3 -6 -6z"/>
<path d="M3351 4905 c1 -35 14 -71 22 -58 4 6 0 26 -8 44 -9 22 -14 27 -14 14z"/>
<path d="M3331 4824 c0 -11 3 -14 6 -6 3 7 2 16 -1 19 -3 4 -6 -2 -5 -13z"/>
<path d="M3341 4784 c0 -11 3 -14 6 -6 3 7 2 16 -1 19 -3 4 -6 -2 -5 -13z"/>
<path d="M5375 4747 c-11 -7 -56 -28 -100 -46 -44 -18 -114 -48 -155 -67 -41
-18 -99 -41 -128 -50 -29 -9 -55 -21 -58 -26 -8 -13 56 -6 111 12 97 30 282
121 325 159 36 31 39 40 5 18z"/>
<path d="M4280 4496 c0 -2 7 -6 15 -10 8 -3 15 -1 15 4 0 6 -7 10 -15 10 -8 0
-15 -2 -15 -4z"/>
<path d="M4350 4456 c0 -2 7 -7 16 -10 8 -3 12 -2 9 4 -6 10 -25 14 -25 6z"/>
<path d="M4393 4440 c2 -8 14 -16 28 -17 19 -1 20 -1 4 4 -11 3 -24 10 -28 17
-6 7 -7 6 -4 -4z"/>
<path d="M4576 4393 c-11 -12 110 -32 141 -24 24 7 20 9 -38 19 -76 14 -93 15
-103 5z"/>
<path d="M4520 4343 c-8 -3 -19 -13 -24 -21 -6 -11 -10 -12 -16 -2 -5 9 -13 9
-25 3 -15 -9 -12 -11 15 -16 18 -4 43 -4 56 -1 19 5 24 2 24 -12 1 -18 1 -18
12 0 8 15 8 21 0 24 -23 7 -11 19 16 16 27 -4 27 -4 2 5 -30 11 -40 11 -60 4z"/>
<path d="M0 500 l0 -500 6295 0 6295 0 0 500 0 500 -6295 0 -6295 0 0 -500z
m1490 120 l49 0 3 37 c2 30 9 41 36 56 l32 19 0 -55 c0 -63 5 -67 81 -67 44 0
51 -3 59 -26 6 -14 10 -34 10 -45 0 -19 -1 -19 -22 -5 -14 10 -44 16 -75 16
l-53 0 0 -39 c0 -41 -20 -67 -45 -57 -9 3 -15 18 -15 35 0 53 -8 61 -61 61
-48 0 -49 -1 -43 -25 11 -44 -3 -75 -34 -75 -36 0 -57 36 -66 113 -5 47 -4 57
9 57 11 0 15 11 15 38 0 33 4 40 33 54 l32 15 3 -53 3 -54 49 0z m9243 53
c-25 -3 -33 -9 -33 -24 0 -14 8 -19 33 -21 l32 -1 -32 -4 c-27 -4 -33 -9 -33
-28 0 -19 6 -24 33 -28 24 -3 21 -4 -16 -5 l-48 -2 7 35 c4 23 2 35 -5 35 -15
0 -14 17 2 35 7 8 29 14 52 13 36 -1 37 -2 8 -5z m117 -53 c0 -33 -4 -60 -10
-60 -6 0 -10 27 -10 60 0 33 4 60 10 60 6 0 10 -27 10 -60z m111 50 c14 -8 19
-21 19 -50 0 -44 -18 -60 -69 -60 l-31 0 0 60 0 60 31 0 c17 0 39 -5 50 -10z
m196 2 c8 -5 -1 -8 -21 -8 -19 0 -32 4 -30 8 7 10 35 10 51 0z m96 1 c3 -5 -8
-8 -25 -9 -20 -1 -25 2 -16 7 16 11 35 11 41 2z m409 -6 c11 -9 14 -18 8 -27
-5 -9 -5 -19 1 -26 7 -8 6 -15 -2 -20 -7 -4 -9 -3 -6 3 4 6 0 14 -9 17 -14 5
-14 9 -3 22 11 14 10 18 -6 30 -10 8 -15 14 -9 14 5 0 17 -6 26 -13z m-9995
-29 c-3 -8 -6 -5 -6 6 -1 11 2 17 5 13 3 -3 4 -12 1 -19z m837 7 c-6 -16 -24
-21 -24 -7 0 11 11 22 21 22 5 0 6 -7 3 -15z m8976 5 c0 -5 -5 -10 -11 -10 -5
0 -7 5 -4 10 3 6 8 10 11 10 2 0 4 -4 4 -10z m-450 -20 c0 -5 -4 -10 -10 -10
-5 0 -10 5 -10 10 0 6 5 10 10 10 6 0 10 -4 10 -10z m520 6 c0 -2 -7 -7 -16
-10 -8 -3 -12 -2 -9 4 6 10 25 14 25 6z m-10239 -38 c6 -87 -9 -144 -31 -122
-12 12 -2 47 11 38 22 -13 6 15 -16 30 -24 16 -26 16 -35 -9 -6 -15 -10 -32
-10 -39 0 -8 -7 -19 -15 -26 -13 -11 -15 -8 -15 18 0 16 7 35 15 42 8 7 12 17
8 22 -3 6 -14 1 -24 -13 -16 -20 -20 -22 -29 -9 -5 8 -10 28 -10 44 0 25 3 28
25 23 14 -2 42 2 63 9 52 18 62 17 63 -8z m10196 0 c-3 -8 -6 -5 -6 6 -1 11 2
17 5 13 3 -3 4 -12 1 -19z m-9683 -4 c7 -19 -1 -34 -18 -34 -14 0 -28 35 -18
44 11 11 30 6 36 -10z m9206 -24 c0 -5 -4 -10 -10 -10 -5 0 -10 5 -10 10 0 6
5 10 10 10 6 0 10 -4 10 -10z m210 -250 c0 -5 -4 -10 -10 -10 -5 0 -10 5 -10
10 0 6 5 10 10 10 6 0 10 -4 10 -10z"/>
<path d="M1373 513 c9 -2 17 -9 17 -14 0 -6 5 -7 11 -3 14 8 -8 24 -31 23 -11
-1 -10 -3 3 -6z"/>
<path d="M10900 620 c0 -41 3 -50 18 -50 30 0 45 17 45 50 0 33 -15 50 -45 50
-15 0 -18 -9 -18 -50z"/>
</g>
</svg>
