<?xml version="1.0" standalone="no"?>
<!DOCTYPE svg PUBLIC "-//W3C//DTD SVG 20010904//EN"
 "http://www.w3.org/TR/2001/REC-SVG-20010904/DTD/svg10.dtd">
<svg version="1.0" xmlns="http://www.w3.org/2000/svg"
 width="220.000000pt" height="281.000000pt" viewBox="0 0 220.000000 281.000000"
 preserveAspectRatio="xMidYMid meet">

<g transform="translate(0.000000,281.000000) scale(0.100000,-0.100000)"
fill="#000000" stroke="none">
<path d="M6 2773 c-10 -61 -7 -513 3 -513 10 0 9 -39 -1 -55 -3 -6 -6 -77 -7
-160 -1 -128 1 -147 13 -132 14 18 61 23 71 7 3 -6 -5 -10 -18 -10 -16 0 -26
-7 -30 -21 -4 -13 -1 -18 6 -15 7 3 20 9 30 12 9 4 17 10 17 15 0 13 38 11 46
-2 3 -6 0 -15 -7 -20 -8 -5 -9 -9 -4 -9 6 0 1 -6 -9 -12 -15 -8 -21 -8 -24 0
-4 14 -32 16 -32 3 0 -5 7 -14 15 -21 20 -17 -1 -33 -25 -20 -9 5 -22 3 -33
-5 -15 -11 -16 -17 -7 -34 7 -14 7 -21 0 -21 -5 0 -10 -12 -10 -26 0 -20 3
-24 12 -17 7 6 21 13 32 17 13 4 17 2 13 -8 -3 -8 0 -19 7 -25 10 -8 19 -6 36
9 23 20 53 19 75 -2 6 -6 0 -7 -19 -2 -21 5 -27 4 -22 -5 5 -7 -3 -11 -21 -12
-17 -1 -21 -3 -10 -6 42 -11 1 -52 -53 -53 l-35 0 29 15 c15 8 32 12 37 9 5
-3 9 -2 9 1 0 10 -28 35 -39 35 -6 0 -11 7 -11 15 0 19 -7 19 -26 1 -11 -12
-14 -49 -13 -180 0 -99 4 -164 10 -161 5 4 9 2 9 -4 0 -5 -6 -12 -13 -14 -7
-3 -5 -6 5 -6 9 -1 22 7 28 17 9 15 10 14 5 -5 -7 -26 18 -33 32 -10 17 27 64
55 83 50 14 -4 20 0 20 11 0 10 -4 14 -10 11 -5 -3 -10 -2 -10 4 0 5 4 13 10
16 5 3 10 18 9 33 -1 25 -1 25 -7 5 -9 -28 -41 -67 -49 -59 -4 3 3 16 15 29
12 13 22 32 22 43 -1 13 -5 9 -15 -13 -15 -36 -44 -44 -52 -14 -3 14 -13 18
-33 17 -21 -2 -30 3 -34 18 -7 26 16 41 28 18 8 -15 10 -14 17 3 6 19 8 18 18
-5 10 -23 11 -23 5 8 -7 42 16 71 50 65 13 -3 27 0 30 6 11 17 26 13 20 -4 -4
-8 -23 -18 -44 -21 -22 -4 -41 -13 -44 -21 -4 -11 -2 -13 9 -9 19 7 19 7 -1
-39 -20 -49 -12 -56 10 -7 9 21 25 43 35 49 16 10 18 8 15 -13 -1 -13 2 -22 6
-19 5 3 11 -4 15 -15 6 -20 25 -19 25 1 0 6 -4 7 -10 4 -6 -4 -10 6 -10 23 0
16 5 29 13 29 6 0 21 4 31 8 17 8 19 5 13 -28 -3 -21 -13 -44 -21 -53 -25 -25
-15 -54 11 -32 8 6 29 11 48 10 19 -1 37 3 40 8 3 6 1 10 -4 10 -6 0 -11 8
-11 18 -1 15 -2 15 -16 -3 -16 -19 -16 -19 -10 5 7 24 7 24 -8 5 -29 -38 -38
-46 -44 -40 -4 4 1 11 11 16 9 6 17 20 17 32 0 34 20 97 30 97 6 0 10 -10 10
-22 0 -20 2 -19 20 10 11 17 25 32 31 32 6 0 1 -12 -10 -26 -11 -14 -17 -32
-14 -41 4 -10 2 -14 -4 -10 -6 4 -13 0 -16 -8 -4 -9 -1 -12 8 -9 10 4 13 0 10
-13 -2 -13 2 -20 13 -20 18 0 42 20 42 35 0 15 38 44 44 34 3 -6 0 -12 -6 -14
-7 -3 -13 -11 -14 -19 -1 -21 -27 -79 -36 -79 -4 0 -5 7 -2 15 4 10 2 13 -8
10 -20 -8 -20 -45 0 -45 10 0 13 -3 7 -8 -12 -9 -19 -53 -8 -51 21 4 34 -2 27
-13 -4 -7 -3 -8 5 -4 6 4 9 11 6 15 -2 5 6 9 19 9 15 0 23 -5 20 -12 -3 -7 6
-12 23 -11 22 0 27 -4 25 -19 -3 -17 -1 -18 12 -7 13 11 15 9 13 -11 0 -13 -6
-26 -12 -30 -6 -5 -3 -8 7 -8 13 0 17 -8 16 -35 -1 -28 -4 -33 -15 -24 -10 9
-13 7 -13 -8 0 -28 -24 -58 -40 -48 -10 6 -9 9 1 16 12 8 11 11 -1 19 -21 14
-28 12 -32 -8 -2 -9 3 -22 10 -28 16 -12 -56 -12 -203 0 -69 6 -87 5 -75 -4
12 -10 12 -11 -5 -5 -11 5 -33 9 -50 11 -16 2 -22 1 -12 -2 20 -6 23 -44 3
-44 -8 0 -17 11 -20 25 -4 14 -13 25 -21 25 -18 0 -28 -17 -15 -25 5 -3 10
-13 10 -20 0 -20 -25 -8 -38 18 -10 20 -11 18 -11 -16 l-1 -37 38 5 c38 6 78
6 122 0 14 -2 35 -4 48 -4 30 -1 28 -17 -4 -25 -52 -13 -15 -17 45 -5 34 7 56
16 49 20 -7 4 -16 5 -20 3 -4 -3 -8 0 -8 6 0 7 7 9 16 6 8 -3 32 5 52 19 38
26 72 33 72 15 0 -5 -9 -10 -19 -10 -31 0 -51 -11 -51 -27 0 -11 5 -13 18 -7
9 4 46 9 82 10 l65 2 -60 -7 c-33 -4 -77 -15 -97 -24 -21 -9 -50 -18 -65 -18
-22 -1 -20 -3 12 -9 30 -6 55 -3 97 11 32 10 65 19 75 18 10 0 -9 -10 -42 -20
-84 -28 -169 -32 -232 -12 -41 13 -66 14 -120 7 -64 -8 -68 -11 -71 -36 -3
-22 0 -26 18 -21 11 3 23 10 27 16 3 5 1 7 -5 3 -6 -3 -13 -2 -16 3 -4 5 -2
12 3 15 5 4 12 2 16 -3 3 -6 12 -8 20 -4 8 3 15 0 15 -7 0 -6 -5 -8 -11 -4 -7
4 -10 1 -7 -7 3 -9 19 -12 51 -10 29 1 47 -2 47 -8 0 -11 -22 -14 -110 -15
l-45 -1 -2 -45 c-1 -25 0 -39 3 -32 3 7 29 24 57 39 l52 25 -22 -24 c-13 -13
-23 -35 -23 -47 0 -23 1 -23 31 7 16 16 48 38 70 47 21 10 39 25 39 34 0 11 3
12 11 4 6 -6 19 -9 28 -7 9 3 -4 -5 -27 -16 -48 -22 -105 -60 -100 -66 2 -2
26 8 53 21 36 19 62 25 104 23 l56 -2 -49 -3 c-27 -2 -59 -11 -72 -20 -13 -8
-24 -12 -24 -7 0 17 -24 -17 -25 -36 -1 -16 3 -18 23 -13 21 5 24 3 19 -11 -4
-10 -7 -24 -7 -32 0 -9 -4 -12 -10 -9 -21 13 -31 -7 -11 -22 12 -8 18 -19 15
-25 -4 -7 -2 -8 4 -4 14 9 68 -18 75 -38 10 -25 78 -48 147 -50 l65 -1 -2 -42
c-2 -34 2 -45 17 -53 20 -11 60 2 60 19 0 4 6 8 13 8 8 0 12 -16 12 -46 0 -25
4 -57 8 -71 7 -20 6 -22 -3 -10 -10 13 -11 13 -6 -2 3 -10 -2 -37 -10 -60 -9
-24 -13 -58 -10 -77 3 -19 1 -42 -5 -53 -5 -10 -6 -18 -2 -17 33 6 48 -23 17
-35 -8 -3 -12 -11 -9 -16 4 -6 3 -10 -2 -8 -4 1 -34 -10 -67 -25 -103 -47
-199 -78 -236 -76 -39 3 -90 25 -90 38 0 5 14 3 30 -6 17 -8 42 -12 58 -9 15
3 41 8 59 11 17 3 42 9 55 14 23 10 23 10 -4 10 -14 1 -29 7 -31 14 -3 7 -6 5
-6 -5 -1 -14 -10 -18 -45 -18 -25 0 -47 4 -51 10 -3 5 -13 6 -23 3 -15 -6 -15
-5 -3 10 7 9 23 17 35 17 33 0 90 40 134 93 22 27 62 64 88 83 63 44 74 60 74
103 1 35 1 35 17 16 14 -18 15 -18 9 -2 -3 10 -6 21 -6 23 0 2 -5 4 -12 4 -6
0 -23 10 -36 23 -14 12 -22 16 -17 8 6 -11 4 -13 -11 -6 -10 4 -38 15 -62 23
-23 8 -55 28 -70 43 -15 16 -30 29 -34 29 -4 0 -22 13 -40 30 -18 16 -40 30
-50 30 -10 0 -18 7 -18 15 0 9 -12 20 -26 25 -16 7 -24 16 -21 24 6 15 -12 26
-40 26 -13 0 -13 -3 -3 -15 17 -20 12 -19 -55 10 -60 27 -72 27 -61 -1 4 -9 9
-14 13 -11 3 4 12 -1 20 -11 14 -16 14 -16 9 1 -4 13 3 11 29 -10 19 -16 35
-31 35 -35 0 -4 7 -5 15 -2 10 4 15 0 15 -11 0 -13 6 -16 21 -12 14 4 30 -2
48 -19 14 -13 32 -22 39 -19 7 2 12 -4 12 -17 0 -11 10 -29 22 -39 28 -25 33
-24 14 3 -24 34 -18 47 7 17 12 -14 38 -33 58 -42 41 -19 64 -42 55 -55 -3 -6
3 -12 13 -15 14 -3 17 0 14 14 -5 17 -3 18 25 4 16 -9 33 -23 36 -33 5 -14 4
-14 -8 2 -14 17 -16 17 -30 3 -9 -9 -16 -20 -16 -25 0 -12 -25 -22 -48 -21
-12 0 -10 3 6 9 12 5 22 15 22 22 0 14 -70 49 -83 41 -15 -9 5 -24 26 -18 17
5 19 4 7 -4 -8 -6 -22 -9 -30 -6 -22 6 -56 -43 -41 -58 9 -9 11 -8 6 4 -8 22
5 29 30 18 18 -9 18 -9 -2 -5 -26 5 -27 2 -12 -25 10 -20 10 -20 -21 -4 -21
11 -30 21 -26 31 3 8 2 13 -3 9 -5 -3 -11 1 -14 7 -2 7 -8 10 -12 5 -5 -4 2
-18 15 -32 13 -14 19 -25 13 -25 -6 0 -16 7 -24 16 -9 11 -22 14 -41 10 -21
-4 -30 -1 -35 10 -3 8 -12 13 -20 9 -11 -3 -13 -1 -9 10 4 12 -2 15 -27 14
-27 0 -29 -2 -12 -9 l20 -9 -20 0 c-11 0 -30 5 -43 12 -22 13 -21 13 11 14 19
1 45 7 58 14 23 12 23 12 -15 25 -43 15 -58 11 -50 -14 5 -16 5 -16 -8 0 -8
10 -27 22 -41 27 -24 9 -27 8 -27 -10 0 -11 5 -29 10 -40 7 -13 7 -19 0 -19
-17 0 -12 -106 5 -120 9 -7 18 -10 22 -6 4 3 -2 13 -13 20 -10 8 -15 18 -11
22 4 5 12 2 17 -6 9 -13 10 -13 10 0 1 8 7 3 16 -12 8 -15 27 -34 42 -42 18
-10 21 -15 10 -16 -9 0 -19 -6 -21 -12 -3 -8 -6 -7 -6 4 -1 9 -6 20 -13 24 -6
4 -8 3 -5 -3 11 -18 -25 -24 -43 -8 -16 15 -17 14 -17 -10 0 -14 4 -25 9 -25
5 0 6 6 2 13 -4 6 3 3 15 -8 13 -11 27 -27 32 -36 7 -14 4 -17 -16 -14 -34 3
-41 11 -25 30 11 13 10 14 -4 9 -20 -8 -21 -44 -1 -44 8 0 15 -5 15 -11 0 -6
6 -9 13 -6 17 6 43 -8 30 -16 -5 -3 -22 1 -37 9 -16 7 -30 14 -32 14 -2 0 -4
-47 -4 -105 l0 -105 1100 0 1100 0 0 255 -1 255 -26 -6 c-15 -4 -39 -8 -55 -9
-15 -1 -42 -2 -58 -3 -17 -1 -38 -11 -47 -22 -10 -11 -21 -20 -26 -20 -4 0
-20 -9 -35 -20 -28 -20 -122 -53 -120 -41 3 27 -3 34 -15 16 -17 -22 -37 -12
-37 19 0 32 -18 45 -58 42 -33 -2 -53 8 -29 16 6 2 41 3 77 3 56 -1 65 -3 63
-19 -1 -11 4 -15 14 -12 8 3 17 6 20 6 3 0 -3 12 -13 27 l-18 28 33 -28 c32
-27 61 -35 61 -18 0 5 -6 11 -14 14 -7 3 -18 19 -24 37 -7 18 -7 28 -2 25 6
-4 10 -12 10 -19 0 -19 37 -27 85 -19 l40 7 -54 11 c-30 5 -56 16 -59 24 -3 9
2 11 16 7 43 -14 121 -23 115 -13 -3 5 4 6 18 1 13 -5 40 -8 59 -8 19 1 38 -4
42 -9 4 -6 12 -5 22 5 16 16 22 133 7 143 -4 2 -25 2 -45 -2 -27 -4 -34 -8
-24 -15 14 -11 13 -10 -85 24 -32 11 -73 18 -92 16 -24 -3 -31 0 -28 9 3 7 1
13 -5 13 -6 0 -17 3 -26 6 -9 3 -16 1 -16 -4 0 -6 8 -13 18 -15 15 -4 15 -5 0
-6 -9 0 -20 4 -23 9 -3 6 -15 10 -25 10 -13 0 -17 5 -14 14 3 8 0 17 -7 22 -8
4 -10 3 -5 -4 13 -22 -10 -12 -32 13 -13 15 -28 22 -37 19 -9 -4 -15 0 -16 10
-3 31 -4 35 -15 46 -9 9 -10 4 -7 -17 4 -24 3 -25 -7 -10 -6 9 -15 15 -20 12
-5 -3 -14 12 -20 32 -7 21 -17 42 -22 48 -12 13 15 -62 41 -113 24 -47 25 -52
11 -52 -6 0 -26 33 -45 73 -19 39 -35 68 -35 62 -1 -5 -5 0 -11 13 -5 13 -14
20 -20 16 -8 -4 -7 -9 2 -15 11 -6 11 -11 1 -21 -9 -9 -19 -5 -47 22 -35 34
-43 62 -26 89 10 16 23 12 89 -30 17 -12 32 -16 32 -10 0 6 -6 11 -12 11 -21
0 -68 43 -72 66 -4 18 2 23 35 28 21 3 39 11 39 17 0 6 -14 8 -37 4 l-38 -6
40 20 c22 10 33 20 26 20 -10 1 -3 13 19 36 19 19 35 42 36 51 1 8 -12 -1 -30
-22 -26 -30 -35 -35 -50 -27 -17 10 -17 10 0 17 17 7 17 9 -6 22 -21 13 -22
15 -4 11 13 -3 21 1 21 10 0 11 -11 13 -51 9 l-51 -6 60 21 c55 20 62 20 87 6
15 -9 30 -12 33 -8 2 5 -9 14 -25 21 -17 7 -30 18 -30 24 0 7 -4 6 -9 -2 -4
-8 -12 -13 -17 -13 -5 0 -25 -3 -44 -8 -58 -15 -141 -21 -135 -11 3 6 -8 25
-24 42 -17 18 -31 39 -31 46 0 6 -5 12 -11 12 -5 0 -7 4 -4 10 9 15 99 12 121
-5 10 -8 25 -15 32 -15 18 0 15 18 -5 22 -12 2 -10 6 11 16 25 11 28 11 22 -3
-5 -13 -1 -15 17 -10 12 4 26 11 32 16 13 13 25 11 23 -3 -2 -8 10 -14 30 -16
17 -2 32 -7 32 -13 0 -13 28 -11 32 2 9 26 118 43 118 19 0 -5 -8 -7 -17 -4
-15 5 -16 4 -3 -5 8 -6 27 -11 41 -11 34 0 53 -21 36 -39 -6 -7 -7 -12 -2 -11
21 5 36 0 30 -10 -7 -12 -114 -13 -147 -2 -14 5 -39 4 -63 -3 -37 -11 -38 -12
-19 -23 12 -6 25 -8 29 -4 5 4 5 1 1 -5 -4 -7 -2 -13 3 -13 6 0 11 4 11 8 0
12 32 11 47 0 15 -12 36 -1 27 14 -5 8 -1 9 12 3 10 -4 27 -8 37 -9 9 0 19 -7
22 -16 3 -9 20 -20 38 -25 27 -9 32 -14 30 -38 -2 -26 1 -28 22 -23 23 6 55
-14 55 -35 0 -6 7 -3 16 6 13 13 19 14 25 4 11 -18 2 -29 -26 -29 -29 0 -35
-9 -24 -35 6 -17 8 -17 8 -2 1 21 18 23 18 2 0 -21 -25 -27 -35 -8 -6 9 -15
13 -21 8 -9 -5 -8 -12 6 -27 17 -20 17 -20 -22 -13 -48 9 -57 14 -50 26 4 5
-8 9 -24 9 -37 0 -40 -7 -8 -20 21 -8 21 -9 -6 -9 -32 -1 -33 -24 -1 -28 18
-3 18 -2 -1 6 -18 9 -18 10 -2 10 22 1 51 -25 42 -39 -7 -11 -52 4 -79 28 -18
16 -19 16 -12 -3 7 -19 6 -19 -10 -3 -15 15 -18 15 -34 0 -22 -22 -32 -50 -18
-54 6 -2 24 -2 40 0 26 4 27 5 11 18 -10 7 -13 14 -8 14 6 0 22 -11 37 -25 18
-16 28 -20 31 -12 2 7 8 9 12 5 4 -4 3 -14 -4 -22 -9 -11 -8 -15 5 -20 20 -8
59 -8 51 0 -3 4 1 13 9 21 8 9 18 12 22 9 3 -4 0 -11 -7 -16 -21 -12 -5 -43
19 -37 30 8 97 -12 79 -24 -11 -7 -12 -12 -1 -29 10 -17 10 -20 -3 -20 -8 0
-15 7 -15 15 0 8 -4 15 -9 15 -5 0 -7 -10 -4 -22 4 -22 4 -22 -8 -4 -10 16 -9
22 7 33 16 12 16 13 -10 13 -21 0 -27 -4 -23 -15 8 -19 -12 -30 -26 -16 -9 9
-8 10 7 5 16 -6 17 -4 7 13 -18 36 -79 47 -106 19 -15 -15 -8 -36 12 -36 9 0
14 -2 11 -5 -10 -10 -68 8 -68 21 0 8 -6 11 -15 8 -11 -5 -13 -2 -9 10 4 10 1
16 -7 16 -12 0 -12 2 0 9 11 7 9 10 -9 16 -15 5 -27 2 -39 -10 -15 -16 -14
-18 8 -33 69 -47 313 -135 412 -148 l49 -7 0 152 c0 114 -3 151 -12 151 -10 0
-10 2 -1 8 12 8 18 247 6 265 -3 5 -13 1 -23 -8 -11 -10 -25 -15 -32 -12 -8 4
-7 6 5 6 9 1 17 6 17 11 0 14 -5 13 -50 -10 -38 -19 -70 -26 -70 -14 0 15 22
44 31 39 5 -4 9 -1 9 5 0 6 5 8 12 4 7 -4 8 -3 4 4 -13 21 13 50 59 63 l45 13
0 69 c0 43 -4 66 -10 62 -5 -3 -10 -1 -10 4 0 6 5 11 10 11 6 0 10 43 10 110
0 62 -4 110 -9 110 -15 0 -22 -18 -9 -22 9 -3 9 -6 0 -12 -7 -4 -12 -2 -12 4
0 6 -4 8 -10 5 -6 -3 -7 1 -4 10 5 11 2 14 -12 9 -17 -5 -17 -4 1 11 17 14 18
17 5 25 -9 6 -10 10 -3 10 6 0 18 -7 27 -15 22 -23 26 -19 26 26 0 22 -4 38
-9 35 -4 -3 -13 5 -19 18 -8 19 -7 25 9 37 25 18 24 99 -1 92 -9 -3 -8 1 4 11
17 14 17 16 4 16 -9 0 -20 -5 -23 -10 -4 -6 -10 -8 -15 -5 -4 3 -11 -2 -14
-11 -5 -12 -2 -15 11 -10 12 5 15 4 8 -3 -6 -6 -28 -15 -50 -20 -22 -5 -32 -9
-22 -10 9 -1 17 -6 17 -11 0 -6 11 -8 25 -4 14 3 25 2 25 -4 0 -14 -30 -37
-49 -37 -9 0 -15 -6 -13 -13 2 -10 -6 -12 -30 -8 l-33 5 36 -15 c22 -10 39
-26 46 -45 11 -27 10 -29 -11 -25 -15 3 -27 -3 -35 -17 -11 -18 -11 -20 0 -9
18 17 39 15 39 -3 0 -8 -5 -15 -11 -15 -5 0 -7 6 -3 13 4 6 -1 4 -11 -5 -12
-11 -25 -14 -39 -9 -11 4 -38 7 -58 7 -21 -1 -38 2 -38 5 0 3 -6 6 -12 6 -7 1
-37 4 -65 8 -47 6 -53 5 -53 -11 0 -11 -3 -15 -8 -8 -10 16 -44 27 -70 25 -13
-2 -32 5 -43 15 -18 16 -19 16 -13 1 6 -18 -15 -24 -30 -9 -4 4 -11 7 -14 8
-26 2 -92 29 -95 38 -7 17 39 12 60 -6 10 -8 29 -15 43 -16 17 -1 21 1 11 7
-7 5 -11 13 -7 19 3 5 -1 13 -10 16 -24 9 -31 7 -14 -4 13 -8 13 -10 -1 -10
-9 0 -22 6 -28 14 -7 8 -19 12 -29 9 -9 -2 -32 7 -51 21 -19 14 -36 24 -38 22
-2 -2 4 -20 13 -39 14 -28 30 -41 78 -62 34 -15 81 -40 105 -56 25 -16 54 -29
65 -30 21 0 21 -1 1 -8 -11 -5 -23 -4 -26 2 -4 5 -13 7 -20 5 -8 -3 -22 1 -31
10 -10 8 -29 15 -43 15 -15 0 -25 5 -25 14 0 8 -6 13 -12 10 -39 -14 -96 58
-128 161 -7 23 -17 42 -22 42 -12 0 -10 -14 5 -29 10 -10 9 -12 -3 -11 -8 1
-25 -1 -37 -5 l-22 -7 22 -19 22 -18 -24 -1 c-14 0 -33 -8 -44 -17 -19 -17
-20 -17 -8 5 17 32 9 27 -19 -10 -14 -19 -16 -27 -7 -19 27 22 20 -3 -8 -27
-14 -12 -25 -19 -25 -16 0 12 -28 -24 -33 -42 -4 -17 -5 -17 -6 2 -2 34 -44
122 -49 101 -2 -10 -8 -14 -15 -10 -7 4 -4 -5 6 -20 9 -14 16 -37 16 -49 -1
-21 -2 -21 -6 -3 -13 52 -23 33 -24 -45 -1 -64 -3 -76 -9 -50 -4 19 -8 29 -9
23 0 -7 -8 -13 -16 -13 -20 0 -19 -16 0 -24 13 -5 14 -17 9 -67 -7 -67 -22
-103 -50 -124 -11 -7 -20 -18 -20 -24 -1 -6 -2 -17 -3 -23 -1 -10 -4 -9 -10 1
-5 8 -18 12 -29 9 -15 -4 -19 -2 -15 8 4 12 -2 16 -23 13 -3 0 -16 11 -29 25
-12 13 -26 22 -29 19 -3 -4 -6 1 -6 10 0 8 -5 17 -11 19 -5 2 -11 20 -12 41
-1 20 -6 37 -10 37 -5 0 -5 5 -2 10 3 6 1 10 -4 10 -6 0 -11 7 -11 15 0 8 -4
23 -9 33 -5 9 -15 37 -21 62 -7 25 -25 64 -41 88 -16 24 -29 47 -29 53 0 5 -3
9 -8 9 -4 0 -18 20 -31 45 -13 25 -27 45 -30 45 -3 0 -22 -10 -41 -21 l-35
-21 38 41 c20 22 37 49 37 59 -1 10 -9 2 -21 -20 -13 -25 -38 -48 -72 -68 -59
-34 -72 -37 -63 -14 3 8 2 13 -2 11 -10 -6 -42 30 -34 38 4 4 -3 2 -15 -6 -18
-11 -25 -11 -35 -1 -9 9 -9 12 4 12 9 0 20 5 23 10 4 6 3 9 -2 8 -4 -2 -9 2
-10 7 -1 6 7 9 18 7 18 -3 19 -1 7 17 -7 12 -18 21 -25 21 -7 0 -13 10 -14 23
0 12 -3 16 -6 10 -2 -7 -9 -13 -15 -13 -6 0 -6 6 2 15 7 8 19 15 28 15 13 0
12 3 -3 20 -10 11 -14 20 -9 20 5 0 2 5 -6 10 -13 8 -13 10 2 10 11 0 15 5 12
15 -4 8 -11 12 -18 8 -6 -4 -3 5 7 20 9 14 17 32 16 39 0 7 -4 4 -9 -7 l-9
-20 -1 20 c-2 11 -2 23 -1 28 0 4 -3 7 -9 7 -5 0 -10 -5 -10 -10 0 -6 -11 -8
-27 -4 -15 4 -33 7 -40 7 -7 0 -13 6 -13 14 0 16 -12 17 -27 2 -8 -8 -17 -6
-32 7 -26 23 -27 40 -1 54 18 10 24 7 21 -12 0 -5 6 -8 14 -8 8 0 15 5 15 10
0 17 36 11 53 -8 21 -23 21 -30 0 -34 -13 -3 -10 -6 9 -9 38 -8 46 0 50 51 2
25 7 50 11 57 5 7 0 9 -13 6 -11 -3 -17 -10 -13 -17 4 -6 -1 -4 -11 3 -17 14
-17 15 0 28 10 7 23 13 28 14 6 0 0 5 -13 10 -19 7 -27 6 -33 -5 -10 -17 -44
-10 -53 12 -3 8 0 19 7 24 18 11 78 10 78 -1 0 -5 10 -11 23 -13 16 -2 22 -9
21 -27 -1 -22 0 -22 12 -6 11 15 9 20 -14 40 -31 26 -97 41 -107 25 -4 -6 -14
-9 -22 -6 -8 3 -11 1 -8 -4 3 -6 -1 -10 -9 -10 -21 0 -20 -19 0 -27 15 -6 15
-8 -2 -21 -18 -14 -18 -14 4 -9 15 4 25 0 29 -10 4 -11 8 -11 13 -3 5 8 13 1
23 -19 18 -36 5 -51 -23 -26 -12 11 -26 14 -39 10 -14 -4 -23 -1 -27 9 -8 21
-24 20 -39 -1 -8 -10 -19 -14 -30 -9 -16 6 -16 8 -2 24 14 16 13 17 -21 19
-35 2 -36 2 -17 -13 17 -13 18 -16 5 -24 -8 -5 -26 -6 -39 -3 -17 4 -22 2 -17
-6 4 -6 1 -11 -8 -11 -24 0 -19 13 12 32 20 13 22 18 10 18 -10 0 -18 4 -18 9
0 11 25 21 51 21 10 0 19 5 19 10 0 6 -19 10 -42 10 -34 1 -39 3 -25 11 9 5
22 7 27 4 6 -3 13 1 16 9 7 18 39 22 49 6 10 -16 25 -12 19 5 -4 9 0 15 7 15
11 0 11 2 1 8 -9 6 -2 18 25 45 31 32 42 37 72 34 20 -2 35 -7 34 -11 -2 -3
-3 -13 -3 -22 0 -14 -3 -14 -15 -4 -9 8 -15 9 -15 2 0 -18 20 -25 35 -12 8 7
20 8 27 4 7 -5 21 -7 31 -6 22 4 22 -7 0 -25 -14 -10 -14 -13 -3 -11 8 2 20 9
25 16 9 11 13 11 24 -2 7 -9 11 -22 8 -30 -4 -10 -1 -13 9 -9 7 3 14 0 14 -6
0 -16 17 -14 23 3 4 10 1 13 -9 9 -7 -3 -14 0 -14 6 0 10 20 15 45 12 6 -1 1
6 -9 14 -24 18 -50 20 -40 3 5 -9 2 -8 -9 1 -12 9 -14 17 -7 26 11 13 3 25
-17 25 -7 0 -13 -6 -13 -14 0 -9 -8 -12 -25 -9 -23 5 -24 6 -7 30 9 15 18 21
20 14 3 -9 7 -9 18 0 9 7 14 8 14 1 0 -5 9 -8 20 -5 14 4 20 1 18 -8 -2 -7 7
-15 18 -17 15 -2 23 3 27 18 4 17 11 20 29 15 15 -4 19 -3 10 3 -10 7 -10 11
3 22 15 13 22 35 7 26 -5 -3 -9 1 -9 9 0 24 27 27 28 2 0 -22 0 -22 10 2 6 16
14 21 27 16 14 -5 15 -4 5 6 -16 16 -17 39 -2 39 5 0 7 -5 3 -12 -4 -6 3 -4
17 5 29 21 39 21 39 1 0 -8 5 -12 10 -9 6 4 7 11 4 17 -5 7 3 9 22 5 15 -3 38
-1 51 4 14 5 23 5 23 -1 0 -5 7 -7 17 -3 14 5 13 8 -5 14 -12 5 -22 13 -22 19
0 7 6 8 18 1 20 -11 62 -4 62 10 0 5 -7 6 -15 3 -8 -4 -15 -1 -15 5 0 12 8 14
65 11 22 -1 51 -10 65 -20 14 -9 31 -15 38 -13 6 3 12 0 12 -7 0 -6 5 -8 10
-5 6 3 10 -3 10 -15 0 -12 5 -18 10 -15 6 4 8 11 5 16 -4 5 1 9 9 9 9 0 16 -4
16 -9 0 -5 9 -7 20 -4 20 5 24 -2 21 -42 l-2 -20 13 20 c6 11 18 27 26 35 13
12 14 11 7 -9 -5 -16 -4 -21 4 -17 6 4 11 2 11 -4 0 -6 4 -8 10 -5 6 3 7 -1 4
-10 -4 -9 -2 -15 4 -13 5 2 19 -8 31 -21 12 -13 21 -20 21 -15 0 5 4 3 9 -5 7
-11 11 -10 19 6 10 18 8 20 -13 15 -16 -3 -25 0 -25 8 0 7 6 10 14 7 23 -9 41
26 41 81 0 28 -3 52 -7 52 -5 0 -8 -16 -8 -35 0 -19 -4 -35 -8 -35 -8 0 -7 28
4 88 l6 32 -442 0 c-373 0 -441 -2 -431 -14 6 -7 10 -24 7 -37 -2 -13 1 -33 7
-44 15 -29 35 -145 25 -145 -4 0 -8 10 -9 23 -1 21 -1 21 -8 -3 -10 -36 -23
-8 -16 32 4 20 0 47 -10 71 -8 20 -13 48 -9 61 4 18 1 25 -18 30 -22 7 -22 7
-3 16 14 6 0 9 -47 9 -55 1 -66 -2 -62 -13 3 -8 11 -13 18 -10 7 3 23 -5 36
-16 20 -18 22 -23 10 -31 -12 -7 -11 -10 8 -15 34 -10 26 -22 -13 -22 -39 0
-42 3 -20 25 18 17 16 34 -5 41 -7 3 -10 1 -7 -4 7 -13 -20 -47 -31 -40 -6 3
-13 0 -16 -6 -3 -7 -3 -1 0 15 6 27 -10 39 -19 15 -4 -10 -8 -9 -16 2 -6 8
-11 11 -11 7 0 -5 -8 -1 -17 9 -11 11 -18 13 -21 5 -2 -6 7 -21 20 -32 16 -15
18 -18 4 -11 -10 5 -27 7 -37 5 -11 -3 -19 -1 -19 4 0 10 -27 9 -67 -3 -20 -5
-23 -3 -23 20 0 27 9 33 26 16 6 -6 10 -3 11 10 2 17 -3 19 -25 14 -34 -8 -47
-20 -32 -29 7 -5 4 -13 -11 -26 -27 -23 -30 -24 -23 -4 4 8 10 15 15 15 5 0 9
5 9 11 0 6 -9 8 -21 4 -18 -6 -19 -5 -8 13 7 11 18 18 25 15 6 -2 15 0 19 6 4
7 -11 11 -43 11 -49 0 -49 0 -56 -37z m544 -7 c0 -12 -13 -36 -20 -36 -4 0
-10 9 -13 20 -4 15 0 20 14 20 10 0 19 -2 19 -4z m360 -10 c0 -3 -4 -8 -10
-11 -5 -3 -10 -1 -10 4 0 6 5 11 10 11 6 0 10 -2 10 -4z m-140 -28 c0 -9 3 -9
12 0 9 9 16 8 30 -5 14 -13 20 -13 33 -3 8 7 15 8 15 2 0 -19 -33 -23 -51 -6
-11 10 -19 13 -19 7 0 -5 -13 -10 -29 -10 -23 0 -26 3 -17 13 14 17 26 17 26
2z m-753 -55 c-3 -10 -5 -2 -5 17 0 19 2 27 5 18 2 -10 2 -26 0 -35z m233 28
c0 -5 -10 -11 -22 -15 -20 -5 -21 -8 -8 -17 12 -9 13 -12 1 -16 -11 -5 -11 -7
0 -15 10 -7 8 -8 -6 -3 -11 4 -26 8 -32 8 -7 0 -13 4 -13 9 0 4 0 10 0 13 0 3
3 6 8 6 4 1 18 10 31 20 26 21 41 24 41 10z m440 -15 c0 -3 -4 -8 -10 -11 -5
-3 -10 -1 -10 4 0 6 5 11 10 11 6 0 10 -2 10 -4z m635 -16 c-3 -5 -12 -10 -18
-10 -7 0 -6 4 3 10 19 12 23 12 15 0z m-1058 -6 c-3 -3 -12 -4 -19 -1 -8 3 -5
6 6 6 11 1 17 -2 13 -5z m368 -74 c-3 -5 -12 -10 -18 -10 -7 0 -6 4 3 10 19
12 23 12 15 0z m-185 -275 c0 -8 -4 -15 -10 -15 -5 0 -7 7 -4 15 4 8 8 15 10
15 2 0 4 -7 4 -15z m-240 -64 c0 -5 -7 -11 -15 -15 -8 -3 -15 -10 -15 -16 0
-6 6 -8 13 -4 8 6 8 3 -2 -9 -7 -9 -11 -24 -7 -32 3 -8 1 -15 -4 -15 -5 0 -10
6 -13 13 -2 6 -3 4 -2 -5 2 -10 -1 -21 -6 -24 -16 -9 -10 31 11 74 19 38 40
56 40 33z m205 -42 c11 -17 -1 -21 -15 -4 -8 9 -8 15 -2 15 6 0 14 -5 17 -11z
m-385 -49 c0 -16 -4 -30 -8 -30 -5 0 -7 14 -4 30 2 17 6 30 8 30 2 0 4 -13 4
-30z m242 14 c4 -3 4 -12 1 -20 -4 -11 0 -15 12 -12 10 2 20 -3 22 -10 4 -9
-2 -10 -22 -2 -17 6 -32 7 -39 1 -13 -10 -76 -3 -76 9 0 5 14 12 32 15 31 7
31 8 12 22 -18 14 -16 14 16 8 19 -4 38 -9 42 -11z m63 -34 c3 -5 1 -10 -4
-10 -6 0 -11 5 -11 10 0 6 2 10 4 10 3 0 8 -4 11 -10z m-120 -30 c-3 -5 -11
-10 -16 -10 -6 0 -7 5 -4 10 3 6 11 10 16 10 6 0 7 -4 4 -10z m92 -11 c-19
-11 -55 0 -37 11 7 4 21 5 32 2 17 -4 18 -6 5 -13z m78 1 c4 -6 -5 -10 -19
-10 -14 0 -26 5 -26 10 0 6 9 10 19 10 11 0 23 -4 26 -10z m-334 -41 c-12 -19
-21 -30 -21 -26 0 14 31 69 36 64 3 -3 -4 -20 -15 -38z m236 11 c11 -16 10
-21 -5 -28 -9 -5 -22 -7 -29 -5 -6 2 -14 -1 -18 -6 -3 -6 2 -11 14 -11 10 0
27 -3 36 -6 10 -4 15 -2 13 7 -2 10 11 15 45 17 26 2 47 -1 47 -7 0 -5 -9 -7
-20 -4 -12 3 -20 0 -20 -7 0 -7 -7 -10 -16 -6 -14 5 -15 4 -4 -9 9 -11 16 -13
24 -5 15 15 26 12 20 -5 -4 -10 0 -15 16 -15 27 0 60 -17 60 -32 0 -6 -10 -4
-24 6 -24 15 -24 15 -20 -9 5 -26 1 -28 -31 -16 -12 5 -25 3 -33 -6 -10 -10
-18 -10 -34 -2 -11 6 -36 9 -55 6 -23 -4 -33 -2 -32 6 5 30 -13 47 -50 46 -23
-1 -28 -3 -13 -6 12 -2 22 -11 22 -19 0 -11 6 -14 23 -9 22 6 22 6 -2 -15 -19
-16 -26 -18 -32 -8 -5 7 -9 9 -9 4 0 -5 -6 -3 -14 3 -10 9 -21 9 -33 3 -19
-11 -48 9 -35 24 4 4 -1 4 -10 1 -10 -4 -18 -2 -18 3 0 13 46 24 65 16 9 -3
14 -2 11 3 -7 10 22 25 42 22 6 -1 12 5 12 13 0 13 39 44 48 37 1 -1 10 3 20
8 11 7 12 11 4 11 -16 0 -5 20 11 20 7 0 18 -9 24 -20z m33 10 c0 -5 -2 -10
-4 -10 -3 0 -8 5 -11 10 -3 6 -1 10 4 10 6 0 11 -4 11 -10z m144 -66 c7 -19
-1 -18 -26 5 l-20 20 20 -6 c11 -3 23 -11 26 -19z m66 -88 c0 -2 -7 -7 -16
-10 -8 -3 -12 -2 -9 4 6 10 25 14 25 6z m-225 -20 c12 -12 9 -14 -23 -14 -34
0 -35 1 -17 14 10 8 21 14 23 14 2 0 10 -6 17 -14z m175 3 c0 -6 -7 -9 -15 -5
-8 3 -15 3 -15 0 0 -11 54 -24 60 -14 4 7 12 5 25 -3 16 -12 13 -14 -26 -12
-65 3 -69 4 -69 20 0 12 -8 10 -42 -8 -33 -16 -38 -23 -24 -25 10 -2 22 1 26
8 8 13 50 5 50 -10 0 -5 -7 -7 -15 -4 -8 4 -15 1 -15 -6 0 -7 -8 -10 -19 -7
-11 2 -38 1 -60 -3 -33 -6 -41 -4 -41 7 0 11 7 13 23 9 18 -4 23 -1 24 14 1
11 -3 20 -8 20 -5 0 -5 6 2 13 15 16 139 21 139 6z m185 -24 c22 -13 36 -24
30 -24 -5 0 -19 6 -29 14 -33 25 -43 16 -11 -10 l30 -24 -40 19 c-42 22 -70
26 -60 10 3 -5 16 -10 28 -10 20 -1 20 -2 4 -11 -9 -5 -21 -8 -26 -5 -9 6 -61
-49 -61 -64 0 -5 5 -12 12 -16 7 -5 9 -2 5 8 -3 9 4 25 17 37 26 25 32 26 39
7 4 -10 1 -13 -7 -10 -16 6 -38 -49 -30 -71 4 -8 1 -15 -5 -15 -6 0 -11 7 -11
15 0 8 -4 15 -10 15 -14 0 -12 -12 4 -36 10 -14 12 -24 4 -35 -8 -11 -9 -10
-4 5 5 15 4 17 -8 7 -12 -10 -15 -7 -21 18 -8 37 6 91 35 131 12 16 18 30 13
30 -8 0 47 38 57 39 3 1 23 -10 45 -24z m1520 15 c3 -5 1 -10 -4 -10 -6 0 -11
5 -11 10 0 6 2 10 4 10 3 0 8 -4 11 -10z m-20 -30 c-3 -5 -10 -10 -16 -10 -5
0 -9 5 -9 10 0 6 7 10 16 10 8 0 12 -4 9 -10z m-1981 -35 c11 -8 17 -17 14
-21 -7 -6 -48 17 -48 28 0 12 13 9 34 -7z m446 -5 c0 -5 -2 -10 -4 -10 -3 0
-8 5 -11 10 -3 6 -1 10 4 10 6 0 11 -4 11 -10z m-193 -22 c7 -6 20 -8 28 -4 8
3 15 1 15 -4 0 -6 -9 -10 -20 -10 -11 0 -20 -5 -20 -11 0 -5 4 -8 9 -4 5 3 12
1 16 -5 3 -5 -7 -15 -22 -22 -38 -16 -38 -15 -22 -34 12 -15 12 -16 -8 -10
-13 4 -26 1 -35 -7 -8 -8 -26 -14 -41 -14 -25 0 -26 1 -10 13 16 12 16 15 3
24 -12 8 -10 10 11 10 30 0 77 44 59 55 -6 4 -19 4 -28 1 -13 -5 -12 -2 3 9
17 14 18 17 5 26 -11 7 -6 8 15 3 17 -4 36 -11 42 -16z m-377 -9 c0 -5 -7 -9
-15 -9 -8 0 -15 7 -15 15 0 9 6 12 15 9 8 -4 15 -10 15 -15z m110 -9 c0 -23
-25 -27 -33 -6 -7 16 1 26 20 26 7 0 13 -9 13 -20z m-40 -10 c0 -5 -10 -10
-22 -10 -19 0 -20 2 -8 10 19 13 30 13 30 0z m217 -16 c22 -6 23 -8 9 -16 -12
-7 -22 -5 -33 4 -12 9 -15 9 -9 1 5 -9 0 -13 -13 -13 -12 0 -21 6 -21 13 0 19
12 28 28 22 8 -3 25 -8 39 -11z m253 -4 c0 -11 -4 -20 -9 -20 -6 0 -9 9 -8 20
1 11 5 20 9 20 4 0 8 -9 8 -20z m-125 -20 c-3 -5 -12 -10 -18 -10 -7 0 -6 4 3
10 19 12 23 12 15 0z m1226 -17 c13 -17 13 -17 -6 -3 -11 8 -22 16 -24 17 -2
2 0 3 6 3 6 0 17 -8 24 -17z m-1441 -3 c0 -5 -4 -10 -9 -10 -5 0 -18 -3 -28
-6 -16 -5 -16 -4 1 10 23 18 36 20 36 6z m55 -10 c3 -5 1 -10 -4 -10 -6 0 -11
-7 -11 -15 0 -8 -9 -15 -19 -15 -17 0 -18 3 -8 25 12 26 31 32 42 15z m262
-22 c-3 -8 -6 -5 -6 6 -1 11 2 17 5 13 3 -3 4 -12 1 -19z m-527 -17 c0 -5 -9
-11 -20 -14 -20 -5 -26 3 -13 16 9 10 33 8 33 -2z m1788 -17 c4 3 8 -4 9 -14
2 -18 0 -18 -35 1 -53 30 -63 43 -19 24 21 -9 41 -14 45 -11z m-1251 0 c0 -7
-6 -10 -14 -7 -7 3 -13 8 -13 12 0 4 6 8 13 8 8 0 14 -6 14 -13z m-412 -4 c3
-5 0 -10 -7 -11 -7 0 -4 -4 7 -8 19 -8 19 -8 -2 -15 -13 -4 -23 -12 -23 -18 0
-5 -7 -8 -15 -5 -8 4 -17 2 -20 -3 -8 -13 -25 -13 -25 0 0 6 6 10 14 10 7 0
19 7 26 15 14 17 0 21 -17 4 -6 -6 -17 -9 -25 -7 -8 3 -1 11 18 21 17 9 34 13
38 10 3 -4 6 -1 6 5 0 15 17 16 25 2z m1963 -7 c-1 -10 1 -24 5 -30 5 -8 4
-13 -2 -13 -6 0 -11 5 -11 11 0 5 -4 7 -10 4 -5 -3 -10 -1 -10 4 0 6 5 11 11
11 8 0 8 5 -1 15 -10 12 -9 15 4 15 11 0 16 -7 14 -17z m-1527 -16 c-10 -9
-11 -8 -5 6 3 10 9 15 12 12 3 -3 0 -11 -7 -18z m696 -41 c-6 -13 -6 -16 2
-12 6 4 11 2 11 -5 0 -8 4 -8 15 1 8 7 15 9 15 4 1 -5 7 2 15 16 13 24 14 24
13 -19 0 -25 -7 -51 -14 -59 -8 -7 -11 -18 -8 -24 4 -6 2 -8 -4 -4 -6 4 -9 22
-6 44 4 25 3 33 -4 23 -5 -7 -15 -10 -21 -7 -6 4 -11 0 -11 -8 0 -9 -5 -16
-11 -16 -6 0 -8 7 -5 15 3 9 -1 18 -9 21 -16 6 -12 40 8 79 10 19 11 19 17 -5
4 -14 3 -33 -3 -44z m412 20 c-7 -14 -16 -26 -21 -26 -5 0 -1 13 8 30 21 35
30 33 13 -4z m-205 -24 c-47 -58 -50 -66 -26 -60 19 5 20 3 11 -13 -5 -10 -14
-19 -18 -19 -10 0 -21 -37 -13 -44 3 -3 11 -1 19 5 10 9 13 8 13 0 0 -7 5 -9
12 -5 7 4 8 3 4 -5 -4 -6 -11 -9 -16 -6 -5 3 -16 -7 -25 -22 -10 -18 -14 -21
-10 -8 4 18 0 20 -32 20 -20 0 -38 -6 -41 -13 -8 -24 -22 0 -21 36 0 29 2 33
8 17 5 -11 7 -23 4 -27 -2 -5 -2 -8 0 -8 10 0 48 73 44 84 -2 6 7 24 19 39 13
16 24 35 24 43 0 8 7 14 16 14 18 0 14 -8 -29 -56 -11 -14 -15 -24 -8 -28 6
-4 18 8 27 26 19 38 55 80 62 73 3 -3 -8 -22 -24 -43z m52 13 c-22 -19 -36
-38 -33 -42 4 -3 7 -1 7 5 0 7 5 12 12 12 20 0 -9 -23 -31 -25 -27 -2 -12 25
31 59 49 38 59 31 14 -9z m-226 4 c-7 -11 -14 -18 -17 -15 -3 3 0 12 7 21 18
21 23 19 10 -6z m257 -5 c-3 -4 -2 -15 3 -25 7 -12 6 -20 -2 -25 -7 -5 -8 -2
-3 7 4 8 -8 -2 -28 -20 -21 -19 -37 -31 -37 -26 0 5 -7 0 -15 -11 -8 -10 -15
-15 -15 -11 0 4 14 21 31 36 17 16 31 34 32 42 4 21 17 39 29 39 6 0 8 -3 5
-6z m165 -6 c-7 -7 -12 -18 -12 -26 0 -12 2 -12 17 -1 15 13 15 12 3 -11 l-13
-25 22 19 c34 31 33 13 -2 -27 -17 -20 -43 -50 -56 -67 -13 -17 -26 -29 -29
-26 -3 3 3 15 13 26 10 11 14 20 10 20 -4 0 0 10 11 23 l19 22 -23 -19 c-12
-11 -20 -21 -18 -24 8 -7 -18 -30 -28 -24 -5 3 -6 0 -2 -6 3 -6 -3 -16 -16
-23 -16 -9 -23 -9 -26 -1 -3 9 -9 9 -23 2 -13 -8 -19 -7 -19 0 0 6 -5 8 -10 5
-6 -4 -24 -8 -41 -10 -30 -4 -30 -4 18 39 26 24 49 43 50 42 2 -2 4 -14 5 -29
2 -24 4 -25 19 -11 9 8 26 16 38 17 11 1 21 6 21 13 0 18 34 51 48 47 6 -3 12
0 12 7 0 6 -4 8 -10 5 -12 -8 -13 -3 0 29 5 14 15 26 22 26 9 0 9 -3 0 -12z
m238 8 c0 -2 -8 -10 -17 -17 -16 -13 -17 -12 -4 4 13 16 21 21 21 13z m-1616
-37 c-4 -35 -22 -62 -35 -54 -9 6 5 51 23 72 15 18 16 17 12 -18z m1048 -2
c-12 -13 -22 -34 -22 -48 0 -13 -5 -31 -10 -39 -8 -11 -10 -1 -8 35 2 31 8 50
15 50 7 0 18 6 25 13 22 22 22 13 0 -11z m288 0 c0 -7 -15 -28 -33 -45 -30
-29 -35 -31 -47 -17 -11 13 -9 20 15 45 30 31 65 40 65 17z m-1270 -51 c-5
-22 -18 -48 -29 -60 l-21 -20 0 26 c0 14 7 32 16 39 9 7 20 24 25 37 14 36 19
22 9 -22z m1384 29 c-4 -8 -2 -15 3 -15 13 0 10 -29 -5 -57 -11 -20 -10 -22 5
-17 10 2 8 -1 -4 -7 -13 -7 -23 -15 -23 -19 0 -14 44 -20 52 -7 4 6 10 9 13 5
7 -6 -42 -48 -56 -48 -5 0 -9 5 -9 10 0 12 -22 9 -32 -5 -5 -6 -8 -6 -8 1 0 7
-15 10 -40 9 -28 -2 -38 1 -33 9 4 6 8 14 8 17 0 14 84 99 98 99 8 0 17 9 20
20 3 11 8 20 11 20 3 0 3 -7 0 -15z m-226 -9 c14 5 -9 -19 -55 -56 -21 -17
-24 -11 -7 15 9 14 21 22 27 18 6 -3 7 -1 3 5 -4 7 -4 17 0 24 6 9 9 9 11 1 3
-7 12 -9 21 -7z m-281 -98 c-2 -13 -4 -5 -4 17 -1 22 1 32 4 23 2 -10 2 -28 0
-40z m-1257 9 c0 -15 -9 -28 -24 -35 -22 -10 -24 -8 -28 20 -4 24 -3 28 6 16
13 -17 36 -12 36 8 0 8 2 14 5 14 3 0 5 -11 5 -23z m1284 -12 c3 -8 1 -15 -4
-15 -6 0 -10 7 -10 15 0 8 2 15 4 15 2 0 6 -7 10 -15z m-940 -20 c-7 -18 -20
-19 -30 -3 -4 6 -3 8 4 4 6 -3 13 -2 17 4 9 15 15 12 9 -5z m1281 6 c3 -5 -4
-12 -15 -16 -11 -3 -20 -9 -20 -13 0 -4 -11 -7 -24 -7 -13 0 -22 4 -18 9 3 5
-2 7 -11 3 -10 -4 -17 -2 -17 4 0 6 -7 8 -16 5 -8 -3 -12 -2 -9 3 3 5 22 8 43
6 21 -2 45 1 53 6 18 11 26 11 34 0z m-622 -30 c4 -1 12 -1 17 -1 24 0 7 -29
-20 -35 -32 -7 -70 1 -70 15 0 20 32 40 48 31 9 -5 20 -9 25 -10z m-1002 -28
c-8 -15 -10 -15 -11 -2 0 17 10 32 18 25 2 -3 -1 -13 -7 -23z m1248 2 c6 -7
-18 -25 -34 -25 -5 0 -17 5 -25 10 -13 9 -13 11 -1 19 14 9 49 7 60 -4z m151
5 c0 -5 -5 -10 -11 -10 -5 0 -7 5 -4 10 3 6 8 10 11 10 2 0 4 -4 4 -10z m433
-17 c-7 -2 -21 -2 -30 0 -10 3 -4 5 12 5 17 0 24 -2 18 -5z m-635 -25 c-2 -6
-17 -13 -34 -14 -35 -3 -104 -22 -86 -23 7 -1 11 -5 8 -10 -7 -10 38 -31 68
-31 18 0 28 9 40 40 9 22 23 40 31 40 19 0 19 -16 0 -24 -8 -3 -15 -11 -15
-18 0 -9 3 -9 11 2 7 11 8 4 3 -25 -4 -22 -13 -48 -22 -58 -14 -16 -12 -21 26
-66 89 -105 109 -170 70 -227 -13 -19 -25 -34 -28 -34 -3 0 -4 19 -3 43 2 38
1 39 -6 12 -5 -16 -13 -41 -19 -55 -10 -24 -11 -24 -11 9 -1 41 -7 38 -14 -8
-3 -18 -15 -43 -26 -55 -12 -12 -21 -29 -21 -37 0 -25 -49 -88 -81 -105 -42
-21 -180 -28 -222 -11 -29 13 -132 129 -122 139 2 2 -9 5 -25 6 l-30 2 43 -57
c50 -66 60 -83 53 -83 -14 0 -116 150 -117 171 0 23 -1 23 -10 4 -7 -15 -8
-12 -4 15 2 19 24 73 47 120 37 74 50 90 98 121 68 46 230 109 278 109 19 0
50 -5 68 -12 38 -14 64 1 64 35 0 20 0 20 -14 2 -12 -17 -28 -20 -98 -21 -45
-1 -97 -5 -114 -9 -29 -6 -32 -4 -37 21 -3 15 -3 33 -1 38 6 15 139 55 194 59
25 2 49 4 53 5 5 1 7 -3 5 -10z m-275 -44 c-14 -13 -21 -24 -16 -24 6 0 8 -11
5 -25 -8 -42 -19 -28 -17 21 1 40 -1 44 -12 28 -10 -14 -13 -15 -13 -3 0 24
18 36 50 31 l29 -4 -26 -24z m1002 -43 c3 -6 -8 -8 -26 -6 -43 6 -50 15 -11
15 17 0 33 -4 37 -9z m135 -20 c0 -13 -36 -20 -51 -9 -11 8 -11 9 2 5 9 -3 22
-1 30 4 18 11 19 11 19 0z m-680 -10 c0 -5 7 -17 16 -25 14 -15 14 -16 -4 -16
-11 0 -23 7 -26 16 -9 23 -7 34 4 34 6 0 10 -4 10 -9z m-920 -26 c-16 -19 -31
-19 -24 0 4 8 10 12 15 9 5 -3 9 0 9 7 0 7 3 9 6 6 4 -4 1 -13 -6 -22z m-300
-25 c0 -5 -5 -10 -11 -10 -5 0 -7 5 -4 10 3 6 8 10 11 10 2 0 4 -4 4 -10z m80
-10 c0 -5 -7 -10 -16 -10 -8 0 -12 5 -9 10 3 6 10 10 16 10 5 0 9 -4 9 -10z
m1209 -22 c33 -9 33 -10 12 -24 -22 -16 -66 -10 -55 7 3 6 -2 17 -12 25 -18
15 -18 15 1 9 11 -4 35 -12 54 -17z m595 -60 c-3 -11 1 -20 10 -24 9 -3 16
-11 16 -17 0 -5 -10 -2 -21 9 -21 19 -22 19 -15 -2 4 -14 1 -26 -11 -35 -15
-11 -16 -11 -5 1 17 20 15 30 -8 30 -11 0 -20 5 -20 11 0 5 -4 7 -10 4 -17
-10 -11 4 9 24 21 21 38 16 20 -6 -7 -8 -8 -13 -1 -13 5 0 15 6 21 14 8 10 6
20 -11 42 l-22 29 27 -24 c18 -16 25 -31 21 -43z m60 17 c-4 -8 -11 -12 -17
-8 -8 5 -7 8 1 11 7 2 9 9 6 14 -4 7 -2 8 4 4 6 -4 9 -13 6 -21z m-657 -34
c18 -23 16 -30 -7 -28 -11 1 -20 5 -20 9 0 5 -10 3 -22 -3 -23 -12 -23 -12 -5
9 11 11 16 25 12 31 -10 17 28 0 42 -18z m-761 -39 c-17 -16 -18 -16 -5 5 7
12 15 20 18 17 3 -2 -3 -12 -13 -22z m-296 13 c0 -12 -58 -28 -121 -34 -52 -5
-66 -4 -62 6 3 8 23 13 47 14 22 0 59 4 81 8 54 12 55 12 55 6z m1484 -47 c-3
-4 0 -8 7 -8 7 0 10 -2 8 -5 -7 -7 -49 6 -49 16 0 4 9 7 19 6 11 0 17 -5 15
-9z m-44 -48 c0 -5 -2 -10 -4 -10 -3 0 -8 5 -11 10 -3 6 -1 10 4 10 6 0 11 -4
11 -10z m-394 -36 c65 -27 84 -51 84 -105 0 -49 -19 -113 -27 -92 -3 8 -10 6
-23 -7 -38 -38 -206 -38 -269 1 -26 16 -32 25 -27 42 3 12 6 30 6 40 0 10 16
33 35 52 27 28 42 35 72 35 28 0 34 3 23 10 -12 7 -7 12 20 24 45 19 59 19
106 0z m254 -8 c0 -2 -7 -7 -16 -10 -8 -3 -12 -2 -9 4 6 10 25 14 25 6z
m-1533 -83 c-3 -10 -5 -2 -5 17 0 19 2 27 5 18 2 -10 2 -26 0 -35z m353 37
c-8 -5 -22 -9 -30 -9 -10 0 -8 3 5 9 27 12 43 12 25 0z m137 -39 c22 -16 43
-39 46 -50 6 -24 -3 -27 -22 -8 -11 10 -13 9 -8 -5 4 -10 5 -18 4 -18 -1 0
-17 4 -35 9 -28 8 -38 6 -69 -15 -20 -13 -42 -24 -50 -24 -8 0 -19 -13 -24
-30 -6 -16 -15 -30 -20 -30 -5 0 -9 -13 -9 -30 0 -32 -9 -37 -28 -18 -7 7 -8
17 -1 30 5 10 6 18 1 18 -20 0 3 54 35 84 50 45 86 81 101 100 18 23 33 20 79
-13z m1273 -1 c0 -5 -5 -10 -11 -10 -5 0 -7 5 -4 10 3 6 8 10 11 10 2 0 4 -4
4 -10z m90 0 c0 -5 -4 -10 -10 -10 -5 0 -10 5 -10 10 0 6 5 10 10 10 6 0 10
-4 10 -10z m-133 -6 c-3 -3 -12 -4 -19 -1 -8 3 -5 6 6 6 11 1 17 -2 13 -5z
m151 -16 c4 13 42 3 42 -10 0 -6 7 -7 16 -4 8 3 12 2 9 -4 -3 -5 -24 -8 -45
-6 -22 2 -38 1 -35 -4 3 -4 -14 -3 -38 3 -24 7 -35 13 -24 15 9 2 17 8 17 12
0 6 12 5 27 -1 17 -6 29 -7 31 -1z m-305 -45 c-7 -2 -19 -2 -25 0 -7 3 -2 5
12 5 14 0 19 -2 13 -5z m57 -33 c8 -5 12 -11 10 -14 -3 -2 -14 2 -24 10 -22
15 -10 19 14 4z m-560 -35 c27 -20 30 -25 14 -25 -10 0 -30 12 -43 25 -30 32
-14 32 29 0z m-583 -35 c-1 -13 -5 -16 -11 -10 -6 6 -18 2 -33 -12 -13 -12
-23 -17 -23 -13 0 10 50 54 62 55 4 0 6 -9 5 -20z m102 -12 c-1 -31 -1 -31 -8
-8 -5 14 -6 28 -4 33 9 15 13 6 12 -25z m1126 11 c11 -17 -1 -21 -15 -4 -8 9
-8 15 -2 15 6 0 14 -5 17 -11z m190 -24 c22 -19 35 -35 28 -35 -6 0 -13 3 -15
8 -1 4 -18 19 -36 35 -19 15 -30 27 -25 27 4 -1 26 -16 48 -35z m-1515 21 c0
-2 -9 -6 -20 -9 -11 -3 -18 -1 -14 4 5 9 34 13 34 5z m153 -8 c-6 -7 -9 -42
-8 -78 1 -41 -1 -56 -6 -40 -4 14 -7 38 -8 53 -1 19 -5 26 -13 21 -7 -4 -2 7
11 24 12 18 25 32 28 32 3 0 1 -6 -4 -12z m1280 1 c38 -20 92 -71 71 -67 -10
2 -28 11 -39 20 -11 9 -31 26 -45 37 -28 22 -21 27 13 10z m-310 -19 c-3 -11
-9 -17 -15 -14 -5 3 -4 12 3 20 16 19 18 18 12 -6z m428 3 c13 -16 12 -17 -3
-4 -10 7 -18 15 -18 17 0 8 8 3 21 -13z m-746 -3 c8 -13 -5 -13 -25 0 -13 8
-13 10 2 10 9 0 20 -4 23 -10z m245 0 c18 -12 2 -12 -25 0 -13 6 -15 9 -5 9 8
0 22 -4 30 -9z m192 -12 c-12 -12 -35 -1 -27 12 3 5 13 6 21 3 10 -4 12 -9 6
-15z m123 12 c3 -6 -1 -7 -9 -4 -18 7 -21 14 -7 14 6 0 13 -4 16 -10z m-1100
-20 c-7 -12 14 -143 25 -154 5 -5 6 14 3 46 -3 35 -1 62 6 74 11 16 12 16 7 2
-3 -12 0 -18 9 -18 15 0 22 -20 28 -80 l4 -35 1 38 c2 35 3 36 22 25 25 -16
26 -45 3 -52 -10 -2 11 -4 47 -3 36 1 71 -2 78 -6 7 -5 12 -3 12 7 0 8 -9 17
-19 21 -25 8 -35 38 -21 65 14 25 33 16 24 -12 -11 -37 19 -14 41 30 12 24 27
48 34 55 11 10 11 8 2 -10 -9 -17 -9 -23 0 -23 6 0 9 -7 5 -15 -3 -8 -1 -15 3
-15 5 0 12 7 15 16 4 9 9 15 11 12 3 -2 -4 -29 -14 -59 -24 -66 -17 -82 15
-35 27 40 30 41 40 24 5 -7 3 -8 -6 -3 -8 5 -11 3 -8 -6 3 -8 1 -22 -3 -31 -7
-12 -4 -18 11 -23 11 -3 20 -11 20 -16 0 -11 -11 -11 -29 0 -20 13 -40 3 -38
-19 1 -14 5 -16 18 -9 10 5 29 9 43 9 14 0 28 5 31 10 3 6 2 10 -2 10 -5 0
-10 10 -10 22 -1 13 -7 24 -13 26 -16 6 -12 22 8 23 15 1 15 2 0 6 -19 5 -41
53 -36 82 2 15 7 18 18 11 12 -7 12 -12 3 -21 -17 -17 2 -39 32 -39 25 0 41
28 25 44 -17 17 -11 27 9 14 16 -9 17 -16 9 -31 -7 -13 -7 -22 1 -30 8 -8 11
-4 11 15 0 26 31 58 55 58 5 0 2 -5 -7 -11 -20 -11 -69 -109 -62 -121 3 -5 12
-4 20 3 7 6 20 9 27 6 8 -3 13 3 14 14 1 11 -2 17 -8 14 -5 -4 -9 3 -9 14 0
11 5 23 12 27 7 5 8 3 3 -6 -5 -9 -4 -11 4 -6 6 4 9 11 6 16 -6 10 24 50 37
50 4 0 5 -8 1 -17 -5 -15 -3 -16 8 -5 7 6 20 12 28 12 10 0 12 -3 6 -8 -6 -4
-11 -16 -10 -27 0 -11 -4 -23 -10 -27 -5 -4 -10 -12 -10 -17 0 -15 -78 -72
-91 -67 -8 3 -11 -1 -7 -10 7 -19 15 -18 54 10 19 14 53 35 77 47 38 21 46 22
78 10 43 -15 51 -11 24 14 -22 20 -26 35 -10 35 6 0 10 -7 10 -15 0 -13 10
-19 30 -17 3 0 7 -11 8 -25 1 -19 -2 -24 -13 -19 -32 12 -113 18 -118 9 -4 -6
5 -9 21 -7 17 2 20 1 7 -2 -11 -4 -26 -11 -32 -16 -9 -7 -13 -6 -13 3 0 8 -14
-1 -30 -19 -17 -18 -30 -28 -30 -22 0 5 -7 7 -15 4 -18 -7 -20 -25 -2 -22 7 2
11 -5 9 -16 -2 -12 1 -16 9 -11 7 5 10 3 7 -6 -3 -8 3 -26 13 -40 10 -14 15
-30 11 -34 -4 -5 1 -5 11 -2 11 4 20 1 24 -9 8 -21 -4 -29 -22 -14 -12 10 -15
10 -15 -1 0 -10 -3 -10 -12 -1 -7 7 -20 12 -31 12 -10 0 -15 5 -12 10 6 9 -16
15 -39 11 -20 -4 -54 22 -49 36 4 11 -4 14 -33 14 -103 -1 -189 11 -231 31
-28 14 -88 4 -120 -19 -14 -10 -32 -22 -40 -28 -10 -7 -17 -5 -24 8 -6 9 -15
17 -22 17 -7 0 -6 -4 3 -10 8 -5 12 -11 10 -13 -13 -13 -133 -45 -147 -40 -10
4 -14 2 -10 -4 3 -5 -9 -15 -27 -20 -31 -10 -35 -8 -45 13 -12 27 5 30 26 4 7
-9 12 -10 13 -4 0 7 -13 26 -30 44 -31 33 -46 84 -35 119 9 29 22 26 29 -6 4
-16 16 -52 28 -81 19 -48 23 -52 36 -38 13 13 13 19 -3 52 -9 20 -18 59 -18
85 0 27 -5 49 -9 49 -12 0 2 52 18 70 12 12 14 12 14 0 0 -8 3 -26 5 -40 5
-22 4 -23 -5 -5 -8 16 -9 12 -5 -20 8 -67 25 -115 48 -138 l22 -22 3 23 c2 13
-4 34 -12 47 -17 25 -22 65 -8 65 15 -1 44 -29 38 -39 -4 -5 -1 -13 5 -16 5
-4 8 -13 5 -21 -3 -8 0 -11 10 -7 11 4 12 9 3 19 -14 18 0 18 24 0 20 -16 23
-30 3 -23 -8 3 -24 -5 -37 -19 -12 -13 -18 -24 -12 -24 6 0 13 5 15 10 2 6 13
12 24 12 43 4 44 23 3 84 -32 49 -39 67 -37 104 1 39 2 40 5 10 2 -19 6 -46
10 -60 l6 -25 7 25 c7 23 8 23 9 3 1 -12 6 -25 11 -28 6 -4 8 -11 5 -16 -4 -5
-1 -17 5 -26 9 -16 10 -15 5 4 -5 18 -3 22 9 17 11 -4 16 -1 16 10 0 9 -5 16
-11 16 -7 0 -9 20 -6 58 6 69 5 65 17 57 6 -4 8 -10 5 -15z m480 2 c-3 -3 -11
0 -18 7 -9 10 -8 11 6 5 10 -3 15 -9 12 -12z m169 -7 c-4 -8 -2 -15 4 -15 6 0
18 -3 28 -7 10 -4 15 -2 11 3 -3 6 -1 16 4 24 7 11 9 7 7 -14 -3 -28 -6 -30
-51 -32 -29 -2 -45 1 -42 7 4 5 11 6 17 3 8 -5 9 -1 4 11 -4 11 -2 22 6 27 18
11 18 10 12 -7z m-540 -36 c-15 -17 -13 -24 9 -20 4 0 7 -5 8 -11 0 -7 6 5 14
27 7 22 13 33 13 25 0 -26 -13 -61 -22 -60 -5 1 -12 -3 -15 -8 -3 -6 -11 0
-18 14 -9 19 -8 27 3 38 8 8 14 21 15 28 0 11 2 11 6 0 3 -7 -3 -22 -13 -33z
m800 29 c12 -11 12 -16 -2 -32 -16 -18 -16 -19 1 -13 9 4 17 2 17 -3 0 -6 -3
-11 -7 -11 -30 -5 -52 -5 -51 0 4 33 -4 41 -37 41 -19 0 -35 4 -35 9 0 5 16 9
36 9 19 0 38 3 41 6 10 9 23 7 37 -6z m113 6 c-3 -3 -12 -4 -19 -1 -8 3 -5 6
6 6 11 1 17 -2 13 -5z m-1282 -34 c-4 -12 -9 -19 -12 -17 -3 3 -2 15 2 27 4
12 9 19 12 17 3 -3 2 -15 -2 -27z m1005 15 c0 -8 -4 -15 -10 -15 -5 0 -10 7
-10 15 0 8 5 15 10 15 6 0 10 -7 10 -15z m-893 -67 c-3 -7 -5 -2 -5 12 0 14 2
19 5 13 2 -7 2 -19 0 -25z m-322 -8 c3 -5 -1 -10 -10 -10 -9 0 -13 5 -10 10 3
6 8 10 10 10 2 0 7 -4 10 -10z m-288 -45 c8 -23 0 -24 -19 -3 -15 15 -16 18
-3 18 9 0 18 -7 22 -15z m1633 0 c16 -19 25 -85 11 -85 -6 0 -8 -7 -5 -15 8
-20 -6 -18 -33 4 -13 11 -23 29 -23 40 0 17 5 21 23 18 12 -2 16 -2 10 0 -18
6 -16 23 3 23 8 0 12 5 9 10 -4 6 -10 8 -15 5 -5 -3 -11 -1 -15 5 -10 16 21
12 35 -5z m-131 -9 c7 -8 22 -17 35 -20 25 -6 42 -34 29 -47 -13 -12 -115 -50
-121 -45 -2 3 9 13 27 23 17 10 31 22 31 26 0 5 -13 -1 -29 -12 -27 -20 -61
-20 -61 -1 0 5 -8 10 -17 13 -11 2 1 10 32 20 28 10 38 16 23 14 -33 -5 -34
-3 -10 22 21 23 45 26 61 7z m-66 -3 c-7 -2 -21 -2 -30 0 -10 3 -4 5 12 5 17
0 24 -2 18 -5z m-1275 -16 c12 -1 22 -6 22 -10 0 -5 4 -6 8 -3 4 2 8 -4 8 -15
0 -10 -4 -19 -8 -19 -4 0 -5 -6 -2 -14 3 -8 0 -17 -7 -22 -7 -4 -10 -3 -5 4 7
12 -13 62 -26 62 -4 0 -8 -4 -8 -10 0 -5 4 -10 8 -10 4 0 9 -10 9 -22 2 -18 0
-20 -7 -8 -9 13 -11 13 -20 0 -9 -12 -10 -12 -8 5 2 12 -4 21 -14 23 -12 2
-18 -3 -19 -15 0 -14 -2 -15 -6 -3 -4 8 -13 20 -22 27 -13 9 -10 11 17 9 36
-2 39 1 15 19 -15 11 -13 12 12 8 17 -3 40 -6 53 -6z m110 -22 c-3 -3 -9 2
-12 12 -6 14 -5 15 5 6 7 -7 10 -15 7 -18z m-290 -15 c6 0 16 -9 22 -20 8 -14
8 -20 0 -20 -14 0 -60 49 -60 64 0 6 7 3 14 -6 7 -10 18 -18 24 -18z m249 -2
c-3 -8 -6 -5 -6 6 -1 11 2 17 5 13 3 -3 4 -12 1 -19z m1746 -15 c-7 -2 -19 -2
-25 0 -7 3 -2 5 12 5 14 0 19 -2 13 -5z m-614 -10 c0 -5 -4 -17 -9 -28 -8 -17
-8 -16 -7 8 1 15 5 27 9 27 4 0 8 -3 7 -7z m-1189 -55 c0 -6 -7 -5 -15 2 -8 7
-15 17 -15 22 0 6 7 5 15 -2 8 -7 15 -17 15 -22z m750 28 c0 -2 -7 -7 -16 -10
-8 -3 -12 -2 -9 4 6 10 25 14 25 6z m610 -11 c0 -8 -4 -15 -10 -15 -5 0 -10 7
-10 15 0 8 5 15 10 15 6 0 10 -7 10 -15z m77 -7 c-3 -8 -6 -5 -6 6 -1 11 2 17
5 13 3 -3 4 -12 1 -19z m-527 -8 c11 -7 4 -10 -25 -9 -31 0 -36 2 -20 9 26 11
28 11 45 0z m558 -4 c-7 -8 -15 -12 -17 -11 -5 6 10 25 20 25 5 0 4 -6 -3 -14z
m-1669 -33 c14 -21 17 -31 8 -27 -13 4 -37 45 -37 61 0 7 0 8 29 -34z m835 16
c3 -3 -6 -6 -20 -7 -14 -1 -23 2 -20 7 6 9 31 9 40 0z m-784 -30 c0 -10 -3
-19 -8 -19 -10 0 -32 37 -25 43 10 11 33 -6 33 -24z m1587 6 c-4 -8 -11 -15
-17 -15 -6 0 -6 7 2 20 14 22 24 19 15 -5z m-81 -11 c-5 -20 -3 -25 11 -24 39
4 53 -1 53 -19 0 -21 -47 -43 -77 -35 -10 3 -26 19 -36 37 -13 22 -21 27 -26
18 -6 -9 -10 -7 -14 8 -5 20 -4 20 24 6 27 -14 29 -14 45 10 21 32 28 32 20
-1z m-1415 -1 c13 -16 12 -17 -3 -4 -10 7 -18 15 -18 17 0 8 8 3 21 -13z m64
5 c3 -3 -2 -11 -11 -18 -13 -12 -17 -11 -25 1 -5 8 -9 17 -9 20 0 7 37 5 45
-3z m475 2 c0 -5 -17 -10 -37 -9 -34 1 -35 2 -13 9 36 11 50 11 50 0z m-588
-23 c-1 -8 5 -18 15 -20 16 -4 16 -5 1 -6 -17 -1 -31 14 -34 37 -2 7 3 11 9 9
7 -2 11 -11 9 -20z m741 14 c4 0 7 -8 7 -16 0 -10 11 -15 33 -16 30 -1 31 -1
7 -9 -21 -7 -22 -8 -5 -10 11 -1 1 -7 -25 -16 -52 -16 -73 -18 -66 -5 4 5 0
12 -6 15 -7 3 1 4 17 2 l30 -5 -27 11 c-20 9 -26 17 -23 32 2 12 4 22 4 22 1
1 39 -2 54 -5z m595 -4 c8 -10 6 -13 -9 -13 -19 0 -24 7 -12 19 8 9 9 9 21 -6z
m-312 -22 c19 -14 19 -14 -1 -14 -11 0 -29 6 -39 14 -20 15 -20 15 0 15 11 0
29 -7 40 -15z m-1081 -23 c2 -28 -15 -24 -26 7 -7 18 -6 22 8 19 9 -2 17 -13
18 -26z m640 18 c-3 -5 -14 -10 -23 -10 -15 0 -15 2 -2 10 20 13 33 13 25 0z
m492 -6 c-3 -3 -12 -4 -19 -1 -8 3 -5 6 6 6 11 1 17 -2 13 -5z m-569 -11 c-10
-2 -26 -2 -35 0 -10 3 -2 5 17 5 19 0 27 -2 18 -5z m471 1 c45 -9 33 -30 -15
-25 -44 3 -49 6 -39 20 7 13 12 13 54 5z m-1049 -39 c50 -41 44 -46 -8 -8 -53
39 -58 43 -45 43 6 0 30 -16 53 -35z m680 25 c0 -5 -15 -10 -34 -10 -19 0 -38
5 -41 10 -4 6 10 10 34 10 23 0 41 -4 41 -10z m-260 -20 c-8 -5 -24 -9 -35 -9
-16 1 -16 2 5 9 35 11 48 11 30 0z m1043 -67 c-7 -2 -19 -2 -25 0 -7 3 -2 5
12 5 14 0 19 -2 13 -5z m84 -19 c-3 -3 -12 -4 -19 -1 -8 3 -5 6 6 6 11 1 17
-2 13 -5z"/>
<path d="M190 2660 c0 -5 5 -10 10 -10 6 0 10 5 10 10 0 6 -4 10 -10 10 -5 0
-10 -4 -10 -10z"/>
<path d="M300 1992 c0 -7 12 -18 28 -25 15 -6 30 -16 33 -21 8 -10 29 1 29 15
0 6 -4 7 -10 4 -5 -3 -10 -1 -10 4 0 6 -10 11 -23 11 -13 0 -28 5 -35 12 -9 9
-12 9 -12 0z"/>
<path d="M419 1797 c-1 -4 -2 -10 -3 -14 -1 -5 -5 -14 -9 -20 -5 -7 -4 -13 2
-13 11 0 25 39 17 47 -3 4 -7 3 -7 0z"/>
<path d="M1441 1474 c0 -11 3 -14 6 -6 3 7 2 16 -1 19 -3 4 -6 -2 -5 -13z"/>
<path d="M1685 1550 c-3 -5 -2 -10 4 -10 5 0 13 5 16 10 3 6 2 10 -4 10 -5 0
-13 -4 -16 -10z"/>
<path d="M1786 1443 c-6 -14 -5 -15 5 -6 7 7 10 15 7 18 -3 3 -9 -2 -12 -12z"/>
<path d="M1740 1435 c-7 -9 -11 -18 -8 -20 3 -3 11 1 18 10 7 9 11 18 8 20 -3
3 -11 -1 -18 -10z"/>
<path d="M1000 799 c-19 -5 -48 -6 -65 -3 -24 5 -19 0 20 -20 57 -30 93 -33
135 -11 41 21 37 25 -7 9 -21 -7 -49 -13 -63 -14 l-25 0 30 25 c32 26 29 28
-25 14z"/>
<path d="M900 767 c0 -1 22 -20 50 -41 31 -24 57 -36 72 -34 18 2 8 11 -49 41
-40 21 -73 36 -73 34z"/>
<path d="M1151 742 c-11 -16 -36 -37 -56 -46 -41 -20 -44 -25 -11 -19 25 5
104 79 94 88 -3 4 -15 -7 -27 -23z"/>
<path d="M1498 1103 c6 -2 18 -2 25 0 6 3 1 5 -13 5 -14 0 -19 -2 -12 -5z"/>
<path d="M690 740 c0 -5 5 -10 11 -10 5 0 7 5 4 10 -3 6 -8 10 -11 10 -2 0 -4
-4 -4 -10z"/>
<path d="M1420 511 c-13 -26 -13 -44 2 -39 14 5 30 58 17 58 -4 0 -13 -9 -19
-19z"/>
<path d="M177 2796 c-3 -8 1 -17 9 -20 24 -9 27 -7 15 7 -6 8 -8 17 -4 20 3 4
2 7 -4 7 -6 0 -13 -6 -16 -14z"/>
<path d="M1408 2804 c-5 -4 -8 -14 -8 -22 0 -13 3 -13 18 1 25 23 35 21 27 -3
-5 -16 -3 -19 12 -13 14 5 16 3 6 -7 -6 -7 -9 -19 -6 -26 6 -17 -9 -18 -25 -2
-9 9 -12 9 -12 -3 0 -16 36 -23 45 -8 4 5 11 7 16 3 5 -3 8 -2 7 3 -4 10 5 13
38 13 14 0 23 -4 19 -10 -3 -5 -13 -6 -23 -3 -16 6 -16 5 1 -14 19 -21 22 -50
19 -155 -2 -58 -4 -66 -20 -61 -10 2 -31 -3 -47 -11 -17 -9 -25 -16 -20 -16 6
0 26 -15 45 -33 39 -38 60 -48 75 -35 5 5 19 15 30 23 19 13 18 14 -12 10 -18
-2 -33 0 -33 5 0 6 5 10 10 10 6 0 10 5 10 11 0 5 -4 7 -10 4 -5 -3 -10 -1
-10 4 0 16 16 13 34 -4 8 -9 21 -14 28 -13 6 2 12 -4 13 -12 0 -10 9 -14 24
-12 19 2 22 0 12 -12 -9 -10 -9 -16 -1 -21 8 -5 6 -12 -5 -25 -15 -16 -14 -18
5 -23 13 -3 20 0 20 9 0 8 5 14 11 14 6 0 8 13 5 33 -6 39 -52 80 -82 72 -18
-4 -21 0 -21 21 0 13 2 23 5 20 2 -3 13 -1 23 5 41 22 5 99 -46 99 -25 0 -25
1 -26 98 -1 53 -4 87 -6 75 -5 -27 -11 -28 -34 -7 -20 18 -99 31 -111 18z
m112 -34 c13 -11 19 -20 14 -20 -12 1 -44 25 -44 34 0 10 5 7 30 -14z m85
-180 c3 -5 -2 -10 -11 -10 -16 0 -16 -1 1 -14 21 -15 39 -11 29 6 -4 7 -2 8 4
4 21 -13 13 -34 -15 -39 -39 -7 -53 2 -53 34 0 22 5 29 19 29 11 0 23 -4 26
-10z m-23 -74 c6 4 9 1 6 -6 -8 -24 -28 -23 -27 2 0 13 3 17 6 10 2 -6 9 -9
15 -6z m-72 -36 c0 -5 -5 -10 -11 -10 -5 0 -7 5 -4 10 3 6 8 10 11 10 2 0 4
-4 4 -10z m30 -9 c0 -5 -7 -11 -14 -14 -10 -4 -13 -1 -9 9 6 15 23 19 23 5z"/>
<path d="M1581 2794 c0 -11 3 -14 6 -6 3 7 2 16 -1 19 -3 4 -6 -2 -5 -13z"/>
<path d="M1766 2793 c-2 -10 -7 -43 -11 -73 -4 -43 -3 -51 5 -37 12 19 27 127
17 127 -3 0 -8 -8 -11 -17z"/>
<path d="M2136 2795 c4 -8 8 -15 10 -15 2 0 4 7 4 15 0 8 -4 15 -10 15 -5 0
-7 -7 -4 -15z"/>
<path d="M220 2791 c0 -5 9 -7 20 -4 11 3 20 7 20 9 0 2 -9 4 -20 4 -11 0 -20
-4 -20 -9z"/>
<path d="M300 2784 c0 -15 26 -19 34 -5 3 5 -3 11 -14 14 -13 3 -20 0 -20 -9z"/>
<path d="M2178 2787 c-15 -12 -15 -14 1 -24 16 -10 19 -8 19 13 0 13 -1 24 -2
24 0 0 -9 -6 -18 -13z"/>
<path d="M1395 2740 c-3 -10 -2 -35 4 -55 7 -25 6 -33 -1 -28 -8 4 -9 0 -5
-11 4 -10 7 -20 7 -23 0 -4 10 2 21 13 22 19 22 19 10 -3 -16 -31 -14 -40 5
-17 15 18 15 18 8 -5 -4 -16 -3 -21 5 -17 6 4 11 0 12 -11 0 -16 1 -16 9 2 5
11 9 16 9 11 1 -5 10 -1 21 9 18 17 20 17 14 2 -3 -9 -2 -17 3 -17 5 0 8 15 8
33 0 26 -4 33 -20 32 -11 0 -26 -4 -32 -8 -9 -5 -13 -3 -13 8 0 9 -4 14 -9 11
-5 -3 -12 1 -15 10 -3 8 -10 12 -16 9 -10 -6 -15 13 -11 53 2 27 -5 29 -14 2z
m105 -104 c0 -8 -7 -16 -15 -20 -15 -5 -21 14 -8 27 11 12 23 8 23 -7z"/>
<path d="M1602 2720 c0 -14 2 -19 5 -12 2 6 2 18 0 25 -3 6 -5 1 -5 -13z"/>
<path d="M1030 2726 c0 -2 7 -7 16 -10 8 -3 12 -2 9 4 -6 10 -25 14 -25 6z"/>
<path d="M1505 2698 c6 -14 2 -18 -16 -19 -19 -1 -20 -2 -5 -6 25 -7 44 13 27
30 -10 10 -11 9 -6 -5z"/>
<path d="M800 2674 c0 -8 5 -12 10 -9 6 4 8 11 5 16 -9 14 -15 11 -15 -7z"/>
<path d="M860 2680 c0 -5 5 -10 11 -10 5 0 7 5 4 10 -3 6 -8 10 -11 10 -2 0
-4 -4 -4 -10z"/>
<path d="M1752 2603 c-14 -38 -22 -114 -11 -107 5 3 9 20 9 39 0 19 5 46 10
61 6 15 9 29 7 31 -3 2 -9 -9 -15 -24z"/>
<path d="M1400 2590 c0 -5 4 -10 10 -10 5 0 7 -7 4 -15 -5 -11 -2 -13 10 -9
16 6 16 8 0 25 -19 22 -24 23 -24 9z"/>
<path d="M2146 2515 c-9 -26 -7 -32 5 -12 6 10 9 21 6 23 -2 3 -7 -2 -11 -11z"/>
<path d="M595 2510 c-3 -5 -1 -10 4 -10 6 0 11 5 11 10 0 6 -2 10 -4 10 -3 0
-8 -4 -11 -10z"/>
<path d="M2036 2499 c3 -5 18 -8 34 -7 36 3 31 10 -10 13 -16 2 -27 -1 -24 -6z"/>
<path d="M365 2490 c-3 -5 1 -10 9 -10 9 0 16 5 16 10 0 6 -4 10 -9 10 -6 0
-13 -4 -16 -10z"/>
<path d="M430 2490 c0 -5 5 -10 11 -10 5 0 7 5 4 10 -3 6 -8 10 -11 10 -2 0
-4 -4 -4 -10z"/>
<path d="M1741 2454 c0 -11 3 -14 6 -6 3 7 2 16 -1 19 -3 4 -6 -2 -5 -13z"/>
<path d="M2120 2445 c0 -8 5 -15 10 -15 6 0 10 7 10 15 0 8 -4 15 -10 15 -5 0
-10 -7 -10 -15z"/>
<path d="M2160 2440 c-9 -16 -8 -18 5 -14 8 4 15 12 15 20 0 20 -7 17 -20 -6z"/>
<path d="M749 2433 c-13 -16 -12 -17 4 -4 9 7 17 15 17 17 0 8 -8 3 -21 -13z"/>
<path d="M395 2420 c3 -5 8 -10 11 -10 2 0 4 5 4 10 0 6 -5 10 -11 10 -5 0 -7
-4 -4 -10z"/>
<path d="M2075 2414 c-12 -12 -13 -19 -4 -30 6 -7 9 -19 6 -26 -2 -7 0 -21 5
-30 6 -13 5 -16 -6 -12 -17 7 -30 34 -15 34 6 0 7 5 4 10 -10 16 -22 3 -22
-25 0 -16 5 -25 14 -25 13 0 13 -3 3 -15 -10 -12 -7 -12 19 1 17 9 29 20 25
25 -3 6 1 20 9 33 10 15 12 28 6 37 -6 10 -9 10 -9 2 0 -7 -4 -13 -9 -13 -5 0
-7 9 -4 20 3 11 10 17 16 13 6 -3 7 -1 3 5 -10 16 -22 15 -41 -4z"/>
<path d="M270 2409 c0 -5 9 -9 20 -9 11 0 20 2 20 4 0 2 -9 6 -20 9 -11 3 -20
1 -20 -4z"/>
<path d="M1466 2406 c10 -8 21 -12 24 -10 5 6 -21 24 -34 24 -6 0 -1 -6 10
-14z"/>
<path d="M860 2404 c0 -2 18 -13 40 -24 53 -27 52 -34 -1 -10 -32 14 -45 15
-54 7 -10 -10 -8 -13 9 -16 18 -3 16 -6 -14 -17 -19 -7 -27 -13 -17 -13 9 -1
17 -5 17 -9 0 -14 -85 -92 -100 -92 -8 0 -3 8 13 18 29 18 38 48 11 38 -9 -3
-18 -6 -20 -6 -2 0 -4 -6 -4 -14 0 -8 -6 -16 -12 -19 -10 -3 -10 -7 0 -20 9
-10 12 -31 9 -56 -3 -30 -1 -38 9 -34 19 7 18 -47 0 -92 -11 -25 -11 -33 -2
-29 7 3 23 -4 36 -16 21 -18 21 -20 4 -21 -15 0 -16 -2 -4 -7 9 -4 36 -21 60
-38 25 -17 53 -33 63 -37 9 -4 17 -11 17 -18 0 -6 7 -9 15 -5 8 3 16 1 16 -4
1 -6 2 -15 3 -20 0 -6 8 -15 16 -21 11 -8 9 -9 -9 -4 -16 5 -21 4 -17 -4 4 -6
2 -11 -4 -11 -7 0 -10 6 -7 13 3 8 1 20 -4 28 -8 12 -10 12 -18 -1 -7 -10 -6
-17 2 -22 7 -4 2 -6 -11 -5 -12 0 -22 4 -22 8 0 4 -11 21 -25 37 -13 16 -22
32 -18 36 3 3 -1 6 -11 6 -9 0 -15 4 -12 9 3 5 -5 16 -19 25 -14 9 -25 12 -25
6 0 -6 7 -13 15 -16 8 -4 15 -11 15 -16 0 -6 14 -26 30 -45 17 -18 30 -38 30
-44 0 -5 7 -21 16 -35 16 -23 18 -24 35 -8 23 21 25 7 3 -17 -11 -12 -13 -25
-8 -41 4 -13 9 -27 9 -33 1 -5 3 -12 4 -15 2 -3 4 -14 6 -25 15 -89 47 -152
81 -165 65 -25 82 -3 87 110 1 19 5 37 9 40 3 3 2 28 -3 55 -5 27 -7 55 -4 62
2 7 -1 13 -8 13 -8 0 -7 3 2 9 9 6 16 30 18 63 1 29 5 63 8 76 3 12 2 22 -2
22 -5 0 -13 -10 -18 -22 -6 -13 -15 -23 -22 -23 -6 0 -15 -3 -19 -7 -4 -5 -2
-8 4 -8 7 0 12 -5 12 -11 0 -8 -4 -8 -15 1 -15 12 -15 29 0 63 4 10 5 21 1 24
-3 4 -6 1 -6 -6 0 -7 -4 -10 -9 -7 -5 4 -8 -5 -7 -19 2 -14 -3 -30 -10 -36
-11 -9 -11 -5 -5 19 5 16 5 35 0 43 -7 11 -9 9 -10 -6 0 -12 -3 -15 -6 -7 -4
10 -10 9 -26 -5 -21 -18 -21 -18 -7 1 14 18 13 19 -3 13 -14 -5 -16 -2 -12 21
4 20 3 22 -3 8 -6 -14 -11 -16 -16 -7 -13 20 2 59 26 67 12 3 28 13 36 20 22
23 37 16 16 -8 -17 -19 -17 -21 -2 -15 10 3 20 2 23 -3 12 -19 26 -10 21 13
-3 12 -3 16 0 10 3 -7 12 -13 20 -13 12 0 12 4 -1 24 -12 18 -23 22 -47 20
-17 -2 -37 -9 -44 -15 -8 -7 -25 -8 -41 -4 -22 5 -26 4 -16 -6 9 -9 9 -16 2
-25 -6 -7 -11 -26 -11 -43 -1 -32 -18 -33 -18 0 0 10 -4 19 -9 19 -29 0 -62
175 -38 199 20 20 17 43 -4 38 -16 -4 -14 2 12 39 35 51 59 60 129 45 75 -16
104 -14 55 5 -22 9 -50 18 -62 21 -13 3 -20 9 -18 13 3 5 0 12 -6 16 -8 4 -9
3 -5 -4 8 -13 -6 -17 -18 -5 -8 8 -76 32 -76 27z m-40 -138 c0 -2 -8 -10 -17
-17 -16 -13 -17 -12 -4 4 13 16 21 21 21 13z m35 -46 c-3 -5 -11 -10 -16 -10
-6 0 -7 5 -4 10 3 6 11 10 16 10 6 0 7 -4 4 -10z m-51 -23 c-1 -9 4 -17 11
-17 21 0 27 -47 9 -75 -9 -14 -18 -25 -21 -25 -9 0 -43 87 -43 113 0 24 4 28
23 25 14 -2 21 -9 21 -21z m4 -145 c2 -7 -2 -10 -12 -6 -9 3 -16 11 -16 16 0
13 23 5 28 -10z m45 -31 c21 -44 21 -49 5 -40 -22 12 -38 41 -38 68 0 32 7 26
33 -28z m-11 -45 c12 -9 18 -16 13 -16 -15 0 -55 43 -54 59 0 11 3 9 9 -5 5
-12 19 -29 32 -38z m107 -56 c11 -24 11 -24 -3 -6 -9 11 -16 24 -16 30 0 12 5
7 19 -24z m61 -159 c0 -21 -16 -2 -24 29 -7 24 -6 24 8 6 9 -11 16 -27 16 -35z
m-36 21 c3 -5 -1 -9 -9 -9 -8 0 -12 4 -9 9 3 4 7 8 9 8 2 0 6 -4 9 -8z m86
-47 c0 -8 6 -16 13 -18 9 -4 8 -8 -3 -16 -10 -7 -11 -11 -2 -11 6 0 12 -4 12
-10 0 -5 -7 -7 -16 -3 -8 3 -13 12 -10 20 3 8 -2 29 -11 46 -15 30 -15 31 0
18 10 -7 17 -19 17 -26z m-99 -10 c5 4 6 0 3 -8 -2 -7 -11 -14 -19 -14 -17 0
-17 0 -8 23 4 11 8 13 11 6 2 -7 8 -10 13 -7z m44 -65 c-3 -5 -12 -10 -18 -10
-7 0 -6 4 3 10 19 12 23 12 15 0z m73 -25 c0 -14 -4 -28 -9 -31 -5 -3 -6 1 -3
9 3 8 0 18 -6 22 -9 6 -9 10 1 16 8 5 15 9 15 9 1 0 2 -11 2 -25z m-10 -86
c-3 -8 -7 -3 -11 10 -4 17 -3 21 5 13 5 -5 8 -16 6 -23z m-43 -28 c3 -5 2 -12
-3 -15 -5 -3 -9 1 -9 9 0 17 3 19 12 6z m29 -7 c3 -8 2 -12 -4 -9 -6 3 -10 10
-10 16 0 14 7 11 14 -7z"/>
<path d="M770 2194 c0 -8 5 -12 10 -9 6 3 10 10 10 16 0 5 -4 9 -10 9 -5 0
-10 -7 -10 -16z"/>
<path d="M790 2150 c0 -11 4 -20 9 -20 5 0 7 9 4 20 -3 11 -7 20 -9 20 -2 0
-4 -9 -4 -20z"/>
<path d="M1605 2400 c-3 -5 -4 -13 -2 -17 3 -5 -8 -8 -23 -8 -16 0 -32 3 -36
8 -4 4 -12 7 -18 7 -6 0 -3 -5 7 -11 17 -10 22 -69 5 -69 -4 0 -8 4 -8 9 0 5
-11 8 -25 7 -19 -1 -22 -3 -12 -11 20 -15 27 -41 15 -53 -8 -8 -5 -9 11 -5 11
3 21 12 21 19 0 8 5 14 10 14 6 0 10 -4 10 -9 0 -15 30 -21 51 -11 13 7 19 7
19 0 0 -5 4 -10 10 -10 5 0 7 13 3 32 -4 22 -3 29 5 24 7 -4 12 -14 12 -23 0
-9 3 -13 7 -10 3 4 0 18 -7 32 -9 17 -16 22 -21 13 -6 -9 -11 -9 -22 1 -13 10
-13 16 -1 39 8 15 14 30 14 35 0 10 -18 9 -25 -3z m1 -85 c19 -19 11 -32 -18
-30 -21 2 -24 6 -19 35 2 15 20 12 37 -5z"/>
<path d="M1105 2332 c-7 -5 -7 -18 1 -41 10 -31 11 -32 17 -11 7 28 -5 62 -18
52z"/>
<path d="M735 2320 c-3 -5 -1 -10 4 -10 6 0 11 5 11 10 0 6 -2 10 -4 10 -3 0
-8 -4 -11 -10z"/>
<path d="M1737 2323 c-4 -3 -7 -11 -7 -17 0 -6 5 -5 12 2 6 6 9 14 7 17 -3 3
-9 2 -12 -2z"/>
<path d="M2167 2319 c-9 -5 -22 -7 -27 -4 -12 8 -12 3 -1 -28 8 -22 7 -24 -10
-20 -23 6 -24 -6 -4 -33 14 -19 14 -19 15 1 0 31 24 0 25 -33 0 -16 6 -26 13
-24 10 2 10 -2 1 -20 -12 -22 -12 -22 -20 -3 -4 11 -8 15 -8 10 -1 -6 -22 -9
-48 -8 l-48 2 53 -10 c28 -6 52 -15 52 -21 0 -6 7 -5 17 3 15 12 16 12 10 -4
-4 -10 -7 -21 -7 -23 0 -2 -15 -4 -32 -5 -28 0 -30 -2 -13 -9 11 -5 30 -9 43
-9 21 -1 22 2 22 104 0 87 -2 103 -15 99 -29 -11 -39 8 -14 27 26 20 24 24 -4
8z"/>
<path d="M365 2290 c3 -5 8 -10 11 -10 2 0 4 5 4 10 0 6 -5 10 -11 10 -5 0 -7
-4 -4 -10z"/>
<path d="M1481 2284 c0 -11 3 -14 6 -6 3 7 2 16 -1 19 -3 4 -6 -2 -5 -13z"/>
<path d="M710 2279 c0 -5 5 -7 10 -4 6 3 10 8 10 11 0 2 -4 4 -10 4 -5 0 -10
-5 -10 -11z"/>
<path d="M1727 2266 c-6 -15 1 -26 15 -26 11 0 10 27 -1 34 -5 3 -11 0 -14 -8z"/>
<path d="M470 2255 c0 -8 4 -15 8 -15 5 0 9 7 9 15 0 8 -4 15 -9 15 -4 0 -8
-7 -8 -15z"/>
<path d="M936 2251 c-3 -5 4 -12 17 -16 22 -8 22 -8 -3 -12 -14 -3 -29 -9 -35
-15 -7 -8 -4 -9 9 -4 11 4 26 0 35 -8 19 -17 36 -10 45 20 5 16 0 23 -19 32
-31 14 -42 15 -49 3z"/>
<path d="M1056 2235 c-20 -21 -21 -49 -1 -41 8 3 19 -2 24 -12 11 -18 12 -14
15 42 1 26 -18 31 -38 11z"/>
<path d="M1490 2209 c0 -11 4 -18 10 -14 5 3 7 12 3 20 -7 21 -13 19 -13 -6z"/>
<path d="M1735 2189 c0 -37 -3 -42 -25 -45 -14 -2 -38 -6 -53 -9 -19 -3 -30 0
-33 10 -4 8 -10 12 -15 9 -6 -3 -15 -1 -22 4 -7 5 -27 12 -46 16 -27 5 -32 3
-27 -10 3 -9 6 -18 6 -20 0 -2 11 -4 25 -4 16 0 25 -6 25 -15 0 -17 11 -19 26
-6 5 5 38 6 72 3 l64 -5 -6 -29 c-5 -25 -4 -28 8 -19 10 8 15 8 18 1 4 -13
195 -52 220 -44 10 3 18 2 18 -3 0 -4 14 -9 30 -10 49 -4 34 15 -17 22 -170
22 -239 36 -249 50 -7 9 -9 41 -7 80 3 36 1 65 -4 65 -4 0 -8 -19 -8 -41z"/>
<path d="M1500 2141 c0 -6 4 -13 10 -16 6 -3 7 1 4 9 -7 18 -14 21 -14 7z"/>
<path d="M881 2113 c11 -19 11 -27 2 -43 -11 -16 -10 -18 1 -14 24 9 25 42 3
61 -19 18 -20 18 -6 -4z"/>
<path d="M1014 2105 c22 -17 36 -19 36 -6 0 10 -24 21 -43 21 -7 0 -3 -7 7
-15z"/>
<path d="M1070 2105 c7 -9 15 -13 17 -11 7 7 -7 26 -19 26 -6 0 -6 -6 2 -15z"/>
<path d="M1510 2100 c0 -6 7 -10 15 -10 8 0 15 2 15 4 0 2 -7 6 -15 10 -8 3
-15 1 -15 -4z"/>
<path d="M1788 2083 c6 -2 18 -2 25 0 6 3 1 5 -13 5 -14 0 -19 -2 -12 -5z"/>
<path d="M1918 2083 c6 -2 18 -2 25 0 6 3 1 5 -13 5 -14 0 -19 -2 -12 -5z"/>
<path d="M2153 2060 c-28 -12 -30 -24 -3 -15 21 7 24 -2 14 -29 -3 -9 -11 -13
-18 -9 -8 4 -8 3 0 -6 20 -22 53 4 52 39 -1 31 -8 35 -45 20z"/>
<path d="M711 2044 c0 -11 3 -14 6 -6 3 7 2 16 -1 19 -3 4 -6 -2 -5 -13z"/>
<path d="M2115 2020 c3 -5 8 -10 11 -10 2 0 4 5 4 10 0 6 -5 10 -11 10 -5 0
-7 -4 -4 -10z"/>
<path d="M2098 1953 c7 -3 16 -2 19 1 4 3 -2 6 -13 5 -11 0 -14 -3 -6 -6z"/>
<path d="M1540 1920 c0 -5 19 -10 42 -10 49 0 47 5 -4 14 -24 4 -38 3 -38 -4z"/>
<path d="M1900 1921 c0 -5 7 -12 16 -15 14 -5 15 -4 4 9 -14 17 -20 19 -20 6z"/>
<path d="M1937 1913 c3 -7 9 -13 14 -13 5 0 9 6 9 13 0 8 -6 14 -14 14 -8 0
-12 -6 -9 -14z"/>
<path d="M1855 1910 c4 -6 11 -8 16 -5 14 9 11 15 -7 15 -8 0 -12 -5 -9 -10z"/>
<path d="M873 1875 c7 -14 16 -25 20 -25 9 0 -9 36 -22 44 -5 4 -4 -5 2 -19z"/>
<path d="M1338 1883 c7 -3 16 -2 19 1 4 3 -2 6 -13 5 -11 0 -14 -3 -6 -6z"/>
<path d="M1930 1866 c0 -2 7 -7 16 -10 8 -3 12 -2 9 4 -6 10 -25 14 -25 6z"/>
<path d="M2187 1853 c-4 -3 -7 -11 -7 -17 0 -6 5 -5 12 2 6 6 9 14 7 17 -3 3
-9 2 -12 -2z"/>
<path d="M0 1840 c0 -5 5 -10 11 -10 5 0 7 5 4 10 -3 6 -8 10 -11 10 -2 0 -4
-4 -4 -10z"/>
<path d="M2022 1768 c-16 -16 -15 -25 1 -25 7 0 13 9 13 19 0 21 1 21 -14 6z"/>
<path d="M1965 1760 c28 -12 37 -12 30 0 -3 6 -16 10 -28 9 -21 0 -21 -1 -2
-9z"/>
<path d="M194 1445 c-3 -8 -3 -19 1 -24 3 -6 1 -21 -6 -33 -9 -18 -9 -21 1
-11 7 6 14 28 16 47 2 37 -3 47 -12 21z"/>
<path d="M321 1421 c-11 -19 -11 -25 0 -32 13 -8 5 -13 -14 -10 -5 1 -5 -4 -2
-10 5 -7 14 -4 28 10 16 16 18 25 10 43 l-10 23 -12 -24z"/>
<path d="M275 1420 c-2 -3 5 -7 16 -7 10 -1 19 2 19 6 0 9 -29 10 -35 1z"/>
<path d="M106 1358 c-21 -30 -20 -41 3 -33 11 3 22 1 26 -4 3 -7 0 -8 -9 -5
-11 4 -16 0 -16 -10 0 -14 5 -14 48 3 26 10 52 16 59 14 6 -2 14 0 17 6 4 6
-13 8 -46 5 -63 -5 -89 6 -69 30 8 9 11 16 8 16 -3 0 -13 -10 -21 -22z"/>
<path d="M250 1330 c0 -5 7 -10 15 -10 8 0 15 5 15 10 0 6 -7 10 -15 10 -8 0
-15 -4 -15 -10z"/>
<path d="M1390 1329 c0 -5 5 -7 10 -4 6 3 10 8 10 11 0 2 -4 4 -10 4 -5 0 -10
-5 -10 -11z"/>
<path d="M1705 1330 c-3 -5 3 -10 15 -10 12 0 18 5 15 10 -3 6 -10 10 -15 10
-5 0 -12 -4 -15 -10z"/>
<path d="M2150 1320 c0 -11 -5 -20 -12 -20 -6 0 -8 -3 -4 -7 10 -10 56 -12 51
-2 -3 4 1 9 7 12 10 3 10 7 -1 20 -19 23 -41 21 -41 -3z"/>
<path d="M360 1320 c0 -5 5 -10 10 -10 6 0 10 5 10 10 0 6 -4 10 -10 10 -5 0
-10 -4 -10 -10z"/>
<path d="M415 1319 c-4 -6 -4 -13 -1 -16 3 -4 6 -1 6 6 0 7 4 10 9 6 5 -3 12
-1 16 5 3 5 -1 10 -9 10 -8 0 -18 -5 -21 -11z"/>
<path d="M2113 1315 c-3 -9 -3 -18 -1 -21 3 -3 8 4 11 16 6 23 -1 27 -10 5z"/>
<path d="M1620 1316 c0 -2 7 -6 15 -10 8 -3 15 -1 15 4 0 6 -7 10 -15 10 -8 0
-15 -2 -15 -4z"/>
<path d="M1823 1298 c-11 -14 -13 -18 -3 -13 8 5 21 10 28 11 21 4 24 11 8 17
-8 3 -22 -4 -33 -15z"/>
<path d="M1666 1295 c-3 -8 -1 -15 4 -15 6 0 10 4 10 9 0 5 8 12 18 14 13 4
12 5 -4 6 -12 0 -24 -6 -28 -14z"/>
<path d="M1453 1287 c-15 -9 -18 -15 -9 -22 14 -13 122 -19 129 -8 6 9 -12 12
-83 14 -35 1 -39 3 -20 8 14 4 20 10 15 13 -6 3 -20 1 -32 -5z"/>
<path d="M461 1283 c-1 -7 12 -19 29 -28 26 -13 29 -14 24 0 -4 8 -14 15 -24
15 -10 0 -21 6 -23 13 -4 9 -6 9 -6 0z"/>
<path d="M335 1260 c-3 -5 -1 -10 4 -10 6 0 11 5 11 10 0 6 -2 10 -4 10 -3 0
-8 -4 -11 -10z"/>
<path d="M2055 1250 c-3 -6 1 -7 9 -4 18 7 21 14 7 14 -6 0 -13 -4 -16 -10z"/>
<path d="M1790 1210 c-8 -5 -10 -10 -5 -10 6 0 17 5 25 10 8 5 11 10 5 10 -5
0 -17 -5 -25 -10z"/>
<path d="M1617 1183 c-4 -3 -7 -11 -7 -17 0 -6 5 -5 12 2 6 6 9 14 7 17 -3 3
-9 2 -12 -2z"/>
<path d="M1635 1110 c-3 -5 -1 -10 4 -10 6 0 11 5 11 10 0 6 -2 10 -4 10 -3 0
-8 -4 -11 -10z"/>
<path d="M1694 1091 c4 -5 0 -12 -6 -14 -8 -3 -6 -6 5 -6 9 -1 17 6 17 14 0 8
-5 15 -11 15 -5 0 -8 -4 -5 -9z"/>
<path d="M1725 1090 c3 -5 13 -10 21 -10 8 0 14 5 14 10 0 6 -9 10 -21 10 -11
0 -17 -4 -14 -10z"/>
<path d="M1928 1093 c7 -3 16 -2 19 1 4 3 -2 6 -13 5 -11 0 -14 -3 -6 -6z"/>
<path d="M1711 1058 c-45 -12 -34 -20 15 -10 21 4 34 10 29 13 -6 4 -25 2 -44
-3z"/>
<path d="M1650 1045 c-8 -9 -8 -15 -2 -15 12 0 26 19 19 26 -2 2 -10 -2 -17
-11z"/>
<path d="M1608 993 c6 -2 18 -2 25 0 6 3 1 5 -13 5 -14 0 -19 -2 -12 -5z"/>
<path d="M1657 933 c-12 -12 -7 -22 16 -34 22 -12 22 -12 4 9 -14 15 -15 21
-5 25 7 3 8 6 2 6 -6 1 -14 -2 -17 -6z"/>
<path d="M126 655 c4 -8 11 -15 16 -15 6 0 5 6 -2 15 -7 8 -14 15 -16 15 -2 0
-1 -7 2 -15z"/>
<path d="M4 619 c-3 -6 -1 -16 5 -22 8 -8 11 -7 11 3 0 10 3 11 11 3 6 -6 18
-9 25 -6 8 3 28 0 45 -7 25 -11 33 -11 44 1 13 12 7 15 -42 17 -32 1 -62 7
-67 12 -13 13 -23 13 -32 -1z"/>
<path d="M191 621 c-10 -7 -7 -9 12 -8 14 1 23 5 20 10 -6 9 -15 9 -32 -2z"/>
<path d="M18 572 c-10 -2 -18 -8 -18 -14 0 -6 9 -8 20 -5 11 3 20 2 20 -3 0
-14 29 -20 52 -10 22 8 22 9 -4 9 -29 1 -38 16 -15 24 15 5 -31 5 -55 -1z"/>
<path d="M170 540 c34 -11 60 -11 35 0 -11 5 -29 8 -40 8 -16 0 -15 -2 5 -8z"/>
<path d="M325 530 c3 -5 11 -10 16 -10 6 0 7 5 4 10 -3 6 -11 10 -16 10 -6 0
-7 -4 -4 -10z"/>
<path d="M270 499 c0 -5 5 -7 10 -4 6 3 10 8 10 11 0 2 -4 4 -10 4 -5 0 -10
-5 -10 -11z"/>
<path d="M1805 469 c-11 -17 1 -21 15 -4 8 9 8 15 2 15 -6 0 -14 -5 -17 -11z"/>
<path d="M545 410 c3 -5 8 -10 11 -10 2 0 4 5 4 10 0 6 -5 10 -11 10 -5 0 -7
-4 -4 -10z"/>
<path d="M507 318 c-18 -64 -12 -118 13 -118 15 0 17 11 16 85 -1 47 -4 85 -8
85 -4 0 -13 -24 -21 -52z"/>
<path d="M441 273 c7 -10 15 -20 16 -22 2 -2 3 3 3 11 0 9 -7 19 -16 22 -15 6
-15 4 -3 -11z"/>
<path d="M380 256 c0 -8 4 -17 8 -20 4 -2 8 4 8 15 0 10 -4 19 -8 19 -4 0 -8
-6 -8 -14z"/>
<path d="M425 220 c-9 -14 4 -71 15 -65 14 9 17 75 4 75 -7 0 -16 -5 -19 -10z"/>
</g>
</svg>
