<?xml version="1.0" standalone="no"?>
<!DOCTYPE svg PUBLIC "-//W3C//DTD SVG 20010904//EN"
 "http://www.w3.org/TR/2001/REC-SVG-20010904/DTD/svg10.dtd">
<svg version="1.0" xmlns="http://www.w3.org/2000/svg"
 width="512.000000pt" height="512.000000pt" viewBox="0 0 512.000000 512.000000"
 preserveAspectRatio="xMidYMid meet">

<g transform="translate(0.000000,512.000000) scale(0.100000,-0.100000)"
fill="#000000" stroke="none">
<path d="M2587 4669 c-22 -11 -36 -23 -33 -26 3 -3 12 0 21 7 8 7 55 17 104
21 82 9 94 7 157 -15 38 -14 70 -23 72 -21 2 2 -16 14 -40 26 -64 34 -226 38
-281 8z"/>
<path d="M2595 4628 c-22 -6 -42 -14 -45 -18 -3 -4 -20 -15 -38 -24 -18 -9
-51 -35 -73 -57 -21 -21 -39 -34 -39 -29 0 6 9 19 21 31 24 24 22 30 -9 22
-14 -3 -31 -25 -48 -62 -14 -31 -34 -73 -45 -94 -10 -21 -19 -45 -19 -54 0 -9
-6 -24 -14 -32 -23 -28 -45 -115 -56 -227 -6 -60 -15 -152 -20 -204 -11 -118
-17 -137 -41 -143 -12 -3 -19 -14 -19 -29 0 -14 -8 -27 -22 -33 -14 -6 -27
-25 -34 -49 -6 -22 -19 -44 -30 -50 -10 -6 -31 -18 -46 -28 -17 -11 -46 -18
-77 -18 -27 0 -53 -4 -56 -10 -3 -5 -18 -10 -32 -10 -25 0 -35 -9 -143 -125
-29 -31 -69 -97 -112 -184 -37 -75 -68 -129 -68 -121 -1 8 -6 4 -11 -9 -7 -18
-6 -27 3 -33 10 -6 9 -11 -4 -19 -20 -11 -24 -39 -8 -55 7 -7 7 -19 1 -35
l-10 -24 0 24 c-2 45 -9 16 -35 -129 -34 -194 -59 -278 -167 -547 -173 -433
-249 -656 -249 -732 0 -11 -4 -22 -9 -26 -5 -3 -13 -20 -16 -38 -4 -17 -14
-47 -22 -64 -14 -31 -19 -33 -63 -33 -30 0 -52 -6 -60 -15 -7 -8 -16 -15 -21
-15 -10 0 -79 -68 -79 -78 0 -4 -7 -20 -16 -37 -9 -16 -19 -68 -22 -115 l-7
-85 -38 -3 c-23 -2 -37 1 -37 9 0 8 -4 8 -15 -1 -17 -14 -22 -145 -5 -155 6
-3 10 -14 10 -23 0 -10 16 -34 36 -55 l36 -37 -55 -62 c-77 -88 -97 -135 -97
-224 0 -63 4 -80 30 -124 16 -28 30 -54 30 -58 0 -4 24 -32 54 -61 l53 -53
124 -19 c167 -25 200 -24 331 12 106 29 117 34 168 84 66 63 82 69 120 50 80
-41 306 -60 376 -30 86 36 238 49 529 47 692 -6 819 -10 978 -37 15 -2 27 0
27 5 0 6 -12 10 -27 11 l-28 1 31 10 c26 9 42 6 93 -17 58 -26 66 -27 158 -21
142 11 355 57 381 83 7 7 19 13 26 13 32 0 186 153 217 216 13 24 26 44 31 44
4 0 8 9 8 20 0 11 4 28 10 38 5 9 34 74 64 144 l54 126 -42 6 c-22 3 -53 6
-68 6 -16 0 -28 5 -28 11 0 6 -13 30 -29 54 l-29 43 25 11 c31 14 30 15 37
-13 3 -13 19 -38 36 -56 26 -28 34 -31 65 -26 24 5 42 2 59 -9 23 -15 25 -15
36 5 6 11 9 31 7 43 -4 19 -4 18 -6 -5 -3 -72 -55 -25 -95 87 -16 44 -35 87
-42 96 -20 22 -17 29 9 29 18 0 19 2 7 10 -11 8 -7 9 15 4 41 -9 65 -22 65
-36 0 -6 7 -20 16 -30 13 -14 14 -21 5 -32 -12 -15 -7 -36 8 -36 7 0 31 109
31 142 0 8 -18 23 -41 33 -40 19 -68 50 -49 57 8 3 1 54 -15 108 -4 11 6 20
30 29 19 7 35 17 35 22 0 6 -9 5 -22 -2 -18 -10 -24 -8 -40 11 -22 27 -23 53
-3 70 13 11 21 6 50 -24 19 -21 35 -45 35 -55 0 -10 9 -26 20 -36 20 -18 20
-17 19 31 -1 27 -4 60 -8 74 -6 22 -12 25 -45 22 -71 -7 -86 35 -34 101 l32
40 -26 -6 c-23 -6 -26 -4 -21 16 4 21 4 22 -11 3 -9 -11 -16 -24 -16 -29 0 -5
-7 -4 -15 3 -20 16 -35 4 -35 -30 0 -15 -7 -30 -15 -34 -24 -9 -18 -28 7 -21
17 6 20 4 15 -10 -4 -9 -8 -33 -8 -53 -1 -20 -3 -29 -6 -20 -2 10 -8 18 -13
18 -5 0 -21 5 -37 11 -22 8 -25 12 -13 20 13 9 13 10 0 7 -24 -4 -73 27 -117
75 -32 35 -42 55 -48 94 -6 49 -7 50 -30 39 -19 -9 -23 -16 -18 -36 18 -78
119 -198 198 -236 37 -17 38 -19 15 -24 -23 -5 -22 -7 14 -24 21 -10 40 -15
43 -12 3 3 14 1 25 -5 15 -8 18 -17 12 -47 -3 -20 -10 -41 -14 -46 -11 -12
-33 32 -27 55 4 14 0 19 -14 19 -20 0 -26 -15 -9 -25 6 -3 10 -19 10 -35 0
-18 13 -44 35 -70 44 -52 44 -64 3 -56 -44 9 -58 23 -58 60 0 23 -8 37 -33 57
-35 27 -67 47 -55 34 4 -4 3 -14 -4 -22 -9 -11 -4 -22 24 -51 30 -31 58 -72
58 -84 0 -2 -18 -4 -39 -4 -37 -2 -40 0 -54 40 -9 22 -19 56 -22 75 -5 25 -10
30 -16 20 -8 -11 -14 -8 -34 14 -14 15 -25 35 -25 43 0 8 -6 14 -14 14 -9 0
-12 -7 -9 -20 5 -17 0 -20 -26 -20 -23 0 -31 5 -31 18 0 10 -5 23 -11 29 -13
13 -20 91 -9 98 5 3 -2 22 -16 42 -14 20 -22 43 -19 51 3 8 0 21 -6 28 -16 20
19 89 46 89 12 0 21 8 23 20 7 46 155 85 204 53 22 -15 158 -33 158 -21 0 3
-22 31 -48 62 -76 88 -129 162 -177 247 -29 51 -46 71 -47 59 -5 -57 -2 -72
18 -100 23 -34 35 -78 24 -95 -4 -7 -32 -13 -61 -14 -30 -2 -67 -6 -84 -10
l-30 -7 30 25 c17 14 38 29 48 32 15 5 18 12 12 40 -4 25 -2 36 9 40 11 4 13
11 5 31 -5 13 -9 34 -9 46 0 22 -77 145 -118 187 -37 38 -51 72 -58 144 -5 47
-3 66 5 66 6 0 11 -13 11 -29 0 -17 4 -32 9 -35 4 -3 11 -23 14 -44 5 -28 19
-50 57 -86 28 -27 52 -47 54 -45 2 2 -16 51 -40 108 -25 58 -58 150 -74 205
l-29 101 0 -56 c-1 -40 -7 -63 -21 -80 -11 -13 -24 -29 -28 -34 -5 -6 -12 -17
-15 -25 -8 -17 -5 12 13 122 12 73 11 82 -11 145 -32 96 -46 108 -54 50 -4
-25 -14 -54 -22 -64 -13 -16 -14 -15 -9 17 10 66 8 235 -4 300 -14 77 -33 118
-63 130 -12 6 -42 26 -67 44 -63 48 -70 46 -49 -16 22 -63 24 -101 7 -96 -7 3
-18 14 -24 27 -9 17 -12 -16 -17 -151 -5 -149 -8 -179 -27 -216 -11 -23 -25
-40 -29 -37 -5 3 -10 60 -10 126 -1 67 -3 125 -6 128 -2 4 -11 53 -21 110
l-17 103 36 35 c21 19 37 38 37 44 0 12 27 12 32 -1 2 -6 16 -6 41 1 32 9 36
13 27 28 -12 24 -92 71 -120 71 -31 0 -80 -27 -122 -68 -44 -42 -49 -29 -13
27 24 36 45 51 89 65 10 4 16 9 13 12 -10 11 -120 34 -159 34 -37 0 -46 11
-39 52 0 4 -10 10 -24 14 -16 4 -25 13 -25 25 0 10 -5 19 -11 19 -6 0 -9 6 -6
14 4 10 -4 18 -24 25 -16 5 -29 15 -29 20 0 6 -6 11 -14 11 -16 0 -26 30 -26
84 0 22 -3 37 -6 33 -11 -10 -42 -217 -36 -239 3 -14 1 -19 -6 -14 -16 10 -15
102 2 189 8 40 18 100 21 135 4 34 11 62 16 62 6 0 10 44 9 103 -1 139 -11
256 -20 232 -4 -12 -9 4 -14 46 -12 119 -69 198 -183 252 -57 26 -81 32 -148
34 -44 1 -98 -3 -120 -9z m243 -67 c50 -26 97 -63 122 -94 22 -28 42 -111 29
-124 -4 -4 1 -41 11 -82 35 -133 19 -381 -31 -485 -10 -22 -19 -45 -19 -51 0
-7 -9 -20 -20 -30 -11 -10 -17 -22 -13 -28 3 -5 1 -7 -4 -4 -6 4 -16 0 -23 -8
-7 -8 -18 -15 -25 -15 -7 0 -29 -13 -50 -30 -33 -26 -46 -30 -99 -30 -112 0
-193 42 -230 117 -10 21 -24 49 -31 63 -18 37 -34 90 -39 135 -27 220 -29 266
-18 315 7 29 12 78 12 111 0 43 7 73 24 107 40 78 71 103 180 143 63 23 169
18 224 -10z m-487 -217 c-6 -28 -9 -32 -10 -14 -1 30 11 79 16 64 2 -6 -1 -28
-6 -50z m-44 -396 c-2 -18 -4 -6 -4 27 0 33 2 48 4 33 2 -15 2 -42 0 -60z
m593 -319 c-7 -11 -14 -19 -16 -16 -7 7 7 37 17 37 6 0 5 -9 -1 -21z m134 -74
c3 -8 1 -15 -4 -15 -6 0 -10 7 -10 15 0 8 2 15 4 15 2 0 6 -7 10 -15z m55
-103 c-6 -17 -22 -38 -36 -47 -14 -9 -24 -13 -22 -8 7 14 64 91 67 89 1 -2 -3
-17 -9 -34z m191 18 c-30 -23 -40 -25 -40 -6 0 16 15 24 45 25 18 1 18 -1 -5
-19z m-1323 -124 c4 -36 2 -47 -11 -52 -9 -3 -16 -13 -16 -21 0 -9 6 -13 15
-9 12 4 15 -5 15 -47 0 -29 3 -62 6 -74 6 -21 3 -23 -30 -23 l-36 0 0 55 c0
48 3 55 19 55 30 0 35 19 6 26 -27 7 -29 14 -26 84 2 28 9 50 19 58 22 17 33
2 39 -52z m-90 -23 c-4 -3 -2 -11 3 -18 14 -17 -15 -97 -41 -113 -28 -18 -34
-9 -16 20 8 12 18 41 22 63 8 47 12 55 27 55 6 0 8 -3 5 -7z m1263 -7 c0 -3
-4 -8 -10 -11 -5 -3 -10 -1 -10 4 0 6 5 11 10 11 6 0 10 -2 10 -4z m-410 -91
c30 -19 47 -35 39 -35 -16 0 -109 56 -109 65 0 11 17 3 70 -30z m-194 -130
c-6 -16 -26 45 -32 94 -4 44 -3 43 16 -19 11 -36 18 -69 16 -75z m819 49 c-15
-33 -38 -97 -51 -144 -24 -83 -35 -114 -59 -175 -27 -65 -87 -254 -103 -325
-10 -41 -21 -68 -24 -59 -10 27 16 156 42 209 38 77 83 224 105 340 18 101 51
185 83 216 37 34 40 12 7 -62z m-118 14 c-2 -13 -4 -3 -4 22 0 25 2 35 4 23 2
-13 2 -33 0 -45z m-1450 16 c3 -9 0 -41 -8 -72 -8 -32 -13 -68 -11 -81 5 -40
-7 -71 -27 -71 -11 0 -22 -6 -25 -12 -3 -7 -4 25 -3 72 4 116 51 222 74 164z
m83 -64 c0 -27 -4 -50 -9 -50 -5 0 -16 -3 -25 -6 -13 -5 -16 2 -16 44 0 31 5
52 13 55 31 13 37 6 37 -43z m1109 -30 c-19 -38 -39 -70 -45 -70 -7 0 -15 -7
-18 -16 -4 -9 -9 -14 -12 -11 -3 3 7 25 24 49 16 24 39 63 51 86 12 24 25 41
29 38 3 -4 -10 -38 -29 -76z m240 -24 c-6 -25 -16 -49 -22 -53 -6 -4 -8 0 -5
9 4 9 10 37 13 62 5 29 11 44 17 38 5 -5 5 -27 -3 -56z m-1249 -21 c0 -41 -4
-57 -16 -62 -20 -7 -35 8 -38 38 -2 13 -6 34 -10 46 -6 18 -3 22 21 26 15 2
31 5 36 6 4 0 7 -24 7 -54z m148 34 c9 -12 27 -31 40 -42 22 -20 30 -57 13
-57 -24 0 -41 14 -42 34 0 11 -3 15 -6 9 -2 -7 -15 -13 -28 -13 -16 0 -25 7
-29 25 -9 37 -29 32 -21 -5 5 -25 4 -29 -9 -24 -9 3 -19 17 -22 30 -10 37 13
56 74 63 7 0 20 -9 30 -20z m450 -46 c6 -18 9 -33 7 -33 -5 0 -35 62 -35 74 0
17 17 -7 28 -41z m1062 -12 c0 -11 5 -23 10 -26 6 -3 10 -18 10 -33 l-1 -27
-13 31 c-23 53 -28 74 -17 74 6 0 11 -9 11 -19z m-1765 -23 c-13 -61 -45 -74
-45 -19 0 29 16 51 38 51 10 0 12 -8 7 -32z m475 -39 c6 -23 9 -43 7 -45 -5
-5 -37 70 -37 87 0 23 20 -5 30 -42z m-96 -14 c19 -19 33 -40 33 -47 -1 -7 3
-48 7 -92 7 -68 6 -80 -8 -88 -9 -5 -27 -31 -41 -58 -24 -47 -77 -98 -96 -92
-5 1 -9 -10 -9 -25 -1 -16 -7 -41 -14 -58 l-13 -30 -7 25 c-5 20 -4 102 3 213
2 28 21 19 21 -10 0 -34 10 -73 19 -73 3 0 4 23 2 51 -3 49 -2 52 18 46 14 -3
21 0 21 9 0 8 5 14 10 14 6 0 10 9 10 19 0 11 4 22 9 25 5 3 7 15 4 25 -3 13
2 21 16 26 26 8 27 26 1 42 -11 7 -26 26 -35 43 -13 24 -13 33 -3 50 7 11 14
20 16 20 1 0 18 -16 36 -35z m-179 15 c3 -5 -3 -10 -15 -10 -12 0 -18 5 -15
10 3 6 10 10 15 10 5 0 12 -4 15 -10z m-301 -85 c-8 -33 -19 -32 -38 7 -20 39
-20 36 7 40 28 4 40 -14 31 -47z m309 39 c13 -4 17 -14 15 -32 -3 -23 -8 -27
-39 -30 -29 -2 -37 1 -46 20 l-10 23 -12 -23 c-13 -24 -49 -30 -69 -10 -9 9
-13 7 -18 -5 -7 -18 -68 -24 -78 -8 -10 15 27 50 69 65 38 14 140 14 188 0z
m857 -10 c0 -3 -15 -34 -32 -68 -22 -41 -67 -95 -139 -166 -151 -149 -163
-160 -186 -164 -25 -5 -63 -28 -63 -38 0 -5 -4 -8 -10 -8 -24 0 -7 28 29 46
28 13 65 53 128 135 180 237 189 246 223 241 23 -3 30 0 30 12 0 9 5 16 10 16
6 0 10 -3 10 -6z m-545 -151 c4 -10 9 -36 10 -58 2 -22 1 -31 -2 -20 -3 11 -8
22 -12 25 -17 12 -43 122 -35 148 7 25 8 23 19 -25 7 -29 16 -61 20 -70z
m-279 76 c3 -6 2 -14 -3 -18 -6 -3 -13 -13 -16 -21 -4 -11 -6 -11 -6 4 -1 13
-6 16 -18 11 -37 -14 -73 -17 -73 -7 0 32 99 58 116 31z m-298 -21 c4 -21 -42
-73 -56 -64 -16 10 -15 16 8 54 21 34 43 38 48 10z m167 -7 c0 -8 -13 -19 -30
-24 -16 -5 -46 -21 -65 -36 -37 -28 -83 -51 -102 -51 -6 0 28 29 77 65 85 63
120 76 120 46z m55 -40 c0 -5 -7 -14 -15 -21 -12 -10 -15 -10 -15 2 0 8 3 18
7 21 9 10 23 9 23 -2z m-64 -103 c-4 -57 -9 -105 -12 -107 -2 -3 -10 1 -16 7
-16 16 -33 15 -21 0 16 -20 24 -76 12 -84 -6 -3 -8 -12 -5 -19 7 -20 -32 -55
-63 -55 -15 0 -36 9 -46 20 -14 15 -21 17 -32 9 -15 -13 -17 -45 -3 -54 15 -9
12 -38 -2 -29 -7 3 -2 -5 12 -18 14 -14 32 -28 40 -31 12 -4 11 -6 -2 -6 -10
-1 -33 14 -53 33 -38 37 -47 79 -19 90 15 6 16 20 10 116 l-6 109 52 36 c29
19 58 35 64 35 6 0 18 7 25 16 13 16 44 32 63 33 5 1 6 -43 2 -101z m90 65
c-10 -10 -19 5 -10 18 6 11 8 11 12 0 2 -7 1 -15 -2 -18z m1424 -15 c0 -23 -3
-29 -11 -21 -6 6 -8 20 -4 32 9 30 15 26 15 -11z m-1446 -86 c-1 -37 -3 -79
-3 -94 -1 -16 -5 -28 -11 -28 -11 0 -13 113 -3 173 9 58 21 25 17 -51z m-51
-200 c-3 -26 -10 -50 -16 -53 -5 -4 -7 -11 -3 -17 7 -11 -21 -25 -35 -16 -5 3
0 17 11 31 11 14 20 38 20 54 0 35 10 60 21 54 5 -3 6 -27 2 -53z m726 15
c-51 -40 -81 -58 -95 -55 -12 2 -6 9 22 23 21 11 45 26 53 33 7 7 16 10 19 7
3 -3 3 -6 1 -8z m-1019 -108 c0 -10 4 -19 9 -19 5 0 11 -8 14 -17 4 -10 14
-28 23 -40 16 -22 15 -23 -4 -23 -18 0 -37 -24 -34 -41 1 -4 -6 -6 -15 -5 -9
0 -18 -5 -21 -13 -3 -10 0 -12 11 -8 29 11 27 -9 -4 -44 -17 -19 -33 -34 -37
-34 -4 -1 -18 -7 -30 -14 -18 -9 -22 -18 -18 -36 4 -15 1 -25 -9 -28 -7 -3
-21 -21 -31 -38 -13 -25 -14 -37 -5 -51 19 -31 12 -38 -13 -13 -13 13 -26 35
-30 50 -9 35 -48 50 -59 22 -13 -34 -19 -12 -18 67 1 121 20 149 173 258 81
58 98 63 98 27z m835 -9 c-3 -5 -11 -10 -16 -10 -6 0 -7 5 -4 10 3 6 11 10 16
10 6 0 7 -4 4 -10z m500 -9 c3 -5 1 -12 -5 -16 -5 -3 -10 1 -10 9 0 18 6 21
15 7z m156 -33 c-5 -13 -21 -39 -36 -57 -21 -25 -30 -29 -37 -19 -5 8 -6 3 -2
-14 7 -31 -42 -142 -58 -132 -6 4 -6 10 1 17 6 6 11 21 11 34 0 13 5 23 11 23
7 0 9 10 5 24 -3 14 -2 28 4 31 5 3 10 15 10 26 0 11 4 18 9 15 5 -3 11 1 15
9 3 8 11 15 19 15 7 0 21 14 31 31 21 35 31 33 17 -3z m-1301 2 c0 -5 -5 -10
-11 -10 -5 0 -7 5 -4 10 3 6 8 10 11 10 2 0 4 -4 4 -10z m2160 -51 c0 -6 -4
-7 -10 -4 -5 3 -10 11 -10 16 0 6 5 7 10 4 6 -3 10 -11 10 -16z m-1416 -46
c-15 -27 -35 -61 -43 -78 -26 -54 -134 -185 -152 -185 -18 0 9 45 61 102 31
35 63 74 70 88 16 32 80 120 87 120 3 0 -8 -21 -23 -47z m366 -10 c-11 -17
-11 -17 -6 0 3 10 7 28 7 40 2 22 2 22 6 0 2 -12 -1 -30 -7 -40z m-1660 29 c0
-13 -12 -22 -22 -16 -10 6 -1 24 13 24 5 0 9 -4 9 -8z m1461 -93 c-23 -46 -53
-97 -65 -114 -13 -16 -26 -40 -30 -52 -9 -29 -60 -65 -80 -57 -13 5 -11 12 10
45 14 22 29 50 33 62 8 20 114 174 142 205 7 9 15 10 21 4 7 -7 -4 -38 -31
-93z m864 33 c-57 -56 -95 -81 -95 -63 0 28 107 121 139 121 10 0 -8 -23 -44
-58z m365 -62 c22 -14 5 -23 -53 -28 -47 -4 -55 -7 -66 -34 -9 -19 -23 -31
-42 -35 -16 -3 -32 -10 -35 -14 -6 -11 -24 -12 -24 -1 1 4 23 18 50 31 58 28
65 50 18 52 -52 2 -82 -2 -92 -12 -6 -5 -24 -9 -40 -9 l-31 1 37 19 c56 30
246 51 278 30z m-2384 -87 c-10 -10 -19 5 -10 18 6 11 8 11 12 0 2 -7 1 -15
-2 -18z m2576 -20 c21 -20 38 -46 38 -57 0 -17 -4 -16 -33 12 l-33 32 -43 -15
c-24 -8 -52 -15 -63 -15 -30 0 -137 -114 -207 -220 -72 -109 -72 -86 0 42 27
49 49 92 49 97 0 5 21 31 48 59 40 43 55 52 104 62 31 6 62 18 68 26 19 21 31
18 72 -23z m-536 -271 c-18 -16 -18 -16 -6 6 6 13 14 21 18 18 3 -4 -2 -14
-12 -24z m-1311 -37 c-14 -14 -31 -25 -36 -25 -14 0 -39 -26 -39 -41 0 -7 -3
-9 -6 -6 -14 14 19 66 51 82 19 8 37 21 41 27 6 9 9 9 12 0 2 -7 -8 -24 -23
-37z m-1133 -27 c-7 -7 -12 -8 -12 -2 0 14 12 26 19 19 2 -3 -1 -11 -7 -17z
m648 12 c0 -5 -4 -10 -10 -10 -5 0 -10 5 -10 10 0 6 5 10 10 10 6 0 10 -4 10
-10z m-86 -37 c-13 -10 -20 -10 -23 -2 -4 14 19 30 33 22 5 -3 1 -12 -10 -20z
m266 -87 c0 -8 3 -23 6 -33 5 -15 4 -15 -5 -3 -7 10 -28 14 -71 14 -42 0 -60
3 -60 12 0 12 18 15 108 22 13 1 22 -4 22 -12z m1749 -86 c-8 -12 -30 -30 -49
-42 -32 -19 -32 -18 10 20 51 47 58 51 39 22z m221 -45 c0 -8 -2 -15 -4 -15
-2 0 -6 7 -10 15 -3 8 -1 15 4 15 6 0 10 -7 10 -15z m75 -15 c21 -40 19 -47
-12 -53 -34 -6 -33 -7 -38 33 -8 58 24 70 50 20z m-1206 -16 c-32 -39 -147
-101 -264 -143 -44 -16 -66 -31 -84 -56 -13 -19 -27 -35 -32 -35 -12 0 -11 14
2 27 6 6 16 21 23 34 12 23 46 43 236 134 123 59 140 64 119 39z m1031 -14
c11 -7 7 -10 -17 -10 -18 0 -33 5 -33 10 0 13 30 13 50 0z m240 -83 c13 -24
13 -29 0 -37 -23 -15 -43 -8 -60 23 -13 24 -13 29 0 37 23 15 43 8 60 -23z
m-2280 -23 c3 -3 -16 -3 -43 1 -37 6 -65 2 -130 -18 -87 -27 -177 -43 -163
-30 4 4 11 8 14 9 4 0 21 6 37 13 53 23 89 32 145 40 50 6 127 -2 140 -15z
m1575 6 c3 -5 0 -10 -7 -10 -7 0 -24 -3 -38 -6 -24 -5 -24 -5 -6 10 23 18 42
20 51 6z m575 -6 c0 -17 -22 -14 -28 4 -2 7 3 12 12 12 9 0 16 -7 16 -16z
m260 -16 c37 -61 89 -173 92 -198 5 -41 -25 -35 -55 11 -15 22 -27 49 -27 60
0 10 -7 19 -15 19 -8 0 -15 8 -15 18 0 10 -7 28 -16 40 -8 12 -17 36 -19 52
-6 43 29 41 55 -2z m-2997 2 c-3 -11 -9 -20 -13 -20 -4 0 -13 -14 -20 -30 -13
-33 -33 -35 -38 -6 -4 19 44 76 64 76 7 0 10 -8 7 -20z m2605 -78 c-10 -71
-34 -138 -62 -177 -37 -51 -64 -101 -71 -134 -4 -18 -9 -30 -12 -27 -6 5 17
114 29 138 4 9 11 41 13 70 6 62 30 138 58 185 18 31 21 33 37 18 14 -13 16
-24 8 -73z m315 27 c15 -28 23 -69 13 -69 -18 0 -39 17 -57 46 -16 27 -18 38
-9 49 15 19 31 11 53 -26z m-575 8 c-16 -13 -28 -26 -28 -30 0 -7 -86 -145
-101 -161 -15 -17 21 86 41 119 24 39 85 95 103 95 7 -1 0 -11 -15 -23z
m-1763 -19 c-5 -12 -131 -48 -164 -48 -8 0 -23 -7 -33 -17 -10 -9 -21 -13 -25
-10 -8 9 40 48 86 69 44 20 143 24 136 6z m1831 -33 c-4 -19 -13 -47 -21 -62
-8 -15 -15 -33 -15 -40 0 -6 -3 -14 -7 -16 -17 -10 -12 64 7 107 23 55 45 62
36 11z m294 4 c0 -10 -4 -19 -10 -19 -5 0 -10 12 -10 26 0 14 4 23 10 19 6 -3
10 -15 10 -26z m-807 14 c-7 -2 -19 -2 -25 0 -7 3 -2 5 12 5 14 0 19 -2 13 -5z
m117 -31 c-19 -15 -59 -53 -89 -85 -41 -43 -57 -54 -67 -46 -9 8 -10 16 -3 32
12 25 101 97 121 97 7 0 22 7 32 15 11 8 25 15 30 15 6 -1 -5 -13 -24 -28z
m-1319 -41 c-12 -21 -60 -55 -68 -47 -7 6 55 66 68 66 6 0 6 -8 0 -19z m1353
-43 c-27 -29 -57 -64 -65 -78 -9 -14 -20 -22 -24 -18 -11 11 41 83 89 124 57
49 57 33 0 -28z m118 -10 c-21 -40 -98 -144 -112 -153 -19 -12 -10 22 16 61
23 34 103 124 111 124 2 0 -5 -15 -15 -32z m-957 12 c3 -5 1 -10 -5 -10 -6 0
-39 -18 -75 -39 -36 -22 -67 -36 -69 -32 -9 14 58 69 94 79 47 13 48 14 55 2z
m-242 -29 c-6 -3 -13 -13 -16 -21 -4 -11 -6 -9 -6 6 -1 24 8 36 21 27 7 -3 7
-8 1 -12z m305 -88 c-22 -43 -48 -87 -57 -98 -10 -11 -23 -42 -30 -70 -13 -51
-18 -62 -26 -54 -15 16 56 208 98 262 52 66 60 44 15 -40z m-515 -24 c-5 -18
-14 -34 -20 -36 -11 -4 -10 5 14 72 10 30 15 1 6 -36z m877 26 c-7 -9 -24 -37
-36 -63 -15 -32 -23 -40 -23 -26 -1 22 58 119 67 110 3 -3 -1 -13 -8 -21z
m-240 -135 c0 -5 -5 -10 -11 -10 -5 0 -7 5 -4 10 3 6 8 10 11 10 2 0 4 -4 4
-10z m1057 -22 c-3 -8 -6 -5 -6 6 -1 11 2 17 5 13 3 -3 4 -12 1 -19z m-1290
-100 c-3 -8 -6 -5 -6 6 -1 11 2 17 5 13 3 -3 4 -12 1 -19z m158 -315 c-11 -2
-29 -9 -40 -14 -12 -6 -45 -9 -75 -7 -51 3 -53 4 -30 15 14 7 57 11 95 11 39
0 61 -2 50 -5z"/>
<path d="M2650 4222 c0 -5 9 -17 20 -27 17 -15 24 -16 45 -7 36 17 31 29 -10
24 -21 -3 -35 0 -35 7 0 6 -4 11 -10 11 -5 0 -10 -4 -10 -8z"/>
<path d="M2800 4213 c-39 -20 -80 -86 -81 -130 -2 -58 16 -158 29 -159 29 -3
32 -4 32 -12 0 -12 -88 -35 -102 -26 -7 5 -25 7 -40 5 -32 -3 -39 22 -10 38 9
6 11 11 5 11 -22 0 -138 -116 -124 -124 7 -5 25 6 46 29 26 29 38 36 52 30 10
-5 29 -10 43 -11 14 -2 26 -8 28 -14 5 -14 21 -13 37 4 8 7 31 17 51 20 31 6
41 3 65 -20 16 -15 29 -23 29 -16 0 6 -8 17 -18 24 -11 7 -31 32 -46 56 -14
23 -31 42 -36 42 -6 0 -10 10 -9 23 0 12 3 16 6 10 11 -28 21 -11 11 20 -21
70 -22 74 -7 56 16 -19 60 -49 71 -49 5 0 8 7 8 15 0 8 9 15 20 15 11 0 20 -4
20 -10 0 -21 27 -8 63 30 45 49 47 79 9 121 -35 40 -100 49 -152 22z m135 -29
c20 -20 14 -40 -11 -36 -10 2 -43 6 -71 9 -29 3 -53 9 -53 14 0 29 108 40 135
13z m-60 -44 c3 -5 -1 -10 -9 -10 -9 0 -16 5 -16 10 0 6 4 10 9 10 6 0 13 -4
16 -10z m-55 -65 c0 -8 -4 -15 -10 -15 -5 0 -10 7 -10 15 0 8 5 15 10 15 6 0
10 -7 10 -15z m90 5 c0 -5 -4 -10 -10 -10 -5 0 -10 5 -10 10 0 6 5 10 10 10 6
0 10 -4 10 -10z"/>
<path d="M2495 4208 c-40 -22 -85 -72 -85 -96 0 -28 17 -62 31 -62 6 0 22 -9
36 -20 30 -23 53 -26 53 -6 0 8 7 17 16 20 23 9 36 7 29 -4 -14 -23 25 -8 46
18 l22 27 -5 -27 c-4 -23 -2 -28 15 -28 18 0 19 5 14 56 -7 67 -27 101 -72
120 -41 17 -73 17 -100 2z m96 -38 l24 -19 -50 -1 c-27 0 -62 -7 -77 -14 -26
-14 -28 -13 -28 4 0 46 88 66 131 30z m-21 -40 c11 -7 6 -10 -20 -10 -26 0
-31 3 -20 10 8 5 17 10 20 10 3 0 12 -5 20 -10z m-65 -60 c3 -5 1 -10 -4 -10
-6 0 -11 5 -11 10 0 6 2 10 4 10 3 0 8 -4 11 -10z"/>
<path d="M2686 3811 c-11 -17 -79 -32 -87 -19 -9 15 -29 1 -29 -22 0 -12 6
-17 18 -14 22 5 66 -32 59 -50 -5 -12 3 -14 42 -9 29 3 57 1 70 -7 31 -16 42
-2 13 17 -21 15 -22 17 -6 34 10 11 28 19 41 19 24 0 29 15 13 40 -8 13 -11
13 -19 1 -10 -15 -75 -8 -98 10 -7 7 -13 6 -17 0z m58 -62 c-7 -12 -55 -11
-73 0 -10 6 1 9 32 9 26 0 45 -4 41 -9z"/>
<path d="M1910 2683 c0 -5 4 -15 10 -23 11 -18 25 -7 17 15 -6 15 -27 21 -27
8z"/>
<path d="M1600 2130 c0 -5 5 -10 10 -10 6 0 10 5 10 10 0 6 -4 10 -10 10 -5 0
-10 -4 -10 -10z"/>
<path d="M1625 3791 c4 -55 70 -336 83 -351 5 -6 42 39 42 52 0 5 -4 7 -9 4
-10 -7 -24 22 -16 34 3 4 -2 10 -10 14 -8 3 -15 14 -15 24 0 10 -4 22 -8 27
-12 14 -50 139 -61 205 l-10 55 4 -64z"/>
<path d="M3605 3441 c-10 -20 -12 -32 -4 -36 13 -9 15 -7 22 33 8 40 2 41 -18
3z"/>
<path d="M3780 3096 c0 -14 5 -28 11 -32 6 -3 9 -19 5 -35 -3 -15 -1 -31 4
-34 6 -3 10 -21 10 -40 0 -27 14 -66 38 -104 1 -3 7 0 13 6 14 14 -58 263 -76
263 -3 0 -5 -11 -5 -24z"/>
<path d="M3855 2830 c3 -5 8 -10 11 -10 2 0 4 5 4 10 0 6 -5 10 -11 10 -5 0
-7 -4 -4 -10z"/>
<path d="M4080 2240 c0 -5 5 -10 11 -10 5 0 7 5 4 10 -3 6 -8 10 -11 10 -2 0
-4 -4 -4 -10z"/>
<path d="M4110 1540 c8 -5 24 -9 35 -9 l20 0 -20 9 c-11 5 -27 9 -35 9 -13 1
-13 0 0 -9z"/>
<path d="M4190 1520 c0 -5 10 -10 23 -10 18 0 19 2 7 10 -19 13 -30 13 -30 0z"/>
<path d="M4240 1470 c0 -5 5 -10 11 -10 5 0 7 5 4 10 -3 6 -8 10 -11 10 -2 0
-4 -4 -4 -10z"/>
<path d="M4465 1310 c28 -12 67 -12 60 0 -3 6 -23 10 -43 9 -30 0 -33 -2 -17
-9z"/>
</g>
</svg>
