<?xml version="1.0" standalone="no"?>
<!DOCTYPE svg PUBLIC "-//W3C//DTD SVG 20010904//EN"
 "http://www.w3.org/TR/2001/REC-SVG-20010904/DTD/svg10.dtd">
<svg version="1.0" xmlns="http://www.w3.org/2000/svg"
 width="535.000000pt" height="768.000000pt" viewBox="0 0 535.000000 768.000000"
 preserveAspectRatio="xMidYMid meet">

<g transform="translate(0.000000,768.000000) scale(0.100000,-0.100000)"
fill="#000000" stroke="none">
<path d="M2 6925 c3 -650 5 -757 18 -765 15 -9 23 -80 8 -80 -13 0 -9 -28 5
-32 17 -6 19 -227 2 -248 -17 -21 -24 -69 -11 -73 7 -3 6 -9 -3 -21 -27 -32
-27 -516 0 -516 5 0 9 11 9 25 0 14 7 37 16 50 13 20 14 28 4 40 -7 9 -10 19
-6 22 4 4 11 1 15 -6 7 -11 10 -11 15 0 3 8 4 -4 1 -25 -2 -21 0 -47 5 -56 5
-10 11 -53 14 -96 2 -44 11 -99 19 -124 9 -25 16 -70 16 -100 1 -30 7 -77 15
-105 11 -42 20 -54 52 -72 83 -48 160 -60 244 -38 21 5 30 0 50 -27 25 -34 27
-51 20 -203 -2 -33 0 -130 5 -215 4 -85 8 -177 9 -203 1 -52 14 -67 58 -67 21
0 30 8 48 45 22 45 37 155 21 155 -12 0 -16 142 -7 298 3 52 2 112 -4 135 -6
30 -6 44 3 50 8 6 9 10 1 13 -6 3 -26 16 -44 29 -18 13 -38 22 -43 18 -6 -3
-7 -1 -3 5 4 6 14 9 24 6 14 -5 14 -4 2 4 -8 6 -17 9 -21 6 -4 -2 -12 3 -19
11 -7 8 -20 15 -29 15 -14 0 -14 2 -1 10 12 8 13 11 1 19 -8 5 -9 11 -3 15 14
9 3 46 -14 46 -8 0 -14 5 -14 10 0 6 7 10 15 10 20 0 19 10 -2 27 -17 14 -17
14 1 9 14 -5 17 -2 12 10 -4 11 -2 15 8 11 8 -3 16 -2 18 2 2 4 15 11 30 14
23 6 27 4 33 -23 4 -18 11 -27 18 -23 7 4 8 0 3 -13 -13 -34 -11 -39 11 -37
14 2 23 -3 23 -11 0 -15 35 -11 58 7 8 6 17 5 27 -3 8 -6 19 -9 25 -5 5 3 13
-1 16 -9 5 -14 8 -14 29 0 19 12 25 13 32 2 14 -22 41 -17 47 8 7 26 26 33 26
10 0 -8 7 -17 16 -20 22 -8 24 -8 22 7 -2 8 7 11 27 9 22 -2 26 0 15 7 -12 8
-11 11 5 17 35 13 47 44 18 45 -16 0 -15 2 2 10 17 7 16 8 -10 7 -16 0 -38 3
-49 7 -12 5 -21 3 -26 -6 -7 -11 -10 -9 -16 6 -5 11 -3 20 4 23 17 5 15 22 -3
22 -8 0 -15 -7 -15 -15 0 -8 -4 -15 -10 -15 -14 0 -13 23 2 38 6 6 8 15 4 19
-4 4 -11 1 -16 -7 -8 -12 -10 -12 -10 4 0 15 -3 16 -15 6 -8 -7 -15 -20 -15
-28 0 -13 -3 -13 -12 -4 -10 10 -10 17 0 33 8 12 9 18 3 14 -6 -3 -11 -2 -11
3 0 5 12 14 26 20 14 7 22 17 19 22 -9 14 9 12 23 -2 9 -9 12 -8 12 4 0 8 -6
21 -14 28 -21 16 -9 42 13 31 10 -6 23 -6 32 0 9 6 10 9 2 9 -9 0 -10 7 -3 26
7 19 7 31 -1 40 -11 14 -6 25 28 62 7 7 10 19 6 27 -3 11 -1 13 10 9 8 -3 18
-1 22 5 3 6 1 11 -4 11 -6 0 -11 9 -11 21 0 13 -4 18 -12 13 -7 -4 -6 1 3 12
9 10 16 33 14 49 -2 37 33 94 46 73 7 -10 9 -9 9 5 0 9 3 17 8 17 17 -1 27
-17 27 -42 -1 -24 3 -28 27 -28 19 0 28 -5 28 -16 0 -8 -4 -12 -10 -9 -6 3 -7
-1 -4 -9 3 -9 10 -16 14 -16 12 0 43 -89 36 -105 -3 -9 1 -15 9 -15 8 0 15 -5
15 -11 0 -5 -4 -8 -9 -5 -5 3 -12 -15 -16 -41 -4 -25 -10 -42 -13 -36 -13 19
-42 11 -42 -12 0 -28 24 -49 47 -43 15 4 18 -2 19 -39 1 -52 9 -63 28 -37 8
11 18 15 23 10 4 -5 2 -11 -5 -13 -6 -3 -12 -13 -12 -23 0 -25 -15 -33 -30
-15 -6 7 -19 11 -27 8 -13 -5 -15 -1 -11 20 3 15 2 27 -2 27 -4 0 -10 -17 -13
-37 -3 -27 0 -42 12 -51 9 -7 15 -17 14 -22 -2 -6 8 -6 22 0 15 6 26 6 30 0
10 -16 35 -11 35 6 0 9 -5 12 -12 8 -8 -5 -9 2 -4 26 8 42 12 46 31 30 19 -16
79 -24 70 -11 -3 5 -1 12 4 15 5 4 12 -2 15 -11 3 -11 4 -8 3 7 -1 17 -8 25
-20 24 -9 -1 -17 5 -17 13 0 8 4 12 8 9 5 -3 6 8 4 25 -3 18 -10 29 -21 30
-10 0 -11 2 -3 6 6 2 12 11 12 19 0 12 4 12 26 -2 18 -13 28 -14 35 -6 5 7 6
10 3 7 -7 -5 -34 20 -34 31 0 5 5 3 12 -4 19 -19 49 -14 55 8 3 11 9 20 14 20
5 0 9 7 9 16 0 8 -4 13 -10 9 -5 -3 -8 20 -7 60 1 36 -1 65 -5 65 -5 0 -8 7
-8 15 0 8 -4 15 -10 15 -14 0 -12 37 3 43 9 4 8 8 -3 17 -13 10 -13 11 2 6 20
-6 49 29 41 50 -3 8 0 14 7 14 6 0 8 5 5 10 -4 6 -1 9 6 8 8 -2 14 9 15 26 2
16 8 32 13 35 12 8 34 100 27 117 -3 7 1 17 8 23 14 12 14 101 1 256 -6 66 -4
87 11 120 20 44 31 111 14 85 -8 -13 -10 -12 -10 4 0 12 -5 16 -15 12 -18 -7
-20 5 -3 22 10 10 10 15 -1 21 -10 6 -12 18 -7 37 7 26 8 46 6 87 -2 50 4 157
10 157 15 0 29 102 25 194 -2 78 0 96 11 92 8 -3 11 0 7 10 -3 7 0 14 6 14 6
0 11 7 11 15 0 8 -4 15 -9 15 -6 0 -9 8 -9 18 0 9 -4 36 -10 60 -8 33 -7 42 3
42 7 0 16 15 19 34 4 19 11 36 17 38 6 2 12 15 12 29 2 25 3 26 24 10 12 -9
23 -19 23 -23 0 -5 7 -8 15 -8 9 0 18 -7 21 -15 9 -22 19 -18 33 12 9 20 15
23 23 15 16 -16 28 -15 28 1 0 7 8 22 19 33 10 11 26 45 36 75 10 29 24 63 30
74 20 32 28 78 13 69 -10 -5 -10 -4 -1 6 10 11 16 11 32 -4 10 -9 25 -16 32
-14 9 2 13 -5 11 -19 -2 -13 2 -23 7 -23 6 0 11 -8 11 -19 0 -10 6 -24 14 -30
18 -15 40 -94 34 -126 -3 -14 -2 -25 2 -25 4 0 7 -42 5 -92 -2 -80 2 -106 28
-181 19 -59 27 -99 23 -119 -4 -21 0 -35 14 -50 25 -27 26 -39 3 -32 -16 5
-17 4 -2 -8 12 -10 14 -19 7 -37 -5 -16 -4 -28 4 -38 7 -8 13 -22 14 -31 4
-27 44 -43 44 -17 0 8 -4 15 -10 15 -21 0 -9 21 17 31 15 6 31 15 35 21 5 9
11 8 22 -1 8 -7 20 -10 25 -7 5 4 13 1 18 -6 10 -15 55 -17 66 -3 5 6 5 0 2
-12 -5 -20 -3 -23 19 -23 30 0 33 8 9 25 -15 11 -15 15 -4 29 17 20 31 21 31
1 0 -8 5 -15 10 -15 6 0 10 -7 10 -16 0 -11 6 -14 20 -9 15 5 18 3 14 -9 -3
-9 -9 -16 -13 -16 -4 0 -8 -13 -8 -30 0 -35 6 -37 37 -10 16 14 21 27 18 44
-3 14 -1 23 3 20 5 -3 17 0 26 5 10 6 12 11 6 11 -7 0 -13 7 -13 16 0 14 3 14
15 4 8 -7 15 -18 15 -25 0 -8 6 -15 12 -18 16 -5 -8 -37 -25 -34 -15 3 -22
-52 -8 -66 7 -7 14 -7 24 1 10 9 17 8 26 -1 10 -9 15 -8 25 6 7 9 17 17 22 17
5 0 15 8 22 18 24 33 102 8 102 -33 0 -11 9 -14 38 -10 78 10 92 16 92 38 0
18 2 19 10 7 16 -24 11 -47 -10 -53 -13 -3 -20 -14 -20 -29 0 -18 -2 -20 -9
-8 -6 8 -8 17 -5 21 2 4 -1 11 -7 15 -9 5 -10 0 -6 -17 4 -13 7 -32 7 -43 0
-12 5 -16 15 -12 8 3 22 9 32 13 10 4 14 3 9 -5 -3 -6 1 -15 10 -20 26 -14 0
-24 -33 -12 -25 9 -26 8 -10 -4 20 -15 22 -27 5 -24 -6 2 -11 -8 -11 -22 0
-64 3 -70 26 -70 16 0 23 -6 23 -19 0 -15 -4 -17 -17 -11 -12 7 -22 4 -34 -10
-14 -15 -21 -17 -32 -9 -7 7 -11 14 -9 16 7 8 -18 32 -27 26 -4 -3 -3 -11 4
-19 9 -11 9 -14 -1 -14 -8 0 -11 -10 -8 -30 3 -16 1 -30 -4 -30 -4 0 -8 -7 -8
-16 0 -8 -4 -13 -9 -9 -5 3 -12 1 -16 -5 -3 -5 -1 -10 4 -10 15 0 14 -47 -1
-57 -17 -11 -18 -50 -1 -50 7 0 13 7 13 14 0 31 17 1 18 -32 2 -39 -12 -47
-22 -12 -4 16 -8 19 -14 9 -5 -7 -16 -10 -27 -6 -15 6 -16 4 -8 -11 11 -18 31
-27 66 -26 21 0 22 -9 2 -35 -16 -21 -20 -48 -6 -40 5 4 17 3 26 0 13 -6 14
-9 3 -16 -15 -11 25 -6 56 7 13 6 17 5 13 -2 -7 -11 35 -23 79 -23 20 0 22 3
14 30 -5 18 -5 32 1 36 12 7 10 115 -3 131 -5 7 -5 14 1 17 5 4 4 23 -4 51 -8
25 -11 45 -8 45 3 0 -2 10 -13 21 -14 16 -15 23 -6 26 6 3 12 11 12 18 0 7 7
25 15 41 8 16 10 31 6 34 -14 8 -15 33 -3 63 15 35 15 40 2 32 -5 -3 -10 -1
-10 4 0 6 6 11 13 11 14 0 11 119 -4 135 -12 12 -12 28 0 21 12 -8 21 32 26
122 3 43 7 95 10 117 3 22 7 108 10 190 3 83 10 168 15 190 5 22 5 41 1 43
-13 4 -2 122 15 159 8 17 14 38 14 48 0 9 5 13 11 10 5 -4 8 -12 6 -18 -2 -7
4 -23 13 -37 20 -30 32 -97 36 -200 1 -41 5 -102 8 -135 12 -120 15 -251 7
-292 -5 -23 -6 -44 -4 -47 4 -3 4 -86 3 -511 0 -110 -5 -231 -11 -270 -5 -38
-12 -89 -16 -112 -4 -33 -10 -43 -24 -43 -15 0 -19 -8 -19 -37 0 -20 6 -52 13
-71 10 -28 10 -36 0 -39 -17 -6 -16 -35 2 -59 8 -10 15 -28 15 -39 0 -11 7
-31 16 -43 21 -30 0 -28 -24 3 -13 16 -30 25 -47 25 -27 0 -27 0 -11 -25 14
-21 14 -28 4 -45 -13 -21 -7 -31 27 -43 6 -3 8 -7 5 -10 -3 -4 -28 0 -55 8
-86 26 -118 14 -45 -17 37 -15 60 -42 47 -54 -3 -3 -36 2 -72 11 -70 17 -98
15 -45 -3 55 -20 91 -52 84 -74 -6 -21 23 -98 38 -98 4 0 8 -7 8 -15 0 -8 7
-15 16 -15 12 0 14 -7 9 -32 -6 -27 -5 -31 6 -21 10 10 16 2 31 -39 10 -29 18
-62 18 -75 0 -33 -29 -101 -46 -107 -8 -3 -14 -11 -14 -18 0 -7 -11 -24 -25
-36 -18 -18 -22 -28 -16 -41 6 -10 6 -23 0 -33 -5 -9 -8 -27 -7 -40 2 -17 -3
-24 -18 -26 -11 -2 -28 -16 -37 -32 -10 -16 -25 -36 -34 -45 -24 -24 -1 -43
31 -26 13 8 29 10 35 7 14 -9 14 0 -1 24 -9 15 -10 23 -2 28 6 4 13 14 16 23
9 24 88 25 88 1 0 -12 3 -13 11 -5 6 6 17 9 24 6 8 -2 26 3 41 13 l27 18 -8
-24 c-26 -85 -76 -160 -106 -160 -10 0 -34 14 -53 30 -27 24 -35 27 -40 15 -4
-10 -14 -13 -35 -9 -24 5 -30 2 -36 -16 -10 -31 -46 -22 -64 15 -12 23 -16 26
-19 13 -2 -10 -7 -18 -10 -18 -4 0 -22 -10 -41 -21 -31 -19 -33 -22 -17 -31
12 -7 16 -17 12 -34 -7 -28 19 -46 55 -37 33 8 49 22 49 44 0 11 7 19 15 19 8
0 15 -6 15 -14 0 -7 13 -19 29 -25 32 -14 55 -54 46 -81 -3 -10 -32 -35 -65
-55 -33 -21 -60 -41 -60 -46 0 -4 -15 -7 -32 -7 -18 0 -66 -5 -105 -11 -81
-12 -103 -8 -103 19 0 10 -9 22 -21 25 -30 10 -50 66 -51 147 -1 61 -5 72 -25
85 -12 8 -27 32 -33 53 -8 30 -19 42 -54 61 -25 13 -48 21 -51 17 -4 -3 10
-31 30 -60 39 -59 54 -133 37 -178 -9 -24 -10 -24 -22 18 -7 23 -18 42 -23 42
-9 0 -6 -39 8 -107 11 -51 -9 -40 -56 29 -38 56 -43 60 -50 40 -5 -12 -6 -29
-3 -37 4 -8 2 -15 -4 -15 -6 0 -8 -9 -5 -19 3 -11 24 -26 51 -36 58 -22 58
-21 42 -40 -11 -14 -14 -13 -26 4 -10 13 -26 19 -61 19 l-47 1 40 -26 c81 -54
84 -80 12 -122 -46 -26 -49 -31 -27 -31 22 0 28 -6 33 -31 10 -51 7 -68 -13
-86 -14 -12 -18 -24 -14 -48 4 -25 0 -38 -16 -54 -24 -24 -26 -34 -8 -50 9 -7
17 -7 23 -1 6 6 17 5 31 -5 17 -12 21 -25 21 -84 1 -73 0 -75 -74 -164 -16
-19 -75 -22 -120 -6 -19 7 -137 14 -159 9 -25 -4 65 -29 110 -29 45 -1 55 -5
87 -38 21 -21 48 -63 61 -93 14 -31 32 -62 41 -69 62 -52 242 -343 202 -328
-10 4 -12 0 -8 -15 3 -13 7 -16 12 -8 10 16 22 -3 14 -23 -3 -8 6 -27 20 -43
17 -19 25 -24 26 -14 0 8 7 2 15 -13 8 -16 14 -34 12 -40 -1 -7 3 -11 10 -10
7 2 21 -10 32 -26 67 -93 221 -395 221 -432 0 -10 9 -28 21 -40 22 -22 48
-155 32 -169 -27 -25 -51 -20 -75 17 -14 21 -44 57 -67 80 -22 23 -41 44 -41
48 0 8 -26 35 -34 35 -12 0 -5 -19 14 -42 35 -39 64 -92 61 -111 -1 -10 8 -26
21 -37 20 -17 22 -21 10 -41 l-14 -22 69 8 c37 4 71 12 74 17 4 7 9 6 13 -1 4
-6 3 -11 -3 -11 -5 0 -7 -10 -4 -22 3 -13 5 -34 5 -48 -1 -14 4 -37 10 -52 8
-21 14 -26 27 -19 14 8 16 2 18 -41 1 -49 1 -50 -48 -80 -37 -22 -57 -44 -76
-82 -14 -28 -30 -54 -36 -58 -6 -3 -10 -21 -10 -40 0 -18 -7 -41 -15 -51 -13
-15 -14 -23 -4 -49 12 -34 6 -52 -27 -82 -12 -11 -21 -23 -21 -28 0 -9 -40
-57 -68 -82 -7 -6 -23 -21 -34 -34 -22 -22 -48 -30 -48 -13 0 10 69 103 84
113 7 5 8 10 1 17 -11 11 -96 -42 -120 -75 -7 -10 -23 -19 -35 -21 -13 -2 -29
-8 -37 -14 -29 -25 -12 29 27 81 22 29 40 55 40 56 0 1 -13 -3 -30 -9 -16 -6
-30 -15 -30 -19 0 -4 -7 -8 -15 -8 -9 0 -20 -11 -25 -24 -9 -25 -42 -42 -60
-31 -13 8 -1 62 24 104 23 40 39 124 22 118 -6 -2 -16 -19 -22 -38 -6 -19 -20
-38 -32 -44 -11 -5 -23 -17 -25 -27 -4 -14 -12 -17 -35 -12 -23 5 -39 0 -61
-16 -26 -18 -31 -19 -31 -5 0 9 11 33 25 53 14 20 25 41 25 47 0 5 7 23 15 39
12 23 13 31 3 37 -6 4 -16 5 -21 2 -5 -3 -4 -9 2 -12 13 -8 -8 -30 -47 -51
-30 -15 -40 -5 -19 18 23 25 21 35 -3 27 -13 -4 -22 -1 -26 9 -5 14 -10 13
-34 -7 -21 -16 -29 -31 -29 -54 -1 -39 -30 -60 -61 -43 -11 6 -20 15 -20 21 0
6 -10 9 -22 7 -17 -2 -24 -11 -26 -30 -2 -16 -7 -28 -12 -28 -4 0 -6 19 -3 41
l6 41 -27 -17 c-14 -9 -27 -24 -28 -31 0 -8 -1 -20 -2 -26 -1 -7 12 -14 28
-15 35 -2 42 -9 29 -25 -6 -9 -3 -24 8 -46 14 -27 18 -30 23 -15 4 10 2 19 -3
21 -6 2 -11 8 -11 13 0 12 37 12 44 0 4 -5 18 -6 33 -2 30 8 83 -7 83 -23 0
-16 -51 -77 -60 -71 -4 2 -13 -2 -20 -10 -6 -7 -18 -11 -25 -9 -16 6 -39 -31
-31 -51 3 -8 0 -15 -7 -18 -18 -6 -40 21 -34 43 3 11 1 22 -4 25 -4 3 -7 18
-5 33 2 15 1 21 -1 14 -3 -7 -9 -10 -14 -7 -5 4 -14 3 -20 -1 -8 -5 -8 -9 1
-14 8 -5 9 -10 2 -14 -6 -4 -19 5 -28 19 -13 20 -15 35 -8 72 9 53 9 61 0 98
-4 14 -2 25 3 25 6 0 27 16 48 35 21 19 44 35 52 35 11 0 11 3 0 16 -12 14
-14 14 -25 0 -17 -24 -24 -19 -24 17 -1 17 -7 43 -14 56 -17 30 -9 72 13 69
11 -2 15 3 13 16 -2 10 2 23 10 27 10 7 9 9 -4 9 -22 0 -23 23 -3 40 8 7 12
16 9 21 -10 16 -42 -15 -65 -63 -12 -26 -25 -45 -29 -43 -9 6 -20 -29 -20 -65
-1 -24 -1 -24 -15 -6 -21 28 -19 49 10 81 17 20 21 33 14 41 -5 7 -7 23 -4 37
5 19 1 30 -14 44 -12 9 -21 27 -21 39 0 12 -10 28 -21 36 -19 12 -20 17 -10
36 10 20 8 27 -19 60 -16 20 -30 45 -30 55 0 10 -5 28 -11 40 -13 22 -19 92
-19 191 0 56 -10 103 -33 153 -5 12 -7 42 -5 67 4 30 1 52 -8 65 -11 15 -11
20 -1 24 9 4 9 7 0 18 -7 7 -13 22 -13 34 -1 11 -7 34 -15 50 -14 28 -14 23
-11 -70 6 -147 -3 -265 -20 -258 -8 3 -14 -2 -14 -11 0 -9 -5 -16 -11 -16 -7
0 -17 -8 -24 -17 -12 -15 -16 -16 -39 -4 -14 8 -26 21 -26 28 0 8 -4 12 -9 8
-5 -3 -7 -20 -4 -39 3 -23 -1 -42 -13 -61 -19 -28 -19 -29 4 -23 12 4 22 2 22
-3 0 -5 -6 -9 -13 -9 -9 0 -12 -21 -11 -75 2 -75 13 -105 40 -105 13 0 16 -14
18 -82 1 -13 6 -26 11 -30 6 -4 -5 -8 -22 -8 -28 0 -33 -4 -33 -24 0 -13 -6
-29 -13 -35 -11 -9 -16 -3 -25 27 -5 20 -8 52 -5 70 4 24 2 32 -10 32 -17 0
-27 -41 -27 -114 0 -29 -4 -56 -9 -61 -11 -12 -31 -107 -25 -117 3 -4 -1 -8
-8 -8 -7 0 -32 19 -56 42 -28 27 -46 38 -49 31 -3 -7 -17 -13 -33 -13 -29 0
-53 -20 -48 -40 2 -7 -2 -14 -9 -17 -6 -2 -13 6 -15 19 -2 14 -9 22 -18 19 -8
-2 -22 -4 -30 -5 -8 0 -18 -5 -21 -9 -3 -5 -22 2 -42 13 l-37 22 0 -21 c0 -12
-5 -21 -11 -21 -5 0 -7 -5 -4 -10 4 -6 11 -8 16 -5 5 4 9 0 9 -8 0 -18 -21
-27 -66 -27 -19 0 -34 -4 -34 -9 0 -14 39 -21 118 -21 70 0 72 1 72 25 0 29
24 34 51 9 11 -10 35 -16 58 -16 48 1 77 -28 60 -60 -14 -26 -31 -23 -64 12
-29 30 -55 39 -55 19 0 -6 -10 -9 -22 -7 -22 3 -48 -27 -64 -74 -5 -15 -18
-17 -90 -14 -47 2 -87 -1 -90 -6 -3 -4 -10 -8 -16 -8 -7 0 -7 4 0 13 8 10 -2
13 -48 15 -44 2 -59 -1 -63 -13 -4 -9 -13 -12 -23 -8 -12 4 -15 2 -12 -8 2 -8
15 -16 29 -17 13 -2 29 -8 35 -13 12 -10 63 -7 81 4 15 9 23 -2 15 -21 -5 -15
-3 -15 10 -4 9 7 36 14 60 14 23 1 48 4 53 8 30 20 42 18 37 -6 -3 -15 -10
-23 -17 -21 -6 3 -17 2 -23 -1 -28 -18 74 -82 123 -76 16 1 32 -1 35 -6 3 -4
33 -10 67 -13 56 -4 64 -2 85 21 l23 24 -22 -6 c-28 -9 -66 11 -59 30 3 8 -1
14 -9 14 -8 0 -15 4 -15 9 0 5 18 9 40 9 55 1 62 8 59 56 -3 65 0 81 11 70 6
-6 11 -55 12 -110 1 -54 5 -110 10 -122 12 -34 0 -46 -27 -28 -15 10 -26 12
-30 6 -3 -6 -1 -10 4 -10 6 0 11 -7 11 -16 0 -9 5 -12 12 -8 11 7 10 2 -9 -58
-4 -12 0 -18 11 -18 9 0 16 -4 16 -10 0 -13 -13 -13 -28 2 -17 17 -79 -54 -80
-92 0 -16 -6 -38 -12 -50 -11 -20 -13 -21 -30 -5 -12 11 -20 13 -25 6 -8 -14
3 -31 20 -31 8 0 19 -8 24 -18 9 -14 10 -15 11 -1 0 18 41 59 58 59 7 0 12 4
12 9 0 13 73 81 87 81 8 0 13 -12 13 -28 0 -24 -6 -31 -37 -41 -46 -15 -57
-24 -105 -78 -21 -24 -39 -37 -42 -30 -2 7 -5 4 -5 -7 -1 -13 -6 -17 -21 -13
-11 3 -20 1 -20 -5 0 -6 -25 -8 -69 -3 -46 5 -71 3 -75 -4 -12 -19 -28 -12
-24 11 2 12 13 28 26 34 13 6 30 21 37 32 13 18 12 20 -16 26 -17 3 -39 2 -48
-4 -14 -7 -20 -4 -29 15 -9 20 -16 23 -44 18 -24 -3 -38 0 -47 11 -7 9 -20 16
-27 16 -8 0 -14 7 -14 15 0 8 -4 15 -10 15 -5 0 -10 -7 -10 -16 0 -15 -2 -15
-24 0 -14 9 -32 13 -40 10 -9 -4 -16 -1 -16 6 0 6 9 14 20 17 22 6 26 18 9 29
-6 3 -8 17 -5 29 4 14 1 25 -7 28 -6 3 4 6 23 7 l35 1 -28 15 c-15 8 -27 19
-27 25 0 5 -17 9 -37 7 -35 -3 -38 -1 -36 23 1 26 0 26 -35 18 -29 -6 -41 -4
-57 10 -20 18 -81 25 -100 11 -18 -13 -85 -22 -85 -10 0 5 -8 10 -18 10 -18 0
-52 33 -52 50 0 5 19 22 43 37 51 34 58 43 53 66 -5 19 5 22 20 8 11 -12 84 9
84 24 0 5 12 -3 26 -20 16 -19 23 -37 20 -50 -3 -11 -6 -28 -6 -37 0 -10 -7
-18 -15 -18 -8 0 -15 -5 -15 -11 0 -5 -4 -7 -10 -4 -5 3 -10 1 -10 -4 0 -13
50 -14 70 -1 12 7 12 12 2 22 -23 23 -12 25 28 6 22 -11 45 -29 50 -39 13 -22
47 -21 53 3 3 10 18 23 34 29 21 9 24 13 11 16 -9 2 -26 -1 -37 -7 -13 -6 -21
-7 -21 -1 0 5 -13 12 -28 16 -25 5 -28 10 -27 40 1 34 0 35 -40 35 -48 0 -65
14 -65 50 l0 27 57 -9 c32 -5 65 -16 74 -24 29 -26 31 2 4 41 -13 21 -22 42
-19 47 4 7 0 7 -12 0 -11 -5 -49 -10 -87 -11 -37 -1 -84 -9 -104 -18 -26 -10
-38 -12 -41 -4 -5 16 -22 14 -22 -3 0 -8 13 -17 30 -21 17 -4 30 -11 30 -17 0
-11 -48 -3 -97 18 -28 11 -35 11 -48 -3 -33 -32 -169 -24 -162 10 1 6 -4 12
-10 13 -7 1 -17 2 -23 3 -5 0 -10 7 -10 15 0 9 -7 12 -20 9 -16 -4 -19 -2 -14
11 8 20 -5 21 -32 2 -18 -13 -20 -27 -21 -175 l-2 -161 29 0 c23 0 30 -4 30
-20 0 -24 -8 -25 -38 -4 l-22 15 0 -70 0 -71 45 0 c34 0 45 -4 45 -15 0 -9 -7
-18 -15 -21 -8 -4 -15 -10 -15 -15 0 -4 6 -6 14 -3 8 3 19 -3 26 -15 12 -23
36 -27 60 -11 13 9 11 13 -9 29 l-24 18 34 7 c73 14 115 14 143 0 16 -8 35
-14 43 -14 7 0 13 -5 13 -11 0 -6 9 -9 20 -6 10 3 20 1 22 -3 6 -16 53 2 72
28 11 15 16 24 12 21 -13 -12 -59 6 -62 24 -1 9 1 18 4 18 39 8 62 11 92 12
19 1 37 4 40 7 10 10 77 30 100 30 22 0 22 -1 7 -18 -23 -25 -22 -52 2 -52 11
0 23 -4 26 -10 4 -6 -8 -10 -30 -10 -22 0 -34 4 -30 10 3 6 0 10 -8 10 -12 0
-13 -7 -7 -35 6 -26 4 -38 -7 -47 -12 -10 -17 -9 -24 5 -6 9 -17 17 -24 17 -8
0 -15 5 -15 10 0 6 -8 5 -19 -2 -26 -16 -20 -24 39 -43 27 -9 53 -21 56 -27 9
-13 -16 -29 -38 -24 -11 2 -18 -4 -22 -20 -11 -41 -55 -24 -48 19 5 25 -13 21
-36 -8 -11 -14 -25 -25 -31 -25 -7 0 -14 -7 -17 -15 -3 -8 -16 -15 -27 -15
-43 1 -72 -5 -82 -16 -15 -17 -44 -24 -50 -14 -4 6 -1 10 4 10 6 0 11 4 11 9
0 9 -81 33 -88 26 -9 -8 10 -25 29 -25 10 0 19 -4 19 -10 0 -5 -13 -10 -29
-10 -17 0 -32 -4 -35 -9 -7 -10 -56 -2 -56 9 0 5 9 10 20 12 29 4 25 22 -5 26
-17 2 -25 8 -21 17 7 18 -23 28 -41 13 -9 -7 -29 -12 -47 -13 -29 0 -31 -2
-34 -41 -3 -36 0 -42 20 -47 l22 -6 -22 -24 -22 -24 2 -459 3 -459 244 -3
c171 -2 248 1 257 9 8 6 14 7 14 2 0 -13 205 -6 231 7 10 6 24 8 29 5 5 -3 24
2 42 11 18 10 44 18 58 20 50 5 74 14 82 29 5 8 18 15 29 15 11 0 18 4 15 8
-3 5 10 14 29 19 25 8 35 8 38 -1 3 -8 8 -8 18 1 7 7 19 13 27 13 16 0 42 24
42 39 0 6 7 8 16 4 13 -5 15 -1 9 18 -4 16 -3 20 3 10 7 -9 12 -10 16 -2 9 14
26 14 26 1 0 -5 -7 -10 -15 -10 -22 0 -14 -22 14 -37 27 -15 43 -17 21 -3 -8
5 -10 10 -5 10 6 1 29 5 53 9 36 7 42 6 40 -8 -3 -17 4 -17 61 -4 19 5 36 14
39 21 3 9 -3 11 -22 6 -21 -5 -32 -1 -51 22 -14 16 -25 34 -25 41 0 6 -8 18
-18 25 -9 7 -24 22 -32 32 -14 18 -13 19 11 13 33 -8 72 18 64 43 -4 12 3 25
21 39 14 11 24 27 21 34 -3 7 1 21 9 32 22 29 17 39 -11 21 -13 -9 -31 -16
-40 -16 -22 0 -18 -17 5 -23 23 -6 27 -27 5 -27 -8 0 -15 4 -15 9 0 16 -33 22
-49 8 -9 -8 -29 -17 -44 -21 -16 -4 -44 -23 -64 -42 -30 -30 -41 -35 -66 -30
-16 3 -37 6 -45 6 -13 0 -13 3 -4 12 7 7 12 27 12 45 0 37 1 37 48 24 26 -8
34 -7 39 5 3 7 11 14 19 14 8 0 24 6 35 13 15 8 23 9 26 1 5 -14 63 -5 65 10
0 6 1 18 2 26 1 18 89 31 123 19 26 -10 41 -31 25 -37 -7 -2 -12 -8 -12 -13 0
-14 40 -11 55 5 8 7 35 17 60 20 25 4 49 14 52 22 3 7 23 19 44 25 33 10 42
10 58 -5 30 -27 75 -10 80 29 2 15 -252 7 -302 -10 -23 -7 -61 -13 -85 -12
-23 1 -42 -2 -42 -6 0 -5 -6 -5 -12 0 -16 9 -70 4 -83 -8 -5 -5 -15 -9 -23 -9
-11 0 -11 3 2 15 8 8 21 15 28 15 8 0 19 5 25 11 8 8 17 8 30 1 15 -8 22 -7
31 8 9 14 8 19 -4 24 -25 10 -65 7 -102 -7 -28 -10 -36 -9 -39 1 -3 6 -9 12
-15 12 -5 0 -7 -9 -3 -19 5 -17 2 -18 -30 -11 -48 11 -50 14 -36 48 l12 29
117 7 c64 3 135 10 157 15 51 12 300 17 340 7 17 -4 40 -11 52 -16 14 -6 33
-6 50 1 32 12 123 -6 123 -24 0 -8 3 -9 8 -1 13 19 43 24 64 10 14 -10 28 -12
51 -5 18 5 56 9 85 9 47 0 59 4 95 35 48 41 60 44 51 10 -8 -31 20 -35 35 -6
14 25 140 151 152 151 13 0 11 -14 -3 -28 -10 -10 -10 -15 1 -21 7 -5 15 -28
18 -52 4 -36 1 -48 -16 -63 -12 -11 -32 -21 -46 -22 -14 -1 -32 -10 -41 -18
-8 -9 -20 -16 -25 -16 -5 0 -9 -10 -9 -21 0 -24 12 -24 145 5 79 17 327 22
440 8 147 -18 317 20 353 79 13 21 13 21 -20 15 -27 -5 -39 -2 -53 14 -10 11
-16 22 -14 24 14 14 99 1 99 -15 0 -19 36 -8 65 19 34 32 143 103 161 106 7 1
18 7 25 13 8 6 25 14 39 18 14 4 27 10 30 14 3 3 41 24 85 46 44 22 96 49 116
61 19 12 44 24 55 26 13 2 18 10 16 26 -3 20 1 22 30 20 26 -2 32 1 30 13 -1
11 7 19 25 24 25 6 26 8 10 17 -10 5 -24 8 -31 5 -17 -7 -49 19 -41 33 4 7 1
16 -6 21 -11 6 -9 10 6 15 11 5 20 3 23 -4 8 -25 29 -12 27 17 -1 23 2 27 17
23 10 -2 16 -8 13 -12 -6 -10 15 -60 33 -79 10 -10 16 -11 25 -2 8 8 7 11 -6
11 -25 0 -23 50 2 57 11 3 18 10 15 17 -3 7 7 18 21 24 14 6 24 16 23 22 -2 5
11 21 27 34 29 24 29 25 8 26 -13 0 -23 5 -23 10 0 6 -4 10 -10 10 -5 0 -10
-7 -10 -15 0 -15 -46 -31 -115 -41 -96 -13 -103 -15 -108 -33 -4 -16 -65 -56
-74 -48 -2 2 7 23 20 47 16 32 32 47 57 55 23 8 41 23 53 46 11 21 37 45 68
62 28 15 48 33 46 40 -8 24 15 48 69 72 29 13 54 27 54 30 0 3 -9 1 -19 -5
-26 -13 -31 -13 -31 3 0 20 62 73 112 96 25 11 51 27 58 36 7 9 21 13 31 10
16 -5 17 -2 9 27 -6 17 -17 36 -25 40 -25 14 -36 46 -29 83 5 31 9 34 37 31
18 -1 42 -7 53 -14 22 -12 22 -11 8 35 -8 25 -14 50 -14 55 0 20 50 -27 89
-82 23 -33 55 -67 71 -77 17 -9 30 -23 30 -29 0 -6 12 -14 28 -17 15 -3 51
-11 81 -17 29 -6 55 -9 58 -6 3 3 -4 17 -14 33 -11 15 -23 37 -27 47 -3 10 -9
16 -13 13 -9 -9 -33 13 -33 30 0 9 6 12 18 9 12 -4 26 1 37 14 10 11 23 20 30
20 6 0 29 15 50 33 30 26 42 47 53 88 24 96 30 144 21 154 -17 17 -33 -14 -40
-81 -5 -46 -13 -72 -28 -88 -11 -12 -21 -27 -21 -33 0 -18 -47 -43 -101 -53
-44 -8 -61 -6 -122 14 -40 13 -73 23 -75 21 -1 -1 21 -17 51 -34 39 -25 59
-46 80 -84 30 -59 32 -67 15 -67 -17 1 -108 85 -108 100 0 7 -14 25 -30 40
-19 18 -30 38 -30 55 l0 28 70 -6 69 -6 0 52 c0 69 14 111 50 153 17 19 31 39
31 45 0 5 11 27 25 47 14 20 25 43 25 52 0 23 54 120 65 117 6 -2 27 -36 48
-76 22 -40 57 -89 80 -109 60 -53 96 -90 150 -156 40 -50 47 -65 47 -102 0
-24 -4 -44 -9 -44 -5 0 -13 -9 -16 -20 -4 -11 -29 -42 -56 -69 l-50 -49 53
-11 c122 -25 155 -29 186 -24 32 5 41 16 22 28 -16 10 -1 25 26 25 l25 0 -3
138 -3 137 -45 -3 c-36 -2 -51 3 -75 23 -16 14 -25 25 -20 25 6 0 10 25 10 55
0 52 -6 67 -20 45 -11 -18 -22 -11 -28 19 -9 42 2 73 23 66 12 -4 19 1 23 16
4 14 11 20 20 16 12 -4 14 1 10 24 -2 18 0 29 7 29 7 0 9 8 5 20 -7 21 10 60
25 60 6 0 10 -11 10 -25 0 -14 4 -25 9 -25 14 0 41 30 40 43 0 9 -2 8 -6 0 -7
-18 -33 -16 -33 1 0 8 10 22 23 31 20 14 22 24 25 140 l4 125 -26 0 c-13 0
-27 -4 -31 -9 -3 -6 -27 -8 -53 -5 -30 4 -63 0 -92 -10 -25 -9 -67 -16 -95
-16 l-50 1 38 23 c54 33 56 38 10 30 -50 -8 -66 10 -21 25 41 13 142 26 189
24 19 0 54 -10 77 -22 23 -12 44 -21 47 -21 3 0 5 108 5 240 0 132 -3 240 -6
240 -3 0 -20 -11 -38 -25 -41 -31 -82 -33 -89 -4 -3 12 -4 49 -2 83 3 33 7
126 10 206 6 175 20 370 40 585 79 828 78 797 82 2228 l4 1287 -90 0 -89 0 -6
-35 c-4 -20 -5 -39 -2 -44 3 -5 1 -22 -4 -37 -11 -33 -29 -204 -35 -339 -3
-49 -9 -126 -15 -170 -5 -44 -21 -219 -35 -390 -14 -170 -35 -413 -46 -540
-42 -486 -69 -854 -69 -960 -1 -38 -7 -117 -15 -175 -8 -58 -15 -129 -15 -159
0 -30 -2 -52 -5 -49 -10 10 -10 378 -1 381 6 2 4 35 -3 80 -7 42 -10 81 -6 87
3 6 -1 17 -9 26 -9 8 -17 12 -17 7 -1 -4 -2 -21 -4 -38 -5 -68 -19 -111 -40
-132 -14 -13 -21 -31 -20 -46 2 -20 -1 -24 -16 -20 -22 6 -24 0 -7 -27 14 -22
6 -35 -17 -26 -12 4 -15 13 -10 35 7 31 -9 50 -22 28 -4 -8 -19 -18 -32 -22
-17 -5 -21 -4 -16 5 5 8 2 10 -11 6 -22 -7 -38 2 -47 27 -9 23 -27 22 -27 -2
0 -23 -7 -28 -43 -35 -15 -2 -32 -8 -38 -11 -6 -4 -9 0 -7 11 2 15 -2 18 -24
16 -20 -2 -28 2 -28 13 0 11 -6 14 -25 9 -19 -5 -25 -2 -25 10 0 9 -6 16 -13
16 -19 0 -37 -21 -37 -42 0 -10 -6 -18 -12 -18 -10 0 -10 -2 0 -9 10 -6 10
-10 -3 -21 -9 -7 -13 -21 -10 -31 4 -13 1 -19 -9 -19 -9 0 -16 7 -16 15 0 24
-25 17 -26 -7 -1 -13 -5 -41 -9 -63 -4 -22 -7 -46 -8 -52 -1 -23 -17 -14 -18
10 -1 21 -1 21 -8 -3 -8 -25 -12 -85 -30 -465 -19 -370 -30 -510 -41 -498 -17
18 -90 272 -90 313 0 10 -5 31 -12 47 -6 15 -10 38 -9 51 3 27 -25 62 -49 62
-9 0 -20 3 -24 7 -4 5 -11 8 -15 8 -14 0 -181 172 -181 187 0 27 -47 75 -106
108 -58 34 -74 63 -54 99 6 12 8 30 5 41 -8 26 -62 70 -87 70 -11 0 -39 16
-63 35 -23 19 -66 42 -94 51 -43 12 -54 21 -69 52 -10 23 -29 43 -50 52 l-33
15 6 62 c8 73 -14 201 -50 297 -21 57 -24 76 -20 163 3 54 7 222 10 373 4 259
15 435 36 595 6 39 12 102 14 140 2 39 6 86 9 105 11 80 18 171 20 265 1 55 5
105 9 111 4 7 2 25 -4 42 -8 25 -5 52 16 139 29 116 33 125 67 130 13 2 25 8
26 13 2 6 10 10 17 10 7 0 15 9 18 21 5 19 4 20 -12 5 -22 -20 -37 -21 -21 -1
7 9 10 19 6 23 -4 4 -338 8 -742 10 -715 2 -736 2 -760 -17 -15 -12 -21 -22
-14 -26 8 -5 7 -11 -1 -21 -8 -10 -15 -12 -23 -4 -5 5 -19 10 -31 10 -33 0
-75 23 -72 40 2 13 -103 15 -881 18 l-883 2 3 -755z m3374 705 c0 -11 -4 -20
-8 -20 -4 0 -8 9 -8 20 0 11 4 20 8 20 4 0 8 -9 8 -20z m-868 -972 c-6 -17
-38 -23 -38 -8 0 6 5 8 10 5 6 -3 10 -1 10 4 0 6 5 11 11 11 6 0 9 -6 7 -12z
m-55 -15 c-7 -2 -13 -11 -13 -19 0 -8 -4 -14 -10 -14 -5 0 -10 4 -10 8 0 12
22 32 35 31 5 0 4 -3 -2 -6z m317 -13 c0 -11 -4 -20 -9 -20 -11 0 -22 26 -14
34 12 12 23 5 23 -14z m170 -3 c0 -8 -7 -14 -15 -14 -16 0 -19 9 -8 20 11 11
23 8 23 -6z m-380 -37 c0 -5 -4 -10 -10 -10 -5 0 -10 5 -10 10 0 6 5 10 10 10
6 0 10 -4 10 -10z m360 -80 c0 -5 -5 -10 -11 -10 -5 0 -7 5 -4 10 3 6 8 10 11
10 2 0 4 -4 4 -10z m-10 -290 c0 -5 -5 -10 -11 -10 -5 0 -7 5 -4 10 3 6 8 10
11 10 2 0 4 -4 4 -10z m-133 -102 c-3 -8 -6 -5 -6 6 -1 11 2 17 5 13 3 -3 4
-12 1 -19z m13 -212 c0 -3 -4 -8 -10 -11 -5 -3 -10 -1 -10 4 0 6 5 11 10 11 6
0 10 -2 10 -4z m-1670 -326 c0 -5 -4 -10 -10 -10 -5 0 -10 5 -10 10 0 6 5 10
10 10 6 0 10 -4 10 -10z m2000 -77 c0 -2 -13 6 -30 18 -16 12 -27 26 -23 32 4
7 53 -38 53 -50z m-1730 -247 c0 -2 -7 -7 -16 -10 -8 -3 -12 -2 -9 4 6 10 25
14 25 6z m-477 -63 c-3 -7 -9 -13 -13 -13 -4 0 -10 6 -13 13 -3 7 3 13 13 13
10 0 16 -6 13 -13z m299 -25 c-8 -8 -9 -4 -5 13 4 13 8 18 11 10 2 -7 -1 -18
-6 -23z m3656 6 c0 -17 -4 -22 -11 -15 -5 5 -7 17 -4 25 9 23 15 19 15 -10z
m-448 -35 c0 -11 -4 -18 -10 -14 -5 3 -7 12 -3 20 7 21 13 19 13 -6z m-1160
-29 c0 -11 -72 -61 -79 -55 -2 3 8 19 24 35 28 29 55 39 55 20z m-20 -74 c0
-3 -4 -8 -10 -11 -5 -3 -10 -1 -10 4 0 6 5 11 10 11 6 0 10 -2 10 -4z m100
-23 c0 -43 -27 -135 -45 -152 -22 -22 -19 1 6 43 14 24 21 53 21 86 -1 27 3
50 9 50 5 0 9 -12 9 -27z m-48 -79 c-2 -13 -9 -24 -14 -24 -6 0 -7 7 -4 16 3
9 6 25 6 37 0 16 3 18 9 9 4 -7 6 -24 3 -38z m-37 6 c0 -14 -6 -26 -15 -28
-11 -2 -15 6 -15 28 0 22 4 30 15 28 9 -2 15 -14 15 -28z m-67 -8 c2 -7 -3
-12 -12 -12 -9 0 -16 7 -16 16 0 17 22 14 28 -4z m72 -57 c0 -15 -26 -32 -36
-23 -2 3 -2 13 2 22 8 20 34 21 34 1z m1670 -135 c0 -11 -4 -20 -10 -20 -5 0
-10 9 -10 20 0 11 5 20 10 20 6 0 10 -9 10 -20z m-1290 -79 c0 -12 -20 -25
-27 -18 -7 7 6 27 18 27 5 0 9 -4 9 -9z m40 -156 c7 -8 18 -15 25 -15 7 0 42
-13 78 -30 37 -16 75 -30 84 -30 10 0 38 -11 62 -25 23 -14 49 -25 57 -25 7 0
11 -6 8 -14 -3 -8 8 -28 25 -45 34 -35 39 -51 16 -51 -18 0 -19 6 6 -65 17
-48 20 -75 16 -135 -5 -79 -45 -204 -79 -253 -27 -37 -18 -44 16 -12 30 28 48
33 40 11 -3 -8 5 -29 18 -46 20 -27 23 -44 24 -118 0 -48 4 -102 9 -121 7 -31
6 -34 -12 -29 -22 6 -28 -17 -10 -39 7 -9 5 -13 -7 -13 -16 0 -16 -1 -2 -16 9
-8 16 -19 16 -24 0 -4 9 -10 21 -13 14 -4 18 -10 13 -19 -4 -7 -10 -31 -12
-53 -2 -22 -9 -49 -17 -60 -15 -24 -20 -172 -6 -189 5 -6 12 -39 16 -73 6 -55
5 -61 -12 -60 -14 2 -17 -4 -15 -25 3 -28 -12 -39 -21 -15 -2 6 -8 9 -11 5 -4
-3 2 -28 14 -55 23 -52 48 -208 37 -236 -10 -26 -25 -20 -42 16 -8 17 -13 24
-10 15 2 -10 0 -18 -6 -18 -20 0 -49 21 -49 35 0 8 -5 15 -10 15 -6 0 -8 -10
-5 -23 4 -15 -1 -32 -14 -49 -16 -20 -18 -27 -7 -31 7 -3 17 -18 20 -33 4 -15
17 -41 29 -58 11 -16 22 -38 22 -48 2 -21 -23 -24 -31 -3 -6 14 -41 31 -57 27
-5 -1 -5 3 -2 9 4 6 -1 23 -12 37 -11 15 -22 35 -26 45 -3 9 -11 17 -17 17
-16 0 -12 -25 10 -53 11 -14 20 -30 20 -35 0 -6 6 -23 14 -39 26 -51 46 -101
46 -115 0 -8 -10 -20 -22 -26 -13 -6 -17 -11 -10 -11 6 -1 12 -9 12 -18 0 -9
7 -24 16 -34 14 -15 13 -20 -4 -48 l-19 -32 -18 43 c-9 24 -20 45 -25 48 -4 3
-11 20 -15 39 -6 28 -4 33 7 28 8 -3 21 -1 29 4 12 7 12 9 -1 10 -8 1 -19 1
-23 0 -5 -1 -11 7 -14 18 -3 11 -12 22 -20 25 -8 3 -12 10 -9 15 8 13 -31 21
-62 12 -31 -9 -55 -4 -46 11 4 6 -3 8 -17 6 -15 -2 -23 -9 -20 -18 2 -8 5 -28
6 -44 1 -17 12 -38 26 -49 21 -17 21 -19 4 -15 -16 2 -20 -2 -18 -24 3 -47
-21 -34 -60 32 -15 25 -27 37 -27 28 0 -21 21 -68 30 -68 11 0 90 -117 90
-133 0 -25 -20 -30 -41 -11 -17 16 -24 13 -20 -10 1 -5 -6 -5 -16 -1 -40 16
-78 9 -91 -17 l-11 -23 -7 23 c-7 23 -26 31 -23 10 1 -7 1 -22 0 -33 -2 -18
-3 -18 -15 4 -8 14 -12 31 -9 38 3 6 -2 22 -11 35 -9 12 -16 17 -16 10 0 -7
-4 -11 -9 -8 -12 8 -5 -33 13 -76 15 -34 14 -37 -5 -62 -11 -14 -24 -26 -29
-26 -4 0 -13 22 -20 50 -6 27 -19 55 -27 61 -13 11 -14 7 -7 -37 12 -78 8
-111 -20 -158 -40 -69 -47 -67 -40 13 5 51 4 71 -5 71 -7 0 -9 -9 -6 -23 3
-12 2 -34 -3 -47 -8 -22 -10 -20 -16 25 -10 65 -85 220 -108 220 -9 0 -20 4
-24 8 -4 4 -2 7 4 7 21 0 13 15 -42 79 -77 91 -115 108 -175 77 -27 -15 -28
-14 -28 16 0 17 -7 36 -16 43 -20 14 -22 41 -5 51 6 4 23 -6 40 -25 l29 -33
97 33 c53 19 99 35 101 36 2 2 -3 11 -12 21 -10 10 -17 27 -17 38 -1 17 -2 17
-13 4 -7 -9 -17 -15 -24 -15 -19 0 -27 14 -15 28 6 7 14 36 18 64 6 48 8 51
33 49 15 -1 25 -8 23 -15 -1 -7 4 -23 12 -36 8 -12 11 -26 6 -31 -4 -5 -11
-23 -15 -41 -6 -29 -4 -33 18 -39 38 -9 61 -1 72 24 5 12 17 25 27 27 23 8 43
42 62 105 9 30 25 63 35 74 24 25 28 94 12 181 -17 93 -14 141 14 199 24 50
24 54 9 85 -15 30 -15 50 -2 161 2 14 -1 26 -7 28 -9 2 -17 -42 -29 -171 -3
-27 -9 -54 -14 -60 -5 -7 -12 -25 -15 -42 -19 -94 -27 -145 -32 -187 -4 -34
-11 -48 -21 -48 -11 0 -13 -6 -9 -20 5 -14 2 -20 -9 -20 -9 0 -16 -3 -16 -7 0
-5 -16 -19 -35 -32 -38 -26 -38 -46 0 -31 16 6 25 6 25 0 0 -9 -14 -14 -32
-11 -5 0 -8 -4 -8 -9 0 -6 -14 -25 -32 -43 -30 -30 -31 -30 -15 -4 16 24 16
28 2 33 -14 6 -14 8 -1 18 13 9 13 19 4 60 -6 28 -16 56 -23 62 -9 9 -13 47
-12 119 0 71 -4 109 -11 114 -15 9 -8 168 13 316 15 103 35 345 34 399 -1 58
-17 -6 -29 -116 -18 -163 -51 -371 -63 -393 -6 -11 -12 -56 -14 -100 -3 -122
-7 -147 -26 -182 -24 -45 -31 -41 -23 12 5 30 4 45 -4 45 -12 0 -22 -22 -24
-53 -1 -24 -26 -36 -26 -13 0 19 -16 21 -26 5 -4 -7 -8 -50 -9 -98 -2 -47 -6
-94 -10 -103 -4 -10 -3 -18 3 -18 5 0 7 -11 5 -24 -6 -32 27 -52 58 -35 15 8
24 8 32 0 8 -8 5 -11 -11 -11 -12 0 -31 -9 -41 -19 -17 -17 -21 -18 -32 -5 -6
8 -8 14 -5 14 4 0 0 7 -8 16 -9 8 -14 20 -11 25 4 5 -1 9 -9 9 -9 0 -16 5 -17
10 -3 32 -1 59 6 90 5 19 8 43 6 53 -1 9 1 17 6 17 12 0 7 84 -6 88 -6 2 -12
-3 -12 -12 -3 -29 -4 -34 -11 -42 -13 -12 -9 13 8 55 12 30 13 44 4 60 -6 12
-15 21 -19 21 -16 0 -22 32 -9 47 9 11 9 16 -3 24 -30 19 -56 -2 -43 -36 4 -9
-1 -18 -11 -21 -9 -4 -14 -12 -11 -19 3 -9 -2 -11 -15 -8 -11 3 -17 8 -14 11
2 3 0 11 -5 17 -15 18 -2 44 19 38 11 -3 21 4 29 22 16 36 15 49 -7 69 -17 15
-20 15 -34 1 -24 -24 -47 -19 -47 11 0 14 -4 23 -9 20 -12 -8 -27 12 -44 59
-24 66 -37 162 -41 315 -3 80 -8 188 -12 241 -8 108 1 139 41 139 13 0 27 -5
31 -11 4 -7 9 -76 11 -155 4 -131 -4 -241 -25 -365 -10 -55 0 -89 26 -89 19 0
94 33 123 54 8 6 0 -4 -20 -22 -19 -18 -52 -37 -73 -44 -21 -6 -38 -18 -38
-25 0 -12 2 -12 14 0 8 8 33 17 56 21 23 4 54 13 69 21 77 42 171 165 229 300
3 6 -5 0 -17 -12 -19 -20 -63 -86 -121 -181 -24 -39 -50 -62 -50 -43 0 5 15
31 34 58 18 26 36 60 40 73 6 23 5 23 -6 7 -7 -10 -21 -28 -30 -39 -18 -21
-18 -21 -18 5 0 15 4 27 8 27 10 0 28 37 47 95 7 22 27 73 44 114 35 83 36 85
19 74 -17 -10 -40 -10 -55 1 -16 11 -17 30 -1 20 6 -4 8 -3 5 4 -4 5 -16 8
-27 5 -28 -7 -22 28 10 62 22 23 25 24 46 10 13 -8 30 -12 38 -9 22 8 21 54
-1 54 -13 0 -12 5 8 26 l24 26 8 -30 c7 -22 4 -40 -13 -76 -22 -50 -23 -89 0
-46 7 14 20 34 30 45 10 11 21 31 26 45 16 45 157 248 176 253 10 3 18 12 18
21 0 9 7 16 15 16 8 0 15 6 15 14 0 28 76 156 93 156 8 0 8 -3 0 -11 -9 -9 -9
-16 0 -30 9 -14 7 -22 -7 -38 -11 -12 -14 -21 -9 -21 6 0 14 7 17 16 3 8 10
13 15 9 5 -3 12 4 16 15 6 20 16 25 28 14 3 -3 -1 -27 -9 -52 -30 -101 -9 -91
51 23 20 39 49 80 63 92 31 26 74 30 92 8z m258 -24 c4 -23 2 -24 -40 -17 -48
8 -66 20 -48 31 7 4 16 1 21 -6 6 -11 9 -10 15 4 10 27 48 18 52 -12z m-418 4
c0 -15 -26 -32 -36 -23 -2 3 -2 13 2 22 8 20 34 21 34 1z m1367 -287 c-3 -8
-6 -5 -6 6 -1 11 2 17 5 13 3 -3 4 -12 1 -19z m0 -55 c-3 -10 -5 -4 -5 12 0
17 2 24 5 18 2 -7 2 -21 0 -30z m-2373 -88 c3 -8 1 -15 -4 -15 -6 0 -10 7 -10
15 0 8 2 15 4 15 2 0 6 -7 10 -15z m32 -85 c0 -3 4 -25 8 -50 7 -47 14 -153
20 -300 4 -108 25 -306 36 -345 5 -16 11 -51 14 -76 3 -26 15 -62 26 -81 24
-41 31 -109 13 -115 -7 -3 -18 8 -24 24 -5 15 -28 63 -50 106 -21 43 -39 85
-39 93 0 8 -3 14 -7 14 -5 0 -8 25 -9 55 0 30 -5 65 -11 77 -25 50 -39 146
-36 238 9 224 12 343 12 380 l0 44 23 -29 c13 -16 23 -32 24 -35z m-170 4 c9
3 12 1 9 -4 -3 -6 -2 -10 3 -10 15 0 32 -88 28 -138 -4 -52 -9 -58 -27 -36
-18 22 -18 86 1 101 8 6 12 14 9 17 -8 8 -69 -48 -69 -63 0 -6 5 -11 11 -11 5
0 8 -4 5 -9 -3 -5 0 -24 8 -42 7 -19 12 -48 9 -65 -4 -25 -9 -31 -24 -27 -13
4 -19 14 -19 34 0 15 -4 31 -10 34 -16 10 -12 38 5 31 9 -3 15 0 15 9 0 9 -10
15 -24 15 -29 0 -49 22 -40 44 7 19 30 21 37 4 3 -8 6 -6 6 4 1 9 -4 28 -10
41 -9 19 -7 31 5 56 15 27 19 30 37 20 11 -6 27 -8 35 -5z m499 -78 c-1 -33 3
-46 13 -46 7 0 10 -5 6 -12 -5 -8 0 -9 15 -5 18 4 21 2 15 -15 -4 -14 -2 -18
5 -14 19 12 12 -30 -8 -48 -11 -10 -22 -28 -25 -41 -3 -13 -15 -27 -26 -30
-11 -3 -20 -13 -20 -21 0 -10 -7 -13 -24 -8 -21 5 -24 1 -29 -28 -3 -18 -1
-37 4 -43 15 -15 10 -25 -12 -25 -16 0 -19 4 -14 21 5 13 3 19 -3 15 -5 -3
-12 1 -16 9 -3 8 -1 17 4 20 5 3 2 21 -6 40 -8 19 -13 49 -12 67 1 18 -2 48
-6 66 -7 31 5 45 19 22 8 -13 25 -13 25 1 0 5 -4 7 -10 4 -6 -4 -10 5 -10 19
0 17 -6 26 -16 26 -10 0 -14 7 -12 23 5 34 54 36 70 3 12 -29 23 -33 35 -13
13 21 12 41 -3 65 -22 34 -5 51 21 20 17 -19 22 -37 20 -72z m-512 -253 c3
-16 2 -32 -3 -37 -11 -11 -31 29 -24 48 9 24 21 19 27 -11z m517 -129 c0 -8
-5 -12 -10 -9 -6 4 -8 11 -5 16 9 14 15 11 15 -7z m-583 -156 c16 -18 33 -41
36 -50 4 -10 14 -18 23 -18 10 0 14 -5 10 -15 -7 -18 10 -66 27 -77 9 -6 9 -8
0 -8 -18 0 -67 45 -83 77 -8 15 -25 45 -37 65 -39 65 -26 79 24 26z m468 -168
c-3 -5 -1 -10 4 -10 6 0 11 -4 11 -8 0 -4 -9 -8 -20 -8 -20 0 -27 16 -13 29
10 11 25 8 18 -3z m-337 -31 c7 -12 11 -24 7 -27 -9 -9 -40 13 -43 32 -5 23
21 20 36 -5z m42 -59 c0 -5 -2 -10 -4 -10 -3 0 -8 5 -11 10 -3 6 -1 10 4 10 6
0 11 -4 11 -10z m400 -30 c0 -5 -4 -10 -10 -10 -5 0 -10 5 -10 10 0 6 5 10 10
10 6 0 10 -4 10 -10z m1944 -167 c51 -21 69 -33 81 -59 21 -44 19 -60 -13
-129 -16 -33 -45 -109 -67 -170 -21 -60 -42 -114 -46 -119 -5 -6 -9 34 -10 90
-1 108 -4 142 -20 192 -20 61 -24 24 -15 -135 l9 -158 -29 -85 c-28 -85 -45
-115 -74 -130 -12 -6 -15 -1 -17 28 -1 21 -5 57 -8 82 -7 62 1 90 25 90 11 0
20 7 20 15 0 8 5 15 10 15 6 0 10 7 10 15 0 8 -6 12 -14 9 -30 -12 -50 12 -52
63 -1 26 2 54 8 61 8 9 4 12 -17 12 -20 0 -26 -4 -21 -15 4 -10 -1 -15 -14
-15 -11 0 -20 3 -20 8 0 7 84 102 91 102 2 0 4 -21 4 -47 0 -42 3 -48 22 -49
12 -1 24 4 26 10 2 6 3 66 2 133 -2 115 -1 123 21 146 20 22 21 26 7 31 -14 6
-14 8 3 21 25 19 24 19 98 -12z m-2055 -63 c14 -32 8 -66 -9 -55 -5 3 -10 19
-10 36 0 16 -4 29 -10 29 -5 0 -10 5 -10 10 0 22 26 8 39 -20z m1896 -65 c-3
-16 -5 -42 -5 -57 0 -35 -11 -36 -27 -1 -11 22 -10 31 1 49 11 15 12 24 4 32
-6 6 -7 19 -4 29 7 17 8 17 22 -2 10 -13 13 -31 9 -50z m-1665 8 c0 -19 -3
-24 -10 -17 -6 6 -8 18 -4 27 9 24 14 21 14 -10z m153 -53 c-7 -28 -13 -25
-13 6 0 14 4 23 9 20 5 -3 7 -15 4 -26z m-343 -16 c0 -8 -4 -12 -10 -9 -5 3
-10 10 -10 16 0 5 5 9 10 9 6 0 10 -7 10 -16z m461 -98 c-22 -31 -36 -43 -47
-39 -11 4 -14 13 -9 32 8 30 23 43 47 37 9 -2 19 3 23 12 3 8 8 12 11 9 3 -3
-8 -26 -25 -51z m-456 -12 c15 -23 15 -24 -7 -20 -13 3 -27 5 -32 5 -4 1 -6 8
-2 16 3 8 -1 21 -9 29 -23 23 -18 28 9 11 14 -9 32 -27 41 -41z m963 -246 c15
-15 16 -58 1 -58 -6 0 -13 9 -16 20 -3 11 -9 20 -14 20 -5 0 -9 7 -9 15 0 18
21 20 38 3z m-2218 -54 c0 -7 8 -19 18 -26 20 -14 35 -55 22 -63 -4 -3 -10 5
-14 18 -5 18 -8 19 -15 7 -5 -8 -7 -19 -4 -25 4 -5 3 -7 -1 -3 -4 3 -8 10 -7
15 0 4 -6 17 -14 29 -12 19 -19 48 -16 66 2 13 31 -4 31 -18z m1435 -36 c-4
-13 -9 -35 -12 -50 -6 -30 -23 -38 -23 -11 0 26 23 83 33 83 5 0 6 -10 2 -22z
m105 -98 c0 -20 -21 -26 -77 -21 -17 1 -23 -4 -23 -19 0 -21 -16 -26 -38 -12
-20 13 22 54 66 62 63 13 72 11 72 -10z m1518 -112 c-6 -18 -28 -21 -28 -4 0
9 7 16 16 16 9 0 14 -5 12 -12z m-1188 -153 c0 -8 -4 -15 -10 -15 -5 0 -10 7
-10 15 0 8 5 15 10 15 6 0 10 -7 10 -15z m-126 -86 c-28 -31 -35 -22 -11 15
14 21 23 28 25 19 2 -8 -4 -23 -14 -34z m-386 -71 c-12 -9 -26 -18 -30 -18
-18 0 -6 31 20 55 l27 25 3 -22 c3 -14 -5 -28 -20 -40z m345 -72 c38 -39 76
-78 85 -86 8 -8 50 -48 93 -88 42 -40 83 -87 90 -105 20 -51 71 -117 89 -117
33 0 41 -24 17 -46 -12 -10 -29 -22 -37 -26 -10 -4 -10 -7 -2 -7 20 -1 13 -41
-12 -64 -13 -12 -27 -38 -31 -57 -9 -43 -22 -60 -46 -60 -13 0 -25 -13 -36
-37 -19 -42 -51 -83 -65 -83 -5 0 -25 -16 -43 -36 -33 -35 -55 -38 -55 -8 0 8
16 22 35 30 46 19 48 57 5 105 -27 31 -30 39 -24 81 5 42 4 47 -18 53 -13 3
-32 10 -43 15 -11 4 -28 11 -37 14 -10 3 -18 13 -18 23 0 10 -9 29 -20 43 -11
14 -20 31 -20 38 0 7 -8 29 -19 50 -21 43 -38 142 -23 142 15 0 1 49 -18 63
-14 11 -40 66 -40 88 0 4 10 9 22 11 32 4 33 28 3 62 -14 16 -25 39 -25 50 0
19 6 21 62 22 l63 1 68 -71z m-2218 54 c3 -5 -1 -10 -9 -10 -9 0 -16 5 -16 10
0 6 4 10 9 10 6 0 13 -4 16 -10z m260 -30 c-3 -5 -13 -10 -21 -10 -8 0 -14 5
-14 10 0 6 9 10 21 10 11 0 17 -4 14 -10z m565 -14 c0 -3 -4 -8 -10 -11 -5 -3
-10 -1 -10 4 0 6 5 11 10 11 6 0 10 -2 10 -4z m1096 -88 c4 -35 14 -71 22 -81
20 -23 27 -117 10 -138 -11 -13 -41 -18 -141 -24 -70 -4 -127 -4 -127 -1 0 3
14 21 31 40 60 68 127 169 156 231 32 72 40 68 49 -27z m-2436 62 c0 -5 -5
-10 -11 -10 -5 0 -7 5 -4 10 3 6 8 10 11 10 2 0 4 -4 4 -10z m1315 -10 c-3 -5
-13 -10 -21 -10 -8 0 -14 5 -14 10 0 6 9 10 21 10 11 0 17 -4 14 -10z m-661
-23 c14 -8 23 -17 19 -20 -7 -8 -53 -10 -53 -3 0 2 -3 11 -6 20 -8 20 5 20 40
3z m-912 -23 c-5 -25 -6 -26 -36 -28 -14 0 -26 -7 -26 -14 0 -9 7 -11 19 -7
23 7 73 -14 64 -27 -3 -6 4 -5 15 1 16 8 21 7 26 -4 4 -11 -2 -15 -25 -15 -17
0 -32 -6 -35 -15 -8 -21 -26 -19 -22 3 2 13 -5 18 -34 20 -36 3 -37 4 -31 35
6 28 4 30 -9 19 -12 -10 -18 -9 -28 3 -28 34 5 52 90 49 28 -1 34 -5 32 -20z
m1624 -12 c-9 -8 -26 10 -26 26 1 15 2 15 15 -2 8 -11 13 -21 11 -24z m-796
17 c0 -5 5 -7 10 -4 6 3 10 1 10 -4 0 -13 -3 -13 -24 -5 -18 7 -22 24 -6 24 6
0 10 -5 10 -11z m783 -61 c-9 -16 -28 -7 -39 17 -9 18 -9 25 -1 28 13 4 47
-34 40 -45z m-1765 12 c11 -17 10 -18 -11 -11 -12 5 -23 16 -25 25 -4 21 19
12 36 -14z m-44 1 c3 -4 3 -11 0 -14 -8 -8 -34 3 -34 14 0 11 27 12 34 0z m26
-61 c-20 -13 -40 -13 -40 0 0 6 12 10 28 10 21 0 24 -2 12 -10z m164 -35 c8
-8 26 -15 40 -15 15 0 26 -6 26 -13 0 -14 -38 -17 -57 -4 -8 5 -13 3 -14 -5 0
-10 -2 -10 -6 0 -2 6 -11 12 -19 12 -8 0 -14 9 -14 20 0 24 22 26 44 5z m884
4 c-2 -6 -8 -10 -13 -10 -5 0 -11 4 -13 10 -2 6 4 11 13 11 9 0 15 -5 13 -11z
m52 1 c0 -5 -7 -10 -16 -10 -8 0 -12 5 -9 10 3 6 10 10 16 10 5 0 9 -4 9 -10z
m-1066 -21 c-27 -11 -34 -10 -34 2 0 5 4 8 9 4 5 -3 12 -1 16 5 4 6 11 7 18 3
7 -4 4 -9 -9 -14z m46 -39 c-20 -13 -47 -13 -55 0 -4 6 9 10 32 10 28 0 34 -3
23 -10z m395 -10 c3 -5 1 -10 -4 -10 -6 0 -11 5 -11 10 0 6 2 10 4 10 3 0 8
-4 11 -10z m40 -20 c-3 -5 -10 -10 -16 -10 -5 0 -9 5 -9 10 0 6 7 10 16 10 8
0 12 -4 9 -10z m-492 -7 c-21 -8 -15 -26 7 -20 11 3 22 2 25 -3 9 -15 -45 -21
-60 -7 -16 16 -2 38 25 36 10 0 11 -2 3 -6z m134 -4 c-14 -8 -22 -8 -30 0 -8
8 -3 11 19 11 25 -1 27 -2 11 -11z m2784 -5 c12 -14 11 -16 -5 -13 -11 2 -21
10 -24 17 -5 17 13 15 29 -4z m-188 -38 c3 3 13 -8 23 -25 12 -20 26 -31 41
-31 14 0 23 -6 23 -15 0 -8 -5 -15 -10 -15 -6 0 -14 -8 -17 -17 -9 -24 -29
-43 -45 -43 -10 0 -9 -3 2 -10 10 -6 11 -10 3 -10 -7 0 -13 -4 -13 -10 0 -5 7
-10 15 -10 12 0 14 -4 6 -17 -5 -10 -5 -26 0 -40 5 -13 6 -23 3 -23 -2 0 0 -9
6 -20 6 -11 17 -20 26 -20 8 0 25 -9 37 -21 12 -11 34 -30 50 -41 26 -18 27
-18 28 -1 4 103 5 133 3 133 -18 0 -54 -27 -54 -40 0 -28 -12 -31 -37 -8 -27
25 -30 50 -8 68 9 7 13 21 10 31 -5 13 -1 17 13 16 11 0 18 -6 16 -12 -3 -6 2
-19 9 -29 16 -22 47 -16 43 8 -3 19 -51 58 -60 48 -4 -3 -4 1 0 11 6 17 64 25
64 9 0 -5 10 -14 23 -20 17 -8 18 -11 5 -11 -17 -1 -22 -41 -5 -41 5 0 7 -7 3
-15 -3 -8 -1 -15 3 -15 13 0 21 27 14 48 -4 12 -1 10 11 -5 10 -13 24 -20 36
-18 11 2 25 -4 32 -14 7 -10 24 -22 38 -26 97 -31 153 -122 103 -168 -20 -17
-131 -52 -140 -43 -4 3 -13 0 -21 -6 -11 -10 -13 -8 -10 12 2 14 -3 25 -12 28
-8 3 -12 1 -8 -3 9 -9 -9 -45 -23 -45 -5 0 -14 12 -20 28 -8 19 -13 23 -17 12
-14 -39 -97 -56 -122 -25 -11 13 -16 10 -41 -22 -17 -20 -39 -43 -50 -51 -30
-21 -110 -40 -149 -35 -51 5 -63 20 -55 67 4 23 6 65 6 94 0 45 2 52 19 52 13
0 20 7 20 18 0 11 9 27 20 37 12 11 20 28 19 39 -1 12 -1 29 0 39 1 23 41 22
48 -2 4 -16 8 -17 29 -7 29 13 31 26 4 33 -23 6 -24 8 -9 34 5 11 15 17 21 13
6 -4 9 -1 6 7 -3 8 -9 14 -14 14 -5 0 -18 6 -29 13 -17 10 -18 13 -6 21 12 8
9 11 -12 16 -15 4 -27 13 -27 21 0 8 -4 14 -10 14 -14 0 -12 13 4 36 11 14 18
16 26 8 12 -12 60 -7 60 7 0 5 11 4 24 -1 13 -5 26 -6 29 -4z m-2687 -47 c3
-5 24 -9 47 -10 42 -1 42 -1 10 -9 -18 -4 -39 -13 -47 -19 -10 -8 -16 -9 -21
-1 -3 5 -15 10 -27 10 -14 0 -18 5 -14 16 3 9 6 19 6 24 0 10 38 1 46 -11z
m2854 -28 c0 -12 -6 -9 -20 9 -26 33 -26 48 0 25 11 -10 20 -25 20 -34z
m-1180 9 c0 -11 -4 -20 -10 -20 -5 0 -10 9 -10 20 0 11 5 20 10 20 6 0 10 -9
10 -20z m865 -10 c-3 -5 -10 -10 -16 -10 -5 0 -9 5 -9 10 0 6 7 10 16 10 8 0
12 -4 9 -10z m-845 -37 c0 -20 -3 -24 -11 -16 -7 7 -9 19 -6 27 10 24 17 19
17 -11z m627 -31 c-20 -21 -37 -45 -37 -55 0 -20 -58 -53 -71 -40 -18 18 7 53
70 98 36 24 67 42 70 40 2 -3 -12 -22 -32 -43z m1233 -43 c11 -39 -5 -91 -43
-144 -30 -42 -57 -58 -57 -34 0 18 -23 4 -26 -15 -3 -24 -53 -76 -72 -76 -25
0 -82 -41 -82 -58 0 -19 -39 -83 -41 -67 -3 27 5 52 22 71 11 11 16 23 13 27
-4 4 35 47 86 97 97 95 144 168 157 244 l6 39 15 -28 c8 -16 18 -41 22 -56z
m-1633 56 c7 -20 -24 -55 -49 -55 -23 0 -23 11 3 44 23 30 37 33 46 11z m613
-24 c0 -21 -63 -67 -69 -50 -2 6 2 16 8 22 6 6 11 19 11 29 0 13 8 18 25 18
18 0 25 -5 25 -19z m-1347 -48 c-6 -16 -25 -13 -31 5 -2 6 6 10 16 9 12 -1 18
-6 15 -14z m37 -14 c0 -5 -7 -9 -15 -9 -15 0 -20 12 -9 23 8 8 24 -1 24 -14z
m734 6 c7 -18 -37 -50 -59 -41 -19 7 -8 35 19 46 30 12 33 12 40 -5z m-1114
-25 c-19 -12 -30 -12 -30 -1 0 10 31 20 40 14 2 -2 -2 -8 -10 -13z m1260 5 c0
-17 -46 -39 -61 -29 -14 9 20 44 43 44 10 0 18 -7 18 -15z m-1840 -75 c0 -5
-5 -10 -11 -10 -5 0 -7 5 -4 10 3 6 8 10 11 10 2 0 4 -4 4 -10z m2215 -30 c-3
-5 -10 -10 -16 -10 -5 0 -9 5 -9 10 0 6 7 10 16 10 8 0 12 -4 9 -10z m-2495
-10 c0 -5 -4 -10 -10 -10 -5 0 -10 5 -10 10 0 6 5 10 10 10 6 0 10 -4 10 -10z
m1447 -25 c8 -9 13 -19 10 -22 -6 -5 -37 21 -37 31 0 10 11 6 27 -9z m-87 -14
c0 -12 -20 -25 -27 -18 -7 7 6 27 18 27 5 0 9 -4 9 -9z m-630 -81 c0 -5 -2
-10 -4 -10 -3 0 -8 5 -11 10 -3 6 -1 10 4 10 6 0 11 -4 11 -10z m1842 -150
c19 -17 18 -18 -17 -24 -46 -9 -69 7 -54 36 12 22 40 17 71 -12z m-1565 -77
c4 -12 -31 -20 -64 -15 -34 5 -28 20 10 25 41 5 50 3 54 -10z m-237 -104 c-11
-8 -12 -12 -2 -16 6 -2 10 -9 6 -14 -7 -12 -45 -11 -64 1 -12 7 -7 12 20 24
41 18 62 20 40 5z m410 7 c0 -3 -4 -8 -10 -11 -5 -3 -10 -1 -10 4 0 6 5 11 10
11 6 0 10 -2 10 -4z m-147 -66 c-9 -11 -19 -17 -21 -15 -6 6 18 35 29 35 5 0
1 -9 -8 -20z m-890 -427 c-7 -2 -19 -2 -25 0 -7 3 -2 5 12 5 14 0 19 -2 13 -5z
m407 -13 c0 -5 -2 -10 -4 -10 -3 0 -8 5 -11 10 -3 6 -1 10 4 10 6 0 11 -4 11
-10z"/>
<path d="M3592 4258 c-49 -133 -92 -292 -73 -273 6 6 21 53 34 105 14 52 34
122 45 155 26 75 21 85 -6 13z"/>
<path d="M3992 4287 c-15 -19 -25 -87 -12 -87 15 0 12 -52 -4 -76 -9 -13 -11
-25 -6 -34 19 -31 28 4 33 120 1 36 6 68 11 71 4 4 4 9 -2 13 -5 3 -14 0 -20
-7z"/>
<path d="M3889 4202 c-25 -37 -52 -85 -59 -107 -7 -22 -35 -80 -61 -130 -98
-182 -241 -474 -237 -485 3 -10 128 201 159 270 9 19 40 85 69 145 61 128 63
131 91 210 22 61 53 105 74 105 7 0 17 11 23 25 15 32 15 35 0 35 -7 0 -34
-31 -59 -68z"/>
<path d="M3786 4153 c-92 -97 -149 -181 -186 -279 -13 -34 7 -31 22 4 7 15 17
34 24 42 7 8 27 42 45 75 33 60 72 116 118 168 37 41 19 33 -23 -10z"/>
<path d="M3955 4000 c-3 -5 -2 -10 4 -10 5 0 13 5 16 10 3 6 2 10 -4 10 -5 0
-13 -4 -16 -10z"/>
<path d="M3187 3903 c-4 -3 -7 -16 -6 -27 0 -19 1 -19 10 3 10 24 8 36 -4 24z"/>
<path d="M3095 3811 c-3 -5 -1 -12 5 -16 5 -3 10 1 10 9 0 18 -6 21 -15 7z"/>
<path d="M3390 3786 c0 -9 5 -16 10 -16 6 0 10 4 10 9 0 6 -4 13 -10 16 -5 3
-10 -1 -10 -9z"/>
<path d="M3402 3749 c3 -8 18 -76 33 -152 26 -126 39 -154 46 -102 2 11 -2 29
-8 40 -5 11 -20 64 -33 118 -12 53 -27 100 -33 104 -6 4 -8 0 -5 -8z"/>
<path d="M3066 3733 c-6 -14 -5 -15 5 -6 7 7 10 15 7 18 -3 3 -9 -2 -12 -12z"/>
<path d="M3538 3680 c-10 -7 -14 -18 -11 -31 6 -21 6 -21 24 2 29 37 23 49
-13 29z"/>
<path d="M3510 3448 c0 -7 -3 -24 -6 -38 -4 -18 -3 -21 4 -10 17 27 24 60 13
60 -6 0 -11 -6 -11 -12z"/>
<path d="M2952 3391 c-8 -23 -9 -38 -2 -45 13 -13 22 14 18 51 l-3 28 -13 -34z"/>
<path d="M2760 3341 l-35 -6 41 -13 c23 -6 53 -12 68 -12 16 0 26 -5 26 -15 0
-19 10 -19 38 1 33 23 27 41 -15 48 -43 7 -73 6 -123 -3z"/>
<path d="M3467 3183 c-4 -3 -7 -11 -7 -17 0 -6 5 -5 12 2 6 6 9 14 7 17 -3 3
-9 2 -12 -2z"/>
<path d="M3135 2581 c-3 -5 -1 -12 5 -16 5 -3 10 1 10 9 0 18 -6 21 -15 7z"/>
<path d="M3555 1160 c-3 -5 -1 -10 4 -10 6 0 11 5 11 10 0 6 -2 10 -4 10 -3 0
-8 -4 -11 -10z"/>
<path d="M2820 1311 c0 -5 5 -13 10 -16 6 -3 10 -2 10 4 0 5 -4 13 -10 16 -5
3 -10 2 -10 -4z"/>
<path d="M2750 1285 c0 -28 3 -30 29 -13 18 11 18 13 3 25 -25 18 -32 16 -32
-12z"/>
<path d="M2765 1210 c3 -5 8 -10 11 -10 2 0 4 5 4 10 0 6 -5 10 -11 10 -5 0
-7 -4 -4 -10z"/>
<path d="M2842 973 c-16 -17 -7 -33 19 -33 22 0 25 16 6 34 -10 11 -15 10 -25
-1z"/>
<path d="M4365 7670 c-3 -5 -3 -20 1 -33 6 -20 5 -20 -10 -8 -16 13 -17 12
-10 -15 4 -16 11 -31 15 -34 11 -8 2 -54 -11 -58 -5 -2 -10 -10 -10 -18 0 -8
-5 -14 -11 -14 -5 0 -7 -5 -4 -10 4 -6 11 -8 16 -5 5 4 9 1 9 -4 0 -6 -4 -11
-9 -11 -5 0 -7 -10 -3 -22 5 -20 4 -21 -11 -9 -14 11 -18 11 -24 -4 -4 -12 0
-23 11 -31 10 -7 15 -17 12 -23 -4 -5 0 -29 8 -53 8 -24 17 -76 20 -117 3 -40
7 -76 10 -79 3 -2 -1 -17 -9 -33 -16 -30 -22 -149 -10 -169 5 -9 4 -11 -3 -6
-16 10 -14 -14 3 -44 14 -25 14 -24 16 20 1 25 3 56 5 70 13 95 24 299 16 304
-8 5 -8 42 1 66 25 73 37 185 23 208 -4 6 -2 20 3 31 6 11 10 39 8 63 -2 35
-7 44 -24 46 -12 2 -24 -2 -28 -8z"/>
<path d="M1835 7661 c-10 -17 12 -21 25 -6 10 12 10 15 -3 15 -9 0 -18 -4 -22
-9z"/>
<path d="M3485 7660 c-3 -5 -1 -10 4 -10 6 0 11 5 11 10 0 6 -2 10 -4 10 -3 0
-8 -4 -11 -10z"/>
<path d="M4300 7660 c0 -13 20 -13 40 0 12 8 9 10 -12 10 -16 0 -28 -4 -28
-10z"/>
<path d="M5096 7653 c-3 -10 -8 -35 -10 -55 -11 -85 -18 -107 -37 -113 -24 -8
-24 -25 1 -68 22 -38 18 -63 -11 -72 -10 -4 -19 -10 -19 -14 0 -5 -18 -11 -41
-14 -43 -6 -62 -17 -41 -24 19 -7 14 -37 -8 -51 -11 -7 -29 -26 -39 -43 -10
-17 -23 -30 -27 -29 -5 0 -10 -8 -12 -20 -3 -18 -1 -19 24 -9 16 5 39 7 51 4
17 -4 25 0 30 12 3 10 12 26 20 35 11 12 12 21 4 37 -14 25 -14 31 0 31 6 0
19 -10 30 -22 24 -30 27 -174 3 -219 -8 -17 -14 -42 -12 -57 4 -25 7 -22 31
28 15 30 27 67 27 81 0 14 9 63 21 109 11 47 21 126 23 184 2 55 7 147 11 204
6 71 5 102 -3 102 -6 0 -13 -8 -16 -17z"/>
<path d="M4277 7633 c-12 -11 -8 -30 7 -30 8 0 11 8 8 19 -5 20 -6 21 -15 11z"/>
<path d="M4316 7597 c-16 -12 -16 -14 -2 -26 9 -8 16 -12 17 -10 2 10 6 49 4
49 -1 0 -9 -6 -19 -13z"/>
<path d="M4468 7424 c-5 -4 -8 -30 -7 -58 0 -44 2 -48 10 -26 11 27 8 96 -3
84z"/>
<path d="M4620 7080 c0 -15 7 -20 25 -20 18 0 25 5 25 20 0 15 -7 20 -25 20
-18 0 -25 -5 -25 -20z"/>
<path d="M1585 6990 c3 -5 8 -10 11 -10 2 0 4 5 4 10 0 6 -5 10 -11 10 -5 0
-7 -4 -4 -10z"/>
<path d="M1676 6968 c-11 -10 -25 -18 -33 -18 -18 0 -16 -9 10 -50 19 -30 27
-35 55 -32 37 4 37 2 17 49 -10 23 -12 39 -6 43 6 3 3 10 -7 16 -13 8 -22 7
-36 -8z"/>
<path d="M5013 6893 c-10 -3 -10 -10 -2 -25 9 -17 13 -18 20 -7 19 29 10 44
-18 32z"/>
<path d="M5010 6696 c0 -14 -4 -28 -10 -31 -13 -8 -13 -85 -1 -85 10 0 16 24
26 98 4 26 2 42 -5 42 -5 0 -10 -11 -10 -24z"/>
<path d="M4332 6620 c0 -19 2 -27 5 -17 2 9 2 25 0 35 -3 9 -5 1 -5 -18z"/>
<path d="M4967 6466 c-4 -9 -2 -18 3 -21 11 -7 7 -76 -5 -95 -5 -8 -1 -11 11
-8 16 3 19 13 19 67 0 62 -15 91 -28 57z"/>
<path d="M4320 6405 c0 -14 4 -25 9 -25 4 0 6 11 3 25 -2 14 -6 25 -8 25 -2 0
-4 -11 -4 -25z"/>
<path d="M4312 6348 c2 -13 8 -23 13 -23 6 0 11 10 13 23 2 15 -2 22 -13 22
-11 0 -15 -7 -13 -22z"/>
<path d="M4379 6313 c-5 -150 -5 -148 19 -145 16 2 25 -4 32 -23 9 -24 10 -25
28 -8 18 18 19 43 1 43 -5 0 -9 5 -9 12 0 6 -8 20 -17 30 -10 11 -20 40 -23
65 -6 52 -29 72 -31 26z"/>
<path d="M4982 6220 c0 -19 2 -27 5 -17 2 9 2 25 0 35 -3 9 -5 1 -5 -18z"/>
<path d="M2794 6217 c3 -10 6 -25 6 -33 0 -8 5 -14 11 -14 12 0 2 40 -14 55
-7 7 -8 4 -3 -8z"/>
<path d="M2353 6200 c-22 -17 -33 -48 -14 -36 13 9 32 -19 25 -38 -4 -11 -1
-16 10 -16 13 0 12 -6 -6 -37 l-22 -36 22 -15 c12 -8 22 -21 22 -28 0 -8 5
-14 11 -14 5 0 8 -4 5 -9 -3 -5 5 -8 19 -7 15 0 23 6 21 13 -3 6 -1 27 4 45
13 43 4 67 -28 80 -22 9 -23 12 -9 15 9 3 17 6 17 8 0 13 -25 55 -32 55 -5 0
-12 9 -16 19 -7 19 -8 19 -29 1z"/>
<path d="M4321 6204 c0 -11 3 -14 6 -6 3 7 2 16 -1 19 -3 4 -6 -2 -5 -13z"/>
<path d="M2730 6154 c0 -14 -3 -14 -15 -4 -9 7 -18 10 -22 6 -8 -8 -3 -12 23
-20 23 -7 42 18 24 29 -6 4 -10 -1 -10 -11z"/>
<path d="M4387 6121 c3 -12 11 -17 24 -14 16 4 16 7 4 19 -19 20 -34 17 -28
-5z"/>
<path d="M2695 6100 c-3 -5 -1 -10 4 -10 6 0 11 5 11 10 0 6 -2 10 -4 10 -3 0
-8 -4 -11 -10z"/>
<path d="M4965 6090 c3 -5 8 -10 11 -10 2 0 4 5 4 10 0 6 -5 10 -11 10 -5 0
-7 -4 -4 -10z"/>
<path d="M4380 6050 c0 -5 5 -10 11 -10 5 0 7 5 4 10 -3 6 -8 10 -11 10 -2 0
-4 -4 -4 -10z"/>
<path d="M4949 5985 c-2 -82 -4 -94 -23 -156 -20 -65 -41 -362 -28 -384 3 -5
6 -19 7 -29 0 -11 6 -21 13 -23 9 -4 12 15 12 74 0 43 5 94 10 113 6 19 13 78
16 130 3 52 9 142 13 200 7 85 6 108 -5 120 -12 12 -14 6 -15 -45z"/>
<path d="M2628 5981 c12 -10 22 -24 22 -30 0 -7 5 -9 10 -6 18 11 11 32 -15
43 -37 17 -41 15 -17 -7z"/>
<path d="M2550 5980 c0 -5 5 -10 10 -10 6 0 10 5 10 10 0 6 -4 10 -10 10 -5 0
-10 -4 -10 -10z"/>
<path d="M2540 5891 c0 -6 5 -13 10 -16 6 -3 10 1 10 9 0 9 -4 16 -10 16 -5 0
-10 -4 -10 -9z"/>
<path d="M2229 5751 c-13 -12 -14 -22 -7 -41 9 -23 10 -24 23 -7 7 10 17 17
21 16 19 -3 34 2 34 11 0 6 -6 10 -14 10 -8 0 -21 6 -28 13 -11 11 -16 11 -29
-2z"/>
<path d="M2196 5711 c-4 -7 -5 -15 -2 -18 9 -9 19 4 14 18 -4 11 -6 11 -12 0z"/>
<path d="M2122 5673 c10 -2 15 -10 11 -19 -3 -8 1 -14 11 -14 9 0 16 4 16 8 0
14 -23 32 -39 31 -13 -1 -13 -2 1 -6z"/>
<path d="M1481 5584 c0 -11 3 -14 6 -6 3 7 2 16 -1 19 -3 4 -6 -2 -5 -13z"/>
<path d="M1390 5420 c0 -5 5 -10 10 -10 6 0 10 5 10 10 0 6 -4 10 -10 10 -5 0
-10 -4 -10 -10z"/>
<path d="M4330 5371 c0 -6 4 -13 10 -16 6 -3 7 1 4 9 -7 18 -14 21 -14 7z"/>
<path d="M2320 5240 c-14 -14 -20 -33 -20 -65 0 -42 16 -95 29 -95 14 0 28 48
18 65 -9 17 -5 63 8 98 10 23 -10 22 -35 -3z"/>
<path d="M4840 5250 c0 -5 5 -10 10 -10 6 0 10 5 10 10 0 6 -4 10 -10 10 -5 0
-10 -4 -10 -10z"/>
<path d="M4321 5174 c-6 -21 -11 -50 -11 -64 l1 -25 19 24 c21 24 26 66 11 90
-7 11 -12 4 -20 -25z"/>
<path d="M1090 5126 c0 -2 9 -6 20 -9 11 -3 20 -1 20 4 0 5 -9 9 -20 9 -11 0
-20 -2 -20 -4z"/>
<path d="M1336 5123 c-3 -3 5 -14 18 -24 27 -21 36 -24 36 -10 0 12 -46 41
-54 34z"/>
<path d="M2297 5035 c20 -27 33 -32 33 -12 0 8 -11 19 -25 25 l-26 12 18 -25z"/>
<path d="M1241 5024 c0 -11 3 -14 6 -6 3 7 2 16 -1 19 -3 4 -6 -2 -5 -13z"/>
<path d="M2732 5020 c-12 -5 -28 -22 -34 -37 -7 -15 -17 -31 -22 -34 -21 -15
35 -19 64 -4 16 8 30 13 30 10 0 -3 12 1 28 8 15 8 32 12 39 10 6 -2 14 1 18
6 3 6 -2 11 -13 11 -26 0 -34 11 -21 27 9 10 4 13 -27 12 -22 0 -49 -4 -62 -9z"/>
<path d="M2506 4995 c-23 -17 -40 -20 -31 -5 9 15 0 12 -45 -11 -58 -31 -60
-42 -6 -34 31 5 46 4 46 -4 0 -14 37 -14 46 0 4 6 20 8 39 5 19 -4 36 -2 40 4
3 5 -1 10 -9 10 -9 0 -16 7 -16 15 0 8 -9 19 -19 25 -24 12 -22 13 -45 -5z m2
-36 c-2 -6 -8 -10 -13 -10 -5 0 -11 4 -13 10 -2 6 4 11 13 11 9 0 15 -5 13
-11z"/>
<path d="M2873 4965 c0 -17 13 -20 22 -5 3 5 13 6 22 3 11 -4 14 -3 9 5 -11
18 -53 15 -53 -3z"/>
<path d="M1051 4941 c-17 -31 -1 -44 27 -21 13 11 18 21 12 25 -5 3 -10 0 -11
-7 0 -7 -4 -4 -8 7 -8 19 -8 19 -20 -4z"/>
<path d="M580 4850 c0 -5 5 -10 11 -10 5 0 7 5 4 10 -3 6 -8 10 -11 10 -2 0
-4 -4 -4 -10z"/>
<path d="M2296 4748 c-9 -29 -21 -68 -27 -87 -10 -30 -9 -36 13 -57 19 -20 30
-23 56 -18 28 6 32 10 32 38 -1 29 -41 160 -53 172 -3 3 -12 -19 -21 -48z"/>
<path d="M2675 4639 c-34 -17 -36 -19 -10 -13 17 3 43 8 60 10 40 5 53 21 18
22 -15 0 -46 -8 -68 -19z"/>
<path d="M2726 4568 c3 -18 14 -43 22 -57 l16 -23 -41 6 c-26 5 -43 3 -48 -3
-6 -11 6 -15 32 -12 6 1 14 -3 18 -9 11 -18 45 -11 45 10 0 10 6 23 13 27 16
10 55 58 41 50 -7 -4 -17 0 -24 8 -7 8 -21 15 -31 15 -10 0 -21 5 -24 10 -14
23 -26 9 -19 -22z"/>
<path d="M2150 4019 c0 -5 5 -7 10 -4 6 3 10 8 10 11 0 2 -4 4 -10 4 -5 0 -10
-5 -10 -11z"/>
<path d="M636 3871 c-3 -5 0 -14 8 -20 10 -8 16 -8 25 2 6 8 8 17 4 20 -9 10
-31 9 -37 -2z"/>
<path d="M1380 3745 c12 -15 30 -12 30 6 0 5 -10 9 -21 9 -18 0 -19 -2 -9 -15z"/>
<path d="M1401 3716 c-10 -11 -19 -12 -42 -4 -32 11 -59 -2 -59 -29 0 -23 -51
-63 -80 -63 -14 0 -35 7 -46 15 -22 17 -70 20 -79 4 -4 -6 -14 -8 -22 -4 -10
3 -22 -3 -30 -15 -8 -11 -18 -18 -23 -15 -5 3 -14 -1 -22 -8 -14 -14 -88 -18
-88 -4 0 4 5 7 10 7 6 0 10 5 10 11 0 7 -10 9 -25 7 -14 -3 -28 -1 -31 3 -9
15 -22 10 -26 -8 -3 -15 -4 -15 -21 1 -13 13 -15 22 -7 31 7 9 8 15 1 19 -6 4
-8 13 -4 21 3 10 1 13 -9 10 -10 -4 -13 -17 -10 -42 3 -23 1 -33 -6 -29 -6 3
-14 2 -17 -4 -4 -7 -11 -8 -18 -2 -17 14 -60 -4 -51 -20 6 -10 4 -11 -7 0 -19
18 -26 15 -24 -10 2 -22 25 -39 25 -18 0 6 4 8 10 5 8 -5 3 -63 -6 -74 -2 -2
-15 7 -28 22 -17 19 -27 22 -35 14 -8 -8 -11 -6 -12 8 0 11 -3 15 -5 10 -2 -6
5 -28 16 -50 18 -34 18 -40 5 -43 -8 -2 -15 -8 -15 -14 0 -6 10 -4 23 5 20 13
26 13 42 1 10 -8 15 -14 11 -14 -5 0 -3 -6 3 -14 9 -11 5 -24 -19 -59 -16 -25
-30 -49 -30 -55 0 -5 -7 -15 -15 -22 -8 -7 -15 -19 -15 -27 0 -8 -8 -27 -19
-41 -10 -15 -22 -47 -26 -71 -7 -41 -9 -43 -35 -37 -16 3 -30 1 -32 -5 -2 -5
-20 -12 -42 -14 -21 -3 -43 -8 -50 -13 -6 -4 -37 -12 -68 -18 -45 -8 -58 -8
-58 2 0 6 -11 11 -25 10 -14 0 -25 -4 -25 -7 0 -10 -65 3 -72 15 -5 8 -13 8
-27 -1 -23 -14 -35 -5 -20 14 16 19 -1 16 -24 -4 -11 -10 -17 -13 -14 -7 4 7
0 14 -8 17 -9 4 -12 1 -8 -9 4 -10 0 -12 -11 -8 -28 11 -13 44 19 41 14 -1 19
3 17 15 -2 14 2 15 29 8 17 -5 37 -14 44 -20 10 -8 16 -7 22 5 9 15 140 53
213 61 19 2 47 6 63 9 19 3 27 0 27 -10 0 -8 6 -15 14 -15 17 0 27 44 30 140
1 41 6 85 10 98 10 29 -2 29 -13 0 -7 -20 -9 -18 -15 15 -4 20 -11 37 -16 37
-5 0 -10 17 -12 38 -3 34 -5 37 -32 35 -19 -1 -38 -13 -52 -30 -13 -15 -23
-22 -24 -15 0 6 -7 12 -16 12 -8 0 -12 -5 -9 -10 4 -6 1 -17 -5 -25 -7 -8 -13
-29 -14 -46 -1 -26 -7 -33 -38 -44 -21 -7 -40 -10 -43 -6 -3 3 -10 -1 -15 -9
-8 -13 -10 -12 -10 2 0 14 -37 36 -49 29 -2 -2 -12 10 -22 26 -10 15 -19 24
-19 19 0 -6 -6 -4 -13 3 -10 10 -9 14 5 22 10 6 18 15 18 21 0 6 -6 5 -16 -3
-13 -10 -17 -10 -25 2 -7 10 -8 7 -4 -11 3 -14 1 -31 -4 -39 -8 -13 -12 -13
-28 0 -17 13 -17 13 -3 -5 11 -15 12 -20 3 -23 -7 -3 -13 -11 -13 -19 0 -18
-8 -18 -27 1 -14 14 -17 14 -30 -5 -21 -30 -17 -257 6 -284 9 -11 11 -16 5
-13 -18 10 -22 -12 -20 -109 1 -81 3 -89 21 -90 11 -1 32 -2 48 -3 17 0 27 -7
27 -16 0 -20 17 -19 28 2 6 9 16 14 25 10 9 -3 17 -1 19 5 2 6 28 12 57 14 29
3 57 7 62 10 5 3 12 -2 15 -11 6 -14 9 -14 28 -1 19 12 24 12 41 -1 19 -15 19
-15 -2 -8 -19 5 -23 2 -23 -14 0 -23 -12 -26 -41 -11 -15 8 -19 7 -19 -4 0
-20 17 -29 23 -14 4 10 6 10 6 1 1 -7 10 -13 20 -13 11 0 21 6 24 13 3 8 10 5
23 -9 18 -20 23 -21 57 -9 21 7 37 9 37 3 0 -5 4 -6 10 -3 17 10 87 -14 87
-30 0 -8 -9 -15 -19 -15 -11 0 -29 -6 -41 -12 -39 -22 -104 -35 -113 -24 -5 6
-8 9 -7 7 2 -2 -12 -15 -29 -28 -24 -17 -34 -20 -40 -10 -6 9 -8 9 -8 0 0 -7
-7 -10 -15 -6 -9 3 -15 2 -14 -3 1 -5 1 -16 0 -24 -1 -12 -5 -11 -16 4 -13 17
-15 18 -15 3 0 -9 -6 -17 -12 -17 -10 0 -10 -2 0 -9 10 -6 7 -12 -12 -25 -23
-15 -26 -15 -26 -1 0 12 -6 15 -21 10 -18 -6 -20 -4 -14 14 5 16 3 20 -10 15
-9 -4 -19 -19 -22 -35 -7 -35 -23 -38 -23 -5 0 19 -4 22 -24 19 -15 -3 -25 1
-30 12 -8 22 2 38 21 31 10 -4 13 0 11 12 -2 10 -14 18 -31 20 -36 4 -66 -31
-67 -78 0 -42 6 -52 43 -67 15 -7 27 -17 27 -22 0 -5 13 -8 30 -6 16 2 30 1
30 -3 0 -4 11 -19 24 -34 25 -30 46 -36 46 -15 0 8 3 8 8 2 4 -6 27 -11 51
-12 31 0 48 -6 58 -19 7 -10 13 -14 13 -10 0 5 6 3 14 -3 10 -9 15 -8 20 4 3
8 10 15 16 15 6 0 8 -5 4 -11 -5 -9 1 -10 20 -5 18 4 25 3 21 -4 -3 -5 3 -10
14 -10 11 0 22 -4 26 -10 4 -6 15 -6 32 1 23 8 25 7 20 -11 -4 -15 0 -20 14
-20 11 0 22 -7 25 -15 4 -8 10 -12 15 -9 17 10 31 -7 18 -22 -19 -23 15 -66
50 -62 16 1 36 -4 45 -11 9 -8 20 -11 23 -7 4 4 1 12 -7 17 -11 8 -9 9 8 4 13
-4 29 -2 35 4 7 5 26 9 42 9 17 -1 37 1 45 4 57 20 98 24 118 10 12 -8 22 -21
22 -28 0 -20 44 -17 90 6 22 11 48 20 58 20 14 0 23 13 34 53 55 186 76 250
134 405 35 95 64 178 64 185 0 6 13 39 29 72 17 33 66 136 110 229 l80 170
-25 33 c-17 23 -24 43 -22 67 1 24 -5 43 -19 58 -11 13 -27 37 -34 53 -9 18
-23 31 -37 33 -12 2 -22 8 -22 14 0 5 7 7 16 4 8 -3 12 -2 9 4 -9 14 -21 12
-34 -4z m-661 -240 c0 -11 -19 -15 -25 -6 -3 5 1 10 9 10 9 0 16 -2 16 -4z
m-365 -16 c3 -5 1 -10 -4 -10 -6 0 -11 5 -11 10 0 6 2 10 4 10 3 0 8 -4 11
-10z m375 -30 c-6 -11 -13 -20 -15 -20 -3 0 -5 9 -5 20 0 11 7 20 15 20 13 0
14 -4 5 -20z m325 -154 c59 -15 134 -55 148 -78 8 -11 4 -22 -14 -41 -30 -32
-60 -43 -123 -46 -28 -1 -53 -4 -58 -7 -15 -10 -88 36 -88 55 0 11 -4 21 -10
23 -5 2 -11 19 -13 38 -3 32 0 37 32 52 45 21 63 21 126 4z m-680 -546 c3 -5
1 -10 -4 -10 -6 0 -11 5 -11 10 0 6 2 10 4 10 3 0 8 -4 11 -10z m-215 -100 c0
-5 -2 -10 -4 -10 -3 0 -8 5 -11 10 -3 6 -1 10 4 10 6 0 11 -4 11 -10z m1 -61
c-13 -11 -26 -17 -28 -15 -8 8 21 35 37 35 10 0 8 -6 -9 -20z m63 -31 c-3 -4
-9 -8 -15 -8 -5 0 -9 4 -9 8 0 5 7 9 15 9 8 0 12 -4 9 -9z"/>
<path d="M857 3667 c-3 -7 4 -19 15 -26 18 -11 18 -10 7 11 -16 31 -16 31 -22
15z"/>
<path d="M2196 3641 c-10 -11 -16 -26 -14 -33 3 -8 11 -2 23 15 21 33 15 45
-9 18z"/>
<path d="M625 3610 c-3 -4 1 -11 7 -13 10 -4 10 -6 1 -6 -20 -1 -15 -18 7 -24
16 -4 19 0 18 19 -2 24 -23 40 -33 24z"/>
<path d="M1765 3526 c-29 -14 -27 -14 45 -15 45 -1 70 3 65 8 -18 18 -79 21
-110 7z"/>
<path d="M680 3419 c0 -11 4 -18 10 -14 5 3 7 12 3 20 -7 21 -13 19 -13 -6z"/>
<path d="M642 3415 c-11 -13 -9 -15 8 -15 11 0 20 7 20 15 0 19 -11 19 -28 0z"/>
<path d="M2147 3066 c-4 -9 -2 -16 4 -16 5 0 14 -10 19 -22 5 -13 9 -16 9 -8
0 8 -6 26 -13 39 -11 19 -14 21 -19 7z"/>
<path d="M2108 3022 c-15 -3 -11 -12 22 -51 22 -26 40 -51 40 -56 0 -11 63
-105 115 -171 22 -28 65 -86 95 -129 64 -91 111 -147 117 -142 2 3 -24 58 -57
123 -56 109 -87 153 -107 154 -8 1 -57 66 -80 107 -7 12 -21 24 -31 27 -9 3
-26 23 -37 43 -11 20 -27 44 -36 52 -9 9 -18 23 -20 31 -2 9 -12 14 -21 12z"/>
<path d="M1432 2813 c-10 -17 4 -63 19 -63 13 0 18 30 9 55 -11 29 -16 31 -28
8z"/>
<path d="M535 2810 c3 -5 11 -10 16 -10 6 0 7 5 4 10 -3 6 -11 10 -16 10 -6 0
-7 -4 -4 -10z"/>
<path d="M1417 2562 c-8 -65 -22 -92 -48 -92 -16 0 -19 -4 -14 -17 16 -40 17
-57 4 -67 -21 -16 -21 -30 0 -80 11 -24 17 -53 14 -64 -2 -11 0 -22 5 -26 5
-3 12 16 16 42 3 26 15 83 25 127 28 115 34 188 17 210 -11 16 -14 12 -19 -33z"/>
<path d="M115 2500 c3 -5 11 -10 16 -10 6 0 7 5 4 10 -3 6 -11 10 -16 10 -6 0
-7 -4 -4 -10z"/>
<path d="M250 2460 c0 -5 5 -10 10 -10 6 0 10 5 10 10 0 6 -4 10 -10 10 -5 0
-10 -4 -10 -10z"/>
<path d="M5280 2455 c0 -9 6 -12 15 -9 8 4 15 1 15 -5 0 -6 7 -11 15 -11 8 0
15 7 15 15 0 9 -6 12 -15 9 -8 -4 -15 -1 -15 5 0 6 -7 11 -15 11 -8 0 -15 -7
-15 -15z"/>
<path d="M402 2429 c-10 -15 -8 -20 9 -30 12 -6 19 -7 15 -1 -3 5 1 12 9 16
21 8 19 23 -3 28 -11 3 -23 -2 -30 -13z"/>
<path d="M2578 2425 c-34 -29 -34 -35 -4 -64 l25 -23 6 38 c4 22 9 47 12 57 6
23 -7 21 -39 -8z"/>
<path d="M2730 2425 c0 -18 19 -40 26 -32 4 4 0 15 -9 24 -9 10 -17 13 -17 8z"/>
<path d="M5297 2404 c-13 -13 -7 -24 14 -24 11 0 19 5 17 12 -5 14 -22 21 -31
12z"/>
<path d="M10 2390 c0 -5 4 -10 9 -10 6 0 13 5 16 10 3 6 -1 10 -9 10 -9 0 -16
-4 -16 -10z"/>
<path d="M359 2373 c-11 -76 2 -90 42 -45 30 33 40 29 47 -15 2 -16 -2 -23
-13 -23 -14 0 -12 -5 7 -29 20 -25 24 -26 33 -11 24 41 53 68 75 72 22 3 23 4
7 20 -12 12 -30 16 -62 13 -30 -2 -45 1 -45 10 0 13 -89 21 -91 8z"/>
<path d="M1195 2312 c-3 -3 -5 -14 -5 -24 0 -15 6 -19 27 -16 37 4 43 34 9 40
-14 3 -28 3 -31 0z"/>
<path d="M4907 2286 c-4 -10 -5 -21 -2 -24 9 -9 17 6 13 25 -3 17 -4 17 -11
-1z"/>
<path d="M76 2244 c-8 -21 -3 -26 17 -18 9 3 13 12 10 20 -7 19 -19 18 -27 -2z"/>
<path d="M1085 2248 c-16 -4 -55 -11 -85 -14 -30 -3 -68 -12 -85 -19 -29 -13
-29 -14 -7 -21 26 -7 25 -23 -3 -38 -43 -25 -56 -43 -49 -70 5 -23 3 -26 -20
-27 -44 -2 -47 -3 -60 -21 -7 -10 -16 -18 -19 -18 -3 0 -17 -4 -32 -10 -22 -8
-24 -13 -15 -30 6 -11 14 -19 18 -19 34 5 44 -2 38 -27 -6 -21 -4 -25 8 -21 9
4 24 3 33 0 15 -6 14 -7 -3 -14 -17 -6 -18 -7 -1 -13 9 -3 25 -9 35 -13 9 -4
24 -7 32 -9 40 -5 99 -26 102 -36 5 -15 48 8 48 26 0 17 54 43 120 59 37 9 50
16 50 29 0 10 -4 18 -10 18 -5 0 -10 9 -10 19 0 11 -5 32 -10 46 -8 21 -13 25
-24 16 -7 -6 -16 -8 -19 -4 -4 3 -7 1 -7 -5 0 -7 -9 -12 -21 -12 -28 0 -22 42
9 55 12 5 22 15 22 22 0 6 5 13 12 15 19 7 1 38 -22 38 -11 0 -20 -4 -20 -9 0
-6 -21 -11 -47 -13 -42 -3 -48 -6 -47 -25 0 -13 -3 -23 -8 -23 -4 0 -8 5 -8
10 0 6 -5 10 -11 10 -5 0 -8 -4 -4 -9 3 -5 0 -13 -5 -16 -8 -5 -9 4 -5 29 6
29 4 36 -9 36 -9 0 -16 4 -16 8 0 16 23 30 38 25 11 -5 13 -3 7 7 -6 10 0 12
24 8 18 -3 34 -1 37 4 3 4 25 8 50 8 40 0 44 2 44 24 0 31 -8 35 -45 24z"/>
<path d="M180 2209 c0 -27 18 -28 53 -4 17 12 15 13 -17 13 -20 0 -36 -4 -36
-9z"/>
<path d="M338 2208 c7 -7 12 -20 12 -30 0 -24 36 -23 50 1 11 21 -2 37 -20 26
-5 -3 -10 -1 -10 4 0 6 -10 11 -22 11 -17 0 -19 -3 -10 -12z"/>
<path d="M420 2186 c0 -18 5 -24 20 -23 11 1 22 8 25 16 6 16 6 17 -22 25 -20
6 -23 4 -23 -18z"/>
<path d="M13 2172 c-8 -5 -12 -47 -12 -130 l-1 -123 65 5 c36 2 73 10 81 17 8
7 14 8 13 3 -4 -21 2 -34 16 -34 8 0 15 6 15 13 0 9 2 9 8 0 4 -6 20 -15 35
-18 15 -4 27 -10 27 -14 0 -3 16 -7 36 -8 30 -1 34 1 28 15 -3 9 -7 26 -8 37
-1 26 -32 34 -75 19 -26 -9 -39 -9 -53 0 -22 13 -24 44 -3 52 17 7 21 34 5 34
-5 0 -10 8 -10 18 0 20 -45 46 -61 37 -18 -12 -9 19 12 42 17 17 19 24 8 27
-29 10 -115 15 -126 8z"/>
<path d="M613 2173 c-7 -3 -13 -11 -13 -19 0 -9 -4 -12 -10 -9 -5 3 -7 0 -4
-8 3 -8 1 -18 -5 -22 -6 -3 -14 1 -17 10 -5 11 -9 13 -14 5 -5 -7 -14 -8 -32
-1 -25 9 -38 6 -38 -10 0 -16 83 -32 102 -20 10 6 27 11 37 11 11 0 23 5 26
10 11 17 72 12 79 -7 5 -12 10 -13 18 -5 13 13 -6 42 -27 42 -7 0 -18 6 -24
13 -11 14 -54 19 -78 10z"/>
<path d="M1365 2170 c-3 -5 -1 -10 4 -10 6 0 11 5 11 10 0 6 -2 10 -4 10 -3 0
-8 -4 -11 -10z"/>
<path d="M370 2090 c0 -5 5 -10 10 -10 6 0 10 -6 10 -14 0 -16 -34 -26 -92
-28 -49 -2 -59 -26 -15 -35 17 -4 35 -6 40 -5 4 1 7 -5 7 -13 0 -8 4 -15 9
-15 15 0 24 -40 12 -54 -9 -11 -3 -16 30 -24 23 -6 48 -8 56 -5 8 3 13 0 11
-8 -2 -8 2 -13 8 -12 7 1 14 -11 18 -28 5 -29 8 -30 38 -24 18 4 37 11 42 16
6 5 20 9 32 9 15 0 23 7 26 25 3 13 1 22 -3 19 -5 -3 -11 6 -15 20 -4 16 -15
26 -36 30 -16 3 -34 3 -39 0 -5 -3 -9 0 -9 5 0 6 -7 11 -15 11 -8 0 -15 5 -15
10 0 6 6 10 13 10 16 0 57 37 57 50 0 6 -7 10 -16 10 -10 0 -13 6 -9 19 4 13
-2 24 -21 36 -22 14 -30 15 -50 4 -19 -10 -27 -10 -36 -1 -15 15 -48 16 -48 2z"/>
<path d="M1253 2021 c-13 -21 -8 -31 16 -31 9 0 29 -7 45 -15 37 -20 37 -20
22 17 -20 46 -63 61 -83 29z"/>
<path d="M630 1996 c0 -2 7 -9 15 -16 9 -7 15 -8 15 -2 0 5 -7 12 -15 16 -8 3
-15 4 -15 2z"/>
<path d="M1860 1920 c-18 -11 -6 -24 30 -35 20 -6 22 -5 13 5 -6 7 -9 19 -6
26 6 16 -15 18 -37 4z"/>
<path d="M4950 1870 c0 -5 7 -10 16 -10 8 0 12 5 9 10 -3 6 -10 10 -16 10 -5
0 -9 -4 -9 -10z"/>
<path d="M417 1853 c-4 -3 -7 -11 -7 -17 0 -6 5 -5 12 2 6 6 9 14 7 17 -3 3
-9 2 -12 -2z"/>
<path d="M2341 1853 c-1 -7 -9 -13 -19 -13 -10 0 -29 -11 -42 -25 -25 -27 -17
-33 13 -10 11 7 25 11 33 8 15 -6 29 19 21 39 -4 10 -6 10 -6 1z"/>
<path d="M745 1840 c-3 -5 1 -10 9 -10 8 0 18 5 21 10 3 6 -1 10 -9 10 -8 0
-18 -4 -21 -10z"/>
<path d="M35 1820 c-3 -6 1 -7 9 -4 18 7 21 14 7 14 -6 0 -13 -4 -16 -10z"/>
<path d="M2560 1814 c0 -8 5 -12 10 -9 6 4 8 11 5 16 -9 14 -15 11 -15 -7z"/>
<path d="M2807 1795 c-20 -18 -37 -38 -37 -44 0 -6 -6 -8 -13 -5 -8 3 -21 -14
-34 -45 -17 -40 -26 -50 -52 -56 -41 -9 -49 -30 -22 -59 22 -24 27 -51 11 -61
-5 -3 -15 -15 -21 -26 -9 -18 -8 -19 9 -10 26 14 38 31 46 66 4 16 12 33 17
36 6 3 12 21 14 40 3 19 11 39 20 45 8 6 15 17 15 24 0 13 56 88 80 107 8 6
13 14 10 16 -3 3 -22 -9 -43 -28z"/>
<path d="M386 1771 c-10 -15 17 -29 67 -34 37 -4 47 -2 47 10 0 11 -6 14 -22
10 -11 -3 -34 1 -49 9 -33 16 -36 17 -43 5z"/>
<path d="M1967 1763 c-10 -9 -9 -23 2 -23 5 0 11 7 15 15 5 15 -5 20 -17 8z"/>
<path d="M2206 1744 c-9 -24 -7 -28 9 -14 17 14 20 30 6 30 -5 0 -12 -7 -15
-16z"/>
<path d="M90 1740 c0 -5 6 -10 14 -10 8 0 18 5 21 10 3 6 -3 10 -14 10 -12 0
-21 -4 -21 -10z"/>
<path d="M2517 1740 c-3 -8 -5 -32 -4 -53 1 -27 5 -36 15 -32 7 3 16 5 18 5 8
0 3 36 -10 65 -10 22 -15 26 -19 15z"/>
<path d="M2406 1731 c-7 -11 5 -51 15 -51 7 0 29 40 29 54 0 6 -40 4 -44 -3z"/>
<path d="M4835 1730 c-3 -5 3 -26 14 -47 13 -25 20 -32 21 -19 0 14 5 17 25
12 15 -4 25 -2 25 4 0 6 -11 15 -25 20 -14 5 -25 16 -25 25 0 17 -25 21 -35 5z"/>
<path d="M660 1711 c0 -5 6 -14 14 -20 10 -8 16 -8 25 2 6 8 8 17 4 20 -9 10
-43 8 -43 -2z"/>
<path d="M4723 1684 c-42 -24 -55 -44 -31 -44 11 0 108 59 108 66 0 12 -40 1
-77 -22z"/>
<path d="M2221 1674 c0 -11 3 -14 6 -6 3 7 2 16 -1 19 -3 4 -6 -2 -5 -13z"/>
<path d="M5335 1660 c-3 -5 -1 -10 4 -10 6 0 11 5 11 10 0 6 -2 10 -4 10 -3 0
-8 -4 -11 -10z"/>
<path d="M4956 1653 c-8 -9 54 -73 71 -73 19 0 16 24 -4 42 -27 23 -60 38 -67
31z"/>
<path d="M4792 1638 c3 -7 13 -15 22 -16 12 -3 17 1 14 10 -3 7 -13 15 -22 16
-12 3 -17 -1 -14 -10z"/>
<path d="M1982 1624 c1 -9 9 -19 16 -22 9 -3 13 2 10 14 -1 9 -9 19 -16 22 -9
3 -13 -2 -10 -14z"/>
<path d="M4630 1584 c0 -17 12 -36 36 -57 39 -34 89 -105 80 -114 -3 -3 -38 5
-78 17 -40 12 -78 24 -84 25 -6 2 -9 16 -6 34 5 39 -13 41 -32 2 -17 -32 -49
-47 -118 -57 -34 -4 -51 -13 -63 -30 -9 -15 -32 -28 -60 -35 -25 -6 -45 -16
-45 -21 0 -14 64 -1 103 21 60 35 108 36 75 3 -10 -10 -2 -12 37 -11 30 1 63
-5 82 -14 20 -11 34 -13 38 -7 3 6 16 10 27 10 28 0 16 11 -27 25 -18 7 -37 9
-42 4 -5 -5 -25 -2 -46 5 l-39 13 83 7 c53 4 86 3 93 -4 5 -5 17 -10 26 -10 9
0 16 -9 17 -20 1 -11 -2 -20 -7 -20 -4 0 -6 -8 -4 -18 4 -15 -2 -17 -45 -16
-46 1 -68 -9 -41 -18 6 -2 12 -12 14 -23 2 -11 7 -27 11 -36 3 -9 -1 -21 -9
-29 -9 -7 -13 -17 -9 -24 4 -6 -5 -3 -20 7 -30 19 -74 25 -47 6 12 -8 9 -9
-12 -5 -21 5 -28 3 -28 -9 0 -28 2 -30 39 -41 20 -6 41 -12 46 -13 6 -2 18 -9
28 -16 17 -12 16 -13 -5 -17 -13 -2 -59 -1 -103 2 -110 9 -115 5 -115 -79 0
-67 1 -69 31 -81 17 -7 59 -13 92 -12 34 0 107 -6 162 -15 111 -17 165 -13
227 17 23 11 50 20 61 20 10 0 25 7 33 15 14 13 14 16 0 21 -22 8 -8 34 19 34
13 0 27 5 30 10 9 15 23 3 39 -33 22 -51 50 -74 131 -104 41 -15 74 -32 72
-38 -5 -15 -46 -18 -62 -5 -17 14 -118 21 -126 9 -3 -6 -18 -11 -33 -13 -16
-2 -32 -9 -37 -17 -8 -12 -11 -11 -19 3 -7 11 -20 15 -38 13 -15 -2 -35 -4
-44 -4 -10 -1 -18 -8 -18 -16 0 -8 -4 -15 -10 -15 -5 0 -10 -6 -10 -14 0 -8
-6 -16 -12 -19 -7 -2 22 -3 65 -1 43 2 85 8 92 14 9 8 15 8 20 0 3 -5 -1 -10
-9 -10 -24 0 -19 -23 9 -50 21 -19 36 -24 90 -24 35 -1 69 4 75 10 7 7 30 9
56 6 31 -3 44 -1 44 8 0 6 9 25 21 41 l20 29 -28 0 c-28 0 -53 15 -53 32 0 4
9 8 20 8 12 0 30 8 41 19 18 16 19 29 17 142 -3 139 7 127 -90 113 -51 -7 -68
6 -54 42 5 13 9 14 20 5 11 -9 18 -8 30 4 11 12 25 14 51 9 22 -4 35 -2 35 4
0 6 -14 12 -32 14 -17 2 -34 9 -36 17 -3 10 0 12 11 8 11 -4 14 -2 10 9 -3 9
1 14 11 14 14 0 15 4 6 21 -10 17 -8 21 8 26 16 4 20 17 25 71 4 36 5 67 3 70
-2 2 -15 5 -28 7 -106 15 -172 26 -186 34 -9 4 -32 11 -50 14 -57 11 -196 77
-217 104 -19 23 -24 24 -59 14 -22 -5 -42 -8 -46 -6 -4 2 -35 7 -68 9 -61 5
-62 5 -62 -20z m124 -55 c18 -21 26 -42 25 -67 l-1 -37 -16 35 c-9 19 -25 46
-34 60 -35 49 -13 56 26 9z m173 -37 c22 -14 -11 -44 -41 -36 -25 6 -34 23
-19 37 9 9 45 9 60 -1z m151 -59 c-10 -2 -26 -2 -35 0 -10 3 -2 5 17 5 19 0
27 -2 18 -5z m127 -43 c4 -6 3 -9 -2 -8 -4 1 -18 -2 -31 -6 -26 -9 -38 -3 -27
13 8 14 52 14 60 1z m120 -20 c-3 -5 -13 -10 -21 -10 -8 0 -12 5 -9 10 3 6 13
10 21 10 8 0 12 -4 9 -10z m-647 -118 c2 -7 -3 -12 -12 -12 -9 0 -16 7 -16 16
0 17 22 14 28 -4z m-4 -85 c18 -16 18 -18 3 -13 -10 3 -27 6 -37 6 -17 0 -18
3 -7 33 9 25 12 28 15 13 2 -11 14 -28 26 -39z m493 -23 c-3 -3 -12 -4 -19 -1
-8 3 -5 6 6 6 11 1 17 -2 13 -5z m-32 -34 c3 -5 1 -10 -4 -10 -6 0 -11 5 -11
10 0 6 2 10 4 10 3 0 8 -4 11 -10z m-540 -48 c-3 -3 -11 0 -18 7 -9 10 -8 11
6 5 10 -3 15 -9 12 -12z m460 -2 c3 -5 -1 -10 -10 -10 -9 0 -13 5 -10 10 3 6
8 10 10 10 2 0 7 -4 10 -10z m-90 -90 c3 -5 1 -10 -4 -10 -6 0 -11 5 -11 10 0
6 2 10 4 10 3 0 8 -4 11 -10z"/>
<path d="M5321 1527 c-33 -16 -37 -34 -11 -42 27 -9 43 6 38 34 -3 18 -6 19
-27 8z"/>
<path d="M751 1464 c0 -11 3 -14 6 -6 3 7 2 16 -1 19 -3 4 -6 -2 -5 -13z"/>
<path d="M866 1449 c-14 -14 -16 -19 -5 -19 24 0 45 18 34 28 -6 6 -17 3 -29
-9z"/>
<path d="M1880 1435 c-18 -21 -5 -31 15 -12 8 9 11 18 6 21 -5 3 -14 -1 -21
-9z"/>
<path d="M904 1376 c-29 -21 -14 -27 54 -20 42 5 62 11 62 20 0 19 -90 19
-116 0z"/>
<path d="M770 1370 c-12 -7 -10 -9 8 -7 12 0 22 5 22 9 0 11 -12 10 -30 -2z"/>
<path d="M907 1254 c-12 -12 3 -22 23 -17 11 3 17 9 14 14 -6 10 -28 12 -37 3z"/>
<path d="M4427 1193 c-3 -16 -3 -30 -1 -32 8 -8 32 33 27 46 -8 21 -20 15 -26
-14z"/>
<path d="M358 1153 c-24 -6 -23 -18 4 -43 26 -24 37 -25 72 -7 l26 14 -23 21
c-22 21 -42 25 -79 15z"/>
<path d="M35 1131 c-3 -5 -1 -12 4 -15 5 -4 13 -1 16 5 4 5 13 8 21 5 8 -3 14
-1 14 4 0 13 -47 13 -55 1z"/>
<path d="M540 1129 c0 -5 5 -7 10 -4 6 3 10 8 10 11 0 2 -4 4 -10 4 -5 0 -10
-5 -10 -11z"/>
<path d="M4270 1033 c0 -10 70 -56 76 -50 10 10 -10 37 -26 37 -11 0 -22 5
-25 10 -7 12 -25 13 -25 3z"/>
<path d="M3989 943 c-12 -22 -11 -27 5 -39 20 -14 91 -13 107 3 12 12 -3 24
-57 45 -41 15 -42 15 -55 -9z"/>
<path d="M3897 893 c-4 -3 -32 -5 -62 -4 -38 1 -56 -2 -59 -11 -13 -41 -14
-77 -2 -93 13 -18 15 -17 49 4 20 12 37 27 39 33 6 18 117 20 135 3 8 -8 29
-15 46 -15 18 0 37 -4 43 -8 18 -11 35 -50 42 -95 10 -58 34 -56 46 5 7 38 6
49 -8 63 -13 13 -14 20 -5 31 6 8 17 14 25 14 7 0 15 4 19 9 3 5 -21 15 -52
22 -32 7 -63 16 -69 20 -6 5 -24 5 -41 0 -17 -5 -36 -5 -44 0 -8 5 -26 9 -41
9 -15 0 -30 5 -33 10 -7 12 -19 13 -28 3z m-97 -87 c0 -11 -19 -15 -25 -6 -3
5 1 10 9 10 9 0 16 -2 16 -4z"/>
<path d="M4805 870 c3 -5 10 -10 16 -10 5 0 9 5 9 10 0 6 -7 10 -16 10 -8 0
-12 -4 -9 -10z"/>
<path d="M4194 799 c-3 -5 11 -9 31 -9 20 0 34 4 31 9 -3 5 -17 9 -31 9 -14 0
-28 -4 -31 -9z"/>
<path d="M4830 790 c0 -5 5 -10 10 -10 6 0 10 5 10 10 0 6 -4 10 -10 10 -5 0
-10 -4 -10 -10z"/>
<path d="M4906 751 c-3 -5 4 -11 15 -14 12 -3 18 -10 15 -16 -8 -13 1 -17 52
-26 28 -4 42 -3 42 4 0 6 -12 11 -27 11 -37 0 -57 14 -50 34 5 12 0 16 -18 16
-13 0 -26 -4 -29 -9z"/>
<path d="M4800 697 c0 -7 5 -18 12 -25 9 -9 9 -15 1 -23 -6 -6 -9 -18 -6 -26
4 -10 0 -14 -14 -11 -19 3 -23 -1 -23 -22 0 -14 99 -12 135 4 l30 13 -22 12
c-13 6 -23 18 -23 26 0 8 -7 15 -15 15 -8 0 -15 6 -15 13 0 8 -11 19 -25 25
-33 15 -35 15 -35 -1z"/>
<path d="M5325 641 c4 -14 0 -20 -12 -23 -16 -3 -15 -5 5 -16 21 -12 22 -11
22 23 0 19 -5 35 -11 35 -6 0 -8 -8 -4 -19z"/>
<path d="M4652 603 c15 -15 30 -24 34 -20 7 7 -35 46 -51 47 -5 0 3 -12 17
-27z"/>
<path d="M1926 574 c-11 -8 -16 -14 -10 -14 13 0 39 18 34 24 -3 2 -14 -2 -24
-10z"/>
<path d="M5265 563 c-11 -3 -27 -13 -35 -23 -10 -12 -28 -16 -57 -14 -32 1
-43 -2 -43 -12 0 -11 7 -13 28 -8 15 4 29 8 31 10 2 2 11 -2 19 -9 12 -9 16
-9 19 1 3 6 21 12 41 12 45 0 67 13 59 34 -6 16 -24 18 -62 9z"/>
<path d="M5083 514 c-7 -7 -13 -18 -13 -23 0 -15 41 -24 53 -12 8 8 7 11 -5
11 -9 0 -18 9 -20 19 -2 16 -5 17 -15 5z"/>
<path d="M5275 489 c-4 -6 -5 -12 -2 -15 2 -3 7 2 10 11 7 17 1 20 -8 4z"/>
<path d="M4180 473 c0 -15 49 -62 65 -63 6 0 22 -11 36 -23 13 -13 38 -28 54
-34 41 -13 55 -40 31 -58 -10 -7 -15 -19 -11 -24 4 -7 -3 -7 -20 1 -31 14 -58
-3 -37 -24 21 -21 14 -39 -13 -32 -18 4 -25 2 -25 -8 0 -22 36 -38 70 -31 25
5 37 0 59 -21 29 -27 81 -44 81 -26 0 5 6 10 14 10 7 0 20 7 27 16 11 14 10
18 -6 30 -11 8 -27 20 -35 27 -8 7 -25 12 -37 11 -28 -2 -29 4 -3 14 22 8 24
4 -88 170 -14 21 -29 32 -38 28 -8 -3 -14 1 -14 9 0 18 -21 20 -38 3 -10 -10
-14 -8 -18 9 -7 24 -54 39 -54 16z"/>
<path d="M5138 473 c-26 -6 -22 -22 9 -34 20 -7 28 -6 35 3 6 10 10 10 17 -1
12 -19 4 -39 -20 -46 -10 -4 -19 -13 -19 -21 0 -8 -5 -14 -12 -14 -6 0 -2 -9
10 -20 16 -15 20 -28 16 -45 -8 -31 9 -33 25 -2 6 12 9 14 7 5 -3 -9 2 -22 10
-29 12 -10 13 -9 8 5 -5 12 -2 15 10 10 9 -3 16 -11 16 -18 0 -6 13 -20 27
-30 23 -17 26 -17 20 -3 -4 12 -1 17 11 18 12 0 10 4 -8 12 -14 7 -37 23 -50
36 -22 21 -22 23 -5 17 11 -5 26 -9 33 -10 7 -1 18 -8 24 -14 7 -7 17 -12 23
-12 5 0 4 4 -3 8 -10 7 -10 14 3 38 16 31 20 84 6 84 -4 0 -20 11 -34 24 -16
15 -35 22 -52 21 -14 -2 -28 2 -31 9 -5 13 -42 17 -76 9z"/>
<path d="M4910 445 c14 -7 27 -11 30 -9 6 7 -22 24 -40 23 -9 0 -5 -6 10 -14z"/>
<path d="M4370 390 c0 -5 5 -10 11 -10 5 0 7 5 4 10 -3 6 -8 10 -11 10 -2 0
-4 -4 -4 -10z"/>
<path d="M4205 360 c3 -5 8 -10 11 -10 2 0 4 5 4 10 0 6 -5 10 -11 10 -5 0 -7
-4 -4 -10z"/>
<path d="M5165 210 c-8 -13 15 -24 27 -12 6 6 4 11 -6 15 -8 3 -18 2 -21 -3z"/>
<path d="M5220 213 c0 -5 19 -27 43 -50 40 -40 43 -41 55 -23 17 28 7 43 -41
63 -47 19 -57 21 -57 10z"/>
<path d="M4759 131 c14 -11 21 -23 16 -30 -4 -7 1 -18 11 -26 22 -17 54 -19
54 -5 0 5 11 12 25 16 29 7 30 13 12 39 -10 12 -22 16 -41 13 -14 -3 -29 -1
-32 3 -3 5 -20 9 -37 9 l-32 0 24 -19z"/>
<path d="M4867 61 c6 -24 38 -28 47 -6 3 9 0 15 -8 15 -8 0 -21 3 -29 6 -12 4
-14 0 -10 -15z"/>
<path d="M5229 56 c7 -9 20 -16 27 -16 8 0 14 -4 14 -10 0 -5 11 -10 25 -10
33 0 23 28 -14 36 -14 3 -35 8 -46 11 -17 5 -18 4 -6 -11z"/>
<path d="M4791 34 c0 -11 3 -14 6 -6 3 7 2 16 -1 19 -3 4 -6 -2 -5 -13z"/>
</g>
</svg>
