<?xml version="1.0" standalone="no"?>
<!DOCTYPE svg PUBLIC "-//W3C//DTD SVG 20010904//EN"
 "http://www.w3.org/TR/2001/REC-SVG-20010904/DTD/svg10.dtd">
<svg version="1.0" xmlns="http://www.w3.org/2000/svg"
 width="650.000000pt" height="823.000000pt" viewBox="0 0 650.000000 823.000000"
 preserveAspectRatio="xMidYMid meet">

<g transform="translate(0.000000,823.000000) scale(0.100000,-0.100000)"
fill="#000000" stroke="none">
<path d="M3563 7584 c-7 -18 12 -64 27 -64 5 0 10 -4 10 -9 0 -5 -39 -6 -87
-4 -76 4 -92 2 -121 -16 -18 -12 -39 -36 -48 -53 -9 -18 -33 -44 -55 -57 -54
-34 -100 -84 -102 -110 -1 -14 -18 -36 -42 -54 -98 -76 -165 -140 -165 -158 0
-11 -5 -17 -10 -14 -6 3 -15 -6 -20 -20 -13 -33 -13 -38 0 -30 6 3 10 -1 10
-9 0 -9 -6 -13 -14 -10 -33 13 -48 -184 -21 -286 24 -90 66 -170 90 -170 11 0
28 -9 38 -20 17 -21 36 -24 74 -14 28 8 20 24 -11 24 -13 0 -29 7 -36 15 -16
19 -5 34 12 17 17 -17 48 -15 70 5 14 13 23 14 42 5 38 -17 61 5 52 50 -11 60
-74 98 -161 98 -46 0 -59 -4 -77 -25 -12 -14 -25 -25 -30 -25 -4 0 -8 39 -8
86 0 76 4 94 31 150 l30 65 117 -1 c131 -2 158 1 220 24 47 18 115 17 147 -1
14 -8 20 -22 20 -52 0 -23 3 -41 7 -41 5 0 8 -7 8 -15 0 -8 27 -28 59 -45 74
-37 123 -105 141 -195 14 -71 29 -104 30 -65 0 23 1 23 17 8 14 -15 15 -21 4
-44 -13 -30 -9 -39 13 -31 23 9 30 54 16 97 -12 36 -8 60 10 60 4 0 15 -19 24
-41 9 -23 19 -39 22 -36 8 8 -28 117 -39 117 -10 0 -48 -45 -59 -69 -6 -14 -7
-13 -7 2 -2 31 25 83 55 106 26 20 27 26 26 90 -2 82 -34 210 -63 257 -11 19
-37 47 -57 64 -33 27 -35 31 -22 54 16 31 1 72 -44 124 -24 28 -30 44 -31 81
0 25 6 52 13 59 19 21 14 42 -18 72 -16 15 -30 35 -30 43 0 27 -47 36 -57 11z
m-350 -390 c11 -11 -5 -34 -24 -34 -21 0 -26 25 -6 33 17 8 23 8 30 1z m64
-16 c-3 -8 -6 -5 -6 6 -1 11 2 17 5 13 3 -3 4 -12 1 -19z m-124 -522 c38 -14
81 -45 73 -53 -2 -3 -18 3 -35 11 -46 24 -73 21 -36 -4 l30 -20 -42 0 c-23 0
-50 -3 -60 -6 -13 -4 -11 0 7 15 25 20 25 21 3 21 -20 0 -73 -45 -73 -62 0 -5
-4 -8 -9 -8 -16 0 -23 68 -9 89 20 33 86 40 151 17z"/>
<path d="M3447 6750 c-88 -34 -111 -70 -109 -174 2 -96 19 -113 36 -35 3 15
14 29 23 33 10 3 26 11 35 18 14 10 20 9 36 -5 24 -22 38 -21 63 4 13 13 27
18 37 14 15 -6 13 -10 -11 -31 -15 -13 -35 -24 -43 -24 -8 0 -14 -4 -14 -9 0
-11 68 2 100 19 14 8 34 16 45 18 11 2 27 5 35 7 8 2 18 4 23 4 12 2 8 29 -5
34 -7 2 -10 7 -7 11 4 4 17 -3 29 -16 18 -19 16 -12 -10 39 -53 107 -146 139
-263 93z m172 -32 c32 -15 40 -24 28 -26 -9 -2 -15 -8 -11 -13 10 -17 -24 -21
-81 -9 -66 14 -82 7 -34 -14 l34 -14 -42 -1 c-23 -1 -53 -5 -68 -11 -35 -13
-23 7 13 22 27 11 27 12 4 16 -13 2 -34 -4 -48 -13 -25 -16 -25 -16 -15 4 12
22 57 56 92 70 39 16 80 12 128 -11z m66 -48 c3 -5 1 -10 -4 -10 -6 0 -11 5
-11 10 0 6 2 10 4 10 3 0 8 -4 11 -10z"/>
<path d="M3727 6577 c-3 -7 -1 -20 3 -28 7 -11 10 -10 16 4 4 10 2 23 -3 28
-7 7 -12 6 -16 -4z"/>
<path d="M3745 6509 c-4 -6 -5 -12 -2 -15 2 -3 7 2 10 11 7 17 1 20 -8 4z"/>
<path d="M3700 6485 c0 -8 5 -15 10 -15 6 0 10 7 10 15 0 8 -4 15 -10 15 -5 0
-10 -7 -10 -15z"/>
<path d="M3751 6464 c0 -11 3 -14 6 -6 3 7 2 16 -1 19 -3 4 -6 -2 -5 -13z"/>
<path d="M3717 6428 c-8 -28 2 -68 15 -68 6 0 8 -6 5 -13 -3 -8 -1 -20 3 -28
5 -8 4 -19 -2 -26 -7 -9 -7 -17 1 -27 17 -20 2 -76 -32 -118 -29 -37 -94 -84
-109 -80 -5 1 -8 -2 -8 -7 0 -21 -33 -42 -57 -36 -16 4 -22 2 -18 -5 4 -6 -5
-10 -22 -10 -15 0 -49 -7 -74 -14 -34 -11 -58 -12 -89 -5 -24 5 -45 8 -47 5
-9 -9 90 -59 134 -67 39 -8 60 -4 137 22 50 17 95 35 101 40 5 5 17 9 27 9 10
0 18 3 18 8 0 4 12 8 26 8 18 2 24 -2 20 -12 -3 -8 -1 -14 4 -14 6 0 10 11 10
25 0 26 24 35 34 13 3 -9 8 -8 16 5 15 23 33 12 20 -13 -14 -26 -13 -33 4 -27
15 6 46 -22 46 -41 0 -19 -44 -84 -76 -113 -16 -15 -60 -46 -97 -69 -76 -48
-84 -68 -10 -25 50 30 157 109 183 135 13 14 14 14 5 0 -5 -8 -20 -28 -33 -44
-24 -30 -23 -48 2 -27 11 9 15 8 19 -3 4 -9 1 -18 -4 -22 -6 -3 -8 -16 -5 -29
4 -14 0 -28 -9 -35 -8 -7 -15 -21 -15 -31 0 -10 -7 -22 -17 -27 -9 -6 -14 -16
-10 -25 3 -9 -1 -21 -9 -27 -8 -7 -14 -17 -14 -22 0 -30 -140 -178 -197 -208
-63 -32 -58 -44 -84 178 -8 70 -16 99 -23 92 -7 -7 -6 -38 2 -97 6 -49 15
-112 18 -142 l7 -53 -34 7 c-20 5 -47 22 -66 44 -47 53 -52 60 -95 142 -11 21
-24 42 -29 45 -5 3 -7 10 -3 15 3 5 0 16 -6 24 -7 8 -9 24 -5 36 6 19 4 21
-17 16 -27 -7 -72 18 -62 34 3 6 11 3 19 -7 7 -10 19 -15 28 -11 12 4 15 21
13 82 -1 42 2 82 6 88 5 7 8 0 8 -16 0 -52 66 -157 97 -157 9 0 2 16 -19 43
-44 54 -58 88 -58 138 0 48 -17 58 -64 35 -19 -9 -39 -16 -45 -16 -21 0 -62
-32 -75 -59 -14 -27 -15 -158 -2 -179 3 -6 4 -22 1 -35 -5 -19 0 -29 19 -45
14 -11 26 -23 26 -27 0 -4 -6 -2 -14 4 -8 7 -17 8 -20 3 -3 -6 1 -15 9 -22 9
-8 12 -22 8 -41 -3 -17 -1 -29 5 -29 6 0 10 -14 10 -31 -1 -17 5 -34 12 -39 7
-4 9 -13 5 -19 -4 -7 -1 -18 5 -26 6 -8 9 -23 5 -34 -4 -14 0 -24 14 -33 14
-9 19 -19 15 -35 -4 -13 -2 -23 4 -23 5 0 12 -12 15 -27 13 -62 19 -89 24
-103 3 -8 5 -22 4 -32 -1 -9 3 -19 9 -23 5 -3 10 -22 10 -41 0 -19 5 -34 11
-34 7 0 9 -9 5 -24 -4 -15 0 -28 10 -36 8 -7 12 -20 9 -27 -2 -8 0 -24 7 -36
7 -12 11 -29 10 -38 -2 -9 4 -22 13 -29 12 -10 13 -16 4 -26 -9 -11 -8 -20 4
-38 9 -13 14 -32 11 -43 -3 -11 2 -25 10 -32 9 -8 16 -21 16 -30 1 -34 113
-119 146 -110 5 2 19 0 31 -5 15 -5 30 -2 44 8 12 8 27 12 33 10 13 -5 56 31
56 46 0 6 9 19 20 30 11 11 20 28 20 38 0 10 5 23 11 29 6 6 13 26 15 44 9 67
10 75 18 88 8 13 12 35 21 113 3 27 10 60 15 74 6 14 7 30 4 36 -4 5 -2 20 4
31 12 25 26 75 27 97 0 8 6 25 13 38 7 12 10 27 6 33 -3 6 2 19 11 29 10 11
15 26 12 34 -3 8 1 20 9 27 8 7 14 22 13 33 -1 12 1 28 4 36 5 13 8 28 21 90
2 8 7 23 11 33 4 9 5 23 2 31 -3 8 0 20 7 26 8 6 17 35 21 65 11 94 23 70 24
-47 1 -141 13 -244 46 -406 30 -144 28 -129 26 -161 -1 -24 -1 -24 -17 -5 -14
17 -15 17 -10 1 3 -10 6 -27 6 -38 0 -10 4 -19 10 -19 5 0 6 8 3 18 -6 15 -5
15 11 3 9 -8 15 -20 12 -26 -2 -7 0 -31 5 -53 5 -25 5 -50 0 -64 l-10 -23 0
22 c-1 16 -6 21 -16 17 -18 -7 -19 6 -4 40 10 20 8 28 -10 47 -16 17 -21 19
-21 7 0 -8 -10 -23 -22 -34 -21 -19 -21 -19 -16 4 4 12 2 22 -3 22 -5 0 -9
-13 -9 -30 0 -20 5 -30 15 -30 8 0 15 7 15 15 0 8 5 15 11 15 6 0 10 -12 8
-27 -1 -16 1 -35 4 -43 3 -8 4 -26 3 -40 -2 -14 -4 -36 -5 -49 -1 -16 -5 -21
-16 -17 -9 3 -15 0 -15 -10 0 -9 7 -14 17 -12 21 4 35 -61 22 -105 -9 -33 -2
-57 17 -57 19 0 18 -16 -1 -24 -16 -6 -21 -36 -6 -36 14 0 7 -64 -9 -78 -13
-11 -11 -12 9 -6 21 5 23 4 18 -16 -3 -12 1 -40 9 -62 7 -22 11 -44 8 -49 -2
-5 0 -17 6 -28 13 -25 -3 -71 -25 -71 -8 0 -15 -5 -15 -10 0 -7 -6 -7 -20 0
-19 10 -29 60 -12 60 4 0 12 11 18 24 11 23 10 24 -7 13 -11 -7 -19 -16 -19
-22 0 -5 -5 -2 -11 8 -6 9 -8 26 -4 36 3 10 1 38 -4 62 -6 28 -6 47 0 55 6 8
6 14 1 18 -5 3 -7 26 -4 51 4 37 2 45 -11 45 -14 0 -14 3 1 29 16 28 15 31 -2
50 -11 12 -14 21 -8 21 22 0 34 157 13 170 -8 4 -11 15 -8 25 4 9 11 13 17 10
14 -9 12 7 -4 28 -14 18 -46 23 -46 7 0 -5 8 -10 17 -10 15 0 15 -1 -2 -14
-11 -7 -16 -20 -12 -29 3 -9 -1 -18 -9 -21 -9 -4 -12 -11 -8 -18 5 -7 8 -136
9 -288 0 -247 -2 -276 -17 -288 -9 -7 -17 -20 -17 -30 0 -9 -2 -30 -5 -47 -13
-82 11 -301 36 -332 8 -10 6 -13 -5 -13 -17 0 -32 34 -22 49 3 5 1 12 -5 16
-5 3 -10 15 -10 26 0 10 -4 19 -8 19 -20 0 -35 102 -35 243 -1 81 -4 147 -9
147 -4 0 -8 -5 -8 -11 0 -24 -19 4 -20 29 -2 86 -5 102 -20 100 -11 -3 -14
-15 -12 -54 2 -27 4 -56 4 -64 4 -66 -3 -120 -16 -120 -23 0 -27 -29 -6 -40
16 -8 19 -18 15 -48 -12 -90 -15 -97 -48 -97 -18 0 -25 10 -38 60 -10 39 -13
66 -7 78 6 12 5 24 -4 34 -10 13 -10 17 0 20 6 3 12 9 12 14 0 4 -7 6 -15 3
-11 -5 -13 -2 -9 11 4 10 -1 22 -15 31 -11 8 -21 24 -21 35 0 12 -5 19 -11 17
-17 -6 -20 -55 -4 -68 9 -7 12 -23 8 -44 -3 -20 1 -47 10 -67 8 -19 20 -55 26
-80 6 -26 34 -93 62 -150 70 -142 73 -147 103 -178 14 -15 26 -32 26 -39 0 -7
4 -12 8 -12 11 0 52 -39 52 -50 0 -15 -83 -2 -92 14 -5 9 -14 16 -21 16 -21 1
-83 83 -127 166 -23 43 -51 89 -62 101 -21 22 -21 23 -3 43 16 17 16 20 2 26
-9 3 -19 19 -22 35 -4 16 -11 29 -16 29 -5 0 -9 6 -9 13 0 7 -9 23 -20 35 -12
12 -20 29 -18 38 2 9 -7 20 -19 25 -19 7 -23 5 -23 -10 0 -10 -7 -24 -15 -31
-8 -7 -15 -18 -15 -25 0 -8 -4 -15 -10 -17 -5 -1 -11 -26 -12 -55 -2 -42 -4
-48 -14 -35 -17 26 -33 108 -39 207 -6 112 -6 112 -37 215 -38 123 -75 285
-83 360 -4 36 -11 67 -14 70 -4 3 -12 25 -17 49 -9 42 -11 44 -49 48 -29 2
-36 1 -25 -7 10 -6 11 -10 3 -10 -30 0 7 -133 40 -145 14 -6 16 -37 3 -74 -6
-18 -4 -26 8 -33 13 -7 14 -12 3 -28 -17 -28 -40 -26 -31 2 6 20 5 21 -10 9
-10 -9 -13 -18 -7 -25 10 -12 10 -14 12 -48 1 -17 2 -19 6 -5 2 9 8 17 13 17
4 0 11 10 15 23 6 18 8 19 12 5 2 -9 -1 -26 -7 -37 -6 -12 -7 -21 -1 -21 5 0
7 -9 4 -20 -3 -11 -9 -20 -13 -20 -4 0 -8 -16 -7 -35 1 -19 3 -35 6 -35 4 0 7
-23 8 -51 1 -32 -2 -48 -8 -42 -12 12 -116 312 -129 373 -6 25 -14 54 -19 65
-23 50 -61 155 -61 168 0 8 -8 21 -17 28 -15 12 -16 12 -10 -3 3 -10 2 -20 -2
-23 -13 -7 -21 20 -21 67 0 27 -4 38 -12 35 -14 -4 -13 -31 3 -115 6 -30 8
-66 5 -80 -5 -21 -4 -24 4 -12 9 11 10 7 5 -19 -5 -23 -4 -31 4 -27 7 4 10 0
9 -11 -3 -37 2 -74 10 -69 4 3 9 -11 9 -30 1 -23 29 -91 81 -192 44 -87 85
-181 92 -209 11 -47 10 -61 -10 -125 -19 -64 -87 -210 -113 -246 -16 -21 -39
5 -26 30 6 11 8 26 5 33 -2 7 4 21 14 30 44 40 118 281 76 246 -8 -6 -16 -22
-19 -34 -16 -69 -72 -185 -84 -173 -3 3 -1 11 4 18 18 23 43 134 42 182 l-2
47 -17 -26 c-18 -28 -28 -59 -56 -169 -10 -38 -27 -83 -38 -100 -12 -18 -29
-47 -40 -65 -18 -33 -18 -33 1 -27 29 9 151 -31 157 -52 2 -9 2 -44 0 -77 -2
-33 -4 -70 -4 -82 0 -12 -5 -25 -10 -28 -6 -4 -8 -10 -5 -15 7 -11 -25 -80
-37 -80 -4 0 -8 -6 -8 -14 0 -16 -32 -26 -59 -19 -29 7 -68 73 -76 127 -4 25
-12 49 -17 52 -5 3 -6 19 -3 34 4 16 2 31 -5 35 -6 4 -8 16 -5 26 4 11 1 26
-5 34 -10 12 -10 18 0 30 9 11 10 19 3 26 -12 12 -6 49 7 49 5 0 10 -10 12
-22 2 -12 8 -23 14 -25 7 -2 9 8 6 27 -4 25 0 32 17 37 16 4 19 11 15 28 -4
15 2 31 20 50 35 38 55 189 29 224 -15 20 -16 16 -38 -94 -20 -105 -54 -195
-72 -195 -10 0 -12 6 -7 23 3 12 11 24 15 25 5 2 9 8 9 14 0 6 -7 8 -15 4 -19
-7 -19 13 0 38 8 11 15 28 15 38 0 10 4 18 10 18 5 0 7 7 3 16 -3 9 -1 19 5
23 22 14 11 133 -15 159 -7 7 -13 26 -13 42 0 16 -5 32 -10 35 -6 4 -8 11 -5
16 6 8 -8 13 -27 10 -5 0 -8 10 -8 22 0 13 -8 33 -17 45 -10 11 -26 35 -37 54
-17 30 -19 31 -27 13 -9 -23 -9 -24 -15 34 -3 24 -11 53 -19 65 -18 27 -9 69
22 102 22 24 29 26 72 20 43 -6 48 -4 46 14 -2 28 -6 30 -76 38 l-64 7 56 28
c35 17 78 51 113 88 l57 62 -25 76 c-23 71 -43 188 -48 290 -2 25 -8 46 -14
48 -7 2 -9 -8 -6 -27 2 -16 0 -30 -4 -30 -5 0 -10 -12 -10 -27 -2 -45 -12
-112 -18 -122 -4 -5 -2 -12 4 -16 13 -8 13 -25 0 -25 -6 0 -13 8 -16 18 -3 9
-10 26 -14 37 -5 11 -12 34 -16 50 l-8 30 -4 -26 c-1 -15 4 -44 13 -65 12 -30
13 -39 3 -45 -10 -7 -11 -12 0 -29 17 -28 15 -32 -10 -24 -12 4 -41 27 -64 53
-41 45 -42 45 -41 19 1 -16 5 -28 8 -28 4 0 9 -9 12 -20 8 -31 -8 -24 -44 19
-38 47 -74 62 -63 28 4 -12 15 -34 25 -49 23 -31 24 -51 5 -67 -18 -15 -42 -4
-98 47 -32 29 -41 33 -49 21 -5 -8 -7 -25 -4 -38 5 -18 3 -22 -9 -18 -22 9
-20 -5 4 -33 11 -13 20 -30 20 -38 0 -12 -5 -11 -27 3 -24 16 -25 16 -20 1 9
-22 -18 -7 -56 33 -39 40 -65 31 -34 -12 12 -17 28 -38 35 -45 7 -8 11 -17 8
-19 -6 -6 -43 20 -132 89 -34 27 -78 55 -98 63 -42 18 -46 18 -46 5 0 -5 6
-10 13 -10 14 0 116 -71 117 -81 0 -4 -20 -4 -45 -1 -52 5 -62 -12 -12 -22 17
-4 97 -40 177 -80 95 -48 181 -84 248 -102 97 -27 124 -46 87 -60 -8 -4 -15
-12 -15 -20 0 -8 -4 -22 -9 -32 -5 -9 -13 -30 -18 -47 -8 -30 -9 -30 -88 -33
-74 -2 -116 -2 -155 0 -8 0 -21 5 -28 11 -9 7 -16 7 -24 -1 -14 -14 -32 -16
-24 -3 3 4 -11 6 -32 3 -63 -10 -125 -5 -136 10 -7 9 -32 15 -71 16 -52 1 -79
3 -132 10 -6 1 -18 8 -25 15 -7 7 -38 20 -68 28 -41 12 -55 20 -56 35 -2 46
-5 49 -19 24 -8 -14 -14 -35 -15 -47 0 -24 46 -73 69 -73 8 0 12 -3 8 -6 -3
-4 -19 -2 -34 4 -23 8 -33 6 -51 -8 -12 -10 -27 -20 -33 -22 -6 -2 2 -31 20
-71 23 -52 35 -68 48 -65 10 2 26 -6 35 -17 10 -11 17 -15 18 -8 0 6 -4 15
-10 18 -18 11 -11 26 8 16 11 -6 24 -6 35 1 24 13 47 -6 47 -38 0 -13 4 -24 9
-24 13 0 10 43 -3 52 -6 4 -7 11 -2 15 11 12 34 -24 53 -84 9 -29 21 -53 26
-53 5 0 47 18 92 39 l84 39 16 -24 c18 -27 60 -32 69 -8 10 26 7 28 -12 11
-20 -19 -45 -5 -35 19 11 28 42 12 104 -51 70 -72 105 -88 176 -81 50 5 93 15
93 22 0 3 -7 21 -15 41 -23 55 -18 53 17 -6 17 -29 32 -64 33 -76 2 -12 12
-43 23 -69 20 -43 23 -46 60 -46 39 0 112 -24 112 -37 0 -3 -6 -11 -14 -17
-11 -8 -12 -22 -7 -58 9 -55 1 -60 -29 -18 -25 35 -51 41 -43 10 3 -12 0 -20
-7 -20 -7 0 -9 -8 -5 -20 3 -11 3 -20 -2 -20 -17 1 -40 27 -71 82 -34 59 -57
77 -161 123 -59 27 -62 27 -81 10 -29 -26 -25 -30 28 -30 65 0 146 -49 150
-91 2 -17 -1 -24 -5 -17 -9 13 -51 14 -68 3 -5 -4 -22 -10 -37 -14 -44 -10
-36 -36 11 -36 61 0 137 -17 195 -45 29 -14 58 -25 65 -25 6 0 23 -7 37 -16
17 -12 23 -22 18 -36 -3 -10 -1 -25 6 -33 7 -9 8 -15 0 -20 -7 -4 -7 -12 0
-25 5 -10 7 -26 4 -34 -4 -9 -1 -22 5 -30 6 -7 9 -21 5 -30 -3 -9 -1 -23 6
-31 7 -8 9 -22 6 -31 -4 -9 -1 -22 4 -30 6 -7 10 -18 8 -26 -4 -19 43 -138 55
-138 5 0 20 -12 33 -26 15 -15 29 -22 37 -17 6 4 22 6 33 5 12 -2 24 4 27 12
4 9 16 16 27 16 11 0 23 8 26 18 3 9 12 29 20 43 7 14 11 29 8 32 -4 3 -3 14
1 24 5 10 9 38 10 63 1 25 5 51 9 58 4 7 5 21 1 31 -3 11 -1 22 4 25 6 4 7 14
4 22 -9 24 71 -20 137 -75 30 -26 71 -55 90 -65 19 -11 56 -37 81 -58 25 -21
52 -38 60 -38 20 0 75 -35 139 -90 30 -26 74 -58 97 -70 41 -23 42 -25 28 -46
-28 -43 -15 -49 17 -9 18 22 49 57 70 79 l38 38 191 -7 c169 -7 191 -6 186 7
-11 30 86 6 127 -30 38 -35 38 -59 -1 -110 -41 -54 -90 -81 -149 -82 -22 0
-49 -6 -60 -14 -12 -9 -23 -11 -30 -5 -13 11 -100 -7 -110 -22 -3 -5 -15 -9
-28 -9 -13 0 -23 -6 -23 -15 0 -19 12 -19 42 1 13 9 30 14 36 12 7 -2 -8 -16
-33 -31 -25 -14 -57 -43 -73 -64 -41 -56 -75 -79 -75 -52 0 26 57 125 101 176
27 31 47 58 45 60 -8 9 -54 -10 -75 -30 -50 -51 -80 -101 -91 -153 -7 -33 -16
-52 -22 -48 -6 4 -8 -1 -4 -13 4 -13 -1 -26 -13 -37 -26 -24 -32 -8 -16 44 7
25 19 67 26 93 7 29 34 79 66 122 29 40 53 76 53 79 0 16 -26 3 -55 -27 -58
-60 -100 -153 -129 -289 -4 -16 -11 -28 -17 -28 -16 0 -3 127 20 193 20 56 58
123 105 181 16 20 25 40 21 44 -10 10 -69 -61 -119 -145 -36 -61 -44 -69 -54
-55 -9 14 -11 6 -11 -40 -1 -47 -4 -56 -16 -52 -10 4 -18 -3 -24 -20 -13 -32
-80 -96 -101 -96 -9 0 -21 -5 -28 -12 -6 -6 -14 -9 -18 -6 -3 4 18 24 48 46
59 45 118 105 118 121 0 17 -27 13 -71 -9 -23 -12 -55 -20 -78 -19 -28 2 -49
-5 -85 -30 -27 -17 -51 -29 -54 -26 -8 7 47 63 70 71 10 3 18 14 18 25 0 16
-4 19 -22 13 -13 -3 -28 -10 -33 -14 -14 -12 -113 -47 -154 -55 -19 -4 -53 -7
-75 -7 -22 1 -44 -5 -48 -11 -5 -8 -8 -8 -8 -1 0 19 34 48 83 72 26 12 45 27
42 32 -7 11 -57 7 -97 -9 -23 -9 -28 -7 -33 9 -6 20 -3 20 -142 4 -70 -7 -163
5 -163 21 0 13 30 25 67 25 12 0 34 5 50 11 15 6 44 13 65 15 20 2 49 9 64 14
23 9 25 13 14 20 -8 5 -22 8 -30 5 -8 -2 -50 -7 -92 -9 -58 -4 -79 -2 -85 8
-13 21 -46 34 -68 26 -23 -8 -62 4 -88 27 -13 12 -20 14 -28 6 -8 -8 -22 -1
-50 27 -22 21 -39 44 -39 50 0 7 -8 2 -19 -11 l-18 -23 -12 22 c-6 12 -18 22
-26 22 -8 0 -15 5 -15 11 0 6 -7 17 -15 25 -13 13 -15 13 -15 1 0 -8 -7 -18
-16 -21 -21 -8 -17 -9 -50 19 -19 17 -30 21 -35 13 -11 -17 -80 38 -73 57 4 8
1 15 -5 15 -14 0 -107 99 -104 111 2 5 -3 6 -10 4 -25 -10 -67 44 -67 87 0 33
-20 38 -21 6 -3 -66 8 -102 75 -234 40 -79 75 -141 78 -139 7 7 42 -71 52
-116 8 -35 55 -89 78 -89 10 0 18 -4 18 -10 0 -5 -3 -10 -6 -10 -14 0 -80 46
-99 69 -41 49 -95 136 -95 153 0 17 -54 136 -90 198 -11 19 -20 42 -20 52 0 9
-4 19 -9 23 -5 3 -13 30 -16 60 -4 31 -11 52 -17 49 -5 -3 -7 -8 -4 -11 3 -3
-1 -15 -9 -27 -20 -28 -19 -39 5 -31 16 5 19 3 13 -12 -4 -10 -11 -21 -17 -25
-7 -5 -5 -8 5 -8 18 0 33 -26 23 -41 -3 -5 -13 -9 -23 -9 -9 0 -26 -7 -37 -15
-10 -8 -27 -15 -37 -15 -78 -1 -176 -138 -160 -223 3 -13 0 -35 -7 -48 -9 -20
-6 -19 15 6 15 17 37 54 50 82 33 74 72 121 117 144 21 11 48 29 58 39 27 27
39 25 50 -6 13 -33 12 -44 -1 -21 -6 9 -14 15 -19 12 -13 -8 0 -35 16 -35 8 0
14 -5 14 -11 0 -7 -10 -9 -26 -5 -19 5 -24 3 -22 -9 2 -11 -20 -28 -67 -54
-51 -28 -73 -46 -80 -67 -6 -16 -18 -43 -28 -61 -9 -18 -17 -39 -17 -48 0 -32
-31 -75 -68 -95 -20 -11 -45 -26 -54 -32 -28 -20 -28 -7 -2 72 25 74 38 206
22 216 -4 3 -8 17 -8 32 0 40 -43 122 -83 161 l-35 33 15 47 c9 25 20 51 25
58 6 8 4 22 -8 42 -18 30 -18 31 1 46 17 12 17 14 4 15 -17 0 -34 26 -21 32 5
2 3 28 -4 58 -8 37 -12 46 -13 26 -1 -25 -4 -22 -31 29 -16 31 -28 61 -25 65
3 5 1 11 -4 14 -19 12 -22 -36 -10 -123 15 -109 7 -150 -36 -170 -17 -8 -32
-18 -33 -23 -2 -4 -8 -6 -13 -2 -5 3 -9 -4 -9 -15 0 -23 -42 -51 -48 -32 -7
20 -22 11 -22 -14 0 -26 -29 -48 -58 -44 -9 2 -30 0 -46 -5 -52 -13 -13 -26
95 -31 141 -5 161 -12 166 -55 2 -19 8 -39 14 -45 9 -7 10 -2 5 18 -9 37 9 35
23 -3 8 -25 7 -30 -6 -30 -13 0 -13 -3 -3 -15 10 -12 10 -15 -4 -15 -18 0 -22
-15 -6 -25 15 -9 12 -65 -4 -71 -9 -3 -14 -19 -14 -37 2 -81 -25 -131 -96
-180 -15 -10 -24 -23 -20 -28 3 -5 0 -17 -7 -25 -10 -13 -10 -17 2 -25 23 -14
-13 -11 -51 5 -21 9 -44 11 -66 6 -19 -4 -37 -4 -40 1 -9 15 -27 10 -21 -6 10
-24 -11 -27 -27 -4 -13 19 -18 20 -31 9 -12 -10 -18 -10 -33 1 -10 8 -9 4 4
-10 11 -12 38 -29 60 -36 21 -8 31 -14 22 -15 -47 -1 -125 43 -174 100 -47 52
-53 64 -64 130 -8 45 -10 103 -6 151 l7 78 -33 -1 c-18 0 -49 3 -68 6 -66 11
-108 2 -132 -28 -10 -11 -18 -15 -18 -8 0 18 -28 14 -34 -5 -7 -24 -3 -48 12
-66 11 -13 9 -18 -10 -31 -12 -9 -28 -16 -35 -16 -8 0 -9 -9 -2 -32 5 -17 7
-43 4 -57 l-4 -26 92 -3 c81 -2 174 -14 216 -28 21 -7 1 -23 -31 -26 -15 -1
-25 -5 -22 -8 5 -5 10 -6 35 -9 18 -2 -7 -27 -40 -40 -18 -8 -39 -32 -60 -72
-18 -34 -31 -63 -28 -65 9 -10 61 18 87 46 23 24 33 29 58 24 16 -3 40 -1 52
6 18 10 25 9 37 -3 13 -13 9 -20 -41 -57 -31 -23 -56 -46 -56 -50 0 -17 74
-20 151 -5 45 8 120 18 167 22 81 6 84 5 74 -13 -6 -11 -22 -26 -36 -34 -14
-7 -26 -20 -26 -27 0 -18 65 -7 100 17 41 29 116 67 146 74 25 6 27 6 12 -6
-9 -7 -22 -26 -28 -42 -10 -28 -10 -28 13 -13 13 8 46 17 74 20 28 3 60 10 72
16 11 7 21 8 21 3 0 -5 -15 -15 -32 -22 -18 -6 -45 -18 -61 -26 -15 -9 -31
-13 -36 -9 -15 9 -60 -16 -66 -37 -4 -10 -11 -18 -16 -18 -5 0 -9 -6 -9 -12 0
-9 21 -13 72 -13 40 0 64 1 54 3 -13 3 -6 10 25 26 l44 21 22 -25 c23 -28 22
-40 -2 -20 -32 27 -25 0 9 -32 l35 -33 -40 -35 c-35 -30 -41 -41 -41 -74 0
-24 -7 -45 -19 -57 -19 -19 -19 -19 1 -19 11 0 29 15 43 35 40 59 97 115 117
115 10 0 26 3 35 6 28 11 -1 -27 -45 -59 -47 -33 -95 -95 -66 -84 15 6 17 3
11 -25 l-7 -32 40 33 c23 17 53 46 68 64 28 33 76 67 96 67 6 0 20 7 30 17 10
9 18 12 18 7 0 -5 -29 -40 -65 -78 -36 -38 -65 -71 -65 -73 0 -2 9 1 19 7 27
14 31 13 40 -11 7 -20 12 -17 60 39 55 63 132 107 174 99 21 -3 21 -4 -5 -15
-33 -14 -44 -30 -29 -45 8 -8 14 -6 24 7 17 24 88 50 80 29 -3 -7 -16 -16 -29
-19 -13 -3 -24 -9 -24 -14 0 -4 -17 -12 -38 -18 -43 -13 -147 -122 -117 -122
9 0 28 9 42 20 14 11 62 31 108 45 46 14 91 32 100 41 8 9 41 22 73 30 72 17
72 17 72 -2 0 -11 -6 -14 -20 -9 -11 4 -20 2 -20 -4 0 -14 -52 -39 -69 -33 -7
2 -30 -5 -50 -16 -20 -10 -47 -22 -61 -25 -14 -3 -34 -13 -45 -22 -19 -15 -17
-16 31 -11 29 3 80 13 115 22 47 12 87 15 149 11 75 -5 140 -22 140 -37 0 -3
-62 -5 -138 -5 -127 0 -140 -2 -166 -22 -16 -13 -35 -23 -42 -23 -7 0 -18 -9
-24 -20 -10 -18 -8 -19 22 -12 18 4 89 7 158 6 113 0 131 -3 180 -26 72 -34
105 -43 96 -29 -5 8 12 11 56 10 57 -1 60 -2 33 -11 -27 -10 -28 -12 -10 -19
11 -4 43 -8 70 -8 28 -1 63 -8 79 -16 81 -43 169 -50 327 -30 56 7 119 -8 119
-28 0 -4 -46 -7 -102 -6 -57 1 -126 -2 -154 -6 -42 -6 -61 -3 -115 19 -36 14
-80 28 -99 32 -35 6 -35 6 -12 -11 12 -9 20 -21 16 -26 -3 -5 6 -23 20 -40 14
-17 26 -41 26 -54 0 -12 6 -28 14 -34 12 -10 15 -5 21 29 6 35 3 45 -16 66
-28 30 -17 31 28 3 36 -22 94 -28 148 -14 l30 7 -35 -24 c-23 -15 -35 -32 -36
-48 -1 -14 -3 -36 -5 -50 -6 -45 13 -36 34 17 16 37 33 59 62 78 36 24 46 26
98 20 32 -3 67 -10 79 -14 11 -4 45 -1 77 8 56 14 111 10 111 -9 0 -6 -18 -10
-40 -10 -43 0 -92 -18 -84 -31 3 -5 20 -9 37 -9 53 0 108 -25 165 -75 29 -26
51 -50 48 -53 -3 -2 -12 1 -21 8 -8 7 -15 9 -15 6 0 -4 -13 7 -29 23 -16 16
-42 36 -57 44 -39 20 -136 39 -157 31 -28 -10 -19 -24 16 -24 33 0 76 -22 140
-72 29 -24 44 -29 67 -24 16 3 32 1 36 -5 3 -6 13 -8 21 -5 10 4 13 0 11 -16
-2 -16 -15 -25 -50 -35 -54 -15 -57 -22 -27 -49 21 -19 20 -19 -102 -37 -68
-10 -165 -21 -216 -24 -61 -3 -96 -10 -104 -19 -6 -8 -17 -14 -25 -14 -20 0
-28 21 -13 31 23 15 -10 30 -49 24 -21 -4 -42 0 -61 11 -27 16 -31 16 -72 -4
-37 -18 -53 -20 -94 -13 -28 4 -67 15 -88 24 -20 9 -58 17 -84 19 -35 1 -57
10 -90 35 -24 18 -49 33 -56 33 -6 0 -36 11 -65 25 -30 14 -63 25 -73 25 -27
0 -24 11 17 64 20 26 34 49 32 51 -1 2 -37 -2 -79 -9 -60 -9 -92 -9 -150 0
-47 8 -78 9 -83 3 -15 -14 -96 -11 -96 4 0 26 -55 62 -93 61 -40 -1 -56 11
-38 29 6 6 11 17 11 24 0 25 54 95 94 122 23 16 58 34 79 41 23 7 35 16 30 21
-11 11 -127 -13 -177 -36 -33 -16 -46 -17 -98 -7 -34 6 -64 9 -69 7 -9 -6
-156 23 -186 37 -12 6 -31 8 -42 5 -23 -6 -38 8 -21 18 19 12 10 22 -22 22
-18 0 -56 8 -84 19 -62 24 -53 39 25 43 30 1 62 6 71 11 9 5 26 6 38 3 25 -6
30 14 12 48 -14 25 -24 24 -38 -5 -6 -14 -22 -26 -39 -29 -134 -25 -315 -66
-321 -72 -2 -2 4 -15 13 -29 25 -37 62 -34 121 11 37 27 43 30 25 10 -13 -14
-27 -45 -32 -69 -12 -65 -11 -312 2 -345 6 -15 15 -44 19 -63 5 -19 15 -60 24
-91 16 -59 15 -66 -15 -168 -17 -57 -27 -167 -11 -116 4 11 14 30 22 41 17 23
50 39 50 24 0 -5 8 -14 19 -19 16 -9 17 -7 13 14 -2 15 0 25 7 25 6 0 11 9 11
20 0 11 5 20 10 20 6 0 10 7 10 15 0 18 -12 19 -28 3 -23 -23 -37 9 -38 85 0
52 -5 81 -19 103 -29 50 2 89 36 47 11 -13 11 -17 2 -20 -15 -5 -18 -33 -3
-33 5 0 7 -13 3 -30 -4 -22 -2 -30 7 -28 7 2 15 -3 17 -9 3 -7 0 -13 -6 -13
-15 0 12 -64 43 -100 24 -29 24 -29 30 -7 3 12 1 24 -4 25 -15 5 -12 28 5 42
8 6 13 21 12 32 -3 28 20 34 28 9 3 -12 13 -21 21 -21 17 0 19 31 2 48 -9 9
-9 15 1 24 11 10 14 10 18 1 3 -7 11 -13 18 -13 14 0 10 -35 -7 -57 -5 -7 -7
-17 -4 -22 4 -5 -1 -14 -11 -19 -16 -9 -16 -11 0 -27 9 -9 17 -22 17 -28 0 -7
4 -6 9 3 6 8 7 18 4 24 -4 5 9 7 33 3 l39 -6 -24 20 c-19 16 -21 22 -11 34 10
12 10 15 -3 15 -23 0 -32 21 -13 32 9 5 16 18 16 30 0 16 -5 19 -24 16 -19 -4
-22 -1 -18 14 3 14 11 18 26 14 11 -3 27 -6 34 -6 6 0 12 -6 12 -14 0 -8 7
-16 15 -20 8 -3 15 -13 15 -22 0 -20 28 -43 52 -44 9 0 18 -8 20 -17 2 -12 14
-18 36 -19 17 -1 32 2 32 6 0 4 16 20 35 34 30 23 38 25 57 15 21 -11 20 -13
-30 -35 -29 -13 -52 -28 -52 -34 0 -6 18 -1 41 10 48 25 66 17 26 -12 -15 -11
-27 -28 -27 -38 0 -10 -5 -20 -12 -22 -9 -3 -9 -6 0 -12 7 -4 12 -2 12 3 0 16
50 13 56 -3 5 -12 9 -11 25 5 10 10 19 24 19 29 0 6 6 10 13 10 8 0 14 6 15
13 8 90 16 138 23 143 4 2 11 -23 15 -56 4 -33 11 -60 15 -60 5 0 9 -4 9 -10
0 -5 -6 -9 -12 -7 -8 1 -14 -10 -15 -28 -3 -29 -2 -29 9 -7 16 32 31 27 23 -8
-9 -39 3 -57 22 -33 11 14 16 15 20 5 4 -10 11 -8 29 9 l24 22 0 -25 c0 -20 4
-24 23 -22 12 1 25 3 30 3 4 1 15 17 24 36 16 33 69 72 81 60 8 -8 -20 -55
-32 -55 -6 0 -12 -15 -13 -34 -1 -29 1 -33 18 -29 10 3 45 28 78 57 104 92
100 89 118 71 14 -14 14 -18 -2 -35 -22 -25 -14 -37 9 -15 15 15 17 15 22 0 4
-8 0 -23 -8 -33 -30 -35 -31 -43 -3 -32 33 12 51 4 34 -16 -7 -8 -7 -14 -1
-14 5 0 29 24 53 54 44 55 76 73 93 56 7 -7 6 -10 -1 -10 -18 0 -133 -110
-133 -127 0 -9 23 9 53 41 53 56 74 70 63 41 -3 -9 12 -4 42 15 25 16 48 27
50 25 7 -6 -102 -104 -115 -105 -6 0 -15 -4 -18 -10 -9 -14 26 0 50 20 29 26
105 62 118 57 7 -2 -6 -13 -28 -24 -40 -21 -112 -83 -96 -83 5 0 14 6 20 14
13 15 94 56 111 56 5 0 -8 -16 -30 -36 -31 -28 -38 -40 -29 -50 6 -7 8 -18 4
-23 -13 -22 26 2 66 40 40 38 41 40 25 58 -10 11 -13 22 -8 25 17 10 42 -5 42
-25 0 -10 6 -19 14 -19 8 0 13 8 12 17 -1 13 7 18 26 18 15 1 35 9 46 18 23
21 43 22 36 2 -4 -8 -12 -15 -20 -15 -20 0 -77 -57 -69 -69 6 -11 55 -11 55
-1 0 3 22 18 49 33 44 23 51 24 62 11 11 -13 10 -15 -2 -13 -19 5 -72 -28 -88
-53 -16 -25 -9 -33 18 -18 13 7 28 7 39 2 9 -5 23 -7 29 -5 7 3 16 -3 19 -11
4 -11 10 -13 18 -7 7 6 31 14 54 20 36 8 41 7 31 -5 -6 -8 -17 -14 -24 -14 -7
0 -18 -7 -25 -15 -10 -12 -5 -17 27 -30 34 -15 40 -15 65 -1 31 19 42 20 32 4
-5 -8 -2 -9 9 -5 49 20 52 20 40 6 -20 -21 -15 -29 16 -29 17 0 33 -4 36 -10
12 -20 26 -10 15 10 -12 23 2 27 20 5 8 -9 10 -27 6 -47 l-6 -32 22 21 c13 12
35 26 51 32 33 13 217 11 235 -2 22 -17 22 -2 1 39 -16 33 -19 50 -13 104 4
36 13 81 20 100 7 19 15 55 18 80 3 25 5 46 5 48 1 2 6 0 11 -3 6 -3 10 -26
10 -51 0 -32 4 -44 15 -44 8 0 15 5 15 10 0 6 4 10 10 10 11 0 2 -29 -17 -51
-11 -14 -11 -20 2 -45 8 -16 15 -36 15 -44 0 -8 14 13 30 48 17 35 37 65 45
68 8 4 15 12 15 20 0 8 9 23 19 33 33 33 41 57 41 119 0 60 -19 123 -46 149
-8 8 -14 19 -14 24 0 5 -5 9 -10 9 -6 0 -10 -6 -9 -12 4 -40 -29 -75 -46 -48
-9 14 -52 13 -61 -2 -4 -6 3 -19 16 -30 12 -10 20 -21 17 -25 -4 -3 -2 -12 3
-18 15 -18 1 -45 -22 -45 -28 0 -58 18 -58 35 0 28 -21 15 -37 -22 -16 -39
-53 -93 -53 -77 0 5 13 36 29 69 27 55 28 61 13 72 -45 33 -104 102 -118 140
-20 51 -13 86 21 101 29 13 33 32 8 32 -17 1 -17 1 -1 10 11 7 27 4 55 -10 68
-36 155 -58 184 -48 19 7 41 4 80 -10 32 -11 69 -17 92 -14 36 4 41 1 93 -56
41 -44 60 -58 75 -55 19 5 23 -3 20 -39 -2 -14 5 -18 32 -18 31 0 34 2 29 26
-6 33 -44 58 -76 50 -25 -6 -40 11 -45 54 0 6 -12 15 -26 20 -14 5 -25 14 -25
19 0 17 64 -10 90 -38 31 -33 69 -50 129 -57 25 -3 62 -15 81 -27 19 -12 39
-22 45 -22 5 0 25 -6 43 -14 18 -7 36 -10 40 -6 11 10 -50 55 -75 55 -13 0
-23 5 -23 10 0 6 -7 10 -15 10 -8 0 -20 9 -27 20 -7 11 -20 20 -28 20 -17 0
-40 19 -40 32 0 4 7 8 16 8 8 0 12 -4 9 -10 -8 -13 1 -13 25 0 14 7 20 6 24
-6 4 -11 14 -15 33 -11 18 3 39 -3 65 -20 47 -31 106 -37 136 -12 30 23 28 29
-10 29 -28 1 -68 19 -68 31 0 10 138 8 163 -3 20 -8 31 -8 39 0 8 8 17 8 30 1
11 -6 24 -8 31 -6 7 2 0 10 -15 17 -16 7 -28 17 -28 22 0 4 -13 8 -30 8 -16 0
-47 7 -68 15 -22 9 -43 15 -48 14 -5 -1 -17 -1 -26 0 -20 1 -25 21 -5 21 22 0
17 38 -6 45 -12 3 -17 9 -10 11 6 3 31 -4 55 -15 55 -26 119 -40 152 -34 l26
5 -23 22 c-13 11 -40 30 -60 41 -41 22 -52 51 -15 42 12 -3 29 -2 39 3 12 7
21 5 29 -5 20 -24 113 -46 157 -36 l38 8 -27 11 c-15 6 -35 9 -44 5 -11 -4
-26 6 -45 28 -35 41 -37 51 -5 39 25 -9 46 3 46 27 0 20 14 16 40 -12 31 -33
58 -35 36 -3 -18 25 -21 42 -7 34 13 -8 42 4 35 15 -3 5 0 9 7 9 6 0 9 -8 6
-19 -3 -13 6 -30 29 -52 36 -35 55 -33 36 4 -20 40 -4 137 23 137 6 0 24 11
40 24 15 13 41 27 57 30 25 5 28 9 22 31 -7 30 18 44 42 24 8 -7 36 -12 61
-12 25 0 57 -6 72 -13 14 -8 35 -14 46 -14 11 0 31 -9 45 -20 14 -11 33 -20
42 -20 9 0 20 -4 23 -10 7 -12 25 -13 25 -2 0 4 -26 20 -58 35 -35 18 -66 41
-76 58 -9 16 -26 29 -36 29 -10 0 -21 4 -24 9 -3 4 -23 11 -43 15 -55 9 -70
20 -53 40 7 9 20 14 29 11 10 -3 27 4 40 16 l22 21 25 -23 c13 -12 24 -27 24
-32 0 -14 69 -97 81 -97 5 0 0 15 -11 33 -20 31 -26 68 -14 80 3 3 28 -16 56
-44 49 -49 68 -60 68 -36 -1 22 -54 90 -73 93 -35 5 -47 13 -47 34 0 11 -4 20
-10 20 -5 0 -7 7 -4 15 5 11 2 13 -10 9 -23 -9 -20 15 5 42 17 18 26 21 40 13
11 -5 19 -16 19 -24 0 -16 58 -60 67 -51 3 3 -2 8 -11 12 -9 3 -16 16 -16 28
0 12 -6 28 -12 34 -7 7 -13 26 -14 41 -1 22 5 32 24 40 22 10 23 13 9 24 -14
11 -14 14 -2 31 12 16 18 17 27 8 7 -7 18 -12 25 -12 18 0 17 55 -2 70 -9 7
-13 21 -10 31 4 11 2 19 -4 19 -6 0 -11 -5 -11 -12 0 -8 -3 -9 -10 -2 -13 13
-20 124 -9 124 5 0 7 18 4 40 -3 23 -1 40 5 40 12 0 31 -35 24 -43 -3 -3 1
-16 10 -29 9 -12 16 -37 16 -54 0 -17 7 -37 15 -44 8 -7 15 -20 15 -29 0 -13
2 -13 9 -3 10 17 4 96 -11 137 -16 44 -47 74 -102 101 -58 28 -81 31 -72 9 3
-8 1 -15 -4 -15 -6 0 -10 -7 -10 -15 0 -8 -3 -15 -6 -15 -11 0 -74 74 -74 87
0 7 -5 13 -10 13 -6 0 -8 -20 -4 -55 4 -35 3 -55 -4 -55 -5 0 -13 8 -16 17
-14 37 -62 103 -78 108 -10 4 -18 12 -18 18 0 7 -14 26 -30 44 -17 18 -30 37
-30 42 0 6 -7 11 -16 11 -11 0 -14 6 -9 22 6 16 4 20 -8 15 -11 -4 -14 -2 -10
9 3 9 0 12 -9 9 -15 -6 -76 51 -65 61 4 4 13 1 22 -6 28 -24 26 -4 -4 27 -19
20 -33 27 -39 21 -6 -6 -12 -6 -16 1 -4 6 -2 11 3 11 6 0 11 7 11 16 0 10 -6
14 -15 10 -9 -3 -15 0 -15 10 0 15 -34 52 -82 90 -28 22 -68 86 -68 108 0 8
-11 21 -24 29 -29 19 -37 12 -56 -48 -16 -51 -146 -314 -165 -335 -8 -9 -15
-20 -15 -25 0 -10 -89 -145 -95 -145 -8 0 25 62 45 85 52 60 235 459 254 555
4 19 17 61 28 93 15 44 18 73 14 120 -7 87 -7 86 -22 147 -18 68 -17 75 0 60
8 -6 16 -24 18 -38 2 -22 9 -28 36 -30 23 -2 32 1 32 11 0 13 17 23 74 41 18
6 18 8 4 22 -21 22 -169 29 -303 15 -92 -9 -121 -17 -178 -46 l-69 -34 25 32
c13 17 33 32 43 32 11 0 23 10 29 23 6 14 18 22 33 22 20 0 21 2 10 14 -17 16
-77 9 -85 -10 -3 -8 -9 -14 -15 -14 -5 0 -6 5 -2 11 3 6 1 15 -7 19 -10 7 -10
12 -1 23 7 8 10 21 7 29 -4 9 6 25 24 41 33 27 31 40 -4 31 -17 -4 -24 0 -30
18 -9 28 -9 28 0 58 l7 25 -21 -24 c-11 -13 -21 -20 -21 -15 0 5 -4 2 -10 -6
-18 -28 -23 0 -7 37 34 75 17 130 -17 58 -9 -19 -21 -35 -26 -35 -6 0 -10 -8
-10 -17 0 -9 -3 -13 -7 -10 -12 13 -2 109 18 161 24 63 24 79 2 74 -10 -2 -17
-10 -15 -17 1 -7 -2 -10 -7 -7 -5 4 -11 2 -13 -4 -2 -6 -9 -6 -18 0 -13 8 -13
18 1 87 9 43 15 80 13 82 -10 11 -35 -28 -54 -85 -12 -36 -24 -63 -26 -61 -7
7 -14 73 -18 165 -4 79 13 182 35 208 5 6 6 14 3 17 -9 8 -84 -71 -85 -89 -1
-8 -3 -18 -4 -24 -1 -5 -3 -15 -4 -22 -3 -30 -15 7 -12 39 3 33 1 35 -22 29
-22 -5 -24 -3 -21 21 1 15 -1 35 -6 44 -8 14 -6 16 10 12 11 -3 20 -1 20 3 1
5 11 22 24 38 23 27 25 28 47 12 27 -18 39 -20 39 -6 0 14 -52 37 -72 33 -17
-4 -19 -1 -34 75 -3 15 0 22 11 22 8 0 15 -5 15 -12 0 -6 2 -9 5 -6 11 10 -8
38 -23 36 -9 -2 -18 5 -20 14 -2 13 1 16 12 12 13 -5 16 1 16 30 0 43 14 46
34 9 20 -37 20 -25 1 22 -14 32 -18 35 -33 23 -15 -11 -15 -11 -5 3 7 9 10 19
6 22 -3 4 -2 7 3 7 7 0 118 -147 169 -224 12 -19 13 -18 49 9 36 27 36 27 63
9 16 -10 37 -19 48 -20 11 -1 29 -5 40 -9 14 -6 12 -1 -7 14 -15 12 -32 20
-37 16 -6 -3 -19 4 -30 16 -11 12 -26 19 -35 16 -11 -4 -22 9 -40 46 -13 29
-44 72 -68 97 -45 47 -78 90 -78 103 0 4 13 7 29 7 35 0 43 10 47 56 3 39 -5
43 -24 13 -17 -26 -26 -18 -26 24 -1 29 -4 32 -31 30 -35 -3 -90 -56 -81 -79
4 -11 -2 -10 -20 5 -29 23 -67 30 -46 9 17 -17 15 -33 -3 -18 -8 6 -20 10 -27
7 -7 -3 1 -10 19 -17 33 -12 63 -48 63 -75 0 -25 -13 -18 -56 32 -35 40 -46
47 -78 47 -20 0 -36 4 -36 9 0 4 -14 21 -31 37 -27 24 -38 28 -74 24 -39 -3
-45 0 -67 29 -47 61 -62 145 -33 183 19 25 19 48 0 64 -12 10 -13 16 -3 27 10
12 9 18 -5 28 -9 7 -17 18 -17 26 -1 10 -4 9 -14 -4 -7 -9 -11 -28 -9 -41 3
-13 0 -27 -6 -30 -6 -4 -12 -1 -12 6 -2 23 -6 63 -7 77 -1 8 -8 11 -18 7 -12
-4 -14 -1 -9 14 4 11 2 20 -3 20 -5 0 -12 -10 -15 -22z m113 -134 c0 -8 -7
-14 -15 -14 -15 0 -21 21 -9 33 10 9 24 -2 24 -19z m418 -359 c-3 -3 -9 2 -12
12 -6 14 -5 15 5 6 7 -7 10 -15 7 -18z m-109 -85 c-5 -25 -12 -65 -16 -90 -5
-39 -7 -42 -15 -20 -8 22 -5 39 28 149 10 31 12 3 3 -39z m-929 -40 c0 -5 -2
-10 -4 -10 -3 0 -8 5 -11 10 -3 6 -1 10 4 10 6 0 11 -4 11 -10z m1193 -69 c31
-32 57 -62 57 -65 0 -12 -25 -5 -45 12 -26 21 -89 112 -78 112 4 0 34 -27 66
-59z m-349 18 c3 -17 6 -55 6 -83 0 -115 19 -226 81 -486 6 -25 29 -97 50
-161 22 -63 39 -123 39 -132 0 -9 13 -57 29 -107 16 -49 27 -90 25 -90 -7 0
-37 65 -56 124 -11 34 -30 86 -43 116 -13 30 -30 73 -39 95 l-16 40 6 -50 c4
-27 20 -89 35 -137 31 -94 35 -118 19 -118 -5 0 -9 3 -8 8 1 4 -4 18 -11 31
-7 13 -17 38 -23 55 -19 66 -77 365 -83 436 -4 41 -13 102 -20 136 -12 54 -20
210 -16 317 1 45 16 49 25 6z m-831 -17 c-9 -2 -19 2 -24 10 -16 24 -9 29 15
11 19 -14 21 -19 9 -21z m-93 8 c0 -5 -4 -10 -10 -10 -5 0 -10 5 -10 10 0 6 5
10 10 10 6 0 10 -4 10 -10z m40 -45 c11 -13 10 -14 -4 -9 -9 3 -16 10 -16 15
0 13 6 11 20 -6z m941 -90 c-4 -31 -9 -45 -14 -37 -10 15 3 107 13 95 4 -4 5
-30 1 -58z m-883 43 c14 -14 16 -28 2 -28 -5 0 -14 9 -20 20 -12 22 -1 27 18
8z m945 -88 c-3 -11 -9 -20 -14 -20 -13 0 -11 14 3 28 9 9 9 12 0 12 -8 0 -12
16 -11 43 l0 42 14 -43 c7 -23 11 -51 8 -62z m-998 80 c3 -5 2 -10 -4 -10 -5
0 -13 5 -16 10 -3 6 -2 10 4 10 5 0 13 -4 16 -10z m713 -51 c-3 -8 -7 -3 -11
10 -4 17 -3 21 5 13 5 -5 8 -16 6 -23z m-638 -23 c0 -5 -9 -1 -20 9 -11 10
-17 22 -14 27 6 9 33 -20 34 -36z m-62 12 c-5 -15 -23 -11 -26 6 -2 11 2 14
13 10 9 -4 14 -11 13 -16z m660 -30 c-18 -27 -32 -77 -29 -100 1 -9 -3 -19 -9
-23 -6 -4 -8 -20 -4 -41 4 -22 2 -34 -5 -34 -6 0 -11 -11 -11 -24 0 -14 -5
-28 -10 -31 -6 -4 -8 -11 -4 -16 3 -6 -1 -18 -10 -28 -9 -10 -14 -25 -10 -34
4 -11 0 -19 -10 -23 -9 -3 -16 -14 -16 -24 0 -10 -7 -23 -15 -30 -8 -7 -15
-21 -15 -31 0 -11 -7 -19 -15 -19 -8 0 -15 -4 -15 -10 0 -5 -16 -16 -35 -24
-19 -8 -35 -20 -35 -25 0 -19 -40 -12 -41 7 -1 9 -3 51 -4 92 -2 41 -7 97 -10
124 -5 42 -4 48 10 42 9 -3 22 2 31 13 9 10 24 16 34 14 12 -3 24 3 32 16 7
12 21 21 31 21 10 0 20 6 23 14 3 8 14 16 25 19 10 3 19 13 19 24 0 10 9 24
20 31 11 7 20 19 20 27 0 8 4 15 8 15 5 0 16 18 26 40 10 22 22 40 28 40 6 0
4 -10 -4 -22z m-588 -18 c11 -21 4 -25 -19 -11 -7 5 -10 14 -7 20 10 15 14 14
26 -9z m650 4 c0 -8 -4 -12 -10 -9 -5 3 -10 10 -10 16 0 5 5 9 10 9 6 0 10 -7
10 -16z m204 -15 c3 -17 6 -50 5 -73 l-1 -41 -9 45 c-4 25 -10 57 -13 73 -3
15 -2 27 3 27 5 0 11 -14 15 -31z m-914 6 c7 -9 10 -18 7 -22 -8 -7 -37 15
-37 28 0 14 16 11 30 -6z m693 -50 c-7 -21 -13 -19 -13 6 0 11 4 18 10 14 5
-3 7 -12 3 -20z m-558 -79 c22 -31 44 -56 49 -56 5 0 19 -11 32 -25 14 -15 29
-22 38 -19 9 4 18 0 22 -10 3 -9 15 -16 25 -16 17 0 19 -9 20 -107 2 -127 1
-136 -14 -145 -38 -24 -125 63 -142 142 -4 19 -12 44 -18 55 -6 11 -10 27 -9
37 2 9 -2 19 -8 23 -5 3 -10 17 -10 29 0 13 -6 29 -14 35 -8 7 -12 20 -9 30 3
10 0 22 -6 25 -6 4 -11 18 -11 31 0 13 -4 27 -10 30 -5 3 -10 14 -10 23 1 19
3 16 75 -82z m-117 60 c3 -12 -1 -17 -10 -14 -7 3 -15 13 -16 22 -3 12 1 17
10 14 7 -3 15 -13 16 -22z m654 -48 c-9 -9 -12 -7 -12 12 0 19 3 21 12 12 9
-9 9 -15 0 -24z m-632 -20 c0 -12 -14 -10 -27 3 -6 6 -9 18 -6 27 5 13 8 12
20 -4 7 -10 13 -21 13 -26z m625 -27 c3 -5 1 -12 -5 -16 -5 -3 -10 1 -10 9 0
18 6 21 15 7z m-611 -33 c-3 -5 -12 -4 -20 3 -7 6 -11 15 -8 21 3 5 12 4 20
-3 7 -6 11 -15 8 -21z m940 -153 c35 -96 44 -137 29 -121 -17 17 -93 264 -92
296 0 8 7 -5 14 -30 7 -25 29 -90 49 -145z m-614 165 c0 -5 -4 -10 -10 -10 -5
0 -10 5 -10 10 0 6 5 10 10 10 6 0 10 -4 10 -10z m263 -33 c3 -8 1 -20 -4 -28
-6 -10 -9 -7 -9 14 0 29 5 35 13 14z m-573 -41 c0 -5 -7 -3 -15 4 -8 7 -12 17
-9 22 7 10 24 -9 24 -26z m546 -57 c-9 -13 -16 -33 -16 -46 0 -12 -5 -25 -11
-28 -6 -4 -8 -14 -5 -22 4 -9 1 -22 -5 -30 -7 -8 -14 -26 -15 -41 -6 -52 -25
-137 -36 -159 -5 -11 -7 -26 -3 -32 4 -7 2 -18 -5 -26 -6 -7 -10 -19 -9 -27 3
-17 -9 -68 -22 -90 -5 -10 -9 -28 -9 -41 0 -32 -60 -90 -102 -99 -18 -4 -34
-2 -36 3 -2 5 -14 9 -26 9 -50 0 -115 84 -107 138 1 8 -3 20 -9 27 -6 8 -10
25 -8 38 1 13 -2 30 -8 38 -13 16 -25 64 -25 96 1 12 -4 25 -9 28 -6 3 -7 17
-4 29 3 15 -1 29 -11 40 -9 9 -15 23 -12 30 3 8 -1 22 -8 33 -8 10 -15 27 -15
39 0 11 -3 24 -7 28 -7 7 -33 76 -33 90 0 5 7 3 15 -4 8 -7 15 -21 15 -31 0
-19 3 -27 34 -86 9 -17 16 -36 16 -42 0 -18 42 -71 57 -71 7 0 17 -9 23 -20 6
-11 21 -20 34 -20 34 0 53 -28 60 -92 17 -153 58 -143 49 12 -4 66 -3 70 16
70 12 0 26 9 33 19 6 10 17 17 24 14 7 -2 20 7 29 20 9 14 25 27 35 30 12 3
20 14 20 25 0 11 9 22 20 25 13 3 20 14 20 30 0 14 7 27 15 31 8 3 15 16 15
30 0 14 5 28 10 31 6 3 10 16 10 28 0 15 3 18 11 10 8 -8 7 -17 -5 -34z
m-1026 -85 c0 -8 -5 -12 -10 -9 -6 4 -8 11 -5 16 9 14 15 11 15 -7z m388 -309
c-3 -3 -9 2 -12 12 -6 14 -5 15 5 6 7 -7 10 -15 7 -18z m1346 -28 c17 -12 17
-14 2 -20 -9 -4 -16 -13 -16 -22 0 -9 -7 -15 -17 -13 -12 2 -19 -6 -24 -27
l-7 -30 -1 33 c0 17 4 32 10 32 7 0 9 10 7 25 -4 21 2 31 23 34 3 1 13 -5 23
-12z m-804 -107 c0 -5 -2 -10 -4 -10 -3 0 -8 5 -11 10 -3 6 -1 10 4 10 6 0 11
-4 11 -10z m-320 -10 c0 -5 -5 -10 -11 -10 -5 0 -7 5 -4 10 3 6 8 10 11 10 2
0 4 -4 4 -10z m827 -12 c-3 -8 -6 -5 -6 6 -1 11 2 17 5 13 3 -3 4 -12 1 -19z
m65 0 c12 -22 48 -117 48 -127 0 -3 -15 19 -34 49 -38 63 -52 100 -37 100 6 0
16 -10 23 -22z m-15 -108 c10 -30 31 -87 59 -155 7 -17 6 -18 -8 -7 -17 13
-82 172 -93 227 l-7 30 19 -30 c10 -16 24 -46 30 -65z m553 40 c25 -8 24 -8
-5 -9 -20 -1 -26 -4 -17 -10 24 -15 15 -291 -10 -291 -5 0 -7 -4 -4 -9 11 -17
-65 -245 -97 -294 -9 -15 -26 -50 -38 -79 -33 -87 -43 -108 -51 -108 -5 0 -8
-4 -8 -10 0 -5 -13 -31 -28 -57 -27 -47 -64 -133 -68 -163 -2 -8 -9 -19 -17
-25 -24 -18 -52 -68 -48 -89 2 -16 0 -18 -11 -9 -33 26 -111 63 -133 63 -14 0
-25 5 -25 11 0 6 -9 8 -20 4 -11 -3 -20 -4 -20 -1 0 7 41 115 80 211 39 94 68
199 95 345 18 95 58 244 78 291 11 25 13 46 7 72 -6 30 -4 42 12 62 29 37 135
84 214 94 86 11 84 11 114 1z m-3020 -10 c0 -5 -2 -10 -4 -10 -3 0 -8 5 -11
10 -3 6 -1 10 4 10 6 0 11 -4 11 -10z m76 -34 c38 -35 16 -38 -30 -5 -33 25
-36 29 -17 29 12 0 33 -11 47 -24z m154 2 c10 -6 7 -7 -10 -2 -14 3 -32 11
-40 16 -10 6 -7 7 10 2 14 -3 32 -11 40 -16z m2050 2 c0 -11 -4 -20 -9 -20 -5
0 -11 9 -14 20 -3 13 0 20 9 20 8 0 14 -9 14 -20z m-1990 -16 c0 -2 -7 -4 -15
-4 -8 0 -15 4 -15 10 0 5 7 7 15 4 8 -4 15 -8 15 -10z m45 -4 c3 -6 -1 -7 -9
-4 -18 7 -21 14 -7 14 6 0 13 -4 16 -10z m341 -97 c28 -64 28 -66 8 -80 -60
-44 -121 -25 -198 62 -32 37 -56 68 -54 70 3 3 45 8 94 11 49 4 91 8 92 10 13
10 34 -16 58 -73z m1624 -34 c0 -6 -4 -7 -10 -4 -5 3 -10 11 -10 16 0 6 5 7
10 4 6 -3 10 -11 10 -16z m-1360 -20 c0 -6 -4 -7 -10 -4 -5 3 -10 11 -10 16 0
6 5 7 10 4 6 -3 10 -11 10 -16z m1620 -60 c0 -6 -4 -7 -10 -4 -5 3 -10 11 -10
16 0 6 5 7 10 4 6 -3 10 -11 10 -16z m-1571 -54 c0 -5 -6 1 -14 15 -8 14 -14
30 -14 35 0 6 6 -1 14 -15 8 -14 14 -29 14 -35z m1361 5 c0 -5 -2 -10 -4 -10
-3 0 -8 5 -11 10 -3 6 -1 10 4 10 6 0 11 -4 11 -10z m-942 -21 c7 -11 10 -29
7 -40 -4 -11 -2 -19 5 -19 6 0 10 -10 9 -22 -1 -13 1 -43 4 -68 4 -25 8 -67
11 -95 2 -27 7 -63 11 -80 6 -29 6 -29 -9 -11 -12 15 -16 16 -16 5 -1 -11 -3
-10 -10 2 -5 9 -12 75 -14 145 -6 141 -9 170 -19 180 -4 4 -7 11 -7 16 0 15
15 8 28 -13z m-583 -9 c-3 -5 -11 -10 -16 -10 -6 0 -7 5 -4 10 3 6 11 10 16
10 6 0 7 -4 4 -10z m1475 -195 c0 -8 -4 -15 -10 -15 -5 0 -10 7 -10 15 0 8 5
15 10 15 6 0 10 -7 10 -15z m-573 -46 l3 -24 -10 23 c-5 12 -14 22 -19 22 -5
0 -12 7 -15 16 -6 15 -4 15 16 2 13 -9 24 -26 25 -39z m-47 -51 c0 -18 -2 -20
-9 -8 -6 8 -7 18 -5 22 9 14 14 9 14 -14z m69 -27 c-13 -4 -15 -2 -23 29 l-7
25 20 -25 c11 -14 15 -27 10 -29z m1381 28 c0 -6 -4 -7 -10 -4 -5 3 -10 11
-10 16 0 6 5 7 10 4 6 -3 10 -11 10 -16z m-80 1 c0 -5 -4 -10 -10 -10 -5 0
-10 5 -10 10 0 6 5 10 10 10 6 0 10 -4 10 -10z m40 -15 c7 -8 18 -15 25 -15 7
0 16 -7 19 -16 4 -10 13 -13 24 -10 11 4 28 -2 42 -14 13 -11 18 -20 12 -20
-6 0 -14 5 -17 10 -3 6 -13 10 -22 10 -12 0 -9 -9 13 -37 16 -21 36 -47 46
-57 10 -11 18 -23 18 -27 0 -5 17 -24 38 -44 32 -29 38 -40 34 -65 -2 -17 0
-36 6 -43 5 -6 13 -27 17 -44 6 -31 25 -47 25 -22 0 6 7 9 15 5 18 -7 20 8 3
26 -13 13 -48 83 -48 96 0 8 95 -91 103 -109 4 -8 16 -27 26 -44 21 -33 28
-95 10 -95 -6 0 -9 7 -5 15 6 17 -50 58 -66 49 -4 -3 -13 -2 -19 2 -8 5 -8 9
1 14 7 4 10 13 6 18 -10 16 -37 2 -34 -17 1 -9 -1 -22 -6 -30 -5 -8 -4 -16 4
-21 9 -6 6 -9 -11 -12 -13 -2 -23 -9 -21 -16 1 -8 -16 -12 -57 -12 -63 0 -57
-4 -125 80 -33 42 -76 110 -76 122 0 7 13 -7 29 -32 16 -25 51 -69 78 -97 40
-44 55 -53 83 -53 84 0 94 96 19 191 -15 20 -33 58 -40 83 -9 38 -27 61 -95
129 -46 45 -84 90 -84 100 0 21 13 22 30 2z m-1175 -23 c14 -10 18 -42 6 -42
-11 0 -24 18 -27 38 -2 13 6 15 21 4z m-421 -124 c8 -35 59 -94 99 -115 17 -8
62 -26 101 -39 72 -25 206 -99 206 -115 0 -5 7 -9 15 -9 8 0 15 -9 15 -20 0
-26 -6 -25 -44 3 -17 12 -44 29 -61 37 -16 8 -37 19 -45 25 -8 7 -31 18 -50
25 -19 7 -59 24 -89 37 -29 13 -56 21 -59 18 -3 -3 -1 -5 5 -5 6 0 13 -7 17
-15 8 -23 -5 -18 -44 16 -26 23 -31 32 -21 39 11 6 9 10 -8 19 -12 7 -26 9
-32 5 -8 -4 -9 1 -4 16 6 18 4 22 -8 17 -19 -7 -39 43 -26 64 4 8 6 32 3 54
l-5 40 15 -35 c8 -19 17 -47 20 -62z m236 82 c0 -5 -4 -10 -10 -10 -5 0 -10 5
-10 10 0 6 5 10 10 10 6 0 10 -4 10 -10z m74 -201 c-9 -14 -34 9 -34 32 0 18
1 18 20 -1 12 -12 18 -25 14 -31z m396 -72 c0 -18 -4 -16 -25 15 -14 20 -25
43 -25 50 1 22 50 -42 50 -65z m870 38 c0 -5 -5 -3 -10 5 -5 8 -10 20 -10 25
0 6 5 3 10 -5 5 -8 10 -19 10 -25z m-116 -89 c19 -34 46 -78 60 -98 14 -21 37
-68 52 -105 15 -38 30 -72 35 -77 11 -12 12 -42 2 -32 -5 4 -8 11 -9 14 -2 16
-19 49 -44 87 -14 22 -31 53 -38 68 -7 15 -17 25 -22 22 -12 -7 -40 12 -40 27
0 6 7 8 15 4 13 -4 14 -2 5 14 -6 11 -16 19 -22 17 -6 -1 -14 12 -18 28 -8 38
-34 88 -54 104 -9 7 -13 18 -10 23 10 15 51 -31 88 -96z m-1298 37 c-7 -7 -26
7 -26 19 0 6 6 6 15 -2 9 -7 13 -15 11 -17z m509 -103 c4 -6 1 -10 -4 -10 -6
0 -11 5 -11 10 0 6 -11 15 -25 20 -14 5 -25 14 -25 20 0 11 54 -23 65 -40z
m678 -2 c32 -50 78 -154 90 -206 7 -31 -11 -24 -31 13 -9 17 -20 32 -23 35
-15 12 -42 78 -45 109 -1 18 -12 43 -23 55 -12 12 -21 28 -21 34 0 25 19 10
53 -40z m-139 -42 c-22 -36 -40 -61 -42 -57 -3 10 71 130 77 125 2 -2 -14 -32
-35 -68z m-736 25 c3 -8 -1 -12 -9 -9 -7 2 -15 10 -17 17 -3 8 1 12 9 9 7 -2
15 -10 17 -17z m-3000 -43 c-6 -18 -28 -21 -28 -4 0 9 7 16 16 16 9 0 14 -5
12 -12z m1277 -27 c-3 -6 -14 -11 -23 -11 -15 1 -15 2 2 15 21 16 32 13 21 -4z
m-1117 -35 c7 -7 -12 -36 -23 -36 -7 0 -15 -6 -18 -12 -3 -10 -9 -9 -22 3 -14
14 -15 19 -3 38 10 17 19 20 38 16 14 -4 26 -8 28 -9z m1072 4 c0 -5 7 -7 15
-4 23 9 18 -6 -10 -27 -13 -11 -34 -37 -46 -59 -20 -36 -73 -69 -87 -55 -3 3
0 5 6 5 6 0 13 13 17 29 3 16 24 45 46 64 21 20 39 40 39 46 0 6 5 11 10 11 6
0 10 -4 10 -10z m3533 -5 c-3 -9 -8 -14 -10 -11 -3 3 -2 9 2 15 9 16 15 13 8
-4z m-3443 -73 c0 -10 -58 -34 -72 -30 -6 2 4 13 23 25 32 19 49 21 49 5z
m2735 -197 c27 -44 78 -113 113 -154 l64 -73 -68 -35 c-38 -19 -80 -45 -94
-57 l-24 -21 15 25 c9 14 39 38 68 54 55 30 71 50 52 69 -8 8 -14 8 -23 -1 -7
-7 -20 -12 -29 -12 -38 0 -109 -58 -109 -88 0 -6 -5 -14 -10 -17 -7 -4 -9 2
-4 19 3 15 2 26 -4 26 -5 0 -12 8 -15 18 -4 9 -13 35 -21 57 -18 47 -22 80 -6
55 14 -23 22 -6 10 24 -14 38 -13 49 6 42 13 -5 15 2 12 44 -4 39 -1 50 9 46
9 -4 7 10 -7 47 -25 64 -25 94 -1 47 9 -19 39 -71 66 -115z m-461 111 c-3 -8
-13 -17 -22 -21 -13 -5 -13 -2 3 15 21 24 26 25 19 6z m570 -2 c3 -8 2 -12 -4
-9 -6 3 -10 10 -10 16 0 14 7 11 14 -7z m-2637 -7 c4 -7 44 -37 88 -67 78 -53
82 -55 160 -58 91 -4 118 -16 47 -20 -26 -1 -63 -11 -83 -22 -21 -10 -40 -16
-43 -13 -3 3 -12 -2 -21 -11 -16 -16 -65 -23 -65 -8 0 14 -73 5 -85 -11 -7 -9
-14 -14 -17 -11 -3 3 -22 -4 -42 -16 -20 -11 -43 -20 -51 -20 -8 0 -15 -4 -15
-9 0 -16 -73 -24 -203 -22 l-128 2 -41 -32 c-31 -25 -44 -30 -57 -22 -44 27
-13 112 50 137 22 9 45 16 53 16 7 0 21 8 30 19 21 23 74 43 194 71 77 19 104
31 150 66 63 48 67 50 79 31z m788 -27 c-3 -5 -11 -10 -16 -10 -6 0 -7 5 -4
10 3 6 11 10 16 10 6 0 7 -4 4 -10z m1468 -4 c9 -7 17 -19 16 -27 0 -10 -2
-11 -6 -1 -2 7 -14 17 -25 23 -18 10 -20 9 -15 -5 3 -8 -1 -39 -10 -68 -22
-71 -23 -88 -5 -109 8 -9 17 -41 19 -71 5 -78 12 -105 23 -88 5 8 12 12 15 8
3 -3 -1 -13 -10 -22 -15 -15 -15 -17 -1 -22 10 -4 16 -18 16 -38 0 -18 4 -36
10 -42 17 -17 36 -97 39 -159 2 -53 -1 -65 -27 -101 -16 -22 -33 -54 -36 -71
-9 -40 -35 -62 -78 -69 -51 -9 -64 13 -38 63 16 31 20 56 18 111 -1 40 -6 72
-10 72 -4 0 -8 12 -8 28 0 15 -7 38 -16 50 -8 12 -12 27 -8 33 4 7 -3 19 -16
29 -14 10 -23 29 -24 49 -1 18 -6 35 -12 39 -9 6 -23 32 -29 52 -8 31 -21 60
-36 81 -10 14 -16 29 -13 32 3 3 -5 8 -18 13 -13 4 -40 18 -60 30 -21 13 -47
24 -58 24 -19 0 -16 6 21 50 52 61 92 86 144 88 22 1 60 8 85 16 58 18 130 19
153 2z m489 -165 c72 -106 69 -98 53 -111 -8 -7 -15 -19 -15 -26 0 -19 -24
-18 -40 1 -11 13 -10 14 2 10 8 -3 21 1 28 10 11 13 8 19 -14 40 -32 30 -37
31 -29 8 5 -15 3 -15 -10 2 -8 10 -12 26 -9 34 4 10 1 12 -8 6 -10 -6 -12 -4
-7 8 7 18 -8 24 -18 7 -6 -10 -15 -3 -43 32 -11 14 -11 21 4 43 12 18 15 38
11 72 l-5 47 35 -69 c19 -38 48 -89 65 -114z m-867 111 c-17 -15 -63 -65 -103
-110 -87 -97 -158 -142 -287 -183 -16 -5 -46 -8 -65 -8 -34 1 -34 2 10 11 52
11 120 38 120 48 0 3 29 25 63 48 35 23 75 55 88 70 14 15 40 38 58 52 18 14
38 30 45 36 13 13 89 63 96 63 2 1 -9 -12 -25 -27z m406 -165 c-6 -16 -11 -41
-11 -53 0 -13 -5 -24 -11 -24 -6 0 -8 8 -5 18 2 9 8 49 11 87 9 106 19 132 23
61 2 -32 -2 -72 -7 -89z m-581 115 c0 -18 -103 -86 -113 -75 -7 7 27 40 66 63
35 22 47 25 47 12z m-125 -92 c3 -6 -3 -10 -15 -10 -12 0 -18 -4 -15 -10 4 -6
3 -9 -2 -8 -4 2 -23 -3 -41 -11 -25 -10 -36 -11 -45 -2 -8 8 -5 11 11 11 13 0
25 7 29 16 3 8 12 13 19 10 7 -3 16 0 20 6 4 7 3 8 -4 4 -13 -7 -17 6 -6 17 8
7 40 -8 49 -23z m-1425 10 c0 -5 -5 -10 -11 -10 -5 0 -7 5 -4 10 3 6 8 10 11
10 2 0 4 -4 4 -10z m945 -30 c-3 -5 -16 -10 -28 -10 -18 0 -19 2 -7 10 20 13
43 13 35 0z m345 -5 c0 -8 -4 -15 -10 -15 -5 0 -7 7 -4 15 4 8 8 15 10 15 2 0
4 -7 4 -15z m-717 -2 c-7 -2 -19 -2 -25 0 -7 3 -2 5 12 5 14 0 19 -2 13 -5z
m227 -11 c0 -4 -17 -6 -37 -4 -59 5 -63 10 -10 11 26 1 47 -3 47 -7z m47 2
c-3 -3 -12 -4 -19 -1 -8 3 -5 6 6 6 11 1 17 -2 13 -5z m839 -4 c55 -21 124
-95 124 -133 0 -10 9 -37 20 -59 11 -23 18 -44 15 -46 -3 -3 -13 13 -23 34 -9
21 -30 58 -45 81 -15 24 -27 47 -27 52 0 18 -51 49 -90 56 -22 4 -40 11 -40
16 0 12 32 11 66 -1z m-1498 -59 c-10 -21 -21 -54 -24 -72 -5 -31 -3 -35 28
-49 26 -11 29 -15 14 -18 -10 -2 -30 5 -45 16 -20 15 -25 27 -23 51 1 22 -4
34 -18 43 -11 7 -20 21 -20 31 0 15 4 13 23 -9 l24 -27 22 37 c30 48 44 46 19
-3z m96 28 c-3 -6 -1 -15 5 -19 9 -5 8 -16 -5 -43 -16 -34 -16 -38 -1 -55 9
-10 14 -21 11 -24 -3 -4 -1 -16 5 -27 13 -23 61 -26 61 -3 0 7 5 10 10 7 6 -3
10 -15 10 -26 0 -11 10 -23 23 -28 12 -5 33 -19 47 -31 l25 -22 -24 7 c-13 4
-52 20 -85 36 -34 16 -66 29 -73 29 -7 0 -17 9 -23 20 -6 10 -26 27 -46 36
-31 15 -35 21 -31 43 11 56 27 81 59 95 42 18 40 18 32 5z m-873 -33 c-7 -8
-26 -19 -43 -25 -35 -12 -32 -7 9 20 34 22 49 24 34 5z m675 -5 c-3 -5 -15 -7
-26 -4 -28 7 -25 13 6 13 14 0 23 -4 20 -9z m879 -1 c17 -7 15 -9 -12 -9 -18
-1 -33 4 -33 9 0 12 17 12 45 0z m-1495 -4 c0 -11 -80 -56 -100 -56 -18 0 -10
7 31 29 54 28 69 34 69 27z m895 -26 c-4 -12 -9 -19 -12 -17 -3 3 -2 15 2 27
4 12 9 19 12 17 3 -3 2 -15 -2 -27z m692 14 c-3 -3 -12 -4 -19 -1 -8 3 -5 6 6
6 11 1 17 -2 13 -5z m166 -15 c-5 -5 -37 -4 -73 0 l-65 9 73 0 c40 -1 69 -5
65 -9z m1305 -29 c-26 -22 -38 -25 -38 -10 0 6 11 16 25 22 14 6 25 16 26 22
0 6 3 5 6 -2 2 -7 -6 -21 -19 -32z m-3028 14 c-17 -19 -37 -29 -75 -38 -24 -5
-21 -1 20 23 57 33 73 38 55 15z m100 11 c0 -8 -91 -57 -96 -52 -3 3 16 17 43
31 54 28 53 28 53 21z m740 -35 c0 -5 -5 -10 -11 -10 -5 0 -7 5 -4 10 3 6 8
10 11 10 2 0 4 -4 4 -10z m1250 -20 c0 -21 33 -29 45 -10 12 19 25 -1 14 -21
-10 -19 -9 -20 11 -9 20 11 21 10 10 -9 -9 -18 -8 -22 7 -28 10 -4 23 -12 28
-19 6 -7 21 -14 35 -16 17 -2 25 -9 23 -22 -1 -13 2 -15 10 -7 17 17 27 13 27
-10 0 -11 -4 -17 -10 -14 -17 11 -11 -7 8 -21 9 -7 12 -14 5 -14 -6 0 -14 -17
-18 -38 -6 -38 -36 -69 -55 -57 -6 4 -19 -9 -30 -28 -11 -19 -32 -40 -48 -47
-39 -19 -132 -21 -159 -4 -13 8 -23 12 -23 9 0 -2 -11 0 -25 5 -22 8 -25 7
-23 -7 2 -9 -3 -18 -11 -21 -8 -2 -11 0 -8 6 4 6 -13 9 -48 7 -31 -1 -58 2
-61 6 -3 5 -19 9 -36 9 -20 0 -39 9 -57 28 -37 37 -63 57 -78 58 -7 1 -22 2
-34 3 -12 0 -17 5 -13 12 4 8 -1 9 -17 4 -32 -10 -34 -12 -19 -30 19 -23 3
-31 -20 -10 -15 13 -17 21 -9 31 6 7 7 18 3 25 -4 7 -8 31 -9 54 -1 33 3 45
19 55 16 10 22 9 33 -6 8 -11 21 -18 29 -16 8 2 14 -4 14 -13 0 -25 14 -17 28
15 8 17 21 30 31 30 10 0 26 9 36 20 25 27 47 26 43 -2 -2 -13 2 -25 7 -27 6
-2 16 -11 22 -20 11 -14 14 -14 23 -1 5 8 10 23 10 32 0 19 47 78 61 78 6 0 7
-6 3 -12 -4 -7 6 -1 22 13 31 28 124 50 124 30 0 -6 15 -2 33 9 40 25 47 25
47 0z m-1014 -50 c9 -31 22 -51 42 -62 16 -10 29 -24 29 -33 0 -33 -88 9 -119
57 -11 17 -12 32 -6 56 12 47 38 38 54 -18z m186 38 c3 -7 -2 -24 -9 -39 -22
-44 6 -146 53 -193 27 -28 187 -103 248 -116 65 -14 96 -32 41 -25 -93 14
-195 56 -328 136 -37 22 -75 75 -83 114 -6 36 7 96 28 119 16 18 45 21 50 4z
m154 -50 c-18 -29 -18 -98 1 -91 7 3 13 0 13 -6 0 -6 -5 -11 -11 -11 -6 0 -9
-14 -7 -32 2 -23 8 -33 20 -33 10 0 18 -4 18 -8 0 -4 0 -12 0 -19 0 -6 -7 -4
-18 5 -10 10 -23 17 -28 17 -5 0 -24 12 -41 28 -23 20 -32 38 -36 70 -5 37 -2
44 16 51 12 5 31 18 41 30 11 11 25 21 33 21 11 0 11 -4 -1 -22z m-341 -93
c16 -11 50 -30 75 -43 42 -20 43 -22 13 -17 -18 2 -49 12 -70 22 -21 9 -45 17
-53 17 -13 1 -27 32 -29 66 0 11 4 10 17 -5 9 -11 30 -29 47 -40z m1815 45 c0
-5 -7 -7 -15 -4 -10 4 -15 0 -15 -15 0 -14 -6 -21 -20 -21 -22 0 -26 20 -8 38
14 14 58 16 58 2z m44 -27 c-10 -7 -25 -13 -33 -12 -11 0 -12 2 -3 6 6 2 12
11 12 18 0 16 33 25 39 11 2 -5 -4 -15 -15 -23z m-567 5 c-3 -8 -6 -5 -6 6 -1
11 2 17 5 13 3 -3 4 -12 1 -19z m29 -63 c6 -19 10 -35 7 -35 -5 0 -33 65 -33
76 0 15 14 -8 26 -41z m-1581 -45 c3 -6 -1 -7 -9 -4 -18 7 -21 14 -7 14 6 0
13 -4 16 -10z m685 -10 c0 -5 -2 -10 -4 -10 -3 0 -8 5 -11 10 -3 6 -1 10 4 10
6 0 11 -4 11 -10z m873 -62 c-5 -37 -3 -49 5 -44 7 4 12 14 12 23 0 9 3 14 6
10 4 -3 2 -20 -4 -37 -10 -26 -8 -33 14 -56 13 -15 24 -36 23 -48 0 -21 -1
-21 -11 2 -6 12 -15 22 -19 22 -4 0 -13 16 -19 35 -6 19 -16 35 -21 35 -12 0
-11 26 2 73 14 52 19 46 12 -15z m-1478 -4 c111 -25 154 -33 253 -46 50 -6 92
-15 92 -20 0 -4 -6 -9 -12 -9 -49 -5 -76 -5 -98 2 -25 8 -203 30 -247 31 -13
0 -21 3 -18 8 9 15 -48 30 -115 30 -38 0 -72 5 -75 10 -10 16 141 12 220 -6z
m-1397 -56 c21 -34 45 -109 37 -116 -2 -3 -9 8 -15 24 -6 16 -22 50 -35 77
-26 53 -17 64 13 15z m2924 -10 c-8 -8 -9 -4 -5 13 4 13 8 18 11 10 2 -7 -1
-18 -6 -23z m43 -7 c-4 -17 -10 -31 -15 -31 -4 0 -3 16 3 35 13 42 22 39 12
-4z m-2885 -3 c11 -12 20 -26 20 -31 0 -6 -11 2 -25 17 -14 15 -25 29 -25 32
0 9 10 3 30 -18z m347 -13 c-14 -15 -42 -60 -63 -101 -30 -60 -35 -77 -24 -84
11 -7 10 -11 -3 -25 -10 -9 -17 -23 -17 -31 0 -8 -4 -14 -10 -14 -5 0 -10 7
-10 15 0 8 5 15 10 15 6 0 10 18 10 41 0 31 11 57 46 112 25 40 53 78 62 85
27 20 26 14 -1 -13z m1836 -8 c26 -6 47 -14 47 -18 0 -8 -106 14 -150 31 -20
8 -17 8 15 4 22 -3 61 -10 88 -17z m-2343 -6 c12 -24 13 -54 1 -47 -13 9 -32
66 -21 66 5 0 14 -9 20 -19z m159 -50 c0 -14 -1 -14 -6 -1 -3 8 -10 24 -15 35
-9 20 -9 20 6 1 9 -11 16 -27 15 -35z m2301 29 c12 -8 11 -10 -7 -10 -12 0
-25 5 -28 10 -8 13 15 13 35 0z m-2173 -22 c-3 -8 -6 -5 -6 6 -1 11 2 17 5 13
3 -3 4 -12 1 -19z m2773 -13 c7 -9 10 -18 7 -21 -10 -11 -37 5 -37 21 0 19 14
19 30 0z m-3055 -29 c9 -13 18 -49 20 -79 4 -49 2 -55 -17 -60 -23 -6 -38 -1
-38 13 0 5 7 7 15 4 19 -8 19 -5 0 40 -16 38 -11 47 11 19 21 -28 17 2 -6 47
-22 43 -10 55 15 16z m252 2 c-3 -8 -6 -5 -6 6 -1 11 2 17 5 13 3 -3 4 -12 1
-19z m141 -10 c-6 -18 -13 -27 -15 -21 -4 11 13 53 22 53 2 0 -1 -15 -7 -32z
m2532 12 c0 -5 -2 -10 -4 -10 -3 0 -8 5 -11 10 -3 6 -1 10 4 10 6 0 11 -4 11
-10z m-2601 -60 c3 0 7 -16 8 -35 2 -46 -4 -44 -17 6 -6 22 -13 48 -16 57 -2
9 1 7 7 -5 7 -13 15 -23 18 -23z m-109 -6 c7 -19 9 -38 6 -41 -3 -3 -21 6 -40
21 -19 14 -42 26 -51 26 -9 0 -14 4 -11 9 7 10 54 2 62 -10 11 -19 24 -9 14
11 -6 12 -7 20 -1 20 5 0 15 -16 21 -36z m157 -31 c-3 -10 -5 -2 -5 17 0 19 2
27 5 18 2 -10 2 -26 0 -35z m88 27 c-3 -5 -10 -10 -16 -10 -5 0 -9 5 -9 10 0
6 7 10 16 10 8 0 12 -4 9 -10z m34 -44 c-7 -14 -16 -26 -21 -26 -12 0 -10 8 8
36 21 31 29 25 13 -10z m56 -11 c-39 -32 -58 -32 -22 0 15 14 33 25 40 25 7
-1 -1 -12 -18 -25z m-376 -30 c11 -14 22 -31 25 -38 3 -9 7 -9 14 1 7 10 11 7
15 -15 5 -27 -6 -53 -24 -53 -5 0 -9 7 -9 15 0 29 -23 65 -39 61 -20 -6 -55
19 -47 32 3 6 0 13 -6 15 -10 4 -10 8 1 16 18 12 42 0 70 -34z m514 14 c-13
-13 -93 -50 -93 -44 0 9 75 55 89 55 11 0 12 -3 4 -11z m-133 -24 c-13 -14
-26 -22 -29 -19 -3 3 5 14 18 25 33 27 39 24 11 -6z m317 -10 c-15 -14 -33
-25 -40 -25 -7 0 1 12 16 25 15 14 33 25 40 25 7 0 -1 -12 -16 -25z m117 10
c-4 -8 -11 -15 -16 -15 -6 0 -5 6 2 15 7 8 14 15 16 15 2 0 1 -7 -2 -15z
m-654 -6 c0 -6 7 -9 15 -5 10 4 15 -1 15 -14 0 -11 -7 -20 -15 -20 -8 0 -15
-5 -15 -11 0 -6 -7 -9 -15 -6 -8 4 -17 2 -20 -3 -4 -6 -10 -10 -16 -10 -13 0
-11 54 3 68 15 15 48 16 48 1z m370 -4 c0 -2 -22 -16 -50 -30 -58 -29 -68 -19
-12 13 35 20 62 28 62 17z m224 -10 c-4 -8 -14 -15 -23 -15 -14 1 -13 3 3 15
25 19 27 19 20 0z m-807 -27 c28 -31 53 -85 32 -72 -5 3 -9 -2 -9 -10 0 -22
-17 -20 -30 3 -14 26 -13 38 2 23 7 -7 16 -12 20 -12 12 0 -6 30 -41 68 -16
17 -24 32 -17 32 6 0 26 -15 43 -32z m803 -78 c0 -5 -2 -10 -4 -10 -3 0 -8 5
-11 10 -3 6 -1 10 4 10 6 0 11 -4 11 -10z m-470 -25 c0 -8 -7 -15 -15 -15 -8
0 -15 -4 -15 -10 0 -5 -12 -10 -27 -9 l-28 1 28 11 c15 6 27 17 27 24 0 7 7
13 15 13 8 0 15 -7 15 -15z m-363 -67 c-3 -8 -6 -5 -6 6 -1 11 2 17 5 13 3 -3
4 -12 1 -19z m793 7 c0 -3 -9 -14 -20 -25 -22 -22 -28 -8 -7 15 12 14 27 20
27 10z m198 -32 c-15 -15 -31 -23 -35 -19 -9 8 32 46 50 46 7 0 -1 -12 -15
-27z m1132 -23 c0 -5 -9 -10 -19 -10 -11 0 -28 -2 -38 -5 -10 -3 -4 1 12 9 36
18 45 19 45 6z m-110 -16 c0 -17 -40 -65 -50 -59 -4 3 -11 -3 -14 -12 -5 -13
-9 -14 -15 -5 -6 10 -13 10 -35 -1 -22 -12 -24 -16 -11 -21 9 -3 22 -3 28 1 7
4 6 0 -1 -10 -8 -9 -11 -21 -7 -27 3 -5 1 -10 -4 -10 -6 0 -11 4 -11 9 0 5
-14 3 -31 -6 -34 -17 -34 -17 -43 15 -6 16 -3 22 8 22 15 0 21 12 17 33 -2 11
25 37 38 37 6 0 11 -4 11 -10 0 -5 4 -10 9 -10 6 0 7 16 4 35 l-6 35 57 -3
c33 -1 56 -7 56 -13z m206 -20 c-8 -14 -40 -51 -72 -82 -63 -61 -58 -50 21 46
53 65 72 78 51 36z m-386 7 c0 -5 -7 -11 -14 -14 -10 -4 -13 -1 -9 9 6 15 23
19 23 5z m-330 -5 c0 -11 -19 -15 -25 -6 -3 5 1 10 9 10 9 0 16 -2 16 -4z
m250 -22 c0 -8 -4 -12 -10 -9 -5 3 -10 10 -10 16 0 5 5 9 10 9 6 0 10 -7 10
-16z m343 -16 c-17 -32 -19 -38 -22 -65 0 -7 -8 -13 -17 -13 -14 0 -14 3 -4
15 11 13 8 15 -15 15 -20 0 -26 -4 -21 -16 3 -8 2 -12 -4 -9 -5 3 -19 -3 -31
-14 l-21 -19 21 -11 c29 -16 26 -25 -10 -38 -25 -10 -31 -9 -36 5 -4 8 -1 18
5 20 7 2 12 9 12 16 0 17 128 146 146 146 12 0 12 -5 -3 -32z m-299 -62 c-3
-8 -18 -20 -34 -26 -16 -7 -35 -18 -41 -26 -6 -8 -19 -14 -28 -14 -19 1 46 60
65 60 7 0 15 7 18 16 3 8 10 13 15 9 6 -3 8 -12 5 -19z m368 -42 c-26 -18 -19
-38 10 -31 16 4 17 3 7 -9 -6 -8 -18 -14 -25 -14 -8 0 -14 -4 -14 -10 0 -5
-18 -13 -41 -16 -28 -5 -43 -13 -49 -28 -7 -19 -9 -20 -15 -3 -8 20 16 53 46
62 11 4 19 16 19 27 0 17 2 18 15 8 12 -10 15 -10 15 3 0 16 14 25 40 26 9 1
6 -5 -8 -15z m-142 -14 c0 -5 -4 -10 -10 -10 -5 0 -10 5 -10 10 0 6 5 10 10
10 6 0 10 -4 10 -10z m31 -17 c-8 -15 -10 -15 -11 -2 0 17 10 32 18 25 2 -3
-1 -13 -7 -23z m-171 -8 c0 -8 -2 -15 -4 -15 -2 0 -6 7 -10 15 -3 8 -1 15 4
15 6 0 10 -7 10 -15z"/>
<path d="M3481 5214 c0 -11 3 -14 6 -6 3 7 2 16 -1 19 -3 4 -6 -2 -5 -13z"/>
<path d="M3492 5130 c0 -14 2 -19 5 -12 2 6 2 18 0 25 -3 6 -5 1 -5 -13z"/>
<path d="M3492 5065 c0 -16 2 -22 5 -12 2 9 2 23 0 30 -3 6 -5 -1 -5 -18z"/>
<path d="M3615 4671 c-3 -5 -1 -12 5 -16 5 -3 10 1 10 9 0 18 -6 21 -15 7z"/>
<path d="M4801 3040 c0 -8 4 -24 8 -34 6 -15 10 -16 16 -7 4 7 3 16 -2 20 -6
3 -13 13 -16 21 -5 13 -5 13 -6 0z"/>
<path d="M4890 2940 c0 -5 4 -10 9 -10 6 0 13 5 16 10 3 6 -1 10 -9 10 -9 0
-16 -4 -16 -10z"/>
<path d="M4795 2930 c-7 -12 18 -24 37 -18 8 3 5 9 -9 16 -14 8 -24 9 -28 2z"/>
<path d="M4830 2890 c0 -5 5 -10 10 -10 6 0 10 5 10 10 0 6 -4 10 -10 10 -5 0
-10 -4 -10 -10z"/>
<path d="M4350 3120 c-8 -5 -11 -12 -7 -16 4 -4 13 -2 19 4 15 15 7 24 -12 12z"/>
<path d="M4475 2390 c3 -5 8 -10 11 -10 2 0 4 5 4 10 0 6 -5 10 -11 10 -5 0
-7 -4 -4 -10z"/>
<path d="M4951 3044 c-1 -6 5 -17 12 -23 10 -8 14 -7 14 4 0 8 -4 12 -8 9 -4
-2 -10 2 -12 8 -4 8 -6 9 -6 2z"/>
<path d="M3366 6405 c-9 -24 -7 -35 4 -35 6 0 10 8 10 17 0 16 1 16 16 1 18
-18 11 -40 -11 -32 -7 3 -23 -4 -34 -15 -22 -22 -52 -27 -80 -12 -10 6 -23 6
-32 0 -10 -6 -8 -9 12 -9 15 0 32 -7 39 -15 13 -16 61 -21 74 -7 4 4 24 12 44
18 41 11 45 30 13 74 -22 30 -46 37 -55 15z"/>
<path d="M3476 6253 c-4 -5 -33 -9 -64 -11 -122 -6 -137 -7 -150 -15 -7 -5
-21 -5 -32 -2 -11 4 -20 2 -20 -3 0 -10 147 -25 161 -16 5 3 9 1 9 -5 0 -5 -8
-15 -17 -20 -16 -9 -16 -10 -2 -11 9 0 28 9 42 20 14 11 42 26 63 32 21 7 38
17 37 23 -2 13 -17 17 -27 8z"/>
<path d="M3290 6170 c8 -5 22 -9 30 -9 10 0 8 3 -5 9 -27 12 -43 12 -25 0z"/>
<path d="M3351 6151 c-41 -7 -55 -31 -18 -31 34 0 88 20 81 31 -6 10 -11 10
-63 0z"/>
<path d="M3120 6129 c0 -6 -7 -9 -15 -5 -8 3 -15 2 -15 -3 0 -16 13 -20 31
-10 20 10 26 29 9 29 -5 0 -10 -5 -10 -11z"/>
<path d="M4205 6029 c-4 -6 -5 -13 -2 -16 7 -7 27 6 27 18 0 12 -17 12 -25 -2z"/>
<path d="M3485 5680 c4 -6 11 -8 16 -5 14 9 11 15 -7 15 -8 0 -12 -5 -9 -10z"/>
<path d="M3955 5320 c3 -5 11 -10 16 -10 6 0 7 5 4 10 -3 6 -11 10 -16 10 -6
0 -7 -4 -4 -10z"/>
<path d="M3910 5276 c0 -8 5 -18 10 -21 6 -3 10 1 10 9 0 8 -4 18 -10 21 -5 3
-10 -1 -10 -9z"/>
<path d="M3957 5226 c-5 -15 -6 -31 -3 -34 8 -8 18 25 14 45 -3 13 -6 10 -11
-11z"/>
<path d="M2214 5191 c8 -12 66 -44 71 -39 2 2 -15 14 -37 27 -22 12 -37 18
-34 12z"/>
<path d="M5187 5152 c-19 -20 -22 -32 -9 -32 5 0 14 11 20 25 14 30 11 31 -11
7z"/>
<path d="M1867 5138 c-19 -16 -34 -68 -19 -68 10 0 94 52 117 72 15 13 -80 9
-98 -4z"/>
<path d="M5430 5130 c0 -5 7 -10 15 -10 8 0 15 5 15 10 0 6 -7 10 -15 10 -8 0
-15 -4 -15 -10z"/>
<path d="M2336 5105 c4 -8 13 -15 21 -15 13 0 13 3 3 15 -7 8 -16 15 -21 15
-5 0 -6 -7 -3 -15z"/>
<path d="M3991 5103 c7 -10 14 -19 15 -21 1 -1 7 5 15 15 12 15 12 16 -3 10
-10 -3 -18 -2 -18 3 0 6 -5 10 -11 10 -8 0 -7 -6 2 -17z"/>
<path d="M2900 5066 c0 -9 5 -16 10 -16 6 0 10 4 10 9 0 6 -4 13 -10 16 -5 3
-10 -1 -10 -9z"/>
<path d="M3920 5063 c0 -4 9 -14 21 -21 18 -12 20 -11 17 5 -3 17 -38 32 -38
16z"/>
<path d="M5123 5039 c-41 -26 -43 -44 -3 -21 25 14 32 15 39 3 6 -9 9 -5 9 13
0 31 -4 32 -45 5z"/>
<path d="M5440 5052 c0 -4 9 -36 21 -70 25 -75 21 -100 -27 -150 -20 -20 -49
-56 -63 -79 -24 -36 -29 -39 -39 -25 -10 16 -12 16 -22 0 -6 -10 -16 -18 -22
-18 -6 0 -17 8 -24 18 -13 16 -15 16 -28 0 -19 -26 -27 -22 -20 8 5 19 4 25
-5 20 -18 -11 -13 -51 9 -71 12 -11 18 -26 15 -39 -3 -12 -1 -37 4 -56 l8 -35
8 38 c6 30 11 37 24 31 44 -18 101 -8 101 17 0 6 8 23 18 37 10 15 24 46 32
69 7 24 21 50 32 59 10 10 18 25 18 36 0 35 25 98 39 98 11 0 9 6 -6 23 -12
12 -28 39 -37 60 -13 33 -36 51 -36 29z m-135 -362 c-3 -5 -11 -10 -16 -10 -6
0 -7 5 -4 10 3 6 11 10 16 10 6 0 7 -4 4 -10z"/>
<path d="M3140 5021 c0 -11 5 -23 10 -26 6 -4 10 5 10 19 0 14 -4 26 -10 26
-5 0 -10 -9 -10 -19z"/>
<path d="M5510 5032 c0 -19 26 -62 35 -58 6 2 20 -1 33 -5 34 -13 26 6 -17 40
-40 32 -51 37 -51 23z"/>
<path d="M4496 5011 c-4 -7 -5 -15 -2 -18 9 -9 19 4 14 18 -4 11 -6 11 -12 0z"/>
<path d="M5358 4984 c-29 -15 -32 -22 -22 -48 9 -22 31 -20 39 4 4 12 16 30
28 40 20 19 20 20 1 20 -10 -1 -31 -8 -46 -16z"/>
<path d="M3166 4981 c-4 -5 -2 -12 3 -15 5 -4 12 -2 15 3 4 5 2 12 -3 15 -5 4
-12 2 -15 -3z"/>
<path d="M5188 4978 c7 -7 12 -22 12 -34 0 -21 22 -39 34 -27 13 14 5 53 -13
63 -28 15 -49 14 -33 -2z"/>
<path d="M3186 4894 c-5 -14 -4 -15 9 -4 17 14 19 20 6 20 -5 0 -12 -7 -15
-16z"/>
<path d="M3937 4893 c-4 -3 -7 -11 -7 -17 0 -6 5 -5 12 2 6 6 9 14 7 17 -3 3
-9 2 -12 -2z"/>
<path d="M3762 4455 c-2 -62 9 -88 29 -68 7 7 -12 117 -22 128 -2 2 -5 -25 -7
-60z"/>
<path d="M3627 4473 c-3 -16 -1 -33 4 -40 6 -6 6 -14 1 -17 -5 -3 -7 -19 -4
-35 2 -17 9 -28 14 -25 5 3 7 13 4 21 -5 11 -1 13 17 8 21 -7 21 -6 3 7 -16
12 -18 22 -12 61 6 38 4 47 -7 47 -8 0 -17 -12 -20 -27z"/>
<path d="M5579 4425 c-1 -5 0 -20 1 -32 1 -13 -10 -51 -23 -85 -14 -35 -28
-88 -32 -118 -3 -30 -19 -93 -35 -140 -16 -47 -31 -108 -33 -137 l-4 -52 32 3
c29 2 31 0 22 -15 -8 -13 -7 -21 2 -32 10 -13 4 -23 -36 -60 -26 -25 -50 -43
-53 -40 -3 2 12 20 34 40 35 32 37 37 25 59 -16 30 -31 31 -24 2 3 -16 -5 -34
-25 -58 -35 -40 -38 -35 -9 14 22 38 17 46 -13 20 -30 -28 -32 3 -7 118 17 80
21 132 20 238 -1 128 -3 138 -31 194 -32 64 -41 46 -15 -29 9 -25 11 -43 5
-49 -6 -6 -5 -14 1 -23 8 -9 5 -15 -14 -24 -14 -6 -31 -22 -38 -35 -9 -18 -15
-21 -26 -13 -10 9 -13 8 -13 -5 0 -9 5 -16 10 -16 7 0 8 -22 5 -57 -3 -32 -8
-97 -12 -145 -6 -67 -12 -90 -27 -101 -17 -12 -15 -16 34 -60 29 -26 55 -47
59 -47 4 0 20 -20 35 -45 16 -25 32 -45 35 -45 11 0 71 -105 71 -123 0 -13 9
-17 41 -17 32 0 40 3 36 15 -4 10 3 16 26 19 103 16 109 18 104 30 -9 22 11
150 31 210 18 53 18 54 0 45 -25 -13 -23 -7 13 46 17 26 35 63 40 83 14 59 23
272 12 272 -18 0 -22 -12 -11 -35 8 -17 6 -35 -5 -71 -9 -27 -23 -92 -33 -144
-9 -52 -21 -99 -25 -104 -6 -6 -9 -5 -9 2 0 7 -4 12 -10 12 -5 0 -10 -6 -10
-14 0 -12 -10 -17 -47 -26 -4 -1 -9 3 -11 9 -2 6 3 11 12 11 11 0 16 9 16 30
0 16 10 46 21 67 18 31 22 56 23 135 1 77 3 94 14 86 16 -14 26 -4 18 18 -3 9
-13 14 -20 11 -15 -6 -56 51 -56 76 0 8 -17 11 -52 9 l-53 -2 33 14 c17 8 32
19 32 24 0 15 -50 99 -51 87z m34 -450 c4 -25 4 -25 -14 -9 -22 20 -24 34 -5
34 7 0 16 -11 19 -25z m-274 -14 c9 -6 10 -11 2 -15 -13 -8 -31 1 -31 15 0 11
11 11 29 0z m241 -21 c0 -5 -4 -10 -10 -10 -5 0 -10 5 -10 10 0 6 5 10 10 10
6 0 10 -4 10 -10z m20 -30 c0 -5 -4 -10 -10 -10 -5 0 -10 5 -10 10 0 6 5 10
10 10 6 0 10 -4 10 -10z m8 -40 c15 -1 15 -2 2 -13 -22 -17 -14 -50 11 -42 28
9 23 -10 -5 -23 -19 -8 -26 -8 -30 1 -3 7 -17 -1 -35 -23 -31 -34 -43 -32 -16
4 10 13 11 24 5 37 -15 26 -12 32 10 26 22 -6 37 8 20 18 -16 10 -11 28 6 21
9 -3 23 -6 32 -6z m87 -80 c-3 -5 -12 -10 -18 -10 -7 0 -6 4 3 10 19 12 23 12
15 0z m-65 -30 c-23 -23 -37 -29 -40 -16 -1 5 9 14 22 21 34 19 40 17 18 -5z
m-50 -65 c-7 -9 -15 -13 -18 -10 -3 2 1 11 8 20 7 9 15 13 18 10 3 -2 -1 -11
-8 -20z"/>
<path d="M3588 4348 c-2 -18 2 -44 8 -56 11 -23 12 -23 16 10 2 18 -2 44 -8
56 -11 23 -12 23 -16 -10z"/>
<path d="M5750 4340 c-14 -11 -20 -20 -14 -20 6 0 19 9 29 20 23 25 17 25 -15
0z"/>
<path d="M3513 4296 c0 -18 3 -24 9 -18 7 7 7 16 0 28 -8 14 -9 13 -9 -10z"/>
<path d="M5685 4310 c-3 -5 1 -10 9 -10 8 0 18 5 21 10 3 6 -1 10 -9 10 -8 0
-18 -4 -21 -10z"/>
<path d="M3654 4249 c-3 -6 -2 -15 4 -21 6 -6 11 -2 15 11 5 22 -7 29 -19 10z"/>
<path d="M4065 4230 c3 -5 8 -10 11 -10 2 0 4 5 4 10 0 6 -5 10 -11 10 -5 0
-7 -4 -4 -10z"/>
<path d="M5290 4223 c0 -15 19 -37 26 -31 3 4 -1 14 -10 23 -9 9 -16 13 -16 8z"/>
<path d="M4040 4190 c-12 -8 -10 -10 8 -10 13 0 20 4 17 10 -7 12 -6 12 -25 0z"/>
<path d="M5746 4152 c-4 -13 -5 -26 -2 -29 10 -11 18 4 14 29 l-4 23 -8 -23z"/>
<path d="M1305 4150 c-65 -27 -121 -142 -113 -231 5 -48 4 -49 -28 -61 l-33
-12 22 -15 c17 -12 56 -17 172 -19 175 -4 205 3 205 48 l0 30 -147 -6 c-101
-4 -143 -2 -134 4 10 7 14 26 12 59 -2 54 14 99 58 160 17 24 31 45 31 48 0 7
-22 5 -45 -5z"/>
<path d="M5452 4099 c2 -6 8 -10 13 -10 5 0 11 4 13 10 2 6 -4 11 -13 11 -9 0
-15 -5 -13 -11z"/>
<path d="M5275 4076 c-3 -9 -7 -23 -10 -31 -2 -8 -1 -15 4 -15 10 0 25 50 17
58 -3 2 -8 -3 -11 -12z"/>
<path d="M3730 4059 c0 -11 5 -17 10 -14 6 3 10 13 10 21 0 8 -4 14 -10 14 -5
0 -10 -9 -10 -21z"/>
<path d="M600 4060 c0 -5 5 -10 10 -10 6 0 10 5 10 10 0 6 -4 10 -10 10 -5 0
-10 -4 -10 -10z"/>
<path d="M612 4022 c-9 -6 -12 -29 -10 -78 3 -63 5 -69 26 -72 13 -2 22 -10
22 -20 0 -15 2 -15 10 -2 17 27 11 58 -12 66 -30 9 -38 22 -38 60 0 28 2 31
26 26 20 -4 25 -1 22 9 -6 17 -28 22 -46 11z"/>
<path d="M700 4020 c0 -5 5 -10 10 -10 6 0 10 5 10 10 0 6 -4 10 -10 10 -5 0
-10 -4 -10 -10z"/>
<path d="M700 3951 c0 -5 5 -13 10 -16 6 -3 10 -2 10 4 0 5 -4 13 -10 16 -5 3
-10 2 -10 -4z"/>
<path d="M635 3940 c3 -5 11 -10 16 -10 6 0 7 5 4 10 -3 6 -11 10 -16 10 -6 0
-7 -4 -4 -10z"/>
<path d="M1676 3821 c-4 -7 -5 -15 -2 -18 9 -9 19 4 14 18 -4 11 -6 11 -12 0z"/>
<path d="M1105 3770 c3 -5 8 -10 11 -10 2 0 4 5 4 10 0 6 -5 10 -11 10 -5 0
-7 -4 -4 -10z"/>
<path d="M1760 3720 c0 -5 -7 -10 -15 -10 -8 0 -15 -8 -15 -18 0 -10 -5 -23
-11 -29 -8 -8 -7 -18 4 -38 l14 -28 11 45 c12 46 34 74 50 64 5 -3 18 1 28 9
17 13 16 14 -23 15 -24 0 -43 -4 -43 -10z"/>
<path d="M921 3705 c-22 -10 -31 -20 -28 -29 3 -8 -1 -20 -9 -26 -20 -17 -17
-30 6 -30 13 0 24 10 30 24 5 14 18 30 30 36 11 6 20 17 20 25 0 18 -6 18 -49
0z"/>
<path d="M3746 3702 c-2 -4 2 -15 9 -25 15 -20 28 -8 19 17 -7 17 -20 21 -28
8z"/>
<path d="M751 3633 c-7 -38 -14 -76 -16 -85 -2 -10 1 -21 6 -24 5 -3 9 3 9 13
0 11 4 23 10 29 5 5 13 38 16 72 9 85 -10 81 -25 -5z"/>
<path d="M1065 3686 c-11 -7 -24 -13 -30 -12 -5 0 -11 -9 -13 -21 -2 -12 -10
-27 -18 -33 -22 -19 -18 -43 6 -35 18 6 19 4 10 -20 -15 -39 -13 -40 15 -7 28
33 31 48 13 54 -9 3 -9 6 0 12 7 4 12 2 12 -3 0 -18 25 -13 44 8 20 22 18 65
-4 69 -8 1 -24 -4 -35 -12z"/>
<path d="M1909 3683 c-33 -5 -105 -66 -115 -96 -3 -12 -12 -29 -20 -37 -9 -11
-10 -20 -3 -30 8 -12 18 -5 57 36 26 29 59 54 73 58 36 8 84 57 67 68 -7 4
-17 7 -23 6 -5 0 -22 -3 -36 -5z"/>
<path d="M638 3585 c-15 -20 -15 -24 -3 -29 9 -3 15 -18 15 -36 0 -35 15 -40
24 -7 18 66 -5 113 -36 72z"/>
<path d="M3140 3580 c0 -5 5 -10 10 -10 6 0 10 5 10 10 0 6 -4 10 -10 10 -5 0
-10 -4 -10 -10z"/>
<path d="M3533 3417 c-52 -20 -48 -26 13 -21 73 7 87 11 79 24 -8 13 -52 12
-92 -3z"/>
<path d="M2750 3383 c0 -8 51 -35 56 -30 2 1 0 7 -4 13 -9 14 -52 28 -52 17z"/>
<path d="M3620 3383 c-20 -8 -121 -52 -139 -62 -19 -9 -26 -31 -11 -31 6 0 23
9 38 20 15 11 37 22 49 24 12 3 39 13 59 22 30 14 42 15 68 6 l31 -11 -24 19
c-23 20 -43 23 -71 13z"/>
<path d="M3405 3370 c3 -5 12 -7 20 -3 21 7 19 13 -6 13 -11 0 -18 -4 -14 -10z"/>
<path d="M3675 3330 c-3 -5 -1 -10 4 -10 6 0 11 5 11 10 0 6 -2 10 -4 10 -3 0
-8 -4 -11 -10z"/>
<path d="M3379 3273 c-1 -5 -1 -11 0 -15 0 -5 -3 -8 -8 -8 -5 0 -11 -6 -14
-14 -4 -10 0 -12 16 -8 29 7 47 21 47 38 0 14 -39 20 -41 7z"/>
<path d="M906 3171 c-4 -7 -5 -15 -2 -18 9 -9 19 4 14 18 -4 11 -6 11 -12 0z"/>
<path d="M850 3150 c-8 -4 -24 -12 -36 -17 -13 -7 -26 -7 -37 -2 -13 8 -22 1
-43 -32 -25 -40 -25 -43 -9 -55 21 -16 39 -9 92 33 23 18 48 33 55 33 16 0 19
38 3 43 -5 3 -17 1 -25 -3z"/>
<path d="M3923 3133 c-7 -2 -13 -12 -13 -22 0 -9 -5 -22 -12 -29 -7 -7 -8 -12
-2 -12 6 0 18 16 27 35 9 19 16 35 14 34 -1 0 -8 -3 -14 -6z"/>
<path d="M1118 2893 c-29 -5 -68 -45 -68 -71 0 -13 3 -12 20 3 19 17 19 17 9
-16 -6 -19 -15 -56 -20 -84 -16 -93 -26 -130 -41 -165 -9 -19 -19 -46 -23 -60
-15 -55 -61 -167 -83 -200 -13 -19 -19 -36 -14 -38 5 -1 -16 -31 -48 -65 -108
-116 -149 -194 -150 -286 0 -28 3 -33 20 -28 16 4 18 1 13 -23 -5 -25 -3 -28
16 -23 11 3 19 10 18 17 -1 6 9 10 26 8 19 -2 27 2 27 13 0 8 7 15 15 15 8 0
15 5 15 11 0 8 4 8 15 -1 11 -10 18 -9 30 4 9 9 23 16 31 16 8 0 14 4 14 9 0
5 8 12 18 15 21 8 68 73 77 109 4 15 13 27 20 27 16 0 30 18 21 27 -3 3 -13 0
-22 -8 -15 -13 -17 -11 -12 18 4 32 -9 46 -47 48 -5 0 -11 12 -13 28 -4 32 20
46 43 27 9 -7 18 -10 21 -7 9 9 -6 27 -23 27 -10 0 -14 6 -10 20 3 11 1 22 -4
25 -10 7 -1 35 12 35 5 0 8 -3 8 -7 -3 -20 2 -34 11 -28 6 3 7 -1 4 -10 -7
-18 14 -47 28 -39 5 3 7 13 4 21 -3 8 -1 23 5 34 7 15 7 24 -1 34 -7 8 -9 19
-5 25 3 5 1 10 -5 10 -18 0 -42 28 -30 35 5 3 10 1 10 -4 0 -6 5 -11 10 -11 7
0 7 6 0 19 -5 11 -10 23 -10 28 1 4 8 -5 16 -20 12 -23 18 -26 29 -17 8 7 17
28 21 49 8 46 22 73 35 66 12 -8 12 17 -1 51 -13 34 3 54 46 57 26 2 29 6 30
37 0 19 -3 40 -8 46 -4 6 -2 24 4 41 9 24 8 34 -5 53 l-15 22 -26 -48 c-22
-43 -25 -46 -26 -22 0 39 14 69 49 107 20 21 37 31 47 27 22 -8 40 4 23 15
-14 9 -100 10 -151 2z m-68 -547 c0 -3 -4 -8 -10 -11 -5 -3 -10 -1 -10 4 0 6
5 11 10 11 6 0 10 -2 10 -4z"/>
<path d="M813 2840 c14 -11 34 -20 45 -20 14 0 29 -19 55 -72 34 -70 35 -77
32 -163 l-4 -90 18 50 c10 28 30 76 44 108 15 32 26 73 25 91 -1 30 -5 35 -42
46 -23 7 -68 25 -101 41 -33 16 -68 29 -79 29 -16 0 -15 -3 7 -20z m147 -80
c0 -5 -4 -10 -10 -10 -5 0 -10 5 -10 10 0 6 5 10 10 10 6 0 10 -4 10 -10z"/>
<path d="M1540 2774 c-11 -13 -10 -16 8 -21 12 -3 22 -9 22 -14 0 -5 5 -9 10
-9 6 0 10 14 10 30 0 23 -5 30 -19 30 -10 0 -24 -7 -31 -16z"/>
<path d="M1302 2744 c-30 -20 -30 -64 -1 -64 19 0 20 2 8 17 -12 15 -12 16 5
10 18 -7 46 7 46 24 0 20 -37 28 -58 13z"/>
<path d="M1498 2743 c7 -3 16 -2 19 1 4 3 -2 6 -13 5 -11 0 -14 -3 -6 -6z"/>
<path d="M5331 2691 c-7 -5 -9 -11 -4 -14 6 -4 19 0 29 8 15 11 16 14 4 15 -8
0 -21 -4 -29 -9z"/>
<path d="M5437 2682 c-4 -5 12 -15 34 -21 42 -13 61 -9 43 9 -14 14 -71 23
-77 12z"/>
<path d="M1463 2665 c-33 -14 -45 -45 -18 -45 15 0 55 38 55 52 0 10 2 10 -37
-7z"/>
<path d="M5211 2656 c-15 -18 -52 -146 -46 -157 3 -4 1 -10 -5 -14 -17 -11
-11 -37 7 -33 10 2 22 19 28 42 11 37 12 38 29 21 15 -15 19 -16 27 -4 23 36
3 67 -31 49 -15 -8 -20 -8 -20 3 0 8 3 17 7 20 3 4 14 25 24 47 14 31 15 40 5
40 -8 0 -19 -6 -25 -14z"/>
<path d="M5476 2626 c3 -9 11 -16 16 -16 13 0 5 23 -10 28 -7 2 -10 -2 -6 -12z"/>
<path d="M5530 2631 c0 -5 6 -14 14 -20 27 -22 41 -177 19 -207 -22 -30 -36
-2 -41 83 -3 58 -9 82 -23 96 -36 34 -44 23 -40 -60 1 -31 -5 -48 -24 -71 -14
-16 -25 -39 -25 -51 0 -17 -6 -21 -29 -21 -37 0 -122 -67 -115 -91 3 -10 -2
-15 -13 -14 -25 2 -63 24 -63 36 0 6 7 6 19 -1 27 -14 28 -14 27 25 -1 38 -20
51 -57 40 -16 -5 -19 -12 -14 -32 4 -19 1 -26 -15 -30 -11 -3 -20 -10 -20 -17
0 -7 -26 -10 -85 -7 -57 2 -85 -1 -85 -8 0 -13 39 -24 76 -19 16 1 59 -3 97
-11 53 -10 65 -16 57 -26 -8 -10 -8 -15 1 -21 6 -4 16 0 21 9 15 28 39 47 58
47 10 0 25 3 33 6 10 3 21 -5 33 -25 21 -35 38 -32 22 5 -10 20 -9 27 3 35 26
16 59 11 59 -11 0 -11 6 -20 14 -20 9 0 15 -11 15 -27 1 -16 3 -57 5 -93 2
-36 5 -75 5 -87 1 -26 21 -32 21 -7 0 11 6 14 21 9 18 -6 20 -4 15 13 -4 12
-2 23 6 28 7 4 10 4 6 0 -12 -14 12 -65 28 -59 9 3 14 -2 14 -16 0 -23 24 -29
36 -9 10 17 23 -21 17 -49 -9 -41 49 -180 106 -252 l29 -37 -46 -11 c-26 -6
-60 -17 -77 -24 -29 -13 -28 -13 40 -20 39 -3 80 -10 93 -14 16 -5 22 -3 22 8
0 8 7 17 15 21 25 9 19 71 -9 93 -13 11 -35 45 -50 76 -14 31 -30 57 -36 57
-5 0 -10 13 -10 28 0 15 -5 33 -10 38 -6 6 -17 43 -26 83 -15 76 -34 121 -63
156 -21 25 -44 135 -35 170 5 19 12 25 35 25 16 0 29 -4 29 -10 0 -5 -11 -10
-25 -10 -21 0 -25 -5 -25 -27 0 -29 57 -134 76 -140 7 -2 14 16 18 43 3 26 10
52 15 58 5 6 11 26 13 45 3 32 1 35 -30 42 -18 4 -35 9 -37 11 -3 2 -7 51 -11
107 -5 98 -7 105 -36 137 -30 32 -58 45 -58 25z"/>
<path d="M5640 2582 c0 -29 5 -52 10 -52 9 0 15 22 11 43 -1 4 -3 16 -4 27 -7
42 -17 31 -17 -18z"/>
<path d="M5344 2535 c-12 -8 -24 -12 -27 -8 -9 8 -20 -44 -12 -56 10 -18 27
-12 21 7 -4 12 -1 18 12 18 9 0 28 4 42 8 18 5 21 5 10 -3 -8 -5 -11 -13 -7
-17 4 -4 15 -1 23 8 13 12 14 20 5 37 -14 25 -38 27 -67 6z"/>
<path d="M5661 2504 c0 -11 3 -14 6 -6 3 7 2 16 -1 19 -3 4 -6 -2 -5 -13z"/>
<path d="M2355 2443 c-62 -15 -155 -75 -155 -100 0 -11 8 -13 33 -8 17 4 39
13 47 20 20 16 50 26 50 17 0 -4 -14 -19 -32 -34 -50 -40 -29 -42 36 -3 32 19
68 35 80 35 11 0 34 7 50 15 15 8 48 15 72 15 43 0 59 12 30 23 -32 12 -184
27 -211 20z"/>
<path d="M2473 2368 c-27 -7 -54 -24 -80 -51 l-38 -40 33 6 c26 5 32 3 32 -10
0 -14 5 -12 28 9 41 38 87 67 129 83 l38 14 -50 -1 c-27 0 -69 -5 -92 -10z"/>
<path d="M2633 2348 c-27 -7 -113 -89 -113 -107 0 -17 12 -13 53 15 l38 25 -7
-25 c-3 -14 -4 -26 0 -26 3 0 28 20 56 45 47 42 54 45 103 44 49 -2 50 -2 14
-8 -21 -3 -39 -10 -40 -14 -1 -5 21 -16 50 -26 48 -16 113 -70 113 -93 0 -5
-6 -16 -14 -23 -11 -12 -17 -12 -34 1 -11 8 -22 24 -24 37 -3 18 -8 22 -38 20
-19 -2 -54 2 -78 8 -23 7 -45 9 -48 6 -8 -8 71 -47 96 -47 28 0 80 -27 81 -43
4 -41 -18 -67 -58 -67 -13 0 -23 -5 -23 -11 0 -33 122 41 135 81 7 23 21 26
28 8 2 -7 7 -11 10 -8 10 9 -18 98 -38 120 -11 12 -31 27 -45 32 -16 7 -20 12
-12 15 8 3 -4 13 -28 24 -45 20 -133 29 -177 17z"/>
<path d="M876 2313 c-6 -14 -5 -15 5 -6 7 7 10 15 7 18 -3 3 -9 -2 -12 -12z"/>
<path d="M1155 2273 c-4 -21 -13 -50 -21 -65 -19 -37 -18 -56 6 -63 19 -6 80
-86 80 -106 0 -17 16 -9 29 14 9 18 8 29 -9 62 -11 21 -20 54 -20 71 0 36 -34
124 -49 124 -5 0 -12 -17 -16 -37z"/>
<path d="M3935 2240 c3 -5 11 -10 16 -10 6 0 7 5 4 10 -3 6 -11 10 -16 10 -6
0 -7 -4 -4 -10z"/>
<path d="M3720 2233 c0 -4 9 -14 20 -21 11 -7 20 -19 20 -28 0 -23 40 -85 50
-79 4 3 5 20 1 37 -10 42 -4 58 20 58 31 0 22 17 -13 24 -76 16 -98 18 -98 9z"/>
<path d="M4040 2219 c0 -6 9 -22 20 -36 24 -30 27 -51 4 -29 -22 22 -24 20
-14 -11 6 -16 17 -64 25 -108 8 -43 20 -82 27 -86 7 -4 24 -17 37 -28 38 -33
43 -25 16 29 -14 28 -25 66 -25 89 0 36 3 40 27 43 40 4 42 34 4 43 -17 3 -33
15 -36 25 -8 24 -59 80 -74 80 -6 0 -11 -5 -11 -11z"/>
<path d="M3045 2210 c3 -5 10 -10 16 -10 5 0 9 5 9 10 0 6 -7 10 -16 10 -8 0
-12 -4 -9 -10z"/>
<path d="M3220 2204 c-53 -18 -85 -48 -94 -87 -8 -35 13 -33 31 3 15 30 31 40
69 40 19 0 34 6 38 15 3 8 15 15 26 15 11 0 20 7 20 15 0 19 -32 19 -90 -1z"/>
<path d="M3370 2201 c-17 -5 -21 -9 -12 -15 15 -9 52 1 52 15 0 10 -4 10 -40
0z"/>
<path d="M3640 2181 c0 -5 5 -13 10 -16 6 -3 10 -2 10 4 0 5 -4 13 -10 16 -5
3 -10 2 -10 -4z"/>
<path d="M2620 2175 c0 -3 13 -19 29 -35 37 -37 134 -52 166 -25 20 16 19 16
-6 11 -16 -3 -41 3 -70 18 -46 25 -119 44 -119 31z"/>
<path d="M3696 2164 c-12 -32 -5 -53 27 -80 l32 -27 3 27 c3 26 -32 96 -48 96
-4 0 -11 -7 -14 -16z"/>
<path d="M4850 2171 c0 -6 5 -13 10 -16 6 -3 10 1 10 9 0 9 -4 16 -10 16 -5 0
-10 -4 -10 -9z"/>
<path d="M3248 2133 c-16 -2 -28 -10 -28 -17 0 -7 -9 -21 -20 -31 -27 -24 -25
-39 7 -65 24 -19 35 -21 88 -15 33 4 73 13 90 21 19 10 31 11 33 4 5 -13 32
-13 32 0 0 6 -7 10 -15 10 -8 0 -15 7 -15 15 0 21 -36 19 -68 -4 -28 -20 -86
-21 -131 -4 -23 9 -22 11 33 42 43 25 65 32 87 27 16 -3 29 -2 29 3 0 19 -50
25 -122 14z"/>
<path d="M5070 2089 c-47 -10 -93 -23 -102 -29 -10 -5 -28 -10 -40 -10 -13 0
-41 -7 -63 -14 -24 -9 -58 -12 -85 -9 -31 4 -67 -2 -113 -16 -69 -21 -177 -22
-230 -2 -13 5 -65 9 -117 8 -52 0 -112 2 -132 7 -31 6 -38 4 -38 -9 0 -26 29
-63 56 -69 16 -4 24 -13 24 -27 0 -14 5 -19 14 -16 10 4 16 -2 18 -21 2 -18 9
-27 21 -27 10 0 24 -11 31 -24 12 -21 14 -22 20 -6 4 10 2 23 -3 28 -7 7 -7
15 0 23 7 9 7 24 0 51 -9 30 -8 41 4 52 23 23 28 7 27 -79 -3 -113 22 -102 33
16 2 20 9 41 15 48 10 8 11 0 7 -37 -2 -26 -1 -49 3 -52 5 -3 11 -29 15 -58 8
-58 24 -98 25 -59 0 12 5 21 12 20 22 -5 20 29 -3 35 -20 5 -21 11 -17 75 4
75 25 121 39 85 4 -11 6 -48 4 -83 -2 -49 0 -59 8 -44 6 10 16 23 24 27 7 4
13 19 13 31 0 17 7 26 26 30 32 8 36 5 39 -34 2 -24 -1 -30 -17 -30 -15 0 -19
-5 -15 -20 3 -11 1 -20 -4 -20 -5 0 -9 -11 -9 -25 0 -22 9 -16 82 55 45 44 86
80 91 80 5 0 -12 -21 -37 -47 -50 -51 -64 -84 -16 -38 35 34 39 26 8 -18 -20
-28 -20 -30 -3 -17 11 8 31 25 45 37 14 13 36 31 50 42 21 16 23 21 11 35 -8
9 -12 18 -10 19 2 2 17 13 33 26 l30 22 23 -27 c22 -26 23 -26 23 -6 0 23 33
31 45 12 5 -8 11 -7 21 1 18 15 52 3 36 -13 -9 -9 -8 -15 1 -26 10 -13 8 -14
-11 -8 -17 6 -22 3 -22 -9 0 -12 -5 -15 -17 -11 -11 5 -24 -1 -36 -16 l-19
-23 6 28 c5 22 3 27 -14 27 -11 0 -20 -4 -20 -10 0 -5 -8 -10 -18 -10 -10 0
-27 -6 -38 -14 -18 -14 -18 -15 -1 -21 12 -5 16 -14 11 -27 -5 -18 -3 -18 16
-8 11 6 26 10 32 8 7 -3 -17 -21 -53 -41 -77 -44 -93 -57 -102 -79 -6 -18 -37
-25 -37 -9 0 4 -26 8 -59 7 -42 -1 -57 -4 -54 -13 6 -15 33 -17 33 -3 0 6 5
10 11 10 6 0 9 -7 5 -15 -3 -10 1 -15 12 -15 9 0 47 -11 85 -24 l67 -24 33 41
c19 23 44 58 58 77 44 65 103 101 118 72 11 -23 7 -85 -7 -90 -18 -6 -63 -44
-58 -49 2 -3 16 3 30 13 15 9 29 14 33 11 10 -10 -27 -58 -58 -75 -16 -10 -29
-20 -29 -24 0 -5 -11 -8 -25 -8 -28 0 -32 16 -10 47 20 29 8 67 -16 49 -13 -9
-49 -76 -49 -91 0 -7 39 -45 46 -45 5 0 18 -14 29 -30 22 -33 35 -38 35 -15 0
22 110 135 131 135 23 0 24 -61 0 -67 -9 -2 -22 -13 -29 -24 -15 -24 -5 -25
20 -2 16 14 21 15 28 3 6 -10 13 -3 25 25 8 22 23 47 32 57 13 15 15 36 10
131 -5 109 -4 117 28 213 31 92 34 116 17 113 -4 -1 -45 -10 -92 -20z m-23
-64 c-7 -14 -16 -25 -20 -25 -5 0 -6 6 -3 13 3 6 9 20 12 29 4 10 10 16 14 13
5 -3 3 -16 -3 -30z m-185 -227 c-7 -7 -12 -8 -12 -2 0 14 12 26 19 19 2 -3 -1
-11 -7 -17z m38 -227 c0 -5 -7 -14 -15 -21 -16 -14 -18 -10 -9 14 6 17 24 22
24 7z"/>
<path d="M5426 2058 c-2 -7 -7 -30 -10 -50 -3 -29 -1 -38 10 -38 8 0 14 6 14
14 0 8 6 17 13 19 9 4 9 6 -1 6 -8 1 -10 9 -6 25 6 25 -13 48 -20 24z"/>
<path d="M2897 2053 c-26 -26 29 -84 93 -98 49 -11 119 -6 152 11 47 24 32 32
-34 19 -88 -19 -122 -11 -167 40 -33 37 -34 38 -44 28z"/>
<path d="M5400 1909 c0 -17 4 -28 10 -24 6 3 10 17 10 31 0 13 -4 24 -10 24
-5 0 -10 -14 -10 -31z"/>
<path d="M1094 1906 c-3 -13 -5 -30 -4 -37 2 -8 2 -42 1 -76 -1 -63 -1 -63
-31 -63 -27 0 -30 -3 -37 -42 -3 -24 -8 -37 -11 -30 -2 6 -10 12 -17 12 -7 0
-16 6 -19 13 -5 9 -7 9 -12 0 -4 -9 -14 -7 -38 7 -19 10 -44 20 -57 22 -20 2
-24 9 -24 40 0 45 -12 59 -31 34 -8 -11 -14 -14 -14 -7 0 7 -5 9 -12 4 -7 -4
-24 -8 -38 -8 -21 0 -25 -5 -26 -30 -1 -16 -5 -42 -9 -57 -8 -29 -3 -32 78
-44 87 -12 123 -70 111 -179 l-6 -51 43 -2 c59 -2 74 4 88 34 8 19 17 25 31
21 22 -6 26 3 8 21 -18 18 -3 25 22 10 14 -9 20 -20 17 -36 -4 -19 -2 -20 11
-10 13 11 15 10 9 -6 -6 -15 -4 -17 10 -11 10 4 29 9 41 10 37 5 37 11 5 64
-18 29 -34 70 -38 102 -4 29 -12 61 -18 70 -5 9 -7 25 -2 35 6 16 10 12 27
-26 12 -25 20 -61 20 -81 -1 -38 40 -95 60 -83 15 9 2 86 -22 134 -20 39 -26
80 -12 80 4 0 7 11 7 25 0 27 -22 34 -43 13 -17 -17 -21 -8 -25 45 -1 25 -6
49 -10 53 -4 4 -7 18 -7 31 0 30 -18 30 -26 -1z m16 -264 c0 -13 -41 -48 -79
-67 -19 -9 -46 -28 -60 -41 l-26 -24 -6 42 c-4 24 -4 45 -2 48 2 3 19 5 36 6
17 1 33 7 35 13 2 6 13 9 25 6 12 -3 31 1 42 9 23 17 35 20 35 8z m-60 -155
c0 -2 -14 -16 -31 -33 l-31 -29 16 33 c9 17 23 32 31 32 8 0 15 -1 15 -3z"/>
<path d="M5550 1870 c0 -5 9 -10 20 -10 11 0 20 5 20 10 0 6 -9 10 -20 10 -11
0 -20 -4 -20 -10z"/>
<path d="M1550 1851 c0 -6 5 -13 10 -16 6 -3 10 1 10 9 0 9 -4 16 -10 16 -5 0
-10 -4 -10 -9z"/>
<path d="M4184 1841 c14 -15 15 -23 5 -45 -9 -20 -19 -26 -44 -26 -29 0 -31
-2 -27 -28 3 -25 1 -29 -19 -28 -20 1 -26 -7 -41 -62 -13 -48 -14 -70 -6 -93
13 -36 7 -45 -21 -28 -28 18 -38 4 -16 -22 16 -17 17 -22 5 -29 -8 -5 -18 -6
-24 -3 -5 3 -6 1 -3 -4 4 -6 19 -13 35 -16 17 -4 33 -16 40 -32 16 -34 15 -36
-5 -28 -27 10 -5 -15 27 -32 28 -14 29 -14 35 15 8 36 9 36 46 9 16 -11 36
-19 43 -16 8 3 19 0 26 -6 9 -9 14 -9 17 -1 2 7 12 10 22 7 12 -3 27 7 45 31
41 55 120 96 183 96 64 0 141 -34 179 -79 22 -27 32 -32 55 -27 17 3 29 1 33
-7 2 -7 5 -1 5 12 1 24 1 24 22 5 16 -14 22 -15 28 -5 6 10 10 8 15 -6 7 -17
8 -17 17 0 17 29 0 92 -34 131 -47 53 -136 102 -230 126 -45 12 -86 25 -91 31
-6 5 -20 9 -32 9 -36 0 -105 34 -164 82 -76 61 -116 88 -131 88 -8 0 -7 -6 5
-19z"/>
<path d="M5559 1838 c-1 -2 -2 -22 -4 -44 -1 -23 -10 -52 -20 -65 -17 -24 -17
-24 -11 18 5 37 4 41 -13 36 -22 -6 -28 -28 -45 -182 -14 -123 -11 -160 11
-168 20 -8 31 6 38 46 3 18 12 47 19 65 7 17 11 36 9 42 -2 6 3 17 11 23 8 7
12 20 9 29 -4 15 -3 15 6 2 9 -13 14 -11 35 10 l25 25 -27 82 c-22 69 -37 95
-43 81z"/>
<path d="M746 1815 c-3 -8 -3 -15 0 -15 3 0 12 7 20 15 13 13 13 15 1 15 -8 0
-17 -7 -21 -15z"/>
<path d="M2467 1809 c-15 -12 -32 -31 -39 -42 l-11 -22 24 20 c66 54 86 89 26
44z"/>
<path d="M1660 1805 c0 -8 7 -15 15 -15 8 0 15 4 15 9 0 5 -7 11 -15 15 -9 3
-15 0 -15 -9z"/>
<path d="M4900 1785 c-7 -9 -10 -18 -7 -22 8 -7 37 15 37 28 0 14 -16 11 -30
-6z"/>
<path d="M5197 1767 c-6 -16 0 -214 8 -277 14 -101 40 -80 51 39 4 40 10 74
15 76 4 3 21 -7 38 -21 27 -22 31 -32 31 -75 0 -27 5 -49 10 -49 6 0 10 -10
10 -22 0 -13 4 -30 10 -38 16 -25 21 9 23 137 1 123 -10 243 -24 243 -4 0 -23
-23 -41 -51 -21 -33 -34 -46 -36 -36 -2 9 -9 14 -15 11 -7 -2 -24 14 -37 35
-27 43 -35 49 -43 28z m123 -103 c0 -8 -5 -12 -10 -9 -6 4 -8 11 -5 16 9 14
15 11 15 -7z"/>
<path d="M4899 1733 l-24 -26 33 19 c17 10 32 22 32 26 0 15 -17 8 -41 -19z"/>
<path d="M3778 1642 c-3 -31 1 -61 12 -87 10 -22 21 -56 24 -75 5 -30 5 -32
-4 -11 -10 23 -12 23 -27 9 -14 -14 -21 -15 -61 -3 -25 8 -49 12 -54 9 -12 -8
79 -56 100 -53 23 3 67 -16 106 -46 18 -14 41 -25 50 -25 15 0 12 7 -13 35
-34 39 -39 55 -16 55 8 0 15 5 15 10 0 6 -7 10 -16 10 -10 0 -14 6 -11 14 4
10 1 13 -7 10 -8 -3 -23 15 -38 45 -30 57 -46 117 -29 107 17 -11 13 2 -8 23
-19 19 -19 18 -23 -27z"/>
<path d="M5115 1630 c-3 -5 -1 -10 4 -10 6 0 11 5 11 10 0 6 -2 10 -4 10 -3 0
-8 -4 -11 -10z"/>
<path d="M755 1561 c-37 -6 -40 -8 -37 -36 1 -16 2 -38 3 -49 0 -15 5 -17 31
-12 93 18 96 110 3 97z"/>
<path d="M5025 1531 c-3 -5 -1 -12 5 -16 5 -3 10 1 10 9 0 18 -6 21 -15 7z"/>
<path d="M3946 1477 c3 -10 9 -15 12 -12 3 3 0 11 -7 18 -10 9 -11 8 -5 -6z"/>
<path d="M3506 1463 c-6 -14 -5 -15 5 -6 7 7 10 15 7 18 -3 3 -9 -2 -12 -12z"/>
<path d="M4030 1441 c0 -5 5 -13 10 -16 6 -3 10 -2 10 4 0 5 -4 13 -10 16 -5
3 -10 2 -10 -4z"/>
</g>
</svg>
