<?xml version="1.0" standalone="no"?>
<!DOCTYPE svg PUBLIC "-//W3C//DTD SVG 20010904//EN"
 "http://www.w3.org/TR/2001/REC-SVG-20010904/DTD/svg10.dtd">
<svg version="1.0" xmlns="http://www.w3.org/2000/svg"
 width="860.000000pt" height="811.000000pt" viewBox="0 0 860.000000 811.000000"
 preserveAspectRatio="xMidYMid meet">

<g transform="translate(0.000000,811.000000) scale(0.100000,-0.100000)"
fill="#000000" stroke="none">
<path d="M4040 7681 c-114 -22 -230 -90 -318 -186 -140 -153 -180 -315 -153
-614 6 -68 9 -127 6 -130 -4 -3 -25 5 -47 18 -66 38 -94 42 -120 21 -13 -11
-18 -19 -11 -20 6 0 14 4 18 9 7 12 53 -1 89 -24 14 -9 23 -21 20 -26 -3 -5
-1 -9 4 -9 5 0 9 -7 9 -15 0 -20 0 -20 -53 20 -25 19 -49 35 -53 35 -4 0 -16
-9 -26 -20 -14 -16 -18 -33 -16 -73 1 -28 7 -54 12 -57 5 -3 8 -46 8 -95 0
-92 7 -123 76 -324 29 -85 30 -88 39 -66 3 9 2 13 -4 10 -6 -3 -10 5 -10 19 0
35 1 32 -16 71 -8 19 -11 35 -7 35 5 0 2 4 -6 9 -10 6 -14 25 -12 59 1 28 -5
90 -14 138 -8 47 -15 104 -15 125 0 73 40 121 62 74 6 -14 17 -25 24 -25 10 0
11 -6 4 -25 -6 -16 -6 -26 1 -31 6 -3 6 -11 1 -17 -29 -40 -38 -181 -12 -212
6 -8 9 -19 5 -25 -10 -16 24 -44 54 -45 23 0 26 -4 29 -42 4 -53 -14 -119 -33
-127 -12 -4 -15 3 -15 30 0 19 -4 33 -9 30 -4 -3 -8 -24 -8 -46 0 -34 3 -40
21 -40 14 0 29 12 40 31 l19 31 66 -133 c36 -74 63 -135 59 -137 -25 -11 -62
-149 -47 -173 4 -8 4 -18 -1 -24 -4 -5 -8 -21 -9 -35 0 -14 -1 -32 -1 -40 0
-8 1 -44 4 -80 6 -73 5 -64 18 -180 6 -47 12 -125 13 -175 1 -49 3 -90 5 -90
1 0 3 -20 5 -45 3 -46 13 -97 24 -115 6 -10 8 -23 14 -75 1 -14 5 -30 10 -37
4 -6 4 -18 1 -26 -3 -8 -1 -18 5 -22 6 -3 11 -19 11 -35 0 -16 5 -32 11 -35 6
-4 8 -13 5 -20 -2 -7 2 -22 9 -33 8 -10 11 -22 8 -26 -4 -3 -1 -17 5 -31 24
-50 31 -71 42 -112 6 -24 15 -43 21 -43 6 0 9 -6 6 -12 -2 -7 1 -22 6 -33 6
-11 12 -27 13 -35 2 -8 9 -19 17 -25 7 -5 12 -16 9 -23 -2 -7 3 -21 11 -30 8
-9 18 -27 21 -39 4 -13 12 -23 17 -23 5 0 8 -3 7 -7 -3 -14 14 -57 30 -76 8
-9 20 -27 27 -40 6 -12 17 -21 23 -20 7 2 12 -3 12 -11 0 -8 9 -17 19 -21 25
-8 87 -65 83 -77 -1 -5 2 -7 7 -4 5 3 24 3 41 -1 31 -6 32 -7 14 -21 -21 -16
-14 -14 28 7 24 12 31 12 55 -4 15 -10 25 -14 21 -10 -12 13 11 33 30 28 19
-5 92 55 92 75 0 7 5 12 10 12 6 0 15 11 20 25 5 14 14 25 20 25 6 0 15 10 20
23 6 12 19 37 31 56 11 18 18 40 15 47 -3 7 -1 16 4 19 6 4 10 17 10 30 0 13
5 27 11 30 5 4 9 17 8 28 -1 12 1 30 6 40 4 9 5 24 2 32 -4 8 -1 17 4 21 6 3
9 15 6 25 -3 10 -1 22 5 25 5 3 8 15 5 25 -3 10 -1 22 5 25 5 3 7 17 4 29 -3
13 -1 27 5 31 6 3 9 19 5 34 -3 15 -2 30 1 34 6 6 11 42 16 113 2 24 6 46 10
49 3 4 2 15 -4 25 -5 11 -6 19 -1 19 6 0 10 22 10 49 0 27 3 55 8 63 4 7 10
38 12 68 1 30 4 67 6 83 2 15 4 36 5 48 0 11 6 17 11 14 6 -3 10 0 10 7 0 7 9
2 20 -12 15 -21 27 -25 65 -24 25 1 51 6 57 12 8 8 9 12 1 12 -6 0 -14 7 -17
16 -6 15 -4 15 10 3 15 -12 17 -12 12 1 -3 9 -20 16 -47 18 -35 3 -42 6 -36
20 5 14 4 15 -6 5 -16 -16 -33 -17 -23 -2 4 8 0 9 -15 4 -29 -9 -39 22 -34
110 2 39 6 133 9 210 3 126 12 306 18 393 1 18 8 37 15 41 10 6 9 10 -3 14 -9
4 -15 17 -15 29 l2 23 4 -22 c5 -25 23 -32 23 -9 0 16 76 39 123 38 17 0 38 5
46 11 12 9 13 9 8 0 -5 -7 1 -21 12 -32 11 -11 23 -16 26 -11 4 6 1 10 -4 10
-6 0 -11 5 -11 10 0 19 22 10 27 -10 6 -23 28 -22 28 1 0 10 14 15 45 16 25 1
74 5 110 8 114 12 253 8 244 -6 -3 -5 2 -6 10 -3 9 3 16 10 16 15 0 6 10 5 21
-2 16 -8 18 -13 9 -19 -9 -6 -7 -11 9 -19 12 -7 19 -15 17 -20 -8 -12 80 -78
97 -73 5 1 6 -6 2 -17 -4 -14 1 -26 14 -38 15 -12 18 -20 9 -30 -6 -8 -7 -13
0 -13 15 0 58 -109 68 -175 1 -11 5 -33 9 -50 3 -16 8 -41 10 -55 6 -31 18
-201 19 -255 0 -22 5 -43 10 -46 5 -4 -1 -10 -13 -14 -15 -4 -29 -1 -42 11
-18 16 -19 16 -19 0 0 -10 11 -19 30 -23 17 -3 33 -9 36 -14 3 -5 9 -73 15
-151 5 -79 11 -159 15 -178 17 -108 21 -216 17 -390 -7 -298 -8 -318 -16 -326
-4 -4 -2 -13 4 -20 7 -9 7 -19 -1 -33 -6 -11 -11 -39 -13 -61 -1 -22 -5 -40
-9 -40 -4 0 -3 -11 2 -25 5 -13 11 -47 12 -75 2 -27 7 -50 12 -50 4 0 6 -7 2
-15 -3 -8 -1 -15 3 -15 5 0 14 -12 20 -27 6 -16 28 -61 50 -101 23 -39 52
-111 66 -160 25 -88 55 -287 55 -365 0 -23 9 -94 20 -157 23 -131 24 -150 10
-150 -5 0 -7 7 -3 15 3 10 0 15 -8 13 -9 -2 -15 8 -17 30 -2 17 -7 32 -12 32
-14 0 -2 -183 13 -195 10 -9 14 -29 7 -45 -5 -14 -5 -62 1 -66 4 -2 6 -28 5
-58 -1 -30 1 -53 4 -51 3 2 5 -25 5 -60 0 -62 -1 -64 -30 -71 -27 -6 -28 -7
-7 -11 23 -4 33 -43 11 -43 -8 0 -8 -4 0 -14 8 -9 8 -16 2 -20 -5 -4 -14 1
-19 9 -8 15 -10 15 -21 1 -8 -9 -11 -17 -7 -17 3 -1 11 -2 16 -3 6 0 10 -4 10
-8 0 -5 0 -12 0 -18 0 -5 -20 4 -45 21 -25 17 -45 33 -45 37 0 3 5 1 12 -6 7
-7 17 -12 22 -12 6 0 -14 22 -43 49 -30 27 -60 47 -67 44 -8 -3 -14 0 -14 6 0
6 5 11 11 11 5 0 7 5 4 10 -4 6 -12 4 -21 -5 -9 -8 -13 -19 -10 -24 3 -5 -3
-11 -13 -14 -12 -3 -18 1 -17 11 0 8 -5 17 -13 20 -8 2 -11 1 -8 -4 6 -10 -12
-29 -30 -30 -33 -3 -36 -5 -17 -19 18 -14 18 -14 -3 -8 -24 6 -38 26 -97 138
-40 77 -60 126 -57 138 1 4 -10 27 -23 50 -13 23 -40 87 -59 142 -19 55 -58
146 -86 203 -28 56 -51 104 -51 107 0 2 -16 38 -35 79 -85 182 -95 242 -55
351 99 275 106 319 115 635 12 462 12 1021 1 1010 -7 -7 -12 -143 -13 -398 -1
-213 -4 -414 -7 -447 -2 -33 -6 -107 -9 -165 -10 -204 -18 -276 -38 -360 -24
-96 -34 -114 -62 -106 -28 7 -57 -11 -57 -35 0 -14 -6 -19 -17 -18 -10 2 -28
-2 -39 -9 -12 -6 -24 -9 -27 -5 -4 3 -9 -2 -13 -11 -3 -9 -12 -16 -20 -16 -8
0 -14 -6 -14 -13 0 -10 -24 -13 -92 -15 -92 -1 -172 13 -162 29 3 5 -2 6 -10
3 -17 -7 -167 70 -179 92 -4 8 -14 14 -21 14 -7 0 -21 10 -32 21 -21 25 -109
82 -139 92 -24 8 82 -92 143 -134 69 -49 252 -136 320 -153 35 -9 101 -19 148
-22 46 -4 81 -11 78 -15 -3 -5 2 -6 10 -3 9 3 16 3 16 0 0 -11 -35 -46 -46
-46 -6 0 -17 -7 -25 -16 -7 -8 -21 -13 -32 -10 -14 3 -17 0 -13 -11 5 -11 2
-14 -11 -9 -9 4 -38 9 -63 12 -75 9 -91 14 -84 26 5 8 2 9 -10 5 -9 -4 -30 0
-47 8 -16 9 -29 12 -29 7 0 -31 246 -102 365 -106 36 -1 41 -4 51 -36 9 -26 9
-37 0 -42 -7 -5 -6 -8 5 -8 8 0 21 -16 29 -35 8 -20 22 -42 31 -51 10 -9 15
-23 12 -35 -4 -12 3 -29 17 -44 13 -13 20 -31 17 -39 -4 -9 -2 -18 2 -21 5 -2
12 -17 16 -32 3 -15 22 -44 41 -66 19 -21 34 -46 33 -55 -1 -9 1 -24 4 -32 4
-8 13 -34 21 -57 13 -37 13 -42 -2 -48 -10 -4 -12 -9 -6 -13 13 -9 13 -174 -1
-184 -6 -5 -5 -12 3 -20 15 -15 16 -32 1 -22 -7 4 -10 -3 -9 -17 3 -31 -10
-69 -22 -69 -18 0 -39 -30 -41 -60 -2 -24 -5 -29 -21 -24 -12 4 -16 2 -12 -5
4 -6 1 -18 -8 -26 -11 -11 -16 -12 -19 -2 -6 12 -11 -18 -8 -42 2 -7 -2 -10
-8 -6 -6 3 -11 -1 -11 -10 0 -8 -12 -20 -26 -25 -14 -6 -23 -14 -20 -19 3 -5
-4 -11 -15 -14 -16 -4 -19 -10 -14 -28 5 -14 4 -19 -4 -15 -7 5 -8 1 -4 -10 4
-11 2 -15 -7 -12 -7 2 -28 -11 -47 -29 -36 -37 -41 -45 -19 -37 8 3 17 1 21
-5 3 -6 -2 -11 -12 -12 -10 0 -27 -2 -38 -4 -97 -19 -218 -26 -472 -26 -164 1
-307 3 -318 5 -11 3 -63 5 -115 5 -65 1 -90 4 -80 11 19 12 13 12 -26 1 -29
-8 -38 -4 -102 43 -38 28 -107 71 -152 96 -124 68 -171 101 -182 126 -6 12
-25 28 -42 34 -99 36 -216 113 -216 141 0 5 -14 23 -30 41 -17 17 -34 45 -39
62 -6 19 -10 24 -10 12 -1 -24 -14 -13 -18 16 -2 12 -8 27 -14 34 -6 7 -7 19
-3 25 4 8 3 9 -4 5 -8 -5 -12 2 -13 21 0 15 -2 37 -5 48 -2 11 -5 37 -6 58 -1
20 -6 37 -11 37 -4 0 -5 -5 -1 -12 5 -7 3 -8 -5 -4 -7 5 -10 14 -7 21 2 7 0
17 -6 23 -6 6 -5 14 5 23 11 10 12 19 4 36 -19 43 31 111 113 153 13 7 56 15
95 17 89 4 148 18 252 58 45 18 84 30 87 27 4 -3 6 -1 6 5 0 6 14 16 31 23 22
9 27 15 17 21 -14 9 -52 5 -92 -11 -16 -6 -27 -6 -31 0 -4 6 2 10 12 10 17 1
17 1 1 11 -10 5 -18 15 -18 22 0 12 184 129 225 143 43 15 250 150 300 196 60
55 106 125 100 154 -2 10 -4 23 -4 28 -1 5 -15 -18 -32 -52 -35 -71 -111 -151
-151 -159 -16 -3 -28 -9 -28 -13 0 -4 -18 -15 -40 -26 -22 -10 -40 -23 -40
-27 0 -5 -4 -5 -10 -2 -5 3 -21 -5 -35 -19 -14 -14 -28 -25 -30 -25 -16 2 -65
-14 -65 -20 0 -10 -95 -55 -238 -115 -56 -23 -63 -24 -61 -8 6 66 -25 119 -63
106 -10 -3 -18 -2 -18 3 0 5 -13 10 -30 11 -35 3 -41 -15 -7 -20 23 -3 27 -20
6 -27 -8 -2 -9 1 -3 10 6 11 3 10 -11 -1 -13 -11 -19 -12 -22 -3 -2 7 -12 10
-21 7 -14 -5 -13 -2 2 10 15 12 17 19 9 27 -13 13 -36 3 -28 -12 4 -5 -2 -10
-12 -10 -60 -4 -81 -3 -76 4 5 8 -21 37 -33 37 -5 0 -3 -5 4 -12 19 -19 14
-24 -20 -23 -21 0 -32 5 -31 12 2 7 -3 12 -10 10 -6 -1 -11 4 -10 11 2 6 -2
12 -9 12 -6 0 -8 3 -5 7 4 3 -1 15 -10 26 -16 16 -18 39 -17 166 2 133 4 151
27 201 14 30 27 63 31 73 6 18 -9 24 -19 7 -16 -25 -25 -4 -26 58 -2 106 -14
131 -22 42 -46 -555 -55 -707 -63 -1037 -3 -147 -7 -286 -9 -308 -2 -22 -3
-57 -4 -77 -1 -21 -5 -38 -10 -38 -5 0 -31 18 -57 40 -30 25 -55 38 -64 34 -8
-3 -24 -7 -35 -9 -11 -1 -22 -3 -25 -4 -3 -1 29 -16 70 -35 41 -18 116 -59
165 -91 50 -31 178 -100 285 -152 269 -130 361 -178 461 -240 87 -53 190 -149
249 -232 57 -79 127 -233 188 -417 76 -226 92 -327 92 -570 0 -181 -3 -214
-22 -214 -6 0 -5 7 2 15 10 12 10 19 2 27 -9 9 -12 8 -12 -5 0 -9 -7 -17 -16
-17 -8 0 -12 -5 -9 -10 3 -6 -1 -10 -10 -10 -9 0 -13 -4 -10 -10 9 -14 -8 -13
-23 2 -6 6 -15 8 -19 3 -5 -4 -3 -10 4 -12 8 -3 9 -13 3 -33 -9 -31 -5 -40 19
-40 14 0 14 2 1 10 -8 5 -11 12 -7 16 7 7 47 -23 47 -36 0 -4 -11 -13 -25 -20
-14 -7 -23 -15 -20 -18 2 -3 11 0 18 7 11 9 17 8 27 -4 10 -13 9 -15 -9 -15
-11 0 -21 -4 -21 -10 0 -5 6 -10 14 -10 8 0 16 -7 19 -14 4 -9 1 -13 -6 -11
-7 3 -19 1 -27 -5 -12 -7 -12 -14 -2 -43 7 -18 12 -41 12 -51 0 -14 3 -15 21
-6 29 16 52 5 44 -20 -5 -16 -2 -20 16 -20 20 0 21 4 16 42 -7 61 1 73 52 77
92 6 127 40 119 115 -6 54 -33 92 -75 108 -18 7 -33 15 -33 19 0 4 -7 15 -16
24 -9 9 -18 37 -19 63 -2 26 0 40 3 32 4 -8 14 -15 22 -15 8 0 49 -8 90 -17
41 -9 130 -23 197 -32 68 -9 140 -24 160 -33 31 -14 83 -18 269 -21 130 -2
252 0 277 6 29 6 49 6 55 0 5 -5 37 -12 70 -15 46 -4 65 -2 83 11 l23 16 -24
0 c-14 0 -32 5 -40 10 -13 9 -12 12 5 25 37 28 100 91 130 129 59 76 66 83 59
62 -5 -13 -3 -17 7 -14 8 3 15 13 15 24 1 10 7 39 13 64 14 58 14 113 0 127
-7 7 -5 15 6 27 15 15 14 21 -14 80 -33 69 -51 90 -51 57 0 -12 4 -21 8 -21 9
0 10 -3 13 -57 1 -18 7 -34 14 -37 8 -3 11 5 8 22 -3 27 -3 27 8 -2 10 -25 9
-31 -7 -43 -19 -14 -19 -15 0 -29 11 -8 14 -14 8 -14 -7 0 -12 -15 -13 -32 -1
-24 -5 -15 -15 32 -18 85 -40 151 -74 225 -33 72 -48 141 -28 129 18 -11 108
-70 136 -90 13 -9 44 -60 70 -113 49 -102 48 -97 41 -270 -3 -61 0 -86 9 -89
7 -2 12 -21 12 -42 0 -21 5 -42 11 -46 7 -4 10 -1 7 6 -2 8 4 22 14 32 10 10
15 24 11 34 -3 9 -1 19 6 23 9 6 9 15 1 35 -13 34 -13 49 0 41 15 -9 12 11 -4
24 -19 16 -26 81 -9 81 21 0 63 -31 63 -46 0 -7 13 -20 30 -29 18 -9 40 -35
55 -66 48 -94 162 -181 255 -193 25 -3 38 -3 30 0 -8 4 -19 11 -25 18 -5 6
-29 24 -52 40 -24 16 -40 32 -37 37 3 5 -2 6 -10 3 -9 -4 -16 -1 -16 6 0 6 -6
10 -12 7 -23 -8 -64 21 -93 65 -15 24 -44 58 -64 76 -30 28 -32 32 -13 27 20
-6 22 -4 13 12 -5 10 -19 37 -30 61 l-21 43 22 -7 c32 -9 148 -77 148 -86 0
-13 -29 -9 -60 7 -39 20 -38 6 0 -28 17 -15 30 -34 30 -43 0 -14 2 -14 16 -3
15 12 16 10 10 -17 -5 -24 -1 -36 20 -60 20 -22 23 -24 15 -6 -7 14 -8 22 -2
22 6 0 1 21 -10 46 -11 26 -18 48 -17 49 2 1 28 -2 58 -7 77 -13 101 -12 111
3 6 11 13 9 31 -7 13 -12 29 -19 36 -17 6 3 12 0 12 -6 0 -6 13 -11 29 -11 17
0 33 -4 36 -10 3 -6 -5 -10 -18 -10 -14 0 -28 -7 -31 -16 -7 -19 2 -33 12 -19
4 6 22 16 41 22 31 11 39 10 76 -10 l41 -23 18 23 c17 23 17 23 -13 29 -17 4
-31 10 -31 15 0 16 27 23 100 25 121 4 200 23 233 55 26 27 28 34 25 93 -3 58
-6 66 -30 81 -16 9 -28 19 -28 23 0 4 30 21 67 37 48 21 87 49 144 103 l78 75
6 72 c6 63 10 75 31 85 l24 13 -26 14 c-32 16 -37 16 -29 2 9 -14 -17 -38
-100 -88 -79 -47 -112 -58 -127 -43 -15 15 57 109 99 129 18 8 46 13 63 11 16
-3 30 -1 30 4 0 4 -5 8 -12 8 -6 0 -20 8 -30 17 -10 9 -29 18 -41 20 -67 10
-75 9 -70 -4 3 -7 9 -11 13 -8 4 3 10 -4 13 -15 3 -12 1 -20 -6 -19 -25 3 -38
-1 -32 -10 3 -5 -5 -11 -17 -13 -15 -2 -22 -9 -22 -21 1 -10 -11 -24 -29 -33
-29 -16 -31 -15 -47 7 l-18 22 -6 -21 c-4 -12 -12 -22 -17 -22 -6 0 -8 4 -5 9
4 5 -8 21 -25 35 -16 14 -28 30 -25 35 7 11 -24 27 -61 30 -16 1 -16 3 2 17
19 15 19 15 -9 12 -38 -4 -46 19 -11 32 18 7 25 15 21 25 -6 17 5 20 20 6 13
-13 64 -1 64 15 0 17 16 18 26 2 4 -6 2 -14 -4 -16 -7 -2 -12 -8 -12 -13 0 -6
4 -8 9 -4 5 3 18 -6 29 -20 24 -31 48 -35 30 -5 -7 11 -20 23 -29 25 -10 4
-15 13 -13 23 3 10 -4 22 -16 30 -21 13 -45 8 -35 -8 3 -5 -3 -11 -13 -15 -21
-6 -52 3 -52 15 0 4 -14 6 -31 4 -27 -3 -30 -2 -19 11 7 9 9 19 5 23 -4 4 -10
2 -12 -5 -5 -14 -71 -38 -80 -29 -4 3 1 6 10 6 10 0 14 5 11 14 -6 17 29 39
54 34 27 -5 119 134 178 269 l34 78 38 -1 c23 0 52 -10 70 -23 18 -12 48 -25
68 -28 33 -5 39 -2 85 48 54 59 58 67 64 149 2 30 7 80 10 110 7 52 4 60 -36
135 -35 66 -43 90 -45 144 -2 57 -6 67 -31 87 -15 13 -36 23 -46 24 -24 0 -75
-27 -115 -61 -18 -16 -39 -29 -47 -29 -16 0 -55 47 -55 67 0 8 -8 35 -19 61
-10 26 -28 71 -39 100 -12 29 -47 87 -80 130 -32 42 -84 111 -115 152 -72 97
-260 279 -365 354 -78 55 -218 124 -229 112 -3 -3 6 -8 21 -12 14 -3 23 -11
19 -17 -4 -6 -1 -7 6 -3 7 5 19 0 27 -10 9 -11 12 -13 8 -5 -4 9 -2 12 7 9 8
-3 13 -12 11 -19 -2 -8 0 -11 4 -6 4 4 14 1 23 -7 9 -8 20 -15 26 -15 5 0 11
-5 14 -12 2 -7 -1 -9 -8 -5 -15 10 -14 2 6 -55 20 -55 39 -66 29 -16 -6 31 -6
32 9 9 9 -12 13 -27 10 -32 -3 -6 -1 -10 6 -10 6 0 9 -8 6 -20 -3 -10 -2 -19
2 -18 19 2 24 -3 11 -12 -13 -8 -13 -10 2 -10 11 0 15 -5 12 -15 -4 -8 -1 -15
7 -15 7 0 10 -3 6 -6 -3 -3 -1 -18 5 -33 11 -26 18 -61 21 -93 1 -10 5 -18 10
-18 4 0 5 -4 2 -10 -3 -5 -2 -10 3 -10 5 0 8 -14 6 -30 -2 -17 1 -30 7 -30 6
0 9 -7 5 -15 -3 -8 -2 -15 2 -15 4 0 9 -8 10 -17 2 -25 10 -68 12 -68 2 0 9
-35 14 -78 3 -20 7 -41 11 -46 5 -9 16 -97 19 -153 0 -16 4 -28 7 -28 5 0 4
-268 -1 -280 -1 -3 -2 -22 -2 -42 0 -21 -4 -38 -9 -38 -5 0 -9 67 -8 153 1
141 -22 422 -36 435 -6 6 3 -143 10 -165 2 -7 0 -15 -4 -17 -8 -5 -22 68 -37
192 -4 29 -9 51 -11 48 -2 -2 4 -64 13 -137 21 -164 31 -479 15 -479 -6 0 -11
19 -11 45 l0 44 -51 -32 c-28 -17 -54 -39 -58 -48 -3 -10 -7 60 -8 154 -1 95
-6 199 -12 232 -9 56 -9 54 -4 -32 3 -63 1 -93 -6 -93 -6 0 -11 19 -11 43 0
49 -35 331 -49 392 -5 22 -17 78 -26 125 -9 47 -20 92 -24 100 -5 9 -12 31
-16 50 -3 19 -15 58 -25 85 -13 35 -15 56 -9 68 7 11 6 23 -1 35 -9 14 -10 13
-4 -7 4 -16 3 -21 -5 -17 -6 4 -11 12 -11 18 0 5 -10 24 -22 41 -13 18 -28 42
-35 54 -11 21 -9 23 10 24 12 1 -18 11 -68 24 l-90 22 -3 44 c-2 24 1 82 7
129 26 195 31 552 11 685 -6 33 -10 112 -10 176 0 63 -4 140 -9 170 -11 62
-16 128 -31 394 -17 294 -54 412 -162 517 -49 47 -73 61 -141 85 -78 27 -91
28 -247 27 -104 -1 -193 -7 -240 -17 -79 -16 -90 -15 -90 9 0 8 -9 14 -21 14
-13 0 -18 4 -13 13 4 6 -1 5 -12 -4 -10 -9 -25 -14 -32 -12 -18 7 -42 -16 -35
-33 4 -10 -4 -14 -31 -14 -48 0 -52 14 -28 91 20 64 20 64 32 37 19 -41 55
-62 80 -46 11 7 20 17 20 22 0 4 -7 3 -15 -4 -21 -18 -65 12 -65 45 0 13 -4
26 -9 30 -5 3 -10 24 -10 48 -1 23 -2 74 -2 112 -2 96 11 215 24 215 8 0 8 3
0 11 -8 8 -7 18 2 37 19 39 38 85 41 101 4 18 58 68 84 76 12 4 28 1 38 -7 15
-12 16 -11 3 5 -20 25 -57 21 -107 -14 -25 -17 -50 -29 -56 -27 -9 3 -12 59
-13 194 0 218 -8 247 -96 379 -89 133 -232 237 -371 270 -79 18 -229 27 -288
16z m26 -172 c3 -5 16 -6 29 -3 12 3 26 1 30 -6 5 -7 11 -8 19 -1 15 13 67 17
83 8 7 -4 9 -15 6 -25 -6 -16 -5 -16 14 1 25 22 65 23 57 2 -5 -11 -2 -13 11
-9 10 4 21 1 25 -7 5 -7 24 -13 44 -13 19 0 32 -4 30 -8 -3 -4 1 -8 10 -8 8 0
16 5 18 11 6 17 54 -34 50 -53 -2 -12 1 -16 10 -13 13 5 58 -25 58 -39 0 -13
-31 -5 -36 9 -4 8 -10 13 -15 10 -4 -3 -6 -12 -2 -21 3 -8 8 -12 11 -9 3 3 14
-2 24 -12 13 -11 18 -12 18 -3 0 10 3 10 15 0 8 -7 15 -22 15 -34 0 -12 9 -27
20 -34 11 -7 20 -19 20 -27 0 -8 5 -15 11 -15 6 0 8 -9 3 -22 -6 -20 -5 -21 9
-10 14 12 15 10 13 -10 -1 -13 -5 -29 -9 -35 -4 -6 -3 -14 2 -17 6 -4 6 -18 1
-36 -7 -23 -5 -30 8 -33 12 -3 10 -5 -5 -6 -38 -2 -43 -73 -9 -106 12 -11 21
-30 20 -42 -1 -13 3 -23 7 -23 5 0 8 -3 7 -7 -1 -5 3 -18 10 -29 6 -12 8 -24
5 -28 -3 -3 -1 -6 5 -6 10 0 3 -30 -14 -58 -1 -2 -18 7 -38 19 -22 13 -36 16
-36 9 0 -7 -8 -9 -19 -5 -11 3 -22 1 -26 -5 -3 -5 -15 -10 -25 -10 -10 0 -22
-5 -26 -11 -5 -8 1 -10 20 -7 21 4 34 -2 61 -31 36 -36 44 -32 23 14 -13 29
-2 49 13 22 6 -9 16 -17 24 -17 12 0 53 -58 63 -90 6 -19 6 -84 0 -136 -6 -46
-81 -164 -104 -164 -8 0 -14 -7 -14 -16 0 -10 -6 -14 -15 -10 -9 3 -15 0 -15
-9 0 -8 6 -15 13 -15 9 0 8 -3 -2 -9 -16 -10 -7 -61 10 -61 6 0 9 6 6 13 -2 6
3 24 11 40 16 27 32 36 32 17 0 -5 -4 -10 -10 -10 -5 0 -10 -6 -10 -12 1 -7
10 -2 21 11 11 13 22 21 26 18 3 -4 17 3 31 13 13 11 28 20 32 20 10 0 5 -46
-13 -120 -9 -36 -16 -78 -15 -95 1 -40 -21 -145 -31 -145 -4 0 -16 -18 -26
-41 -20 -43 -63 -73 -90 -63 -11 5 -16 2 -15 -7 4 -27 0 -38 -26 -69 -56 -66
-159 -92 -369 -92 -85 -1 -170 29 -220 77 -25 23 -45 36 -45 28 0 -7 -2 -13
-5 -13 -12 0 -61 35 -82 58 -34 37 -146 268 -145 300 0 15 -5 30 -11 34 -6 3
-12 32 -14 62 -2 50 0 56 18 56 11 0 22 -7 25 -15 4 -8 12 -15 19 -15 7 0 16
-6 19 -12 4 -7 4 -3 2 9 l-4 22 40 -20 c33 -17 42 -18 49 -7 13 20 11 26 -11
33 -11 4 -18 11 -15 16 4 5 -4 13 -17 18 -32 12 -65 50 -73 84 -4 15 -10 27
-14 27 -9 0 -7 72 2 87 4 6 0 14 -9 17 -8 3 -12 10 -9 16 3 5 8 20 10 32 3 12
10 25 17 30 8 4 8 8 2 8 -6 0 -11 7 -11 15 0 8 5 15 10 15 5 0 7 7 3 15 -3 8
0 15 6 15 7 0 7 4 -1 13 -11 14 -5 27 11 27 5 0 7 -4 4 -9 -3 -4 -1 -22 3 -39
6 -20 5 -34 -2 -42 -9 -9 -3 -11 25 -9 27 3 43 -2 61 -19 30 -28 34 -28 30 6
-2 15 1 34 7 42 9 13 12 13 25 -3 18 -25 83 -27 100 -4 13 18 41 24 30 7 -9
-15 17 -38 37 -32 29 7 21 -21 -18 -66 -41 -48 -81 -72 -121 -72 -24 -1 -26
-2 -10 -11 29 -17 125 16 137 46 5 14 21 34 34 46 14 12 23 26 20 30 -2 4 0
10 6 14 5 3 10 16 10 28 1 22 1 22 15 3 9 -12 12 -29 9 -40 -8 -25 -8 -118 1
-148 5 -17 4 -19 -4 -8 -8 12 -11 11 -17 -5 -25 -73 -60 -135 -104 -184 -49
-55 -131 -263 -130 -330 1 -30 17 10 30 74 9 45 28 84 77 158 36 53 69 97 74
97 5 0 11 11 15 25 10 40 31 51 52 27 17 -19 17 -16 19 77 1 53 7 112 13 131
5 19 10 63 10 97 0 34 4 64 9 67 5 4 -2 25 -15 49 -13 23 -26 49 -30 57 -23
60 -27 65 -32 46 -3 -16 -10 -17 -45 -12 -68 11 -113 15 -97 9 8 -3 34 -14 58
-25 23 -10 48 -16 54 -12 7 5 8 3 3 -6 -6 -10 -4 -12 10 -6 14 5 16 4 6 -8 -6
-7 -32 -19 -56 -26 -45 -13 -69 -30 -42 -30 8 0 21 -8 28 -17 12 -15 12 -16
-6 -9 -65 27 -100 29 -145 7 l-45 -22 35 31 c19 16 40 30 48 30 7 0 10 5 7 10
-12 20 -113 -21 -146 -60 -16 -19 -16 -18 -16 6 0 13 5 27 11 31 6 4 2 9 -12
13 -22 5 -22 6 -5 28 10 13 28 34 40 47 26 27 16 40 -22 31 -15 -4 -25 -1 -29
10 -3 8 -2 12 4 9 5 -3 21 6 35 21 16 17 31 25 44 21 14 -3 18 -1 14 10 -4 9
-15 13 -29 10 -13 -2 -24 -1 -24 2 0 12 52 66 61 63 5 -1 9 5 9 13 0 8 5 15
10 15 6 0 10 5 10 12 0 6 -9 3 -21 -8 -22 -19 -23 -19 -50 29 -6 10 -15 14
-22 10 -7 -4 -6 0 2 10 12 15 11 21 -9 42 -23 25 -23 25 -4 40 10 8 14 15 9
15 -6 0 -16 9 -23 21 -8 12 -9 18 -3 14 6 -3 11 1 11 9 0 9 -4 16 -9 16 -4 0
-7 13 -5 30 2 16 -1 32 -7 36 -6 3 -3 12 8 21 11 9 12 12 3 8 -13 -6 -13 -5 0
7 8 7 16 24 18 38 2 24 54 80 74 80 5 0 28 9 50 20 23 11 47 20 54 20 6 0 17
7 25 16 7 9 22 14 36 11 13 -2 26 -1 28 3 6 10 54 9 61 -1z m-341 -349 c3 -5
2 -10 -4 -10 -5 0 -13 5 -16 10 -3 6 -2 10 4 10 5 0 13 -4 16 -10z m65 -169
c0 -12 -20 -25 -27 -18 -7 7 6 27 18 27 5 0 9 -4 9 -9z m-183 -595 c-10 -26
-34 -18 -46 15 -14 42 -15 42 12 75 l22 29 9 -52 c5 -29 6 -59 3 -67z m-7 -86
c0 -5 -11 -10 -25 -10 -14 0 -25 5 -25 10 0 6 11 10 25 10 14 0 25 -4 25 -10z
m1320 -230 c0 -5 -4 -10 -10 -10 -5 0 -10 5 -10 10 0 6 5 10 10 10 6 0 10 -4
10 -10z m-199 -129 c-12 -8 -13 -15 -3 -35 9 -19 8 -27 -4 -37 -10 -8 -11 -15
-3 -25 7 -9 7 -18 0 -33 -8 -13 -8 -22 -1 -26 6 -4 7 -12 1 -22 -4 -9 -6 -24
-4 -34 3 -11 -1 -27 -8 -36 -8 -9 -9 -14 -4 -11 11 7 12 -123 0 -142 -4 -6 -2
-17 4 -24 6 -7 7 -16 3 -20 -11 -11 -11 -259 0 -273 7 -8 5 -23 -6 -44 -9 -19
-18 -70 -21 -127 -3 -52 -10 -103 -16 -114 -7 -14 -7 -23 1 -33 8 -10 8 -15 0
-20 -7 -4 -10 -16 -7 -26 3 -10 1 -22 -4 -25 -6 -3 -7 -13 -4 -23 2 -9 -2 -52
-10 -95 -8 -43 -13 -81 -11 -85 3 -4 0 -25 -5 -47 -6 -21 -10 -46 -10 -54 -1
-8 -3 -22 -6 -30 -3 -8 -7 -33 -8 -55 -1 -22 -5 -47 -8 -55 -9 -26 -19 -74
-23 -109 -3 -30 -26 -82 -67 -157 -7 -11 -20 -28 -30 -38 -9 -10 -15 -21 -12
-26 3 -5 -4 -11 -15 -15 -11 -3 -20 -10 -20 -15 0 -13 -41 -22 -109 -23 -60
-1 -65 0 -91 31 -14 18 -31 32 -36 32 -16 1 -84 68 -84 83 0 9 -4 19 -10 22
-5 3 -24 36 -42 73 -17 37 -37 74 -43 82 -7 8 -15 27 -18 41 -4 14 -14 43 -23
64 -12 29 -18 35 -25 24 -6 -9 -7 -3 -4 20 2 18 0 41 -4 50 -9 17 -25 54 -37
86 -4 11 -6 26 -5 33 1 8 -2 19 -7 25 -12 15 -26 68 -23 85 1 8 -3 19 -9 26
-5 8 -8 20 -4 29 3 8 0 18 -6 22 -6 4 -8 16 -5 26 4 11 2 25 -3 32 -11 13 -29
116 -33 187 0 8 -3 22 -6 30 -3 8 -6 60 -8 115 -1 55 -5 107 -8 115 -18 40
-25 261 -12 365 3 28 7 62 9 78 1 15 6 30 9 33 3 4 29 -16 56 -45 27 -28 57
-51 68 -51 22 -1 57 -46 47 -62 -5 -7 -3 -8 5 -3 8 4 23 -4 41 -24 16 -17 34
-31 40 -31 6 0 8 -5 4 -12 -5 -7 -2 -9 8 -5 10 3 27 -6 44 -24 15 -16 31 -29
36 -29 16 0 7 29 -18 59 -23 27 -24 32 -11 46 21 20 73 20 81 -1 6 -15 -6 -39
-26 -54 -9 -7 31 -90 43 -90 5 0 14 12 20 27 14 37 20 40 84 37 32 -1 55 2 55
8 0 6 6 8 14 5 14 -5 136 88 136 104 0 5 7 9 16 9 8 0 13 4 10 8 -3 5 8 24 25
43 16 19 29 38 29 42 0 9 12 24 50 64 13 15 25 32 25 37 0 29 31 76 50 76 16
0 17 -2 6 -9z m16 -253 c-3 -8 -6 -5 -6 6 -1 11 2 17 5 13 3 -3 4 -12 1 -19z
m-12 -158 c3 -5 1 -10 -4 -10 -6 0 -11 5 -11 10 0 6 2 10 4 10 3 0 8 -4 11
-10z m-965 -270 c0 -5 -4 -10 -10 -10 -5 0 -10 5 -10 10 0 6 5 10 10 10 6 0
10 -4 10 -10z m0 -50 c0 -5 -2 -10 -4 -10 -3 0 -8 5 -11 10 -3 6 -1 10 4 10 6
0 11 -4 11 -10z m933 -291 c-8 -8 -13 -7 -18 2 -5 8 -4 10 3 5 7 -4 12 -2 12
5 0 7 3 9 7 6 4 -4 2 -12 -4 -18z m-12 -52 c-10 -9 -11 -8 -5 6 3 10 9 15 12
12 3 -3 0 -11 -7 -18z m-871 3 c0 -5 -5 -10 -11 -10 -5 0 -7 5 -4 10 3 6 8 10
11 10 2 0 4 -4 4 -10z m14 -60 c-6 -6 -15 -5 -24 1 -13 9 -12 10 3 5 9 -3 17
0 17 6 0 6 3 8 7 5 4 -4 2 -12 -3 -17z m1 -50 c3 -5 1 -10 -4 -10 -6 0 -11 5
-11 10 0 6 2 10 4 10 3 0 8 -4 11 -10z m849 -5 c3 -8 1 -15 -4 -15 -6 0 -10 7
-10 15 0 8 2 15 4 15 2 0 6 -7 10 -15z m-759 -255 c-3 -5 -10 -10 -16 -10 -5
0 -9 5 -9 10 0 6 7 10 16 10 8 0 12 -4 9 -10z m45 -100 c0 -5 -2 -10 -4 -10
-3 0 -8 5 -11 10 -3 6 -1 10 4 10 6 0 11 -4 11 -10z m75 -159 c3 -5 2 -12 -3
-15 -5 -3 -9 1 -9 9 0 17 3 19 12 6z m15 -40 c0 -5 -7 -11 -14 -14 -10 -4 -13
-1 -9 9 6 15 23 19 23 5z m467 -93 c-3 -8 -6 -5 -6 6 -1 11 2 17 5 13 3 -3 4
-12 1 -19z m693 -363 c0 -2 -10 -9 -22 -15 -22 -11 -22 -10 -4 4 21 17 26 19
26 11z m-50 -65 c0 -5 -4 -10 -10 -10 -5 0 -10 5 -10 10 0 6 5 10 10 10 6 0
10 -4 10 -10z m-177 -67 c-7 -2 -19 -2 -25 0 -7 3 -2 5 12 5 14 0 19 -2 13 -5z
m214 -265 c-3 -8 -6 -5 -6 6 -1 11 2 17 5 13 3 -3 4 -12 1 -19z m53 -91 c0 -5
-4 -5 -10 -2 -5 3 -10 14 -10 23 0 15 2 15 10 2 5 -8 10 -19 10 -23z m1350
-17 c0 -5 -4 -10 -10 -10 -5 0 -10 5 -10 10 0 6 5 10 10 10 6 0 10 -4 10 -10z
m77 -96 c-9 -9 -28 6 -21 18 4 6 10 6 17 -1 6 -6 8 -13 4 -17z m-67 -44 c0 -5
-4 -10 -10 -10 -5 0 -10 5 -10 10 0 6 5 10 10 10 6 0 10 -4 10 -10z m193 -17
c3 -5 1 -17 -3 -28 -6 -17 -7 -16 -12 8 -5 25 5 37 15 20z m-12 -253 c15 -132
17 -524 3 -557 -6 -14 -8 58 -7 210 2 157 -3 272 -13 357 -8 69 -17 152 -19
185 l-4 60 13 -70 c8 -38 20 -122 27 -185z m-91 199 c0 -5 -7 -9 -15 -9 -15 0
-20 12 -9 23 8 8 24 -1 24 -14z m112 -41 c-9 -9 -12 -7 -12 12 0 19 3 21 12
12 9 -9 9 -15 0 -24z m-182 -13 c0 -8 -4 -15 -9 -15 -13 0 -22 16 -14 24 11
11 23 6 23 -9z m210 -50 c0 -12 -29 -3 -34 10 -4 13 -2 14 14 5 11 -6 20 -13
20 -15z m-130 -15 c0 -5 -4 -10 -10 -10 -5 0 -10 5 -10 10 0 6 5 10 10 10 6 0
10 -4 10 -10z m119 -48 c-4 -48 2 -72 19 -73 16 -1 16 -2 0 -6 -25 -6 -22 -28
5 -41 17 -8 18 -11 5 -11 -22 -1 -24 -30 -2 -38 14 -5 14 -7 1 -14 -21 -12
-10 -49 11 -43 14 5 14 3 -1 -6 -15 -10 -17 -23 -13 -108 3 -55 1 -104 -4
-112 -7 -10 -10 19 -10 90 0 58 -7 164 -15 235 -18 157 -18 158 -5 150 6 -4
10 -14 9 -23z m-179 -28 c0 -8 -4 -12 -10 -9 -5 3 -10 10 -10 16 0 5 5 9 10 9
6 0 10 -7 10 -16z m-420 -20 c0 -8 -4 -12 -10 -9 -5 3 -10 10 -10 16 0 5 5 9
10 9 6 0 10 -7 10 -16z m903 -42 c-4 -26 -8 -30 -19 -21 -11 9 -11 15 3 35 19
30 22 28 16 -14z m-899 -166 c1 -127 -2 -180 -11 -193 -12 -15 -13 -15 -13 6
0 12 4 19 10 16 6 -3 10 -1 10 4 0 6 -4 11 -9 11 -4 0 -7 75 -5 168 3 191 2
177 10 169 4 -4 7 -85 8 -181z m491 174 c3 -5 1 -10 -4 -10 -6 0 -11 5 -11 10
0 6 2 10 4 10 3 0 8 -4 11 -10z m-75 -70 c0 -5 -4 -10 -10 -10 -5 0 -10 5 -10
10 0 6 5 10 10 10 6 0 10 -4 10 -10z m90 -70 c0 -5 -4 -10 -10 -10 -5 0 -10 5
-10 10 0 6 5 10 10 10 6 0 10 -4 10 -10z m-386 -73 c12 -9 16 -19 11 -27 -5
-8 -10 -27 -12 -44 -7 -74 -9 -76 -31 -54 -17 17 -15 31 3 24 8 -3 15 -2 16 2
0 4 2 17 5 30 4 22 3 22 -26 7 -33 -17 -60 -20 -60 -5 0 6 4 10 9 10 5 0 26 7
46 16 38 16 38 16 14 28 -13 6 -25 20 -27 30 -3 14 0 16 15 8 10 -6 27 -17 37
-25z m860 27 c-6 -2 -8 -18 -6 -34 3 -25 1 -29 -12 -24 -16 6 -22 44 -9 57 3
4 13 7 22 6 9 0 11 -3 5 -5z m-920 -36 c6 -4 7 -10 3 -15 -10 -9 -27 16 -26
37 1 13 1 13 6 0 3 -8 11 -18 17 -22z m361 12 c3 -5 -1 -10 -9 -10 -9 0 -16 5
-16 10 0 6 4 10 9 10 6 0 13 -4 16 -10z m-215 -50 c0 -5 -4 -10 -10 -10 -5 0
-10 5 -10 10 0 6 5 10 10 10 6 0 10 -4 10 -10z m-4 -40 c0 -11 -4 -20 -8 -20
-4 0 -8 9 -8 20 0 11 4 20 8 20 4 0 8 -9 8 -20z m299 10 c3 -5 1 -10 -4 -10
-6 0 -11 5 -11 10 0 6 2 10 4 10 3 0 8 -4 11 -10z m-468 -42 c-3 -8 -6 -5 -6
6 -1 11 2 17 5 13 3 -3 4 -12 1 -19z m33 -8 c0 -5 -4 -10 -10 -10 -5 0 -10 5
-10 10 0 6 5 10 10 10 6 0 10 -4 10 -10z m350 -10 c0 -5 -5 -10 -11 -10 -5 0
-7 5 -4 10 3 6 8 10 11 10 2 0 4 -4 4 -10z m-320 -28 c0 -10 -45 -32 -65 -32
-27 0 -16 17 18 28 42 13 47 14 47 4z m880 -46 c0 -2 -12 -11 -27 -20 l-28
-17 24 20 c23 21 31 25 31 17z m-1358 -46 c58 -39 88 -78 151 -199 127 -242
321 -422 507 -471 88 -23 159 -70 243 -162 45 -48 95 -93 111 -100 45 -18 113
-77 127 -109 12 -31 4 -84 -12 -74 -5 4 -23 -8 -40 -26 l-30 -32 -42 31 c-35
25 -41 35 -39 58 3 28 3 28 -17 10 -19 -18 -22 -17 -96 28 -42 25 -86 46 -98
46 -34 0 -90 18 -99 32 -6 10 -8 9 -8 -3 0 -11 -9 -15 -34 -15 -19 1 -32 4
-30 8 3 4 -4 7 -13 7 -49 2 -74 9 -91 24 -10 9 -22 14 -25 10 -4 -3 -7 -1 -7
5 0 6 -9 14 -20 17 -11 4 -18 10 -15 14 2 5 -15 14 -38 21 -23 8 -46 18 -52
23 -7 7 -3 8 9 3 16 -5 17 -4 6 9 -13 16 -35 21 -25 6 3 -5 1 -12 -4 -15 -5
-4 -12 -2 -16 4 -3 5 -13 10 -21 10 -9 0 -12 -5 -8 -12 4 -7 3 -8 -5 -4 -6 4
-9 10 -7 14 2 4 -8 16 -23 27 -20 15 -23 15 -12 2 7 -9 12 -17 9 -17 -16 0
-172 61 -258 102 -25 11 -61 28 -80 37 -19 9 -37 18 -40 21 -3 3 -37 22 -76
42 -63 33 -79 37 -150 37 -99 2 -150 -4 -239 -24 -38 -9 -81 -18 -95 -19 -14
-2 -43 -8 -65 -14 -103 -30 -328 -78 -494 -107 -19 -3 -38 -8 -42 -11 -4 -2
-51 -5 -105 -6 -87 -2 -98 0 -100 16 -1 10 -15 36 -31 59 -15 23 -28 47 -28
52 0 6 -8 21 -18 35 -9 13 -17 30 -17 36 0 7 -7 14 -14 17 -8 3 -27 32 -42 64
-15 32 -47 84 -71 116 -46 61 -51 78 -29 96 11 9 15 9 18 0 3 -8 9 -9 19 -3 8
5 52 9 99 10 48 0 91 3 97 7 6 4 23 3 38 -3 32 -12 38 -12 31 -2 -8 13 106 2
123 -11 12 -10 13 -9 6 3 -7 12 -6 13 7 3 8 -7 17 -11 19 -8 3 2 21 0 42 -5
20 -4 39 -4 42 0 3 4 24 8 47 8 24 0 45 1 48 2 3 1 59 4 125 6 166 7 182 8
190 16 4 4 14 4 23 1 10 -4 13 -2 8 5 -8 13 -4 14 91 16 34 1 65 5 69 9 4 4
-3 7 -15 7 -12 0 -20 4 -16 10 3 5 15 6 28 1 26 -10 54 -1 84 28 14 13 28 18
39 14 12 -4 15 -3 10 5 -5 8 -2 10 8 6 9 -4 16 -1 16 6 0 8 9 11 28 7 20 -4
35 1 57 20 20 16 23 21 8 14 -12 -6 -28 -11 -35 -11 -7 0 7 9 30 20 24 11 65
34 90 52 98 66 125 78 183 78 45 0 64 -6 101 -30z m476 3 c16 -16 16 -16 -2
-10 -10 4 -25 2 -32 -4 -11 -9 -14 -8 -14 3 0 31 23 36 48 11z m402 7 c0 -5
-2 -10 -4 -10 -3 0 -8 5 -11 10 -3 6 -1 10 4 10 6 0 11 -4 11 -10z m-752 -75
c-3 -3 -9 2 -12 12 -6 14 -5 15 5 6 7 -7 10 -15 7 -18z m677 15 c3 -5 -1 -10
-9 -10 -9 0 -16 5 -16 10 0 6 4 10 9 10 6 0 13 -4 16 -10z m-255 -70 c0 -5 -2
-10 -4 -10 -3 0 -8 5 -11 10 -3 6 -1 10 4 10 6 0 11 -4 11 -10z m-1215 -90
c-3 -5 -14 -10 -23 -9 -14 0 -13 2 3 9 27 11 27 11 20 0z m1435 -20 c0 -5 -4
-10 -10 -10 -5 0 -10 5 -10 10 0 6 5 10 10 10 6 0 10 -4 10 -10z m90 -51 c0
-5 -4 -9 -10 -9 -5 0 -10 7 -10 16 0 8 5 12 10 9 6 -3 10 -10 10 -16z m-2630
7 c0 -3 -4 -8 -10 -11 -5 -3 -10 -1 -10 4 0 6 5 11 10 11 6 0 10 -2 10 -4z
m2565 -96 c-3 -5 -12 -10 -18 -10 -7 0 -6 4 3 10 19 12 23 12 15 0z m471 -147
c-7 -7 -26 7 -26 19 0 6 6 6 15 -2 9 -7 13 -15 11 -17z m-406 -28 c0 -8 -62
-37 -67 -31 -3 3 10 12 28 20 42 18 39 17 39 11z m150 -49 c0 -3 -4 -8 -10
-11 -5 -3 -10 -1 -10 4 0 6 5 11 10 11 6 0 10 -2 10 -4z m337 -93 c-9 -9 -19
-14 -23 -11 -10 10 6 28 24 28 15 0 15 -1 -1 -17z m-1694 -10 c7 -4 4 -9 -9
-14 -16 -6 -16 -8 -2 -8 9 -1 22 -9 27 -18 8 -13 10 -14 11 -4 0 11 6 8 21 -7
22 -24 17 -47 -8 -38 -13 5 -13 2 2 -21 10 -16 24 -34 33 -40 9 -7 13 -13 9
-13 -4 0 2 -18 13 -40 16 -31 17 -38 5 -34 -8 4 -15 1 -15 -5 0 -6 -8 -11 -17
-11 -15 0 -13 -4 7 -23 23 -22 67 -26 54 -6 -3 5 2 6 11 3 33 -13 46 -59 36
-125 -6 -34 -8 -66 -5 -71 3 -5 0 -16 -8 -25 -9 -12 -9 -15 0 -9 7 4 12 1 12
-9 0 -10 -5 -13 -12 -9 -8 5 -9 2 -5 -9 11 -28 -7 -59 -69 -120 -70 -69 -148
-111 -177 -95 -14 7 -17 7 -13 -1 4 -6 2 -11 -4 -11 -6 0 -9 -4 -6 -9 9 -14
-25 -23 -39 -11 -10 8 -15 8 -20 0 -4 -7 -17 -9 -30 -6 -16 4 -25 1 -29 -10
-5 -13 -14 -15 -39 -9 -17 4 -40 7 -50 7 -9 -1 -15 3 -12 7 8 15 -33 44 -55
38 -11 -3 -20 -1 -20 4 0 5 -13 9 -28 9 -16 0 -32 3 -36 7 -7 7 -25 10 -98 17
-25 2 -61 8 -80 12 -18 4 -39 7 -47 5 -8 -1 -10 2 -6 9 6 9 2 9 -14 1 -16 -9
-26 -9 -43 1 -13 7 -27 11 -32 10 -4 -2 -14 2 -22 9 -7 6 -19 7 -25 3 -7 -4
-9 -3 -5 4 6 11 -30 52 -46 52 -5 0 -7 4 -4 9 3 5 -3 11 -14 14 -14 3 -20 14
-20 31 0 14 -5 26 -11 26 -5 0 -7 5 -4 10 3 6 1 10 -5 10 -7 0 -10 7 -6 15 3
8 1 27 -4 41 -7 18 -7 23 1 18 6 -3 4 8 -5 24 -10 19 -12 33 -6 37 16 10 12
25 -7 26 -10 0 -4 5 12 10 21 6 31 15 31 29 0 11 -5 20 -11 20 -6 0 -7 3 0 8
6 4 10 14 10 22 0 9 9 15 24 15 14 0 27 7 29 14 3 9 0 11 -8 6 -9 -5 -11 -4
-6 3 4 7 14 12 22 12 8 0 14 6 14 14 0 17 37 28 44 12 2 -6 5 -4 5 5 1 15 32
31 66 34 6 0 20 6 32 13 12 7 33 12 47 12 13 0 37 5 53 11 54 20 278 71 323
73 25 1 51 5 58 10 6 4 17 4 22 1 6 -3 10 -2 10 3 0 17 170 40 193 25z m1533
-60 c-3 -7 1 -13 10 -13 8 0 13 -4 9 -9 -3 -5 -1 -12 5 -16 5 -3 10 -1 10 5 0
6 5 8 10 5 16 -10 -7 -45 -25 -39 -8 4 -15 1 -15 -4 0 -6 8 -13 18 -15 13 -4
12 -5 -5 -6 -12 0 -25 -6 -28 -11 -8 -14 -77 -42 -84 -35 -3 3 5 8 17 12 12 3
22 10 22 15 0 5 7 8 16 6 9 -2 18 4 19 12 2 8 4 20 6 25 4 18 -13 45 -30 45
-9 0 -22 9 -29 20 -13 21 -3 27 15 9 14 -14 33 -3 33 18 0 13 3 13 15 3 9 -7
14 -19 11 -27z m-1456 -58 c0 -8 -2 -15 -4 -15 -2 0 -6 7 -10 15 -3 8 -1 15 4
15 6 0 10 -7 10 -15z m-1160 -560 c0 -8 -2 -15 -4 -15 -2 0 -6 7 -10 15 -3 8
-1 15 4 15 6 0 10 -7 10 -15z m885 -125 c3 -5 1 -10 -4 -10 -6 0 -11 5 -11 10
0 6 2 10 4 10 3 0 8 -4 11 -10z m-936 -172 c-1 -57 -4 -94 -6 -83 -3 11 -9 25
-14 32 -6 6 -7 32 -3 60 4 26 7 58 7 71 -1 12 3 22 8 22 5 0 8 -46 8 -102z
m101 2 c0 -5 -2 -10 -4 -10 -3 0 -8 5 -11 10 -3 6 -1 10 4 10 6 0 11 -4 11
-10z"/>
<path d="M4082 7310 c-1 -74 2 -119 7 -110 5 8 5 65 1 125 l-7 110 -1 -125z"/>
<path d="M4242 7118 c1 -232 -2 -271 -16 -293 -12 -18 -25 -25 -47 -25 -44 0
-60 46 -71 205 -5 72 -10 140 -11 153 -1 12 -6 22 -11 22 -8 0 -1 -199 11
-310 11 -99 82 -140 142 -81 l30 30 -5 203 c-10 345 -22 398 -22 96z"/>
<path d="M3810 7076 c0 -2 8 -10 18 -17 15 -13 16 -12 3 4 -13 16 -21 21 -21
13z"/>
<path d="M4157 6934 c-23 -23 7 -69 37 -58 25 10 17 58 -9 62 -12 2 -24 0 -28
-4z"/>
<path d="M4310 6843 c0 -10 -7 -31 -15 -47 -8 -15 -15 -34 -15 -41 0 -8 -13
-16 -30 -20 -39 -9 -46 -22 -22 -44 17 -14 20 -25 15 -72 -5 -53 10 -139 25
-139 4 0 6 28 5 63 -2 83 3 99 29 92 14 -5 21 -1 25 13 3 11 18 26 34 33 34
14 79 47 79 58 0 4 -14 5 -31 3 -21 -3 -40 2 -59 17 -35 26 -40 26 -41 4 0
-14 -2 -14 -6 -4 -4 9 6 24 22 37 26 21 30 21 52 7 16 -11 27 -13 34 -6 12 12
-47 37 -63 27 -5 -3 -12 3 -15 15 -6 25 -23 28 -23 4z"/>
<path d="M4448 6823 c-10 -2 -18 -9 -18 -14 0 -13 13 -11 36 6 19 14 14 17
-18 8z"/>
<path d="M4455 6732 c6 -6 -32 -35 -73 -56 -28 -14 -31 -20 -21 -32 7 -8 24
-14 38 -12 21 2 25 8 23 26 -4 27 14 30 21 3 9 -37 97 -30 97 8 0 14 5 19 16
14 8 -3 13 -12 10 -19 -4 -11 1 -13 22 -8 15 4 28 8 30 9 6 5 -65 45 -80 45
-8 0 -20 6 -26 13 -7 6 -24 12 -37 12 -13 1 -22 -1 -20 -3z"/>
<path d="M4669 6661 c11 -7 11 -9 0 -14 -8 -2 -2 -4 12 -3 32 1 27 26 -5 26
-15 0 -17 -3 -7 -9z"/>
<path d="M4625 6642 c-25 -6 -65 -32 -65 -43 0 -15 19 -10 53 13 18 13 34 24
36 25 10 6 -5 9 -24 5z"/>
<path d="M4667 6609 c7 -7 15 -10 18 -7 3 3 -2 9 -12 12 -14 6 -15 5 -6 -5z"/>
<path d="M4340 6606 c0 -17 35 -57 72 -81 34 -23 55 -28 112 -31 68 -2 73 -1
104 29 17 17 32 37 32 44 0 8 -14 -2 -31 -22 -29 -33 -35 -35 -91 -35 -67 0
-101 14 -159 67 -21 19 -39 32 -39 29z"/>
<path d="M4461 6599 c16 -10 66 -12 56 -3 -4 4 -21 8 -38 9 -22 2 -27 0 -18
-6z"/>
<path d="M3900 6590 c-33 -4 -40 -7 -27 -12 25 -10 59 -10 76 1 20 13 1 17
-49 11z"/>
<path d="M3757 6533 c3 -7 9 -13 13 -13 4 0 10 6 13 13 3 7 -3 13 -13 13 -10
0 -16 -6 -13 -13z"/>
<path d="M4333 6343 c-19 -7 15 -59 79 -123 34 -33 64 -60 68 -60 3 0 16 -17
28 -39 32 -57 61 -78 33 -24 -11 23 -21 49 -21 58 0 19 -173 192 -187 188z"/>
<path d="M4280 6329 c0 -5 5 -7 10 -4 6 3 10 8 10 11 0 2 -4 4 -10 4 -5 0 -10
-5 -10 -11z"/>
<path d="M4255 6213 c-23 -24 -47 -43 -55 -43 -8 0 -31 16 -51 36 -30 30 -42
35 -63 30 -35 -9 -33 -26 3 -26 19 0 37 -9 52 -26 13 -15 34 -38 47 -51 l23
-25 29 53 c22 43 34 55 57 57 51 6 72 37 26 37 -20 0 -40 -12 -68 -42z"/>
<path d="M3800 6200 c0 -5 5 -10 11 -10 5 0 7 5 4 10 -3 6 -8 10 -11 10 -2 0
-4 -4 -4 -10z"/>
<path d="M3830 6180 c0 -5 5 -10 11 -10 5 0 7 5 4 10 -3 6 -8 10 -11 10 -2 0
-4 -4 -4 -10z"/>
<path d="M4413 6052 c10 -10 17 -21 17 -24 0 -3 -42 -9 -92 -12 -148 -8 -210
-14 -261 -24 -40 -8 -47 -7 -43 4 3 8 0 14 -7 14 -13 0 -52 -52 -63 -85 -5
-16 -1 -15 20 8 32 33 56 34 114 6 32 -16 55 -20 89 -16 25 2 41 1 36 -4 -11
-11 -143 -30 -155 -23 -5 3 -17 -1 -26 -9 -9 -7 -25 -17 -35 -20 -32 -12 -8
-27 36 -23 23 2 42 5 42 6 0 2 9 4 20 5 11 2 47 10 80 19 74 20 137 20 194 0
24 -8 45 -13 46 -12 2 2 1 14 -2 28 -5 29 -41 50 -69 39 -10 -4 -35 -7 -54 -7
l-35 0 43 10 c23 5 42 14 42 20 0 5 -10 8 -22 5 -57 -14 -176 -19 -182 -8 -4
6 -16 11 -27 11 -11 0 -18 4 -15 9 7 11 148 24 260 24 85 0 91 -2 113 -27 19
-23 23 -24 23 -8 0 18 -80 112 -95 112 -5 0 -1 -8 8 -18z"/>
<path d="M4560 6041 c0 -5 7 -15 17 -22 15 -13 15 -12 4 9 -12 23 -21 28 -21
13z"/>
<path d="M3760 5952 c0 -10 7 -27 15 -38 16 -21 20 -8 9 34 -8 26 -24 29 -24
4z"/>
<path d="M4438 5754 c-3 -3 -20 -6 -37 -6 -17 -1 -31 -4 -31 -9 0 -13 24 -16
54 -8 35 10 58 29 35 29 -9 0 -18 -3 -21 -6z"/>
<path d="M4040 5728 c0 -11 71 -27 109 -25 49 3 53 27 4 28 -21 0 -55 1 -76 2
-20 1 -37 -1 -37 -5z"/>
<path d="M4240 5726 c0 -8 8 -13 18 -11 9 2 22 4 27 5 6 1 1 5 -10 10 -29 12
-35 12 -35 -4z"/>
<path d="M3813 5755 c-10 -10 -10 -15 0 -23 9 -8 12 -4 13 14 1 13 1 24 0 24
0 -1 -6 -7 -13 -15z"/>
<path d="M3765 5580 c3 -5 8 -10 11 -10 2 0 4 5 4 10 0 6 -5 10 -11 10 -5 0
-7 -4 -4 -10z"/>
<path d="M3776 5535 c4 -8 11 -15 16 -15 6 0 5 6 -2 15 -7 8 -14 15 -16 15 -2
0 -1 -7 2 -15z"/>
<path d="M3795 5480 c4 -6 11 -8 16 -5 14 9 11 15 -7 15 -8 0 -12 -5 -9 -10z"/>
<path d="M3807 5434 c6 -15 23 -19 23 -5 0 5 -7 11 -14 14 -10 4 -13 1 -9 -9z"/>
<path d="M3827 5384 c3 -7 9 -14 14 -14 14 0 10 17 -5 23 -10 4 -13 1 -9 -9z"/>
<path d="M4206 5278 c-9 -34 -7 -89 4 -127 10 -36 5 -55 -9 -32 -5 7 -14 10
-21 6 -12 -8 -60 13 -60 26 0 4 12 10 28 12 l27 4 -27 2 c-39 2 -35 21 5 22
23 1 26 3 9 6 -12 2 -20 9 -17 14 3 5 -2 6 -12 2 -15 -5 -16 -3 -5 8 17 18 15
25 -7 26 -14 1 -23 -8 -31 -33 -11 -31 -30 -47 -30 -24 0 5 -7 7 -15 4 -20 -8
-82 22 -95 46 -6 11 -16 20 -22 20 -7 0 1 -13 17 -30 16 -16 34 -30 41 -30 6
0 17 -6 23 -14 7 -8 27 -13 51 -12 30 2 40 -2 40 -13 0 -30 64 -63 121 -63 57
1 65 4 53 24 -13 20 -16 38 -21 111 -4 56 -8 67 -23 67 -10 0 -20 -10 -24 -22z
m29 -78 c3 -5 1 -10 -4 -10 -6 0 -11 5 -11 10 0 6 2 10 4 10 3 0 8 -4 11 -10z"/>
<path d="M3900 5279 c0 -5 5 -7 10 -4 6 3 10 8 10 11 0 2 -4 4 -10 4 -5 0 -10
-5 -10 -11z"/>
<path d="M4362 5286 c4 -5 0 -14 -9 -21 -9 -7 -17 -18 -19 -26 -1 -8 -6 -23
-10 -33 -5 -14 -4 -17 4 -12 7 4 12 2 12 -3 0 -6 -7 -11 -15 -11 -8 0 -15 -4
-15 -10 0 -9 14 -14 33 -11 4 0 7 -3 7 -9 0 -22 21 -8 45 30 14 22 33 40 43
40 10 0 27 7 38 16 10 8 14 13 8 10 -7 -3 -28 -8 -47 -10 -29 -4 -37 -1 -42
14 -3 10 -13 24 -23 31 -9 7 -14 9 -10 5z"/>
<path d="M4143 5273 c-13 -2 -23 -8 -23 -13 0 -5 14 -4 30 1 27 10 42 21 23
18 -5 -1 -18 -4 -30 -6z"/>
<path d="M4505 5270 c-16 -7 -17 -9 -3 -9 9 -1 20 4 23 9 7 11 7 11 -20 0z"/>
<path d="M4300 5116 c7 -7 14 -6 21 1 9 9 7 12 -9 10 -14 -1 -18 -5 -12 -11z"/>
<path d="M4322 4525 c0 -16 2 -22 5 -12 2 9 2 23 0 30 -3 6 -5 -1 -5 -18z"/>
<path d="M4332 4435 c0 -16 2 -22 5 -12 2 9 2 23 0 30 -3 6 -5 -1 -5 -18z"/>
<path d="M4201 4384 c0 -11 3 -14 6 -6 3 7 2 16 -1 19 -3 4 -6 -2 -5 -13z"/>
<path d="M4332 4295 c-3 -105 -16 -139 -55 -143 -37 -5 -54 11 -71 67 -9 27
-15 37 -15 24 -1 -13 6 -41 15 -64 19 -45 50 -64 87 -50 37 14 48 56 44 162
l-3 94 -2 -90z"/>
<path d="M4197 4326 c-5 -15 -6 -31 -3 -34 8 -8 18 25 14 45 -3 13 -6 10 -11
-11z"/>
<path d="M6902 1226 c7 -8 15 -12 17 -11 5 6 -10 25 -20 25 -5 0 -4 -6 3 -14z"/>
<path d="M5525 1500 c3 -5 11 -10 16 -10 6 0 7 5 4 10 -3 6 -11 10 -16 10 -6
0 -7 -4 -4 -10z"/>
<path d="M5540 1451 c0 -9 34 -41 43 -41 4 0 7 5 7 11 0 5 -5 7 -11 4 -6 -4
-9 0 -7 10 2 11 -4 19 -14 20 -10 2 -18 0 -18 -4z"/>
<path d="M5640 1320 c0 -5 5 -10 11 -10 5 0 7 5 4 10 -3 6 -8 10 -11 10 -2 0
-4 -4 -4 -10z"/>
<path d="M4892 6779 c-58 -60 -89 -149 -72 -208 5 -14 9 -20 9 -13 1 7 6 10
11 7 14 -8 13 -58 -1 -72 -15 -15 -23 -83 -10 -83 17 0 60 82 67 127 7 44 -18
119 -36 108 -19 -12 -17 26 3 67 29 56 51 60 67 12 23 -69 21 -178 -6 -266 -3
-12 0 -18 9 -18 12 0 13 -9 3 -62 -7 -35 -17 -72 -23 -83 -5 -11 -13 -36 -16
-55 -6 -32 -6 -34 8 -16 8 11 15 26 15 33 0 7 7 32 15 57 8 24 17 59 20 78 14
102 18 135 19 158 1 14 6 28 11 32 6 5 5 8 -2 8 -10 0 -12 26 -8 110 l5 110
-29 0 c-19 0 -39 -10 -59 -31z"/>
<path d="M4848 6373 c7 -3 16 -2 19 1 4 3 -2 6 -13 5 -11 0 -14 -3 -6 -6z"/>
<path d="M4860 6238 c0 -23 3 -29 9 -19 8 12 4 51 -5 51 -2 0 -4 -15 -4 -32z"/>
<path d="M3548 6072 c-35 -4 -40 -22 -16 -61 23 -36 51 -38 56 -3 2 12 8 22
13 22 16 0 10 29 -8 38 -10 4 -30 6 -45 4z"/>
<path d="M5590 5883 c0 -6 7 -26 16 -44 l15 -34 -6 35 c-5 33 -25 67 -25 43z"/>
<path d="M5627 5760 c3 -25 7 -47 9 -49 8 -9 2 55 -6 74 -6 13 -7 5 -3 -25z"/>
<path d="M3504 5664 c-60 -37 -147 -89 -194 -117 -47 -28 -119 -76 -160 -107
-41 -31 -86 -63 -100 -70 -51 -26 -214 -166 -262 -225 -28 -33 -62 -73 -77
-90 -24 -26 -44 -55 -99 -140 -26 -41 -62 -126 -62 -147 0 -13 17 11 40 58 67
132 84 161 114 190 16 16 48 54 71 84 24 31 65 74 91 97 113 95 150 124 179
137 17 8 39 24 49 35 10 11 42 32 72 47 29 15 51 30 49 34 -3 4 3 14 12 21 15
12 16 12 10 -3 -3 -10 -3 -18 2 -18 14 0 31 26 23 35 -4 5 1 5 11 2 9 -4 17
-2 17 4 0 6 5 7 10 4 6 -3 10 -2 10 3 0 5 9 12 21 15 12 3 18 10 15 16 -4 5
-1 13 5 17 8 4 9 3 5 -4 -4 -7 -2 -12 3 -12 6 0 11 7 11 15 0 13 38 41 51 38
4 -1 15 7 24 17 10 11 24 20 30 20 7 0 15 7 19 15 3 8 14 15 24 15 11 0 25 7
32 15 7 8 19 15 26 15 8 0 14 7 14 15 0 9 9 15 24 15 14 0 28 5 31 10 17 27
-44 3 -141 -56z"/>
<path d="M5691 5294 c0 -11 3 -14 6 -6 3 7 2 16 -1 19 -3 4 -6 -2 -5 -13z"/>
<path d="M2566 4233 c-11 -135 -8 -178 15 -207 26 -33 55 -31 83 7 17 24 21
44 22 135 2 89 1 98 -6 52 -4 -30 -8 -78 -9 -107 -1 -40 -7 -58 -25 -80 l-25
-28 -23 23 c-22 22 -23 29 -21 152 2 72 1 130 -1 130 -2 0 -6 -34 -10 -77z"/>
<path d="M4759 4192 c-113 -130 -179 -230 -179 -273 0 -35 32 -63 62 -54 31 9
97 73 170 165 55 68 50 65 -49 -38 -87 -90 -113 -113 -135 -112 -35 0 -45 34
-25 81 14 33 77 118 158 212 23 26 39 50 37 53 -3 2 -20 -13 -39 -34z"/>
<path d="M3993 4044 c63 -61 177 -225 177 -254 0 -25 -22 -40 -51 -33 -13 3
-57 40 -97 82 -45 47 -61 59 -40 32 94 -123 127 -148 173 -131 49 19 42 50
-33 162 -61 91 -158 198 -179 198 -4 0 19 -25 50 -56z"/>
<path d="M2420 3843 c-104 -17 -130 -25 -130 -42 0 -10 -3 -21 -7 -25 -4 -3
-8 -12 -9 -19 -1 -7 -13 -50 -27 -97 -50 -173 -96 -512 -97 -712 0 -76 -4
-128 -10 -128 -5 0 -9 45 -8 110 1 60 -1 112 -5 116 -4 4 -7 -73 -7 -172 0
-98 -5 -186 -10 -194 -7 -11 -10 -5 -10 23 0 20 -4 37 -10 37 -5 0 -10 -9 -10
-20 0 -11 -5 -20 -11 -20 -6 0 -1 -13 11 -30 l21 -29 -32 -16 -32 -17 23 -11
c33 -17 40 -41 9 -32 -32 10 -59 43 -59 71 0 13 -4 26 -10 29 -5 3 -10 28 -10
55 0 27 -4 52 -10 55 -5 3 -10 11 -10 16 0 6 5 7 10 4 6 -3 10 0 10 8 0 8 -7
18 -15 21 -14 5 -15 -14 -11 -157 3 -89 8 -183 12 -209 4 -29 3 -48 -3 -48 -5
0 -10 6 -10 13 0 6 -3 30 -7 52 -15 103 -23 441 -12 580 15 193 65 518 84 550
4 6 7 15 8 20 1 6 9 27 18 47 l16 37 -63 -35 c-111 -63 -242 -176 -321 -277
-70 -88 -200 -366 -181 -385 2 -2 -2 -14 -10 -26 -25 -34 -17 -49 10 -19 l26
28 -22 -37 c-11 -21 -25 -38 -29 -38 -4 0 -11 -21 -15 -46 -3 -25 -13 -48 -20
-50 -8 -3 -53 10 -101 30 -49 20 -95 36 -104 36 -8 0 -24 7 -34 15 -11 8 -34
15 -50 15 -24 0 -34 -6 -43 -27 -17 -37 -17 -41 12 -79 l24 -32 -21 -14 c-22
-15 -30 -71 -13 -97 5 -10 4 -12 -3 -7 -7 4 -12 1 -12 -8 0 -9 3 -16 8 -16 4
0 13 -9 19 -19 10 -16 8 -23 -9 -43 -42 -48 -50 -65 -39 -87 6 -11 11 -29 11
-41 0 -39 48 -114 89 -137 41 -24 90 -66 180 -157 33 -33 64 -55 70 -52 6 4
11 22 11 40 0 63 73 100 87 45 4 -12 25 -61 49 -110 31 -64 65 -113 128 -182
74 -82 86 -100 86 -131 0 -22 -8 -44 -22 -60 -23 -25 -24 -25 -108 -14 -151
20 -217 16 -292 -14 -36 -16 -84 -28 -105 -28 -65 0 -111 -18 -128 -50 -20
-39 -19 -77 3 -95 117 -101 214 -160 287 -175 29 -6 106 -10 172 -8 65 1 190
-3 278 -9 156 -10 162 -11 246 -51 47 -22 99 -41 115 -40 16 0 42 -5 58 -11
34 -14 121 -21 249 -22 88 0 112 5 102 22 -4 5 1 9 9 9 9 0 16 4 16 9 0 12
-36 21 -86 21 -23 0 -61 7 -85 16 -24 9 -48 17 -54 18 -5 1 -15 5 -21 8 -6 4
-25 3 -42 -2 -23 -6 -31 -5 -29 3 1 7 -8 11 -22 9 -34 -3 -142 26 -162 44 -10
9 -23 13 -30 8 -8 -4 -10 -3 -5 4 4 7 1 12 -9 12 -11 0 -15 -5 -11 -16 3 -8 2
-12 -4 -9 -6 3 -10 11 -10 16 0 11 -25 39 -34 39 -3 0 4 -17 15 -37 l21 -38
-35 35 c-24 23 -31 37 -24 42 7 5 2 8 -13 9 -14 1 -32 3 -40 3 -8 1 -15 10
-15 21 0 16 -7 20 -33 18 -19 0 -31 1 -28 4 3 3 -8 16 -24 29 -16 14 -29 32
-29 42 -3 90 1 181 7 181 19 -3 23 3 11 17 -12 15 -6 26 24 36 4 2 2 18 -5 36
-10 26 -10 37 0 53 8 12 9 18 3 14 -6 -3 -11 -2 -11 3 0 5 10 14 23 21 12 6
14 9 5 7 -13 -4 -18 0 -18 14 0 11 4 20 9 20 14 0 21 43 9 57 -6 8 -8 16 -4
20 3 3 6 1 6 -6 0 -7 5 -9 10 -6 6 4 8 11 4 16 -3 6 10 25 30 44 20 18 36 38
36 43 0 16 53 55 79 58 14 1 27 7 29 13 2 5 10 7 19 4 9 -4 14 -2 10 3 -14 24
140 59 218 50 44 -5 55 -4 49 6 -6 10 -4 11 7 0 7 -6 26 -12 41 -12 15 0 28
-4 28 -10 0 -5 -7 -7 -15 -4 -27 11 -16 -6 13 -18 21 -9 23 -12 10 -15 -19 -5
-24 -28 -8 -38 5 -3 34 7 62 23 47 25 56 27 83 16 17 -6 46 -14 65 -17 62 -8
177 -48 198 -68 13 -12 35 -19 59 -19 57 0 28 -19 -48 -31 -90 -14 -139 -28
-139 -40 0 -5 16 -6 43 -2 23 5 123 8 222 8 l180 -1 69 -33 c37 -18 66 -35 62
-38 -12 -12 33 -39 78 -47 26 -5 57 -29 52 -41 -2 -7 4 -21 15 -31 16 -14 20
-30 19 -69 -1 -27 -1 -52 0 -55 8 -25 5 -47 -7 -43 -9 3 -11 0 -7 -10 3 -10
-7 -27 -28 -46 -31 -29 -32 -31 -12 -37 16 -4 20 -11 16 -30 -5 -28 0 -30 22
-8 15 14 16 13 16 -10 0 -15 -7 -26 -17 -29 -16 -4 -16 -5 -1 -6 28 -2 16 -69
-17 -103 -15 -15 -31 -25 -36 -23 -14 9 -57 -14 -64 -35 -3 -11 -11 -18 -16
-14 -6 3 -21 3 -34 0 -18 -5 -23 -11 -18 -24 6 -15 5 -15 -10 -3 -11 9 -17 10
-17 2 0 -6 -3 -10 -7 -9 -5 1 -19 -4 -31 -11 -13 -7 -36 -14 -50 -16 -15 -3
-37 -7 -50 -9 -13 -3 -58 -6 -100 -7 -42 -1 -86 -5 -97 -9 -11 -4 -29 -4 -40
0 -11 4 -28 3 -39 -2 -13 -7 -21 -6 -28 3 -6 11 -8 9 -6 -6 2 -16 -4 -21 -37
-26 -25 -4 3 -7 72 -8 103 -1 121 -4 228 -42 224 -78 407 -129 468 -129 35 0
68 -6 85 -16 25 -15 26 -15 7 0 -15 13 -17 19 -7 25 7 4 12 14 10 22 -2 10 10
15 46 17 81 5 93 -1 105 -55 5 -27 6 -52 1 -57 -5 -5 -34 -8 -64 -7 -53 1 -55
0 -47 -22 10 -27 102 -85 150 -93 20 -4 62 -20 95 -35 32 -16 68 -29 81 -29
13 0 49 -19 81 -43 33 -23 77 -54 100 -68 l40 -27 -12 77 c-12 76 -28 412 -18
379 5 -17 35 -26 33 -10 -4 21 3 31 24 34 14 2 22 10 22 23 0 11 7 25 15 32
13 11 11 12 -10 13 -14 0 -36 7 -48 16 -37 26 -82 35 -89 19 -3 -8 -9 -12 -14
-10 -5 3 -21 -1 -36 -9 -25 -12 -32 -12 -57 1 -26 14 -28 14 -23 -1 9 -24 -5
-19 -33 10 -24 25 -24 26 -40 7 -14 -18 -19 -18 -65 -7 -30 8 -59 23 -72 38
-20 24 -43 20 -28 -4 3 -5 2 -10 -4 -10 -5 0 -23 -11 -39 -25 -17 -14 -36 -24
-44 -23 -7 2 -12 -4 -10 -12 6 -28 -14 4 -36 56 -12 28 -26 82 -32 120 -23
156 -40 328 -41 406 -1 95 -2 101 -46 154 -18 21 -40 50 -50 62 -10 13 -43 33
-73 44 -143 53 -250 86 -297 93 -29 4 -53 10 -53 13 0 4 -14 8 -31 9 -17 1
-36 6 -43 11 -6 5 -43 12 -83 15 -40 3 -82 11 -95 18 -13 7 -28 13 -34 14 -6
0 -35 11 -65 24 -30 13 -75 33 -101 44 -27 11 -55 29 -65 39 -9 10 -20 18 -25
18 -12 0 -28 17 -62 65 l-28 40 5 -52 c2 -29 3 -53 1 -53 -2 0 -13 21 -24 48
-37 80 -37 65 37 1127 23 335 24 385 10 384 -7 -1 -23 -4 -37 -6z m-670 -673
c0 -5 -4 -10 -10 -10 -5 0 -10 5 -10 10 0 6 5 10 10 10 6 0 10 -4 10 -10z
m-106 -105 c-8 -49 -17 -110 -20 -135 -4 -25 -10 -119 -14 -210 -5 -133 -7
-148 -9 -75 -5 167 0 260 20 373 19 108 29 146 34 140 1 -2 -4 -43 -11 -93z
m-44 -62 c0 -5 -5 -15 -10 -23 -8 -12 -10 -11 -10 8 0 12 5 22 10 22 6 0 10
-3 10 -7z m-81 -88 c-18 -19 -35 -33 -37 -30 -7 6 48 65 60 65 5 0 -6 -16 -23
-35z m58 -27 c-3 -8 -6 -5 -6 6 -1 11 2 17 5 13 3 -3 4 -12 1 -19z m-57 -38
c-46 -38 -65 -38 -22 0 18 17 38 30 44 30 7 0 -3 -13 -22 -30z m51 -50 c-8
-43 -9 -44 -10 -10 -1 39 11 94 16 70 2 -8 -1 -35 -6 -60z m130 7 c-13 -13
-26 -3 -16 12 3 6 11 8 17 5 6 -4 6 -10 -1 -17z m-191 -12 c-23 -25 -40 -32
-40 -17 0 7 49 41 59 42 3 0 -6 -11 -19 -25z m640 -1 c0 -8 -4 -12 -10 -9 -5
3 -10 10 -10 16 0 5 5 9 10 9 6 0 10 -7 10 -16z m0 -40 c0 -8 -5 -12 -10 -9
-6 4 -8 11 -5 16 9 14 15 11 15 -7z m-370 -3 c0 -12 -20 -25 -27 -18 -7 7 6
27 18 27 5 0 9 -4 9 -9z m-251 -15 c10 -12 6 -14 -24 -13 -33 1 -35 2 -19 14
23 16 29 16 43 -1z m631 -56 c0 -5 -4 -10 -10 -10 -5 0 -10 5 -10 10 0 6 5 10
10 10 6 0 10 -4 10 -10z m-655 -10 c-3 -5 -11 -10 -16 -10 -6 0 -7 5 -4 10 3
6 11 10 16 10 6 0 7 -4 4 -10z m62 -52 c-2 -13 -4 -5 -4 17 -1 22 1 32 4 23 2
-10 2 -28 0 -40z m133 37 c0 -8 -4 -15 -10 -15 -5 0 -10 7 -10 15 0 8 5 15 10
15 6 0 10 -7 10 -15z m460 -5 c0 -5 -4 -10 -10 -10 -5 0 -10 5 -10 10 0 6 5
10 10 10 6 0 10 -4 10 -10z m-625 -39 c15 -7 12 -9 -17 -9 -21 0 -35 4 -32 9
6 11 22 11 49 0z m555 -1 c0 -5 -4 -10 -10 -10 -5 0 -10 5 -10 10 0 6 5 10 10
10 6 0 10 -4 10 -10z m67 -37 c-3 -10 -5 -4 -5 12 0 17 2 24 5 18 2 -7 2 -21
0 -30z m-377 17 c0 -5 -4 -10 -10 -10 -5 0 -10 5 -10 10 0 6 5 10 10 10 6 0
10 -4 10 -10z m280 -55 c43 22 49 18 15 -10 -29 -24 -29 -25 -10 -40 19 -14
18 -14 -12 -4 -28 9 -33 15 -32 42 1 18 3 24 6 15 4 -16 7 -16 33 -3z m97 -7
c-3 -8 -6 -5 -6 6 -1 11 2 17 5 13 3 -3 4 -12 1 -19z m-57 -18 c0 -5 -4 -10
-10 -10 -5 0 -10 5 -10 10 0 6 5 10 10 10 6 0 10 -4 10 -10z m-404 -27 c-10
-10 -19 5 -10 18 6 11 8 11 12 0 2 -7 1 -15 -2 -18z m-170 2 c18 -13 18 -14
-4 -8 -12 3 -25 9 -28 14 -8 14 10 11 32 -6z m551 -57 c-14 -8 -16 -13 -6 -24
13 -15 9 -17 -15 -8 -23 9 -20 29 7 41 27 13 39 5 14 -9z m-531 -19 c8 -14
-10 -11 -32 6 -18 13 -18 14 4 8 12 -3 25 -9 28 -14z m444 -49 c0 -5 -5 -10
-11 -10 -5 0 -7 5 -4 10 3 6 8 10 11 10 2 0 4 -4 4 -10z m118 -19 c-23 -30
-52 -42 -43 -18 4 9 48 42 63 46 2 1 -7 -12 -20 -28z m-393 10 c3 -5 1 -12 -5
-16 -5 -3 -10 1 -10 9 0 18 6 21 15 7z m285 -15 c0 -3 -4 -8 -10 -11 -5 -3
-10 -1 -10 4 0 6 5 11 10 11 6 0 10 -2 10 -4z m-456 -42 c3 -8 2 -12 -4 -9 -6
3 -10 10 -10 16 0 14 7 11 14 -7z m995 -83 c8 -5 9 -11 3 -15 -5 -3 -15 1 -22
9 -14 16 -3 20 19 6z m-804 -11 c-3 -5 -11 -10 -16 -10 -6 0 -7 5 -4 10 3 6
11 10 16 10 6 0 7 -4 4 -10z m412 4 c-3 -3 -12 -4 -19 -1 -8 3 -5 6 6 6 11 1
17 -2 13 -5z m-57 -31 c0 -5 -13 -8 -29 -8 -16 0 -27 3 -24 8 2 4 15 7 29 7
13 0 24 -3 24 -7z m-95 -33 c-3 -5 -16 -15 -28 -21 -19 -9 -19 -8 3 10 28 23
34 26 25 11z m-55 -60 c0 -5 -5 -10 -11 -10 -5 0 -7 5 -4 10 3 6 8 10 11 10 2
0 4 -4 4 -10z m-80 -126 c-7 -16 -18 -51 -25 -79 -10 -35 -14 -42 -14 -23 -1
26 39 142 46 135 2 -3 -1 -17 -7 -33z m100 -520 c0 -8 -4 -12 -10 -9 -5 3 -10
10 -10 16 0 5 5 9 10 9 6 0 10 -7 10 -16z m1814 -259 c-4 -8 -8 -15 -10 -15
-2 0 -4 7 -4 15 0 8 4 15 10 15 5 0 7 -7 4 -15z m436 -30 c0 -5 -5 -3 -10 5
-5 8 -10 20 -10 25 0 6 5 3 10 -5 5 -8 10 -19 10 -25z m-255 -25 c4 -11 8 -35
11 -53 2 -18 6 -54 10 -82 3 -27 9 -68 13 -90 9 -47 5 -65 -14 -65 -7 0 -15
-5 -17 -12 -6 -17 -85 30 -93 56 -10 34 -18 174 -11 202 5 18 12 25 24 22 10
-3 23 1 30 9 17 17 33 8 25 -14 -4 -11 -3 -14 5 -9 17 10 15 27 -5 42 -17 12
-17 13 -1 14 9 0 20 -9 23 -20z m208 -186 c8 -87 13 -160 12 -162 -1 -1 -14 3
-29 9 -20 10 -29 10 -38 1 -20 -20 -43 -13 -67 18 -19 27 -22 41 -20 111 2 59
7 83 18 89 8 4 15 23 15 41 1 30 5 34 30 37 16 2 26 -1 22 -6 -3 -5 1 -15 9
-22 7 -6 12 -17 9 -25 -3 -7 -1 -16 5 -20 7 -4 11 5 11 24 0 17 -4 31 -10 31
-5 0 -10 8 -10 18 0 14 2 15 10 2 8 -13 10 -12 10 4 0 11 2 17 5 14 3 -3 11
-76 18 -164z m-333 50 c0 -35 -15 -30 -17 6 -1 18 2 28 7 25 6 -4 10 -17 10
-31z m-30 -82 c0 -5 -16 -13 -35 -19 -27 -9 -37 -8 -45 2 -9 11 -3 15 32 18
24 2 44 4 46 5 1 1 2 -2 2 -6z"/>
<path d="M6006 3826 c3 -8 12 -17 20 -20 11 -4 12 -2 1 14 -14 23 -29 27 -21
6z"/>
<path d="M2260 3799 c0 -5 5 -7 10 -4 6 3 10 8 10 11 0 2 -4 4 -10 4 -5 0 -10
-5 -10 -11z"/>
<path d="M2216 3783 c-4 -5 -12 -9 -17 -9 -5 -1 -13 -2 -18 -3 -5 0 -7 -10 -4
-21 3 -12 0 -20 -7 -20 -10 0 -9 -5 3 -17 13 -16 14 -21 2 -37 -8 -10 -12 -22
-10 -27 3 -4 0 -11 -6 -15 -8 -5 -9 -3 -4 7 6 10 5 11 -3 4 -9 -8 -9 -20 0
-48 10 -34 9 -39 -13 -63 -19 -21 -20 -24 -5 -18 15 6 17 4 11 -7 -5 -8 -5
-11 1 -6 5 5 9 12 10 15 0 4 3 14 7 22 7 18 65 250 62 250 -1 0 -5 -3 -9 -7z"/>
<path d="M2247 3766 c-4 -10 -7 -25 -6 -34 0 -11 4 -9 10 7 5 13 8 29 6 35 -2
5 -6 2 -10 -8z"/>
<path d="M5130 3771 c0 -5 9 -7 20 -4 11 3 20 7 20 9 0 2 -9 4 -20 4 -11 0
-20 -4 -20 -9z"/>
<path d="M6150 3749 c7 -11 14 -19 16 -16 7 7 -7 37 -17 37 -6 0 -5 -9 1 -21z"/>
<path d="M2139 3743 c-13 -16 -12 -17 4 -4 9 7 17 15 17 17 0 8 -8 3 -21 -13z"/>
<path d="M5115 3740 c27 -12 43 -12 25 0 -8 5 -22 9 -30 9 -10 0 -8 -3 5 -9z"/>
<path d="M6120 3725 c7 -8 20 -15 28 -15 13 0 12 -3 -4 -15 -18 -14 -17 -14 9
-4 34 15 34 23 2 37 -36 17 -50 15 -35 -3z"/>
<path d="M2226 3695 c-9 -26 -7 -32 5 -12 6 10 9 21 6 23 -2 3 -7 -2 -11 -11z"/>
<path d="M6070 3703 c0 -5 5 -15 10 -23 7 -12 9 -10 7 8 -1 19 -17 33 -17 15z"/>
<path d="M2126 3691 c-3 -4 -10 -21 -16 -37 -9 -27 -9 -28 5 -10 8 11 15 26
15 33 0 7 5 13 11 13 5 0 7 -4 4 -10 -3 -6 1 -7 9 -4 9 3 13 10 10 15 -7 11
-31 12 -38 0z"/>
<path d="M6185 3668 c4 -13 11 -27 16 -33 5 -5 4 5 -2 23 -12 36 -24 44 -14
10z"/>
<path d="M6140 3639 c0 -5 5 -7 10 -4 6 3 10 8 10 11 0 2 -4 4 -10 4 -5 0 -10
-5 -10 -11z"/>
<path d="M6121 3564 c0 -11 3 -14 6 -6 3 7 2 16 -1 19 -3 4 -6 -2 -5 -13z"/>
<path d="M6161 3538 c0 -7 5 -22 10 -33 8 -17 9 -16 4 7 -3 16 0 28 8 31 7 3
5 6 -5 6 -10 1 -18 -5 -17 -11z"/>
<path d="M6271 3523 c-1 -18 4 -33 9 -33 6 0 10 -8 11 -17 0 -10 3 -13 5 -7 2
5 -2 28 -10 50 l-15 39 0 -32z"/>
<path d="M6142 3485 c0 -16 2 -22 5 -12 2 9 2 23 0 30 -3 6 -5 -1 -5 -18z"/>
<path d="M6180 3469 c0 -5 5 -7 10 -4 6 3 10 8 10 11 0 2 -4 4 -10 4 -5 0 -10
-5 -10 -11z"/>
<path d="M6151 3434 c0 -11 3 -14 6 -6 3 7 2 16 -1 19 -3 4 -6 -2 -5 -13z"/>
<path d="M6304 3433 c2 -10 7 -33 11 -50 4 -18 10 -33 14 -33 10 0 6 37 -8 73
-12 30 -25 37 -17 10z"/>
<path d="M2126 3393 c-6 -14 -5 -15 5 -6 7 7 10 15 7 18 -3 3 -9 -2 -12 -12z"/>
<path d="M6162 3390 c0 -14 2 -19 5 -12 2 6 2 18 0 25 -3 6 -5 1 -5 -13z"/>
<path d="M6190 3400 c0 -5 5 -10 11 -10 5 0 7 5 4 10 -3 6 -8 10 -11 10 -2 0
-4 -4 -4 -10z"/>
<path d="M2117 3353 c-4 -3 -7 -20 -6 -37 l1 -31 8 35 c9 36 8 45 -3 33z"/>
<path d="M6328 3313 c-3 -13 -3 -23 1 -23 4 0 13 -21 21 -47 7 -26 15 -43 17
-37 2 5 -5 37 -15 70 -14 47 -19 55 -24 37z"/>
<path d="M2151 3304 c0 -11 3 -14 6 -6 3 7 2 16 -1 19 -3 4 -6 -2 -5 -13z"/>
<path d="M2140 3260 c0 -19 3 -21 12 -12 9 9 9 15 0 24 -9 9 -12 7 -12 -12z"/>
<path d="M2098 3220 c-3 -16 -1 -30 4 -30 4 0 8 14 8 30 0 17 -2 30 -4 30 -2
0 -6 -13 -8 -30z"/>
<path d="M2128 3151 c-1 -33 0 -57 3 -53 10 11 17 102 9 107 -5 3 -10 -22 -12
-54z"/>
<path d="M6270 3195 c0 -1 11 -10 25 -19 19 -13 23 -13 19 -2 -4 12 -44 31
-44 21z"/>
<path d="M6371 3174 c0 -11 3 -14 6 -6 3 7 2 16 -1 19 -3 4 -6 -2 -5 -13z"/>
<path d="M6201 3164 c0 -11 3 -14 6 -6 3 7 2 16 -1 19 -3 4 -6 -2 -5 -13z"/>
<path d="M6241 3164 c0 -11 3 -14 6 -6 3 7 2 16 -1 19 -3 4 -6 -2 -5 -13z"/>
<path d="M6270 3135 c-7 -8 -17 -12 -23 -8 -6 3 -7 1 -3 -5 5 -9 14 -7 32 4
25 17 30 24 15 24 -5 0 -14 -7 -21 -15z"/>
<path d="M1980 3130 c0 -5 5 -10 11 -10 5 0 7 5 4 10 -3 6 -8 10 -11 10 -2 0
-4 -4 -4 -10z"/>
<path d="M2036 3114 c-18 -17 -22 -39 -6 -29 11 7 33 45 26 45 -2 0 -12 -7
-20 -16z"/>
<path d="M6213 3090 c0 -25 2 -35 4 -22 2 12 2 32 0 45 -2 12 -4 2 -4 -23z"/>
<path d="M6312 3103 c3 -22 0 -33 -9 -35 -9 -2 -7 -7 7 -16 19 -12 20 -10 15
30 -3 23 -8 45 -12 48 -3 3 -4 -9 -1 -27z"/>
<path d="M6270 3090 c-8 -5 -12 -11 -10 -14 3 -2 14 2 24 10 22 15 10 19 -14
4z"/>
<path d="M1970 3038 c0 -28 2 -49 4 -47 8 9 13 99 5 99 -5 0 -9 -23 -9 -52z"/>
<path d="M2051 3066 c-9 -10 -8 -15 2 -19 8 -3 13 3 13 14 0 23 0 23 -15 5z"/>
<path d="M6260 3045 c0 -8 5 -14 11 -12 6 1 14 -4 17 -12 3 -10 0 -12 -12 -8
-10 4 -16 1 -16 -8 0 -18 8 -18 38 -2 l22 13 -30 22 c-24 18 -30 19 -30 7z"/>
<path d="M5978 3038 c5 -5 16 -8 23 -6 8 3 3 7 -10 11 -17 4 -21 3 -13 -5z"/>
<path d="M2020 2993 c0 -26 3 -34 9 -24 5 8 7 20 4 28 -4 10 3 12 28 8 31 -5
31 -4 7 4 -14 5 -31 12 -37 16 -7 4 -11 -7 -11 -32z"/>
<path d="M6320 2985 c-7 -8 -20 -15 -29 -15 -9 -1 -1 -7 18 -16 19 -8 36 -12
39 -9 3 2 -6 9 -19 14 -17 7 -19 10 -6 10 13 1 27 31 13 31 -2 0 -9 -7 -16
-15z"/>
<path d="M6260 2935 c1 -26 2 -28 11 -12 8 14 8 22 0 30 -8 8 -11 3 -11 -18z"/>
<path d="M6291 2913 c-18 -19 -10 -25 12 -8 10 7 15 15 10 18 -4 3 -14 -2 -22
-10z"/>
<path d="M2020 2876 c0 -20 4 -35 8 -32 9 5 8 53 -1 63 -4 3 -7 -10 -7 -31z"/>
<path d="M6312 2882 c-25 -21 -33 -37 -39 -76 -6 -45 -5 -48 13 -37 49 27 49
28 23 49 -32 27 -16 41 22 18 l29 -17 -6 43 c-4 24 -7 44 -8 45 -1 1 -16 -11
-34 -25z m28 -23 c0 -18 -2 -19 -15 -9 -15 12 -12 30 6 30 5 0 9 -10 9 -21z
m-30 -60 c0 -5 -7 -9 -15 -9 -8 0 -15 7 -15 15 0 9 6 12 15 9 8 -4 15 -10 15
-15z"/>
<path d="M2078 2805 c2 -19 7 -35 11 -35 4 0 5 16 3 35 -2 19 -7 35 -11 35 -4
0 -5 -16 -3 -35z"/>
<path d="M2035 2820 c-3 -5 -1 -10 4 -10 6 0 11 5 11 10 0 6 -2 10 -4 10 -3 0
-8 -4 -11 -10z"/>
<path d="M2020 2759 c0 -18 4 -28 10 -24 6 4 7 11 4 17 -4 6 -1 14 6 18 8 5 7
9 -4 13 -12 5 -16 0 -16 -24z"/>
<path d="M6330 2774 c-8 -8 -25 -23 -36 -32 -14 -11 -24 -32 -27 -59 l-5 -42
41 21 41 21 -28 22 c-34 27 -18 45 19 21 l25 -16 0 40 c0 43 -6 47 -30 24z
m17 -28 c0 -8 -6 -12 -14 -9 -7 3 -10 9 -7 14 8 14 21 11 21 -5z m-39 -58 c-6
-18 -28 -21 -28 -4 0 9 7 16 16 16 9 0 14 -5 12 -12z"/>
<path d="M3874 2708 c7 -65 48 -181 66 -186 12 -4 11 0 -3 21 -9 14 -28 68
-42 119 -19 67 -24 80 -21 46z"/>
<path d="M2049 2713 c-13 -16 -12 -17 4 -4 16 13 21 21 13 21 -2 0 -10 -8 -17
-17z"/>
<path d="M4367 2653 c1 -20 6 -40 10 -44 5 -5 6 12 5 36 -2 25 -7 45 -11 45
-4 0 -6 -17 -4 -37z"/>
<path d="M2023 2657 c2 -31 5 -32 32 -11 12 10 14 14 5 12 -8 -3 -20 2 -27 11
-9 13 -11 11 -10 -12z"/>
<path d="M4701 2629 c-13 -22 -21 -43 -18 -46 3 -3 15 14 27 37 12 23 20 44
17 46 -2 2 -14 -14 -26 -37z"/>
<path d="M4240 2626 c0 -9 5 -16 10 -16 6 0 10 4 10 9 0 6 -4 13 -10 16 -5 3
-10 -1 -10 -9z"/>
<path d="M3770 2575 c0 -14 50 -102 64 -114 24 -20 19 -5 -14 41 -16 22 -30
47 -30 54 0 7 -4 16 -10 19 -5 3 -10 4 -10 0z"/>
<path d="M4652 2538 c-12 -18 -32 -44 -46 -57 -14 -14 -26 -29 -26 -35 0 -16
69 55 86 88 20 41 10 44 -14 4z"/>
<path d="M4749 2483 c-12 -21 -37 -57 -56 -80 -35 -44 -43 -64 -17 -42 23 19
108 149 101 155 -2 3 -15 -12 -28 -33z"/>
<path d="M5250 2410 c0 -5 5 -10 11 -10 5 0 7 5 4 10 -3 6 -8 10 -11 10 -2 0
-4 -4 -4 -10z"/>
<path d="M2485 2110 c3 -5 8 -10 11 -10 2 0 4 5 4 10 0 6 -5 10 -11 10 -5 0
-7 -4 -4 -10z"/>
<path d="M6685 1950 c-3 -6 1 -7 9 -4 18 7 21 14 7 14 -6 0 -13 -4 -16 -10z"/>
<path d="M6778 1953 c7 -3 16 -2 19 1 4 3 -2 6 -13 5 -11 0 -14 -3 -6 -6z"/>
<path d="M6916 1889 c3 -5 18 -9 35 -9 16 0 29 -3 29 -8 0 -4 9 -13 21 -20 19
-12 19 -11 9 7 -9 19 -21 23 -83 36 -9 2 -15 -1 -11 -6z"/>
<path d="M6790 1866 c0 -2 10 -10 23 -19 21 -14 23 -13 24 4 1 14 -5 19 -23
19 -13 0 -24 -2 -24 -4z"/>
<path d="M7028 1863 c7 -3 16 -2 19 1 4 3 -2 6 -13 5 -11 0 -14 -3 -6 -6z"/>
<path d="M6958 1831 c-15 -18 -15 -21 3 -37 18 -16 19 -16 13 -1 -5 13 -1 17
16 17 11 0 19 4 15 10 -3 5 -12 7 -20 3 -8 -3 -15 -1 -15 5 0 6 6 13 13 15 6
3 7 6 2 6 -6 1 -18 -8 -27 -18z"/>
<path d="M7333 1743 c-15 -6 -17 -39 -3 -48 6 -3 7 1 4 10 -4 8 -1 22 6 30 13
16 13 16 -7 8z"/>
<path d="M7398 1645 c-3 -16 1 -30 14 -42 18 -16 17 -17 -19 -34 -21 -10 -44
-18 -50 -19 -7 0 -13 -4 -13 -9 0 -5 -8 -11 -18 -14 -23 -5 -37 -47 -16 -47 8
0 14 -7 14 -15 0 -8 -5 -15 -10 -15 -6 0 -13 -8 -17 -17 -3 -10 -11 -25 -17
-34 -6 -8 7 3 28 25 21 23 52 62 68 88 29 47 71 69 100 52 7 -4 -2 9 -19 27
-30 32 -47 79 -23 64 6 -3 10 -1 10 4 0 22 -28 10 -32 -14z"/>
<path d="M5755 1470 c3 -5 11 -10 16 -10 6 0 7 5 4 10 -3 6 -11 10 -16 10 -6
0 -7 -4 -4 -10z"/>
<path d="M1990 1439 c0 -5 5 -7 10 -4 6 3 10 8 10 11 0 2 -4 4 -10 4 -5 0 -10
-5 -10 -11z"/>
<path d="M5774 1435 c11 -8 22 -12 25 -9 6 6 -19 24 -34 24 -5 -1 -1 -7 9 -15z"/>
<path d="M7210 1440 c0 -5 5 -10 10 -10 6 0 10 5 10 10 0 6 -4 10 -10 10 -5 0
-10 -4 -10 -10z"/>
<path d="M2045 1430 c3 -5 8 -10 11 -10 2 0 4 5 4 10 0 6 -5 10 -11 10 -5 0
-7 -4 -4 -10z"/>
<path d="M7220 1390 c0 -5 5 -10 10 -10 6 0 10 5 10 10 0 6 -4 10 -10 10 -5 0
-10 -4 -10 -10z"/>
<path d="M2680 1221 c0 -5 9 -7 20 -4 11 3 20 7 20 9 0 2 -9 4 -20 4 -11 0
-20 -4 -20 -9z"/>
<path d="M6300 1086 c0 -18 22 -56 29 -52 5 3 8 -2 7 -12 -1 -11 6 -17 21 -16
12 0 20 -3 17 -8 -9 -13 44 -58 76 -64 35 -8 38 1 9 32 l-20 21 25 -4 c16 -3
26 -1 26 6 0 6 -7 11 -15 11 -8 0 -15 5 -15 11 0 5 -10 3 -22 -5 -30 -21 -55
-22 -38 -1 10 12 9 15 -5 15 -9 0 -15 5 -13 12 6 17 -36 58 -61 58 -11 0 -21
-2 -21 -4z"/>
<path d="M6840 1080 c0 -5 5 -10 11 -10 5 0 7 5 4 10 -3 6 -8 10 -11 10 -2 0
-4 -4 -4 -10z"/>
<path d="M3670 997 c0 -40 15 -57 51 -57 44 0 59 10 59 39 0 38 -17 51 -67 51
-42 0 -43 -1 -43 -33z m50 9 c0 -3 -4 -8 -10 -11 -5 -3 -10 -1 -10 4 0 6 5 11
10 11 6 0 10 -2 10 -4z"/>
<path d="M6690 1004 c0 -15 47 -46 106 -70 31 -12 63 -29 72 -37 10 -8 25 -17
35 -20 16 -6 16 -4 3 21 -20 38 -49 73 -42 50 3 -12 1 -15 -9 -11 -8 3 -13 9
-10 13 3 5 0 12 -6 16 -8 4 -9 3 -5 -4 4 -7 1 -12 -9 -12 -11 0 -15 5 -11 16
3 8 2 12 -3 9 -5 -3 -12 -1 -16 4 -3 6 -12 8 -20 4 -9 -3 -15 1 -15 11 0 9 -4
16 -10 16 -5 0 -10 -7 -10 -15 0 -19 -9 -19 -32 2 -10 9 -18 12 -18 7z"/>
<path d="M6563 931 c38 -23 74 -41 80 -41 7 0 26 -8 42 -18 17 -10 50 -19 75
-20 25 -1 63 -5 85 -8 57 -9 33 10 -40 31 -33 9 -85 27 -115 40 -30 12 -77 27
-105 32 -27 6 -59 13 -70 17 -11 4 11 -11 48 -33z"/>
<path d="M5735 950 c-3 -6 1 -7 9 -4 18 7 21 14 7 14 -6 0 -13 -4 -16 -10z"/>
<path d="M5974 894 c3 -9 6 -29 6 -45 0 -16 5 -29 10 -29 6 0 10 10 10 23 0
34 -11 67 -22 67 -6 0 -7 -7 -4 -16z"/>
<path d="M5710 870 c-9 -6 -10 -10 -3 -10 6 0 15 5 18 10 8 12 4 12 -15 0z"/>
<path d="M5665 860 c-3 -5 -2 -10 4 -10 5 0 13 5 16 10 3 6 2 10 -4 10 -5 0
-13 -4 -16 -10z"/>
<path d="M5845 847 c-15 -22 -15 -22 27 -25 24 -2 47 -7 53 -13 11 -11 25 -12
25 -1 0 19 -27 43 -57 51 -28 8 -35 7 -48 -12z"/>
<path d="M6475 861 c-21 -6 -26 -10 -15 -14 32 -14 119 -12 105 2 -15 15 -57
20 -90 12z"/>
<path d="M6138 849 c-8 -5 3 -7 24 -6 21 2 40 6 43 8 8 9 -53 6 -67 -2z"/>
<path d="M5620 840 c-23 -7 -23 -8 -3 -9 12 -1 25 4 28 9 3 6 5 10 3 9 -2 -1
-14 -5 -28 -9z"/>
<path d="M6074 794 c-18 -14 -18 -14 6 -3 31 14 36 19 24 19 -6 0 -19 -7 -30
-16z"/>
<path d="M5918 783 c7 -3 16 -2 19 1 4 3 -2 6 -13 5 -11 0 -14 -3 -6 -6z"/>
<path d="M6005 770 c3 -5 8 -10 11 -10 2 0 4 5 4 10 0 6 -5 10 -11 10 -5 0 -7
-4 -4 -10z"/>
<path d="M5945 760 c3 -5 12 -7 20 -3 21 7 19 13 -6 13 -11 0 -18 -4 -14 -10z"/>
<path d="M4285 440 c10 -11 20 -20 23 -20 3 0 -3 9 -13 20 -10 11 -20 20 -23
20 -3 0 3 -9 13 -20z"/>
</g>
</svg>
